<svg width="280" height="48" viewBox="0 0 280 48" fill="none" xmlns="http://www.w3.org/2000/svg">
<rect width="280" height="48" rx="24" fill="#CE2F2F"/>
<path d="M127.137 29.499L127.127 31H118.739V17.3865H127.127V18.8875H120.582V23.4095H125.883V24.8535H120.582V29.499H127.137ZM130.642 22.773C130.851 22.5387 131.072 22.3265 131.307 22.1365C131.541 21.9465 131.788 21.785 132.048 21.652C132.314 21.5127 132.592 21.4082 132.884 21.3385C133.181 21.2625 133.501 21.2245 133.843 21.2245C134.369 21.2245 134.831 21.3132 135.23 21.4905C135.635 21.6615 135.971 21.9085 136.237 22.2315C136.509 22.5482 136.715 22.9313 136.855 23.381C136.994 23.8307 137.064 24.3278 137.064 24.8725V31H135.363V24.8725C135.363 24.1442 135.195 23.5805 134.86 23.1815C134.53 22.7762 134.027 22.5735 133.349 22.5735C132.849 22.5735 132.38 22.6938 131.943 22.9345C131.512 23.1752 131.113 23.5013 130.746 23.913V31H129.046V21.3765H130.062C130.303 21.3765 130.452 21.4937 130.509 21.728L130.642 22.773ZM142.465 31.152C141.705 31.152 141.119 30.9398 140.707 30.5155C140.302 30.0912 140.099 29.48 140.099 28.682V22.792H138.94C138.839 22.792 138.754 22.7635 138.684 22.7065C138.614 22.6432 138.579 22.5482 138.579 22.4215V21.747L140.156 21.5475L140.546 18.574C140.565 18.479 140.606 18.403 140.669 18.346C140.739 18.2827 140.828 18.251 140.935 18.251H141.79V21.5665H144.574V22.792H141.79V28.568C141.79 28.9733 141.889 29.2742 142.085 29.4705C142.281 29.6668 142.535 29.765 142.845 29.765C143.022 29.765 143.174 29.7428 143.301 29.6985C143.434 29.6478 143.548 29.594 143.643 29.537C143.738 29.48 143.817 29.4293 143.88 29.385C143.95 29.3343 144.01 29.309 144.061 29.309C144.15 29.309 144.229 29.3628 144.298 29.4705L144.792 30.278C144.501 30.5503 144.15 30.7657 143.738 30.924C143.326 31.076 142.902 31.152 142.465 31.152ZM147.925 23.305C148.229 22.6463 148.603 22.1333 149.046 21.766C149.49 21.3923 150.031 21.2055 150.671 21.2055C150.874 21.2055 151.067 21.2277 151.25 21.272C151.44 21.3163 151.608 21.386 151.754 21.481L151.63 22.7445C151.592 22.9028 151.497 22.982 151.345 22.982C151.257 22.982 151.127 22.963 150.956 22.925C150.785 22.887 150.592 22.868 150.376 22.868C150.072 22.868 149.8 22.9123 149.559 23.001C149.325 23.0897 149.113 23.2227 148.923 23.4C148.739 23.571 148.571 23.7863 148.419 24.046C148.274 24.2993 148.141 24.5907 148.02 24.92V31H146.32V21.3765H147.289C147.473 21.3765 147.599 21.4113 147.669 21.481C147.739 21.5507 147.786 21.671 147.811 21.842L147.925 23.305ZM158.308 26.668C157.529 26.6933 156.864 26.7567 156.313 26.858C155.768 26.953 155.322 27.0797 154.973 27.238C154.631 27.3963 154.381 27.5832 154.223 27.7985C154.071 28.0138 153.995 28.2545 153.995 28.5205C153.995 28.7738 154.036 28.9923 154.118 29.176C154.201 29.3597 154.312 29.5117 154.451 29.632C154.597 29.746 154.764 29.8315 154.954 29.8885C155.151 29.9392 155.36 29.9645 155.581 29.9645C155.879 29.9645 156.151 29.936 156.398 29.879C156.645 29.8157 156.877 29.727 157.092 29.613C157.314 29.499 157.523 29.3628 157.719 29.2045C157.922 29.0462 158.118 28.8657 158.308 28.663V26.668ZM152.845 22.735C153.377 22.222 153.951 21.8388 154.565 21.5855C155.179 21.3322 155.86 21.2055 156.607 21.2055C157.146 21.2055 157.624 21.2942 158.042 21.4715C158.46 21.6488 158.811 21.8958 159.096 22.2125C159.381 22.5292 159.597 22.9123 159.742 23.362C159.888 23.8117 159.961 24.3057 159.961 24.844V31H159.21C159.046 31 158.919 30.9747 158.83 30.924C158.742 30.867 158.672 30.7593 158.621 30.601L158.431 29.689C158.178 29.9233 157.931 30.1323 157.69 30.316C157.45 30.4933 157.196 30.6453 156.93 30.772C156.664 30.8923 156.379 30.9842 156.075 31.0475C155.778 31.1172 155.445 31.152 155.078 31.152C154.704 31.152 154.353 31.1013 154.023 31C153.694 30.8923 153.406 30.734 153.159 30.525C152.918 30.316 152.725 30.0532 152.579 29.7365C152.44 29.4135 152.37 29.0335 152.37 28.5965C152.37 28.2165 152.475 27.8523 152.684 27.504C152.893 27.1493 153.232 26.8358 153.7 26.5635C154.169 26.2912 154.78 26.0695 155.534 25.8985C156.288 25.7212 157.212 25.6198 158.308 25.5945V24.844C158.308 24.0967 158.146 23.533 157.823 23.153C157.5 22.7667 157.029 22.5735 156.408 22.5735C155.99 22.5735 155.638 22.6273 155.353 22.735C155.075 22.8363 154.831 22.9535 154.622 23.0865C154.419 23.2132 154.242 23.3303 154.09 23.438C153.944 23.5393 153.799 23.59 153.653 23.59C153.539 23.59 153.441 23.5615 153.358 23.5045C153.276 23.4412 153.206 23.3652 153.149 23.2765L152.845 22.735Z" fill="#FCFFF8"/>
</svg>
