<svg width="280" height="48" viewBox="0 0 280 48" fill="none" xmlns="http://www.w3.org/2000/svg">
<path d="M0 24C0 10.7452 10.7452 0 24 0H256C269.255 0 280 10.7452 280 24C280 37.2548 269.255 48 256 48H24C10.7452 48 0 37.2548 0 24Z" fill="#FF6464"/>
<path d="M98.51 23.9795C99.042 23.9795 99.5107 23.9162 99.916 23.7895C100.328 23.6565 100.67 23.4728 100.942 23.2385C101.221 22.9978 101.43 22.7128 101.569 22.3835C101.708 22.0542 101.778 21.69 101.778 21.291C101.778 20.4803 101.512 19.8692 100.98 19.4575C100.448 19.0458 99.65 18.84 98.586 18.84H96.572V23.9795H98.51ZM104.799 31H103.165C102.829 31 102.582 30.8702 102.424 30.6105L98.89 25.7465C98.7823 25.5945 98.6652 25.4868 98.5385 25.4235C98.4182 25.3538 98.2282 25.319 97.9685 25.319H96.572V31H94.7385V17.3865H98.586C99.4473 17.3865 100.192 17.4752 100.819 17.6525C101.446 17.8235 101.962 18.0737 102.367 18.403C102.779 18.7323 103.083 19.1313 103.279 19.6C103.475 20.0623 103.574 20.5817 103.574 21.158C103.574 21.6393 103.498 22.089 103.346 22.507C103.194 22.925 102.972 23.3018 102.681 23.6375C102.396 23.9668 102.044 24.2487 101.626 24.483C101.214 24.7173 100.746 24.8947 100.22 25.015C100.454 25.148 100.657 25.3412 100.828 25.5945L104.799 31ZM112.08 25.1385C112.08 24.7458 112.023 24.388 111.909 24.065C111.802 23.7357 111.64 23.4538 111.425 23.2195C111.216 22.9788 110.959 22.7952 110.655 22.6685C110.351 22.5355 110.006 22.469 109.62 22.469C108.809 22.469 108.166 22.7065 107.691 23.1815C107.223 23.6502 106.931 24.3025 106.817 25.1385H112.08ZM113.448 29.651C113.239 29.9043 112.989 30.126 112.698 30.316C112.406 30.4997 112.093 30.6517 111.757 30.772C111.428 30.8923 111.086 30.981 110.731 31.038C110.377 31.1013 110.025 31.133 109.677 31.133C109.012 31.133 108.397 31.0222 107.834 30.8005C107.276 30.5725 106.792 30.2432 106.38 29.8125C105.975 29.3755 105.658 28.8372 105.43 28.1975C105.202 27.5578 105.088 26.8232 105.088 25.9935C105.088 25.3222 105.19 24.6952 105.392 24.1125C105.601 23.5298 105.899 23.0263 106.285 22.602C106.672 22.1713 107.143 21.8357 107.701 21.595C108.258 21.348 108.885 21.2245 109.582 21.2245C110.158 21.2245 110.69 21.3227 111.178 21.519C111.672 21.709 112.096 21.9877 112.451 22.355C112.812 22.716 113.094 23.1657 113.296 23.704C113.499 24.236 113.6 24.844 113.6 25.528C113.6 25.794 113.572 25.9713 113.515 26.06C113.458 26.1487 113.35 26.193 113.192 26.193H106.76C106.779 26.801 106.862 27.3298 107.007 27.7795C107.159 28.2292 107.368 28.606 107.634 28.91C107.9 29.2077 108.217 29.4325 108.584 29.5845C108.952 29.7302 109.363 29.803 109.819 29.803C110.244 29.803 110.608 29.7555 110.912 29.6605C111.222 29.5592 111.488 29.4515 111.71 29.3375C111.931 29.2235 112.115 29.119 112.261 29.024C112.413 28.9227 112.543 28.872 112.65 28.872C112.79 28.872 112.897 28.9258 112.973 29.0335L113.448 29.651ZM119.031 26.2975C119.373 26.2975 119.674 26.25 119.933 26.155C120.193 26.06 120.412 25.927 120.589 25.756C120.766 25.585 120.899 25.3823 120.988 25.148C121.077 24.9073 121.121 24.6445 121.121 24.3595C121.121 23.7705 120.94 23.3018 120.579 22.9535C120.225 22.6052 119.709 22.431 119.031 22.431C118.347 22.431 117.824 22.6052 117.463 22.9535C117.109 23.3018 116.931 23.7705 116.931 24.3595C116.931 24.6445 116.976 24.9073 117.064 25.148C117.159 25.3823 117.296 25.585 117.473 25.756C117.65 25.927 117.869 26.06 118.128 26.155C118.388 26.25 118.689 26.2975 119.031 26.2975ZM122.08 31.5225C122.08 31.2882 122.014 31.0982 121.881 30.9525C121.748 30.8068 121.567 30.6928 121.339 30.6105C121.118 30.5282 120.858 30.4712 120.56 30.4395C120.263 30.4015 119.946 30.373 119.61 30.354C119.281 30.335 118.945 30.316 118.603 30.297C118.261 30.278 117.932 30.2463 117.615 30.202C117.261 30.3667 116.969 30.5757 116.741 30.829C116.52 31.076 116.409 31.3673 116.409 31.703C116.409 31.9183 116.463 32.1178 116.57 32.3015C116.684 32.4915 116.855 32.653 117.083 32.786C117.311 32.9253 117.596 33.033 117.938 33.109C118.287 33.1913 118.695 33.2325 119.164 33.2325C119.62 33.2325 120.028 33.1913 120.389 33.109C120.75 33.0267 121.054 32.9095 121.301 32.7575C121.555 32.6055 121.748 32.425 121.881 32.216C122.014 32.007 122.08 31.7758 122.08 31.5225ZM123.8 21.7565V22.3835C123.8 22.5925 123.667 22.7255 123.401 22.7825L122.308 22.925C122.524 23.343 122.631 23.8053 122.631 24.312C122.631 24.7807 122.54 25.2082 122.356 25.5945C122.179 25.9745 121.932 26.3007 121.615 26.573C121.298 26.8453 120.918 27.0543 120.475 27.2C120.032 27.3457 119.55 27.4185 119.031 27.4185C118.581 27.4185 118.157 27.3647 117.758 27.257C117.555 27.3837 117.4 27.5198 117.292 27.6655C117.185 27.8048 117.131 27.9473 117.131 28.093C117.131 28.321 117.223 28.4952 117.406 28.6155C117.596 28.7295 117.843 28.8118 118.147 28.8625C118.451 28.9132 118.797 28.9448 119.183 28.9575C119.576 28.9702 119.975 28.9923 120.38 29.024C120.792 29.0493 121.191 29.0968 121.577 29.1665C121.97 29.2362 122.318 29.3502 122.622 29.5085C122.926 29.6668 123.17 29.8853 123.353 30.164C123.543 30.4427 123.638 30.8037 123.638 31.247C123.638 31.6587 123.534 32.0577 123.325 32.444C123.122 32.8303 122.828 33.1723 122.441 33.47C122.055 33.774 121.58 34.0147 121.016 34.192C120.459 34.3757 119.829 34.4675 119.126 34.4675C118.423 34.4675 117.809 34.3978 117.283 34.2585C116.757 34.1192 116.32 33.9323 115.972 33.698C115.624 33.4637 115.361 33.1913 115.183 32.881C115.012 32.577 114.927 32.2572 114.927 31.9215C114.927 31.4465 115.076 31.0443 115.373 30.715C115.671 30.3857 116.08 30.1228 116.599 29.9265C116.314 29.7998 116.086 29.632 115.915 29.423C115.75 29.2077 115.668 28.9195 115.668 28.5585C115.668 28.4192 115.693 28.2767 115.744 28.131C115.795 27.979 115.871 27.8302 115.972 27.6845C116.08 27.5325 116.209 27.39 116.361 27.257C116.513 27.124 116.691 27.0068 116.893 26.9055C116.418 26.6395 116.048 26.288 115.782 25.851C115.516 25.4077 115.383 24.8947 115.383 24.312C115.383 23.8433 115.472 23.419 115.649 23.039C115.833 22.6527 116.086 22.3265 116.409 22.0605C116.732 21.7882 117.115 21.5792 117.558 21.4335C118.008 21.2878 118.499 21.215 119.031 21.215C119.449 21.215 119.838 21.2625 120.199 21.3575C120.56 21.4462 120.89 21.5792 121.187 21.7565H123.8ZM127.344 21.3765V31H125.643V21.3765H127.344ZM129.301 17.2345L127.087 19.6855C126.999 19.7805 126.91 19.8502 126.821 19.8945C126.739 19.9325 126.631 19.9515 126.498 19.9515H125.491L126.897 17.6525C126.986 17.5068 127.081 17.4023 127.182 17.339C127.29 17.2693 127.445 17.2345 127.648 17.2345H129.301ZM135.718 22.963C135.642 23.1023 135.525 23.172 135.366 23.172C135.271 23.172 135.164 23.1372 135.043 23.0675C134.923 22.9978 134.774 22.9218 134.597 22.8395C134.426 22.7508 134.22 22.6717 133.979 22.602C133.739 22.526 133.454 22.488 133.124 22.488C132.839 22.488 132.583 22.526 132.355 22.602C132.127 22.6717 131.931 22.7698 131.766 22.8965C131.608 23.0232 131.484 23.172 131.395 23.343C131.313 23.5077 131.272 23.6882 131.272 23.8845C131.272 24.1315 131.342 24.3373 131.481 24.502C131.627 24.6667 131.817 24.8092 132.051 24.9295C132.285 25.0498 132.551 25.1575 132.849 25.2525C133.147 25.3412 133.451 25.4393 133.761 25.547C134.078 25.6483 134.385 25.7623 134.682 25.889C134.98 26.0157 135.246 26.174 135.48 26.364C135.715 26.554 135.902 26.7883 136.041 27.067C136.187 27.3393 136.259 27.6687 136.259 28.055C136.259 28.4983 136.18 28.91 136.022 29.29C135.864 29.6637 135.629 29.9898 135.319 30.2685C135.009 30.5408 134.629 30.7562 134.179 30.9145C133.729 31.0728 133.21 31.152 132.621 31.152C131.95 31.152 131.342 31.0443 130.797 30.829C130.252 30.6073 129.79 30.3255 129.41 29.9835L129.809 29.3375C129.86 29.2552 129.92 29.1918 129.989 29.1475C130.059 29.1032 130.148 29.081 130.255 29.081C130.369 29.081 130.49 29.1253 130.616 29.214C130.743 29.3027 130.895 29.4008 131.072 29.5085C131.256 29.6162 131.478 29.7143 131.737 29.803C131.997 29.8917 132.32 29.936 132.706 29.936C133.036 29.936 133.324 29.8948 133.571 29.8125C133.818 29.7238 134.024 29.6067 134.188 29.461C134.353 29.3153 134.473 29.1475 134.549 28.9575C134.632 28.7675 134.673 28.5648 134.673 28.3495C134.673 28.0835 134.6 27.865 134.454 27.694C134.315 27.5167 134.128 27.3678 133.894 27.2475C133.66 27.1208 133.39 27.0132 133.086 26.9245C132.789 26.8295 132.482 26.7313 132.165 26.63C131.855 26.5287 131.547 26.4147 131.243 26.288C130.946 26.155 130.68 25.9903 130.445 25.794C130.211 25.5977 130.021 25.357 129.875 25.072C129.736 24.7807 129.666 24.4292 129.666 24.0175C129.666 23.6502 129.742 23.2987 129.894 22.963C130.046 22.621 130.268 22.3233 130.559 22.07C130.851 21.8103 131.209 21.6045 131.633 21.4525C132.057 21.3005 132.542 21.2245 133.086 21.2245C133.72 21.2245 134.287 21.3258 134.787 21.5285C135.294 21.7248 135.731 21.9972 136.098 22.3455L135.718 22.963ZM141.287 31.152C140.527 31.152 139.941 30.9398 139.53 30.5155C139.124 30.0912 138.922 29.48 138.922 28.682V22.792H137.763C137.661 22.792 137.576 22.7635 137.506 22.7065C137.436 22.6432 137.402 22.5482 137.402 22.4215V21.747L138.979 21.5475L139.368 18.574C139.387 18.479 139.428 18.403 139.492 18.346C139.561 18.2827 139.65 18.251 139.758 18.251H140.613V21.5665H143.396V22.792H140.613V28.568C140.613 28.9733 140.711 29.2742 140.907 29.4705C141.103 29.6668 141.357 29.765 141.667 29.765C141.844 29.765 141.996 29.7428 142.123 29.6985C142.256 29.6478 142.37 29.594 142.465 29.537C142.56 29.48 142.639 29.4293 142.703 29.385C142.772 29.3343 142.832 29.309 142.883 29.309C142.972 29.309 143.051 29.3628 143.121 29.4705L143.615 30.278C143.323 30.5503 142.972 30.7657 142.56 30.924C142.148 31.076 141.724 31.152 141.287 31.152ZM146.748 23.305C147.052 22.6463 147.425 22.1333 147.869 21.766C148.312 21.3923 148.854 21.2055 149.493 21.2055C149.696 21.2055 149.889 21.2277 150.073 21.272C150.263 21.3163 150.431 21.386 150.576 21.481L150.453 22.7445C150.415 22.9028 150.32 22.982 150.168 22.982C150.079 22.982 149.949 22.963 149.778 22.925C149.607 22.887 149.414 22.868 149.199 22.868C148.895 22.868 148.622 22.9123 148.382 23.001C148.147 23.0897 147.935 23.2227 147.745 23.4C147.562 23.571 147.394 23.7863 147.242 24.046C147.096 24.2993 146.963 24.5907 146.843 24.92V31H145.142V21.3765H146.111C146.295 21.3765 146.422 21.4113 146.491 21.481C146.561 21.5507 146.608 21.671 146.634 21.842L146.748 23.305ZM157.13 26.668C156.351 26.6933 155.686 26.7567 155.135 26.858C154.591 26.953 154.144 27.0797 153.796 27.238C153.454 27.3963 153.204 27.5832 153.045 27.7985C152.893 28.0138 152.817 28.2545 152.817 28.5205C152.817 28.7738 152.858 28.9923 152.941 29.176C153.023 29.3597 153.134 29.5117 153.273 29.632C153.419 29.746 153.587 29.8315 153.777 29.8885C153.973 29.9392 154.182 29.9645 154.404 29.9645C154.701 29.9645 154.974 29.936 155.221 29.879C155.468 29.8157 155.699 29.727 155.914 29.613C156.136 29.499 156.345 29.3628 156.541 29.2045C156.744 29.0462 156.94 28.8657 157.13 28.663V26.668ZM151.668 22.735C152.2 22.222 152.773 21.8388 153.387 21.5855C154.002 21.3322 154.682 21.2055 155.43 21.2055C155.968 21.2055 156.446 21.2942 156.864 21.4715C157.282 21.6488 157.634 21.8958 157.919 22.2125C158.204 22.5292 158.419 22.9123 158.565 23.362C158.71 23.8117 158.783 24.3057 158.783 24.844V31H158.033C157.868 31 157.741 30.9747 157.653 30.924C157.564 30.867 157.494 30.7593 157.444 30.601L157.254 29.689C157 29.9233 156.753 30.1323 156.513 30.316C156.272 30.4933 156.019 30.6453 155.753 30.772C155.487 30.8923 155.202 30.9842 154.898 31.0475C154.6 31.1172 154.268 31.152 153.9 31.152C153.527 31.152 153.175 31.1013 152.846 31C152.516 30.8923 152.228 30.734 151.981 30.525C151.741 30.316 151.547 30.0532 151.402 29.7365C151.262 29.4135 151.193 29.0335 151.193 28.5965C151.193 28.2165 151.297 27.8523 151.506 27.504C151.715 27.1493 152.054 26.8358 152.523 26.5635C152.991 26.2912 153.603 26.0695 154.356 25.8985C155.11 25.7212 156.035 25.6198 157.13 25.5945V24.844C157.13 24.0967 156.969 23.533 156.646 23.153C156.323 22.7667 155.851 22.5735 155.23 22.5735C154.812 22.5735 154.461 22.6273 154.176 22.735C153.897 22.8363 153.653 22.9535 153.444 23.0865C153.242 23.2132 153.064 23.3303 152.912 23.438C152.767 23.5393 152.621 23.59 152.475 23.59C152.361 23.59 152.263 23.5615 152.181 23.5045C152.098 23.4412 152.029 23.3652 151.972 23.2765L151.668 22.735ZM164.184 31.152C163.424 31.152 162.838 30.9398 162.426 30.5155C162.021 30.0912 161.818 29.48 161.818 28.682V22.792H160.659C160.558 22.792 160.472 22.7635 160.403 22.7065C160.333 22.6432 160.298 22.5482 160.298 22.4215V21.747L161.875 21.5475L162.265 18.574C162.284 18.479 162.325 18.403 162.388 18.346C162.458 18.2827 162.546 18.251 162.654 18.251H163.509V21.5665H166.293V22.792H163.509V28.568C163.509 28.9733 163.607 29.2742 163.804 29.4705C164 29.6668 164.253 29.765 164.564 29.765C164.741 29.765 164.893 29.7428 165.02 29.6985C165.153 29.6478 165.267 29.594 165.362 29.537C165.457 29.48 165.536 29.4293 165.599 29.385C165.669 29.3343 165.729 29.309 165.78 29.309C165.868 29.309 165.947 29.3628 166.017 29.4705L166.511 30.278C166.22 30.5503 165.868 30.7657 165.457 30.924C165.045 31.076 164.621 31.152 164.184 31.152ZM174.424 25.1385C174.424 24.7458 174.367 24.388 174.253 24.065C174.145 23.7357 173.984 23.4538 173.769 23.2195C173.56 22.9788 173.303 22.7952 172.999 22.6685C172.695 22.5355 172.35 22.469 171.964 22.469C171.153 22.469 170.51 22.7065 170.035 23.1815C169.566 23.6502 169.275 24.3025 169.161 25.1385H174.424ZM175.792 29.651C175.583 29.9043 175.333 30.126 175.042 30.316C174.75 30.4997 174.437 30.6517 174.101 30.772C173.772 30.8923 173.43 30.981 173.075 31.038C172.72 31.1013 172.369 31.133 172.021 31.133C171.356 31.133 170.741 31.0222 170.178 30.8005C169.62 30.5725 169.136 30.2432 168.724 29.8125C168.319 29.3755 168.002 28.8372 167.774 28.1975C167.546 27.5578 167.432 26.8232 167.432 25.9935C167.432 25.3222 167.533 24.6952 167.736 24.1125C167.945 23.5298 168.243 23.0263 168.629 22.602C169.015 22.1713 169.487 21.8357 170.045 21.595C170.602 21.348 171.229 21.2245 171.926 21.2245C172.502 21.2245 173.034 21.3227 173.522 21.519C174.016 21.709 174.44 21.9877 174.795 22.355C175.156 22.716 175.437 23.1657 175.64 23.704C175.843 24.236 175.944 24.844 175.944 25.528C175.944 25.794 175.916 25.9713 175.859 26.06C175.802 26.1487 175.694 26.193 175.536 26.193H169.104C169.123 26.801 169.205 27.3298 169.351 27.7795C169.503 28.2292 169.712 28.606 169.978 28.91C170.244 29.2077 170.561 29.4325 170.928 29.5845C171.295 29.7302 171.707 29.803 172.163 29.803C172.587 29.803 172.952 29.7555 173.256 29.6605C173.566 29.5592 173.832 29.4515 174.054 29.3375C174.275 29.2235 174.459 29.119 174.605 29.024C174.757 28.9227 174.886 28.872 174.994 28.872C175.133 28.872 175.241 28.9258 175.317 29.0335L175.792 29.651Z" fill="#FCFFF8"/>
<path d="M24 1H256V-1H24V1ZM256 47H24V49H256V47ZM24 47C11.2975 47 1 36.7025 1 24H-1C-1 37.8071 10.1929 49 24 49V47ZM279 24C279 36.7025 268.703 47 256 47V49C269.807 49 281 37.8071 281 24H279ZM256 1C268.703 1 279 11.2975 279 24H281C281 10.1929 269.807 -1 256 -1V1ZM24 -1C10.1929 -1 -1 10.1929 -1 24H1C1 11.2975 11.2975 1 24 1V-1Z" fill="#FF6464"/>
</svg>
