<svg width="280" height="48" viewBox="0 0 280 48" fill="none" xmlns="http://www.w3.org/2000/svg">
<path d="M0 24C0 10.7452 10.7452 0 24 0H256C269.255 0 280 10.7452 280 24V24C280 37.2548 269.255 48 256 48H24C10.7452 48 0 37.2548 0 24V24Z" fill="#CE2F2F"/>
<path d="M122.137 29.499L122.127 31H113.739V17.3865H122.127V18.8875H115.582V23.4095H120.883V24.8535H115.582V29.499H122.137ZM125.642 22.773C125.851 22.5387 126.072 22.3265 126.307 22.1365C126.541 21.9465 126.788 21.785 127.048 21.652C127.314 21.5127 127.592 21.4082 127.884 21.3385C128.181 21.2625 128.501 21.2245 128.843 21.2245C129.369 21.2245 129.831 21.3132 130.23 21.4905C130.635 21.6615 130.971 21.9085 131.237 22.2315C131.509 22.5482 131.715 22.9313 131.855 23.381C131.994 23.8307 132.064 24.3278 132.064 24.8725V31H130.363V24.8725C130.363 24.1442 130.195 23.5805 129.86 23.1815C129.53 22.7762 129.027 22.5735 128.349 22.5735C127.849 22.5735 127.38 22.6938 126.943 22.9345C126.512 23.1752 126.113 23.5013 125.746 23.913V31H124.046V21.3765H125.062C125.303 21.3765 125.452 21.4937 125.509 21.728L125.642 22.773ZM137.465 31.152C136.705 31.152 136.119 30.9398 135.707 30.5155C135.302 30.0912 135.099 29.48 135.099 28.682V22.792H133.94C133.839 22.792 133.754 22.7635 133.684 22.7065C133.614 22.6432 133.579 22.5482 133.579 22.4215V21.747L135.156 21.5475L135.546 18.574C135.565 18.479 135.606 18.403 135.669 18.346C135.739 18.2827 135.828 18.251 135.935 18.251H136.79V21.5665H139.574V22.792H136.79V28.568C136.79 28.9733 136.889 29.2742 137.085 29.4705C137.281 29.6668 137.535 29.765 137.845 29.765C138.022 29.765 138.174 29.7428 138.301 29.6985C138.434 29.6478 138.548 29.594 138.643 29.537C138.738 29.48 138.817 29.4293 138.88 29.385C138.95 29.3343 139.01 29.309 139.061 29.309C139.15 29.309 139.229 29.3628 139.298 29.4705L139.792 30.278C139.501 30.5503 139.15 30.7657 138.738 30.924C138.326 31.076 137.902 31.152 137.465 31.152ZM142.925 23.305C143.229 22.6463 143.603 22.1333 144.046 21.766C144.49 21.3923 145.031 21.2055 145.671 21.2055C145.874 21.2055 146.067 21.2277 146.25 21.272C146.44 21.3163 146.608 21.386 146.754 21.481L146.63 22.7445C146.592 22.9028 146.497 22.982 146.345 22.982C146.257 22.982 146.127 22.963 145.956 22.925C145.785 22.887 145.592 22.868 145.376 22.868C145.072 22.868 144.8 22.9123 144.559 23.001C144.325 23.0897 144.113 23.2227 143.923 23.4C143.739 23.571 143.571 23.7863 143.419 24.046C143.274 24.2993 143.141 24.5907 143.02 24.92V31H141.32V21.3765H142.289C142.473 21.3765 142.599 21.4113 142.669 21.481C142.739 21.5507 142.786 21.671 142.811 21.842L142.925 23.305ZM153.308 26.668C152.529 26.6933 151.864 26.7567 151.313 26.858C150.768 26.953 150.322 27.0797 149.973 27.238C149.631 27.3963 149.381 27.5832 149.223 27.7985C149.071 28.0138 148.995 28.2545 148.995 28.5205C148.995 28.7738 149.036 28.9923 149.118 29.176C149.201 29.3597 149.312 29.5117 149.451 29.632C149.597 29.746 149.764 29.8315 149.954 29.8885C150.151 29.9392 150.36 29.9645 150.581 29.9645C150.879 29.9645 151.151 29.936 151.398 29.879C151.645 29.8157 151.877 29.727 152.092 29.613C152.314 29.499 152.523 29.3628 152.719 29.2045C152.922 29.0462 153.118 28.8657 153.308 28.663V26.668ZM147.845 22.735C148.377 22.222 148.951 21.8388 149.565 21.5855C150.179 21.3322 150.86 21.2055 151.607 21.2055C152.146 21.2055 152.624 21.2942 153.042 21.4715C153.46 21.6488 153.811 21.8958 154.096 22.2125C154.381 22.5292 154.597 22.9123 154.742 23.362C154.888 23.8117 154.961 24.3057 154.961 24.844V31H154.21C154.046 31 153.919 30.9747 153.83 30.924C153.742 30.867 153.672 30.7593 153.621 30.601L153.431 29.689C153.178 29.9233 152.931 30.1323 152.69 30.316C152.45 30.4933 152.196 30.6453 151.93 30.772C151.664 30.8923 151.379 30.9842 151.075 31.0475C150.778 31.1172 150.445 31.152 150.078 31.152C149.704 31.152 149.353 31.1013 149.023 31C148.694 30.8923 148.406 30.734 148.159 30.525C147.918 30.316 147.725 30.0532 147.579 29.7365C147.44 29.4135 147.37 29.0335 147.37 28.5965C147.37 28.2165 147.475 27.8523 147.684 27.504C147.893 27.1493 148.232 26.8358 148.7 26.5635C149.169 26.2912 149.78 26.0695 150.534 25.8985C151.288 25.7212 152.212 25.6198 153.308 25.5945V24.844C153.308 24.0967 153.146 23.533 152.823 23.153C152.5 22.7667 152.029 22.5735 151.408 22.5735C150.99 22.5735 150.638 22.6273 150.353 22.735C150.075 22.8363 149.831 22.9535 149.622 23.0865C149.419 23.2132 149.242 23.3303 149.09 23.438C148.944 23.5393 148.799 23.59 148.653 23.59C148.539 23.59 148.441 23.5615 148.358 23.5045C148.276 23.4412 148.206 23.3652 148.149 23.2765L147.845 22.735Z" fill="#FCFFF8"/>
<path d="M24 1H256V-1H24V1ZM256 47H24V49H256V47ZM24 47C11.2974 47 1 36.7025 1 24H-1C-1 37.8071 10.1929 49 24 49V47ZM279 24C279 36.7025 268.703 47 256 47V49C269.807 49 281 37.8071 281 24H279ZM256 1C268.703 1 279 11.2975 279 24H281C281 10.1929 269.807 -1 256 -1V1ZM24 -1C10.1929 -1 -1 10.1929 -1 24H1C1 11.2975 11.2975 1 24 1V-1Z" fill="#CE2F2F"/>
</svg>
