<svg width="280" height="48" viewBox="0 0 280 48" fill="none" xmlns="http://www.w3.org/2000/svg">
<path d="M0 24C0 10.7452 10.7452 0 24 0H256C269.255 0 280 10.7452 280 24C280 37.2548 269.255 48 256 48H24C10.7452 48 0 37.2548 0 24Z" fill="#CE2F2F"/>
<path d="M87.5815 31H85.7385V17.3865H87.5815V31ZM92.1123 22.773C92.3213 22.5387 92.5429 22.3265 92.7773 22.1365C93.0116 21.9465 93.2586 21.785 93.5183 21.652C93.7843 21.5127 94.0629 21.4082 94.3543 21.3385C94.6519 21.2625 94.9718 21.2245 95.3138 21.2245C95.8394 21.2245 96.3018 21.3132 96.7008 21.4905C97.1061 21.6615 97.4418 21.9085 97.7078 22.2315C97.9801 22.5482 98.1859 22.9313 98.3253 23.381C98.4646 23.8307 98.5343 24.3278 98.5343 24.8725V31H96.8338V24.8725C96.8338 24.1442 96.6659 23.5805 96.3303 23.1815C96.0009 22.7762 95.4974 22.5735 94.8198 22.5735C94.3194 22.5735 93.8508 22.6938 93.4138 22.9345C92.9831 23.1752 92.5841 23.5013 92.2168 23.913V31H90.5163V21.3765H91.5328C91.7734 21.3765 91.9223 21.4937 91.9793 21.728L92.1123 22.773ZM102.897 21.3765V31H101.206V21.3765H102.897ZM103.258 18.3555C103.258 18.5202 103.223 18.6753 103.153 18.821C103.09 18.9603 103.001 19.087 102.887 19.201C102.78 19.3087 102.65 19.3942 102.498 19.4575C102.352 19.5208 102.197 19.5525 102.032 19.5525C101.868 19.5525 101.713 19.5208 101.567 19.4575C101.428 19.3942 101.304 19.3087 101.196 19.201C101.089 19.087 101.003 18.9603 100.94 18.821C100.877 18.6753 100.845 18.5202 100.845 18.3555C100.845 18.1908 100.877 18.0357 100.94 17.89C101.003 17.738 101.089 17.6082 101.196 17.5005C101.304 17.3865 101.428 17.2978 101.567 17.2345C101.713 17.1712 101.868 17.1395 102.032 17.1395C102.197 17.1395 102.352 17.1712 102.498 17.2345C102.65 17.2978 102.78 17.3865 102.887 17.5005C103.001 17.6082 103.09 17.738 103.153 17.89C103.223 18.0357 103.258 18.1908 103.258 18.3555ZM112.373 23.0865C112.322 23.1562 112.272 23.21 112.221 23.248C112.17 23.286 112.101 23.305 112.012 23.305C111.917 23.305 111.812 23.267 111.698 23.191C111.584 23.1087 111.442 23.02 111.271 22.925C111.106 22.83 110.9 22.7445 110.653 22.6685C110.413 22.5862 110.115 22.545 109.76 22.545C109.285 22.545 108.867 22.6305 108.506 22.8015C108.145 22.9662 107.841 23.2068 107.594 23.5235C107.354 23.8402 107.17 24.2233 107.043 24.673C106.923 25.1227 106.863 25.6262 106.863 26.1835C106.863 26.7662 106.929 27.2855 107.062 27.7415C107.195 28.1912 107.382 28.5712 107.623 28.8815C107.87 29.1855 108.164 29.4198 108.506 29.5845C108.855 29.7428 109.244 29.822 109.675 29.822C110.087 29.822 110.425 29.7745 110.691 29.6795C110.957 29.5782 111.176 29.4673 111.347 29.347C111.524 29.2267 111.67 29.119 111.784 29.024C111.904 28.9227 112.021 28.872 112.135 28.872C112.275 28.872 112.382 28.9258 112.458 29.0335L112.933 29.651C112.724 29.9107 112.487 30.1323 112.221 30.316C111.955 30.4997 111.667 30.6548 111.356 30.7815C111.052 30.9018 110.733 30.9905 110.397 31.0475C110.061 31.1045 109.719 31.133 109.371 31.133C108.769 31.133 108.209 31.0222 107.689 30.8005C107.176 30.5788 106.73 30.259 106.35 29.841C105.97 29.4167 105.672 28.8973 105.457 28.283C105.242 27.6687 105.134 26.9688 105.134 26.1835C105.134 25.4678 105.232 24.806 105.428 24.198C105.631 23.59 105.922 23.0675 106.302 22.6305C106.689 22.1872 107.161 21.842 107.718 21.595C108.282 21.348 108.928 21.2245 109.656 21.2245C110.334 21.2245 110.929 21.3353 111.442 21.557C111.961 21.7723 112.42 22.0795 112.819 22.4785L112.373 23.0865ZM116.535 21.3765V31H114.844V21.3765H116.535ZM116.896 18.3555C116.896 18.5202 116.861 18.6753 116.791 18.821C116.728 18.9603 116.639 19.087 116.525 19.201C116.418 19.3087 116.288 19.3942 116.136 19.4575C115.99 19.5208 115.835 19.5525 115.67 19.5525C115.506 19.5525 115.35 19.5208 115.205 19.4575C115.065 19.3942 114.942 19.3087 114.834 19.201C114.727 19.087 114.641 18.9603 114.578 18.821C114.514 18.6753 114.483 18.5202 114.483 18.3555C114.483 18.1908 114.514 18.0357 114.578 17.89C114.641 17.738 114.727 17.6082 114.834 17.5005C114.942 17.3865 115.065 17.2978 115.205 17.2345C115.35 17.1712 115.506 17.1395 115.67 17.1395C115.835 17.1395 115.99 17.1712 116.136 17.2345C116.288 17.2978 116.418 17.3865 116.525 17.5005C116.639 17.6082 116.728 17.738 116.791 17.89C116.861 18.0357 116.896 18.1908 116.896 18.3555ZM124.529 26.668C123.75 26.6933 123.085 26.7567 122.534 26.858C121.989 26.953 121.542 27.0797 121.194 27.238C120.852 27.3963 120.602 27.5832 120.444 27.7985C120.292 28.0138 120.216 28.2545 120.216 28.5205C120.216 28.7738 120.257 28.9923 120.339 29.176C120.421 29.3597 120.532 29.5117 120.672 29.632C120.817 29.746 120.985 29.8315 121.175 29.8885C121.371 29.9392 121.58 29.9645 121.802 29.9645C122.1 29.9645 122.372 29.936 122.619 29.879C122.866 29.8157 123.097 29.727 123.313 29.613C123.534 29.499 123.743 29.3628 123.94 29.2045C124.142 29.0462 124.339 28.8657 124.529 28.663V26.668ZM119.066 22.735C119.598 22.222 120.171 21.8388 120.786 21.5855C121.4 21.3322 122.081 21.2055 122.828 21.2055C123.366 21.2055 123.845 21.2942 124.263 21.4715C124.681 21.6488 125.032 21.8958 125.317 22.2125C125.602 22.5292 125.817 22.9123 125.963 23.362C126.109 23.8117 126.182 24.3057 126.182 24.844V31H125.431C125.266 31 125.14 30.9747 125.051 30.924C124.962 30.867 124.893 30.7593 124.842 30.601L124.652 29.689C124.399 29.9233 124.152 30.1323 123.911 30.316C123.67 30.4933 123.417 30.6453 123.151 30.772C122.885 30.8923 122.6 30.9842 122.296 31.0475C121.998 31.1172 121.666 31.152 121.299 31.152C120.925 31.152 120.573 31.1013 120.244 31C119.915 30.8923 119.627 30.734 119.38 30.525C119.139 30.316 118.946 30.0532 118.8 29.7365C118.661 29.4135 118.591 29.0335 118.591 28.5965C118.591 28.2165 118.696 27.8523 118.905 27.504C119.114 27.1493 119.452 26.8358 119.921 26.5635C120.39 26.2912 121.001 26.0695 121.755 25.8985C122.508 25.7212 123.433 25.6198 124.529 25.5945V24.844C124.529 24.0967 124.367 23.533 124.044 23.153C123.721 22.7667 123.249 22.5735 122.629 22.5735C122.211 22.5735 121.859 22.6273 121.574 22.735C121.295 22.8363 121.052 22.9535 120.843 23.0865C120.64 23.2132 120.463 23.3303 120.311 23.438C120.165 23.5393 120.019 23.59 119.874 23.59C119.76 23.59 119.661 23.5615 119.579 23.5045C119.497 23.4412 119.427 23.3652 119.37 23.2765L119.066 22.735ZM139.224 22.963C139.148 23.1023 139.031 23.172 138.872 23.172C138.777 23.172 138.67 23.1372 138.549 23.0675C138.429 22.9978 138.28 22.9218 138.103 22.8395C137.932 22.7508 137.726 22.6717 137.485 22.602C137.245 22.526 136.96 22.488 136.63 22.488C136.345 22.488 136.089 22.526 135.861 22.602C135.633 22.6717 135.436 22.7698 135.272 22.8965C135.113 23.0232 134.99 23.172 134.901 23.343C134.819 23.5077 134.778 23.6882 134.778 23.8845C134.778 24.1315 134.847 24.3373 134.987 24.502C135.132 24.6667 135.322 24.8092 135.557 24.9295C135.791 25.0498 136.057 25.1575 136.355 25.2525C136.652 25.3412 136.956 25.4393 137.267 25.547C137.583 25.6483 137.891 25.7623 138.188 25.889C138.486 26.0157 138.752 26.174 138.986 26.364C139.221 26.554 139.407 26.7883 139.547 27.067C139.692 27.3393 139.765 27.6687 139.765 28.055C139.765 28.4983 139.686 28.91 139.528 29.29C139.369 29.6637 139.135 29.9898 138.825 30.2685C138.514 30.5408 138.134 30.7562 137.685 30.9145C137.235 31.0728 136.716 31.152 136.127 31.152C135.455 31.152 134.847 31.0443 134.303 30.829C133.758 30.6073 133.296 30.3255 132.916 29.9835L133.315 29.3375C133.365 29.2552 133.426 29.1918 133.495 29.1475C133.565 29.1032 133.654 29.081 133.761 29.081C133.875 29.081 133.996 29.1253 134.122 29.214C134.249 29.3027 134.401 29.4008 134.578 29.5085C134.762 29.6162 134.984 29.7143 135.243 29.803C135.503 29.8917 135.826 29.936 136.212 29.936C136.542 29.936 136.83 29.8948 137.077 29.8125C137.324 29.7238 137.53 29.6067 137.694 29.461C137.859 29.3153 137.979 29.1475 138.055 28.9575C138.138 28.7675 138.179 28.5648 138.179 28.3495C138.179 28.0835 138.106 27.865 137.96 27.694C137.821 27.5167 137.634 27.3678 137.4 27.2475C137.165 27.1208 136.896 27.0132 136.592 26.9245C136.295 26.8295 135.987 26.7313 135.671 26.63C135.36 26.5287 135.053 26.4147 134.749 26.288C134.452 26.155 134.186 25.9903 133.951 25.794C133.717 25.5977 133.527 25.357 133.381 25.072C133.242 24.7807 133.172 24.4292 133.172 24.0175C133.172 23.6502 133.248 23.2987 133.4 22.963C133.552 22.621 133.774 22.3233 134.065 22.07C134.357 21.8103 134.714 21.6045 135.139 21.4525C135.563 21.3005 136.048 21.2245 136.592 21.2245C137.226 21.2245 137.792 21.3258 138.293 21.5285C138.799 21.7248 139.236 21.9972 139.604 22.3455L139.224 22.963ZM148.28 25.1385C148.28 24.7458 148.223 24.388 148.109 24.065C148.001 23.7357 147.839 23.4538 147.624 23.2195C147.415 22.9788 147.159 22.7952 146.855 22.6685C146.551 22.5355 146.205 22.469 145.819 22.469C145.008 22.469 144.366 22.7065 143.891 23.1815C143.422 23.6502 143.131 24.3025 143.017 25.1385H148.28ZM149.648 29.651C149.439 29.9043 149.188 30.126 148.897 30.316C148.606 30.4997 148.292 30.6517 147.957 30.772C147.627 30.8923 147.285 30.981 146.931 31.038C146.576 31.1013 146.224 31.133 145.876 31.133C145.211 31.133 144.597 31.0222 144.033 30.8005C143.476 30.5725 142.991 30.2432 142.58 29.8125C142.174 29.3755 141.858 28.8372 141.63 28.1975C141.402 27.5578 141.288 26.8232 141.288 25.9935C141.288 25.3222 141.389 24.6952 141.592 24.1125C141.801 23.5298 142.098 23.0263 142.485 22.602C142.871 22.1713 143.343 21.8357 143.9 21.595C144.457 21.348 145.084 21.2245 145.781 21.2245C146.357 21.2245 146.889 21.3227 147.377 21.519C147.871 21.709 148.295 21.9877 148.65 22.355C149.011 22.716 149.293 23.1657 149.496 23.704C149.698 24.236 149.8 24.844 149.8 25.528C149.8 25.794 149.771 25.9713 149.714 26.06C149.657 26.1487 149.549 26.193 149.391 26.193H142.96C142.979 26.801 143.061 27.3298 143.207 27.7795C143.359 28.2292 143.568 28.606 143.834 28.91C144.1 29.2077 144.416 29.4325 144.784 29.5845C145.151 29.7302 145.563 29.803 146.019 29.803C146.443 29.803 146.807 29.7555 147.111 29.6605C147.421 29.5592 147.687 29.4515 147.909 29.3375C148.131 29.2235 148.314 29.119 148.46 29.024C148.612 28.9227 148.742 28.872 148.85 28.872C148.989 28.872 149.097 28.9258 149.173 29.0335L149.648 29.651ZM157.482 22.963C157.406 23.1023 157.288 23.172 157.13 23.172C157.035 23.172 156.927 23.1372 156.807 23.0675C156.687 22.9978 156.538 22.9218 156.361 22.8395C156.19 22.7508 155.984 22.6717 155.743 22.602C155.502 22.526 155.217 22.488 154.888 22.488C154.603 22.488 154.347 22.526 154.119 22.602C153.891 22.6717 153.694 22.7698 153.53 22.8965C153.371 23.0232 153.248 23.172 153.159 23.343C153.077 23.5077 153.036 23.6882 153.036 23.8845C153.036 24.1315 153.105 24.3373 153.245 24.502C153.39 24.6667 153.58 24.8092 153.815 24.9295C154.049 25.0498 154.315 25.1575 154.613 25.2525C154.91 25.3412 155.214 25.4393 155.525 25.547C155.841 25.6483 156.148 25.7623 156.446 25.889C156.744 26.0157 157.01 26.174 157.244 26.364C157.478 26.554 157.665 26.7883 157.805 27.067C157.95 27.3393 158.023 27.6687 158.023 28.055C158.023 28.4983 157.944 28.91 157.786 29.29C157.627 29.6637 157.393 29.9898 157.083 30.2685C156.772 30.5408 156.392 30.7562 155.943 30.9145C155.493 31.0728 154.974 31.152 154.385 31.152C153.713 31.152 153.105 31.0443 152.561 30.829C152.016 30.6073 151.554 30.3255 151.174 29.9835L151.573 29.3375C151.623 29.2552 151.683 29.1918 151.753 29.1475C151.823 29.1032 151.911 29.081 152.019 29.081C152.133 29.081 152.253 29.1253 152.38 29.214C152.507 29.3027 152.659 29.4008 152.836 29.5085C153.02 29.6162 153.241 29.7143 153.501 29.803C153.761 29.8917 154.084 29.936 154.47 29.936C154.799 29.936 155.088 29.8948 155.335 29.8125C155.582 29.7238 155.787 29.6067 155.952 29.461C156.117 29.3153 156.237 29.1475 156.313 28.9575C156.395 28.7675 156.437 28.5648 156.437 28.3495C156.437 28.0835 156.364 27.865 156.218 27.694C156.079 27.5167 155.892 27.3678 155.658 27.2475C155.423 27.1208 155.154 27.0132 154.85 26.9245C154.552 26.8295 154.245 26.7313 153.929 26.63C153.618 26.5287 153.311 26.4147 153.007 26.288C152.709 26.155 152.443 25.9903 152.209 25.794C151.975 25.5977 151.785 25.357 151.639 25.072C151.5 24.7807 151.43 24.4292 151.43 24.0175C151.43 23.6502 151.506 23.2987 151.658 22.963C151.81 22.621 152.032 22.3233 152.323 22.07C152.614 21.8103 152.972 21.6045 153.397 21.4525C153.821 21.3005 154.305 21.2245 154.85 21.2245C155.483 21.2245 156.05 21.3258 156.551 21.5285C157.057 21.7248 157.494 21.9972 157.862 22.3455L157.482 22.963ZM161.882 21.3765V31H160.191V21.3765H161.882ZM162.243 18.3555C162.243 18.5202 162.209 18.6753 162.139 18.821C162.076 18.9603 161.987 19.087 161.873 19.201C161.765 19.3087 161.635 19.3942 161.483 19.4575C161.338 19.5208 161.183 19.5525 161.018 19.5525C160.853 19.5525 160.698 19.5208 160.552 19.4575C160.413 19.3942 160.29 19.3087 160.182 19.201C160.074 19.087 159.989 18.9603 159.925 18.821C159.862 18.6753 159.83 18.5202 159.83 18.3555C159.83 18.1908 159.862 18.0357 159.925 17.89C159.989 17.738 160.074 17.6082 160.182 17.5005C160.29 17.3865 160.413 17.2978 160.552 17.2345C160.698 17.1712 160.853 17.1395 161.018 17.1395C161.183 17.1395 161.338 17.1712 161.483 17.2345C161.635 17.2978 161.765 17.3865 161.873 17.5005C161.987 17.6082 162.076 17.738 162.139 17.89C162.209 18.0357 162.243 18.1908 162.243 18.3555ZM168.717 21.2245C169.42 21.2245 170.054 21.3417 170.617 21.576C171.181 21.8103 171.662 22.1428 172.061 22.5735C172.46 23.0042 172.764 23.5267 172.973 24.141C173.189 24.749 173.296 25.4298 173.296 26.1835C173.296 26.9435 173.189 27.6275 172.973 28.2355C172.764 28.8435 172.46 29.3628 172.061 29.7935C171.662 30.2242 171.181 30.5567 170.617 30.791C170.054 31.019 169.42 31.133 168.717 31.133C168.008 31.133 167.368 31.019 166.798 30.791C166.235 30.5567 165.753 30.2242 165.354 29.7935C164.955 29.3628 164.648 28.8435 164.433 28.2355C164.224 27.6275 164.119 26.9435 164.119 26.1835C164.119 25.4298 164.224 24.749 164.433 24.141C164.648 23.5267 164.955 23.0042 165.354 22.5735C165.753 22.1428 166.235 21.8103 166.798 21.576C167.368 21.3417 168.008 21.2245 168.717 21.2245ZM168.717 29.8125C169.667 29.8125 170.377 29.4958 170.845 28.8625C171.314 28.2228 171.548 27.333 171.548 26.193C171.548 25.0467 171.314 24.1537 170.845 23.514C170.377 22.8743 169.667 22.5545 168.717 22.5545C168.236 22.5545 167.815 22.6368 167.454 22.8015C167.099 22.9662 166.801 23.2037 166.561 23.514C166.326 23.8243 166.149 24.2075 166.029 24.6635C165.915 25.1132 165.858 25.623 165.858 26.193C165.858 27.333 166.092 28.2228 166.561 28.8625C167.036 29.4958 167.755 29.8125 168.717 29.8125ZM171.491 17.2345L169.278 19.6855C169.189 19.7805 169.1 19.8502 169.012 19.8945C168.929 19.9325 168.822 19.9515 168.689 19.9515H167.682L169.088 17.6525C169.176 17.5068 169.271 17.4023 169.373 17.339C169.48 17.2693 169.636 17.2345 169.838 17.2345H171.491ZM177.037 22.773C177.246 22.5387 177.468 22.3265 177.702 22.1365C177.936 21.9465 178.183 21.785 178.443 21.652C178.709 21.5127 178.988 21.4082 179.279 21.3385C179.577 21.2625 179.897 21.2245 180.239 21.2245C180.764 21.2245 181.227 21.3132 181.626 21.4905C182.031 21.6615 182.367 21.9085 182.633 22.2315C182.905 22.5482 183.111 22.9313 183.25 23.381C183.389 23.8307 183.459 24.3278 183.459 24.8725V31H181.759V24.8725C181.759 24.1442 181.591 23.5805 181.255 23.1815C180.926 22.7762 180.422 22.5735 179.745 22.5735C179.244 22.5735 178.776 22.6938 178.339 22.9345C177.908 23.1752 177.509 23.5013 177.142 23.913V31H175.441V21.3765H176.458C176.698 21.3765 176.847 21.4937 176.904 21.728L177.037 22.773Z" fill="#FCFFF8"/>
<path d="M24 1H256V-1H24V1ZM256 47H24V49H256V47ZM24 47C11.2975 47 1 36.7025 1 24H-1C-1 37.8071 10.1929 49 24 49V47ZM279 24C279 36.7025 268.703 47 256 47V49C269.807 49 281 37.8071 281 24H279ZM256 1C268.703 1 279 11.2975 279 24H281C281 10.1929 269.807 -1 256 -1V1ZM24 -1C10.1929 -1 -1 10.1929 -1 24H1C1 11.2975 11.2975 1 24 1V-1Z" fill="#CE2F2F"/>
</svg>
