<svg width="280" height="48" viewBox="0 0 280 48" fill="none" xmlns="http://www.w3.org/2000/svg">
<path d="M0 24C0 10.7452 10.7452 0 24 0H256C269.255 0 280 10.7452 280 24C280 37.2548 269.255 48 256 48H24C10.7452 48 0 37.2548 0 24Z" fill="white"/>
<path d="M58.2955 28.188C58.3968 28.188 58.4855 28.2292 58.5615 28.3115L59.293 29.1C58.7357 29.746 58.058 30.2495 57.26 30.6105C56.4683 30.9715 55.5088 31.152 54.3815 31.152C53.4062 31.152 52.5195 30.9842 51.7215 30.6485C50.9235 30.3065 50.2427 29.8315 49.679 29.2235C49.1153 28.6092 48.6783 27.8745 48.368 27.0195C48.0577 26.1645 47.9025 25.224 47.9025 24.198C47.9025 23.172 48.064 22.2315 48.387 21.3765C48.71 20.5215 49.1628 19.7868 49.7455 19.1725C50.3345 18.5582 51.0375 18.0832 51.8545 17.7475C52.6715 17.4055 53.574 17.2345 54.562 17.2345C55.531 17.2345 56.386 17.3897 57.127 17.7C57.868 18.0103 58.5203 18.4315 59.084 18.9635L58.476 19.809C58.438 19.8723 58.3873 19.9262 58.324 19.9705C58.267 20.0085 58.1878 20.0275 58.0865 20.0275C57.9725 20.0275 57.8332 19.9673 57.6685 19.847C57.5038 19.7203 57.2885 19.581 57.0225 19.429C56.7565 19.277 56.424 19.1408 56.025 19.0205C55.626 18.8938 55.1352 18.8305 54.5525 18.8305C53.8495 18.8305 53.2067 18.954 52.624 19.201C52.0413 19.4417 51.5378 19.7932 51.1135 20.2555C50.6955 20.7178 50.3693 21.2815 50.135 21.9465C49.9007 22.6115 49.7835 23.362 49.7835 24.198C49.7835 25.0467 49.9038 25.8035 50.1445 26.4685C50.3915 27.1335 50.724 27.6972 51.142 28.1595C51.5663 28.6155 52.0635 28.9638 52.6335 29.2045C53.2098 29.4452 53.8305 29.5655 54.4955 29.5655C54.9008 29.5655 55.265 29.5433 55.588 29.499C55.9173 29.4483 56.2182 29.3723 56.4905 29.271C56.7692 29.1697 57.0257 29.043 57.26 28.891C57.5007 28.7327 57.7382 28.5458 57.9725 28.3305C58.0802 28.2355 58.1878 28.188 58.2955 28.188ZM64.9019 21.2245C65.6049 21.2245 66.2382 21.3417 66.8019 21.576C67.3655 21.8103 67.8469 22.1428 68.2459 22.5735C68.6449 23.0042 68.9489 23.5267 69.1579 24.141C69.3732 24.749 69.4809 25.4298 69.4809 26.1835C69.4809 26.9435 69.3732 27.6275 69.1579 28.2355C68.9489 28.8435 68.6449 29.3628 68.2459 29.7935C67.8469 30.2242 67.3655 30.5567 66.8019 30.791C66.2382 31.019 65.6049 31.133 64.9019 31.133C64.1925 31.133 63.5529 31.019 62.9829 30.791C62.4192 30.5567 61.9379 30.2242 61.5389 29.7935C61.1399 29.3628 60.8327 28.8435 60.6174 28.2355C60.4084 27.6275 60.3039 26.9435 60.3039 26.1835C60.3039 25.4298 60.4084 24.749 60.6174 24.141C60.8327 23.5267 61.1399 23.0042 61.5389 22.5735C61.9379 22.1428 62.4192 21.8103 62.9829 21.576C63.5529 21.3417 64.1925 21.2245 64.9019 21.2245ZM64.9019 29.8125C65.8519 29.8125 66.5612 29.4958 67.0299 28.8625C67.4985 28.2228 67.7329 27.333 67.7329 26.193C67.7329 25.0467 67.4985 24.1537 67.0299 23.514C66.5612 22.8743 65.8519 22.5545 64.9019 22.5545C64.4205 22.5545 63.9994 22.6368 63.6384 22.8015C63.2837 22.9662 62.986 23.2037 62.7454 23.514C62.511 23.8243 62.3337 24.2075 62.2134 24.6635C62.0994 25.1132 62.0424 25.623 62.0424 26.193C62.0424 27.333 62.2767 28.2228 62.7454 28.8625C63.2204 29.4958 63.9392 29.8125 64.9019 29.8125ZM73.2216 22.773C73.4306 22.5387 73.6523 22.3265 73.8866 22.1365C74.121 21.9465 74.368 21.785 74.6276 21.652C74.8936 21.5127 75.1723 21.4082 75.4636 21.3385C75.7613 21.2625 76.0811 21.2245 76.4231 21.2245C76.9488 21.2245 77.4111 21.3132 77.8101 21.4905C78.2155 21.6615 78.5511 21.9085 78.8171 22.2315C79.0895 22.5482 79.2953 22.9313 79.4346 23.381C79.574 23.8307 79.6436 24.3278 79.6436 24.8725V31H77.9431V24.8725C77.9431 24.1442 77.7753 23.5805 77.4396 23.1815C77.1103 22.7762 76.6068 22.5735 75.9291 22.5735C75.4288 22.5735 74.9601 22.6938 74.5231 22.9345C74.0925 23.1752 73.6935 23.5013 73.3261 23.913V31H71.6256V21.3765H72.6421C72.8828 21.3765 73.0316 21.4937 73.0886 21.728L73.2216 22.773ZM91.0205 31H89.3295V22.792H84.3705V28.568C84.3705 28.9733 84.4686 29.2742 84.665 29.4705C84.8613 29.6668 85.1146 29.765 85.425 29.765C85.6023 29.765 85.7543 29.7428 85.881 29.6985C86.014 29.6478 86.128 29.594 86.223 29.537C86.318 29.48 86.3971 29.4293 86.4605 29.385C86.5301 29.3343 86.5903 29.309 86.641 29.309C86.7296 29.309 86.8088 29.3628 86.8785 29.4705L87.3725 30.278C87.0811 30.5503 86.7296 30.7657 86.318 30.924C85.9063 31.076 85.482 31.152 85.045 31.152C84.285 31.152 83.6991 30.9398 83.2875 30.5155C82.8821 30.0912 82.6795 29.48 82.6795 28.682V22.792H81.5205C81.4191 22.792 81.3336 22.7635 81.264 22.7065C81.1943 22.6432 81.1595 22.5482 81.1595 22.4215V21.747L82.7365 21.538L83.126 18.574C83.145 18.479 83.1861 18.403 83.2495 18.346C83.3191 18.2827 83.4078 18.251 83.5155 18.251H84.3705V21.5665H91.0205V31ZM91.4385 18.289C91.4385 18.4537 91.4036 18.6088 91.334 18.7545C91.2706 18.8938 91.182 19.0173 91.068 19.125C90.9603 19.2327 90.8336 19.3182 90.688 19.3815C90.5423 19.4448 90.3871 19.4765 90.2225 19.4765C90.0578 19.4765 89.9026 19.4448 89.757 19.3815C89.6176 19.3182 89.4941 19.2327 89.3865 19.125C89.2788 19.0173 89.1933 18.8938 89.13 18.7545C89.0666 18.6088 89.035 18.4537 89.035 18.289C89.035 18.1243 89.0666 17.9692 89.13 17.8235C89.1933 17.6715 89.2788 17.5417 89.3865 17.434C89.4941 17.32 89.6176 17.2313 89.757 17.168C89.9026 17.1047 90.0578 17.073 90.2225 17.073C90.3871 17.073 90.5423 17.1047 90.688 17.168C90.8336 17.2313 90.9603 17.32 91.068 17.434C91.182 17.5417 91.2706 17.6715 91.334 17.8235C91.4036 17.9692 91.4385 18.1243 91.4385 18.289ZM95.3945 22.773C95.6035 22.5387 95.8252 22.3265 96.0595 22.1365C96.2938 21.9465 96.5408 21.785 96.8005 21.652C97.0665 21.5127 97.3452 21.4082 97.6365 21.3385C97.9342 21.2625 98.254 21.2245 98.596 21.2245C99.1217 21.2245 99.584 21.3132 99.983 21.4905C100.388 21.6615 100.724 21.9085 100.99 22.2315C101.262 22.5482 101.468 22.9313 101.607 23.381C101.747 23.8307 101.816 24.3278 101.816 24.8725V31H100.116V24.8725C100.116 24.1442 99.9482 23.5805 99.6125 23.1815C99.2832 22.7762 98.7797 22.5735 98.102 22.5735C97.6017 22.5735 97.133 22.6938 96.696 22.9345C96.2653 23.1752 95.8663 23.5013 95.499 23.913V31H93.7985V21.3765H94.815C95.0557 21.3765 95.2045 21.4937 95.2615 21.728L95.3945 22.773ZM112.307 21.3765V31H111.3C111.059 31 110.907 30.8828 110.844 30.6485L110.711 29.613C110.293 30.0753 109.824 30.449 109.305 30.734C108.785 31.0127 108.19 31.152 107.519 31.152C106.993 31.152 106.528 31.0665 106.122 30.8955C105.723 30.7182 105.388 30.4712 105.115 30.1545C104.843 29.8378 104.637 29.4547 104.498 29.005C104.365 28.5553 104.298 28.0582 104.298 27.5135V21.3765H105.989V27.5135C105.989 28.2418 106.154 28.8055 106.483 29.2045C106.819 29.6035 107.329 29.803 108.013 29.803C108.513 29.803 108.979 29.6858 109.409 29.4515C109.846 29.2108 110.248 28.8815 110.616 28.4635V21.3765H112.307ZM111.119 17.2345L108.906 19.6855C108.817 19.7805 108.728 19.8502 108.64 19.8945C108.557 19.9325 108.45 19.9515 108.317 19.9515H107.31L108.716 17.6525C108.804 17.5068 108.899 17.4023 109.001 17.339C109.108 17.2693 109.264 17.2345 109.466 17.2345H111.119ZM120.203 26.668C119.424 26.6933 118.759 26.7567 118.208 26.858C117.664 26.953 117.217 27.0797 116.869 27.238C116.527 27.3963 116.277 27.5832 116.118 27.7985C115.966 28.0138 115.89 28.2545 115.89 28.5205C115.89 28.7738 115.932 28.9923 116.014 29.176C116.096 29.3597 116.207 29.5117 116.346 29.632C116.492 29.746 116.66 29.8315 116.85 29.8885C117.046 29.9392 117.255 29.9645 117.477 29.9645C117.775 29.9645 118.047 29.936 118.294 29.879C118.541 29.8157 118.772 29.727 118.987 29.613C119.209 29.499 119.418 29.3628 119.614 29.2045C119.817 29.0462 120.013 28.8657 120.203 28.663V26.668ZM114.741 22.735C115.273 22.222 115.846 21.8388 116.46 21.5855C117.075 21.3322 117.756 21.2055 118.503 21.2055C119.041 21.2055 119.519 21.2942 119.937 21.4715C120.355 21.6488 120.707 21.8958 120.992 22.2125C121.277 22.5292 121.492 22.9123 121.638 23.362C121.784 23.8117 121.856 24.3057 121.856 24.844V31H121.106C120.941 31 120.815 30.9747 120.726 30.924C120.637 30.867 120.568 30.7593 120.517 30.601L120.327 29.689C120.074 29.9233 119.827 30.1323 119.586 30.316C119.345 30.4933 119.092 30.6453 118.826 30.772C118.56 30.8923 118.275 30.9842 117.971 31.0475C117.673 31.1172 117.341 31.152 116.973 31.152C116.6 31.152 116.248 31.1013 115.919 31C115.59 30.8923 115.301 30.734 115.054 30.525C114.814 30.316 114.621 30.0532 114.475 29.7365C114.336 29.4135 114.266 29.0335 114.266 28.5965C114.266 28.2165 114.37 27.8523 114.579 27.504C114.788 27.1493 115.127 26.8358 115.596 26.5635C116.065 26.2912 116.676 26.0695 117.429 25.8985C118.183 25.7212 119.108 25.6198 120.203 25.5945V24.844C120.203 24.0967 120.042 23.533 119.719 23.153C119.396 22.7667 118.924 22.5735 118.303 22.5735C117.885 22.5735 117.534 22.6273 117.249 22.735C116.97 22.8363 116.726 22.9535 116.517 23.0865C116.315 23.2132 116.137 23.3303 115.985 23.438C115.84 23.5393 115.694 23.59 115.548 23.59C115.434 23.59 115.336 23.5615 115.254 23.5045C115.172 23.4412 115.102 23.3652 115.045 23.2765L114.741 22.735ZM135.991 23.0865C135.94 23.1562 135.89 23.21 135.839 23.248C135.788 23.286 135.719 23.305 135.63 23.305C135.535 23.305 135.431 23.267 135.317 23.191C135.203 23.1087 135.06 23.02 134.889 22.925C134.724 22.83 134.519 22.7445 134.272 22.6685C134.031 22.5862 133.733 22.545 133.379 22.545C132.904 22.545 132.486 22.6305 132.125 22.8015C131.764 22.9662 131.46 23.2068 131.213 23.5235C130.972 23.8402 130.788 24.2233 130.662 24.673C130.541 25.1227 130.481 25.6262 130.481 26.1835C130.481 26.7662 130.548 27.2855 130.681 27.7415C130.814 28.1912 131 28.5712 131.241 28.8815C131.488 29.1855 131.783 29.4198 132.125 29.5845C132.473 29.7428 132.862 29.822 133.293 29.822C133.705 29.822 134.044 29.7745 134.31 29.6795C134.576 29.5782 134.794 29.4673 134.965 29.347C135.142 29.2267 135.288 29.119 135.402 29.024C135.522 28.9227 135.64 28.872 135.754 28.872C135.893 28.872 136.001 28.9258 136.077 29.0335L136.552 29.651C136.343 29.9107 136.105 30.1323 135.839 30.316C135.573 30.4997 135.285 30.6548 134.975 30.7815C134.671 30.9018 134.351 30.9905 134.015 31.0475C133.679 31.1045 133.337 31.133 132.989 31.133C132.387 31.133 131.827 31.0222 131.308 30.8005C130.795 30.5788 130.348 30.259 129.968 29.841C129.588 29.4167 129.29 28.8973 129.075 28.283C128.86 27.6687 128.752 26.9688 128.752 26.1835C128.752 25.4678 128.85 24.806 129.047 24.198C129.249 23.59 129.541 23.0675 129.921 22.6305C130.307 22.1872 130.779 21.842 131.336 21.595C131.9 21.348 132.546 21.2245 133.274 21.2245C133.952 21.2245 134.547 21.3353 135.06 21.557C135.579 21.7723 136.039 22.0795 136.438 22.4785L135.991 23.0865ZM142.256 21.2245C142.959 21.2245 143.593 21.3417 144.156 21.576C144.72 21.8103 145.201 22.1428 145.6 22.5735C145.999 23.0042 146.303 23.5267 146.512 24.141C146.728 24.749 146.835 25.4298 146.835 26.1835C146.835 26.9435 146.728 27.6275 146.512 28.2355C146.303 28.8435 145.999 29.3628 145.6 29.7935C145.201 30.2242 144.72 30.5567 144.156 30.791C143.593 31.019 142.959 31.133 142.256 31.133C141.547 31.133 140.907 31.019 140.337 30.791C139.774 30.5567 139.292 30.2242 138.893 29.7935C138.494 29.3628 138.187 28.8435 137.972 28.2355C137.763 27.6275 137.658 26.9435 137.658 26.1835C137.658 25.4298 137.763 24.749 137.972 24.141C138.187 23.5267 138.494 23.0042 138.893 22.5735C139.292 22.1428 139.774 21.8103 140.337 21.576C140.907 21.3417 141.547 21.2245 142.256 21.2245ZM142.256 29.8125C143.206 29.8125 143.916 29.4958 144.384 28.8625C144.853 28.2228 145.087 27.333 145.087 26.193C145.087 25.0467 144.853 24.1537 144.384 23.514C143.916 22.8743 143.206 22.5545 142.256 22.5545C141.775 22.5545 141.354 22.6368 140.993 22.8015C140.638 22.9662 140.341 23.2037 140.1 23.514C139.866 23.8243 139.688 24.2075 139.568 24.6635C139.454 25.1132 139.397 25.623 139.397 26.193C139.397 27.333 139.631 28.2228 140.1 28.8625C140.575 29.4958 141.294 29.8125 142.256 29.8125ZM150.576 22.773C150.785 22.5387 151.007 22.3265 151.241 22.1365C151.475 21.9465 151.722 21.785 151.982 21.652C152.248 21.5127 152.527 21.4082 152.818 21.3385C153.116 21.2625 153.436 21.2245 153.778 21.2245C154.303 21.2245 154.766 21.3132 155.165 21.4905C155.57 21.6615 155.906 21.9085 156.172 22.2315C156.444 22.5482 156.65 22.9313 156.789 23.381C156.928 23.8307 156.998 24.3278 156.998 24.8725V31H155.298V24.8725C155.298 24.1442 155.13 23.5805 154.794 23.1815C154.465 22.7762 153.961 22.5735 153.284 22.5735C152.783 22.5735 152.315 22.6938 151.878 22.9345C151.447 23.1752 151.048 23.5013 150.681 23.913V31H148.98V21.3765H149.997C150.237 21.3765 150.386 21.4937 150.443 21.728L150.576 22.773ZM175.893 24.4545V29.6795C175.209 30.1735 174.478 30.544 173.699 30.791C172.926 31.0317 172.077 31.152 171.153 31.152C170.057 31.152 169.069 30.9842 168.189 30.6485C167.308 30.3065 166.555 29.8315 165.928 29.2235C165.307 28.6092 164.829 27.8745 164.493 27.0195C164.158 26.1645 163.99 25.224 163.99 24.198C163.99 23.1593 164.151 22.2125 164.474 21.3575C164.804 20.5025 165.269 19.771 165.871 19.163C166.472 18.5487 167.204 18.0737 168.065 17.738C168.927 17.4023 169.889 17.2345 170.953 17.2345C171.492 17.2345 171.992 17.2757 172.454 17.358C172.917 17.434 173.344 17.548 173.737 17.7C174.129 17.8457 174.494 18.0262 174.829 18.2415C175.165 18.4505 175.478 18.688 175.77 18.954L175.247 19.79C175.165 19.9167 175.057 19.999 174.924 20.037C174.798 20.0687 174.655 20.037 174.497 19.942C174.345 19.8533 174.171 19.7457 173.974 19.619C173.778 19.4923 173.537 19.372 173.252 19.258C172.974 19.1377 172.641 19.0363 172.255 18.954C171.875 18.8717 171.422 18.8305 170.896 18.8305C170.13 18.8305 169.436 18.9572 168.816 19.2105C168.195 19.4575 167.666 19.8153 167.229 20.284C166.792 20.7463 166.457 21.31 166.222 21.975C165.988 22.6337 165.871 23.3747 165.871 24.198C165.871 25.053 165.991 25.8193 166.232 26.497C166.479 27.1683 166.827 27.7415 167.277 28.2165C167.733 28.6852 168.284 29.043 168.93 29.29C169.576 29.537 170.301 29.6605 171.105 29.6605C171.739 29.6605 172.299 29.5908 172.787 29.4515C173.281 29.3058 173.762 29.1063 174.231 28.853V25.8605H172.112C171.992 25.8605 171.894 25.8257 171.818 25.756C171.748 25.6863 171.713 25.6008 171.713 25.4995V24.4545H175.893ZM182.26 21.2245C182.963 21.2245 183.597 21.3417 184.16 21.576C184.724 21.8103 185.205 22.1428 185.604 22.5735C186.003 23.0042 186.307 23.5267 186.516 24.141C186.732 24.749 186.839 25.4298 186.839 26.1835C186.839 26.9435 186.732 27.6275 186.516 28.2355C186.307 28.8435 186.003 29.3628 185.604 29.7935C185.205 30.2242 184.724 30.5567 184.16 30.791C183.597 31.019 182.963 31.133 182.26 31.133C181.551 31.133 180.911 31.019 180.341 30.791C179.778 30.5567 179.296 30.2242 178.897 29.7935C178.498 29.3628 178.191 28.8435 177.976 28.2355C177.767 27.6275 177.662 26.9435 177.662 26.1835C177.662 25.4298 177.767 24.749 177.976 24.141C178.191 23.5267 178.498 23.0042 178.897 22.5735C179.296 22.1428 179.778 21.8103 180.341 21.576C180.911 21.3417 181.551 21.2245 182.26 21.2245ZM182.26 29.8125C183.21 29.8125 183.92 29.4958 184.388 28.8625C184.857 28.2228 185.091 27.333 185.091 26.193C185.091 25.0467 184.857 24.1537 184.388 23.514C183.92 22.8743 183.21 22.5545 182.26 22.5545C181.779 22.5545 181.358 22.6368 180.997 22.8015C180.642 22.9662 180.344 23.2037 180.104 23.514C179.869 23.8243 179.692 24.2075 179.572 24.6635C179.458 25.1132 179.401 25.623 179.401 26.193C179.401 27.333 179.635 28.2228 180.104 28.8625C180.579 29.4958 181.298 29.8125 182.26 29.8125ZM193.041 21.2245C193.744 21.2245 194.377 21.3417 194.941 21.576C195.504 21.8103 195.986 22.1428 196.385 22.5735C196.784 23.0042 197.088 23.5267 197.297 24.141C197.512 24.749 197.62 25.4298 197.62 26.1835C197.62 26.9435 197.512 27.6275 197.297 28.2355C197.088 28.8435 196.784 29.3628 196.385 29.7935C195.986 30.2242 195.504 30.5567 194.941 30.791C194.377 31.019 193.744 31.133 193.041 31.133C192.331 31.133 191.692 31.019 191.122 30.791C190.558 30.5567 190.077 30.2242 189.678 29.7935C189.279 29.3628 188.971 28.8435 188.756 28.2355C188.547 27.6275 188.443 26.9435 188.443 26.1835C188.443 25.4298 188.547 24.749 188.756 24.141C188.971 23.5267 189.279 23.0042 189.678 22.5735C190.077 22.1428 190.558 21.8103 191.122 21.576C191.692 21.3417 192.331 21.2245 193.041 21.2245ZM193.041 29.8125C193.991 29.8125 194.7 29.4958 195.169 28.8625C195.637 28.2228 195.872 27.333 195.872 26.193C195.872 25.0467 195.637 24.1537 195.169 23.514C194.7 22.8743 193.991 22.5545 193.041 22.5545C192.559 22.5545 192.138 22.6368 191.777 22.8015C191.422 22.9662 191.125 23.2037 190.884 23.514C190.65 23.8243 190.472 24.2075 190.352 24.6635C190.238 25.1132 190.181 25.623 190.181 26.193C190.181 27.333 190.415 28.2228 190.884 28.8625C191.359 29.4958 192.078 29.8125 193.041 29.8125ZM203.062 26.2975C203.404 26.2975 203.705 26.25 203.965 26.155C204.224 26.06 204.443 25.927 204.62 25.756C204.797 25.585 204.93 25.3823 205.019 25.148C205.108 24.9073 205.152 24.6445 205.152 24.3595C205.152 23.7705 204.972 23.3018 204.611 22.9535C204.256 22.6052 203.74 22.431 203.062 22.431C202.378 22.431 201.856 22.6052 201.495 22.9535C201.14 23.3018 200.963 23.7705 200.963 24.3595C200.963 24.6445 201.007 24.9073 201.096 25.148C201.191 25.3823 201.327 25.585 201.504 25.756C201.681 25.927 201.9 26.06 202.16 26.155C202.419 26.25 202.72 26.2975 203.062 26.2975ZM206.112 31.5225C206.112 31.2882 206.045 31.0982 205.912 30.9525C205.779 30.8068 205.599 30.6928 205.371 30.6105C205.149 30.5282 204.889 30.4712 204.592 30.4395C204.294 30.4015 203.977 30.373 203.642 30.354C203.312 30.335 202.977 30.316 202.635 30.297C202.293 30.278 201.963 30.2463 201.647 30.202C201.292 30.3667 201.001 30.5757 200.773 30.829C200.551 31.076 200.44 31.3673 200.44 31.703C200.44 31.9183 200.494 32.1178 200.602 32.3015C200.716 32.4915 200.887 32.653 201.115 32.786C201.343 32.9253 201.628 33.033 201.97 33.109C202.318 33.1913 202.726 33.2325 203.195 33.2325C203.651 33.2325 204.06 33.1913 204.421 33.109C204.782 33.0267 205.086 32.9095 205.333 32.7575C205.586 32.6055 205.779 32.425 205.912 32.216C206.045 32.007 206.112 31.7758 206.112 31.5225ZM207.831 21.7565V22.3835C207.831 22.5925 207.698 22.7255 207.432 22.7825L206.34 22.925C206.555 23.343 206.663 23.8053 206.663 24.312C206.663 24.7807 206.571 25.2082 206.387 25.5945C206.21 25.9745 205.963 26.3007 205.646 26.573C205.329 26.8453 204.949 27.0543 204.506 27.2C204.063 27.3457 203.581 27.4185 203.062 27.4185C202.612 27.4185 202.188 27.3647 201.789 27.257C201.586 27.3837 201.431 27.5198 201.324 27.6655C201.216 27.8048 201.162 27.9473 201.162 28.093C201.162 28.321 201.254 28.4952 201.438 28.6155C201.628 28.7295 201.875 28.8118 202.179 28.8625C202.483 28.9132 202.828 28.9448 203.214 28.9575C203.607 28.9702 204.006 28.9923 204.411 29.024C204.823 29.0493 205.222 29.0968 205.608 29.1665C206.001 29.2362 206.349 29.3502 206.653 29.5085C206.957 29.6668 207.201 29.8853 207.385 30.164C207.575 30.4427 207.67 30.8037 207.67 31.247C207.67 31.6587 207.565 32.0577 207.356 32.444C207.153 32.8303 206.859 33.1723 206.473 33.47C206.086 33.774 205.611 34.0147 205.048 34.192C204.49 34.3757 203.86 34.4675 203.157 34.4675C202.454 34.4675 201.84 34.3978 201.314 34.2585C200.788 34.1192 200.351 33.9323 200.003 33.698C199.655 33.4637 199.392 33.1913 199.215 32.881C199.044 32.577 198.958 32.2572 198.958 31.9215C198.958 31.4465 199.107 31.0443 199.405 30.715C199.702 30.3857 200.111 30.1228 200.63 29.9265C200.345 29.7998 200.117 29.632 199.946 29.423C199.781 29.2077 199.699 28.9195 199.699 28.5585C199.699 28.4192 199.724 28.2767 199.775 28.131C199.826 27.979 199.902 27.8302 200.003 27.6845C200.111 27.5325 200.241 27.39 200.393 27.257C200.545 27.124 200.722 27.0068 200.925 26.9055C200.45 26.6395 200.079 26.288 199.813 25.851C199.547 25.4077 199.414 24.8947 199.414 24.312C199.414 23.8433 199.503 23.419 199.68 23.039C199.864 22.6527 200.117 22.3265 200.44 22.0605C200.763 21.7882 201.146 21.5792 201.59 21.4335C202.039 21.2878 202.53 21.215 203.062 21.215C203.48 21.215 203.87 21.2625 204.231 21.3575C204.592 21.4462 204.921 21.5792 205.219 21.7565H207.831ZM211.328 17.0065V31H209.637V17.0065H211.328ZM220.511 25.1385C220.511 24.7458 220.454 24.388 220.34 24.065C220.232 23.7357 220.071 23.4538 219.855 23.2195C219.646 22.9788 219.39 22.7952 219.086 22.6685C218.782 22.5355 218.437 22.469 218.05 22.469C217.24 22.469 216.597 22.7065 216.122 23.1815C215.653 23.6502 215.362 24.3025 215.248 25.1385H220.511ZM221.879 29.651C221.67 29.9043 221.42 30.126 221.128 30.316C220.837 30.4997 220.524 30.6517 220.188 30.772C219.859 30.8923 219.517 30.981 219.162 31.038C218.807 31.1013 218.456 31.133 218.107 31.133C217.442 31.133 216.828 31.0222 216.264 30.8005C215.707 30.5725 215.223 30.2432 214.811 29.8125C214.406 29.3755 214.089 28.8372 213.861 28.1975C213.633 27.5578 213.519 26.8232 213.519 25.9935C213.519 25.3222 213.62 24.6952 213.823 24.1125C214.032 23.5298 214.33 23.0263 214.716 22.602C215.102 22.1713 215.574 21.8357 216.131 21.595C216.689 21.348 217.316 21.2245 218.012 21.2245C218.589 21.2245 219.121 21.3227 219.608 21.519C220.102 21.709 220.527 21.9877 220.881 22.355C221.242 22.716 221.524 23.1657 221.727 23.704C221.93 24.236 222.031 24.844 222.031 25.528C222.031 25.794 222.002 25.9713 221.945 26.06C221.888 26.1487 221.781 26.193 221.622 26.193H215.191C215.21 26.801 215.292 27.3298 215.438 27.7795C215.59 28.2292 215.799 28.606 216.065 28.91C216.331 29.2077 216.648 29.4325 217.015 29.5845C217.382 29.7302 217.794 29.803 218.25 29.803C218.674 29.803 219.038 29.7555 219.342 29.6605C219.653 29.5592 219.919 29.4515 220.14 29.3375C220.362 29.2235 220.546 29.119 220.691 29.024C220.843 28.9227 220.973 28.872 221.081 28.872C221.22 28.872 221.328 28.9258 221.404 29.0335L221.879 29.651Z" fill="#24241C"/>
<path d="M24 1H256V-1H24V1ZM256 47H24V49H256V47ZM24 47C11.2975 47 1 36.7025 1 24H-1C-1 37.8071 10.1929 49 24 49V47ZM279 24C279 36.7025 268.703 47 256 47V49C269.807 49 281 37.8071 281 24H279ZM256 1C268.703 1 279 11.2975 279 24H281C281 10.1929 269.807 -1 256 -1V1ZM24 -1C10.1929 -1 -1 10.1929 -1 24H1C1 11.2975 11.2975 1 24 1V-1Z" fill="#8DC63F"/>
</svg>
