<svg width="230" height="40" viewBox="0 0 230 40" fill="none" xmlns="http://www.w3.org/2000/svg">
<rect width="230" height="40" rx="20" fill="#CE2F2F"/>
<path d="M15.072 14.103H16.467C16.623 14.103 16.749 14.142 16.845 14.22C16.941 14.298 17.013 14.397 17.061 14.517L20.706 23.616C20.79 23.82 20.865 24.042 20.931 24.282C21.003 24.522 21.072 24.771 21.138 25.029C21.192 24.771 21.249 24.522 21.309 24.282C21.375 24.042 21.45 23.82 21.534 23.616L25.161 14.517C25.203 14.415 25.275 14.322 25.377 14.238C25.479 14.148 25.605 14.103 25.755 14.103H27.159L21.903 27H20.328L15.072 14.103ZM40.4548 20.556C40.4548 21.522 40.3018 22.41 39.9958 23.22C39.6898 24.024 39.2578 24.717 38.6998 25.299C38.1418 25.881 37.4698 26.334 36.6838 26.658C35.9038 26.976 35.0398 27.135 34.0918 27.135C33.1438 27.135 32.2798 26.976 31.4998 26.658C30.7198 26.334 30.0508 25.881 29.4928 25.299C28.9348 24.717 28.5028 24.024 28.1968 23.22C27.8908 22.41 27.7378 21.522 27.7378 20.556C27.7378 19.59 27.8908 18.705 28.1968 17.901C28.5028 17.091 28.9348 16.395 29.4928 15.813C30.0508 15.225 30.7198 14.769 31.4998 14.445C32.2798 14.121 33.1438 13.959 34.0918 13.959C35.0398 13.959 35.9038 14.121 36.6838 14.445C37.4698 14.769 38.1418 15.225 38.6998 15.813C39.2578 16.395 39.6898 17.091 39.9958 17.901C40.3018 18.705 40.4548 19.59 40.4548 20.556ZM38.6638 20.556C38.6638 19.764 38.5558 19.053 38.3398 18.423C38.1238 17.793 37.8178 17.262 37.4218 16.83C37.0258 16.392 36.5458 16.056 35.9818 15.822C35.4178 15.588 34.7878 15.471 34.0918 15.471C33.4018 15.471 32.7748 15.588 32.2108 15.822C31.6468 16.056 31.1638 16.392 30.7618 16.83C30.3658 17.262 30.0598 17.793 29.8438 18.423C29.6278 19.053 29.5198 19.764 29.5198 20.556C29.5198 21.348 29.6278 22.059 29.8438 22.689C30.0598 23.313 30.3658 23.844 30.7618 24.282C31.1638 24.714 31.6468 25.047 32.2108 25.281C32.7748 25.509 33.4018 25.623 34.0918 25.623C34.7878 25.623 35.4178 25.509 35.9818 25.281C36.5458 25.047 37.0258 24.714 37.4218 24.282C37.8178 23.844 38.1238 23.313 38.3398 22.689C38.5558 22.059 38.6638 21.348 38.6638 20.556ZM44.7331 25.533H50.3131V27H42.9871V14.103H44.7331V25.533ZM49.2544 14.103H50.6494C50.8054 14.103 50.9314 14.142 51.0274 14.22C51.1234 14.298 51.1954 14.397 51.2434 14.517L54.8884 23.616C54.9724 23.82 55.0474 24.042 55.1134 24.282C55.1854 24.522 55.2544 24.771 55.3204 25.029C55.3744 24.771 55.4314 24.522 55.4914 24.282C55.5574 24.042 55.6324 23.82 55.7164 23.616L59.3434 14.517C59.3854 14.415 59.4574 14.322 59.5594 14.238C59.6614 14.148 59.7874 14.103 59.9374 14.103H61.3414L56.0854 27H54.5104L49.2544 14.103ZM71.0798 14.103V15.525H64.8878V19.809H69.9008V21.177H64.8878V25.578H71.0798V27H63.1328V14.103H71.0798ZM75.6588 21.618V27H73.9218V14.103H77.5668C78.3828 14.103 79.0878 14.187 79.6818 14.355C80.2758 14.517 80.7648 14.754 81.1488 15.066C81.5388 15.378 81.8268 15.756 82.0128 16.2C82.1988 16.638 82.2918 17.13 82.2918 17.676C82.2918 18.132 82.2198 18.558 82.0758 18.954C81.9318 19.35 81.7218 19.707 81.4458 20.025C81.1758 20.337 80.8428 20.604 80.4468 20.826C80.0568 21.048 79.6128 21.216 79.1148 21.33C79.3308 21.456 79.5228 21.639 79.6908 21.879L83.4528 27H81.9048C81.5868 27 81.3528 26.877 81.2028 26.631L77.8548 22.023C77.7528 21.879 77.6418 21.777 77.5218 21.717C77.4018 21.651 77.2218 21.618 76.9818 21.618H75.6588ZM75.6588 20.349H77.4858C77.9958 20.349 78.4428 20.289 78.8268 20.169C79.2168 20.043 79.5408 19.869 79.7988 19.647C80.0628 19.419 80.2608 19.149 80.3928 18.837C80.5248 18.525 80.5908 18.18 80.5908 17.802C80.5908 17.034 80.3358 16.455 79.8258 16.065C79.3218 15.675 78.5688 15.48 77.5668 15.48H75.6588V20.349ZM99.7172 27H98.3672C98.2112 27 98.0852 26.961 97.9892 26.883C97.8932 26.805 97.8212 26.706 97.7732 26.586L96.5672 23.472H90.7802L89.5742 26.586C89.5322 26.694 89.4602 26.79 89.3582 26.874C89.2562 26.958 89.1302 27 88.9802 27H87.6302L92.7872 14.103H94.5602L99.7172 27ZM91.2662 22.212H96.0812L94.0562 16.965C93.9242 16.641 93.7952 16.236 93.6692 15.75C93.6032 15.996 93.5372 16.224 93.4712 16.434C93.4112 16.638 93.3512 16.818 93.2912 16.974L91.2662 22.212ZM105.121 27V14.103H109.234C110.026 14.103 110.707 14.181 111.277 14.337C111.853 14.493 112.324 14.715 112.69 15.003C113.062 15.291 113.335 15.645 113.509 16.065C113.689 16.479 113.779 16.947 113.779 17.469C113.779 17.787 113.728 18.093 113.626 18.387C113.53 18.681 113.38 18.954 113.176 19.206C112.978 19.458 112.726 19.683 112.42 19.881C112.12 20.079 111.766 20.241 111.358 20.367C112.3 20.553 113.011 20.892 113.491 21.384C113.971 21.876 114.211 22.524 114.211 23.328C114.211 23.874 114.109 24.372 113.905 24.822C113.707 25.272 113.413 25.659 113.023 25.983C112.639 26.307 112.165 26.559 111.601 26.739C111.043 26.913 110.404 27 109.684 27H105.121ZM106.867 21.123V25.614H109.657C110.155 25.614 110.581 25.557 110.935 25.443C111.295 25.329 111.589 25.17 111.817 24.966C112.051 24.756 112.222 24.51 112.33 24.228C112.438 23.94 112.492 23.625 112.492 23.283C112.492 22.617 112.255 22.092 111.781 21.708C111.313 21.318 110.602 21.123 109.648 21.123H106.867ZM106.867 19.881H109.171C109.663 19.881 110.089 19.827 110.449 19.719C110.809 19.611 111.106 19.461 111.34 19.269C111.58 19.077 111.757 18.846 111.871 18.576C111.985 18.3 112.042 18 112.042 17.676C112.042 16.92 111.814 16.365 111.358 16.011C110.902 15.657 110.194 15.48 109.234 15.48H106.867V19.881ZM121.938 25.614C122.472 25.614 122.949 25.524 123.369 25.344C123.789 25.164 124.143 24.912 124.431 24.588C124.725 24.264 124.947 23.877 125.097 23.427C125.253 22.977 125.331 22.482 125.331 21.942V14.103H127.068V21.942C127.068 22.686 126.948 23.376 126.708 24.012C126.474 24.648 126.135 25.2 125.691 25.668C125.253 26.13 124.716 26.493 124.08 26.757C123.444 27.021 122.73 27.153 121.938 27.153C121.146 27.153 120.432 27.021 119.796 26.757C119.16 26.493 118.62 26.13 118.176 25.668C117.732 25.2 117.39 24.648 117.15 24.012C116.916 23.376 116.799 22.686 116.799 21.942V14.103H118.536V21.933C118.536 22.473 118.611 22.968 118.761 23.418C118.917 23.868 119.139 24.255 119.427 24.579C119.721 24.903 120.078 25.158 120.498 25.344C120.924 25.524 121.404 25.614 121.938 25.614ZM136.83 16.119C136.776 16.209 136.719 16.278 136.659 16.326C136.599 16.368 136.521 16.389 136.425 16.389C136.323 16.389 136.203 16.338 136.065 16.236C135.933 16.134 135.762 16.023 135.552 15.903C135.348 15.777 135.099 15.663 134.805 15.561C134.517 15.459 134.166 15.408 133.752 15.408C133.362 15.408 133.017 15.462 132.717 15.57C132.417 15.672 132.165 15.813 131.961 15.993C131.763 16.173 131.613 16.386 131.511 16.632C131.409 16.872 131.358 17.133 131.358 17.415C131.358 17.775 131.445 18.075 131.619 18.315C131.799 18.549 132.033 18.75 132.321 18.918C132.615 19.086 132.945 19.233 133.311 19.359C133.683 19.479 134.061 19.605 134.445 19.737C134.835 19.869 135.213 20.019 135.579 20.187C135.951 20.349 136.281 20.556 136.569 20.808C136.863 21.06 137.097 21.369 137.271 21.735C137.451 22.101 137.541 22.551 137.541 23.085C137.541 23.649 137.445 24.18 137.253 24.678C137.061 25.17 136.779 25.599 136.407 25.965C136.041 26.331 135.588 26.619 135.048 26.829C134.514 27.039 133.905 27.144 133.221 27.144C132.387 27.144 131.625 26.994 130.935 26.694C130.251 26.388 129.666 25.977 129.18 25.461L129.684 24.633C129.732 24.567 129.789 24.513 129.855 24.471C129.927 24.423 130.005 24.399 130.089 24.399C130.215 24.399 130.359 24.468 130.521 24.606C130.683 24.738 130.884 24.885 131.124 25.047C131.37 25.209 131.664 25.359 132.006 25.497C132.354 25.629 132.777 25.695 133.275 25.695C133.689 25.695 134.058 25.638 134.382 25.524C134.706 25.41 134.979 25.251 135.201 25.047C135.429 24.837 135.603 24.588 135.723 24.3C135.843 24.012 135.903 23.691 135.903 23.337C135.903 22.947 135.813 22.629 135.633 22.383C135.459 22.131 135.228 21.921 134.94 21.753C134.652 21.585 134.322 21.444 133.95 21.33C133.584 21.21 133.206 21.09 132.816 20.97C132.432 20.844 132.054 20.7 131.682 20.538C131.316 20.376 130.989 20.166 130.701 19.908C130.413 19.65 130.179 19.329 129.999 18.945C129.825 18.555 129.738 18.075 129.738 17.505C129.738 17.049 129.825 16.608 129.999 16.182C130.179 15.756 130.437 15.378 130.773 15.048C131.109 14.718 131.523 14.454 132.015 14.256C132.513 14.058 133.083 13.959 133.725 13.959C134.445 13.959 135.102 14.073 135.696 14.301C136.29 14.529 136.809 14.859 137.253 15.291L136.83 16.119ZM149.009 24.336C149.105 24.336 149.192 24.375 149.27 24.453L149.954 25.2C149.426 25.812 148.784 26.289 148.028 26.631C147.278 26.973 146.372 27.144 145.31 27.144C144.38 27.144 143.537 26.985 142.781 26.667C142.025 26.343 141.38 25.893 140.846 25.317C140.312 24.735 139.898 24.039 139.604 23.229C139.31 22.419 139.163 21.528 139.163 20.556C139.163 19.584 139.319 18.693 139.631 17.883C139.949 17.073 140.393 16.377 140.963 15.795C141.533 15.213 142.214 14.763 143.006 14.445C143.804 14.121 144.683 13.959 145.643 13.959C146.591 13.959 147.407 14.106 148.091 14.4C148.781 14.694 149.393 15.093 149.927 15.597L149.36 16.398C149.318 16.458 149.27 16.509 149.216 16.551C149.162 16.587 149.084 16.605 148.982 16.605C148.904 16.605 148.82 16.578 148.73 16.524C148.646 16.464 148.544 16.392 148.424 16.308C148.304 16.224 148.163 16.134 148.001 16.038C147.839 15.942 147.647 15.852 147.425 15.768C147.203 15.684 146.945 15.615 146.651 15.561C146.357 15.501 146.018 15.471 145.634 15.471C144.944 15.471 144.311 15.591 143.735 15.831C143.165 16.065 142.673 16.401 142.259 16.839C141.845 17.277 141.521 17.811 141.287 18.441C141.059 19.071 140.945 19.776 140.945 20.556C140.945 21.36 141.059 22.077 141.287 22.707C141.521 23.337 141.836 23.871 142.232 24.309C142.634 24.741 143.108 25.071 143.654 25.299C144.2 25.527 144.788 25.641 145.418 25.641C145.802 25.641 146.147 25.62 146.453 25.578C146.759 25.53 147.041 25.458 147.299 25.362C147.563 25.266 147.806 25.146 148.028 25.002C148.256 24.852 148.484 24.675 148.712 24.471C148.814 24.381 148.913 24.336 149.009 24.336ZM163.002 27H161.652C161.496 27 161.37 26.961 161.274 26.883C161.178 26.805 161.106 26.706 161.058 26.586L159.852 23.472H154.065L152.859 26.586C152.817 26.694 152.745 26.79 152.643 26.874C152.541 26.958 152.415 27 152.265 27H150.915L156.072 14.103H157.845L163.002 27ZM154.551 22.212H159.366L157.341 16.965C157.209 16.641 157.08 16.236 156.954 15.75C156.888 15.996 156.822 16.224 156.756 16.434C156.696 16.638 156.636 16.818 156.576 16.974L154.551 22.212ZM166.692 21.618V27H164.955V14.103H168.6C169.416 14.103 170.121 14.187 170.715 14.355C171.309 14.517 171.798 14.754 172.182 15.066C172.572 15.378 172.86 15.756 173.046 16.2C173.232 16.638 173.325 17.13 173.325 17.676C173.325 18.132 173.253 18.558 173.109 18.954C172.965 19.35 172.755 19.707 172.479 20.025C172.209 20.337 171.876 20.604 171.48 20.826C171.09 21.048 170.646 21.216 170.148 21.33C170.364 21.456 170.556 21.639 170.724 21.879L174.486 27H172.938C172.62 27 172.386 26.877 172.236 26.631L168.888 22.023C168.786 21.879 168.675 21.777 168.555 21.717C168.435 21.651 168.255 21.618 168.015 21.618H166.692ZM166.692 20.349H168.519C169.029 20.349 169.476 20.289 169.86 20.169C170.25 20.043 170.574 19.869 170.832 19.647C171.096 19.419 171.294 19.149 171.426 18.837C171.558 18.525 171.624 18.18 171.624 17.802C171.624 17.034 171.369 16.455 170.859 16.065C170.355 15.675 169.602 15.48 168.6 15.48H166.692V20.349Z" fill="white"/>
<rect x="191" y="8" width="24" height="24" rx="12" fill="white"/>
<path fill-rule="evenodd" clip-rule="evenodd" d="M201 14L199.59 15.41L204.17 20L199.59 24.59L201 26L207 20L201 14Z" fill="#CE2F2F"/>
</svg>
