<svg width="190" height="40" viewBox="0 0 190 40" fill="none" xmlns="http://www.w3.org/2000/svg">
<rect width="190" height="40" rx="20" fill="#CE2F2F"/>
<path d="M41.7965 20.9545V26.1795C41.1125 26.6735 40.381 27.044 39.602 27.291C38.8293 27.5317 37.9807 27.652 37.056 27.652C35.9603 27.652 34.9723 27.4842 34.092 27.1485C33.2117 26.8065 32.458 26.3315 31.831 25.7235C31.2103 25.1092 30.7322 24.3745 30.3965 23.5195C30.0608 22.6645 29.893 21.724 29.893 20.698C29.893 19.6593 30.0545 18.7125 30.3775 17.8575C30.7068 17.0025 31.1723 16.271 31.774 15.663C32.3757 15.0487 33.1072 14.5737 33.9685 14.238C34.8298 13.9023 35.7925 13.7345 36.8565 13.7345C37.3948 13.7345 37.8952 13.7757 38.3575 13.858C38.8198 13.934 39.2473 14.048 39.64 14.2C40.0327 14.3457 40.3968 14.5262 40.7325 14.7415C41.0682 14.9505 41.3817 15.188 41.673 15.454L41.1505 16.29C41.0682 16.4167 40.9605 16.499 40.8275 16.537C40.7008 16.5687 40.5583 16.537 40.4 16.442C40.248 16.3533 40.0738 16.2457 39.8775 16.119C39.6812 15.9923 39.4405 15.872 39.1555 15.758C38.8768 15.6377 38.5443 15.5363 38.158 15.454C37.778 15.3717 37.3252 15.3305 36.7995 15.3305C36.0332 15.3305 35.3397 15.4572 34.719 15.7105C34.0983 15.9575 33.5695 16.3153 33.1325 16.784C32.6955 17.2463 32.3598 17.81 32.1255 18.475C31.8912 19.1337 31.774 19.8747 31.774 20.698C31.774 21.553 31.8943 22.3193 32.135 22.997C32.382 23.6683 32.7303 24.2415 33.18 24.7165C33.636 25.1852 34.187 25.543 34.833 25.79C35.479 26.037 36.2042 26.1605 37.0085 26.1605C37.6418 26.1605 38.2023 26.0908 38.69 25.9515C39.184 25.8058 39.6653 25.6063 40.134 25.353V22.3605H38.0155C37.8952 22.3605 37.797 22.3257 37.721 22.256C37.6513 22.1863 37.6165 22.1008 37.6165 21.9995V20.9545H41.7965ZM49.8709 26.037C50.4346 26.037 50.9381 25.942 51.3814 25.752C51.8247 25.562 52.1984 25.296 52.5024 24.954C52.8127 24.612 53.0471 24.2035 53.2054 23.7285C53.3701 23.2535 53.4524 22.731 53.4524 22.161V13.8865H55.2859V22.161C55.2859 22.9463 55.1592 23.6747 54.9059 24.346C54.6589 25.0173 54.3011 25.6 53.8324 26.094C53.3701 26.5817 52.8032 26.9648 52.1319 27.2435C51.4606 27.5222 50.7069 27.6615 49.8709 27.6615C49.0349 27.6615 48.2812 27.5222 47.6099 27.2435C46.9386 26.9648 46.3686 26.5817 45.8999 26.094C45.4312 25.6 45.0702 25.0173 44.8169 24.346C44.5699 23.6747 44.4464 22.9463 44.4464 22.161V13.8865H46.2799V22.1515C46.2799 22.7215 46.3591 23.244 46.5174 23.719C46.6821 24.194 46.9164 24.6025 47.2204 24.9445C47.5307 25.2865 47.9076 25.5557 48.3509 25.752C48.8006 25.942 49.3072 26.037 49.8709 26.037ZM65.5032 22.446L63.3657 16.9075C63.3023 16.7428 63.2358 16.5528 63.1662 16.3375C63.0965 16.1158 63.03 15.8815 62.9667 15.6345C62.8337 16.1475 62.6975 16.575 62.5582 16.917L60.4207 22.446H65.5032ZM69.3412 27.5H67.9162C67.7515 27.5 67.6185 27.4588 67.5172 27.3765C67.4158 27.2942 67.3398 27.1897 67.2892 27.063L66.0162 23.776H59.9077L58.6347 27.063C58.5967 27.177 58.5238 27.2783 58.4162 27.367C58.3085 27.4557 58.1755 27.5 58.0172 27.5H56.5922L62.0357 13.8865H63.8977L69.3412 27.5ZM74.9036 20.4795C75.4356 20.4795 75.9042 20.4162 76.3096 20.2895C76.7212 20.1565 77.0632 19.9728 77.3356 19.7385C77.6142 19.4978 77.8232 19.2128 77.9626 18.8835C78.1019 18.5542 78.1716 18.19 78.1716 17.791C78.1716 16.9803 77.9056 16.3692 77.3736 15.9575C76.8416 15.5458 76.0436 15.34 74.9796 15.34H72.9656V20.4795H74.9036ZM81.1926 27.5H79.5586C79.2229 27.5 78.9759 27.3702 78.8176 27.1105L75.2836 22.2465C75.1759 22.0945 75.0587 21.9868 74.9321 21.9235C74.8117 21.8538 74.6217 21.819 74.3621 21.819H72.9656V27.5H71.1321V13.8865H74.9796C75.8409 13.8865 76.5851 13.9752 77.2121 14.1525C77.8391 14.3235 78.3552 14.5737 78.7606 14.903C79.1722 15.2323 79.4762 15.6313 79.6726 16.1C79.8689 16.5623 79.9671 17.0817 79.9671 17.658C79.9671 18.1393 79.8911 18.589 79.7391 19.007C79.5871 19.425 79.3654 19.8018 79.0741 20.1375C78.7891 20.4668 78.4376 20.7487 78.0196 20.983C77.6079 21.2173 77.1392 21.3947 76.6136 21.515C76.8479 21.648 77.0506 21.8412 77.2216 22.0945L81.1926 27.5ZM94.8432 20.698C94.8432 21.7177 94.6817 22.6455 94.3587 23.4815C94.0357 24.3175 93.5797 25.0332 92.9907 25.6285C92.4017 26.2238 91.6923 26.6862 90.8627 27.0155C90.0393 27.3385 89.1273 27.5 88.1267 27.5H83.0442V13.8865H88.1267C89.1273 13.8865 90.0393 14.0512 90.8627 14.3805C91.6923 14.7035 92.4017 15.1658 92.9907 15.7675C93.5797 16.3628 94.0357 17.0785 94.3587 17.9145C94.6817 18.7505 94.8432 19.6783 94.8432 20.698ZM92.9527 20.698C92.9527 19.862 92.8387 19.1147 92.6107 18.456C92.3827 17.7973 92.0597 17.24 91.6417 16.784C91.2237 16.328 90.717 15.9797 90.1217 15.739C89.5263 15.4983 88.8613 15.378 88.1267 15.378H84.8872V26.0085H88.1267C88.8613 26.0085 89.5263 25.8882 90.1217 25.6475C90.717 25.4068 91.2237 25.0617 91.6417 24.612C92.0597 24.156 92.3827 23.5987 92.6107 22.94C92.8387 22.2813 92.9527 21.534 92.9527 20.698ZM104.357 22.446L102.219 16.9075C102.156 16.7428 102.089 16.5528 102.02 16.3375C101.95 16.1158 101.884 15.8815 101.82 15.6345C101.687 16.1475 101.551 16.575 101.412 16.917L99.2742 22.446H104.357ZM108.195 27.5H106.77C106.605 27.5 106.472 27.4588 106.371 27.3765C106.269 27.2942 106.193 27.1897 106.143 27.063L104.87 23.776H98.7612L97.4882 27.063C97.4502 27.177 97.3773 27.2783 97.2697 27.367C97.162 27.4557 97.029 27.5 96.8707 27.5H95.4457L100.889 13.8865H102.751L108.195 27.5ZM113.757 20.4795C114.289 20.4795 114.758 20.4162 115.163 20.2895C115.575 20.1565 115.917 19.9728 116.189 19.7385C116.468 19.4978 116.677 19.2128 116.816 18.8835C116.955 18.5542 117.025 18.19 117.025 17.791C117.025 16.9803 116.759 16.3692 116.227 15.9575C115.695 15.5458 114.897 15.34 113.833 15.34H111.819V20.4795H113.757ZM120.046 27.5H118.412C118.076 27.5 117.829 27.3702 117.671 27.1105L114.137 22.2465C114.029 22.0945 113.912 21.9868 113.786 21.9235C113.665 21.8538 113.475 21.819 113.216 21.819H111.819V27.5H109.986V13.8865H113.833C114.694 13.8865 115.439 13.9752 116.066 14.1525C116.693 14.3235 117.209 14.5737 117.614 14.903C118.026 15.2323 118.33 15.6313 118.526 16.1C118.722 16.5623 118.821 17.0817 118.821 17.658C118.821 18.1393 118.745 18.589 118.593 19.007C118.441 19.425 118.219 19.8018 117.928 20.1375C117.643 20.4668 117.291 20.7487 116.873 20.983C116.461 21.2173 115.993 21.3947 115.467 21.515C115.701 21.648 115.904 21.8412 116.075 22.0945L120.046 27.5Z" fill="white"/>
<rect x="137" y="8" width="24" height="24" rx="12" fill="white"/>
<path fill-rule="evenodd" clip-rule="evenodd" d="M147 14L145.59 15.41L150.17 20L145.59 24.59L147 26L153 20L147 14Z" fill="#CE2F2F"/>
</svg>
