<svg width="280" height="48" viewBox="0 0 280 48" fill="none" xmlns="http://www.w3.org/2000/svg">
<rect width="280" height="48" rx="24" fill="#CE2F2F"/>
<path d="M89.5815 32H87.7385V18.3865H89.5815V32ZM94.1123 23.773C94.3213 23.5387 94.5429 23.3265 94.7773 23.1365C95.0116 22.9465 95.2586 22.785 95.5183 22.652C95.7843 22.5127 96.0629 22.4082 96.3543 22.3385C96.6519 22.2625 96.9718 22.2245 97.3138 22.2245C97.8394 22.2245 98.3018 22.3132 98.7008 22.4905C99.1061 22.6615 99.4418 22.9085 99.7078 23.2315C99.9801 23.5482 100.186 23.9313 100.325 24.381C100.465 24.8307 100.534 25.3278 100.534 25.8725V32H98.8338V25.8725C98.8338 25.1442 98.6659 24.5805 98.3303 24.1815C98.0009 23.7762 97.4974 23.5735 96.8198 23.5735C96.3194 23.5735 95.8508 23.6938 95.4138 23.9345C94.9831 24.1752 94.5841 24.5013 94.2168 24.913V32H92.5163V22.3765H93.5328C93.7734 22.3765 93.9223 22.4937 93.9793 22.728L94.1123 23.773ZM104.897 22.3765V32H103.206V22.3765H104.897ZM105.258 19.3555C105.258 19.5202 105.223 19.6753 105.153 19.821C105.09 19.9603 105.001 20.087 104.887 20.201C104.78 20.3087 104.65 20.3942 104.498 20.4575C104.352 20.5208 104.197 20.5525 104.032 20.5525C103.868 20.5525 103.713 20.5208 103.567 20.4575C103.428 20.3942 103.304 20.3087 103.196 20.201C103.089 20.087 103.003 19.9603 102.94 19.821C102.877 19.6753 102.845 19.5202 102.845 19.3555C102.845 19.1908 102.877 19.0357 102.94 18.89C103.003 18.738 103.089 18.6082 103.196 18.5005C103.304 18.3865 103.428 18.2978 103.567 18.2345C103.713 18.1712 103.868 18.1395 104.032 18.1395C104.197 18.1395 104.352 18.1712 104.498 18.2345C104.65 18.2978 104.78 18.3865 104.887 18.5005C105.001 18.6082 105.09 18.738 105.153 18.89C105.223 19.0357 105.258 19.1908 105.258 19.3555ZM114.373 24.0865C114.322 24.1562 114.272 24.21 114.221 24.248C114.17 24.286 114.101 24.305 114.012 24.305C113.917 24.305 113.812 24.267 113.698 24.191C113.584 24.1087 113.442 24.02 113.271 23.925C113.106 23.83 112.9 23.7445 112.653 23.6685C112.413 23.5862 112.115 23.545 111.76 23.545C111.285 23.545 110.867 23.6305 110.506 23.8015C110.145 23.9662 109.841 24.2068 109.594 24.5235C109.354 24.8402 109.17 25.2233 109.043 25.673C108.923 26.1227 108.863 26.6262 108.863 27.1835C108.863 27.7662 108.929 28.2855 109.062 28.7415C109.195 29.1912 109.382 29.5712 109.623 29.8815C109.87 30.1855 110.164 30.4198 110.506 30.5845C110.855 30.7428 111.244 30.822 111.675 30.822C112.087 30.822 112.425 30.7745 112.691 30.6795C112.957 30.5782 113.176 30.4673 113.347 30.347C113.524 30.2267 113.67 30.119 113.784 30.024C113.904 29.9227 114.021 29.872 114.135 29.872C114.275 29.872 114.382 29.9258 114.458 30.0335L114.933 30.651C114.724 30.9107 114.487 31.1323 114.221 31.316C113.955 31.4997 113.667 31.6548 113.356 31.7815C113.052 31.9018 112.733 31.9905 112.397 32.0475C112.061 32.1045 111.719 32.133 111.371 32.133C110.769 32.133 110.209 32.0222 109.689 31.8005C109.176 31.5788 108.73 31.259 108.35 30.841C107.97 30.4167 107.672 29.8973 107.457 29.283C107.242 28.6687 107.134 27.9688 107.134 27.1835C107.134 26.4678 107.232 25.806 107.428 25.198C107.631 24.59 107.922 24.0675 108.302 23.6305C108.689 23.1872 109.161 22.842 109.718 22.595C110.282 22.348 110.928 22.2245 111.656 22.2245C112.334 22.2245 112.929 22.3353 113.442 22.557C113.961 22.7723 114.42 23.0795 114.819 23.4785L114.373 24.0865ZM118.535 22.3765V32H116.844V22.3765H118.535ZM118.896 19.3555C118.896 19.5202 118.861 19.6753 118.791 19.821C118.728 19.9603 118.639 20.087 118.525 20.201C118.418 20.3087 118.288 20.3942 118.136 20.4575C117.99 20.5208 117.835 20.5525 117.67 20.5525C117.506 20.5525 117.35 20.5208 117.205 20.4575C117.065 20.3942 116.942 20.3087 116.834 20.201C116.727 20.087 116.641 19.9603 116.578 19.821C116.514 19.6753 116.483 19.5202 116.483 19.3555C116.483 19.1908 116.514 19.0357 116.578 18.89C116.641 18.738 116.727 18.6082 116.834 18.5005C116.942 18.3865 117.065 18.2978 117.205 18.2345C117.35 18.1712 117.506 18.1395 117.67 18.1395C117.835 18.1395 117.99 18.1712 118.136 18.2345C118.288 18.2978 118.418 18.3865 118.525 18.5005C118.639 18.6082 118.728 18.738 118.791 18.89C118.861 19.0357 118.896 19.1908 118.896 19.3555ZM126.529 27.668C125.75 27.6933 125.085 27.7567 124.534 27.858C123.989 27.953 123.542 28.0797 123.194 28.238C122.852 28.3963 122.602 28.5832 122.444 28.7985C122.292 29.0138 122.216 29.2545 122.216 29.5205C122.216 29.7738 122.257 29.9923 122.339 30.176C122.421 30.3597 122.532 30.5117 122.672 30.632C122.817 30.746 122.985 30.8315 123.175 30.8885C123.371 30.9392 123.58 30.9645 123.802 30.9645C124.1 30.9645 124.372 30.936 124.619 30.879C124.866 30.8157 125.097 30.727 125.313 30.613C125.534 30.499 125.743 30.3628 125.94 30.2045C126.142 30.0462 126.339 29.8657 126.529 29.663V27.668ZM121.066 23.735C121.598 23.222 122.171 22.8388 122.786 22.5855C123.4 22.3322 124.081 22.2055 124.828 22.2055C125.366 22.2055 125.845 22.2942 126.263 22.4715C126.681 22.6488 127.032 22.8958 127.317 23.2125C127.602 23.5292 127.817 23.9123 127.963 24.362C128.109 24.8117 128.182 25.3057 128.182 25.844V32H127.431C127.266 32 127.14 31.9747 127.051 31.924C126.962 31.867 126.893 31.7593 126.842 31.601L126.652 30.689C126.399 30.9233 126.152 31.1323 125.911 31.316C125.67 31.4933 125.417 31.6453 125.151 31.772C124.885 31.8923 124.6 31.9842 124.296 32.0475C123.998 32.1172 123.666 32.152 123.299 32.152C122.925 32.152 122.573 32.1013 122.244 32C121.915 31.8923 121.627 31.734 121.38 31.525C121.139 31.316 120.946 31.0532 120.8 30.7365C120.661 30.4135 120.591 30.0335 120.591 29.5965C120.591 29.2165 120.696 28.8523 120.905 28.504C121.114 28.1493 121.452 27.8358 121.921 27.5635C122.39 27.2912 123.001 27.0695 123.755 26.8985C124.508 26.7212 125.433 26.6198 126.529 26.5945V25.844C126.529 25.0967 126.367 24.533 126.044 24.153C125.721 23.7667 125.249 23.5735 124.629 23.5735C124.211 23.5735 123.859 23.6273 123.574 23.735C123.295 23.8363 123.052 23.9535 122.843 24.0865C122.64 24.2132 122.463 24.3303 122.311 24.438C122.165 24.5393 122.019 24.59 121.874 24.59C121.76 24.59 121.661 24.5615 121.579 24.5045C121.497 24.4412 121.427 24.3652 121.37 24.2765L121.066 23.735ZM141.224 23.963C141.148 24.1023 141.031 24.172 140.872 24.172C140.777 24.172 140.67 24.1372 140.549 24.0675C140.429 23.9978 140.28 23.9218 140.103 23.8395C139.932 23.7508 139.726 23.6717 139.485 23.602C139.245 23.526 138.96 23.488 138.63 23.488C138.345 23.488 138.089 23.526 137.861 23.602C137.633 23.6717 137.436 23.7698 137.272 23.8965C137.113 24.0232 136.99 24.172 136.901 24.343C136.819 24.5077 136.778 24.6882 136.778 24.8845C136.778 25.1315 136.847 25.3373 136.987 25.502C137.132 25.6667 137.322 25.8092 137.557 25.9295C137.791 26.0498 138.057 26.1575 138.355 26.2525C138.652 26.3412 138.956 26.4393 139.267 26.547C139.583 26.6483 139.891 26.7623 140.188 26.889C140.486 27.0157 140.752 27.174 140.986 27.364C141.221 27.554 141.407 27.7883 141.547 28.067C141.692 28.3393 141.765 28.6687 141.765 29.055C141.765 29.4983 141.686 29.91 141.528 30.29C141.369 30.6637 141.135 30.9898 140.825 31.2685C140.514 31.5408 140.134 31.7562 139.685 31.9145C139.235 32.0728 138.716 32.152 138.127 32.152C137.455 32.152 136.847 32.0443 136.303 31.829C135.758 31.6073 135.296 31.3255 134.916 30.9835L135.315 30.3375C135.365 30.2552 135.426 30.1918 135.495 30.1475C135.565 30.1032 135.654 30.081 135.761 30.081C135.875 30.081 135.996 30.1253 136.122 30.214C136.249 30.3027 136.401 30.4008 136.578 30.5085C136.762 30.6162 136.984 30.7143 137.243 30.803C137.503 30.8917 137.826 30.936 138.212 30.936C138.542 30.936 138.83 30.8948 139.077 30.8125C139.324 30.7238 139.53 30.6067 139.694 30.461C139.859 30.3153 139.979 30.1475 140.055 29.9575C140.138 29.7675 140.179 29.5648 140.179 29.3495C140.179 29.0835 140.106 28.865 139.96 28.694C139.821 28.5167 139.634 28.3678 139.4 28.2475C139.165 28.1208 138.896 28.0132 138.592 27.9245C138.295 27.8295 137.987 27.7313 137.671 27.63C137.36 27.5287 137.053 27.4147 136.749 27.288C136.452 27.155 136.186 26.9903 135.951 26.794C135.717 26.5977 135.527 26.357 135.381 26.072C135.242 25.7807 135.172 25.4292 135.172 25.0175C135.172 24.6502 135.248 24.2987 135.4 23.963C135.552 23.621 135.774 23.3233 136.065 23.07C136.357 22.8103 136.714 22.6045 137.139 22.4525C137.563 22.3005 138.048 22.2245 138.592 22.2245C139.226 22.2245 139.792 22.3258 140.293 22.5285C140.799 22.7248 141.236 22.9972 141.604 23.3455L141.224 23.963ZM150.28 26.1385C150.28 25.7458 150.223 25.388 150.109 25.065C150.001 24.7357 149.839 24.4538 149.624 24.2195C149.415 23.9788 149.159 23.7952 148.855 23.6685C148.551 23.5355 148.205 23.469 147.819 23.469C147.008 23.469 146.366 23.7065 145.891 24.1815C145.422 24.6502 145.131 25.3025 145.017 26.1385H150.28ZM151.648 30.651C151.439 30.9043 151.188 31.126 150.897 31.316C150.606 31.4997 150.292 31.6517 149.957 31.772C149.627 31.8923 149.285 31.981 148.931 32.038C148.576 32.1013 148.224 32.133 147.876 32.133C147.211 32.133 146.597 32.0222 146.033 31.8005C145.476 31.5725 144.991 31.2432 144.58 30.8125C144.174 30.3755 143.858 29.8372 143.63 29.1975C143.402 28.5578 143.288 27.8232 143.288 26.9935C143.288 26.3222 143.389 25.6952 143.592 25.1125C143.801 24.5298 144.098 24.0263 144.485 23.602C144.871 23.1713 145.343 22.8357 145.9 22.595C146.457 22.348 147.084 22.2245 147.781 22.2245C148.357 22.2245 148.889 22.3227 149.377 22.519C149.871 22.709 150.295 22.9877 150.65 23.355C151.011 23.716 151.293 24.1657 151.496 24.704C151.698 25.236 151.8 25.844 151.8 26.528C151.8 26.794 151.771 26.9713 151.714 27.06C151.657 27.1487 151.549 27.193 151.391 27.193H144.96C144.979 27.801 145.061 28.3298 145.207 28.7795C145.359 29.2292 145.568 29.606 145.834 29.91C146.1 30.2077 146.416 30.4325 146.784 30.5845C147.151 30.7302 147.563 30.803 148.019 30.803C148.443 30.803 148.807 30.7555 149.111 30.6605C149.421 30.5592 149.687 30.4515 149.909 30.3375C150.131 30.2235 150.314 30.119 150.46 30.024C150.612 29.9227 150.742 29.872 150.85 29.872C150.989 29.872 151.097 29.9258 151.173 30.0335L151.648 30.651ZM159.482 23.963C159.406 24.1023 159.288 24.172 159.13 24.172C159.035 24.172 158.927 24.1372 158.807 24.0675C158.687 23.9978 158.538 23.9218 158.361 23.8395C158.19 23.7508 157.984 23.6717 157.743 23.602C157.502 23.526 157.217 23.488 156.888 23.488C156.603 23.488 156.347 23.526 156.119 23.602C155.891 23.6717 155.694 23.7698 155.53 23.8965C155.371 24.0232 155.248 24.172 155.159 24.343C155.077 24.5077 155.036 24.6882 155.036 24.8845C155.036 25.1315 155.105 25.3373 155.245 25.502C155.39 25.6667 155.58 25.8092 155.815 25.9295C156.049 26.0498 156.315 26.1575 156.613 26.2525C156.91 26.3412 157.214 26.4393 157.525 26.547C157.841 26.6483 158.148 26.7623 158.446 26.889C158.744 27.0157 159.01 27.174 159.244 27.364C159.478 27.554 159.665 27.7883 159.805 28.067C159.95 28.3393 160.023 28.6687 160.023 29.055C160.023 29.4983 159.944 29.91 159.786 30.29C159.627 30.6637 159.393 30.9898 159.083 31.2685C158.772 31.5408 158.392 31.7562 157.943 31.9145C157.493 32.0728 156.974 32.152 156.385 32.152C155.713 32.152 155.105 32.0443 154.561 31.829C154.016 31.6073 153.554 31.3255 153.174 30.9835L153.573 30.3375C153.623 30.2552 153.683 30.1918 153.753 30.1475C153.823 30.1032 153.911 30.081 154.019 30.081C154.133 30.081 154.253 30.1253 154.38 30.214C154.507 30.3027 154.659 30.4008 154.836 30.5085C155.02 30.6162 155.241 30.7143 155.501 30.803C155.761 30.8917 156.084 30.936 156.47 30.936C156.799 30.936 157.088 30.8948 157.335 30.8125C157.582 30.7238 157.787 30.6067 157.952 30.461C158.117 30.3153 158.237 30.1475 158.313 29.9575C158.395 29.7675 158.437 29.5648 158.437 29.3495C158.437 29.0835 158.364 28.865 158.218 28.694C158.079 28.5167 157.892 28.3678 157.658 28.2475C157.423 28.1208 157.154 28.0132 156.85 27.9245C156.552 27.8295 156.245 27.7313 155.929 27.63C155.618 27.5287 155.311 27.4147 155.007 27.288C154.709 27.155 154.443 26.9903 154.209 26.794C153.975 26.5977 153.785 26.357 153.639 26.072C153.5 25.7807 153.43 25.4292 153.43 25.0175C153.43 24.6502 153.506 24.2987 153.658 23.963C153.81 23.621 154.032 23.3233 154.323 23.07C154.614 22.8103 154.972 22.6045 155.397 22.4525C155.821 22.3005 156.305 22.2245 156.85 22.2245C157.483 22.2245 158.05 22.3258 158.551 22.5285C159.057 22.7248 159.494 22.9972 159.862 23.3455L159.482 23.963ZM163.882 22.3765V32H162.191V22.3765H163.882ZM164.243 19.3555C164.243 19.5202 164.209 19.6753 164.139 19.821C164.076 19.9603 163.987 20.087 163.873 20.201C163.765 20.3087 163.635 20.3942 163.483 20.4575C163.338 20.5208 163.183 20.5525 163.018 20.5525C162.853 20.5525 162.698 20.5208 162.552 20.4575C162.413 20.3942 162.29 20.3087 162.182 20.201C162.074 20.087 161.989 19.9603 161.925 19.821C161.862 19.6753 161.83 19.5202 161.83 19.3555C161.83 19.1908 161.862 19.0357 161.925 18.89C161.989 18.738 162.074 18.6082 162.182 18.5005C162.29 18.3865 162.413 18.2978 162.552 18.2345C162.698 18.1712 162.853 18.1395 163.018 18.1395C163.183 18.1395 163.338 18.1712 163.483 18.2345C163.635 18.2978 163.765 18.3865 163.873 18.5005C163.987 18.6082 164.076 18.738 164.139 18.89C164.209 19.0357 164.243 19.1908 164.243 19.3555ZM170.717 22.2245C171.42 22.2245 172.054 22.3417 172.617 22.576C173.181 22.8103 173.662 23.1428 174.061 23.5735C174.46 24.0042 174.764 24.5267 174.973 25.141C175.189 25.749 175.296 26.4298 175.296 27.1835C175.296 27.9435 175.189 28.6275 174.973 29.2355C174.764 29.8435 174.46 30.3628 174.061 30.7935C173.662 31.2242 173.181 31.5567 172.617 31.791C172.054 32.019 171.42 32.133 170.717 32.133C170.008 32.133 169.368 32.019 168.798 31.791C168.235 31.5567 167.753 31.2242 167.354 30.7935C166.955 30.3628 166.648 29.8435 166.433 29.2355C166.224 28.6275 166.119 27.9435 166.119 27.1835C166.119 26.4298 166.224 25.749 166.433 25.141C166.648 24.5267 166.955 24.0042 167.354 23.5735C167.753 23.1428 168.235 22.8103 168.798 22.576C169.368 22.3417 170.008 22.2245 170.717 22.2245ZM170.717 30.8125C171.667 30.8125 172.377 30.4958 172.845 29.8625C173.314 29.2228 173.548 28.333 173.548 27.193C173.548 26.0467 173.314 25.1537 172.845 24.514C172.377 23.8743 171.667 23.5545 170.717 23.5545C170.236 23.5545 169.815 23.6368 169.454 23.8015C169.099 23.9662 168.801 24.2037 168.561 24.514C168.326 24.8243 168.149 25.2075 168.029 25.6635C167.915 26.1132 167.858 26.623 167.858 27.193C167.858 28.333 168.092 29.2228 168.561 29.8625C169.036 30.4958 169.755 30.8125 170.717 30.8125ZM173.491 18.2345L171.278 20.6855C171.189 20.7805 171.1 20.8502 171.012 20.8945C170.929 20.9325 170.822 20.9515 170.689 20.9515H169.682L171.088 18.6525C171.176 18.5068 171.271 18.4023 171.373 18.339C171.48 18.2693 171.636 18.2345 171.838 18.2345H173.491ZM179.037 23.773C179.246 23.5387 179.468 23.3265 179.702 23.1365C179.936 22.9465 180.183 22.785 180.443 22.652C180.709 22.5127 180.988 22.4082 181.279 22.3385C181.577 22.2625 181.897 22.2245 182.239 22.2245C182.764 22.2245 183.227 22.3132 183.626 22.4905C184.031 22.6615 184.367 22.9085 184.633 23.2315C184.905 23.5482 185.111 23.9313 185.25 24.381C185.389 24.8307 185.459 25.3278 185.459 25.8725V32H183.759V25.8725C183.759 25.1442 183.591 24.5805 183.255 24.1815C182.926 23.7762 182.422 23.5735 181.745 23.5735C181.244 23.5735 180.776 23.6938 180.339 23.9345C179.908 24.1752 179.509 24.5013 179.142 24.913V32H177.441V22.3765H178.458C178.698 22.3765 178.847 22.4937 178.904 22.728L179.037 23.773Z" fill="#FCFFF8"/>
</svg>
