<svg width="48" height="15" viewBox="0 0 48 15" fill="none" xmlns="http://www.w3.org/2000/svg">
<path d="M8.702 2.5145C8.645 2.6095 8.58167 2.68233 8.512 2.733C8.44867 2.77733 8.3695 2.7995 8.2745 2.7995C8.16683 2.7995 8.04017 2.74567 7.8945 2.638C7.74883 2.53033 7.56517 2.41317 7.3435 2.2865C7.12817 2.1535 6.86533 2.03317 6.555 1.9255C6.251 1.81783 5.8805 1.764 5.4435 1.764C5.03183 1.764 4.66767 1.821 4.351 1.935C4.04067 2.04267 3.77783 2.1915 3.5625 2.3815C3.3535 2.5715 3.19517 2.79633 3.0875 3.056C2.97983 3.30933 2.926 3.58483 2.926 3.8825C2.926 4.2625 3.01783 4.57917 3.2015 4.8325C3.3915 5.0795 3.6385 5.29167 3.9425 5.469C4.25283 5.64633 4.60117 5.8015 4.9875 5.9345C5.38017 6.06117 5.77917 6.19417 6.1845 6.3335C6.59617 6.47283 6.99517 6.63117 7.3815 6.8085C7.77417 6.9795 8.1225 7.198 8.4265 7.464C8.73683 7.73 8.98383 8.05617 9.1675 8.4425C9.3575 8.82883 9.4525 9.30383 9.4525 9.8675C9.4525 10.4628 9.35117 11.0233 9.1485 11.549C8.94583 12.0683 8.64817 12.5212 8.2555 12.9075C7.86917 13.2938 7.391 13.5978 6.821 13.8195C6.25733 14.0412 5.6145 14.152 4.8925 14.152C4.00583 14.152 3.2015 13.9937 2.4795 13.677C1.7575 13.354 1.14 12.9202 0.627 12.3755L1.159 11.5015C1.20967 11.4318 1.26983 11.3748 1.3395 11.3305C1.4155 11.2798 1.49783 11.2545 1.5865 11.2545C1.66883 11.2545 1.76067 11.2893 1.862 11.359C1.96967 11.4223 2.09 11.5047 2.223 11.606C2.356 11.7073 2.508 11.8182 2.679 11.9385C2.85 12.0588 3.04317 12.1697 3.2585 12.271C3.48017 12.3723 3.73033 12.4578 4.009 12.5275C4.28767 12.5908 4.60117 12.6225 4.9495 12.6225C5.3865 12.6225 5.776 12.5623 6.118 12.442C6.46 12.3217 6.74817 12.1538 6.9825 11.9385C7.22317 11.7168 7.40683 11.454 7.5335 11.15C7.66017 10.846 7.7235 10.5072 7.7235 10.1335C7.7235 9.72183 7.6285 9.38617 7.4385 9.1265C7.25483 8.8605 7.011 8.63883 6.707 8.4615C6.403 8.28417 6.05467 8.13533 5.662 8.015C5.26933 7.88833 4.87033 7.76167 4.465 7.635C4.05967 7.502 3.66067 7.35 3.268 7.179C2.87533 7.008 2.527 6.78633 2.223 6.514C1.919 6.24167 1.672 5.90283 1.482 5.4975C1.29833 5.08583 1.2065 4.57917 1.2065 3.9775C1.2065 3.49617 1.29833 3.03067 1.482 2.581C1.672 2.13133 1.94433 1.73233 2.299 1.384C2.66 1.03567 3.10017 0.757 3.6195 0.548C4.14517 0.338999 4.74683 0.234499 5.4245 0.234499C6.1845 0.234499 6.87483 0.354833 7.4955 0.5955C8.1225 0.836166 8.6735 1.1845 9.1485 1.6405L8.702 2.5145ZM16.7415 9.668C15.9625 9.69333 15.2975 9.75667 14.7465 9.858C14.2019 9.953 13.7554 10.0797 13.407 10.238C13.065 10.3963 12.8149 10.5832 12.6565 10.7985C12.5045 11.0138 12.4285 11.2545 12.4285 11.5205C12.4285 11.7738 12.4697 11.9923 12.552 12.176C12.6344 12.3597 12.7452 12.5117 12.8845 12.632C13.0302 12.746 13.198 12.8315 13.388 12.8885C13.5844 12.9392 13.7934 12.9645 14.015 12.9645C14.3127 12.9645 14.585 12.936 14.832 12.879C15.079 12.8157 15.3102 12.727 15.5255 12.613C15.7472 12.499 15.9562 12.3628 16.1525 12.2045C16.3552 12.0462 16.5515 11.8657 16.7415 11.663V9.668ZM11.279 5.735C11.811 5.222 12.3842 4.83883 12.9985 4.5855C13.6129 4.33217 14.2937 4.2055 15.041 4.2055C15.5794 4.2055 16.0575 4.29417 16.4755 4.4715C16.8935 4.64883 17.245 4.89583 17.53 5.2125C17.815 5.52917 18.0304 5.91233 18.176 6.362C18.3217 6.81167 18.3945 7.30567 18.3945 7.844V14H17.644C17.4794 14 17.3527 13.9747 17.264 13.924C17.1754 13.867 17.1057 13.7593 17.055 13.601L16.865 12.689C16.6117 12.9233 16.3647 13.1323 16.124 13.316C15.8834 13.4933 15.63 13.6453 15.364 13.772C15.098 13.8923 14.813 13.9842 14.509 14.0475C14.2114 14.1172 13.8789 14.152 13.5115 14.152C13.1379 14.152 12.7864 14.1013 12.457 14C12.1277 13.8923 11.8395 13.734 11.5925 13.525C11.3519 13.316 11.1587 13.0532 11.013 12.7365C10.8737 12.4135 10.804 12.0335 10.804 11.5965C10.804 11.2165 10.9085 10.8523 11.1175 10.504C11.3265 10.1493 11.6654 9.83583 12.134 9.5635C12.6027 9.29117 13.2139 9.0695 13.9675 8.8985C14.7212 8.72117 15.6459 8.61983 16.7415 8.5945V7.844C16.7415 7.09667 16.58 6.533 16.257 6.153C15.934 5.76667 15.4622 5.5735 14.8415 5.5735C14.4235 5.5735 14.072 5.62733 13.787 5.735C13.5084 5.83633 13.2645 5.9535 13.0555 6.0865C12.8529 6.21317 12.6755 6.33033 12.5235 6.438C12.3779 6.53933 12.2322 6.59 12.0865 6.59C11.9725 6.59 11.8744 6.5615 11.792 6.5045C11.7097 6.44117 11.64 6.36517 11.583 6.2765L11.279 5.735ZM22.7184 0.00649953V14H21.0274V0.00649953H22.7184ZM28.4151 14.152C27.6551 14.152 27.0693 13.9398 26.6576 13.5155C26.2523 13.0912 26.0496 12.48 26.0496 11.682V5.792H24.8906C24.7893 5.792 24.7038 5.7635 24.6341 5.7065C24.5644 5.64317 24.5296 5.54817 24.5296 5.4215V4.747L26.1066 4.5475L26.4961 1.574C26.5151 1.479 26.5563 1.403 26.6196 1.346C26.6893 1.28267 26.7779 1.251 26.8856 1.251H27.7406V4.5665H30.5241V5.792H27.7406V11.568C27.7406 11.9733 27.8388 12.2742 28.0351 12.4705C28.2314 12.6668 28.4848 12.765 28.7951 12.765C28.9724 12.765 29.1244 12.7428 29.2511 12.6985C29.3841 12.6478 29.4981 12.594 29.5931 12.537C29.6881 12.48 29.7673 12.4293 29.8306 12.385C29.9003 12.3343 29.9604 12.309 30.0111 12.309C30.0998 12.309 30.1789 12.3628 30.2486 12.4705L30.7426 13.278C30.4513 13.5503 30.0998 13.7657 29.6881 13.924C29.2764 14.076 28.8521 14.152 28.4151 14.152ZM37.4857 9.668C36.7067 9.69333 36.0417 9.75667 35.4907 9.858C34.946 9.953 34.4995 10.0797 34.1512 10.238C33.8092 10.3963 33.559 10.5832 33.4007 10.7985C33.2487 11.0138 33.1727 11.2545 33.1727 11.5205C33.1727 11.7738 33.2138 11.9923 33.2962 12.176C33.3785 12.3597 33.4893 12.5117 33.6287 12.632C33.7743 12.746 33.9422 12.8315 34.1322 12.8885C34.3285 12.9392 34.5375 12.9645 34.7592 12.9645C35.0568 12.9645 35.3292 12.936 35.5762 12.879C35.8232 12.8157 36.0543 12.727 36.2697 12.613C36.4913 12.499 36.7003 12.3628 36.8967 12.2045C37.0993 12.0462 37.2957 11.8657 37.4857 11.663V9.668ZM32.0232 5.735C32.5552 5.222 33.1283 4.83883 33.7427 4.5855C34.357 4.33217 35.0378 4.2055 35.7852 4.2055C36.3235 4.2055 36.8017 4.29417 37.2197 4.4715C37.6377 4.64883 37.9892 4.89583 38.2742 5.2125C38.5592 5.52917 38.7745 5.91233 38.9202 6.362C39.0658 6.81167 39.1387 7.30567 39.1387 7.844V14H38.3882C38.2235 14 38.0968 13.9747 38.0082 13.924C37.9195 13.867 37.8498 13.7593 37.7992 13.601L37.6092 12.689C37.3558 12.9233 37.1088 13.1323 36.8682 13.316C36.6275 13.4933 36.3742 13.6453 36.1082 13.772C35.8422 13.8923 35.5572 13.9842 35.2532 14.0475C34.9555 14.1172 34.623 14.152 34.2557 14.152C33.882 14.152 33.5305 14.1013 33.2012 14C32.8718 13.8923 32.5837 13.734 32.3367 13.525C32.096 13.316 31.9028 13.0532 31.7572 12.7365C31.6178 12.4135 31.5482 12.0335 31.5482 11.5965C31.5482 11.2165 31.6527 10.8523 31.8617 10.504C32.0707 10.1493 32.4095 9.83583 32.8782 9.5635C33.3468 9.29117 33.958 9.0695 34.7117 8.8985C35.4653 8.72117 36.39 8.61983 37.4857 8.5945V7.844C37.4857 7.09667 37.3242 6.533 37.0012 6.153C36.6782 5.76667 36.2063 5.5735 35.5857 5.5735C35.1677 5.5735 34.8162 5.62733 34.5312 5.735C34.2525 5.83633 34.0087 5.9535 33.7997 6.0865C33.597 6.21317 33.4197 6.33033 33.2677 6.438C33.122 6.53933 32.9763 6.59 32.8307 6.59C32.7167 6.59 32.6185 6.5615 32.5362 6.5045C32.4538 6.44117 32.3842 6.36517 32.3272 6.2765L32.0232 5.735ZM43.32 6.305C43.624 5.64633 43.9977 5.13333 44.441 4.766C44.8843 4.39233 45.4258 4.2055 46.0655 4.2055C46.2682 4.2055 46.4613 4.22767 46.645 4.272C46.835 4.31633 47.0028 4.386 47.1485 4.481L47.025 5.7445C46.987 5.90283 46.892 5.982 46.74 5.982C46.6513 5.982 46.5215 5.963 46.3505 5.925C46.1795 5.887 45.9863 5.868 45.771 5.868C45.467 5.868 45.1947 5.91233 44.954 6.001C44.7197 6.08967 44.5075 6.22267 44.3175 6.4C44.1338 6.571 43.966 6.78633 43.814 7.046C43.6683 7.29933 43.5353 7.59067 43.415 7.92V14H41.7145V4.3765H42.6835C42.8672 4.3765 42.9938 4.41133 43.0635 4.481C43.1332 4.55067 43.1807 4.671 43.206 4.842L43.32 6.305Z" fill="black"/>
</svg>
