<svg width="86" height="23" viewBox="0 0 86 23" fill="none" xmlns="http://www.w3.org/2000/svg">
<path d="M44.806 5.3865L39.258 19H37.605L32.057 5.3865H33.5295C33.6942 5.3865 33.8272 5.42767 33.9285 5.51C34.0298 5.59233 34.1058 5.69683 34.1565 5.8235L37.9945 15.428C38.0768 15.6433 38.156 15.8777 38.232 16.131C38.3143 16.3843 38.3872 16.6503 38.4505 16.929C38.5138 16.6503 38.5803 16.3843 38.65 16.131C38.7197 15.8777 38.7957 15.6433 38.878 15.428L42.7065 5.8235C42.7445 5.71583 42.8173 5.61767 42.925 5.529C43.039 5.434 43.1752 5.3865 43.3335 5.3865H44.806ZM48.8257 9.2245C49.5287 9.2245 50.162 9.34167 50.7257 9.576C51.2894 9.81033 51.7707 10.1428 52.1697 10.5735C52.5687 11.0042 52.8727 11.5267 53.0817 12.141C53.297 12.749 53.4047 13.4298 53.4047 14.1835C53.4047 14.9435 53.297 15.6275 53.0817 16.2355C52.8727 16.8435 52.5687 17.3628 52.1697 17.7935C51.7707 18.2242 51.2894 18.5567 50.7257 18.791C50.162 19.019 49.5287 19.133 48.8257 19.133C48.1164 19.133 47.4767 19.019 46.9067 18.791C46.343 18.5567 45.8617 18.2242 45.4627 17.7935C45.0637 17.3628 44.7565 16.8435 44.5412 16.2355C44.3322 15.6275 44.2277 14.9435 44.2277 14.1835C44.2277 13.4298 44.3322 12.749 44.5412 12.141C44.7565 11.5267 45.0637 11.0042 45.4627 10.5735C45.8617 10.1428 46.343 9.81033 46.9067 9.576C47.4767 9.34167 48.1164 9.2245 48.8257 9.2245ZM48.8257 17.8125C49.7757 17.8125 50.485 17.4958 50.9537 16.8625C51.4224 16.2228 51.6567 15.333 51.6567 14.193C51.6567 13.0467 51.4224 12.1537 50.9537 11.514C50.485 10.8743 49.7757 10.5545 48.8257 10.5545C48.3444 10.5545 47.9232 10.6368 47.5622 10.8015C47.2075 10.9662 46.9099 11.2037 46.6692 11.514C46.4349 11.8243 46.2575 12.2075 46.1372 12.6635C46.0232 13.1132 45.9662 13.623 45.9662 14.193C45.9662 15.333 46.2005 16.2228 46.6692 16.8625C47.1442 17.4958 47.863 17.8125 48.8257 17.8125ZM57.2975 5.0065V19H55.6065V5.0065H57.2975ZM68.2857 9.3765L64.3622 19H62.8422L58.9187 9.3765H60.2962C60.4355 9.3765 60.5495 9.41133 60.6382 9.481C60.7269 9.55067 60.787 9.633 60.8187 9.728L63.2602 15.922C63.3362 16.1563 63.4027 16.3843 63.4597 16.606C63.5167 16.8277 63.5705 17.0493 63.6212 17.271C63.6719 17.0493 63.7257 16.8277 63.7827 16.606C63.8397 16.3843 63.9094 16.1563 63.9917 15.922L66.4617 9.728C66.4997 9.62667 66.563 9.54433 66.6517 9.481C66.7404 9.41133 66.8449 9.3765 66.9652 9.3765H68.2857ZM76.0178 13.1385C76.0178 12.7458 75.9608 12.388 75.8468 12.065C75.7391 11.7357 75.5776 11.4538 75.3623 11.2195C75.1533 10.9788 74.8968 10.7952 74.5928 10.6685C74.2888 10.5355 73.9436 10.469 73.5573 10.469C72.7466 10.469 72.1038 10.7065 71.6288 11.1815C71.1601 11.6502 70.8688 12.3025 70.7548 13.1385H76.0178ZM77.3858 17.651C77.1768 17.9043 76.9266 18.126 76.6353 18.316C76.344 18.4997 76.0305 18.6517 75.6948 18.772C75.3655 18.8923 75.0235 18.981 74.6688 19.038C74.3141 19.1013 73.9626 19.133 73.6143 19.133C72.9493 19.133 72.335 19.0222 71.7713 18.8005C71.214 18.5725 70.7295 18.2432 70.3178 17.8125C69.9125 17.3755 69.5958 16.8372 69.3678 16.1975C69.1398 15.5578 69.0258 14.8232 69.0258 13.9935C69.0258 13.3222 69.1271 12.6952 69.3298 12.1125C69.5388 11.5298 69.8365 11.0263 70.2228 10.602C70.6091 10.1713 71.081 9.83567 71.6383 9.595C72.1956 9.348 72.8226 9.2245 73.5193 9.2245C74.0956 9.2245 74.6276 9.32267 75.1153 9.519C75.6093 9.709 76.0336 9.98767 76.3883 10.355C76.7493 10.716 77.0311 11.1657 77.2338 11.704C77.4365 12.236 77.5378 12.844 77.5378 13.528C77.5378 13.794 77.5093 13.9713 77.4523 14.06C77.3953 14.1487 77.2876 14.193 77.1293 14.193H70.6978C70.7168 14.801 70.7991 15.3298 70.9448 15.7795C71.0968 16.2292 71.3058 16.606 71.5718 16.91C71.8378 17.2077 72.1545 17.4325 72.5218 17.5845C72.8891 17.7302 73.3008 17.803 73.7568 17.803C74.1811 17.803 74.5453 17.7555 74.8493 17.6605C75.1596 17.5592 75.4256 17.4515 75.6473 17.3375C75.869 17.2235 76.0526 17.119 76.1983 17.024C76.3503 16.9227 76.4801 16.872 76.5878 16.872C76.7271 16.872 76.8348 16.9258 76.9108 17.0335L77.3858 17.651ZM81.2204 11.305C81.5244 10.6463 81.8981 10.1333 82.3414 9.766C82.7847 9.39233 83.3262 9.2055 83.9659 9.2055C84.1686 9.2055 84.3617 9.22767 84.5454 9.272C84.7354 9.31633 84.9032 9.386 85.0489 9.481L84.9254 10.7445C84.8874 10.9028 84.7924 10.982 84.6404 10.982C84.5517 10.982 84.4219 10.963 84.2509 10.925C84.0799 10.887 83.8867 10.868 83.6714 10.868C83.3674 10.868 83.0951 10.9123 82.8544 11.001C82.6201 11.0897 82.4079 11.2227 82.2179 11.4C82.0342 11.571 81.8664 11.7863 81.7144 12.046C81.5687 12.2993 81.4357 12.5907 81.3154 12.92V19H79.6149V9.3765H80.5839C80.7676 9.3765 80.8942 9.41133 80.9639 9.481C81.0336 9.55067 81.0811 9.671 81.1064 9.842L81.2204 11.305Z" fill="#24241C"/>
<path d="M19.2908 13.5431H0.709221C0.283688 13.5431 0 13.2875 0 12.9041C0 12.5207 0.283688 12.2651 0.709221 12.2651H19.2908C19.7163 12.2651 20 12.5207 20 12.9041C20 13.2875 19.7163 13.5431 19.2908 13.5431Z" fill="#24241C"/>
<path d="M11.2058 23C11.064 23 10.7802 23 10.6384 22.8722L0.283742 13.5431C0.141898 13.4153 0.141846 13.2876 0.141846 13.032C0.141846 12.7764 0.283742 12.6486 0.283742 12.5208L10.6384 3.19169C10.9221 2.9361 11.3476 2.9361 11.6313 3.19169C11.915 3.44728 11.915 3.83069 11.6313 4.08628L1.70219 13.032L11.6313 21.9777C11.915 22.2332 11.915 22.6166 11.6313 22.8722C11.4895 22.8722 11.3476 23 11.2058 23Z" fill="#24241C"/>
</svg>
