<svg width="280" height="48" viewBox="0 0 280 48" fill="none" xmlns="http://www.w3.org/2000/svg">
<rect x="0.5" y="0.5" width="279" height="47" rx="23.5" fill="white" stroke="#24241C"/>
<path d="M63.4112 28.188C63.5126 28.188 63.6012 28.2292 63.6772 28.3115L64.4087 29.1C63.8514 29.746 63.1737 30.2495 62.3757 30.6105C61.5841 30.9715 60.6246 31.152 59.4972 31.152C58.5219 31.152 57.6352 30.9842 56.8372 30.6485C56.0392 30.3065 55.3584 29.8315 54.7947 29.2235C54.2311 28.6092 53.7941 27.8745 53.4837 27.0195C53.1734 26.1645 53.0182 25.224 53.0182 24.198C53.0182 23.172 53.1797 22.2315 53.5027 21.3765C53.8257 20.5215 54.2786 19.7868 54.8612 19.1725C55.4502 18.5582 56.1532 18.0832 56.9702 17.7475C57.7872 17.4055 58.6897 17.2345 59.6777 17.2345C60.6467 17.2345 61.5017 17.3897 62.2427 17.7C62.9837 18.0103 63.6361 18.4315 64.1997 18.9635L63.5917 19.809C63.5537 19.8723 63.5031 19.9262 63.4397 19.9705C63.3827 20.0085 63.3036 20.0275 63.2022 20.0275C63.0882 20.0275 62.9489 19.9673 62.7842 19.847C62.6196 19.7203 62.4042 19.581 62.1382 19.429C61.8722 19.277 61.5397 19.1408 61.1407 19.0205C60.7417 18.8938 60.2509 18.8305 59.6682 18.8305C58.9652 18.8305 58.3224 18.954 57.7397 19.201C57.1571 19.4417 56.6536 19.7932 56.2292 20.2555C55.8112 20.7178 55.4851 21.2815 55.2507 21.9465C55.0164 22.6115 54.8992 23.362 54.8992 24.198C54.8992 25.0467 55.0196 25.8035 55.2602 26.4685C55.5072 27.1335 55.8397 27.6972 56.2577 28.1595C56.6821 28.6155 57.1792 28.9638 57.7492 29.2045C58.3256 29.4452 58.9462 29.5655 59.6112 29.5655C60.0166 29.5655 60.3807 29.5433 60.7037 29.499C61.0331 29.4483 61.3339 29.3723 61.6062 29.271C61.8849 29.1697 62.1414 29.043 62.3757 28.891C62.6164 28.7327 62.8539 28.5458 63.0882 28.3305C63.1959 28.2355 63.3036 28.188 63.4112 28.188ZM70.0176 21.2245C70.7206 21.2245 71.3539 21.3417 71.9176 21.576C72.4812 21.8103 72.9626 22.1428 73.3616 22.5735C73.7606 23.0042 74.0646 23.5267 74.2736 24.141C74.4889 24.749 74.5966 25.4298 74.5966 26.1835C74.5966 26.9435 74.4889 27.6275 74.2736 28.2355C74.0646 28.8435 73.7606 29.3628 73.3616 29.7935C72.9626 30.2242 72.4812 30.5567 71.9176 30.791C71.3539 31.019 70.7206 31.133 70.0176 31.133C69.3082 31.133 68.6686 31.019 68.0986 30.791C67.5349 30.5567 67.0536 30.2242 66.6546 29.7935C66.2556 29.3628 65.9484 28.8435 65.7331 28.2355C65.5241 27.6275 65.4196 26.9435 65.4196 26.1835C65.4196 25.4298 65.5241 24.749 65.7331 24.141C65.9484 23.5267 66.2556 23.0042 66.6546 22.5735C67.0536 22.1428 67.5349 21.8103 68.0986 21.576C68.6686 21.3417 69.3082 21.2245 70.0176 21.2245ZM70.0176 29.8125C70.9676 29.8125 71.6769 29.4958 72.1456 28.8625C72.6142 28.2228 72.8486 27.333 72.8486 26.193C72.8486 25.0467 72.6142 24.1537 72.1456 23.514C71.6769 22.8743 70.9676 22.5545 70.0176 22.5545C69.5362 22.5545 69.1151 22.6368 68.7541 22.8015C68.3994 22.9662 68.1017 23.2037 67.8611 23.514C67.6267 23.8243 67.4494 24.2075 67.3291 24.6635C67.2151 25.1132 67.1581 25.623 67.1581 26.193C67.1581 27.333 67.3924 28.2228 67.8611 28.8625C68.3361 29.4958 69.0549 29.8125 70.0176 29.8125ZM78.3374 22.773C78.5464 22.5387 78.768 22.3265 79.0024 22.1365C79.2367 21.9465 79.4837 21.785 79.7434 21.652C80.0094 21.5127 80.288 21.4082 80.5794 21.3385C80.877 21.2625 81.1969 21.2245 81.5389 21.2245C82.0645 21.2245 82.5269 21.3132 82.9259 21.4905C83.3312 21.6615 83.6669 21.9085 83.9329 22.2315C84.2052 22.5482 84.411 22.9313 84.5504 23.381C84.6897 23.8307 84.7594 24.3278 84.7594 24.8725V31H83.0589V24.8725C83.0589 24.1442 82.891 23.5805 82.5554 23.1815C82.226 22.7762 81.7225 22.5735 81.0449 22.5735C80.5445 22.5735 80.0759 22.6938 79.6389 22.9345C79.2082 23.1752 78.8092 23.5013 78.4419 23.913V31H76.7414V21.3765H77.7579C77.9985 21.3765 78.1474 21.4937 78.2044 21.728L78.3374 22.773ZM96.1362 31H94.4452V22.792H89.4862V28.568C89.4862 28.9733 89.5844 29.2742 89.7807 29.4705C89.977 29.6668 90.2304 29.765 90.5407 29.765C90.718 29.765 90.87 29.7428 90.9967 29.6985C91.1297 29.6478 91.2437 29.594 91.3387 29.537C91.4337 29.48 91.5129 29.4293 91.5762 29.385C91.6459 29.3343 91.706 29.309 91.7567 29.309C91.8454 29.309 91.9245 29.3628 91.9942 29.4705L92.4882 30.278C92.1969 30.5503 91.8454 30.7657 91.4337 30.924C91.022 31.076 90.5977 31.152 90.1607 31.152C89.4007 31.152 88.8149 30.9398 88.4032 30.5155C87.9979 30.0912 87.7952 29.48 87.7952 28.682V22.792H86.6362C86.5349 22.792 86.4494 22.7635 86.3797 22.7065C86.31 22.6432 86.2752 22.5482 86.2752 22.4215V21.747L87.8522 21.538L88.2417 18.574C88.2607 18.479 88.3019 18.403 88.3652 18.346C88.4349 18.2827 88.5235 18.251 88.6312 18.251H89.4862V21.5665H96.1362V31ZM96.5542 18.289C96.5542 18.4537 96.5194 18.6088 96.4497 18.7545C96.3864 18.8938 96.2977 19.0173 96.1837 19.125C96.076 19.2327 95.9494 19.3182 95.8037 19.3815C95.658 19.4448 95.5029 19.4765 95.3382 19.4765C95.1735 19.4765 95.0184 19.4448 94.8727 19.3815C94.7334 19.3182 94.6099 19.2327 94.5022 19.125C94.3945 19.0173 94.309 18.8938 94.2457 18.7545C94.1824 18.6088 94.1507 18.4537 94.1507 18.289C94.1507 18.1243 94.1824 17.9692 94.2457 17.8235C94.309 17.6715 94.3945 17.5417 94.5022 17.434C94.6099 17.32 94.7334 17.2313 94.8727 17.168C95.0184 17.1047 95.1735 17.073 95.3382 17.073C95.5029 17.073 95.658 17.1047 95.8037 17.168C95.9494 17.2313 96.076 17.32 96.1837 17.434C96.2977 17.5417 96.3864 17.6715 96.4497 17.8235C96.5194 17.9692 96.5542 18.1243 96.5542 18.289ZM100.51 22.773C100.719 22.5387 100.941 22.3265 101.175 22.1365C101.41 21.9465 101.657 21.785 101.916 21.652C102.182 21.5127 102.461 21.4082 102.752 21.3385C103.05 21.2625 103.37 21.2245 103.712 21.2245C104.237 21.2245 104.7 21.3132 105.099 21.4905C105.504 21.6615 105.84 21.9085 106.106 22.2315C106.378 22.5482 106.584 22.9313 106.723 23.381C106.863 23.8307 106.932 24.3278 106.932 24.8725V31H105.232V24.8725C105.232 24.1442 105.064 23.5805 104.728 23.1815C104.399 22.7762 103.895 22.5735 103.218 22.5735C102.717 22.5735 102.249 22.6938 101.812 22.9345C101.381 23.1752 100.982 23.5013 100.615 23.913V31H98.9142V21.3765H99.9307C100.171 21.3765 100.32 21.4937 100.377 21.728L100.51 22.773ZM117.422 21.3765V31H116.415C116.175 31 116.023 30.8828 115.959 30.6485L115.826 29.613C115.408 30.0753 114.94 30.449 114.42 30.734C113.901 31.0127 113.306 31.152 112.634 31.152C112.109 31.152 111.643 31.0665 111.238 30.8955C110.839 30.7182 110.503 30.4712 110.231 30.1545C109.959 29.8378 109.753 29.4547 109.613 29.005C109.48 28.5553 109.414 28.0582 109.414 27.5135V21.3765H111.105V27.5135C111.105 28.2418 111.27 28.8055 111.599 29.2045C111.935 29.6035 112.444 29.803 113.128 29.803C113.629 29.803 114.094 29.6858 114.525 29.4515C114.962 29.2108 115.364 28.8815 115.731 28.4635V21.3765H117.422ZM116.235 17.2345L114.021 19.6855C113.933 19.7805 113.844 19.8502 113.755 19.8945C113.673 19.9325 113.565 19.9515 113.432 19.9515H112.425L113.831 17.6525C113.92 17.5068 114.015 17.4023 114.116 17.339C114.224 17.2693 114.379 17.2345 114.582 17.2345H116.235ZM125.319 26.668C124.54 26.6933 123.875 26.7567 123.324 26.858C122.779 26.953 122.333 27.0797 121.985 27.238C121.643 27.3963 121.392 27.5832 121.234 27.7985C121.082 28.0138 121.006 28.2545 121.006 28.5205C121.006 28.7738 121.047 28.9923 121.13 29.176C121.212 29.3597 121.323 29.5117 121.462 29.632C121.608 29.746 121.776 29.8315 121.966 29.8885C122.162 29.9392 122.371 29.9645 122.593 29.9645C122.89 29.9645 123.163 29.936 123.41 29.879C123.657 29.8157 123.888 29.727 124.103 29.613C124.325 29.499 124.534 29.3628 124.73 29.2045C124.933 29.0462 125.129 28.8657 125.319 28.663V26.668ZM119.857 22.735C120.389 22.222 120.962 21.8388 121.576 21.5855C122.19 21.3322 122.871 21.2055 123.619 21.2055C124.157 21.2055 124.635 21.2942 125.053 21.4715C125.471 21.6488 125.823 21.8958 126.108 22.2125C126.393 22.5292 126.608 22.9123 126.754 23.362C126.899 23.8117 126.972 24.3057 126.972 24.844V31H126.222C126.057 31 125.93 30.9747 125.842 30.924C125.753 30.867 125.683 30.7593 125.633 30.601L125.443 29.689C125.189 29.9233 124.942 30.1323 124.702 30.316C124.461 30.4933 124.208 30.6453 123.942 30.772C123.676 30.8923 123.391 30.9842 123.087 31.0475C122.789 31.1172 122.456 31.152 122.089 31.152C121.715 31.152 121.364 31.1013 121.035 31C120.705 30.8923 120.417 30.734 120.17 30.525C119.929 30.316 119.736 30.0532 119.591 29.7365C119.451 29.4135 119.382 29.0335 119.382 28.5965C119.382 28.2165 119.486 27.8523 119.695 27.504C119.904 27.1493 120.243 26.8358 120.712 26.5635C121.18 26.2912 121.791 26.0695 122.545 25.8985C123.299 25.7212 124.223 25.6198 125.319 25.5945V24.844C125.319 24.0967 125.158 23.533 124.835 23.153C124.512 22.7667 124.04 22.5735 123.419 22.5735C123.001 22.5735 122.65 22.6273 122.365 22.735C122.086 22.8363 121.842 22.9535 121.633 23.0865C121.43 23.2132 121.253 23.3303 121.101 23.438C120.955 23.5393 120.81 23.59 120.664 23.59C120.55 23.59 120.452 23.5615 120.37 23.5045C120.287 23.4412 120.218 23.3652 120.161 23.2765L119.857 22.735ZM141.107 23.0865C141.056 23.1562 141.005 23.21 140.955 23.248C140.904 23.286 140.834 23.305 140.746 23.305C140.651 23.305 140.546 23.267 140.432 23.191C140.318 23.1087 140.176 23.02 140.005 22.925C139.84 22.83 139.634 22.7445 139.387 22.6685C139.147 22.5862 138.849 22.545 138.494 22.545C138.019 22.545 137.601 22.6305 137.24 22.8015C136.879 22.9662 136.575 23.2068 136.328 23.5235C136.088 23.8402 135.904 24.2233 135.777 24.673C135.657 25.1227 135.597 25.6262 135.597 26.1835C135.597 26.7662 135.663 27.2855 135.796 27.7415C135.929 28.1912 136.116 28.5712 136.357 28.8815C136.604 29.1855 136.898 29.4198 137.24 29.5845C137.589 29.7428 137.978 29.822 138.409 29.822C138.82 29.822 139.159 29.7745 139.425 29.6795C139.691 29.5782 139.91 29.4673 140.081 29.347C140.258 29.2267 140.404 29.119 140.518 29.024C140.638 28.9227 140.755 28.872 140.869 28.872C141.009 28.872 141.116 28.9258 141.192 29.0335L141.667 29.651C141.458 29.9107 141.221 30.1323 140.955 30.316C140.689 30.4997 140.401 30.6548 140.09 30.7815C139.786 30.9018 139.466 30.9905 139.131 31.0475C138.795 31.1045 138.453 31.133 138.105 31.133C137.503 31.133 136.943 31.0222 136.423 30.8005C135.91 30.5788 135.464 30.259 135.084 29.841C134.704 29.4167 134.406 28.8973 134.191 28.283C133.975 27.6687 133.868 26.9688 133.868 26.1835C133.868 25.4678 133.966 24.806 134.162 24.198C134.365 23.59 134.656 23.0675 135.036 22.6305C135.423 22.1872 135.894 21.842 136.452 21.595C137.015 21.348 137.661 21.2245 138.39 21.2245C139.067 21.2245 139.663 21.3353 140.176 21.557C140.695 21.7723 141.154 22.0795 141.553 22.4785L141.107 23.0865ZM147.372 21.2245C148.075 21.2245 148.708 21.3417 149.272 21.576C149.836 21.8103 150.317 22.1428 150.716 22.5735C151.115 23.0042 151.419 23.5267 151.628 24.141C151.843 24.749 151.951 25.4298 151.951 26.1835C151.951 26.9435 151.843 27.6275 151.628 28.2355C151.419 28.8435 151.115 29.3628 150.716 29.7935C150.317 30.2242 149.836 30.5567 149.272 30.791C148.708 31.019 148.075 31.133 147.372 31.133C146.663 31.133 146.023 31.019 145.453 30.791C144.889 30.5567 144.408 30.2242 144.009 29.7935C143.61 29.3628 143.303 28.8435 143.088 28.2355C142.879 27.6275 142.774 26.9435 142.774 26.1835C142.774 25.4298 142.879 24.749 143.088 24.141C143.303 23.5267 143.61 23.0042 144.009 22.5735C144.408 22.1428 144.889 21.8103 145.453 21.576C146.023 21.3417 146.663 21.2245 147.372 21.2245ZM147.372 29.8125C148.322 29.8125 149.031 29.4958 149.5 28.8625C149.969 28.2228 150.203 27.333 150.203 26.193C150.203 25.0467 149.969 24.1537 149.5 23.514C149.031 22.8743 148.322 22.5545 147.372 22.5545C146.891 22.5545 146.47 22.6368 146.109 22.8015C145.754 22.9662 145.456 23.2037 145.216 23.514C144.981 23.8243 144.804 24.2075 144.684 24.6635C144.57 25.1132 144.513 25.623 144.513 26.193C144.513 27.333 144.747 28.2228 145.216 28.8625C145.691 29.4958 146.409 29.8125 147.372 29.8125ZM155.692 22.773C155.901 22.5387 156.123 22.3265 156.357 22.1365C156.591 21.9465 156.838 21.785 157.098 21.652C157.364 21.5127 157.643 21.4082 157.934 21.3385C158.232 21.2625 158.551 21.2245 158.893 21.2245C159.419 21.2245 159.881 21.3132 160.28 21.4905C160.686 21.6615 161.021 21.9085 161.287 22.2315C161.56 22.5482 161.766 22.9313 161.905 23.381C162.044 23.8307 162.114 24.3278 162.114 24.8725V31H160.413V24.8725C160.413 24.1442 160.246 23.5805 159.91 23.1815C159.581 22.7762 159.077 22.5735 158.399 22.5735C157.899 22.5735 157.43 22.6938 156.993 22.9345C156.563 23.1752 156.164 23.5013 155.796 23.913V31H154.096V21.3765H155.112C155.353 21.3765 155.502 21.4937 155.559 21.728L155.692 22.773ZM181.009 24.4545V29.6795C180.325 30.1735 179.593 30.544 178.814 30.791C178.042 31.0317 177.193 31.152 176.268 31.152C175.173 31.152 174.185 30.9842 173.304 30.6485C172.424 30.3065 171.67 29.8315 171.043 29.2235C170.423 28.6092 169.945 27.8745 169.609 27.0195C169.273 26.1645 169.105 25.224 169.105 24.198C169.105 23.1593 169.267 22.2125 169.59 21.3575C169.919 20.5025 170.385 19.771 170.986 19.163C171.588 18.5487 172.32 18.0737 173.181 17.738C174.042 17.4023 175.005 17.2345 176.069 17.2345C176.607 17.2345 177.108 17.2757 177.57 17.358C178.032 17.434 178.46 17.548 178.852 17.7C179.245 17.8457 179.609 18.0262 179.945 18.2415C180.281 18.4505 180.594 18.688 180.885 18.954L180.363 19.79C180.281 19.9167 180.173 19.999 180.04 20.037C179.913 20.0687 179.771 20.037 179.612 19.942C179.46 19.8533 179.286 19.7457 179.09 19.619C178.894 19.4923 178.653 19.372 178.368 19.258C178.089 19.1377 177.757 19.0363 177.37 18.954C176.99 18.8717 176.538 18.8305 176.012 18.8305C175.246 18.8305 174.552 18.9572 173.931 19.2105C173.311 19.4575 172.782 19.8153 172.345 20.284C171.908 20.7463 171.572 21.31 171.338 21.975C171.104 22.6337 170.986 23.3747 170.986 24.198C170.986 25.053 171.107 25.8193 171.347 26.497C171.594 27.1683 171.943 27.7415 172.392 28.2165C172.848 28.6852 173.399 29.043 174.045 29.29C174.691 29.537 175.417 29.6605 176.221 29.6605C176.854 29.6605 177.415 29.5908 177.902 29.4515C178.396 29.3058 178.878 29.1063 179.346 28.853V25.8605H177.228C177.108 25.8605 177.009 25.8257 176.933 25.756C176.864 25.6863 176.829 25.6008 176.829 25.4995V24.4545H181.009ZM187.376 21.2245C188.079 21.2245 188.712 21.3417 189.276 21.576C189.84 21.8103 190.321 22.1428 190.72 22.5735C191.119 23.0042 191.423 23.5267 191.632 24.141C191.847 24.749 191.955 25.4298 191.955 26.1835C191.955 26.9435 191.847 27.6275 191.632 28.2355C191.423 28.8435 191.119 29.3628 190.72 29.7935C190.321 30.2242 189.84 30.5567 189.276 30.791C188.712 31.019 188.079 31.133 187.376 31.133C186.667 31.133 186.027 31.019 185.457 30.791C184.893 30.5567 184.412 30.2242 184.013 29.7935C183.614 29.3628 183.307 28.8435 183.091 28.2355C182.882 27.6275 182.778 26.9435 182.778 26.1835C182.778 25.4298 182.882 24.749 183.091 24.141C183.307 23.5267 183.614 23.0042 184.013 22.5735C184.412 22.1428 184.893 21.8103 185.457 21.576C186.027 21.3417 186.667 21.2245 187.376 21.2245ZM187.376 29.8125C188.326 29.8125 189.035 29.4958 189.504 28.8625C189.973 28.2228 190.207 27.333 190.207 26.193C190.207 25.0467 189.973 24.1537 189.504 23.514C189.035 22.8743 188.326 22.5545 187.376 22.5545C186.895 22.5545 186.473 22.6368 186.112 22.8015C185.758 22.9662 185.46 23.2037 185.219 23.514C184.985 23.8243 184.808 24.2075 184.687 24.6635C184.573 25.1132 184.516 25.623 184.516 26.193C184.516 27.333 184.751 28.2228 185.219 28.8625C185.694 29.4958 186.413 29.8125 187.376 29.8125ZM198.156 21.2245C198.859 21.2245 199.493 21.3417 200.056 21.576C200.62 21.8103 201.101 22.1428 201.5 22.5735C201.899 23.0042 202.203 23.5267 202.412 24.141C202.628 24.749 202.735 25.4298 202.735 26.1835C202.735 26.9435 202.628 27.6275 202.412 28.2355C202.203 28.8435 201.899 29.3628 201.5 29.7935C201.101 30.2242 200.62 30.5567 200.056 30.791C199.493 31.019 198.859 31.133 198.156 31.133C197.447 31.133 196.807 31.019 196.237 30.791C195.674 30.5567 195.192 30.2242 194.793 29.7935C194.394 29.3628 194.087 28.8435 193.872 28.2355C193.663 27.6275 193.558 26.9435 193.558 26.1835C193.558 25.4298 193.663 24.749 193.872 24.141C194.087 23.5267 194.394 23.0042 194.793 22.5735C195.192 22.1428 195.674 21.8103 196.237 21.576C196.807 21.3417 197.447 21.2245 198.156 21.2245ZM198.156 29.8125C199.106 29.8125 199.816 29.4958 200.284 28.8625C200.753 28.2228 200.987 27.333 200.987 26.193C200.987 25.0467 200.753 24.1537 200.284 23.514C199.816 22.8743 199.106 22.5545 198.156 22.5545C197.675 22.5545 197.254 22.6368 196.893 22.8015C196.538 22.9662 196.24 23.2037 196 23.514C195.765 23.8243 195.588 24.2075 195.468 24.6635C195.354 25.1132 195.297 25.623 195.297 26.193C195.297 27.333 195.531 28.2228 196 28.8625C196.475 29.4958 197.194 29.8125 198.156 29.8125ZM208.178 26.2975C208.52 26.2975 208.821 26.25 209.08 26.155C209.34 26.06 209.559 25.927 209.736 25.756C209.913 25.585 210.046 25.3823 210.135 25.148C210.224 24.9073 210.268 24.6445 210.268 24.3595C210.268 23.7705 210.087 23.3018 209.726 22.9535C209.372 22.6052 208.856 22.431 208.178 22.431C207.494 22.431 206.971 22.6052 206.61 22.9535C206.256 23.3018 206.078 23.7705 206.078 24.3595C206.078 24.6445 206.123 24.9073 206.211 25.148C206.306 25.3823 206.443 25.585 206.62 25.756C206.797 25.927 207.016 26.06 207.275 26.155C207.535 26.25 207.836 26.2975 208.178 26.2975ZM211.227 31.5225C211.227 31.2882 211.161 31.0982 211.028 30.9525C210.895 30.8068 210.714 30.6928 210.486 30.6105C210.265 30.5282 210.005 30.4712 209.707 30.4395C209.41 30.4015 209.093 30.373 208.757 30.354C208.428 30.335 208.092 30.316 207.75 30.297C207.408 30.278 207.079 30.2463 206.762 30.202C206.408 30.3667 206.116 30.5757 205.888 30.829C205.667 31.076 205.556 31.3673 205.556 31.703C205.556 31.9183 205.61 32.1178 205.717 32.3015C205.831 32.4915 206.002 32.653 206.23 32.786C206.458 32.9253 206.743 33.033 207.085 33.109C207.434 33.1913 207.842 33.2325 208.311 33.2325C208.767 33.2325 209.175 33.1913 209.536 33.109C209.897 33.0267 210.201 32.9095 210.448 32.7575C210.702 32.6055 210.895 32.425 211.028 32.216C211.161 32.007 211.227 31.7758 211.227 31.5225ZM212.947 21.7565V22.3835C212.947 22.5925 212.814 22.7255 212.548 22.7825L211.455 22.925C211.671 23.343 211.778 23.8053 211.778 24.312C211.778 24.7807 211.687 25.2082 211.503 25.5945C211.326 25.9745 211.079 26.3007 210.762 26.573C210.445 26.8453 210.065 27.0543 209.622 27.2C209.179 27.3457 208.697 27.4185 208.178 27.4185C207.728 27.4185 207.304 27.3647 206.905 27.257C206.702 27.3837 206.547 27.5198 206.439 27.6655C206.332 27.8048 206.278 27.9473 206.278 28.093C206.278 28.321 206.37 28.4952 206.553 28.6155C206.743 28.7295 206.99 28.8118 207.294 28.8625C207.598 28.9132 207.944 28.9448 208.33 28.9575C208.723 28.9702 209.122 28.9923 209.527 29.024C209.939 29.0493 210.338 29.0968 210.724 29.1665C211.117 29.2362 211.465 29.3502 211.769 29.5085C212.073 29.6668 212.317 29.8853 212.5 30.164C212.69 30.4427 212.785 30.8037 212.785 31.247C212.785 31.6587 212.681 32.0577 212.472 32.444C212.269 32.8303 211.975 33.1723 211.588 33.47C211.202 33.774 210.727 34.0147 210.163 34.192C209.606 34.3757 208.976 34.4675 208.273 34.4675C207.57 34.4675 206.956 34.3978 206.43 34.2585C205.904 34.1192 205.467 33.9323 205.119 33.698C204.771 33.4637 204.508 33.1913 204.33 32.881C204.159 32.577 204.074 32.2572 204.074 31.9215C204.074 31.4465 204.223 31.0443 204.52 30.715C204.818 30.3857 205.227 30.1228 205.746 29.9265C205.461 29.7998 205.233 29.632 205.062 29.423C204.897 29.2077 204.815 28.9195 204.815 28.5585C204.815 28.4192 204.84 28.2767 204.891 28.131C204.942 27.979 205.018 27.8302 205.119 27.6845C205.227 27.5325 205.356 27.39 205.508 27.257C205.66 27.124 205.838 27.0068 206.04 26.9055C205.565 26.6395 205.195 26.288 204.929 25.851C204.663 25.4077 204.53 24.8947 204.53 24.312C204.53 23.8433 204.619 23.419 204.796 23.039C204.98 22.6527 205.233 22.3265 205.556 22.0605C205.879 21.7882 206.262 21.5792 206.705 21.4335C207.155 21.2878 207.646 21.215 208.178 21.215C208.596 21.215 208.985 21.2625 209.346 21.3575C209.707 21.4462 210.037 21.5792 210.334 21.7565H212.947ZM216.443 17.0065V31H214.752V17.0065H216.443ZM225.627 25.1385C225.627 24.7458 225.57 24.388 225.456 24.065C225.348 23.7357 225.187 23.4538 224.971 23.2195C224.762 22.9788 224.506 22.7952 224.202 22.6685C223.898 22.5355 223.553 22.469 223.166 22.469C222.356 22.469 221.713 22.7065 221.238 23.1815C220.769 23.6502 220.478 24.3025 220.364 25.1385H225.627ZM226.995 29.651C226.786 29.9043 226.536 30.126 226.244 30.316C225.953 30.4997 225.639 30.6517 225.304 30.772C224.974 30.8923 224.632 30.981 224.278 31.038C223.923 31.1013 223.572 31.133 223.223 31.133C222.558 31.133 221.944 31.0222 221.38 30.8005C220.823 30.5725 220.338 30.2432 219.927 29.8125C219.521 29.3755 219.205 28.8372 218.977 28.1975C218.749 27.5578 218.635 26.8232 218.635 25.9935C218.635 25.3222 218.736 24.6952 218.939 24.1125C219.148 23.5298 219.445 23.0263 219.832 22.602C220.218 22.1713 220.69 21.8357 221.247 21.595C221.805 21.348 222.432 21.2245 223.128 21.2245C223.705 21.2245 224.237 21.3227 224.724 21.519C225.218 21.709 225.643 21.9877 225.997 22.355C226.358 22.716 226.64 23.1657 226.843 23.704C227.045 24.236 227.147 24.844 227.147 25.528C227.147 25.794 227.118 25.9713 227.061 26.06C227.004 26.1487 226.897 26.193 226.738 26.193H220.307C220.326 26.801 220.408 27.3298 220.554 27.7795C220.706 28.2292 220.915 28.606 221.181 28.91C221.447 29.2077 221.763 29.4325 222.131 29.5845C222.498 29.7302 222.91 29.803 223.366 29.803C223.79 29.803 224.154 29.7555 224.458 29.6605C224.769 29.5592 225.035 29.4515 225.256 29.3375C225.478 29.2235 225.662 29.119 225.807 29.024C225.959 28.9227 226.089 28.872 226.197 28.872C226.336 28.872 226.444 28.9258 226.52 29.0335L226.995 29.651Z" fill="#24241C"/>
</svg>
