<svg width="167" height="28" viewBox="0 0 167 28" fill="none" xmlns="http://www.w3.org/2000/svg">
<path d="M0 14C0 6.26801 6.26801 0 14 0H153C160.732 0 167 6.26801 167 14C167 21.732 160.732 28 153 28H14C6.26801 28 0 21.732 0 14Z" fill="#8DC63F"/>
<path d="M28.4056 14.272C28.4056 15.1307 28.2696 15.92 27.9976 16.64C27.7256 17.3547 27.3416 17.9707 26.8456 18.488C26.3496 19.0053 25.7523 19.408 25.0536 19.696C24.3603 19.9787 23.5923 20.12 22.7496 20.12C21.907 20.12 21.139 19.9787 20.4456 19.696C19.7523 19.408 19.1576 19.0053 18.6616 18.488C18.1656 17.9707 17.7816 17.3547 17.5096 16.64C17.2376 15.92 17.1016 15.1307 17.1016 14.272C17.1016 13.4133 17.2376 12.6267 17.5096 11.912C17.7816 11.192 18.1656 10.5733 18.6616 10.056C19.1576 9.53333 19.7523 9.128 20.4456 8.84C21.139 8.552 21.907 8.408 22.7496 8.408C23.5923 8.408 24.3603 8.552 25.0536 8.84C25.7523 9.128 26.3496 9.53333 26.8456 10.056C27.3416 10.5733 27.7256 11.192 27.9976 11.912C28.2696 12.6267 28.4056 13.4133 28.4056 14.272ZM26.8136 14.272C26.8136 13.568 26.7176 12.936 26.5256 12.376C26.3336 11.816 26.0616 11.344 25.7096 10.96C25.3576 10.5707 24.931 10.272 24.4296 10.064C23.9283 9.856 23.3683 9.752 22.7496 9.752C22.1363 9.752 21.579 9.856 21.0776 10.064C20.5763 10.272 20.147 10.5707 19.7896 10.96C19.4376 11.344 19.1656 11.816 18.9736 12.376C18.7816 12.936 18.6856 13.568 18.6856 14.272C18.6856 14.976 18.7816 15.608 18.9736 16.168C19.1656 16.7227 19.4376 17.1947 19.7896 17.584C20.147 17.968 20.5763 18.264 21.0776 18.472C21.579 18.6747 22.1363 18.776 22.7496 18.776C23.3683 18.776 23.9283 18.6747 24.4296 18.472C24.931 18.264 25.3576 17.968 25.7096 17.584C26.0616 17.1947 26.3336 16.7227 26.5256 16.168C26.7176 15.608 26.8136 14.976 26.8136 14.272ZM32.9052 20.128C32.2652 20.128 31.7719 19.9493 31.4252 19.592C31.0839 19.2347 30.9132 18.72 30.9132 18.048V13.088H29.9372C29.8519 13.088 29.7799 13.064 29.7212 13.016C29.6626 12.9627 29.6332 12.8827 29.6332 12.776V12.208L30.9612 12.04L31.2892 9.536C31.2999 9.456 31.3346 9.392 31.3932 9.344C31.4519 9.29067 31.5266 9.264 31.6172 9.264H32.3372V12.056H34.6572V13.088H32.3372V17.952C32.3372 18.2933 32.4199 18.5467 32.5852 18.712C32.7506 18.8773 32.9639 18.96 33.2252 18.96C33.3746 18.96 33.5026 18.9413 33.6092 18.904C33.7212 18.8613 33.8172 18.816 33.8972 18.768C33.9772 18.72 34.0439 18.6773 34.0972 18.64C34.1559 18.5973 34.2066 18.576 34.2492 18.576C34.3239 18.576 34.3906 18.6213 34.4492 18.712L34.8652 19.392C34.6199 19.6213 34.3239 19.8027 33.9772 19.936C33.6306 20.064 33.2732 20.128 32.9052 20.128ZM36.568 20V11.896H37.384C37.5387 11.896 37.6453 11.9253 37.704 11.984C37.7627 12.0427 37.8027 12.144 37.824 12.288L37.92 13.552C38.1973 12.9867 38.5387 12.5467 38.944 12.232C39.3547 11.912 39.8347 11.752 40.384 11.752C40.608 11.752 40.8107 11.7787 40.992 11.832C41.1733 11.88 41.3413 11.9493 41.496 12.04L41.312 13.104C41.2747 13.2373 41.192 13.304 41.064 13.304C40.9893 13.304 40.8747 13.28 40.72 13.232C40.5653 13.1787 40.3493 13.152 40.072 13.152C39.576 13.152 39.16 13.296 38.824 13.584C38.4933 13.872 38.216 14.2907 37.992 14.84V20H36.568ZM46.4511 11.768C47.0431 11.768 47.5765 11.8667 48.0511 12.064C48.5311 12.2613 48.9365 12.5413 49.2671 12.904C49.6031 13.2667 49.8591 13.7067 50.0351 14.224C50.2165 14.736 50.3071 15.3093 50.3071 15.944C50.3071 16.584 50.2165 17.16 50.0351 17.672C49.8591 18.184 49.6031 18.6213 49.2671 18.984C48.9365 19.3467 48.5311 19.6267 48.0511 19.824C47.5765 20.016 47.0431 20.112 46.4511 20.112C45.8591 20.112 45.3231 20.016 44.8431 19.824C44.3685 19.6267 43.9631 19.3467 43.6271 18.984C43.2911 18.6213 43.0325 18.184 42.8511 17.672C42.6698 17.16 42.5791 16.584 42.5791 15.944C42.5791 15.3093 42.6698 14.736 42.8511 14.224C43.0325 13.7067 43.2911 13.2667 43.6271 12.904C43.9631 12.5413 44.3685 12.2613 44.8431 12.064C45.3231 11.8667 45.8591 11.768 46.4511 11.768ZM46.4511 19C47.2511 19 47.8485 18.7333 48.2431 18.2C48.6378 17.6613 48.8351 16.912 48.8351 15.952C48.8351 14.9867 48.6378 14.2347 48.2431 13.696C47.8485 13.1573 47.2511 12.888 46.4511 12.888C46.0458 12.888 45.6938 12.9573 45.3951 13.096C45.0965 13.2347 44.8458 13.4347 44.6431 13.696C44.4458 13.9573 44.2965 14.28 44.1951 14.664C44.0991 15.0427 44.0511 15.472 44.0511 15.952C44.0511 16.432 44.0991 16.8613 44.1951 17.24C44.2965 17.6187 44.4458 17.9387 44.6431 18.2C44.8458 18.456 45.0965 18.6533 45.3951 18.792C45.6938 18.9307 46.0458 19 46.4511 19ZM56.8517 13.232C56.7877 13.3493 56.6891 13.408 56.5557 13.408C56.4757 13.408 56.3851 13.3787 56.2837 13.32C56.1824 13.2613 56.0571 13.1973 55.9077 13.128C55.7637 13.0533 55.5904 12.9867 55.3877 12.928C55.1851 12.864 54.9451 12.832 54.6677 12.832C54.4277 12.832 54.2117 12.864 54.0197 12.928C53.8277 12.9867 53.6624 13.0693 53.5237 13.176C53.3904 13.2827 53.2864 13.408 53.2117 13.552C53.1424 13.6907 53.1077 13.8427 53.1077 14.008C53.1077 14.216 53.1664 14.3893 53.2837 14.528C53.4064 14.6667 53.5664 14.7867 53.7637 14.888C53.9611 14.9893 54.1851 15.08 54.4357 15.16C54.6864 15.2347 54.9424 15.3173 55.2037 15.408C55.4704 15.4933 55.7291 15.5893 55.9797 15.696C56.2304 15.8027 56.4544 15.936 56.6517 16.096C56.8491 16.256 57.0064 16.4533 57.1237 16.688C57.2464 16.9173 57.3077 17.1947 57.3077 17.52C57.3077 17.8933 57.2411 18.24 57.1077 18.56C56.9744 18.8747 56.7771 19.1493 56.5157 19.384C56.2544 19.6133 55.9344 19.7947 55.5557 19.928C55.1771 20.0613 54.7397 20.128 54.2437 20.128C53.6784 20.128 53.1664 20.0373 52.7077 19.856C52.2491 19.6693 51.8597 19.432 51.5397 19.144L51.8757 18.6C51.9184 18.5307 51.9691 18.4773 52.0277 18.44C52.0864 18.4027 52.1637 18.384 52.2597 18.384C52.3557 18.384 52.4571 18.4213 52.5637 18.496C52.6704 18.5707 52.7984 18.6533 52.9477 18.744C53.1024 18.8347 53.2864 18.9173 53.4997 18.992C53.7184 19.0667 53.9904 19.104 54.3157 19.104C54.5931 19.104 54.8357 19.0693 55.0437 19C55.2517 18.9253 55.4251 18.8267 55.5637 18.704C55.7024 18.5813 55.8037 18.44 55.8677 18.28C55.9371 18.12 55.9717 17.9493 55.9717 17.768C55.9717 17.544 55.9104 17.36 55.7877 17.216C55.6704 17.0667 55.5131 16.9413 55.3157 16.84C55.1184 16.7333 54.8917 16.6427 54.6357 16.568C54.3851 16.488 54.1264 16.4053 53.8597 16.32C53.5984 16.2347 53.3397 16.1387 53.0837 16.032C52.8331 15.92 52.6091 15.7813 52.4117 15.616C52.2144 15.4507 52.0544 15.248 51.9317 15.008C51.8144 14.7627 51.7557 14.4667 51.7557 14.12C51.7557 13.8107 51.8197 13.5147 51.9477 13.232C52.0757 12.944 52.2624 12.6933 52.5077 12.48C52.7531 12.2613 53.0544 12.088 53.4117 11.96C53.7691 11.832 54.1771 11.768 54.6357 11.768C55.1691 11.768 55.6464 11.8533 56.0677 12.024C56.4944 12.1893 56.8624 12.4187 57.1717 12.712L56.8517 13.232ZM64.127 11.896V20H62.703V11.896H64.127ZM64.447 9.352C64.447 9.49067 64.4177 9.62133 64.359 9.744C64.3057 9.86133 64.231 9.968 64.135 10.064C64.0443 10.1547 63.9377 10.2267 63.815 10.28C63.6923 10.3333 63.5617 10.36 63.423 10.36C63.2843 10.36 63.1537 10.3333 63.031 10.28C62.9137 10.2267 62.807 10.1547 62.711 10.064C62.6203 9.968 62.5483 9.86133 62.495 9.744C62.4417 9.62133 62.415 9.49067 62.415 9.352C62.415 9.21333 62.4417 9.08267 62.495 8.96C62.5483 8.832 62.6203 8.72267 62.711 8.632C62.807 8.536 62.9137 8.46133 63.031 8.408C63.1537 8.35467 63.2843 8.328 63.423 8.328C63.5617 8.328 63.6923 8.35467 63.815 8.408C63.9377 8.46133 64.0443 8.536 64.135 8.632C64.231 8.72267 64.3057 8.832 64.359 8.96C64.4177 9.08267 64.447 9.21333 64.447 9.352ZM66.7867 20V11.896H67.6347C67.8374 11.896 67.9654 11.9947 68.0187 12.192L68.1307 13.072C68.4827 12.6827 68.8747 12.368 69.3067 12.128C69.7441 11.888 70.2481 11.768 70.8187 11.768C71.2614 11.768 71.6507 11.8427 71.9867 11.992C72.3281 12.136 72.6107 12.344 72.8347 12.616C73.0641 12.8827 73.2374 13.2053 73.3547 13.584C73.4721 13.9627 73.5307 14.3813 73.5307 14.84V20H72.1067V14.84C72.1067 14.2267 71.9654 13.752 71.6827 13.416C71.4054 13.0747 70.9787 12.904 70.4027 12.904C69.9814 12.904 69.5867 13.0053 69.2187 13.208C68.8561 13.4107 68.5201 13.6853 68.2107 14.032V20H66.7867ZM78.5554 11.76C78.9074 11.76 79.2354 11.8 79.5394 11.88C79.8487 11.9547 80.1287 12.0667 80.3794 12.216H82.5794V12.744C82.5794 12.92 82.4674 13.032 82.2434 13.08L81.3234 13.208C81.5047 13.5547 81.5954 13.9413 81.5954 14.368C81.5954 14.7627 81.518 15.1227 81.3634 15.448C81.214 15.768 81.0034 16.0427 80.7314 16.272C80.4647 16.5013 80.1447 16.6773 79.7714 16.8C79.4034 16.9227 78.998 16.984 78.5554 16.984C78.1767 16.984 77.8194 16.9387 77.4834 16.848C77.3127 16.9547 77.182 17.0693 77.0914 17.192C77.006 17.3147 76.9634 17.4347 76.9634 17.552C76.9634 17.744 77.0407 17.8907 77.1954 17.992C77.35 18.088 77.5554 18.1573 77.8114 18.2C78.0674 18.2427 78.358 18.2693 78.6834 18.28C79.0087 18.2907 79.3394 18.3093 79.6754 18.336C80.0167 18.3573 80.35 18.3973 80.6754 18.456C81.0007 18.5147 81.2914 18.6107 81.5474 18.744C81.8034 18.8773 82.0087 19.0613 82.1634 19.296C82.318 19.5307 82.3954 19.8347 82.3954 20.208C82.3954 20.5547 82.3074 20.8907 82.1314 21.216C81.9607 21.5413 81.7127 21.8293 81.3874 22.08C81.062 22.336 80.6647 22.5387 80.1954 22.688C79.726 22.8427 79.1954 22.92 78.6034 22.92C78.0114 22.92 77.4914 22.8613 77.0434 22.744C76.6007 22.6267 76.2327 22.4693 75.9394 22.272C75.646 22.0747 75.4247 21.8453 75.2754 21.584C75.1314 21.328 75.0594 21.0587 75.0594 20.776C75.0594 20.376 75.1847 20.0373 75.4354 19.76C75.6914 19.4773 76.0407 19.2533 76.4834 19.088C76.254 18.9813 76.07 18.84 75.9314 18.664C75.798 18.4827 75.7314 18.2427 75.7314 17.944C75.7314 17.8267 75.7527 17.7067 75.7954 17.584C75.838 17.456 75.902 17.3307 75.9874 17.208C76.078 17.0853 76.1874 16.968 76.3154 16.856C76.4434 16.744 76.5927 16.6453 76.7634 16.56C76.3634 16.336 76.0487 16.04 75.8194 15.672C75.5954 15.2987 75.4834 14.864 75.4834 14.368C75.4834 13.9733 75.558 13.616 75.7074 13.296C75.862 12.9707 76.0754 12.696 76.3474 12.472C76.6194 12.2427 76.942 12.0667 77.3154 11.944C77.694 11.8213 78.1074 11.76 78.5554 11.76ZM81.0834 20.44C81.0834 20.2373 81.0274 20.0747 80.9154 19.952C80.8034 19.8293 80.6514 19.736 80.4594 19.672C80.2674 19.6027 80.046 19.552 79.7954 19.52C79.5447 19.488 79.2807 19.4667 79.0034 19.456C78.726 19.44 78.4434 19.424 78.1554 19.408C77.8674 19.392 77.5927 19.3627 77.3314 19.32C77.0274 19.464 76.7794 19.64 76.5874 19.848C76.4007 20.056 76.3074 20.304 76.3074 20.592C76.3074 20.7733 76.3527 20.9413 76.4434 21.096C76.5394 21.256 76.6834 21.392 76.8754 21.504C77.0674 21.6213 77.3074 21.712 77.5954 21.776C77.8887 21.8453 78.2327 21.88 78.6274 21.88C79.0114 21.88 79.3554 21.8453 79.6594 21.776C79.9634 21.7067 80.2194 21.608 80.4274 21.48C80.6407 21.352 80.8034 21.2 80.9154 21.024C81.0274 20.848 81.0834 20.6533 81.0834 20.44ZM78.5554 16.04C78.8434 16.04 79.0967 16 79.3154 15.92C79.5394 15.84 79.726 15.728 79.8754 15.584C80.0247 15.44 80.1367 15.2693 80.2114 15.072C80.286 14.8693 80.3234 14.648 80.3234 14.408C80.3234 13.912 80.1714 13.5173 79.8674 13.224C79.5687 12.9307 79.1314 12.784 78.5554 12.784C77.9847 12.784 77.5474 12.9307 77.2434 13.224C76.9447 13.5173 76.7954 13.912 76.7954 14.408C76.7954 14.648 76.8327 14.8693 76.9074 15.072C76.9874 15.2693 77.102 15.44 77.2514 15.584C77.4007 15.728 77.5847 15.84 77.8034 15.92C78.022 16 78.2727 16.04 78.5554 16.04ZM84.1492 20V11.896H84.9652C85.1199 11.896 85.2266 11.9253 85.2852 11.984C85.3439 12.0427 85.3839 12.144 85.4052 12.288L85.5012 13.552C85.7786 12.9867 86.1199 12.5467 86.5252 12.232C86.9359 11.912 87.4159 11.752 87.9652 11.752C88.1892 11.752 88.3919 11.7787 88.5732 11.832C88.7546 11.88 88.9226 11.9493 89.0772 12.04L88.8932 13.104C88.8559 13.2373 88.7732 13.304 88.6452 13.304C88.5706 13.304 88.4559 13.28 88.3012 13.232C88.1466 13.1787 87.9306 13.152 87.6532 13.152C87.1572 13.152 86.7412 13.296 86.4052 13.584C86.0746 13.872 85.7972 14.2907 85.5732 14.84V20H84.1492ZM93.9604 11.768C94.4457 11.768 94.8937 11.8507 95.3044 12.016C95.715 12.176 96.0697 12.4107 96.3684 12.72C96.667 13.024 96.899 13.4027 97.0644 13.856C97.235 14.304 97.3204 14.816 97.3204 15.392C97.3204 15.616 97.2964 15.7653 97.2484 15.84C97.2004 15.9147 97.1097 15.952 96.9764 15.952H91.5844C91.595 16.464 91.6644 16.9093 91.7924 17.288C91.9204 17.6667 92.0964 17.984 92.3204 18.24C92.5444 18.4907 92.811 18.68 93.1204 18.808C93.4297 18.9307 93.7764 18.992 94.1604 18.992C94.5177 18.992 94.8244 18.952 95.0804 18.872C95.3417 18.7867 95.5657 18.696 95.7524 18.6C95.939 18.504 96.0937 18.416 96.2164 18.336C96.3444 18.2507 96.4537 18.208 96.5444 18.208C96.6617 18.208 96.7524 18.2533 96.8164 18.344L97.2164 18.864C97.0404 19.0773 96.8297 19.264 96.5844 19.424C96.339 19.5787 96.075 19.7067 95.7924 19.808C95.515 19.9093 95.227 19.984 94.9284 20.032C94.6297 20.0853 94.3337 20.112 94.0404 20.112C93.4804 20.112 92.963 20.0187 92.4884 19.832C92.019 19.64 91.611 19.3627 91.2644 19C90.923 18.632 90.6564 18.1787 90.4644 17.64C90.2724 17.1013 90.1764 16.4827 90.1764 15.784C90.1764 15.2187 90.2617 14.6907 90.4324 14.2C90.6084 13.7093 90.859 13.2853 91.1844 12.928C91.5097 12.5653 91.907 12.2827 92.3764 12.08C92.8457 11.872 93.3737 11.768 93.9604 11.768ZM93.9924 12.816C93.3044 12.816 92.763 13.016 92.3684 13.416C91.9737 13.8107 91.7284 14.36 91.6324 15.064H96.0404C96.0404 14.7333 95.995 14.432 95.9044 14.16C95.8137 13.8827 95.6804 13.6453 95.5044 13.448C95.3284 13.2453 95.1124 13.0907 94.8564 12.984C94.6057 12.872 94.3177 12.816 93.9924 12.816ZM104.997 20C104.794 20 104.666 19.9013 104.613 19.704L104.485 18.72C104.138 19.1413 103.741 19.48 103.293 19.736C102.85 19.9867 102.341 20.112 101.765 20.112C101.301 20.112 100.88 20.024 100.501 19.848C100.122 19.6667 99.7997 19.4027 99.533 19.056C99.2663 18.7093 99.061 18.2773 98.917 17.76C98.773 17.2427 98.701 16.648 98.701 15.976C98.701 15.3787 98.781 14.824 98.941 14.312C99.101 13.7947 99.3303 13.3467 99.629 12.968C99.933 12.5893 100.301 12.2933 100.733 12.08C101.165 11.8613 101.656 11.752 102.205 11.752C102.701 11.752 103.125 11.8373 103.477 12.008C103.829 12.1733 104.144 12.408 104.421 12.712V8.216H105.845V20H104.997ZM102.237 18.96C102.701 18.96 103.106 18.8533 103.453 18.64C103.805 18.4267 104.128 18.1253 104.421 17.736V13.816C104.16 13.464 103.872 13.2187 103.557 13.08C103.248 12.936 102.904 12.864 102.525 12.864C101.768 12.864 101.186 13.1333 100.781 13.672C100.376 14.2107 100.173 14.9787 100.173 15.976C100.173 16.504 100.218 16.9573 100.309 17.336C100.4 17.7093 100.533 18.0187 100.709 18.264C100.885 18.504 101.101 18.68 101.357 18.792C101.613 18.904 101.906 18.96 102.237 18.96ZM109.965 11.896V20H108.541V11.896H109.965ZM110.285 9.352C110.285 9.49067 110.255 9.62133 110.197 9.744C110.143 9.86133 110.069 9.968 109.973 10.064C109.882 10.1547 109.775 10.2267 109.653 10.28C109.53 10.3333 109.399 10.36 109.261 10.36C109.122 10.36 108.991 10.3333 108.869 10.28C108.751 10.2267 108.645 10.1547 108.549 10.064C108.458 9.968 108.386 9.86133 108.333 9.744C108.279 9.62133 108.253 9.49067 108.253 9.352C108.253 9.21333 108.279 9.08267 108.333 8.96C108.386 8.832 108.458 8.72267 108.549 8.632C108.645 8.536 108.751 8.46133 108.869 8.408C108.991 8.35467 109.122 8.328 109.261 8.328C109.399 8.328 109.53 8.35467 109.653 8.408C109.775 8.46133 109.882 8.536 109.973 8.632C110.069 8.72267 110.143 8.832 110.197 8.96C110.255 9.08267 110.285 9.21333 110.285 9.352ZM115.832 11.768C116.318 11.768 116.766 11.8507 117.176 12.016C117.587 12.176 117.942 12.4107 118.24 12.72C118.539 13.024 118.771 13.4027 118.936 13.856C119.107 14.304 119.192 14.816 119.192 15.392C119.192 15.616 119.168 15.7653 119.12 15.84C119.072 15.9147 118.982 15.952 118.848 15.952H113.456C113.467 16.464 113.536 16.9093 113.664 17.288C113.792 17.6667 113.968 17.984 114.192 18.24C114.416 18.4907 114.683 18.68 114.992 18.808C115.302 18.9307 115.648 18.992 116.032 18.992C116.39 18.992 116.696 18.952 116.952 18.872C117.214 18.7867 117.438 18.696 117.624 18.6C117.811 18.504 117.966 18.416 118.088 18.336C118.216 18.2507 118.326 18.208 118.416 18.208C118.534 18.208 118.624 18.2533 118.688 18.344L119.088 18.864C118.912 19.0773 118.702 19.264 118.456 19.424C118.211 19.5787 117.947 19.7067 117.664 19.808C117.387 19.9093 117.099 19.984 116.8 20.032C116.502 20.0853 116.206 20.112 115.912 20.112C115.352 20.112 114.835 20.0187 114.36 19.832C113.891 19.64 113.483 19.3627 113.136 19C112.795 18.632 112.528 18.1787 112.336 17.64C112.144 17.1013 112.048 16.4827 112.048 15.784C112.048 15.2187 112.134 14.6907 112.304 14.2C112.48 13.7093 112.731 13.2853 113.056 12.928C113.382 12.5653 113.779 12.2827 114.248 12.08C114.718 11.872 115.246 11.768 115.832 11.768ZM115.864 12.816C115.176 12.816 114.635 13.016 114.24 13.416C113.846 13.8107 113.6 14.36 113.504 15.064H117.912C117.912 14.7333 117.867 14.432 117.776 14.16C117.686 13.8827 117.552 13.6453 117.376 13.448C117.2 13.2453 116.984 13.0907 116.728 12.984C116.478 12.872 116.19 12.816 115.864 12.816ZM121.165 20V11.896H122.013C122.216 11.896 122.344 11.9947 122.397 12.192L122.509 13.072C122.861 12.6827 123.253 12.368 123.685 12.128C124.122 11.888 124.626 11.768 125.197 11.768C125.64 11.768 126.029 11.8427 126.365 11.992C126.706 12.136 126.989 12.344 127.213 12.616C127.442 12.8827 127.616 13.2053 127.733 13.584C127.85 13.9627 127.909 14.3813 127.909 14.84V20H126.485V14.84C126.485 14.2267 126.344 13.752 126.061 13.416C125.784 13.0747 125.357 12.904 124.781 12.904C124.36 12.904 123.965 13.0053 123.597 13.208C123.234 13.4107 122.898 13.6853 122.589 14.032V20H121.165ZM132.661 20.128C132.021 20.128 131.528 19.9493 131.181 19.592C130.84 19.2347 130.669 18.72 130.669 18.048V13.088H129.693C129.608 13.088 129.536 13.064 129.477 13.016C129.419 12.9627 129.389 12.8827 129.389 12.776V12.208L130.717 12.04L131.045 9.536C131.056 9.456 131.091 9.392 131.149 9.344C131.208 9.29067 131.283 9.264 131.373 9.264H132.093V12.056H134.413V13.088H132.093V17.952C132.093 18.2933 132.176 18.5467 132.341 18.712C132.507 18.8773 132.72 18.96 132.981 18.96C133.131 18.96 133.259 18.9413 133.365 18.904C133.477 18.8613 133.573 18.816 133.653 18.768C133.733 18.72 133.8 18.6773 133.853 18.64C133.912 18.5973 133.963 18.576 134.005 18.576C134.08 18.576 134.147 18.6213 134.205 18.712L134.621 19.392C134.376 19.6213 134.08 19.8027 133.733 19.936C133.387 20.064 133.029 20.128 132.661 20.128ZM139.532 11.768C140.018 11.768 140.466 11.8507 140.876 12.016C141.287 12.176 141.642 12.4107 141.94 12.72C142.239 13.024 142.471 13.4027 142.636 13.856C142.807 14.304 142.892 14.816 142.892 15.392C142.892 15.616 142.868 15.7653 142.82 15.84C142.772 15.9147 142.682 15.952 142.548 15.952H137.156C137.167 16.464 137.236 16.9093 137.364 17.288C137.492 17.6667 137.668 17.984 137.892 18.24C138.116 18.4907 138.383 18.68 138.692 18.808C139.002 18.9307 139.348 18.992 139.732 18.992C140.09 18.992 140.396 18.952 140.652 18.872C140.914 18.7867 141.138 18.696 141.324 18.6C141.511 18.504 141.666 18.416 141.788 18.336C141.916 18.2507 142.026 18.208 142.116 18.208C142.234 18.208 142.324 18.2533 142.388 18.344L142.788 18.864C142.612 19.0773 142.402 19.264 142.156 19.424C141.911 19.5787 141.647 19.7067 141.364 19.808C141.087 19.9093 140.799 19.984 140.5 20.032C140.202 20.0853 139.906 20.112 139.612 20.112C139.052 20.112 138.535 20.0187 138.06 19.832C137.591 19.64 137.183 19.3627 136.836 19C136.495 18.632 136.228 18.1787 136.036 17.64C135.844 17.1013 135.748 16.4827 135.748 15.784C135.748 15.2187 135.834 14.6907 136.004 14.2C136.18 13.7093 136.431 13.2853 136.756 12.928C137.082 12.5653 137.479 12.2827 137.948 12.08C138.418 11.872 138.946 11.768 139.532 11.768ZM139.564 12.816C138.876 12.816 138.335 13.016 137.94 13.416C137.546 13.8107 137.3 14.36 137.204 15.064H141.612C141.612 14.7333 141.567 14.432 141.476 14.16C141.386 13.8827 141.252 13.6453 141.076 13.448C140.9 13.2453 140.684 13.0907 140.428 12.984C140.178 12.872 139.89 12.816 139.564 12.816ZM149.505 13.232C149.441 13.3493 149.342 13.408 149.209 13.408C149.129 13.408 149.038 13.3787 148.937 13.32C148.836 13.2613 148.71 13.1973 148.561 13.128C148.417 13.0533 148.244 12.9867 148.041 12.928C147.838 12.864 147.598 12.832 147.321 12.832C147.081 12.832 146.865 12.864 146.673 12.928C146.481 12.9867 146.316 13.0693 146.177 13.176C146.044 13.2827 145.94 13.408 145.865 13.552C145.796 13.6907 145.761 13.8427 145.761 14.008C145.761 14.216 145.82 14.3893 145.937 14.528C146.06 14.6667 146.22 14.7867 146.417 14.888C146.614 14.9893 146.838 15.08 147.089 15.16C147.34 15.2347 147.596 15.3173 147.857 15.408C148.124 15.4933 148.382 15.5893 148.633 15.696C148.884 15.8027 149.108 15.936 149.305 16.096C149.502 16.256 149.66 16.4533 149.777 16.688C149.9 16.9173 149.961 17.1947 149.961 17.52C149.961 17.8933 149.894 18.24 149.761 18.56C149.628 18.8747 149.43 19.1493 149.169 19.384C148.908 19.6133 148.588 19.7947 148.209 19.928C147.83 20.0613 147.393 20.128 146.897 20.128C146.332 20.128 145.82 20.0373 145.361 19.856C144.902 19.6693 144.513 19.432 144.193 19.144L144.529 18.6C144.572 18.5307 144.622 18.4773 144.681 18.44C144.74 18.4027 144.817 18.384 144.913 18.384C145.009 18.384 145.11 18.4213 145.217 18.496C145.324 18.5707 145.452 18.6533 145.601 18.744C145.756 18.8347 145.94 18.9173 146.153 18.992C146.372 19.0667 146.644 19.104 146.969 19.104C147.246 19.104 147.489 19.0693 147.697 19C147.905 18.9253 148.078 18.8267 148.217 18.704C148.356 18.5813 148.457 18.44 148.521 18.28C148.59 18.12 148.625 17.9493 148.625 17.768C148.625 17.544 148.564 17.36 148.441 17.216C148.324 17.0667 148.166 16.9413 147.969 16.84C147.772 16.7333 147.545 16.6427 147.289 16.568C147.038 16.488 146.78 16.4053 146.513 16.32C146.252 16.2347 145.993 16.1387 145.737 16.032C145.486 15.92 145.262 15.7813 145.065 15.616C144.868 15.4507 144.708 15.248 144.585 15.008C144.468 14.7627 144.409 14.4667 144.409 14.12C144.409 13.8107 144.473 13.5147 144.601 13.232C144.729 12.944 144.916 12.6933 145.161 12.48C145.406 12.2613 145.708 12.088 146.065 11.96C146.422 11.832 146.83 11.768 147.289 11.768C147.822 11.768 148.3 11.8533 148.721 12.024C149.148 12.1893 149.516 12.4187 149.825 12.712L149.505 13.232Z" fill="white"/>
</svg>
