<svg width="280" height="48" viewBox="0 0 280 48" fill="none" xmlns="http://www.w3.org/2000/svg">
<rect width="280" height="48" rx="24" fill="#FF6464"/>
<path d="M103.51 24.9795C104.042 24.9795 104.511 24.9162 104.916 24.7895C105.328 24.6565 105.67 24.4728 105.942 24.2385C106.221 23.9978 106.43 23.7128 106.569 23.3835C106.708 23.0542 106.778 22.69 106.778 22.291C106.778 21.4803 106.512 20.8692 105.98 20.4575C105.448 20.0458 104.65 19.84 103.586 19.84H101.572V24.9795H103.51ZM109.799 32H108.165C107.829 32 107.582 31.8702 107.424 31.6105L103.89 26.7465C103.782 26.5945 103.665 26.4868 103.539 26.4235C103.418 26.3538 103.228 26.319 102.969 26.319H101.572V32H99.7385V18.3865H103.586C104.447 18.3865 105.192 18.4752 105.819 18.6525C106.446 18.8235 106.962 19.0737 107.367 19.403C107.779 19.7323 108.083 20.1313 108.279 20.6C108.475 21.0623 108.574 21.5817 108.574 22.158C108.574 22.6393 108.498 23.089 108.346 23.507C108.194 23.925 107.972 24.3018 107.681 24.6375C107.396 24.9668 107.044 25.2487 106.626 25.483C106.214 25.7173 105.746 25.8947 105.22 26.015C105.454 26.148 105.657 26.3412 105.828 26.5945L109.799 32ZM117.08 26.1385C117.08 25.7458 117.023 25.388 116.909 25.065C116.802 24.7357 116.64 24.4538 116.425 24.2195C116.216 23.9788 115.959 23.7952 115.655 23.6685C115.351 23.5355 115.006 23.469 114.62 23.469C113.809 23.469 113.166 23.7065 112.691 24.1815C112.223 24.6502 111.931 25.3025 111.817 26.1385H117.08ZM118.448 30.651C118.239 30.9043 117.989 31.126 117.698 31.316C117.406 31.4997 117.093 31.6517 116.757 31.772C116.428 31.8923 116.086 31.981 115.731 32.038C115.377 32.1013 115.025 32.133 114.677 32.133C114.012 32.133 113.397 32.0222 112.834 31.8005C112.276 31.5725 111.792 31.2432 111.38 30.8125C110.975 30.3755 110.658 29.8372 110.43 29.1975C110.202 28.5578 110.088 27.8232 110.088 26.9935C110.088 26.3222 110.19 25.6952 110.392 25.1125C110.601 24.5298 110.899 24.0263 111.285 23.602C111.672 23.1713 112.143 22.8357 112.701 22.595C113.258 22.348 113.885 22.2245 114.582 22.2245C115.158 22.2245 115.69 22.3227 116.178 22.519C116.672 22.709 117.096 22.9877 117.451 23.355C117.812 23.716 118.094 24.1657 118.296 24.704C118.499 25.236 118.6 25.844 118.6 26.528C118.6 26.794 118.572 26.9713 118.515 27.06C118.458 27.1487 118.35 27.193 118.192 27.193H111.76C111.779 27.801 111.862 28.3298 112.007 28.7795C112.159 29.2292 112.368 29.606 112.634 29.91C112.9 30.2077 113.217 30.4325 113.584 30.5845C113.952 30.7302 114.363 30.803 114.819 30.803C115.244 30.803 115.608 30.7555 115.912 30.6605C116.222 30.5592 116.488 30.4515 116.71 30.3375C116.931 30.2235 117.115 30.119 117.261 30.024C117.413 29.9227 117.543 29.872 117.65 29.872C117.79 29.872 117.897 29.9258 117.973 30.0335L118.448 30.651ZM124.031 27.2975C124.373 27.2975 124.674 27.25 124.933 27.155C125.193 27.06 125.412 26.927 125.589 26.756C125.766 26.585 125.899 26.3823 125.988 26.148C126.077 25.9073 126.121 25.6445 126.121 25.3595C126.121 24.7705 125.94 24.3018 125.579 23.9535C125.225 23.6052 124.709 23.431 124.031 23.431C123.347 23.431 122.824 23.6052 122.463 23.9535C122.109 24.3018 121.931 24.7705 121.931 25.3595C121.931 25.6445 121.976 25.9073 122.064 26.148C122.159 26.3823 122.296 26.585 122.473 26.756C122.65 26.927 122.869 27.06 123.128 27.155C123.388 27.25 123.689 27.2975 124.031 27.2975ZM127.08 32.5225C127.08 32.2882 127.014 32.0982 126.881 31.9525C126.748 31.8068 126.567 31.6928 126.339 31.6105C126.118 31.5282 125.858 31.4712 125.56 31.4395C125.263 31.4015 124.946 31.373 124.61 31.354C124.281 31.335 123.945 31.316 123.603 31.297C123.261 31.278 122.932 31.2463 122.615 31.202C122.261 31.3667 121.969 31.5757 121.741 31.829C121.52 32.076 121.409 32.3673 121.409 32.703C121.409 32.9183 121.463 33.1178 121.57 33.3015C121.684 33.4915 121.855 33.653 122.083 33.786C122.311 33.9253 122.596 34.033 122.938 34.109C123.287 34.1913 123.695 34.2325 124.164 34.2325C124.62 34.2325 125.028 34.1913 125.389 34.109C125.75 34.0267 126.054 33.9095 126.301 33.7575C126.555 33.6055 126.748 33.425 126.881 33.216C127.014 33.007 127.08 32.7758 127.08 32.5225ZM128.8 22.7565V23.3835C128.8 23.5925 128.667 23.7255 128.401 23.7825L127.308 23.925C127.524 24.343 127.631 24.8053 127.631 25.312C127.631 25.7807 127.54 26.2082 127.356 26.5945C127.179 26.9745 126.932 27.3007 126.615 27.573C126.298 27.8453 125.918 28.0543 125.475 28.2C125.032 28.3457 124.55 28.4185 124.031 28.4185C123.581 28.4185 123.157 28.3647 122.758 28.257C122.555 28.3837 122.4 28.5198 122.292 28.6655C122.185 28.8048 122.131 28.9473 122.131 29.093C122.131 29.321 122.223 29.4952 122.406 29.6155C122.596 29.7295 122.843 29.8118 123.147 29.8625C123.451 29.9132 123.797 29.9448 124.183 29.9575C124.576 29.9702 124.975 29.9923 125.38 30.024C125.792 30.0493 126.191 30.0968 126.577 30.1665C126.97 30.2362 127.318 30.3502 127.622 30.5085C127.926 30.6668 128.17 30.8853 128.353 31.164C128.543 31.4427 128.638 31.8037 128.638 32.247C128.638 32.6587 128.534 33.0577 128.325 33.444C128.122 33.8303 127.828 34.1723 127.441 34.47C127.055 34.774 126.58 35.0147 126.016 35.192C125.459 35.3757 124.829 35.4675 124.126 35.4675C123.423 35.4675 122.809 35.3978 122.283 35.2585C121.757 35.1192 121.32 34.9323 120.972 34.698C120.624 34.4637 120.361 34.1913 120.183 33.881C120.012 33.577 119.927 33.2572 119.927 32.9215C119.927 32.4465 120.076 32.0443 120.373 31.715C120.671 31.3857 121.08 31.1228 121.599 30.9265C121.314 30.7998 121.086 30.632 120.915 30.423C120.75 30.2077 120.668 29.9195 120.668 29.5585C120.668 29.4192 120.693 29.2767 120.744 29.131C120.795 28.979 120.871 28.8302 120.972 28.6845C121.08 28.5325 121.209 28.39 121.361 28.257C121.513 28.124 121.691 28.0068 121.893 27.9055C121.418 27.6395 121.048 27.288 120.782 26.851C120.516 26.4077 120.383 25.8947 120.383 25.312C120.383 24.8433 120.472 24.419 120.649 24.039C120.833 23.6527 121.086 23.3265 121.409 23.0605C121.732 22.7882 122.115 22.5792 122.558 22.4335C123.008 22.2878 123.499 22.215 124.031 22.215C124.449 22.215 124.838 22.2625 125.199 22.3575C125.56 22.4462 125.89 22.5792 126.187 22.7565H128.8ZM132.344 22.3765V32H130.643V22.3765H132.344ZM134.301 18.2345L132.087 20.6855C131.999 20.7805 131.91 20.8502 131.821 20.8945C131.739 20.9325 131.631 20.9515 131.498 20.9515H130.491L131.897 18.6525C131.986 18.5068 132.081 18.4023 132.182 18.339C132.29 18.2693 132.445 18.2345 132.648 18.2345H134.301ZM140.718 23.963C140.642 24.1023 140.525 24.172 140.366 24.172C140.271 24.172 140.164 24.1372 140.043 24.0675C139.923 23.9978 139.774 23.9218 139.597 23.8395C139.426 23.7508 139.22 23.6717 138.979 23.602C138.739 23.526 138.454 23.488 138.124 23.488C137.839 23.488 137.583 23.526 137.355 23.602C137.127 23.6717 136.931 23.7698 136.766 23.8965C136.608 24.0232 136.484 24.172 136.395 24.343C136.313 24.5077 136.272 24.6882 136.272 24.8845C136.272 25.1315 136.342 25.3373 136.481 25.502C136.627 25.6667 136.817 25.8092 137.051 25.9295C137.285 26.0498 137.551 26.1575 137.849 26.2525C138.147 26.3412 138.451 26.4393 138.761 26.547C139.078 26.6483 139.385 26.7623 139.682 26.889C139.98 27.0157 140.246 27.174 140.48 27.364C140.715 27.554 140.902 27.7883 141.041 28.067C141.187 28.3393 141.259 28.6687 141.259 29.055C141.259 29.4983 141.18 29.91 141.022 30.29C140.864 30.6637 140.629 30.9898 140.319 31.2685C140.009 31.5408 139.629 31.7562 139.179 31.9145C138.729 32.0728 138.21 32.152 137.621 32.152C136.95 32.152 136.342 32.0443 135.797 31.829C135.252 31.6073 134.79 31.3255 134.41 30.9835L134.809 30.3375C134.86 30.2552 134.92 30.1918 134.989 30.1475C135.059 30.1032 135.148 30.081 135.255 30.081C135.369 30.081 135.49 30.1253 135.616 30.214C135.743 30.3027 135.895 30.4008 136.072 30.5085C136.256 30.6162 136.478 30.7143 136.737 30.803C136.997 30.8917 137.32 30.936 137.706 30.936C138.036 30.936 138.324 30.8948 138.571 30.8125C138.818 30.7238 139.024 30.6067 139.188 30.461C139.353 30.3153 139.473 30.1475 139.549 29.9575C139.632 29.7675 139.673 29.5648 139.673 29.3495C139.673 29.0835 139.6 28.865 139.454 28.694C139.315 28.5167 139.128 28.3678 138.894 28.2475C138.66 28.1208 138.39 28.0132 138.086 27.9245C137.789 27.8295 137.482 27.7313 137.165 27.63C136.855 27.5287 136.547 27.4147 136.243 27.288C135.946 27.155 135.68 26.9903 135.445 26.794C135.211 26.5977 135.021 26.357 134.875 26.072C134.736 25.7807 134.666 25.4292 134.666 25.0175C134.666 24.6502 134.742 24.2987 134.894 23.963C135.046 23.621 135.268 23.3233 135.559 23.07C135.851 22.8103 136.209 22.6045 136.633 22.4525C137.057 22.3005 137.542 22.2245 138.086 22.2245C138.72 22.2245 139.287 22.3258 139.787 22.5285C140.294 22.7248 140.731 22.9972 141.098 23.3455L140.718 23.963ZM146.287 32.152C145.527 32.152 144.941 31.9398 144.53 31.5155C144.124 31.0912 143.922 30.48 143.922 29.682V23.792H142.763C142.661 23.792 142.576 23.7635 142.506 23.7065C142.436 23.6432 142.402 23.5482 142.402 23.4215V22.747L143.979 22.5475L144.368 19.574C144.387 19.479 144.428 19.403 144.492 19.346C144.561 19.2827 144.65 19.251 144.758 19.251H145.613V22.5665H148.396V23.792H145.613V29.568C145.613 29.9733 145.711 30.2742 145.907 30.4705C146.103 30.6668 146.357 30.765 146.667 30.765C146.844 30.765 146.996 30.7428 147.123 30.6985C147.256 30.6478 147.37 30.594 147.465 30.537C147.56 30.48 147.639 30.4293 147.703 30.385C147.772 30.3343 147.832 30.309 147.883 30.309C147.972 30.309 148.051 30.3628 148.121 30.4705L148.615 31.278C148.323 31.5503 147.972 31.7657 147.56 31.924C147.148 32.076 146.724 32.152 146.287 32.152ZM151.748 24.305C152.052 23.6463 152.425 23.1333 152.869 22.766C153.312 22.3923 153.854 22.2055 154.493 22.2055C154.696 22.2055 154.889 22.2277 155.073 22.272C155.263 22.3163 155.431 22.386 155.576 22.481L155.453 23.7445C155.415 23.9028 155.32 23.982 155.168 23.982C155.079 23.982 154.949 23.963 154.778 23.925C154.607 23.887 154.414 23.868 154.199 23.868C153.895 23.868 153.622 23.9123 153.382 24.001C153.147 24.0897 152.935 24.2227 152.745 24.4C152.562 24.571 152.394 24.7863 152.242 25.046C152.096 25.2993 151.963 25.5907 151.843 25.92V32H150.142V22.3765H151.111C151.295 22.3765 151.422 22.4113 151.491 22.481C151.561 22.5507 151.608 22.671 151.634 22.842L151.748 24.305ZM162.13 27.668C161.351 27.6933 160.686 27.7567 160.135 27.858C159.591 27.953 159.144 28.0797 158.796 28.238C158.454 28.3963 158.204 28.5832 158.045 28.7985C157.893 29.0138 157.817 29.2545 157.817 29.5205C157.817 29.7738 157.858 29.9923 157.941 30.176C158.023 30.3597 158.134 30.5117 158.273 30.632C158.419 30.746 158.587 30.8315 158.777 30.8885C158.973 30.9392 159.182 30.9645 159.404 30.9645C159.701 30.9645 159.974 30.936 160.221 30.879C160.468 30.8157 160.699 30.727 160.914 30.613C161.136 30.499 161.345 30.3628 161.541 30.2045C161.744 30.0462 161.94 29.8657 162.13 29.663V27.668ZM156.668 23.735C157.2 23.222 157.773 22.8388 158.387 22.5855C159.002 22.3322 159.682 22.2055 160.43 22.2055C160.968 22.2055 161.446 22.2942 161.864 22.4715C162.282 22.6488 162.634 22.8958 162.919 23.2125C163.204 23.5292 163.419 23.9123 163.565 24.362C163.71 24.8117 163.783 25.3057 163.783 25.844V32H163.033C162.868 32 162.741 31.9747 162.653 31.924C162.564 31.867 162.494 31.7593 162.444 31.601L162.254 30.689C162 30.9233 161.753 31.1323 161.513 31.316C161.272 31.4933 161.019 31.6453 160.753 31.772C160.487 31.8923 160.202 31.9842 159.898 32.0475C159.6 32.1172 159.268 32.152 158.9 32.152C158.527 32.152 158.175 32.1013 157.846 32C157.516 31.8923 157.228 31.734 156.981 31.525C156.741 31.316 156.547 31.0532 156.402 30.7365C156.262 30.4135 156.193 30.0335 156.193 29.5965C156.193 29.2165 156.297 28.8523 156.506 28.504C156.715 28.1493 157.054 27.8358 157.523 27.5635C157.991 27.2912 158.603 27.0695 159.356 26.8985C160.11 26.7212 161.035 26.6198 162.13 26.5945V25.844C162.13 25.0967 161.969 24.533 161.646 24.153C161.323 23.7667 160.851 23.5735 160.23 23.5735C159.812 23.5735 159.461 23.6273 159.176 23.735C158.897 23.8363 158.653 23.9535 158.444 24.0865C158.242 24.2132 158.064 24.3303 157.912 24.438C157.767 24.5393 157.621 24.59 157.475 24.59C157.361 24.59 157.263 24.5615 157.181 24.5045C157.098 24.4412 157.029 24.3652 156.972 24.2765L156.668 23.735ZM169.184 32.152C168.424 32.152 167.838 31.9398 167.426 31.5155C167.021 31.0912 166.818 30.48 166.818 29.682V23.792H165.659C165.558 23.792 165.472 23.7635 165.403 23.7065C165.333 23.6432 165.298 23.5482 165.298 23.4215V22.747L166.875 22.5475L167.265 19.574C167.284 19.479 167.325 19.403 167.388 19.346C167.458 19.2827 167.546 19.251 167.654 19.251H168.509V22.5665H171.293V23.792H168.509V29.568C168.509 29.9733 168.607 30.2742 168.804 30.4705C169 30.6668 169.253 30.765 169.564 30.765C169.741 30.765 169.893 30.7428 170.02 30.6985C170.153 30.6478 170.267 30.594 170.362 30.537C170.457 30.48 170.536 30.4293 170.599 30.385C170.669 30.3343 170.729 30.309 170.78 30.309C170.868 30.309 170.947 30.3628 171.017 30.4705L171.511 31.278C171.22 31.5503 170.868 31.7657 170.457 31.924C170.045 32.076 169.621 32.152 169.184 32.152ZM179.424 26.1385C179.424 25.7458 179.367 25.388 179.253 25.065C179.145 24.7357 178.984 24.4538 178.769 24.2195C178.56 23.9788 178.303 23.7952 177.999 23.6685C177.695 23.5355 177.35 23.469 176.964 23.469C176.153 23.469 175.51 23.7065 175.035 24.1815C174.566 24.6502 174.275 25.3025 174.161 26.1385H179.424ZM180.792 30.651C180.583 30.9043 180.333 31.126 180.042 31.316C179.75 31.4997 179.437 31.6517 179.101 31.772C178.772 31.8923 178.43 31.981 178.075 32.038C177.72 32.1013 177.369 32.133 177.021 32.133C176.356 32.133 175.741 32.0222 175.178 31.8005C174.62 31.5725 174.136 31.2432 173.724 30.8125C173.319 30.3755 173.002 29.8372 172.774 29.1975C172.546 28.5578 172.432 27.8232 172.432 26.9935C172.432 26.3222 172.533 25.6952 172.736 25.1125C172.945 24.5298 173.243 24.0263 173.629 23.602C174.015 23.1713 174.487 22.8357 175.045 22.595C175.602 22.348 176.229 22.2245 176.926 22.2245C177.502 22.2245 178.034 22.3227 178.522 22.519C179.016 22.709 179.44 22.9877 179.795 23.355C180.156 23.716 180.437 24.1657 180.64 24.704C180.843 25.236 180.944 25.844 180.944 26.528C180.944 26.794 180.916 26.9713 180.859 27.06C180.802 27.1487 180.694 27.193 180.536 27.193H174.104C174.123 27.801 174.205 28.3298 174.351 28.7795C174.503 29.2292 174.712 29.606 174.978 29.91C175.244 30.2077 175.561 30.4325 175.928 30.5845C176.295 30.7302 176.707 30.803 177.163 30.803C177.587 30.803 177.952 30.7555 178.256 30.6605C178.566 30.5592 178.832 30.4515 179.054 30.3375C179.275 30.2235 179.459 30.119 179.605 30.024C179.757 29.9227 179.886 29.872 179.994 29.872C180.133 29.872 180.241 29.9258 180.317 30.0335L180.792 30.651Z" fill="#24241C"/>
</svg>
