<svg width="116" height="36" viewBox="0 0 116 36" fill="none" xmlns="http://www.w3.org/2000/svg">
<rect width="116" height="36" rx="18" fill="#FF6464"/>
<path d="M46.762 13.6855L42.966 23H41.835L38.039 13.6855H39.0465C39.1592 13.6855 39.2502 13.7137 39.3195 13.77C39.3888 13.8263 39.4408 13.8978 39.4755 13.9845L42.1015 20.556C42.1578 20.7033 42.212 20.8637 42.264 21.037C42.3203 21.2103 42.3702 21.3923 42.4135 21.583C42.4568 21.3923 42.5023 21.2103 42.55 21.037C42.5977 20.8637 42.6497 20.7033 42.706 20.556L45.3255 13.9845C45.3515 13.9108 45.4013 13.8437 45.475 13.783C45.553 13.718 45.6462 13.6855 45.7545 13.6855H46.762ZM53.7854 21.973L53.7789 23H48.0394V13.6855H53.7789V14.7125H49.3004V17.8065H52.9274V18.7945H49.3004V21.973H53.7854ZM61.8928 14.745H58.8768V23H57.6223V14.745H54.5998V13.6855H61.8928V14.745ZM67.3594 19.542L65.8969 15.7525C65.8535 15.6398 65.808 15.5098 65.7604 15.3625C65.7127 15.2108 65.6672 15.0505 65.6239 14.8815C65.5329 15.2325 65.4397 15.525 65.3444 15.759L63.8819 19.542H67.3594ZM69.9854 23H69.0104C68.8977 23 68.8067 22.9718 68.7374 22.9155C68.6681 22.8592 68.6161 22.7877 68.5814 22.701L67.7104 20.452H63.5309L62.6599 22.701C62.6339 22.779 62.584 22.8483 62.5104 22.909C62.4367 22.9697 62.3457 23 62.2374 23H61.2624L64.9869 13.6855H66.2609L69.9854 23ZM73.8432 18.1965C74.2072 18.1965 74.5279 18.1532 74.8052 18.0665C75.0869 17.9755 75.3209 17.8498 75.5072 17.6895C75.6979 17.5248 75.8409 17.3298 75.9362 17.1045C76.0316 16.8792 76.0792 16.63 76.0792 16.357C76.0792 15.8023 75.8972 15.3842 75.5332 15.1025C75.1692 14.8208 74.6232 14.68 73.8952 14.68H72.5172V18.1965H73.8432ZM78.1462 23H77.0282C76.7986 23 76.6296 22.9112 76.5212 22.7335L74.1032 19.4055C74.0296 19.3015 73.9494 19.2278 73.8627 19.1845C73.7804 19.1368 73.6504 19.113 73.4727 19.113H72.5172V23H71.2627V13.6855H73.8952C74.4846 13.6855 74.9937 13.7462 75.4227 13.8675C75.8517 13.9845 76.2049 14.1557 76.4822 14.381C76.7639 14.6063 76.9719 14.8793 77.1062 15.2C77.2406 15.5163 77.3077 15.8717 77.3077 16.266C77.3077 16.5953 77.2557 16.903 77.1517 17.189C77.0477 17.475 76.8961 17.7328 76.6967 17.9625C76.5017 18.1878 76.2612 18.3807 75.9752 18.541C75.6936 18.7013 75.3729 18.8227 75.0132 18.905C75.1736 18.996 75.3122 19.1282 75.4292 19.3015L78.1462 23Z" fill="#24241C"/>
</svg>
