<svg width="280" height="48" viewBox="0 0 280 48" fill="none" xmlns="http://www.w3.org/2000/svg">
<path d="M0 24C0 10.7452 10.7452 0 24 0H256C269.255 0 280 10.7452 280 24C280 37.2548 269.255 48 256 48H24C10.7452 48 0 37.2548 0 24Z" fill="#FF6464"/>
<path d="M97.2955 29.188C97.3968 29.188 97.4855 29.2292 97.5615 29.3115L98.293 30.1C97.7357 30.746 97.058 31.2495 96.26 31.6105C95.4683 31.9715 94.5088 32.152 93.3815 32.152C92.4062 32.152 91.5195 31.9842 90.7215 31.6485C89.9235 31.3065 89.2427 30.8315 88.679 30.2235C88.1153 29.6092 87.6783 28.8745 87.368 28.0195C87.0577 27.1645 86.9025 26.224 86.9025 25.198C86.9025 24.172 87.064 23.2315 87.387 22.3765C87.71 21.5215 88.1628 20.7868 88.7455 20.1725C89.3345 19.5582 90.0375 19.0832 90.8545 18.7475C91.6715 18.4055 92.574 18.2345 93.562 18.2345C94.531 18.2345 95.386 18.3897 96.127 18.7C96.868 19.0103 97.5203 19.4315 98.084 19.9635L97.476 20.809C97.438 20.8723 97.3873 20.9262 97.324 20.9705C97.267 21.0085 97.1878 21.0275 97.0865 21.0275C96.9725 21.0275 96.8332 20.9673 96.6685 20.847C96.5038 20.7203 96.2885 20.581 96.0225 20.429C95.7565 20.277 95.424 20.1408 95.025 20.0205C94.626 19.8938 94.1352 19.8305 93.5525 19.8305C92.8495 19.8305 92.2067 19.954 91.624 20.201C91.0413 20.4417 90.5378 20.7932 90.1135 21.2555C89.6955 21.7178 89.3693 22.2815 89.135 22.9465C88.9007 23.6115 88.7835 24.362 88.7835 25.198C88.7835 26.0467 88.9038 26.8035 89.1445 27.4685C89.3915 28.1335 89.724 28.6972 90.142 29.1595C90.5663 29.6155 91.0635 29.9638 91.6335 30.2045C92.2098 30.4452 92.8305 30.5655 93.4955 30.5655C93.9008 30.5655 94.265 30.5433 94.588 30.499C94.9173 30.4483 95.2182 30.3723 95.4905 30.271C95.7692 30.1697 96.0257 30.043 96.26 29.891C96.5007 29.7327 96.7382 29.5458 96.9725 29.3305C97.0802 29.2355 97.1878 29.188 97.2955 29.188ZM101.581 24.305C101.885 23.6463 102.258 23.1333 102.702 22.766C103.145 22.3923 103.687 22.2055 104.326 22.2055C104.529 22.2055 104.722 22.2277 104.906 22.272C105.096 22.3163 105.264 22.386 105.409 22.481L105.286 23.7445C105.248 23.9028 105.153 23.982 105.001 23.982C104.912 23.982 104.782 23.963 104.611 23.925C104.44 23.887 104.247 23.868 104.032 23.868C103.728 23.868 103.455 23.9123 103.215 24.001C102.98 24.0897 102.768 24.2227 102.578 24.4C102.395 24.571 102.227 24.7863 102.075 25.046C101.929 25.2993 101.796 25.5907 101.676 25.92V32H99.9752V22.3765H100.944C101.128 22.3765 101.255 22.4113 101.324 22.481C101.394 22.5507 101.441 22.671 101.467 22.842L101.581 24.305ZM112.947 26.1385C112.947 25.7458 112.89 25.388 112.776 25.065C112.669 24.7357 112.507 24.4538 112.292 24.2195C112.083 23.9788 111.826 23.7952 111.522 23.6685C111.218 23.5355 110.873 23.469 110.487 23.469C109.676 23.469 109.033 23.7065 108.558 24.1815C108.09 24.6502 107.798 25.3025 107.684 26.1385H112.947ZM114.315 30.651C114.106 30.9043 113.856 31.126 113.565 31.316C113.274 31.4997 112.96 31.6517 112.624 31.772C112.295 31.8923 111.953 31.981 111.598 32.038C111.244 32.1013 110.892 32.133 110.544 32.133C109.879 32.133 109.265 32.0222 108.701 31.8005C108.144 31.5725 107.659 31.2432 107.247 30.8125C106.842 30.3755 106.525 29.8372 106.297 29.1975C106.069 28.5578 105.955 27.8232 105.955 26.9935C105.955 26.3222 106.057 25.6952 106.259 25.1125C106.468 24.5298 106.766 24.0263 107.152 23.602C107.539 23.1713 108.011 22.8357 108.568 22.595C109.125 22.348 109.752 22.2245 110.449 22.2245C111.025 22.2245 111.557 22.3227 112.045 22.519C112.539 22.709 112.963 22.9877 113.318 23.355C113.679 23.716 113.961 24.1657 114.163 24.704C114.366 25.236 114.467 25.844 114.467 26.528C114.467 26.794 114.439 26.9713 114.382 27.06C114.325 27.1487 114.217 27.193 114.059 27.193H107.627C107.646 27.801 107.729 28.3298 107.874 28.7795C108.026 29.2292 108.235 29.606 108.501 29.91C108.767 30.2077 109.084 30.4325 109.451 30.5845C109.819 30.7302 110.23 30.803 110.686 30.803C111.111 30.803 111.475 30.7555 111.779 30.6605C112.089 30.5592 112.355 30.4515 112.577 30.3375C112.799 30.2235 112.982 30.119 113.128 30.024C113.28 29.9227 113.41 29.872 113.517 29.872C113.657 29.872 113.764 29.9258 113.84 30.0335L114.315 30.651ZM121.76 27.668C120.981 27.6933 120.316 27.7567 119.765 27.858C119.22 27.953 118.774 28.0797 118.426 28.238C118.084 28.3963 117.833 28.5832 117.675 28.7985C117.523 29.0138 117.447 29.2545 117.447 29.5205C117.447 29.7738 117.488 29.9923 117.571 30.176C117.653 30.3597 117.764 30.5117 117.903 30.632C118.049 30.746 118.217 30.8315 118.407 30.8885C118.603 30.9392 118.812 30.9645 119.034 30.9645C119.331 30.9645 119.604 30.936 119.851 30.879C120.098 30.8157 120.329 30.727 120.544 30.613C120.766 30.499 120.975 30.3628 121.171 30.2045C121.374 30.0462 121.57 29.8657 121.76 29.663V27.668ZM116.298 23.735C116.83 23.222 117.403 22.8388 118.017 22.5855C118.631 22.3322 119.312 22.2055 120.06 22.2055C120.598 22.2055 121.076 22.2942 121.494 22.4715C121.912 22.6488 122.264 22.8958 122.549 23.2125C122.834 23.5292 123.049 23.9123 123.195 24.362C123.34 24.8117 123.413 25.3057 123.413 25.844V32H122.663C122.498 32 122.371 31.9747 122.283 31.924C122.194 31.867 122.124 31.7593 122.074 31.601L121.884 30.689C121.63 30.9233 121.383 31.1323 121.143 31.316C120.902 31.4933 120.649 31.6453 120.383 31.772C120.117 31.8923 119.832 31.9842 119.528 32.0475C119.23 32.1172 118.897 32.152 118.53 32.152C118.156 32.152 117.805 32.1013 117.476 32C117.146 31.8923 116.858 31.734 116.611 31.525C116.37 31.316 116.177 31.0532 116.032 30.7365C115.892 30.4135 115.823 30.0335 115.823 29.5965C115.823 29.2165 115.927 28.8523 116.136 28.504C116.345 28.1493 116.684 27.8358 117.153 27.5635C117.621 27.2912 118.232 27.0695 118.986 26.8985C119.74 26.7212 120.664 26.6198 121.76 26.5945V25.844C121.76 25.0967 121.599 24.533 121.276 24.153C120.953 23.7667 120.481 23.5735 119.86 23.5735C119.442 23.5735 119.091 23.6273 118.806 23.735C118.527 23.8363 118.283 23.9535 118.074 24.0865C117.871 24.2132 117.694 24.3303 117.542 24.438C117.396 24.5393 117.251 24.59 117.105 24.59C116.991 24.59 116.893 24.5615 116.811 24.5045C116.728 24.4412 116.659 24.3652 116.602 24.2765L116.298 23.735ZM127.594 24.305C127.898 23.6463 128.272 23.1333 128.715 22.766C129.159 22.3923 129.7 22.2055 130.34 22.2055C130.543 22.2055 130.736 22.2277 130.919 22.272C131.109 22.3163 131.277 22.386 131.423 22.481L131.299 23.7445C131.261 23.9028 131.166 23.982 131.014 23.982C130.926 23.982 130.796 23.963 130.625 23.925C130.454 23.887 130.261 23.868 130.045 23.868C129.741 23.868 129.469 23.9123 129.228 24.001C128.994 24.0897 128.782 24.2227 128.592 24.4C128.408 24.571 128.24 24.7863 128.088 25.046C127.943 25.2993 127.81 25.5907 127.689 25.92V32H125.989V22.3765H126.958C127.142 22.3765 127.268 22.4113 127.338 22.481C127.408 22.5507 127.455 22.671 127.48 22.842L127.594 24.305ZM144.06 24.0865C144.01 24.1562 143.959 24.21 143.908 24.248C143.858 24.286 143.788 24.305 143.699 24.305C143.604 24.305 143.5 24.267 143.386 24.191C143.272 24.1087 143.129 24.02 142.958 23.925C142.794 23.83 142.588 23.7445 142.341 23.6685C142.1 23.5862 141.803 23.545 141.448 23.545C140.973 23.545 140.555 23.6305 140.194 23.8015C139.833 23.9662 139.529 24.2068 139.282 24.5235C139.041 24.8402 138.858 25.2233 138.731 25.673C138.611 26.1227 138.55 26.6262 138.55 27.1835C138.55 27.7662 138.617 28.2855 138.75 28.7415C138.883 29.1912 139.07 29.5712 139.31 29.8815C139.557 30.1855 139.852 30.4198 140.194 30.5845C140.542 30.7428 140.932 30.822 141.362 30.822C141.774 30.822 142.113 30.7745 142.379 30.6795C142.645 30.5782 142.863 30.4673 143.034 30.347C143.212 30.2267 143.357 30.119 143.471 30.024C143.592 29.9227 143.709 29.872 143.823 29.872C143.962 29.872 144.07 29.9258 144.146 30.0335L144.621 30.651C144.412 30.9107 144.174 31.1323 143.908 31.316C143.642 31.4997 143.354 31.6548 143.044 31.7815C142.74 31.9018 142.42 31.9905 142.084 32.0475C141.749 32.1045 141.407 32.133 141.058 32.133C140.457 32.133 139.896 32.0222 139.377 31.8005C138.864 31.5788 138.417 31.259 138.037 30.841C137.657 30.4167 137.36 29.8973 137.144 29.283C136.929 28.6687 136.821 27.9688 136.821 27.1835C136.821 26.4678 136.92 25.806 137.116 25.198C137.319 24.59 137.61 24.0675 137.99 23.6305C138.376 23.1872 138.848 22.842 139.405 22.595C139.969 22.348 140.615 22.2245 141.343 22.2245C142.021 22.2245 142.616 22.3353 143.129 22.557C143.649 22.7723 144.108 23.0795 144.507 23.4785L144.06 24.0865ZM154.35 22.3765V32H153.343C153.102 32 152.95 31.8828 152.887 31.6485L152.754 30.613C152.336 31.0753 151.867 31.449 151.348 31.734C150.828 32.0127 150.233 32.152 149.562 32.152C149.036 32.152 148.571 32.0665 148.165 31.8955C147.766 31.7182 147.431 31.4712 147.158 31.1545C146.886 30.8378 146.68 30.4547 146.541 30.005C146.408 29.5553 146.341 29.0582 146.341 28.5135V22.3765H148.032V28.5135C148.032 29.2418 148.197 29.8055 148.526 30.2045C148.862 30.6035 149.372 30.803 150.056 30.803C150.556 30.803 151.022 30.6858 151.452 30.4515C151.889 30.2108 152.291 29.8815 152.659 29.4635V22.3765H154.35ZM163.472 26.1385C163.472 25.7458 163.415 25.388 163.301 25.065C163.193 24.7357 163.032 24.4538 162.816 24.2195C162.607 23.9788 162.351 23.7952 162.047 23.6685C161.743 23.5355 161.398 23.469 161.011 23.469C160.201 23.469 159.558 23.7065 159.083 24.1815C158.614 24.6502 158.323 25.3025 158.209 26.1385H163.472ZM164.84 30.651C164.631 30.9043 164.381 31.126 164.089 31.316C163.798 31.4997 163.485 31.6517 163.149 31.772C162.82 31.8923 162.478 31.981 162.123 32.038C161.768 32.1013 161.417 32.133 161.068 32.133C160.403 32.133 159.789 32.0222 159.225 31.8005C158.668 31.5725 158.184 31.2432 157.772 30.8125C157.367 30.3755 157.05 29.8372 156.822 29.1975C156.594 28.5578 156.48 27.8232 156.48 26.9935C156.48 26.3222 156.581 25.6952 156.784 25.1125C156.993 24.5298 157.291 24.0263 157.677 23.602C158.063 23.1713 158.535 22.8357 159.092 22.595C159.65 22.348 160.277 22.2245 160.973 22.2245C161.55 22.2245 162.082 22.3227 162.569 22.519C163.063 22.709 163.488 22.9877 163.842 23.355C164.203 23.716 164.485 24.1657 164.688 24.704C164.891 25.236 164.992 25.844 164.992 26.528C164.992 26.794 164.963 26.9713 164.906 27.06C164.849 27.1487 164.742 27.193 164.583 27.193H158.152C158.171 27.801 158.253 28.3298 158.399 28.7795C158.551 29.2292 158.76 29.606 159.026 29.91C159.292 30.2077 159.609 30.4325 159.976 30.5845C160.343 30.7302 160.755 30.803 161.211 30.803C161.635 30.803 161.999 30.7555 162.303 30.6605C162.614 30.5592 162.88 30.4515 163.101 30.3375C163.323 30.2235 163.507 30.119 163.652 30.024C163.804 29.9227 163.934 29.872 164.042 29.872C164.181 29.872 164.289 29.9258 164.365 30.0335L164.84 30.651ZM168.665 23.773C168.874 23.5387 169.096 23.3265 169.33 23.1365C169.564 22.9465 169.811 22.785 170.071 22.652C170.337 22.5127 170.616 22.4082 170.907 22.3385C171.205 22.2625 171.524 22.2245 171.866 22.2245C172.392 22.2245 172.854 22.3132 173.253 22.4905C173.659 22.6615 173.994 22.9085 174.26 23.2315C174.533 23.5482 174.739 23.9313 174.878 24.381C175.017 24.8307 175.087 25.3278 175.087 25.8725V32H173.386V25.8725C173.386 25.1442 173.219 24.5805 172.883 24.1815C172.554 23.7762 172.05 23.5735 171.372 23.5735C170.872 23.5735 170.403 23.6938 169.966 23.9345C169.536 24.1752 169.137 24.5013 168.769 24.913V32H167.069V22.3765H168.085C168.326 22.3765 168.475 22.4937 168.532 22.728L168.665 23.773ZM180.488 32.152C179.728 32.152 179.143 31.9398 178.731 31.5155C178.326 31.0912 178.123 30.48 178.123 29.682V23.792H176.964C176.863 23.792 176.777 23.7635 176.707 23.7065C176.638 23.6432 176.603 23.5482 176.603 23.4215V22.747L178.18 22.5475L178.569 19.574C178.588 19.479 178.63 19.403 178.693 19.346C178.763 19.2827 178.851 19.251 178.959 19.251H179.814V22.5665H182.597V23.792H179.814V29.568C179.814 29.9733 179.912 30.2742 180.108 30.4705C180.305 30.6668 180.558 30.765 180.868 30.765C181.046 30.765 181.198 30.7428 181.324 30.6985C181.457 30.6478 181.571 30.594 181.666 30.537C181.761 30.48 181.841 30.4293 181.904 30.385C181.974 30.3343 182.034 30.309 182.084 30.309C182.173 30.309 182.252 30.3628 182.322 30.4705L182.816 31.278C182.525 31.5503 182.173 31.7657 181.761 31.924C181.35 32.076 180.925 32.152 180.488 32.152ZM189.559 27.668C188.78 27.6933 188.115 27.7567 187.564 27.858C187.019 27.953 186.573 28.0797 186.224 28.238C185.882 28.3963 185.632 28.5832 185.474 28.7985C185.322 29.0138 185.246 29.2545 185.246 29.5205C185.246 29.7738 185.287 29.9923 185.369 30.176C185.452 30.3597 185.563 30.5117 185.702 30.632C185.848 30.746 186.015 30.8315 186.205 30.8885C186.402 30.9392 186.611 30.9645 186.832 30.9645C187.13 30.9645 187.402 30.936 187.649 30.879C187.896 30.8157 188.128 30.727 188.343 30.613C188.565 30.499 188.774 30.3628 188.97 30.2045C189.173 30.0462 189.369 29.8657 189.559 29.663V27.668ZM184.096 23.735C184.628 23.222 185.202 22.8388 185.816 22.5855C186.43 22.3322 187.111 22.2055 187.858 22.2055C188.397 22.2055 188.875 22.2942 189.293 22.4715C189.711 22.6488 190.062 22.8958 190.347 23.2125C190.632 23.5292 190.848 23.9123 190.993 24.362C191.139 24.8117 191.212 25.3057 191.212 25.844V32H190.461C190.297 32 190.17 31.9747 190.081 31.924C189.993 31.867 189.923 31.7593 189.872 31.601L189.682 30.689C189.429 30.9233 189.182 31.1323 188.941 31.316C188.701 31.4933 188.447 31.6453 188.181 31.772C187.915 31.8923 187.63 31.9842 187.326 32.0475C187.029 32.1172 186.696 32.152 186.329 32.152C185.955 32.152 185.604 32.1013 185.274 32C184.945 31.8923 184.657 31.734 184.41 31.525C184.169 31.316 183.976 31.0532 183.83 30.7365C183.691 30.4135 183.621 30.0335 183.621 29.5965C183.621 29.2165 183.726 28.8523 183.935 28.504C184.144 28.1493 184.483 27.8358 184.951 27.5635C185.42 27.2912 186.031 27.0695 186.785 26.8985C187.539 26.7212 188.463 26.6198 189.559 26.5945V25.844C189.559 25.0967 189.397 24.533 189.074 24.153C188.751 23.7667 188.28 23.5735 187.659 23.5735C187.241 23.5735 186.889 23.6273 186.604 23.735C186.326 23.8363 186.082 23.9535 185.873 24.0865C185.67 24.2132 185.493 24.3303 185.341 24.438C185.195 24.5393 185.05 24.59 184.904 24.59C184.79 24.59 184.692 24.5615 184.609 24.5045C184.527 24.4412 184.457 24.3652 184.4 24.2765L184.096 23.735Z" fill="#FCFFF8"/>
<path d="M24 1H256V-1H24V1ZM256 47H24V49H256V47ZM24 47C11.2975 47 1 36.7025 1 24H-1C-1 37.8071 10.1929 49 24 49V47ZM279 24C279 36.7025 268.703 47 256 47V49C269.807 49 281 37.8071 281 24H279ZM256 1C268.703 1 279 11.2975 279 24H281C281 10.1929 269.807 -1 256 -1V1ZM24 -1C10.1929 -1 -1 10.1929 -1 24H1C1 11.2975 11.2975 1 24 1V-1Z" fill="#FF6464"/>
</svg>
