<svg width="220" height="40" viewBox="0 0 220 40" fill="none" xmlns="http://www.w3.org/2000/svg">
<rect width="220" height="40" rx="20" fill="#CE2F2F"/>
<path d="M22.517 26.037C23.0427 26.037 23.4955 25.9768 23.8755 25.8565C24.2555 25.7362 24.5658 25.5683 24.8065 25.353C25.0535 25.1313 25.234 24.8717 25.348 24.574C25.462 24.27 25.519 23.9375 25.519 23.5765C25.519 22.8735 25.2688 22.3193 24.7685 21.914C24.2682 21.5023 23.5177 21.2965 22.517 21.2965H19.572V26.037H22.517ZM19.572 15.34V19.9855H22.004C22.5233 19.9855 22.973 19.9285 23.353 19.8145C23.7393 19.7005 24.056 19.5422 24.303 19.3395C24.5563 19.1368 24.7432 18.893 24.8635 18.608C24.9838 18.3167 25.044 18 25.044 17.658C25.044 16.8537 24.8033 16.2678 24.322 15.9005C23.8407 15.5268 23.0933 15.34 22.08 15.34H19.572ZM22.08 13.8865C22.916 13.8865 23.6348 13.9688 24.2365 14.1335C24.8445 14.2982 25.3417 14.5325 25.728 14.8365C26.1207 15.1405 26.4088 15.5142 26.5925 15.9575C26.7762 16.3945 26.868 16.8885 26.868 17.4395C26.868 17.7752 26.8142 18.0982 26.7065 18.4085C26.6052 18.7125 26.45 18.9975 26.241 19.2635C26.032 19.5295 25.766 19.7702 25.443 19.9855C25.1263 20.1945 24.7527 20.3655 24.322 20.4985C25.3227 20.6885 26.0732 21.0463 26.5735 21.572C27.0802 22.0913 27.3335 22.7753 27.3335 23.624C27.3335 24.2003 27.2258 24.726 27.0105 25.201C26.8015 25.676 26.4912 26.0845 26.0795 26.4265C25.6742 26.7685 25.1738 27.0345 24.5785 27.2245C23.9832 27.4082 23.3055 27.5 22.5455 27.5H17.7385V13.8865H22.08ZM35.2752 26.037C35.8389 26.037 36.3424 25.942 36.7857 25.752C37.229 25.562 37.6027 25.296 37.9067 24.954C38.217 24.612 38.4514 24.2035 38.6097 23.7285C38.7744 23.2535 38.8567 22.731 38.8567 22.161V13.8865H40.6902V22.161C40.6902 22.9463 40.5635 23.6747 40.3102 24.346C40.0632 25.0173 39.7054 25.6 39.2367 26.094C38.7744 26.5817 38.2075 26.9648 37.5362 27.2435C36.8649 27.5222 36.1112 27.6615 35.2752 27.6615C34.4392 27.6615 33.6855 27.5222 33.0142 27.2435C32.3429 26.9648 31.7729 26.5817 31.3042 26.094C30.8355 25.6 30.4745 25.0173 30.2212 24.346C29.9742 23.6747 29.8507 22.9463 29.8507 22.161V13.8865H31.6842V22.1515C31.6842 22.7215 31.7634 23.244 31.9217 23.719C32.0864 24.194 32.3207 24.6025 32.6247 24.9445C32.935 25.2865 33.3119 25.5557 33.7552 25.752C34.2049 25.942 34.7115 26.037 35.2752 26.037ZM50.9569 16.0145C50.8999 16.1095 50.8365 16.1823 50.7669 16.233C50.7035 16.2773 50.6244 16.2995 50.5294 16.2995C50.4217 16.2995 50.295 16.2457 50.1494 16.138C50.0037 16.0303 49.82 15.9132 49.5984 15.7865C49.383 15.6535 49.1202 15.5332 48.8099 15.4255C48.5059 15.3178 48.1354 15.264 47.6984 15.264C47.2867 15.264 46.9225 15.321 46.6059 15.435C46.2955 15.5427 46.0327 15.6915 45.8174 15.8815C45.6084 16.0715 45.45 16.2963 45.3424 16.556C45.2347 16.8093 45.1809 17.0848 45.1809 17.3825C45.1809 17.7625 45.2727 18.0792 45.4564 18.3325C45.6464 18.5795 45.8934 18.7917 46.1974 18.969C46.5077 19.1463 46.856 19.3015 47.2424 19.4345C47.635 19.5612 48.034 19.6942 48.4394 19.8335C48.851 19.9728 49.25 20.1312 49.6364 20.3085C50.029 20.4795 50.3774 20.698 50.6814 20.964C50.9917 21.23 51.2387 21.5562 51.4224 21.9425C51.6124 22.3288 51.7074 22.8038 51.7074 23.3675C51.7074 23.9628 51.6061 24.5233 51.4034 25.049C51.2007 25.5683 50.903 26.0212 50.5104 26.4075C50.124 26.7938 49.6459 27.0978 49.0759 27.3195C48.5122 27.5412 47.8694 27.652 47.1474 27.652C46.2607 27.652 45.4564 27.4937 44.7344 27.177C44.0124 26.854 43.3949 26.4202 42.8819 25.8755L43.4139 25.0015C43.4645 24.9318 43.5247 24.8748 43.5944 24.8305C43.6704 24.7798 43.7527 24.7545 43.8414 24.7545C43.9237 24.7545 44.0155 24.7893 44.1169 24.859C44.2245 24.9223 44.3449 25.0047 44.4779 25.106C44.6109 25.2073 44.7629 25.3182 44.9339 25.4385C45.1049 25.5588 45.298 25.6697 45.5134 25.771C45.735 25.8723 45.9852 25.9578 46.2639 26.0275C46.5425 26.0908 46.856 26.1225 47.2044 26.1225C47.6414 26.1225 48.0309 26.0623 48.3729 25.942C48.7149 25.8217 49.003 25.6538 49.2374 25.4385C49.478 25.2168 49.6617 24.954 49.7884 24.65C49.915 24.346 49.9784 24.0072 49.9784 23.6335C49.9784 23.2218 49.8834 22.8862 49.6934 22.6265C49.5097 22.3605 49.2659 22.1388 48.9619 21.9615C48.6579 21.7842 48.3095 21.6353 47.9169 21.515C47.5242 21.3883 47.1252 21.2617 46.7199 21.135C46.3145 21.002 45.9155 20.85 45.5229 20.679C45.1302 20.508 44.7819 20.2863 44.4779 20.014C44.1739 19.7417 43.9269 19.4028 43.7369 18.9975C43.5532 18.5858 43.4614 18.0792 43.4614 17.4775C43.4614 16.9962 43.5532 16.5307 43.7369 16.081C43.9269 15.6313 44.1992 15.2323 44.5539 14.884C44.9149 14.5357 45.355 14.257 45.8744 14.048C46.4 13.839 47.0017 13.7345 47.6794 13.7345C48.4394 13.7345 49.1297 13.8548 49.7504 14.0955C50.3774 14.3362 50.9284 14.6845 51.4034 15.1405L50.9569 16.0145ZM63.8668 24.688C63.9681 24.688 64.0568 24.7292 64.1328 24.8115L64.8643 25.6C64.307 26.246 63.6293 26.7495 62.8313 27.1105C62.0396 27.4715 61.0801 27.652 59.9528 27.652C58.9775 27.652 58.0908 27.4842 57.2928 27.1485C56.4948 26.8065 55.814 26.3315 55.2503 25.7235C54.6866 25.1092 54.2496 24.3745 53.9393 23.5195C53.629 22.6645 53.4738 21.724 53.4738 20.698C53.4738 19.672 53.6353 18.7315 53.9583 17.8765C54.2813 17.0215 54.7341 16.2868 55.3168 15.6725C55.9058 15.0582 56.6088 14.5832 57.4258 14.2475C58.2428 13.9055 59.1453 13.7345 60.1333 13.7345C61.1023 13.7345 61.9573 13.8897 62.6983 14.2C63.4393 14.5103 64.0916 14.9315 64.6553 15.4635L64.0473 16.309C64.0093 16.3723 63.9586 16.4262 63.8953 16.4705C63.8383 16.5085 63.7591 16.5275 63.6578 16.5275C63.5438 16.5275 63.4045 16.4673 63.2398 16.347C63.0751 16.2203 62.8598 16.081 62.5938 15.929C62.3278 15.777 61.9953 15.6408 61.5963 15.5205C61.1973 15.3938 60.7065 15.3305 60.1238 15.3305C59.4208 15.3305 58.778 15.454 58.1953 15.701C57.6126 15.9417 57.1091 16.2932 56.6848 16.7555C56.2668 17.2178 55.9406 17.7815 55.7063 18.4465C55.472 19.1115 55.3548 19.862 55.3548 20.698C55.3548 21.5467 55.4751 22.3035 55.7158 22.9685C55.9628 23.6335 56.2953 24.1972 56.7133 24.6595C57.1376 25.1155 57.6348 25.4638 58.2048 25.7045C58.7811 25.9452 59.4018 26.0655 60.0668 26.0655C60.4721 26.0655 60.8363 26.0433 61.1593 25.999C61.4886 25.9483 61.7895 25.8723 62.0618 25.771C62.3405 25.6697 62.597 25.543 62.8313 25.391C63.072 25.2327 63.3095 25.0458 63.5438 24.8305C63.6515 24.7355 63.7591 24.688 63.8668 24.688ZM74.2307 22.446L72.0932 16.9075C72.0299 16.7428 71.9634 16.5528 71.8937 16.3375C71.824 16.1158 71.7575 15.8815 71.6942 15.6345C71.5612 16.1475 71.425 16.575 71.2857 16.917L69.1482 22.446H74.2307ZM78.0687 27.5H76.6437C76.479 27.5 76.346 27.4588 76.2447 27.3765C76.1434 27.2942 76.0674 27.1897 76.0167 27.063L74.7437 23.776H68.6352L67.3622 27.063C67.3242 27.177 67.2514 27.2783 67.1437 27.367C67.036 27.4557 66.903 27.5 66.7447 27.5H65.3197L70.7632 13.8865H72.6252L78.0687 27.5ZM83.6311 20.4795C84.1631 20.4795 84.6318 20.4162 85.0371 20.2895C85.4488 20.1565 85.7908 19.9728 86.0631 19.7385C86.3418 19.4978 86.5508 19.2128 86.6901 18.8835C86.8294 18.5542 86.8991 18.19 86.8991 17.791C86.8991 16.9803 86.6331 16.3692 86.1011 15.9575C85.5691 15.5458 84.7711 15.34 83.7071 15.34H81.6931V20.4795H83.6311ZM89.9201 27.5H88.2861C87.9504 27.5 87.7034 27.3702 87.5451 27.1105L84.0111 22.2465C83.9034 22.0945 83.7863 21.9868 83.6596 21.9235C83.5393 21.8538 83.3493 21.819 83.0896 21.819H81.6931V27.5H79.8596V13.8865H83.7071C84.5684 13.8865 85.3126 13.9752 85.9396 14.1525C86.5666 14.3235 87.0828 14.5737 87.4881 14.903C87.8998 15.2323 88.2038 15.6313 88.4001 16.1C88.5964 16.5623 88.6946 17.0817 88.6946 17.658C88.6946 18.1393 88.6186 18.589 88.4666 19.007C88.3146 19.425 88.0929 19.8018 87.8016 20.1375C87.5166 20.4668 87.1651 20.7487 86.7471 20.983C86.3354 21.2173 85.8668 21.3947 85.3411 21.515C85.5754 21.648 85.7781 21.8412 85.9491 22.0945L89.9201 27.5ZM100.405 20.4795C100.937 20.4795 101.405 20.4162 101.811 20.2895C102.222 20.1565 102.564 19.9728 102.837 19.7385C103.115 19.4978 103.324 19.2128 103.464 18.8835C103.603 18.5542 103.673 18.19 103.673 17.791C103.673 16.9803 103.407 16.3692 102.875 15.9575C102.343 15.5458 101.545 15.34 100.481 15.34H98.4665V20.4795H100.405ZM106.694 27.5H105.06C104.724 27.5 104.477 27.3702 104.319 27.1105L100.785 22.2465C100.677 22.0945 100.56 21.9868 100.433 21.9235C100.313 21.8538 100.123 21.819 99.863 21.819H98.4665V27.5H96.633V13.8865H100.481C101.342 13.8865 102.086 13.9752 102.713 14.1525C103.34 14.3235 103.856 14.5737 104.262 14.903C104.673 15.2323 104.977 15.6313 105.174 16.1C105.37 16.5623 105.468 17.0817 105.468 17.658C105.468 18.1393 105.392 18.589 105.24 19.007C105.088 19.425 104.866 19.8018 104.575 20.1375C104.29 20.4668 103.939 20.7487 103.521 20.983C103.109 21.2173 102.64 21.3947 102.115 21.515C102.349 21.648 102.552 21.8412 102.723 22.0945L106.694 27.5ZM116.943 25.999L116.934 27.5H108.545V13.8865H116.934V15.3875H110.388V19.9095H115.689V21.3535H110.388V25.999H116.943ZM128.771 24.688C128.872 24.688 128.961 24.7292 129.037 24.8115L129.769 25.6C129.211 26.246 128.534 26.7495 127.736 27.1105C126.944 27.4715 125.984 27.652 124.857 27.652C123.882 27.652 122.995 27.4842 122.197 27.1485C121.399 26.8065 120.718 26.3315 120.155 25.7235C119.591 25.1092 119.154 24.3745 118.844 23.5195C118.533 22.6645 118.378 21.724 118.378 20.698C118.378 19.672 118.54 18.7315 118.863 17.8765C119.186 17.0215 119.638 16.2868 120.221 15.6725C120.81 15.0582 121.513 14.5832 122.33 14.2475C123.147 13.9055 124.05 13.7345 125.038 13.7345C126.007 13.7345 126.862 13.8897 127.603 14.2C128.344 14.5103 128.996 14.9315 129.56 15.4635L128.952 16.309C128.914 16.3723 128.863 16.4262 128.8 16.4705C128.743 16.5085 128.663 16.5275 128.562 16.5275C128.448 16.5275 128.309 16.4673 128.144 16.347C127.979 16.2203 127.764 16.081 127.498 15.929C127.232 15.777 126.9 15.6408 126.501 15.5205C126.102 15.3938 125.611 15.3305 125.028 15.3305C124.325 15.3305 123.682 15.454 123.1 15.701C122.517 15.9417 122.013 16.2932 121.589 16.7555C121.171 17.2178 120.845 17.7815 120.611 18.4465C120.376 19.1115 120.259 19.862 120.259 20.698C120.259 21.5467 120.379 22.3035 120.62 22.9685C120.867 23.6335 121.2 24.1972 121.618 24.6595C122.042 25.1155 122.539 25.4638 123.109 25.7045C123.685 25.9452 124.306 26.0655 124.971 26.0655C125.376 26.0655 125.741 26.0433 126.064 25.999C126.393 25.9483 126.694 25.8723 126.966 25.771C127.245 25.6697 127.501 25.543 127.736 25.391C127.976 25.2327 128.214 25.0458 128.448 24.8305C128.556 24.7355 128.663 24.688 128.771 24.688ZM140.303 25.999L140.294 27.5H131.905V13.8865H140.294V15.3875H133.748V19.9095H139.049V21.3535H133.748V25.999H140.303ZM152.077 15.435H147.669V27.5H145.835V15.435H141.418V13.8865H152.077V15.435ZM159.99 22.446L157.853 16.9075C157.79 16.7428 157.723 16.5528 157.653 16.3375C157.584 16.1158 157.517 15.8815 157.454 15.6345C157.321 16.1475 157.185 16.575 157.045 16.917L154.908 22.446H159.99ZM163.828 27.5H162.403C162.239 27.5 162.106 27.4588 162.004 27.3765C161.903 27.2942 161.827 27.1897 161.776 27.063L160.503 23.776H154.395L153.122 27.063C153.084 27.177 153.011 27.2783 152.903 27.367C152.796 27.4557 152.663 27.5 152.504 27.5H151.079L156.523 13.8865H158.385L163.828 27.5Z" fill="white"/>
<rect x="180" y="8" width="24" height="24" rx="12" fill="white"/>
<path fill-rule="evenodd" clip-rule="evenodd" d="M190 14L188.59 15.41L193.17 20L188.59 24.59L190 26L196 20L190 14Z" fill="#CE2F2F"/>
</svg>
