<svg width="190" height="40" viewBox="0 0 190 40" fill="none" xmlns="http://www.w3.org/2000/svg">
<path d="M0 20C0 8.95431 8.95431 0 20 0H170C181.046 0 190 8.95431 190 20C190 31.0457 181.046 40 170 40H20C8.95431 40 0 31.0457 0 20Z" fill="#CE2F2F"/>
<path d="M35.202 16.0145C35.145 16.1095 35.0817 16.1823 35.012 16.233C34.9487 16.2773 34.8695 16.2995 34.7745 16.2995C34.6668 16.2995 34.5402 16.2457 34.3945 16.138C34.2488 16.0303 34.0652 15.9132 33.8435 15.7865C33.6282 15.6535 33.3653 15.5332 33.055 15.4255C32.751 15.3178 32.3805 15.264 31.9435 15.264C31.5318 15.264 31.1677 15.321 30.851 15.435C30.5407 15.5427 30.2778 15.6915 30.0625 15.8815C29.8535 16.0715 29.6952 16.2963 29.5875 16.556C29.4798 16.8093 29.426 17.0848 29.426 17.3825C29.426 17.7625 29.5178 18.0792 29.7015 18.3325C29.8915 18.5795 30.1385 18.7917 30.4425 18.969C30.7528 19.1463 31.1012 19.3015 31.4875 19.4345C31.8802 19.5612 32.2792 19.6942 32.6845 19.8335C33.0962 19.9728 33.4952 20.1312 33.8815 20.3085C34.2742 20.4795 34.6225 20.698 34.9265 20.964C35.2368 21.23 35.4838 21.5562 35.6675 21.9425C35.8575 22.3288 35.9525 22.8038 35.9525 23.3675C35.9525 23.9628 35.8512 24.5233 35.6485 25.049C35.4458 25.5683 35.1482 26.0212 34.7555 26.4075C34.3692 26.7938 33.891 27.0978 33.321 27.3195C32.7573 27.5412 32.1145 27.652 31.3925 27.652C30.5058 27.652 29.7015 27.4937 28.9795 27.177C28.2575 26.854 27.64 26.4202 27.127 25.8755L27.659 25.0015C27.7097 24.9318 27.7698 24.8748 27.8395 24.8305C27.9155 24.7798 27.9978 24.7545 28.0865 24.7545C28.1688 24.7545 28.2607 24.7893 28.362 24.859C28.4697 24.9223 28.59 25.0047 28.723 25.106C28.856 25.2073 29.008 25.3182 29.179 25.4385C29.35 25.5588 29.5432 25.6697 29.7585 25.771C29.9802 25.8723 30.2303 25.9578 30.509 26.0275C30.7877 26.0908 31.1012 26.1225 31.4495 26.1225C31.8865 26.1225 32.276 26.0623 32.618 25.942C32.96 25.8217 33.2482 25.6538 33.4825 25.4385C33.7232 25.2168 33.9068 24.954 34.0335 24.65C34.1602 24.346 34.2235 24.0072 34.2235 23.6335C34.2235 23.2218 34.1285 22.8862 33.9385 22.6265C33.7548 22.3605 33.511 22.1388 33.207 21.9615C32.903 21.7842 32.5547 21.6353 32.162 21.515C31.7693 21.3883 31.3703 21.2617 30.965 21.135C30.5597 21.002 30.1607 20.85 29.768 20.679C29.3753 20.508 29.027 20.2863 28.723 20.014C28.419 19.7417 28.172 19.4028 27.982 18.9975C27.7983 18.5858 27.7065 18.0792 27.7065 17.4775C27.7065 16.9962 27.7983 16.5307 27.982 16.081C28.172 15.6313 28.4443 15.2323 28.799 14.884C29.16 14.5357 29.6002 14.257 30.1195 14.048C30.6452 13.839 31.2468 13.7345 31.9245 13.7345C32.6845 13.7345 33.3748 13.8548 33.9955 14.0955C34.6225 14.3362 35.1735 14.6845 35.6485 15.1405L35.202 16.0145ZM40.3979 27.5H38.5549V13.8865H40.3979V27.5ZM54.9381 20.9545V26.1795C54.2541 26.6735 53.5226 27.044 52.7436 27.291C51.9709 27.5317 51.1223 27.652 50.1976 27.652C49.1019 27.652 48.1139 27.4842 47.2336 27.1485C46.3533 26.8065 45.5996 26.3315 44.9726 25.7235C44.3519 25.1092 43.8738 24.3745 43.5381 23.5195C43.2024 22.6645 43.0346 21.724 43.0346 20.698C43.0346 19.6593 43.1961 18.7125 43.5191 17.8575C43.8484 17.0025 44.3139 16.271 44.9156 15.663C45.5173 15.0487 46.2488 14.5737 47.1101 14.238C47.9714 13.9023 48.9341 13.7345 49.9981 13.7345C50.5364 13.7345 51.0368 13.7757 51.4991 13.858C51.9614 13.934 52.3889 14.048 52.7816 14.2C53.1743 14.3457 53.5384 14.5262 53.8741 14.7415C54.2098 14.9505 54.5233 15.188 54.8146 15.454L54.2921 16.29C54.2098 16.4167 54.1021 16.499 53.9691 16.537C53.8424 16.5687 53.6999 16.537 53.5416 16.442C53.3896 16.3533 53.2154 16.2457 53.0191 16.119C52.8228 15.9923 52.5821 15.872 52.2971 15.758C52.0184 15.6377 51.6859 15.5363 51.2996 15.454C50.9196 15.3717 50.4668 15.3305 49.9411 15.3305C49.1748 15.3305 48.4813 15.4572 47.8606 15.7105C47.2399 15.9575 46.7111 16.3153 46.2741 16.784C45.8371 17.2463 45.5014 17.81 45.2671 18.475C45.0328 19.1337 44.9156 19.8747 44.9156 20.698C44.9156 21.553 45.0359 22.3193 45.2766 22.997C45.5236 23.6683 45.8719 24.2415 46.3216 24.7165C46.7776 25.1852 47.3286 25.543 47.9746 25.79C48.6206 26.037 49.3458 26.1605 50.1501 26.1605C50.7834 26.1605 51.3439 26.0908 51.8316 25.9515C52.3256 25.8058 52.8069 25.6063 53.2756 25.353V22.3605H51.1571C51.0368 22.3605 50.9386 22.3257 50.8626 22.256C50.7929 22.1863 50.7581 22.1008 50.7581 21.9995V20.9545H54.9381ZM63.0125 26.037C63.5762 26.037 64.0797 25.942 64.523 25.752C64.9663 25.562 65.34 25.296 65.644 24.954C65.9543 24.612 66.1887 24.2035 66.347 23.7285C66.5117 23.2535 66.594 22.731 66.594 22.161V13.8865H68.4275V22.161C68.4275 22.9463 68.3008 23.6747 68.0475 24.346C67.8005 25.0173 67.4427 25.6 66.974 26.094C66.5117 26.5817 65.9448 26.9648 65.2735 27.2435C64.6022 27.5222 63.8485 27.6615 63.0125 27.6615C62.1765 27.6615 61.4228 27.5222 60.7515 27.2435C60.0802 26.9648 59.5102 26.5817 59.0415 26.094C58.5728 25.6 58.2118 25.0173 57.9585 24.346C57.7115 23.6747 57.588 22.9463 57.588 22.161V13.8865H59.4215V22.1515C59.4215 22.7215 59.5007 23.244 59.659 23.719C59.8237 24.194 60.058 24.6025 60.362 24.9445C60.6723 25.2865 61.0492 25.5557 61.4925 25.752C61.9422 25.942 62.4488 26.037 63.0125 26.037ZM73.5737 27.5H71.7307V13.8865H73.5737V27.5ZM85.4539 25.999L85.4444 27.5H77.0559V13.8865H85.4444V15.3875H78.8989V19.9095H84.1999V21.3535H78.8989V25.999H85.4539ZM99.0512 13.8865V27.5H98.1297C97.984 27.5 97.8605 27.4747 97.7592 27.424C97.6642 27.3733 97.5692 27.2878 97.4742 27.1675L89.5987 16.9075C89.6114 17.0658 89.6209 17.221 89.6272 17.373C89.6335 17.525 89.6367 17.6675 89.6367 17.8005V27.5H88.0217V13.8865H88.9717C89.054 13.8865 89.1237 13.8928 89.1807 13.9055C89.2377 13.9118 89.2884 13.9277 89.3327 13.953C89.377 13.972 89.4214 14.0037 89.4657 14.048C89.51 14.086 89.5575 14.1367 89.6082 14.2L97.4837 24.4505C97.471 24.2858 97.4584 24.1275 97.4457 23.9755C97.4394 23.8172 97.4362 23.6683 97.4362 23.529V13.8865H99.0512ZM111.737 15.435H107.329V27.5H105.495V15.435H101.078V13.8865H111.737V15.435ZM122.155 25.999L122.146 27.5H113.757V13.8865H122.146V15.3875H115.6V19.9095H120.901V21.3535H115.6V25.999H122.155Z" fill="white"/>
<rect x="139.5" y="8" width="24" height="24" rx="12" fill="white"/>
<path fill-rule="evenodd" clip-rule="evenodd" d="M149.5 14L148.09 15.41L152.67 20L148.09 24.59L149.5 26L155.5 20L149.5 14Z" fill="#CE2F2F"/>
</svg>
