<svg width="190" height="32" viewBox="0 0 190 32" fill="none" xmlns="http://www.w3.org/2000/svg">
<rect width="190" height="32" rx="16" fill="#CE2F2F"/>
<path d="M72.7338 16.088C73.1818 16.088 73.5764 16.0347 73.9178 15.928C74.2644 15.816 74.5524 15.6613 74.7818 15.464C75.0164 15.2613 75.1924 15.0213 75.3098 14.744C75.4271 14.4667 75.4858 14.16 75.4858 13.824C75.4858 13.1413 75.2618 12.6267 74.8138 12.28C74.3658 11.9333 73.6938 11.76 72.7977 11.76H71.1018V16.088H72.7338ZM78.0298 22H76.6538C76.3711 22 76.1631 21.8907 76.0298 21.672L73.0538 17.576C72.9631 17.448 72.8644 17.3573 72.7578 17.304C72.6564 17.2453 72.4964 17.216 72.2778 17.216H71.1018V22H69.5578V10.536H72.7977C73.5231 10.536 74.1498 10.6107 74.6778 10.76C75.2058 10.904 75.6404 11.1147 75.9818 11.392C76.3284 11.6693 76.5844 12.0053 76.7498 12.4C76.9151 12.7893 76.9978 13.2267 76.9978 13.712C76.9978 14.1173 76.9338 14.496 76.8058 14.848C76.6778 15.2 76.4911 15.5173 76.2458 15.8C76.0058 16.0773 75.7098 16.3147 75.3578 16.512C75.0111 16.7093 74.6164 16.8587 74.1738 16.96C74.3711 17.072 74.5418 17.2347 74.6858 17.448L78.0298 22ZM86.661 20.736L86.653 22H79.589V10.536H86.653V11.8H81.141V15.608H85.605V16.824H81.141V20.736H86.661ZM96.6214 19.632C96.7067 19.632 96.7814 19.6667 96.8454 19.736L97.4614 20.4C96.992 20.944 96.4214 21.368 95.7494 21.672C95.0827 21.976 94.2747 22.128 93.3254 22.128C92.504 22.128 91.7574 21.9867 91.0854 21.704C90.4134 21.416 89.84 21.016 89.3654 20.504C88.8907 19.9867 88.5227 19.368 88.2614 18.648C88 17.928 87.8694 17.136 87.8694 16.272C87.8694 15.408 88.0054 14.616 88.2774 13.896C88.5494 13.176 88.9307 12.5573 89.4214 12.04C89.9174 11.5227 90.5094 11.1227 91.1974 10.84C91.8854 10.552 92.6454 10.408 93.4774 10.408C94.2934 10.408 95.0134 10.5387 95.6374 10.8C96.2614 11.0613 96.8107 11.416 97.2854 11.864L96.7734 12.576C96.7414 12.6293 96.6987 12.6747 96.6454 12.712C96.5974 12.744 96.5307 12.76 96.4454 12.76C96.3494 12.76 96.232 12.7093 96.0934 12.608C95.9547 12.5013 95.7734 12.384 95.5494 12.256C95.3254 12.128 95.0454 12.0133 94.7094 11.912C94.3734 11.8053 93.96 11.752 93.4694 11.752C92.8774 11.752 92.336 11.856 91.8454 12.064C91.3547 12.2667 90.9307 12.5627 90.5734 12.952C90.2214 13.3413 89.9467 13.816 89.7494 14.376C89.552 14.936 89.4534 15.568 89.4534 16.272C89.4534 16.9867 89.5547 17.624 89.7574 18.184C89.9654 18.744 90.2454 19.2187 90.5974 19.608C90.9547 19.992 91.3734 20.2853 91.8534 20.488C92.3387 20.6907 92.8614 20.792 93.4214 20.792C93.7627 20.792 94.0694 20.7733 94.3414 20.736C94.6187 20.6933 94.872 20.6293 95.1014 20.544C95.336 20.4587 95.552 20.352 95.7494 20.224C95.952 20.0907 96.152 19.9333 96.3494 19.752C96.44 19.672 96.5307 19.632 96.6214 19.632ZM106.333 20.736L106.325 22H99.2609V10.536H106.325V11.8H100.813V15.608H105.277V16.824H100.813V20.736H106.333ZM116.247 11.84H112.535V22H110.991V11.84H107.271V10.536H116.247V11.84ZM122.911 17.744L121.111 13.08C121.058 12.9413 121.002 12.7813 120.943 12.6C120.885 12.4133 120.829 12.216 120.775 12.008C120.663 12.44 120.549 12.8 120.431 13.088L118.631 17.744H122.911ZM126.143 22H124.943C124.805 22 124.693 21.9653 124.607 21.896C124.522 21.8267 124.458 21.7387 124.415 21.632L123.343 18.864H118.199L117.127 21.632C117.095 21.728 117.034 21.8133 116.943 21.888C116.853 21.9627 116.741 22 116.607 22H115.407L119.991 10.536H121.559L126.143 22Z" fill="#FCFFF8"/>
</svg>
