<svg width="190" height="32" viewBox="0 0 190 32" fill="none" xmlns="http://www.w3.org/2000/svg">
<path d="M0 16C0 7.16344 7.16344 0 16 0H174C182.837 0 190 7.16344 190 16C190 24.8366 182.837 32 174 32H16C7.16344 32 0 24.8366 0 16Z" fill="#CE2F2F"/>
<path d="M47.564 10.536H48.804C48.9427 10.536 49.0547 10.5707 49.14 10.64C49.2253 10.7093 49.2893 10.7973 49.332 10.904L52.572 18.992C52.6467 19.1733 52.7133 19.3707 52.772 19.584C52.836 19.7973 52.8973 20.0187 52.956 20.248C53.004 20.0187 53.0547 19.7973 53.108 19.584C53.1667 19.3707 53.2333 19.1733 53.308 18.992L56.532 10.904C56.5693 10.8133 56.6333 10.7307 56.724 10.656C56.8147 10.576 56.9267 10.536 57.06 10.536H58.308L53.636 22H52.236L47.564 10.536ZM66.981 10.536V11.8H61.477V15.608H65.933V16.824H61.477V20.736H66.981V22H59.917V10.536H66.981ZM71.0679 17.216V22H69.5239V10.536H72.7639C73.4892 10.536 74.1159 10.6107 74.6439 10.76C75.1719 10.904 75.6065 11.1147 75.9479 11.392C76.2945 11.6693 76.5505 12.0053 76.7159 12.4C76.8812 12.7893 76.9639 13.2267 76.9639 13.712C76.9639 14.1173 76.8999 14.496 76.7719 14.848C76.6439 15.2 76.4572 15.5173 76.2119 15.8C75.9719 16.0773 75.6759 16.3147 75.3239 16.512C74.9772 16.7093 74.5825 16.8587 74.1399 16.96C74.3319 17.072 74.5025 17.2347 74.6519 17.448L77.9959 22H76.6199C76.3372 22 76.1292 21.8907 75.9959 21.672L73.0199 17.576C72.9292 17.448 72.8305 17.3573 72.7239 17.304C72.6172 17.2453 72.4572 17.216 72.2439 17.216H71.0679ZM71.0679 16.088H72.6919C73.1452 16.088 73.5425 16.0347 73.8839 15.928C74.2305 15.816 74.5185 15.6613 74.7479 15.464C74.9825 15.2613 75.1585 15.0213 75.2759 14.744C75.3932 14.4667 75.4519 14.16 75.4519 13.824C75.4519 13.1413 75.2252 12.6267 74.7719 12.28C74.3239 11.9333 73.6545 11.76 72.7639 11.76H71.0679V16.088ZM84.7585 17.216V22H83.2145V10.536H86.4545C87.1798 10.536 87.8065 10.6107 88.3345 10.76C88.8625 10.904 89.2972 11.1147 89.6385 11.392C89.9852 11.6693 90.2412 12.0053 90.4065 12.4C90.5718 12.7893 90.6545 13.2267 90.6545 13.712C90.6545 14.1173 90.5905 14.496 90.4625 14.848C90.3345 15.2 90.1478 15.5173 89.9025 15.8C89.6625 16.0773 89.3665 16.3147 89.0145 16.512C88.6678 16.7093 88.2732 16.8587 87.8305 16.96C88.0225 17.072 88.1932 17.2347 88.3425 17.448L91.6865 22H90.3105C90.0278 22 89.8198 21.8907 89.6865 21.672L86.7105 17.576C86.6198 17.448 86.5212 17.3573 86.4145 17.304C86.3078 17.2453 86.1478 17.216 85.9345 17.216H84.7585ZM84.7585 16.088H86.3825C86.8358 16.088 87.2332 16.0347 87.5745 15.928C87.9212 15.816 88.2092 15.6613 88.4385 15.464C88.6732 15.2613 88.8492 15.0213 88.9665 14.744C89.0838 14.4667 89.1425 14.16 89.1425 13.824C89.1425 13.1413 88.9158 12.6267 88.4625 12.28C88.0145 11.9333 87.3452 11.76 86.4545 11.76H84.7585V16.088ZM100.565 10.536V11.8H95.0614V15.608H99.5174V16.824H95.0614V20.736H100.565V22H93.5014V10.536H100.565ZM111.028 19.632C111.114 19.632 111.191 19.6667 111.26 19.736L111.868 20.4C111.399 20.944 110.828 21.368 110.156 21.672C109.49 21.976 108.684 22.128 107.74 22.128C106.914 22.128 106.164 21.9867 105.492 21.704C104.82 21.416 104.247 21.016 103.772 20.504C103.298 19.9867 102.93 19.368 102.668 18.648C102.407 17.928 102.276 17.136 102.276 16.272C102.276 15.408 102.415 14.616 102.692 13.896C102.975 13.176 103.37 12.5573 103.876 12.04C104.383 11.5227 104.988 11.1227 105.692 10.84C106.402 10.552 107.183 10.408 108.036 10.408C108.879 10.408 109.604 10.5387 110.212 10.8C110.826 11.0613 111.37 11.416 111.844 11.864L111.34 12.576C111.303 12.6293 111.26 12.6747 111.212 12.712C111.164 12.744 111.095 12.76 111.004 12.76C110.935 12.76 110.86 12.736 110.78 12.688C110.706 12.6347 110.615 12.5707 110.508 12.496C110.402 12.4213 110.276 12.3413 110.132 12.256C109.988 12.1707 109.818 12.0907 109.62 12.016C109.423 11.9413 109.194 11.88 108.932 11.832C108.671 11.7787 108.37 11.752 108.028 11.752C107.415 11.752 106.852 11.8587 106.34 12.072C105.834 12.28 105.396 12.5787 105.028 12.968C104.66 13.3573 104.372 13.832 104.164 14.392C103.962 14.952 103.86 15.5787 103.86 16.272C103.86 16.9867 103.962 17.624 104.164 18.184C104.372 18.744 104.652 19.2187 105.004 19.608C105.362 19.992 105.783 20.2853 106.268 20.488C106.754 20.6907 107.276 20.792 107.836 20.792C108.178 20.792 108.484 20.7733 108.756 20.736C109.028 20.6933 109.279 20.6293 109.508 20.544C109.743 20.4587 109.959 20.352 110.156 20.224C110.359 20.0907 110.562 19.9333 110.764 19.752C110.855 19.672 110.943 19.632 111.028 19.632ZM121.115 10.536V11.8H115.611V15.608H120.067V16.824H115.611V20.736H121.115V22H114.051V10.536H121.115ZM131.306 10.536V11.84H127.602V22H126.05V11.84H122.33V10.536H131.306ZM141.455 22H140.255C140.117 22 140.005 21.9653 139.919 21.896C139.834 21.8267 139.77 21.7387 139.727 21.632L138.655 18.864H133.511L132.439 21.632C132.402 21.728 132.338 21.8133 132.247 21.888C132.157 21.9627 132.045 22 131.911 22H130.711L135.295 10.536H136.871L141.455 22ZM133.943 17.744H138.223L136.423 13.08C136.306 12.792 136.191 12.432 136.079 12C136.021 12.2187 135.962 12.4213 135.903 12.608C135.85 12.7893 135.797 12.9493 135.743 13.088L133.943 17.744Z" fill="white"/>
</svg>
