<svg width="29" height="23" viewBox="0 0 29 23" fill="none" xmlns="http://www.w3.org/2000/svg">
<path d="M24.7708 3.64575H21.1458C20.886 3.64575 20.6553 3.48019 20.5731 3.2325L20.1912 2.087C19.7792 0.850877 18.6277 0.020752 17.3251 0.020752H11.6749C10.3723 0.020752 9.22075 0.850877 8.80994 2.08581L8.42813 3.2325C8.34475 3.48019 8.11394 3.64575 7.85419 3.64575H4.22919C1.89706 3.64575 0 5.54287 0 7.87494V18.7499C0 21.082 1.89706 22.9791 4.22919 22.9791H24.7709C27.1029 22.9791 29 21.082 29 18.7499V7.87494C29 5.54287 27.1029 3.64575 24.7708 3.64575ZM27.7917 18.7499C27.7917 20.415 26.4359 21.7708 24.7709 21.7708H4.22919C2.56412 21.7708 1.20837 20.415 1.20837 18.7499V7.87494C1.20837 6.20987 2.56412 4.85412 4.22919 4.85412H7.85419C8.63475 4.85412 9.32594 4.35631 9.57363 3.61556L9.95669 2.46763C10.2032 1.72694 10.8944 1.22907 11.6749 1.22907H17.3251C18.1057 1.22907 18.7969 1.72688 19.0446 2.46882L19.4264 3.61551C19.6741 4.3562 20.3652 4.85407 21.1458 4.85407H24.7708C26.4359 4.85407 27.7916 6.20982 27.7916 7.87488V18.7499H27.7917Z" fill="white"/>
<path d="M14.5 6.0625C10.5016 6.0625 7.25 9.31412 7.25 13.3125C7.25 17.3109 10.5016 20.5625 14.5 20.5625C18.4984 20.5625 21.75 17.3109 21.75 13.3125C21.75 9.31412 18.4984 6.0625 14.5 6.0625ZM14.5 19.3542C11.1686 19.3542 8.45831 16.6439 8.45831 13.3125C8.45831 9.98112 11.1686 7.27081 14.5 7.27081C17.8314 7.27081 20.5417 9.98112 20.5417 13.3125C20.5417 16.6439 17.8314 19.3542 14.5 19.3542Z" fill="white"/>
<path d="M14.5001 8.47925C11.8345 8.47925 9.66675 10.647 9.66675 13.3126C9.66675 13.6461 9.93743 13.9167 10.2709 13.9167C10.6044 13.9167 10.8751 13.6461 10.8751 13.3126C10.8751 11.314 12.5015 9.68756 14.5001 9.68756C14.8336 9.68756 15.1042 9.41688 15.1042 9.08338C15.1042 8.74988 14.8336 8.47925 14.5001 8.47925Z" fill="white"/>
</svg>
