<svg width="20" height="20" viewBox="0 0 20 20" fill="none" xmlns="http://www.w3.org/2000/svg">
<path d="M0.723715 20C0.592136 20 0.328947 19.9999 0.197368 19.8679C-0.0657894 19.6039 -0.0657894 19.2079 0.197368 18.9438L18.75 0.329978C19.0132 0.0659514 19.4079 0.0659514 19.6711 0.329978C19.9342 0.594004 19.9342 0.99004 19.6711 1.25407L1.11844 19.8679C1.11844 19.8679 0.986873 20 0.723715 20Z" fill="#44444D"/>
<path d="M10.0658 10.6271C9.93419 10.6271 9.67109 10.627 9.53951 10.495L0.197368 1.12211C-0.0657894 0.858082 -0.0657894 0.462046 0.197368 0.19802C0.460526 -0.0660066 0.855278 -0.0660066 1.11844 0.19802L10.4606 9.57094C10.7237 9.83497 10.7237 10.231 10.4606 10.495C10.4606 10.627 10.1974 10.6271 10.0658 10.6271Z" fill="#44444D"/>
<path d="M19.4077 20C19.2761 20 19.0129 19.9999 18.8814 19.8679L11.1183 12.0792C10.8551 11.8151 10.8551 11.4191 11.1183 11.1551C11.3814 10.891 11.7761 10.891 12.0393 11.1551L19.8024 18.9438C20.0656 19.2078 20.0656 19.6039 19.8024 19.8679C19.6709 19.8679 19.5393 20 19.4077 20Z" fill="#44444D"/>
</svg>
