<svg width="51" height="50" viewBox="0 0 51 50" fill="none" xmlns="http://www.w3.org/2000/svg">
<circle cx="25.5" cy="25" r="25" fill="#8DC63F"/>
<g filter="url(#filter0_d)">
<path d="M25.1033 42.3802C24.8984 42.3802 24.6935 42.3803 24.6935 42.1263C15.8848 36.793 10.1489 29.4279 9.12461 22.3167C8.7149 19.0151 9.32944 15.9675 10.7634 13.6818C12.4023 11.3961 14.6557 10.3802 16.9091 10.3802C20.1867 10.3802 23.0546 12.666 24.8983 15.2056C26.742 12.9199 29.61 10.6342 32.8877 10.3802C35.1411 10.3802 37.3945 11.3961 39.0333 13.6818C40.6722 15.9675 41.2868 18.7612 40.8771 22.0627C40.0577 28.412 35.346 35.0152 28.1761 40.0945C27.7664 40.3485 27.1518 40.3486 26.7421 39.5867C26.5372 39.0787 26.7421 38.3168 27.1518 37.8088C33.912 32.9834 38.214 27.1422 38.8285 21.5549C39.2383 19.0152 38.6237 16.7295 37.3945 15.2056C36.1654 13.4279 34.5265 12.666 32.8877 12.666C30.4294 12.666 27.5615 14.6977 25.7178 17.4913C25.3081 17.9993 24.4887 17.9993 24.079 17.4913C22.0304 14.6977 19.3673 12.666 16.9091 12.666C15.0654 12.666 13.6314 13.4279 12.4022 15.2056C11.1731 16.7295 10.7634 19.0152 11.1732 21.5549C11.9926 27.9041 17.5237 34.5073 25.513 39.5867C25.9227 39.8406 26.1274 40.6025 25.9226 41.3644C25.9226 42.1263 25.513 42.3802 25.1033 42.3802Z" fill="white"/>
</g>
<defs>
<filter id="filter0_d" x="6" y="7.38025" width="38" height="38" filterUnits="userSpaceOnUse" color-interpolation-filters="sRGB">
<feFlood flood-opacity="0" result="BackgroundImageFix"/>
<feColorMatrix in="SourceAlpha" type="matrix" values="0 0 0 0 0 0 0 0 0 0 0 0 0 0 0 0 0 0 127 0"/>
<feOffset/>
<feGaussianBlur stdDeviation="1.5"/>
<feColorMatrix type="matrix" values="0 0 0 0 0.545098 0 0 0 0 0.772549 0 0 0 0 0.247059 0 0 0 0.5 0"/>
<feBlend mode="normal" in2="BackgroundImageFix" result="effect1_dropShadow"/>
<feBlend mode="normal" in="SourceGraphic" in2="effect1_dropShadow" result="shape"/>
</filter>
</defs>
</svg>
