<svg width="50" height="50" viewBox="0 0 50 50" fill="none" xmlns="http://www.w3.org/2000/svg">
<circle cx="25" cy="25" r="25" fill="#8DC63F"/>
<g filter="url(#filter0_d)">
<path d="M24.6033 42.3802C24.3985 42.3802 24.1936 42.3803 24.1936 42.1263C15.3848 36.793 9.64894 29.4279 8.62467 22.3167C8.21496 19.0151 8.8295 15.9675 10.2635 13.6818C11.9023 11.3961 14.1557 10.3802 16.4091 10.3802C19.6868 10.3802 22.5547 12.666 24.3984 15.2056C26.2421 12.9199 29.1101 10.6342 32.3878 10.3802C34.6412 10.3802 36.8946 11.3961 38.5334 13.6818C40.1722 15.9675 40.7869 18.7612 40.3772 22.0627C39.5577 28.412 34.8461 35.0152 27.6761 40.0945C27.2664 40.3485 26.6518 40.3486 26.2421 39.5867C26.0373 39.0787 26.2421 38.3168 26.6519 37.8088C33.4121 32.9834 37.714 27.1422 38.3286 21.5549C38.7383 19.0152 38.1237 16.7295 36.8946 15.2056C35.6655 13.4279 34.0266 12.666 32.3878 12.666C29.9295 12.666 27.0615 14.6977 25.2179 17.4913C24.8081 17.9993 23.9887 17.9993 23.579 17.4913C21.5305 14.6977 18.8674 12.666 16.4091 12.666C14.5654 12.666 13.1314 13.4279 11.9023 15.2056C10.6732 16.7295 10.2635 19.0152 10.6732 21.5549C11.4926 27.9041 17.0237 34.5073 25.013 39.5867C25.4228 39.8406 25.6275 40.6025 25.4227 41.3644C25.4227 42.1263 25.013 42.3802 24.6033 42.3802Z" fill="white"/>
</g>
<defs>
<filter id="filter0_d" x="5.50006" y="7.38025" width="38" height="38" filterUnits="userSpaceOnUse" color-interpolation-filters="sRGB">
<feFlood flood-opacity="0" result="BackgroundImageFix"/>
<feColorMatrix in="SourceAlpha" type="matrix" values="0 0 0 0 0 0 0 0 0 0 0 0 0 0 0 0 0 0 127 0"/>
<feOffset/>
<feGaussianBlur stdDeviation="1.5"/>
<feColorMatrix type="matrix" values="0 0 0 0 0.545098 0 0 0 0 0.772549 0 0 0 0 0.247059 0 0 0 0.5 0"/>
<feBlend mode="normal" in2="BackgroundImageFix" result="effect1_dropShadow"/>
<feBlend mode="normal" in="SourceGraphic" in2="effect1_dropShadow" result="shape"/>
</filter>
</defs>
</svg>
