<svg width="39" height="38" viewBox="0 0 39 38" fill="none" xmlns="http://www.w3.org/2000/svg">
<g filter="url(#filter0_d)">
<path d="M19.6033 35C19.3984 35 19.1935 35.0001 19.1935 34.7461C10.3848 29.4127 4.64888 22.0476 3.62461 14.9365C3.2149 11.6349 3.82944 8.58728 5.26342 6.30156C6.90226 4.01584 9.15566 3 11.4091 3C14.6867 3 17.5546 5.2857 19.3983 7.82539C21.242 5.53967 24.11 3.25397 27.3877 3C29.6411 3 31.8945 4.01584 33.5333 6.30156C35.1722 8.58728 35.7868 11.3809 35.3771 14.6825C34.5577 21.0317 29.846 27.6349 22.6761 32.7143C22.2664 32.9683 21.6518 32.9683 21.2421 32.2064C21.0372 31.6985 21.2421 30.9365 21.6518 30.4286C28.412 25.6032 32.714 19.7619 33.3285 14.1746C33.7383 11.6349 33.1237 9.3492 31.8945 7.82539C30.6654 6.04761 29.0265 5.2857 27.3877 5.2857C24.9294 5.2857 22.0615 7.31744 20.2178 10.1111C19.8081 10.619 18.9887 10.619 18.579 10.1111C16.5304 7.31744 13.8673 5.2857 11.4091 5.2857C9.56537 5.2857 8.13136 6.04761 6.90223 7.82539C5.6731 9.3492 5.26344 11.6349 5.67315 14.1746C6.49257 20.5238 12.0237 27.127 20.013 32.2064C20.4227 32.4604 20.6274 33.2222 20.4226 33.9841C20.4226 34.746 20.013 35 19.6033 35Z" fill="#24241C"/>
</g>
<defs>
<filter id="filter0_d" x="0.5" y="0" width="38" height="38" filterUnits="userSpaceOnUse" color-interpolation-filters="sRGB">
<feFlood flood-opacity="0" result="BackgroundImageFix"/>
<feColorMatrix in="SourceAlpha" type="matrix" values="0 0 0 0 0 0 0 0 0 0 0 0 0 0 0 0 0 0 127 0"/>
<feOffset/>
<feGaussianBlur stdDeviation="1.5"/>
<feColorMatrix type="matrix" values="0 0 0 0 0.545098 0 0 0 0 0.772549 0 0 0 0 0.247059 0 0 0 0.5 0"/>
<feBlend mode="normal" in2="BackgroundImageFix" result="effect1_dropShadow"/>
<feBlend mode="normal" in="SourceGraphic" in2="effect1_dropShadow" result="shape"/>
</filter>
</defs>
</svg>
