<svg width="50" height="50" viewBox="0 0 50 50" fill="none" xmlns="http://www.w3.org/2000/svg">
<g filter="url(#filter0_d)">
<path d="M25.1033 41C24.8985 41 24.6936 41.0001 24.6936 40.7461C15.8848 35.4127 10.1489 28.0476 9.12467 20.9365C8.71496 17.6349 9.3295 14.5873 10.7635 12.3016C12.4023 10.0158 14.6557 9 16.9091 9C20.1868 9 23.0547 11.2857 24.8984 13.8254C26.7421 11.5397 29.6101 9.25397 32.8878 9C35.1412 9 37.3946 10.0158 39.0334 12.3016C40.6722 14.5873 41.2869 17.3809 40.8772 20.6825C40.0577 27.0317 35.3461 33.6349 28.1761 38.7143C27.7664 38.9683 27.1518 38.9683 26.7421 38.2064C26.5373 37.6985 26.7421 36.9365 27.1519 36.4286C33.9121 31.6032 38.214 25.7619 38.8286 20.1746C39.2383 17.6349 38.6237 15.3492 37.3946 13.8254C36.1655 12.0476 34.5266 11.2857 32.8878 11.2857C30.4295 11.2857 27.5615 13.3174 25.7179 16.1111C25.3081 16.619 24.4887 16.619 24.079 16.1111C22.0305 13.3174 19.3674 11.2857 16.9091 11.2857C15.0654 11.2857 13.6314 12.0476 12.4023 13.8254C11.1732 15.3492 10.7635 17.6349 11.1732 20.1746C11.9926 26.5238 17.5237 33.127 25.513 38.2064C25.9228 38.4604 26.1275 39.2222 25.9227 39.9841C25.9227 40.746 25.513 41 25.1033 41Z" fill="#24241C"/>
</g>
<defs>
<filter id="filter0_d" x="6.00006" y="6" width="38" height="38" filterUnits="userSpaceOnUse" color-interpolation-filters="sRGB">
<feFlood flood-opacity="0" result="BackgroundImageFix"/>
<feColorMatrix in="SourceAlpha" type="matrix" values="0 0 0 0 0 0 0 0 0 0 0 0 0 0 0 0 0 0 127 0"/>
<feOffset/>
<feGaussianBlur stdDeviation="1.5"/>
<feColorMatrix type="matrix" values="0 0 0 0 0.545098 0 0 0 0 0.772549 0 0 0 0 0.247059 0 0 0 0.5 0"/>
<feBlend mode="normal" in2="BackgroundImageFix" result="effect1_dropShadow"/>
<feBlend mode="normal" in="SourceGraphic" in2="effect1_dropShadow" result="shape"/>
</filter>
</defs>
</svg>
