<svg width="51" height="51" viewBox="0 0 51 51" fill="none" xmlns="http://www.w3.org/2000/svg">
<circle cx="25.5001" cy="25.3802" r="25" fill="#8DC63F"/>
<g filter="url(#filter0_d)">
<path d="M25.1034 42.7605C24.8985 42.7605 24.6936 42.7606 24.6936 42.5066C15.8849 37.1732 10.149 29.8081 9.12473 22.697C8.71502 19.3954 9.32956 16.3478 10.7635 14.0621C12.4024 11.7763 14.6558 10.7605 16.9092 10.7605C20.1869 10.7605 23.0548 13.0462 24.8984 15.5859C26.7421 13.3002 29.6102 11.0145 32.8878 10.7605C35.1412 10.7605 37.3946 11.7763 39.0335 14.0621C40.6723 16.3478 41.2869 19.1414 40.8772 22.443C40.0578 28.7922 35.3461 35.3954 28.1762 40.4748C27.7665 40.7288 27.1519 40.7288 26.7422 39.9669C26.5373 39.459 26.7422 38.697 27.1519 38.1891C33.9121 33.3637 38.2141 27.5224 38.8287 21.9351C39.2384 19.3954 38.6238 17.1097 37.3947 15.5859C36.1655 13.8081 34.5267 13.0462 32.8878 13.0462C30.4296 13.0462 27.5616 15.0779 25.7179 17.8716C25.3082 18.3795 24.4888 18.3795 24.0791 17.8716C22.0306 15.0779 19.3674 13.0462 16.9092 13.0462C15.0655 13.0462 13.6315 13.8081 12.4024 15.5859C11.1732 17.1097 10.7636 19.3954 11.1733 21.9351C11.9927 28.2843 17.5238 34.8875 25.5131 39.9669C25.9228 40.2209 26.1276 40.9827 25.9227 41.7446C25.9227 42.5065 25.5131 42.7605 25.1034 42.7605Z" fill="white"/>
</g>
<defs>
<filter id="filter0_d" x="6.00012" y="7.7605" width="38" height="38" filterUnits="userSpaceOnUse" color-interpolation-filters="sRGB">
<feFlood flood-opacity="0" result="BackgroundImageFix"/>
<feColorMatrix in="SourceAlpha" type="matrix" values="0 0 0 0 0 0 0 0 0 0 0 0 0 0 0 0 0 0 127 0"/>
<feOffset/>
<feGaussianBlur stdDeviation="1.5"/>
<feColorMatrix type="matrix" values="0 0 0 0 0.545098 0 0 0 0 0.772549 0 0 0 0 0.247059 0 0 0 0.5 0"/>
<feBlend mode="normal" in2="BackgroundImageFix" result="effect1_dropShadow"/>
<feBlend mode="normal" in="SourceGraphic" in2="effect1_dropShadow" result="shape"/>
</filter>
</defs>
</svg>
