<svg width="78" height="54" viewBox="0 0 78 54" fill="none" xmlns="http://www.w3.org/2000/svg">
<path d="M5.757 12.445C6.28267 12.445 6.745 12.3753 7.144 12.236C7.54933 12.0967 7.88817 11.9035 8.1605 11.6565C8.43917 11.4032 8.64817 11.1023 8.7875 10.754C8.92683 10.4057 8.9965 10.0225 8.9965 9.6045C8.9965 8.73683 8.72733 8.05917 8.189 7.5715C7.657 7.08383 6.84633 6.84 5.757 6.84H3.572V12.445H5.757ZM5.757 5.3865C6.61833 5.3865 7.36567 5.48783 7.999 5.6905C8.63867 5.88683 9.1675 6.16867 9.5855 6.536C10.0035 6.90333 10.3138 7.34667 10.5165 7.866C10.7255 8.38533 10.83 8.96483 10.83 9.6045C10.83 10.2378 10.7192 10.8173 10.4975 11.343C10.2758 11.8687 9.94967 12.3215 9.519 12.7015C9.09467 13.0815 8.56583 13.3792 7.9325 13.5945C7.3055 13.8035 6.58033 13.908 5.757 13.908H3.572V19H1.7385V5.3865H5.757ZM14.1706 11.305C14.4746 10.6463 14.8483 10.1333 15.2916 9.766C15.7349 9.39233 16.2764 9.2055 16.9161 9.2055C17.1188 9.2055 17.3119 9.22767 17.4956 9.272C17.6856 9.31633 17.8534 9.386 17.9991 9.481L17.8756 10.7445C17.8376 10.9028 17.7426 10.982 17.5906 10.982C17.5019 10.982 17.3721 10.963 17.2011 10.925C17.0301 10.887 16.8369 10.868 16.6216 10.868C16.3176 10.868 16.0453 10.9123 15.8046 11.001C15.5703 11.0897 15.3581 11.2227 15.1681 11.4C14.9844 11.571 14.8166 11.7863 14.6646 12.046C14.5189 12.2993 14.3859 12.5907 14.2656 12.92V19H12.5651V9.3765H13.5341C13.7178 9.3765 13.8444 9.41133 13.9141 9.481C13.9838 9.55067 14.0313 9.671 14.0566 9.842L14.1706 11.305ZM25.5373 13.1385C25.5373 12.7458 25.4803 12.388 25.3663 12.065C25.2587 11.7357 25.0972 11.4538 24.8818 11.2195C24.6728 10.9788 24.4163 10.7952 24.1123 10.6685C23.8083 10.5355 23.4632 10.469 23.0768 10.469C22.2662 10.469 21.6233 10.7065 21.1483 11.1815C20.6797 11.6502 20.3883 12.3025 20.2743 13.1385H25.5373ZM26.9053 17.651C26.6963 17.9043 26.4462 18.126 26.1548 18.316C25.8635 18.4997 25.55 18.6517 25.2143 18.772C24.885 18.8923 24.543 18.981 24.1883 19.038C23.8337 19.1013 23.4822 19.133 23.1338 19.133C22.4688 19.133 21.8545 19.0222 21.2908 18.8005C20.7335 18.5725 20.249 18.2432 19.8373 17.8125C19.432 17.3755 19.1153 16.8372 18.8873 16.1975C18.6593 15.5578 18.5453 14.8232 18.5453 13.9935C18.5453 13.3222 18.6467 12.6952 18.8493 12.1125C19.0583 11.5298 19.356 11.0263 19.7423 10.602C20.1287 10.1713 20.6005 9.83567 21.1578 9.595C21.7152 9.348 22.3422 9.2245 23.0388 9.2245C23.6152 9.2245 24.1472 9.32267 24.6348 9.519C25.1288 9.709 25.5532 9.98767 25.9078 10.355C26.2688 10.716 26.5507 11.1657 26.7533 11.704C26.956 12.236 27.0573 12.844 27.0573 13.528C27.0573 13.794 27.0288 13.9713 26.9718 14.06C26.9148 14.1487 26.8072 14.193 26.6488 14.193H20.2173C20.2363 14.801 20.3187 15.3298 20.4643 15.7795C20.6163 16.2292 20.8253 16.606 21.0913 16.91C21.3573 17.2077 21.674 17.4325 22.0413 17.5845C22.4087 17.7302 22.8203 17.803 23.2763 17.803C23.7007 17.803 24.0648 17.7555 24.3688 17.6605C24.6792 17.5592 24.9452 17.4515 25.1668 17.3375C25.3885 17.2235 25.5722 17.119 25.7178 17.024C25.8698 16.9227 25.9997 16.872 26.1073 16.872C26.2467 16.872 26.3543 16.9258 26.4303 17.0335L26.9053 17.651ZM35.8319 11.0865C35.7813 11.1562 35.7306 11.21 35.6799 11.248C35.6293 11.286 35.5596 11.305 35.4709 11.305C35.3759 11.305 35.2714 11.267 35.1574 11.191C35.0434 11.1087 34.9009 11.02 34.7299 10.925C34.5653 10.83 34.3594 10.7445 34.1124 10.6685C33.8718 10.5862 33.5741 10.545 33.2194 10.545C32.7444 10.545 32.3264 10.6305 31.9654 10.8015C31.6044 10.9662 31.3004 11.2068 31.0534 11.5235C30.8128 11.8402 30.6291 12.2233 30.5024 12.673C30.3821 13.1227 30.3219 13.6262 30.3219 14.1835C30.3219 14.7662 30.3884 15.2855 30.5214 15.7415C30.6544 16.1912 30.8413 16.5712 31.0819 16.8815C31.3289 17.1855 31.6234 17.4198 31.9654 17.5845C32.3138 17.7428 32.7033 17.822 33.1339 17.822C33.5456 17.822 33.8844 17.7745 34.1504 17.6795C34.4164 17.5782 34.6349 17.4673 34.8059 17.347C34.9833 17.2267 35.1289 17.119 35.2429 17.024C35.3633 16.9227 35.4804 16.872 35.5944 16.872C35.7338 16.872 35.8414 16.9258 35.9174 17.0335L36.3924 17.651C36.1834 17.9107 35.9459 18.1323 35.6799 18.316C35.4139 18.4997 35.1258 18.6548 34.8154 18.7815C34.5114 18.9018 34.1916 18.9905 33.8559 19.0475C33.5203 19.1045 33.1783 19.133 32.8299 19.133C32.2283 19.133 31.6678 19.0222 31.1484 18.8005C30.6354 18.5788 30.1889 18.259 29.8089 17.841C29.4289 17.4167 29.1313 16.8973 28.9159 16.283C28.7006 15.6687 28.5929 14.9688 28.5929 14.1835C28.5929 13.4678 28.6911 12.806 28.8874 12.198C29.0901 11.59 29.3814 11.0675 29.7614 10.6305C30.1478 10.1872 30.6196 9.842 31.1769 9.595C31.7406 9.348 32.3866 9.2245 33.1149 9.2245C33.7926 9.2245 34.3879 9.33533 34.9009 9.557C35.4203 9.77233 35.8794 10.0795 36.2784 10.4785L35.8319 11.0865ZM39.9937 9.3765V19H38.3027V9.3765H39.9937ZM40.3547 6.3555C40.3547 6.52017 40.3198 6.67533 40.2502 6.821C40.1868 6.96033 40.0982 7.087 39.9842 7.201C39.8765 7.30867 39.7467 7.39417 39.5947 7.4575C39.449 7.52083 39.2938 7.5525 39.1292 7.5525C38.9645 7.5525 38.8093 7.52083 38.6637 7.4575C38.5243 7.39417 38.4008 7.30867 38.2932 7.201C38.1855 7.087 38.1 6.96033 38.0367 6.821C37.9733 6.67533 37.9417 6.52017 37.9417 6.3555C37.9417 6.19083 37.9733 6.03567 38.0367 5.89C38.1 5.738 38.1855 5.60817 38.2932 5.5005C38.4008 5.3865 38.5243 5.29783 38.6637 5.2345C38.8093 5.17117 38.9645 5.1395 39.1292 5.1395C39.2938 5.1395 39.449 5.17117 39.5947 5.2345C39.7467 5.29783 39.8765 5.3865 39.9842 5.5005C40.0982 5.60817 40.1868 5.738 40.2502 5.89C40.3198 6.03567 40.3547 6.19083 40.3547 6.3555ZM46.8286 9.2245C47.5316 9.2245 48.165 9.34167 48.7286 9.576C49.2923 9.81033 49.7736 10.1428 50.1726 10.5735C50.5716 11.0042 50.8756 11.5267 51.0846 12.141C51.3 12.749 51.4076 13.4298 51.4076 14.1835C51.4076 14.9435 51.3 15.6275 51.0846 16.2355C50.8756 16.8435 50.5716 17.3628 50.1726 17.7935C49.7736 18.2242 49.2923 18.5567 48.7286 18.791C48.165 19.019 47.5316 19.133 46.8286 19.133C46.1193 19.133 45.4796 19.019 44.9096 18.791C44.346 18.5567 43.8646 18.2242 43.4656 17.7935C43.0666 17.3628 42.7595 16.8435 42.5441 16.2355C42.3351 15.6275 42.2306 14.9435 42.2306 14.1835C42.2306 13.4298 42.3351 12.749 42.5441 12.141C42.7595 11.5267 43.0666 11.0042 43.4656 10.5735C43.8646 10.1428 44.346 9.81033 44.9096 9.576C45.4796 9.34167 46.1193 9.2245 46.8286 9.2245ZM46.8286 17.8125C47.7786 17.8125 48.488 17.4958 48.9566 16.8625C49.4253 16.2228 49.6596 15.333 49.6596 14.193C49.6596 13.0467 49.4253 12.1537 48.9566 11.514C48.488 10.8743 47.7786 10.5545 46.8286 10.5545C46.3473 10.5545 45.9261 10.6368 45.5651 10.8015C45.2105 10.9662 44.9128 11.2037 44.6721 11.514C44.4378 11.8243 44.2605 12.2075 44.1401 12.6635C44.0261 13.1132 43.9691 13.623 43.9691 14.193C43.9691 15.333 44.2035 16.2228 44.6721 16.8625C45.1471 17.4958 45.866 17.8125 46.8286 17.8125Z" fill="black"/>
<path d="M13 54C9.79454 54 6.78099 52.7517 4.5147 50.4852C2.24823 48.2188 1 45.2054 1 42C1 38.7945 2.24823 35.7812 4.5147 33.5147C6.78118 31.2482 9.79454 30 13 30C16.2054 30 19.2188 31.2482 21.4852 33.5147C23.7517 35.7812 25 38.7945 25 42C25 45.2054 23.7517 48.219 21.4852 50.4854C19.2188 52.7517 16.2054 54 13 54ZM13 30.9375C6.90001 30.9375 1.9375 35.9002 1.9375 42C1.9375 48.0999 6.90001 53.0625 13 53.0625C19.0999 53.0625 24.0625 48.0999 24.0625 42C24.0625 35.9002 19.0999 30.9375 13 30.9375Z" fill="#8DC63F"/>
<path d="M13.0113 50.8093C11.5529 50.8093 10.0988 50.4491 8.81856 49.7594C8.59078 49.6365 8.50545 49.3523 8.62831 49.1244C8.751 48.8964 9.03536 48.8113 9.26332 48.9341C12.2994 50.5702 16.125 50.0077 18.5662 47.5663C20.0537 46.079 20.8729 44.1011 20.8729 41.9975C20.8729 39.8938 20.0537 37.9161 18.5662 36.4286C15.4957 33.3581 10.4991 33.3579 7.42842 36.4288C4.98726 38.8699 4.42476 42.6954 6.06063 45.7314C6.18349 45.9594 6.09835 46.2436 5.87038 46.3664C5.6426 46.4891 5.35805 46.404 5.23537 46.1762C4.35482 44.5422 4.01168 42.6245 4.26876 40.7766C4.53463 38.8661 5.39797 37.1332 6.76558 35.7657C10.2017 32.3294 15.7929 32.3294 19.2292 35.7657C20.8938 37.4303 21.8104 39.6434 21.8104 41.9975C21.8104 44.3515 20.8936 46.5647 19.2292 48.2294C17.8616 49.597 16.1289 50.4603 14.2183 50.7262C13.8181 50.7818 13.4145 50.8093 13.0113 50.8093Z" fill="#8DC63F"/>
<path d="M7.09231 48.3714C6.97293 48.3714 6.85373 48.3261 6.76217 48.2355C6.57833 48.0531 6.57724 47.7563 6.75943 47.5725L6.76474 47.5672C6.94711 47.3833 7.24392 47.3821 7.42776 47.5644C7.6116 47.7466 7.6127 48.0434 7.43051 48.2273L7.4252 48.2326C7.33346 48.325 7.21298 48.3714 7.09231 48.3714Z" fill="#8DC63F"/>
<path d="M14.925 45.4127C14.4663 45.6857 13.9728 45.8241 13.4581 45.8241C12.1352 45.8241 10.9946 44.8921 10.4852 43.5582H12.9178C13.1767 43.5582 13.3865 43.3483 13.3865 43.0894C13.3865 42.8305 13.1767 42.6207 12.9178 42.6207H10.2448C10.2164 42.4178 10.201 42.21 10.201 41.9979C10.201 41.8337 10.2108 41.6722 10.228 41.5132H13.6288C13.8877 41.5132 14.0977 41.3034 14.0977 41.0445C14.0977 40.7856 13.8877 40.5757 13.6288 40.5757H10.4352C10.9168 39.1684 12.09 38.1718 13.4581 38.1718C13.9728 38.1718 14.4663 38.3102 14.925 38.5832C15.1475 38.7156 15.4351 38.6425 15.5675 38.42C15.6999 38.1976 15.627 37.9099 15.4045 37.7775C14.8072 37.4221 14.1343 37.2343 13.4581 37.2343C11.5811 37.2343 9.98828 38.6414 9.45435 40.5757H8.56592C8.30719 40.5757 8.09717 40.7856 8.09717 41.0445C8.09717 41.3034 8.30719 41.5132 8.56592 41.5132H9.28497C9.27069 41.6725 9.26337 41.8342 9.26337 41.9979C9.26337 42.2089 9.27563 42.4167 9.29926 42.6207H8.56592C8.30719 42.6207 8.09717 42.8305 8.09717 43.0894C8.09717 43.3483 8.30719 43.5582 8.56592 43.5582H9.49463C10.065 45.4207 11.6262 46.7614 13.4581 46.7614C14.1342 46.7614 14.8072 46.5735 15.4044 46.2181C15.6268 46.0858 15.6999 45.7981 15.5675 45.5756C15.4351 45.3531 15.1475 45.2801 14.925 45.4127Z" fill="#8DC63F"/>
<path d="M33.305 46.0071V35.2596H36.7325C37.3925 35.2596 37.96 35.3246 38.435 35.4546C38.915 35.5846 39.3075 35.7696 39.6125 36.0096C39.9225 36.2496 40.15 36.5446 40.295 36.8946C40.445 37.2396 40.52 37.6296 40.52 38.0646C40.52 38.3296 40.4775 38.5846 40.3925 38.8296C40.3125 39.0746 40.1875 39.3021 40.0175 39.5121C39.8525 39.7221 39.6425 39.9096 39.3875 40.0746C39.1375 40.2396 38.8425 40.3746 38.5025 40.4796C39.2875 40.6346 39.88 40.9171 40.28 41.3271C40.68 41.7371 40.88 42.2771 40.88 42.9471C40.88 43.4021 40.795 43.8171 40.625 44.1921C40.46 44.5671 40.215 44.8896 39.89 45.1596C39.57 45.4296 39.175 45.6396 38.705 45.7896C38.24 45.9346 37.7075 46.0071 37.1075 46.0071H33.305ZM34.76 41.1096V44.8521H37.085C37.5 44.8521 37.855 44.8046 38.15 44.7096C38.45 44.6146 38.695 44.4821 38.885 44.3121C39.08 44.1371 39.2225 43.9321 39.3125 43.6971C39.4025 43.4571 39.4475 43.1946 39.4475 42.9096C39.4475 42.3546 39.25 41.9171 38.855 41.5971C38.465 41.2721 37.8725 41.1096 37.0775 41.1096H34.76ZM34.76 40.0746H36.68C37.09 40.0746 37.445 40.0296 37.745 39.9396C38.045 39.8496 38.2925 39.7246 38.4875 39.5646C38.6875 39.4046 38.835 39.2121 38.93 38.9871C39.025 38.7571 39.0725 38.5071 39.0725 38.2371C39.0725 37.6071 38.8825 37.1446 38.5025 36.8496C38.1225 36.5546 37.5325 36.4071 36.7325 36.4071H34.76V40.0746ZM48.5744 46.0071H47.9819C47.8519 46.0071 47.7469 45.9871 47.6669 45.9471C47.5869 45.9071 47.5344 45.8221 47.5094 45.6921L47.3594 44.9871C47.1594 45.1671 46.9644 45.3296 46.7744 45.4746C46.5844 45.6146 46.3844 45.7346 46.1744 45.8346C45.9644 45.9296 45.7394 46.0021 45.4994 46.0521C45.2644 46.1021 45.0019 46.1271 44.7119 46.1271C44.4169 46.1271 44.1394 46.0871 43.8794 46.0071C43.6244 45.9221 43.4019 45.7971 43.2119 45.6321C43.0219 45.4671 42.8694 45.2596 42.7544 45.0096C42.6444 44.7546 42.5894 44.4546 42.5894 44.1096C42.5894 43.8096 42.6719 43.5221 42.8369 43.2471C43.0019 42.9671 43.2669 42.7196 43.6319 42.5046C44.0019 42.2896 44.4844 42.1146 45.0794 41.9796C45.6744 41.8396 46.4019 41.7596 47.2619 41.7396V41.1471C47.2619 40.5571 47.1344 40.1121 46.8794 39.8121C46.6294 39.5071 46.2569 39.3546 45.7619 39.3546C45.4369 39.3546 45.1619 39.3971 44.9369 39.4821C44.7169 39.5621 44.5244 39.6546 44.3594 39.7596C44.1994 39.8596 44.0594 39.9521 43.9394 40.0371C43.8244 40.1171 43.7094 40.1571 43.5944 40.1571C43.5044 40.1571 43.4244 40.1346 43.3544 40.0896C43.2894 40.0396 43.2369 39.9796 43.1969 39.9096L42.9569 39.4821C43.3769 39.0771 43.8294 38.7746 44.3144 38.5746C44.7994 38.3746 45.3369 38.2746 45.9269 38.2746C46.3519 38.2746 46.7294 38.3446 47.0594 38.4846C47.3894 38.6246 47.6669 38.8196 47.8919 39.0696C48.1169 39.3196 48.2869 39.6221 48.4019 39.9771C48.5169 40.3321 48.5744 40.7221 48.5744 41.1471V46.0071ZM45.1094 45.1896C45.3444 45.1896 45.5594 45.1671 45.7544 45.1221C45.9494 45.0721 46.1319 45.0046 46.3019 44.9196C46.4769 44.8296 46.6419 44.7221 46.7969 44.5971C46.9569 44.4721 47.1119 44.3296 47.2619 44.1696V42.5871C46.6469 42.6071 46.1244 42.6571 45.6944 42.7371C45.2644 42.8121 44.9144 42.9121 44.6444 43.0371C44.3744 43.1621 44.1769 43.3096 44.0519 43.4796C43.9319 43.6496 43.8719 43.8396 43.8719 44.0496C43.8719 44.2496 43.9044 44.4221 43.9694 44.5671C44.0344 44.7121 44.1219 44.8321 44.2319 44.9271C44.3419 45.0171 44.4719 45.0846 44.6219 45.1296C44.7719 45.1696 44.9344 45.1896 45.1094 45.1896ZM50.7845 46.0071V38.4096H51.5495C51.6945 38.4096 51.7945 38.4371 51.8495 38.4921C51.9045 38.5471 51.942 38.6421 51.962 38.7771L52.052 39.9621C52.312 39.4321 52.632 39.0196 53.012 38.7246C53.397 38.4246 53.847 38.2746 54.362 38.2746C54.572 38.2746 54.762 38.2996 54.932 38.3496C55.102 38.3946 55.2595 38.4596 55.4045 38.5446L55.232 39.5421C55.197 39.6671 55.1195 39.7296 54.9995 39.7296C54.9295 39.7296 54.822 39.7071 54.677 39.6621C54.532 39.6121 54.3295 39.5871 54.0695 39.5871C53.6045 39.5871 53.2145 39.7221 52.8995 39.9921C52.5895 40.2621 52.3295 40.6546 52.1195 41.1696V46.0071H50.7845ZM62.3234 46.0071H61.7309C61.6009 46.0071 61.4959 45.9871 61.4159 45.9471C61.3359 45.9071 61.2834 45.8221 61.2584 45.6921L61.1084 44.9871C60.9084 45.1671 60.7134 45.3296 60.5234 45.4746C60.3334 45.6146 60.1334 45.7346 59.9234 45.8346C59.7134 45.9296 59.4884 46.0021 59.2484 46.0521C59.0134 46.1021 58.7509 46.1271 58.4609 46.1271C58.1659 46.1271 57.8884 46.0871 57.6284 46.0071C57.3734 45.9221 57.1509 45.7971 56.9609 45.6321C56.7709 45.4671 56.6184 45.2596 56.5034 45.0096C56.3934 44.7546 56.3384 44.4546 56.3384 44.1096C56.3384 43.8096 56.4209 43.5221 56.5859 43.2471C56.7509 42.9671 57.0159 42.7196 57.3809 42.5046C57.7509 42.2896 58.2334 42.1146 58.8284 41.9796C59.4234 41.8396 60.1509 41.7596 61.0109 41.7396V41.1471C61.0109 40.5571 60.8834 40.1121 60.6284 39.8121C60.3784 39.5071 60.0059 39.3546 59.5109 39.3546C59.1859 39.3546 58.9109 39.3971 58.6859 39.4821C58.4659 39.5621 58.2734 39.6546 58.1084 39.7596C57.9484 39.8596 57.8084 39.9521 57.6884 40.0371C57.5734 40.1171 57.4584 40.1571 57.3434 40.1571C57.2534 40.1571 57.1734 40.1346 57.1034 40.0896C57.0384 40.0396 56.9859 39.9796 56.9459 39.9096L56.7059 39.4821C57.1259 39.0771 57.5784 38.7746 58.0634 38.5746C58.5484 38.3746 59.0859 38.2746 59.6759 38.2746C60.1009 38.2746 60.4784 38.3446 60.8084 38.4846C61.1384 38.6246 61.4159 38.8196 61.6409 39.0696C61.8659 39.3196 62.0359 39.6221 62.1509 39.9771C62.2659 40.3321 62.3234 40.7221 62.3234 41.1471V46.0071ZM58.8584 45.1896C59.0934 45.1896 59.3084 45.1671 59.5034 45.1221C59.6984 45.0721 59.8809 45.0046 60.0509 44.9196C60.2259 44.8296 60.3909 44.7221 60.5459 44.5971C60.7059 44.4721 60.8609 44.3296 61.0109 44.1696V42.5871C60.3959 42.6071 59.8734 42.6571 59.4434 42.7371C59.0134 42.8121 58.6634 42.9121 58.3934 43.0371C58.1234 43.1621 57.9259 43.3096 57.8009 43.4796C57.6809 43.6496 57.6209 43.8396 57.6209 44.0496C57.6209 44.2496 57.6534 44.4221 57.7184 44.5671C57.7834 44.7121 57.8709 44.8321 57.9809 44.9271C58.0909 45.0171 58.2209 45.0846 58.3709 45.1296C58.5209 45.1696 58.6834 45.1896 58.8584 45.1896ZM66.836 46.1271C66.236 46.1271 65.7735 45.9596 65.4485 45.6246C65.1285 45.2896 64.9685 44.8071 64.9685 44.1771V39.5271H64.0535C63.9735 39.5271 63.906 39.5046 63.851 39.4596C63.796 39.4096 63.7685 39.3346 63.7685 39.2346V38.7021L65.0135 38.5446L65.321 36.1971C65.331 36.1221 65.3635 36.0621 65.4185 36.0171C65.4735 35.9671 65.5435 35.9421 65.6285 35.9421H66.3035V38.5596H68.4785V39.5271H66.3035V44.0871C66.3035 44.4071 66.381 44.6446 66.536 44.7996C66.691 44.9546 66.891 45.0321 67.136 45.0321C67.276 45.0321 67.396 45.0146 67.496 44.9796C67.601 44.9396 67.691 44.8971 67.766 44.8521C67.841 44.8071 67.9035 44.7671 67.9535 44.7321C68.0085 44.6921 68.056 44.6721 68.096 44.6721C68.166 44.6721 68.2285 44.7146 68.2835 44.7996L68.6735 45.4371C68.4435 45.6521 68.166 45.8221 67.841 45.9471C67.516 46.0671 67.181 46.1271 66.836 46.1271ZM73.3917 38.2896C73.9467 38.2896 74.4467 38.3821 74.8917 38.5671C75.3417 38.7521 75.7217 39.0146 76.0317 39.3546C76.3467 39.6946 76.5867 40.1071 76.7517 40.5921C76.9217 41.0721 77.0067 41.6096 77.0067 42.2046C77.0067 42.8046 76.9217 43.3446 76.7517 43.8246C76.5867 44.3046 76.3467 44.7146 76.0317 45.0546C75.7217 45.3946 75.3417 45.6571 74.8917 45.8421C74.4467 46.0221 73.9467 46.1121 73.3917 46.1121C72.8367 46.1121 72.3342 46.0221 71.8842 45.8421C71.4392 45.6571 71.0592 45.3946 70.7442 45.0546C70.4292 44.7146 70.1867 44.3046 70.0167 43.8246C69.8467 43.3446 69.7617 42.8046 69.7617 42.2046C69.7617 41.6096 69.8467 41.0721 70.0167 40.5921C70.1867 40.1071 70.4292 39.6946 70.7442 39.3546C71.0592 39.0146 71.4392 38.7521 71.8842 38.5671C72.3342 38.3821 72.8367 38.2896 73.3917 38.2896ZM73.3917 45.0696C74.1417 45.0696 74.7017 44.8196 75.0717 44.3196C75.4417 43.8146 75.6267 43.1121 75.6267 42.2121C75.6267 41.3071 75.4417 40.6021 75.0717 40.0971C74.7017 39.5921 74.1417 39.3396 73.3917 39.3396C73.0117 39.3396 72.6817 39.4046 72.4017 39.5346C72.1217 39.6646 71.8867 39.8521 71.6967 40.0971C71.5117 40.3421 71.3717 40.6446 71.2767 41.0046C71.1867 41.3596 71.1417 41.7621 71.1417 42.2121C71.1417 42.6621 71.1867 43.0646 71.2767 43.4196C71.3717 43.7746 71.5117 44.0746 71.6967 44.3196C71.8867 44.5596 72.1217 44.7446 72.4017 44.8746C72.6817 45.0046 73.0117 45.0696 73.3917 45.0696Z" fill="#334717"/>
</svg>
