<svg width="100" height="130" viewBox="0 0 100 130" fill="none" xmlns="http://www.w3.org/2000/svg">
<rect width="100" height="130" rx="10" fill="white"/>
<path d="M34.4679 96.9117V101.2H32.9239V89.7357H36.3079C37.0332 89.7357 37.6626 89.8211 38.1959 89.9917C38.7346 90.1571 39.1799 90.3944 39.5319 90.7037C39.8839 91.0131 40.1452 91.3864 40.3159 91.8237C40.4919 92.2611 40.5799 92.7491 40.5799 93.2877C40.5799 93.8211 40.4866 94.3091 40.2999 94.7517C40.1133 95.1944 39.8386 95.5757 39.4759 95.8957C39.1186 96.2157 38.6732 96.4664 38.1399 96.6477C37.6066 96.8237 36.9959 96.9117 36.3079 96.9117H34.4679ZM34.4679 95.6797H36.3079C36.7506 95.6797 37.1399 95.6211 37.4759 95.5037C37.8172 95.3864 38.1026 95.2237 38.3319 95.0157C38.5612 94.8024 38.7346 94.5491 38.8519 94.2557C38.9692 93.9624 39.0279 93.6397 39.0279 93.2877C39.0279 92.5571 38.8012 91.9864 38.3479 91.5757C37.8999 91.1651 37.2199 90.9597 36.3079 90.9597H34.4679V95.6797Z" fill="black"/>
<path d="M48.0169 101.2H47.3849C47.2463 101.2 47.1342 101.178 47.0489 101.136C46.9636 101.093 46.9076 101.002 46.8809 100.864L46.7209 100.112C46.5076 100.304 46.2996 100.477 46.0969 100.632C45.8942 100.781 45.6809 100.909 45.4569 101.016C45.2329 101.117 44.9929 101.194 44.7369 101.248C44.4862 101.301 44.2062 101.328 43.8969 101.328C43.5822 101.328 43.2862 101.285 43.0089 101.2C42.7369 101.109 42.4996 100.976 42.2969 100.8C42.0942 100.624 41.9316 100.402 41.8089 100.136C41.6916 99.8637 41.6329 99.5437 41.6329 99.1757C41.6329 98.8557 41.7209 98.5491 41.8969 98.2557C42.0729 97.9571 42.3556 97.6931 42.7449 97.4637C43.1396 97.2344 43.6542 97.0477 44.2889 96.9037C44.9236 96.7544 45.6996 96.6691 46.6169 96.6477V96.0157C46.6169 95.3864 46.4809 94.9117 46.2089 94.5917C45.9422 94.2664 45.5449 94.1037 45.0169 94.1037C44.6702 94.1037 44.3769 94.1491 44.1369 94.2397C43.9022 94.3251 43.6969 94.4237 43.5209 94.5357C43.3503 94.6424 43.2009 94.7411 43.0729 94.8317C42.9502 94.9171 42.8276 94.9597 42.7049 94.9597C42.6089 94.9597 42.5236 94.9357 42.4489 94.8877C42.3796 94.8344 42.3236 94.7704 42.2809 94.6957L42.0249 94.2397C42.4729 93.8077 42.9556 93.4851 43.4729 93.2717C43.9902 93.0584 44.5636 92.9517 45.1929 92.9517C45.6462 92.9517 46.0489 93.0264 46.4009 93.1757C46.7529 93.3251 47.0489 93.5331 47.2889 93.7997C47.5289 94.0664 47.7102 94.3891 47.8329 94.7677C47.9556 95.1464 48.0169 95.5624 48.0169 96.0157V101.2ZM44.3209 100.328C44.5716 100.328 44.8009 100.304 45.0089 100.256C45.2169 100.202 45.4116 100.13 45.5929 100.04C45.7796 99.9437 45.9556 99.8291 46.1209 99.6957C46.2916 99.5624 46.4569 99.4104 46.6169 99.2397V97.5517C45.9609 97.5731 45.4036 97.6264 44.9449 97.7117C44.4862 97.7917 44.1129 97.8984 43.8249 98.0317C43.5369 98.1651 43.3262 98.3224 43.1929 98.5037C43.0649 98.6851 43.0009 98.8877 43.0009 99.1117C43.0009 99.3251 43.0356 99.5091 43.1049 99.6637C43.1742 99.8184 43.2676 99.9464 43.3849 100.048C43.5022 100.144 43.6409 100.216 43.8009 100.264C43.9609 100.306 44.1342 100.328 44.3209 100.328Z" fill="black"/>
<path d="M50.3243 101.2V93.0957H51.1723C51.375 93.0957 51.503 93.1944 51.5563 93.3917L51.6683 94.2717C52.0203 93.8824 52.4123 93.5677 52.8443 93.3277C53.2816 93.0877 53.7856 92.9677 54.3563 92.9677C54.799 92.9677 55.1883 93.0424 55.5243 93.1917C55.8656 93.3357 56.1483 93.5437 56.3723 93.8157C56.6016 94.0824 56.775 94.4051 56.8923 94.7837C57.0096 95.1624 57.0683 95.5811 57.0683 96.0397V101.2H55.6443V96.0397C55.6443 95.4264 55.503 94.9517 55.2203 94.6157C54.943 94.2744 54.5163 94.1037 53.9403 94.1037C53.519 94.1037 53.1243 94.2051 52.7563 94.4077C52.3936 94.6104 52.0576 94.8851 51.7483 95.2317V101.2H50.3243Z" fill="black"/>
<path d="M64.9847 103.592C64.9367 103.698 64.8753 103.784 64.8007 103.848C64.7313 103.912 64.622 103.944 64.4727 103.944H63.4167L64.8967 100.728L61.5527 93.0957H62.7847C62.9073 93.0957 63.0033 93.1277 63.0727 93.1917C63.142 93.2504 63.1927 93.3171 63.2247 93.3917L65.3927 98.4957C65.4407 98.6131 65.4807 98.7304 65.5127 98.8477C65.55 98.9651 65.582 99.0851 65.6087 99.2077C65.646 99.0851 65.6833 98.9651 65.7207 98.8477C65.758 98.7304 65.8007 98.6104 65.8487 98.4877L67.9527 93.3917C67.9847 93.3064 68.038 93.2371 68.1127 93.1837C68.1927 93.1251 68.278 93.0957 68.3687 93.0957H69.5047L64.9847 103.592Z" fill="black"/>
<path d="M24.6598 117.2V105.416H26.0918V110.264C26.4278 109.874 26.8118 109.562 27.2438 109.328C27.6811 109.088 28.1798 108.968 28.7398 108.968C29.2091 108.968 29.6331 109.056 30.0118 109.232C30.3905 109.408 30.7131 109.672 30.9798 110.024C31.2465 110.37 31.4518 110.802 31.5958 111.32C31.7398 111.832 31.8118 112.424 31.8118 113.096C31.8118 113.693 31.7318 114.25 31.5718 114.768C31.4118 115.28 31.1798 115.725 30.8758 116.104C30.5771 116.477 30.2091 116.773 29.7718 116.992C29.3398 117.205 28.8518 117.312 28.3078 117.312C27.7851 117.312 27.3398 117.21 26.9718 117.008C26.6091 116.805 26.2918 116.522 26.0198 116.16L25.9478 116.896C25.9051 117.098 25.7825 117.2 25.5798 117.2H24.6598ZM28.2758 110.104C27.8118 110.104 27.4038 110.21 27.0518 110.424C26.7051 110.637 26.3851 110.938 26.0918 111.328V115.248C26.3478 115.6 26.6305 115.848 26.9398 115.992C27.2545 116.136 27.6038 116.208 27.9878 116.208C28.7451 116.208 29.3265 115.938 29.7318 115.4C30.1371 114.861 30.3398 114.093 30.3398 113.096C30.3398 112.568 30.2918 112.114 30.1958 111.736C30.1051 111.357 29.9718 111.048 29.7958 110.808C29.6198 110.562 29.4038 110.384 29.1478 110.272C28.8918 110.16 28.6011 110.104 28.2758 110.104Z" fill="black"/>
<path d="M36.9793 108.968C37.5713 108.968 38.1046 109.066 38.5793 109.264C39.0593 109.461 39.4646 109.741 39.7953 110.104C40.1313 110.466 40.3873 110.906 40.5633 111.424C40.7446 111.936 40.8353 112.509 40.8353 113.144C40.8353 113.784 40.7446 114.36 40.5633 114.872C40.3873 115.384 40.1313 115.821 39.7953 116.184C39.4646 116.546 39.0593 116.826 38.5793 117.024C38.1046 117.216 37.5713 117.312 36.9793 117.312C36.3873 117.312 35.8513 117.216 35.3713 117.024C34.8966 116.826 34.4913 116.546 34.1553 116.184C33.8193 115.821 33.5606 115.384 33.3793 114.872C33.198 114.36 33.1073 113.784 33.1073 113.144C33.1073 112.509 33.198 111.936 33.3793 111.424C33.5606 110.906 33.8193 110.466 34.1553 110.104C34.4913 109.741 34.8966 109.461 35.3713 109.264C35.8513 109.066 36.3873 108.968 36.9793 108.968ZM36.9793 116.2C37.7793 116.2 38.3766 115.933 38.7713 115.4C39.166 114.861 39.3633 114.112 39.3633 113.152C39.3633 112.186 39.166 111.434 38.7713 110.896C38.3766 110.357 37.7793 110.088 36.9793 110.088C36.574 110.088 36.222 110.157 35.9233 110.296C35.6246 110.434 35.374 110.634 35.1713 110.896C34.974 111.157 34.8246 111.48 34.7233 111.864C34.6273 112.242 34.5793 112.672 34.5793 113.152C34.5793 113.632 34.6273 114.061 34.7233 114.44C34.8246 114.818 34.974 115.138 35.1713 115.4C35.374 115.656 35.6246 115.853 35.9233 115.992C36.222 116.13 36.574 116.2 36.9793 116.2Z" fill="black"/>
<path d="M44.3239 105.416V117.2H42.8999V105.416H44.3239Z" fill="black"/>
<path d="M48.5677 105.416V117.2H47.1437V105.416H48.5677Z" fill="black"/>
<path d="M54.4354 108.968C54.9207 108.968 55.3687 109.05 55.7794 109.216C56.1901 109.376 56.5447 109.61 56.8434 109.92C57.1421 110.224 57.3741 110.602 57.5394 111.056C57.7101 111.504 57.7954 112.016 57.7954 112.592C57.7954 112.816 57.7714 112.965 57.7234 113.04C57.6754 113.114 57.5848 113.152 57.4514 113.152H52.0594C52.0701 113.664 52.1394 114.109 52.2674 114.488C52.3954 114.866 52.5714 115.184 52.7954 115.44C53.0194 115.69 53.2861 115.88 53.5954 116.008C53.9047 116.13 54.2514 116.192 54.6354 116.192C54.9928 116.192 55.2994 116.152 55.5554 116.072C55.8167 115.986 56.0407 115.896 56.2274 115.8C56.4141 115.704 56.5687 115.616 56.6914 115.536C56.8194 115.45 56.9287 115.408 57.0194 115.408C57.1367 115.408 57.2274 115.453 57.2914 115.544L57.6914 116.064C57.5154 116.277 57.3047 116.464 57.0594 116.624C56.8141 116.778 56.5501 116.906 56.2674 117.008C55.9901 117.109 55.7021 117.184 55.4034 117.232C55.1048 117.285 54.8088 117.312 54.5154 117.312C53.9554 117.312 53.4381 117.218 52.9634 117.032C52.4941 116.84 52.0861 116.562 51.7394 116.2C51.3981 115.832 51.1314 115.378 50.9394 114.84C50.7474 114.301 50.6514 113.682 50.6514 112.984C50.6514 112.418 50.7367 111.89 50.9074 111.4C51.0834 110.909 51.3341 110.485 51.6594 110.128C51.9847 109.765 52.3821 109.482 52.8514 109.28C53.3207 109.072 53.8487 108.968 54.4354 108.968ZM54.4674 110.016C53.7794 110.016 53.2381 110.216 52.8434 110.616C52.4487 111.01 52.2034 111.56 52.1074 112.264H56.5154C56.5154 111.933 56.4701 111.632 56.3794 111.36C56.2887 111.082 56.1554 110.845 55.9794 110.648C55.8034 110.445 55.5874 110.29 55.3314 110.184C55.0807 110.072 54.7928 110.016 54.4674 110.016Z" fill="black"/>
<path d="M59.768 117.2V109.096H60.584C60.7387 109.096 60.8454 109.125 60.904 109.184C60.9627 109.242 61.0027 109.344 61.024 109.488L61.12 110.752C61.3974 110.186 61.7387 109.746 62.144 109.432C62.5547 109.112 63.0347 108.952 63.584 108.952C63.808 108.952 64.0107 108.978 64.192 109.032C64.3734 109.08 64.5414 109.149 64.696 109.24L64.512 110.304C64.4747 110.437 64.392 110.504 64.264 110.504C64.1894 110.504 64.0747 110.48 63.92 110.432C63.7654 110.378 63.5494 110.352 63.272 110.352C62.776 110.352 62.36 110.496 62.024 110.784C61.6934 111.072 61.416 111.49 61.192 112.04V117.2H59.768Z" fill="black"/>
<path d="M67.9552 109.096V117.2H66.5312V109.096H67.9552ZM69.6192 105.608L67.7552 107.672C67.6805 107.752 67.6058 107.81 67.5312 107.848C67.4618 107.88 67.3712 107.896 67.2592 107.896H66.4112L67.5952 105.96C67.6698 105.837 67.7498 105.749 67.8352 105.696C67.9258 105.637 68.0565 105.608 68.2272 105.608H69.6192Z" fill="black"/>
<path d="M76.5669 117.2H75.9349C75.7962 117.2 75.6842 117.178 75.5989 117.136C75.5136 117.093 75.4576 117.002 75.4309 116.864L75.2709 116.112C75.0576 116.304 74.8496 116.477 74.6469 116.632C74.4442 116.781 74.2309 116.909 74.0069 117.016C73.7829 117.117 73.5429 117.194 73.2869 117.248C73.0362 117.301 72.7562 117.328 72.4469 117.328C72.1322 117.328 71.8362 117.285 71.5589 117.2C71.2869 117.109 71.0496 116.976 70.8469 116.8C70.6442 116.624 70.4816 116.402 70.3589 116.136C70.2416 115.864 70.1829 115.544 70.1829 115.176C70.1829 114.856 70.2709 114.549 70.4469 114.256C70.6229 113.957 70.9056 113.693 71.2949 113.464C71.6896 113.234 72.2042 113.048 72.8389 112.904C73.4736 112.754 74.2496 112.669 75.1669 112.648V112.016C75.1669 111.386 75.0309 110.912 74.7589 110.592C74.4922 110.266 74.0949 110.104 73.5669 110.104C73.2202 110.104 72.9269 110.149 72.6869 110.24C72.4523 110.325 72.2469 110.424 72.0709 110.536C71.9002 110.642 71.7509 110.741 71.6229 110.832C71.5002 110.917 71.3776 110.96 71.2549 110.96C71.1589 110.96 71.0736 110.936 70.9989 110.888C70.9296 110.834 70.8736 110.77 70.8309 110.696L70.5749 110.24C71.0229 109.808 71.5056 109.485 72.0229 109.272C72.5402 109.058 73.1136 108.952 73.7429 108.952C74.1963 108.952 74.5989 109.026 74.9509 109.176C75.3029 109.325 75.5989 109.533 75.8389 109.8C76.0789 110.066 76.2603 110.389 76.3829 110.768C76.5056 111.146 76.5669 111.562 76.5669 112.016V117.2ZM72.8709 116.328C73.1216 116.328 73.3509 116.304 73.5589 116.256C73.7669 116.202 73.9616 116.13 74.1429 116.04C74.3296 115.944 74.5056 115.829 74.6709 115.696C74.8416 115.562 75.0069 115.41 75.1669 115.24V113.552C74.5109 113.573 73.9536 113.626 73.4949 113.712C73.0362 113.792 72.6629 113.898 72.3749 114.032C72.0869 114.165 71.8763 114.322 71.7429 114.504C71.6149 114.685 71.5509 114.888 71.5509 115.112C71.5509 115.325 71.5856 115.509 71.6549 115.664C71.7242 115.818 71.8176 115.946 71.9349 116.048C72.0522 116.144 72.1909 116.216 72.3509 116.264C72.5109 116.306 72.6842 116.328 72.8709 116.328Z" fill="black"/>
<path d="M49.5 47.8122C66.4712 47.8122 81.6447 50.2572 92 54.0685C89.8426 30.4814 71.6489 12 49.5 12C27.3511 12 9.15736 30.4814 7 54.0685C17.3553 50.1853 32.5288 47.8122 49.5 47.8122Z" fill="#8EC044"/>
<path d="M11.7461 64.9814C11.7461 64.9814 9.80446 67.8578 14.6226 72.3883C19.4407 76.9188 25.6251 77.4221 26.3442 73.3232C27.0633 69.2242 27.2791 65.9162 27.2791 65.9162C27.2791 65.9162 29.6522 65.4128 31.5938 63.5431C33.5354 61.6734 35.4051 61.3858 35.4051 61.3858C35.4051 61.3858 37.0591 51.5338 35.4051 51.5338C33.7512 51.5338 15.054 52.2529 12.3933 62.3206L11.7461 64.9814Z" fill="#D2D2D2"/>
<path d="M32.6006 60.4509C32.6006 60.4509 30.4432 65.269 42.884 69.7995C55.3248 74.3299 76.2512 77.0626 83.1547 71.7411C88.4043 67.6421 83.8738 63.1117 78.6243 61.8892C73.6623 60.7386 31.1623 47.5068 32.6006 60.4509Z" fill="#D2D2D2"/>
<path d="M55.3967 53.7631L76.0355 49.2327C76.0355 49.2327 79.8468 49.4484 80.3502 50.4552C80.8536 51.39 64.3138 61.0262 64.3138 61.0262C64.3138 61.0262 51.8011 57.7902 55.3967 53.7631Z" fill="#D2D2D2"/>
<path d="M53.7428 54.6261C54.6058 53.5474 52.5203 49.1608 41.8054 46.3562C39.6481 45.0618 36.7716 44.127 34.0389 44.127C32.313 44.127 30.8748 44.4865 29.868 45.0618C27.5668 44.5584 24.978 44.6303 22.7487 45.4214C20.4476 46.2124 18.9374 47.7226 18.434 49.3765C16.78 49.808 15.198 50.599 14.0474 51.8215C12.1777 53.8351 11.7462 56.4958 12.6091 58.8689C10.308 69.6557 18.6498 74.1862 21.1667 74.4019C26.0567 74.7615 26.2005 70.231 26.2724 64.0466C27.6388 63.4713 28.7894 62.6803 29.5804 61.6735C30.1557 60.9544 30.4433 60.1633 30.6591 59.3004C30.731 59.2285 30.8748 59.1566 30.9467 59.0847C32.4569 59.0847 33.8232 58.797 34.9738 58.2936C36.1244 57.7902 36.9154 56.9992 37.5626 56.0643C37.8503 55.9924 38.066 55.9205 38.3537 55.8486C39.1447 55.9924 39.8638 55.9924 40.5829 55.9924C41.7335 55.9205 42.6684 55.6329 43.4594 55.2733C50.0034 54.3385 52.9518 56.0643 53.7428 54.6261Z" fill="url(#paint0_linear)"/>
<path d="M16.6362 68.9366C16.4924 67.7141 16.3486 66.4196 16.2048 64.9095C16.1328 64.1904 16.0609 63.3993 16.0609 62.6083C16.0609 62.2487 16.0609 61.8173 16.1328 61.4577C16.1328 61.242 16.2048 61.0981 16.2048 60.8824C16.2048 60.8105 16.2767 60.7386 16.2767 60.5948L16.4205 60.0195C16.3486 59.8756 16.2767 59.7318 16.2048 59.588L16.1328 59.3723C15.4856 57.7902 15.2699 56.1362 15.5576 54.698C15.7014 53.9789 16.0609 53.3317 16.4205 52.7564C16.6362 52.4687 16.852 52.253 17.0677 51.9653C17.3554 51.7496 17.5711 51.5339 17.7868 51.3181C17.4992 51.4619 17.2115 51.5339 16.852 51.6777C16.5643 51.8215 16.2767 52.0372 15.9171 52.3249C15.3418 52.8283 14.8384 53.4755 14.5508 54.3384C13.9755 55.9924 14.1193 58.0059 14.8384 59.8037C14.9103 59.8756 14.9103 60.0195 14.9823 60.0914C14.9823 60.1633 14.9823 60.1633 14.9823 60.1633V60.2352C14.9823 60.379 14.9103 60.4509 14.9103 60.5948C14.9103 60.8105 14.8384 61.0981 14.8384 61.3139C14.8384 61.7454 14.8384 62.1768 14.9103 62.6083C14.9823 63.4712 15.1261 64.2623 15.3418 64.9814C15.6295 66.5635 16.1328 67.8579 16.6362 68.9366Z" fill="#FBB800"/>
<path d="M27.2792 46.2843C27.2792 46.2843 26.8478 46.2843 26.1286 46.3562C25.4095 46.3562 24.5466 46.5719 23.6117 46.7877C23.1803 47.0034 22.6769 47.1472 22.3173 47.363C21.9578 47.6506 21.5263 47.8664 21.2386 48.154C21.0948 48.2978 20.951 48.4417 20.8791 48.5136C20.8072 48.6574 20.6633 48.8012 20.5914 48.8731C20.4476 49.0889 20.3757 49.2327 20.3757 49.2327C20.3038 49.5203 20.5195 49.808 20.951 49.8799C21.3825 49.8799 21.6701 49.9518 21.742 49.7361C21.742 49.7361 21.742 49.6642 21.8139 49.5203C21.8139 49.4484 21.8858 49.3765 21.9578 49.2327C22.0297 49.1608 22.1016 49.017 22.1735 48.8731C22.3173 48.5855 22.605 48.3697 22.8926 48.0821C23.1803 47.7945 23.5398 47.6506 23.8994 47.363C24.6904 47.0034 25.4814 46.6439 26.1286 46.5C26.8478 46.3562 27.2792 46.2843 27.2792 46.2843Z" fill="#FBB800"/>
<path d="M39.5761 46.6439C39.5761 46.6439 39.2885 46.4281 38.857 46.0686C38.4255 45.709 37.7064 45.3494 36.9873 45.1337C36.1962 44.918 35.4052 44.918 34.758 45.0618C34.4704 45.1337 34.1827 45.2775 34.0389 45.3494C33.8951 45.4213 33.7512 45.4933 33.7512 45.4933C33.6074 45.6371 33.6074 45.9247 33.8231 46.1405C34.0389 46.3562 34.3265 46.5 34.3984 46.3562C34.3984 46.3562 34.6142 46.1405 35.1176 45.9247C35.549 45.709 36.1962 45.5652 36.9154 45.6371C37.6345 45.709 38.2817 45.9247 38.7851 46.1405C39.2166 46.4281 39.5761 46.6439 39.5761 46.6439Z" fill="#FBB800"/>
<path d="M12.4653 58.8689C14.4789 58.3655 17.3553 58.1498 20.0161 59.3004C21.3824 59.8757 22.533 60.6667 23.5398 61.5297C23.9713 61.9611 24.4746 62.3926 24.9061 62.8241C25.3376 63.2556 25.6971 63.687 26.0567 64.0466C25.841 63.5432 25.5533 63.0398 25.1938 62.5364C24.8342 62.0331 24.4746 61.5297 24.0432 60.9544C23.1083 59.9476 21.8858 58.9408 20.3757 58.2936C18.8655 57.6464 17.2834 57.5026 15.9171 57.6464C14.5508 57.8622 13.3283 58.2936 12.4653 58.8689Z" fill="#864010"/>
<path d="M18.3621 49.3765C19.5127 49.3046 20.879 49.3765 22.2453 49.7361C23.6116 50.0956 24.978 50.8147 26.2005 51.8934C27.423 52.9721 28.214 54.3384 28.9331 55.5609C29.2208 56.2081 29.5803 56.8554 29.7961 57.4307C30.0118 58.0779 30.2275 58.6532 30.5152 59.1565C30.4433 58.5812 30.3714 57.934 30.2275 57.2868C30.1556 56.6396 29.868 55.9205 29.6522 55.2014C29.077 53.8351 28.2859 52.253 26.9196 51.0305C25.6252 49.808 23.9712 49.0889 22.3891 48.8731C20.879 48.8012 19.4407 48.945 18.3621 49.3765Z" fill="#864010"/>
<path d="M29.7242 45.1337C30.6591 45.3495 31.7378 45.7809 32.7445 46.4281C33.7513 47.0754 34.6143 48.0102 35.3334 49.1608C36.6997 51.5339 36.9874 54.1227 37.3469 56.0644C37.4188 55.561 37.4907 55.0576 37.5627 54.4823C37.6346 53.907 37.5627 53.3317 37.5627 52.6845C37.4188 51.3901 37.1312 49.9518 36.3401 48.6574C35.5491 47.363 34.3985 46.3562 33.2479 45.7809C31.9535 45.1337 30.731 44.9899 29.7242 45.1337Z" fill="#864010"/>
<path d="M42.1649 46.9315C42.5245 48.2259 43.0279 49.6642 43.3155 51.1024C43.4593 51.8215 43.5312 52.4687 43.4593 53.1879C43.4593 53.5474 43.3874 53.8351 43.3874 54.1946C43.3155 54.5542 43.2436 54.8418 43.1717 55.2014C43.4593 55.0576 43.8189 54.8418 44.1065 54.6261C44.3942 54.3385 44.6818 54.0508 44.8976 53.6193C45.329 52.8283 45.4729 51.7496 45.329 50.7429C45.1133 49.7361 44.6099 48.8731 44.1065 48.2259C43.4593 47.5787 42.8121 47.1473 42.1649 46.9315Z" fill="#864010"/>
<path d="M43.5313 47.5787C43.5313 47.7226 43.3875 47.7945 43.2437 47.7945C43.0999 47.7945 43.028 47.6507 43.028 47.5068C43.028 47.363 43.1718 47.2192 43.3156 47.2911C43.4594 47.2911 43.5313 47.4349 43.5313 47.5787Z" fill="white"/>
<path d="M41.0863 47.1472C41.0863 47.4348 40.7987 47.5787 40.583 47.5787C40.2953 47.5787 40.1515 47.291 40.1515 47.0034C40.1515 46.7157 40.4391 46.5719 40.6549 46.5719C40.9425 46.6438 41.0863 46.8595 41.0863 47.1472Z" fill="white"/>
<path d="M37.4188 46.6439C37.4188 46.8596 37.2031 46.9315 37.0593 46.9315C36.8435 46.9315 36.7716 46.7158 36.7716 46.5719C36.7716 46.3562 36.9873 46.2843 37.1312 46.2843C37.275 46.2843 37.4188 46.4281 37.4188 46.6439Z" fill="white"/>
<path d="M32.0974 49.8079C32.0974 49.9518 31.9536 50.1675 31.8098 50.1675C31.6659 50.1675 31.5221 50.0237 31.4502 49.8799C31.4502 49.736 31.594 49.5203 31.7378 49.5203C31.9536 49.4484 32.0974 49.5922 32.0974 49.8079Z" fill="white"/>
<path d="M27.2074 49.0888C27.2793 49.4484 27.0636 49.736 26.7759 49.8799C26.4163 49.9518 26.1287 49.736 26.0568 49.4484C25.9849 49.0888 26.2006 48.7293 26.4883 48.6574C26.7759 48.5135 27.1355 48.7293 27.2074 49.0888Z" fill="white"/>
<path d="M28.5736 48.2978C28.6456 48.5135 28.5017 48.7293 28.286 48.7293C28.0703 48.8012 27.9264 48.6574 27.8545 48.4416C27.7826 48.2259 27.9264 48.0102 28.1422 48.0102C28.3579 47.9382 28.5736 48.0821 28.5736 48.2978Z" fill="white"/>
<path d="M23.1084 50.7428C23.2522 50.9586 23.2522 51.1743 23.0365 51.3181C22.8927 51.4619 22.605 51.4619 22.4612 51.2462C22.3174 51.0305 22.3174 50.8147 22.5331 50.6709C22.7488 50.5271 22.9646 50.5271 23.1084 50.7428Z" fill="white"/>
<path d="M21.3106 53.7632C21.5982 53.9789 21.5982 54.4104 21.3825 54.6981C21.1667 54.9857 20.7353 54.9857 20.4476 54.77C20.16 54.5542 20.16 54.1228 20.3757 53.8351C20.6634 53.6194 21.0948 53.5475 21.3106 53.7632Z" fill="white"/>
<path d="M19.3689 56.0643C19.5846 56.2082 19.5846 56.4958 19.4408 56.7116C19.297 56.9273 19.0093 56.9273 18.7936 56.7835C18.5779 56.6396 18.5779 56.352 18.7217 56.1363C18.9374 55.9205 19.2251 55.9205 19.3689 56.0643Z" fill="white"/>
<path d="M16.7082 58.6532C16.852 58.7251 16.852 58.869 16.852 58.9409C16.7801 59.0847 16.6363 59.1566 16.5644 59.0847C16.4205 59.0128 16.4205 58.8689 16.4205 58.797C16.4205 58.6532 16.5644 58.5813 16.7082 58.6532Z" fill="white"/>
<path d="M17.1397 61.8173C17.2835 61.7454 17.4273 61.8173 17.4992 61.9611C17.5711 62.1049 17.4992 62.2487 17.3554 62.3207C17.2116 62.3926 17.0678 62.3207 16.9958 62.1768C16.9958 62.033 17.0678 61.8173 17.1397 61.8173Z" fill="white"/>
<path d="M18.7217 65.2691C18.8655 65.1971 19.0813 65.2691 19.1532 65.4129C19.2251 65.5567 19.1532 65.7724 19.0094 65.8444C18.8655 65.9163 18.6498 65.8444 18.5779 65.7005C18.506 65.5567 18.5779 65.341 18.7217 65.2691Z" fill="white"/>
<path d="M30.3714 47.5787C30.3714 47.8663 30.1557 48.154 29.868 48.154C29.5804 48.154 29.3646 47.9383 29.2927 47.6506C29.2927 47.363 29.5085 47.0753 29.7961 47.0753C30.0838 47.0753 30.3714 47.2911 30.3714 47.5787Z" fill="white"/>
<path d="M31.4501 48.0102C31.5221 48.154 31.3782 48.3697 31.2344 48.3697C31.0906 48.4416 30.8748 48.2978 30.8748 48.154C30.8029 48.0102 30.9468 47.7944 31.0906 47.7944C31.3063 47.7225 31.4501 47.7944 31.4501 48.0102Z" fill="white"/>
<path d="M27.9983 46.7158C28.0702 47.0753 27.8544 47.363 27.5668 47.5068C27.2072 47.5787 26.9196 47.363 26.8477 47.0034C26.7758 46.6439 26.9915 46.2843 27.2791 46.2124C27.5668 46.1405 27.9264 46.3562 27.9983 46.7158Z" fill="white"/>
<path d="M26.3443 47.5788C26.4162 47.7226 26.2724 47.9383 26.1286 47.9383C25.9847 48.0102 25.769 47.8664 25.769 47.7226C25.6971 47.5788 25.8409 47.363 25.9847 47.363C26.1286 47.2911 26.3443 47.363 26.3443 47.5788Z" fill="white"/>
<path d="M21.5981 50.3114C21.6701 50.5272 21.5981 50.8148 21.3824 50.8867C21.1667 50.9586 20.9509 50.8867 20.8071 50.671C20.7352 50.4553 20.8071 50.1676 21.0229 50.0957C21.2386 50.0238 21.5262 50.0957 21.5981 50.3114Z" fill="white"/>
<path d="M18.2901 52.9722C18.5778 53.1879 18.5778 53.5475 18.434 53.8351C18.2182 54.1227 17.8587 54.1947 17.6429 53.9789C17.3553 53.7632 17.2834 53.4036 17.4991 53.116C17.7148 52.8283 18.0744 52.8283 18.2901 52.9722Z" fill="white"/>
<path d="M16.9957 55.561C17.2834 55.7767 17.3553 56.1363 17.1395 56.4239C16.9238 56.7116 16.5642 56.7835 16.2766 56.5678C15.9889 56.352 15.917 55.9925 16.1328 55.7048C16.3485 55.4172 16.78 55.3452 16.9957 55.561Z" fill="white"/>
<path d="M15.7732 60.4509C16.0609 60.3071 16.4205 60.379 16.5643 60.6667C16.7081 60.9543 16.6362 61.3139 16.3485 61.4577C16.0609 61.6015 15.7013 61.5296 15.5575 61.242C15.4137 60.9543 15.4856 60.5948 15.7732 60.4509Z" fill="white"/>
<path d="M18.434 60.0195C18.5778 59.9476 18.7216 60.0195 18.7935 60.0914C18.8654 60.2353 18.7935 60.3791 18.7216 60.451C18.5778 60.5229 18.434 60.5229 18.3621 60.3791C18.2902 60.3072 18.3621 60.0914 18.434 60.0195Z" fill="white"/>
<path d="M20.4475 57.9341C20.0879 57.8622 19.9441 57.5026 20.016 57.1431C20.0879 56.7835 20.4475 56.6397 20.7351 56.7116C21.0947 56.7835 21.2385 57.1431 21.1666 57.5026C21.1666 57.7903 20.8071 58.006 20.4475 57.9341Z" fill="white"/>
<path d="M23.3241 55.9205C23.2522 55.7767 23.2522 55.6328 23.396 55.489C23.5398 55.4171 23.6837 55.4171 23.7556 55.5609C23.8275 55.7047 23.8275 55.8486 23.6837 55.9924C23.5398 56.0643 23.396 56.0643 23.3241 55.9205Z" fill="white"/>
<path d="M21.5262 52.9722C21.3823 52.7564 21.4542 52.5407 21.5981 52.3969C21.8138 52.2531 22.0295 52.325 22.1734 52.4688C22.3172 52.6845 22.2453 52.9003 22.1014 53.0441C21.8857 53.1879 21.67 53.1879 21.5262 52.9722Z" fill="white"/>
<path d="M19.4407 52.6125C19.225 52.3249 19.2969 51.8934 19.5846 51.6777C19.8722 51.4619 20.2318 51.5339 20.4475 51.8215C20.6633 52.1092 20.5913 52.5406 20.3037 52.7564C20.016 52.9721 19.5846 52.9002 19.4407 52.6125Z" fill="white"/>
<path d="M28.1421 51.6057C28.0701 51.4619 28.214 51.2462 28.3578 51.1743C28.5016 51.1024 28.7174 51.2462 28.7174 51.39C28.7893 51.5338 28.6454 51.7496 28.5016 51.8215C28.4297 51.8934 28.214 51.7496 28.1421 51.6057Z" fill="white"/>
<path d="M29.3647 51.5338C29.2927 51.1743 29.4366 50.8147 29.7961 50.6709C30.1557 50.5271 30.5152 50.7428 30.5872 51.1024C30.731 51.4619 30.5152 51.8215 30.1557 51.9653C29.868 52.1091 29.5085 51.8934 29.3647 51.5338Z" fill="white"/>
<path d="M32.2411 51.9654C32.1692 51.8216 32.2411 51.6777 32.3849 51.6777C32.5288 51.6058 32.6007 51.6777 32.6726 51.8216C32.7445 51.9654 32.6726 52.1092 32.5288 52.1092C32.3849 52.1811 32.2411 52.1092 32.2411 51.9654Z" fill="white"/>
<path d="M38.7131 49.0169C38.7131 48.8012 38.857 48.6573 39.0008 48.6573C39.1446 48.6573 39.3603 48.8012 39.3603 48.945C39.3603 49.1607 39.2165 49.3046 39.0727 49.3046C38.9289 49.3765 38.7131 49.2326 38.7131 49.0169Z" fill="white"/>
<path d="M38.066 48.2259C38.066 47.9383 38.2818 47.7225 38.4975 47.7225C38.7852 47.7225 38.929 47.9383 39.0009 48.154C39.0009 48.4417 38.7852 48.6574 38.5694 48.6574C38.2818 48.6574 38.066 48.4417 38.066 48.2259Z" fill="white"/>
<path d="M36.6278 48.4417C36.6278 48.2979 36.7716 48.1541 36.9155 48.1541C37.0593 48.1541 37.2031 48.2979 37.2031 48.4417C37.2031 48.5855 37.0593 48.7294 36.9155 48.7294C36.7716 48.7294 36.6278 48.5855 36.6278 48.4417Z" fill="white"/>
<path d="M37.7064 50.8867C37.7064 50.6709 37.8502 50.5271 38.066 50.5271C38.2817 50.5271 38.4255 50.6709 38.4255 50.8867C38.4255 51.1024 38.2817 51.2462 38.066 51.2462C37.8502 51.2462 37.7064 51.1024 37.7064 50.8867Z" fill="white"/>
<path d="M39.9357 50.0957C39.9357 49.808 40.1514 49.5204 40.4391 49.5204C40.7267 49.5204 40.9424 49.7361 41.0144 50.0238C41.0144 50.3114 40.7986 50.5991 40.511 50.5991C40.2233 50.671 39.9357 50.4552 39.9357 50.0957Z" fill="white"/>
<path d="M43.6032 51.5339C43.747 51.2462 44.0346 51.1024 44.3223 51.2462C44.6099 51.3901 44.6819 51.7496 44.6099 51.9654C44.4661 52.253 44.1785 52.3968 43.8908 52.253C43.6032 52.1811 43.4594 51.8215 43.6032 51.5339Z" fill="white"/>
<path d="M46.7674 50.9586C46.6955 51.1743 46.5516 51.3182 46.3359 51.2463C46.1202 51.1743 45.9763 51.0305 46.0482 50.8148C46.1202 50.599 46.264 50.4552 46.4797 50.5271C46.6235 50.5271 46.7674 50.7429 46.7674 50.9586Z" fill="white"/>
<path d="M46.264 50.1676C46.1921 50.4552 45.9763 50.671 45.6887 50.5991C45.401 50.5272 45.2572 50.3114 45.2572 50.0238C45.3291 49.7361 45.5448 49.5204 45.8325 49.5923C46.1201 49.6642 46.264 49.9519 46.264 50.1676Z" fill="white"/>
<path d="M42.884 51.1743C42.8121 51.3182 42.6683 51.462 42.5245 51.3901C42.3806 51.3182 42.3087 51.1743 42.3087 51.0305C42.3806 50.8867 42.5245 50.7429 42.6683 50.8148C42.8121 50.8867 42.9559 51.0305 42.884 51.1743Z" fill="white"/>
<path d="M37.7783 49.3765C37.7783 49.5203 37.7064 49.6642 37.5626 49.6642C37.4187 49.6642 37.2749 49.5922 37.2749 49.4484C37.2749 49.3046 37.3468 49.1608 37.4906 49.1608C37.6345 49.1608 37.7783 49.2327 37.7783 49.3765Z" fill="white"/>
<path d="M34.2546 49.3046C34.3265 49.6642 34.1108 50.0238 33.7512 50.0957C33.3917 50.1676 33.0321 49.9519 32.9602 49.5923C32.8883 49.2327 33.104 48.8732 33.4636 48.8013C33.8231 48.7293 34.1827 48.9451 34.2546 49.3046Z" fill="white"/>
<path d="M32.8883 51.7496C32.9602 52.1092 32.7445 52.3968 32.4568 52.4687C32.1692 52.5407 31.8096 52.3249 31.7377 52.0373C31.6658 51.6777 31.8815 51.3901 32.1692 51.3181C32.5287 51.2462 32.8883 51.3901 32.8883 51.7496Z" fill="white"/>
<path d="M28.1421 50.1675C28.214 50.3114 28.1421 50.5271 27.9983 50.599C27.8544 50.6709 27.6387 50.599 27.5668 50.4552C27.4949 50.3114 27.5668 50.0956 27.7106 50.0237C27.8544 49.9518 28.0702 49.9518 28.1421 50.1675Z" fill="white"/>
<path d="M23.8274 53.6913C24.0432 53.907 23.9713 54.2666 23.7555 54.4823C23.5398 54.698 23.1802 54.6261 22.9645 54.4104C22.7488 54.1946 22.8207 53.7632 23.0364 53.6194C23.2521 53.4036 23.6117 53.4036 23.8274 53.6913Z" fill="white"/>
<path d="M21.67 55.9924C21.7419 56.1363 21.7419 56.2801 21.5981 56.4239C21.4543 56.4958 21.3104 56.4958 21.2385 56.352C21.1666 56.2082 21.1666 56.0644 21.3104 55.9205C21.4543 55.8486 21.5981 55.8486 21.67 55.9924Z" fill="white"/>
<path d="M17.9307 60.8824C18.2183 60.9543 18.3621 61.242 18.2902 61.4577C18.2183 61.7453 18.0026 61.8892 17.7149 61.8172C17.4273 61.7453 17.2834 61.4577 17.3554 61.242C17.4273 61.0262 17.7149 60.8105 17.9307 60.8824Z" fill="white"/>
<path d="M17.7148 62.896C17.8586 62.896 17.9305 63.0398 17.8586 63.1837C17.8586 63.3275 17.7148 63.3994 17.571 63.3275C17.4271 63.3275 17.3552 63.1837 17.4271 63.0398C17.4271 62.896 17.571 62.8241 17.7148 62.896Z" fill="white"/>
<path d="M52.8079 62.033C52.8079 62.033 43.5312 59.8038 35.1894 57.5026C34.3265 57.2869 34.0388 57.7183 34.5422 54.9138C35.7647 48.0821 35.1894 41.0347 33.5355 34.0593C33.5355 34.0593 32.1691 29.9603 36.6996 28.6659C42.3806 27.0838 47.774 25.7894 57.6979 23.9916C62.3003 23.1286 68.5566 21.3308 76.6827 27.0119C76.6827 27.0119 81.285 30.176 79.9187 34.7065C78.5524 39.2369 78.84 46.572 79.1996 49.9518C79.1996 49.8799 52.8798 62.105 52.8079 62.033Z" fill="url(#paint1_linear)"/>
<path d="M34.0388 33.4839C33.7511 32.7648 34.3983 31.0389 35.6928 30.7513C36.9872 30.3917 47.4863 30.967 51.5134 33.9154C51.5134 33.9154 54.318 34.203 53.455 40.8909C52.7359 46.4281 51.6572 54.9137 52.7359 61.0262L35.0455 56.9272C35.1175 56.9272 36.8433 40.8189 34.0388 33.4839Z" fill="#965A29"/>
<path d="M54.318 38.1583C54.318 38.1583 57.6978 36.6481 58.7046 36.0729C60.7181 34.9942 63.5227 33.7717 66.4711 32.8368C69.4195 31.902 72.4398 31.3267 74.8129 31.1109C75.3882 31.039 75.9635 31.039 76.395 30.9671C76.8983 30.9671 77.2579 30.9671 77.6175 30.9671C78.3366 30.9671 78.6961 30.9671 78.6961 30.9671C78.6961 30.9671 78.3366 30.8952 77.6175 30.8233C77.2579 30.7514 76.8983 30.7514 76.395 30.6795C75.8916 30.6795 75.3882 30.6075 74.8129 30.6075C72.4398 30.5356 69.2757 30.6795 66.1115 31.2547C62.9474 31.83 59.8552 32.7649 57.6259 33.6278C56.4753 34.0593 55.5405 34.4189 54.8933 34.7784C54.5337 34.9223 54.318 35.0661 54.1022 35.138C53.8865 35.2099 53.8146 35.2818 53.8146 35.2818L54.318 38.1583Z" fill="#511B02"/>
<path d="M37.0591 37.2953C37.0591 37.583 36.9153 37.8706 36.6276 37.8706C36.4119 37.8706 36.1962 37.6549 36.1962 37.3672C36.1962 37.0796 36.34 36.7919 36.6276 36.7919C36.8434 36.72 36.9872 37.0077 37.0591 37.2953Z" fill="#421004"/>
<path d="M42.2368 41.1786C42.2368 41.5381 42.093 41.8258 41.8773 41.8977C41.6615 41.8977 41.5177 41.6101 41.4458 41.2505C41.4458 40.8909 41.5896 40.6033 41.8054 40.5314C42.0211 40.5314 42.2368 40.819 42.2368 41.1786Z" fill="#421004"/>
<path d="M44.4661 37.2234C44.4661 37.5829 44.3223 37.8706 44.1065 37.8706C43.8908 37.8706 43.675 37.5829 43.675 37.2953C43.675 36.9357 43.8189 36.6481 44.0346 36.6481C44.2503 36.6481 44.4661 36.8638 44.4661 37.2234Z" fill="#421004"/>
<path d="M48.7807 38.7335C48.7807 39.2369 48.565 39.5965 48.2054 39.5965C47.8459 39.5965 47.5582 39.2369 47.5582 38.8054C47.5582 38.3021 47.774 37.9425 48.1335 37.9425C48.4212 37.9425 48.7088 38.3021 48.7807 38.7335Z" fill="#421004"/>
<path d="M41.0143 50.5271C41.0143 50.9586 40.7985 51.3181 40.439 51.3181C40.0794 51.3181 39.7917 51.0305 39.7917 50.5271C39.7917 50.0956 40.0075 49.7361 40.367 49.7361C40.6547 49.7361 40.9423 50.0956 41.0143 50.5271Z" fill="#421004"/>
<path d="M45.2571 47.2911C45.2571 47.5787 45.1133 47.8664 44.8975 47.8664C44.6818 47.8664 44.4661 47.6506 44.4661 47.363C44.4661 47.0754 44.6099 46.7877 44.8256 46.7877C45.1133 46.7158 45.2571 46.9315 45.2571 47.2911Z" fill="#421004"/>
<path d="M39.7917 43.4797C39.7917 43.9112 39.576 44.1989 39.2164 44.2708C38.8569 44.2708 38.5692 43.9831 38.5692 43.5517C38.5692 43.1202 38.7849 42.8325 39.1445 42.7606C39.5041 42.7606 39.7917 43.0483 39.7917 43.4797Z" fill="#421004"/>
<path d="M42.1649 47.0034C42.1649 47.291 42.0211 47.5068 41.8773 47.5068C41.6615 47.5068 41.5177 47.291 41.5177 47.0034C41.5177 46.7157 41.6615 46.5 41.8053 46.5C42.0211 46.5719 42.1649 46.7876 42.1649 47.0034Z" fill="#421004"/>
<path d="M48.4931 42.4011C48.4931 42.6887 48.2773 42.9764 48.0616 42.9764C47.774 42.9764 47.5582 42.7607 47.5582 42.473C47.5582 42.1854 47.774 41.8977 47.9897 41.8977C48.2773 41.8977 48.4931 42.1134 48.4931 42.4011Z" fill="#421004"/>
<path d="M43.6751 43.9112C43.6751 44.1989 43.5312 44.4865 43.3155 44.4865C43.0998 44.4865 42.9559 44.2708 42.9559 43.9831C42.9559 43.6955 43.0998 43.4078 43.3155 43.4078C43.5312 43.4078 43.6751 43.6236 43.6751 43.9112Z" fill="#421004"/>
<path d="M46.12 54.4104C46.12 54.8419 45.9043 55.1295 45.6886 55.1295C45.4009 55.1295 45.1852 54.8419 45.1852 54.4104C45.1852 53.9789 45.4009 53.6913 45.6167 53.6913C45.8324 53.6913 46.12 53.9789 46.12 54.4104Z" fill="#421004"/>
<path d="M49.2842 52.181C49.2842 52.6125 49.0684 52.9721 48.7089 52.9721C48.3493 52.9721 48.0616 52.6125 48.0616 52.181C48.0616 51.7496 48.2774 51.39 48.6369 51.39C48.9246 51.39 49.2122 51.7496 49.2842 52.181Z" fill="#421004"/>
<path d="M46.5515 50.4552C46.5515 50.8147 46.3357 51.1024 45.9762 51.1743C45.6166 51.1743 45.329 50.8867 45.329 50.5271C45.329 50.1675 45.5447 49.8799 45.9043 49.808C46.2638 49.808 46.5515 50.0956 46.5515 50.4552Z" fill="#421004"/>
<path d="M40.5829 54.0508C40.5829 54.5542 40.2952 54.9857 39.9357 54.9857C39.5761 54.9857 39.2166 54.6261 39.2166 54.1227C39.2166 53.6193 39.5042 53.1879 39.8638 53.1879C40.2233 53.1879 40.511 53.5474 40.5829 54.0508Z" fill="#421004"/>
<path d="M37.2749 49.6642C37.2749 50.0957 37.1311 50.3833 36.9154 50.3833C36.6996 50.3833 36.4839 50.0957 36.4839 49.6642C36.4839 49.2327 36.6277 48.9451 36.8434 48.9451C37.0592 48.9451 37.2749 49.2327 37.2749 49.6642Z" fill="#421004"/>
<path d="M39.0008 46.5001C39.0008 46.8597 38.785 47.1473 38.5693 47.1473C38.2817 47.1473 38.0659 46.9316 38.0659 46.572C38.0659 46.2125 38.2817 45.9248 38.4974 45.9248C38.7131 45.9248 38.9289 46.2125 39.0008 46.5001Z" fill="#421004"/>
<path d="M38.857 32.6929C38.857 32.9806 38.7131 33.2682 38.4255 33.2682C38.2098 33.2682 37.994 33.0525 37.994 32.7648C37.994 32.4772 38.1378 32.1895 38.4255 32.1895C38.6412 32.1176 38.7851 32.4053 38.857 32.6929Z" fill="#421004"/>
<path d="M43.5313 33.1963C43.5313 33.6278 43.3874 33.9873 43.1717 33.9873C42.956 33.9873 42.7402 33.6278 42.7402 33.1963C42.7402 32.7648 42.8841 32.4053 43.0998 32.4053C43.3155 32.4053 43.4594 32.6929 43.5313 33.1963Z" fill="#421004"/>
<path d="M41.3739 35.7133C41.3739 36.2167 41.1582 36.7201 40.7267 36.7201C40.3671 36.7201 40.0076 36.2886 40.0076 35.7852C40.0076 35.2818 40.2233 34.7784 40.6548 34.7784C41.0143 34.7784 41.302 35.2099 41.3739 35.7133Z" fill="#421004"/>
<path d="M51.2258 36.4324C51.2258 36.8638 51.0101 37.1515 50.6505 37.2234C50.2909 37.2234 50.0033 36.9358 50.0033 36.5043C50.0033 36.0728 50.219 35.7852 50.5786 35.7133C50.9382 35.7133 51.2258 36.0728 51.2258 36.4324Z" fill="#421004"/>
<path d="M51.5853 43.264C51.5853 43.5516 51.4415 43.7674 51.2258 43.7674C51.01 43.7674 50.8662 43.5516 50.8662 43.264C50.8662 42.9764 51.01 42.7606 51.2258 42.7606C51.3696 42.7606 51.5853 42.9764 51.5853 43.264Z" fill="#421004"/>
<path d="M52.0169 39.5966C52.0169 40.028 51.873 40.3157 51.6573 40.3157C51.4416 40.3157 51.2258 40.028 51.2258 39.5966C51.2258 39.1651 51.3697 38.8774 51.5854 38.8774C51.8011 38.8774 51.9449 39.1651 52.0169 39.5966Z" fill="#421004"/>
<path d="M51.3697 47.1472C51.3697 47.5787 51.154 47.8664 50.8663 47.8664C50.5787 47.8664 50.291 47.5787 50.291 47.1472C50.291 46.7158 50.5068 46.4281 50.7944 46.3562C51.082 46.4281 51.3697 46.7158 51.3697 47.1472Z" fill="#421004"/>
<path d="M49.7876 56.2801C49.7876 56.5677 49.5719 56.8554 49.3562 56.8554C49.0685 56.8554 48.8528 56.6396 48.8528 56.352C48.8528 56.0643 49.0685 55.7767 49.2843 55.7767C49.5 55.7048 49.7876 55.9924 49.7876 56.2801Z" fill="#421004"/>
<path d="M46.911 58.1497C46.911 58.3655 46.7672 58.5812 46.4796 58.6531C46.2638 58.6531 46.0481 58.5093 46.0481 58.2216C46.0481 58.0059 46.1919 57.7902 46.4796 57.7183C46.6953 57.7183 46.911 57.934 46.911 58.1497Z" fill="#421004"/>
<path d="M50.1471 59.0847C50.1471 59.3004 50.0033 59.4442 49.7875 59.4442C49.5718 59.4442 49.428 59.3004 49.428 59.0847C49.428 58.8689 49.5718 58.7251 49.7875 58.7251C50.0033 58.7251 50.1471 58.8689 50.1471 59.0847Z" fill="#421004"/>
<path d="M37.4187 55.6329C37.4187 55.9206 37.2749 56.1363 37.0592 56.1363C36.8434 56.1363 36.6277 55.9206 36.6277 55.7048C36.6277 55.4172 36.7715 55.2014 36.9872 55.2014C37.203 55.1295 37.3468 55.3453 37.4187 55.6329Z" fill="#421004"/>
<path d="M37.7063 52.5406C37.7063 52.8283 37.5625 53.044 37.4186 53.044C37.2748 53.044 37.131 52.8283 37.0591 52.5406C37.0591 52.253 37.2029 52.0372 37.3467 52.0372C37.4906 52.0372 37.6344 52.253 37.7063 52.5406Z" fill="#421004"/>
<path d="M43.2436 56.7834C43.2436 57.143 43.0278 57.4307 42.8121 57.5026C42.5245 57.5026 42.3087 57.2149 42.3087 56.8554C42.3087 56.4958 42.5245 56.2081 42.7402 56.1362C42.9559 56.1362 43.2436 56.4239 43.2436 56.7834Z" fill="#421004"/>
<path d="M43.3874 52.1811C43.3874 52.4688 43.2435 52.7564 42.9559 52.7564C42.7401 52.7564 42.5244 52.5407 42.5244 52.253C42.5244 51.9654 42.6682 51.6777 42.9559 51.6777C43.1716 51.6777 43.3874 51.8935 43.3874 52.1811Z" fill="#421004"/>
<path d="M48.7089 47.1473C48.7089 47.435 48.565 47.6507 48.3493 47.6507C48.1336 47.6507 47.9897 47.435 47.9897 47.1473C47.9897 46.8597 48.1336 46.6439 48.3493 46.6439C48.565 46.6439 48.7089 46.8597 48.7089 47.1473Z" fill="#421004"/>
<path d="M51.1538 50.1676C51.1538 50.4552 51.01 50.6709 50.7943 50.6709C50.5785 50.6709 50.4347 50.4552 50.4347 50.2395C50.4347 49.9518 50.5785 49.7361 50.7943 49.7361C51.01 49.7361 51.1538 49.8799 51.1538 50.1676Z" fill="#421004"/>
<path d="M47.7021 34.9942C47.7021 35.4256 47.4864 35.7133 47.1987 35.7852C46.9111 35.7852 46.6234 35.4975 46.6234 35.0661C46.6234 34.6346 46.8392 34.347 47.1268 34.347C47.4864 34.275 47.7021 34.5627 47.7021 34.9942Z" fill="#421004"/>
<path d="M39.8637 39.6684C39.8637 39.9561 39.7199 40.2437 39.4322 40.2437C39.2165 40.2437 39.0007 40.028 39.0007 39.7403C39.0007 39.4527 39.1446 39.165 39.4322 39.165C39.6479 39.165 39.8637 39.3808 39.8637 39.6684Z" fill="#421004"/>
<path d="M37.4906 42.6887C37.4906 42.9763 37.3468 43.264 37.0592 43.264C36.8434 43.264 36.6277 43.0483 36.6277 42.7606C36.6277 42.473 36.7715 42.1853 37.0592 42.1853C37.2749 42.1853 37.4906 42.401 37.4906 42.6887Z" fill="#421004"/>
<path d="M45.1133 40.747C45.1133 41.1066 44.9695 41.3943 44.6818 41.3943C44.4661 41.3943 44.2504 41.1785 44.2504 40.819C44.2504 40.4594 44.3942 40.1718 44.6099 40.1718C44.8976 40.1718 45.1133 40.3875 45.1133 40.747Z" fill="#421004"/>
<path d="M46.5515 44.7741C46.5515 45.1337 46.4077 45.4213 46.192 45.4213C45.9762 45.4213 45.8324 45.1337 45.8324 44.846C45.8324 44.4865 45.9762 44.1988 46.192 44.1988C46.3358 44.1269 46.4796 44.4146 46.5515 44.7741Z" fill="#421004"/>
<path d="M35.6209 33.3402C35.6209 33.6997 35.477 33.9874 35.2613 33.9874C35.0456 33.9874 34.9017 33.6997 34.9017 33.4121C34.9017 33.0525 35.0456 32.7649 35.2613 32.7649C35.477 32.693 35.6209 32.9806 35.6209 33.3402Z" fill="#421004"/>
<path d="M72.4399 25.3578C72.4399 25.5017 72.368 25.5736 72.2242 25.6455C72.0803 25.6455 72.0084 25.5736 71.9365 25.4297C71.9365 25.2859 72.0084 25.214 72.1523 25.1421C72.2961 25.1421 72.4399 25.2859 72.4399 25.3578Z" fill="#C16030"/>
<path d="M72.368 26.4366C72.368 26.6523 72.2242 26.7961 72.0085 26.7961C71.7928 26.7961 71.6489 26.6523 71.6489 26.4366C71.6489 26.2209 71.7928 26.077 72.0085 26.077C72.1523 26.077 72.368 26.2209 72.368 26.4366Z" fill="#C16030"/>
<path d="M71.7207 26.0051C71.7207 26.1489 71.5769 26.3646 71.433 26.3646C71.2173 26.3646 71.0735 26.2208 71.0735 26.077C71.0735 25.9331 71.2173 25.7174 71.3611 25.7174C71.505 25.7174 71.7207 25.7893 71.7207 26.0051Z" fill="#C16030"/>
<path d="M71.2893 27.0119C71.3613 27.1557 71.3612 27.4434 71.1455 27.5153C71.0017 27.5872 70.714 27.5872 70.6421 27.3715C70.5702 27.2276 70.5702 26.94 70.786 26.8681C70.9298 26.7962 71.1455 26.7962 71.2893 27.0119Z" fill="#C16030"/>
<path d="M69.7792 27.0837C69.7073 27.2275 69.4915 27.2994 69.3477 27.2275C69.2039 27.1556 69.132 26.9399 69.2039 26.7961C69.2758 26.6522 69.4915 26.5803 69.6353 26.6522C69.7792 26.7241 69.8511 26.9399 69.7792 27.0837Z" fill="#C16030"/>
<path d="M68.7724 25.8612C68.7724 25.9332 68.6286 26.0051 68.5567 25.9332C68.4847 25.9332 68.4128 25.7893 68.4847 25.7174C68.4847 25.6455 68.6286 25.5736 68.7005 25.6455C68.7724 25.7174 68.8443 25.7893 68.7724 25.8612Z" fill="#C16030"/>
<path d="M68.7004 25.3579C68.6285 25.5017 68.4847 25.5736 68.3409 25.5017C68.197 25.4298 68.1251 25.286 68.197 25.1421C68.2689 24.9983 68.4128 24.9264 68.5566 24.9983C68.7004 24.9983 68.7004 25.214 68.7004 25.3579Z" fill="#C16030"/>
<path d="M68.2689 25.9332C68.197 26.1489 67.9813 26.2208 67.7655 26.1489C67.5498 26.077 67.4779 25.8613 67.5498 25.6455C67.6217 25.4298 67.8374 25.3579 68.0532 25.4298C68.2689 25.5017 68.3408 25.7174 68.2689 25.9332Z" fill="#C16030"/>
<path d="M67.6218 25.5017C67.5499 25.6455 67.4061 25.7174 67.2622 25.6455C67.1184 25.5736 67.0465 25.4298 67.1184 25.2859C67.1903 25.1421 67.3342 25.0702 67.478 25.1421C67.6218 25.214 67.6937 25.3578 67.6218 25.5017Z" fill="#C16030"/>
<path d="M65.1049 25.286C65.1049 25.5017 64.9611 25.6455 64.7453 25.5736C64.5296 25.5736 64.3858 25.4298 64.4577 25.2141C64.4577 24.9983 64.6015 24.8545 64.8172 24.8545C65.033 24.9264 65.1768 25.0702 65.1049 25.286Z" fill="#C16030"/>
<path d="M63.1632 25.7174C63.1632 25.9331 63.0194 26.005 62.8036 26.005C62.5879 26.005 62.516 25.8612 62.516 25.6455C62.516 25.4297 62.6598 25.2859 62.8756 25.3578C63.0194 25.3578 63.1632 25.5016 63.1632 25.7174Z" fill="#C16030"/>
<path d="M60.5745 25.3578C60.6464 25.5017 60.5745 25.7174 60.4306 25.7893C60.2868 25.8612 60.0711 25.7893 59.9992 25.6455C59.9272 25.5017 59.9992 25.2859 60.143 25.214C60.2868 25.1421 60.4306 25.214 60.5745 25.3578Z" fill="#C16030"/>
<path d="M58.9204 26.94C58.9923 27.0838 58.9204 27.2276 58.7766 27.2995C58.6327 27.3715 58.4889 27.2995 58.417 27.1557C58.3451 27.0119 58.417 26.8681 58.5608 26.7962C58.7047 26.7242 58.8485 26.7962 58.9204 26.94Z" fill="#C16030"/>
<path d="M58.1294 26.5803C58.2013 26.7961 58.1294 27.0118 57.9137 27.1556C57.698 27.2275 57.4822 27.1556 57.3384 27.0118C57.2665 26.7961 57.3384 26.5803 57.4822 26.4365C57.7699 26.2927 57.9856 26.3646 58.1294 26.5803Z" fill="#C16030"/>
<path d="M57.9136 27.2276C57.9855 27.2995 57.9136 27.4433 57.8417 27.4433C57.7698 27.5152 57.626 27.4433 57.626 27.3714C57.5541 27.2995 57.626 27.1556 57.6979 27.1556C57.6979 27.0837 57.8417 27.1556 57.9136 27.2276Z" fill="#C16030"/>
<path d="M57.4821 27.8029C57.4821 27.9467 57.4102 28.0905 57.3383 28.0905C57.1945 28.0905 57.0507 28.0186 57.0507 27.9467C57.0507 27.8029 57.1226 27.6591 57.1945 27.6591C57.2664 27.5872 57.4102 27.6591 57.4821 27.8029Z" fill="#C16030"/>
<path d="M54.6056 27.7309C54.6775 27.9467 54.5337 28.1624 54.318 28.2343C54.1023 28.3062 53.8865 28.1624 53.8146 27.9467C53.7427 27.7309 53.8865 27.5152 54.1023 27.4433C54.3899 27.3714 54.6056 27.5152 54.6056 27.7309Z" fill="#C16030"/>
<path d="M53.0236 27.5872C53.0236 27.6591 52.9517 27.731 52.8798 27.731C52.8079 27.731 52.736 27.6591 52.736 27.5872C52.736 27.5153 52.8079 27.4434 52.8798 27.4434C52.9517 27.4434 53.0236 27.5153 53.0236 27.5872Z" fill="#C16030"/>
<path d="M50.6505 27.8748C50.5786 28.0905 50.3628 28.3063 50.1471 28.2344C49.9314 28.1624 49.7156 27.9467 49.7875 27.731C49.8595 27.5152 50.0752 27.2995 50.2909 27.3714C50.5067 27.3714 50.6505 27.5871 50.6505 27.8748Z" fill="#C16030"/>
<path d="M48.0616 27.7309C48.0616 27.9467 47.8459 28.0186 47.6302 28.0186C47.4144 28.0186 47.3425 27.8028 47.3425 27.5871C47.3425 27.3714 47.5583 27.2276 47.774 27.2995C47.9897 27.3714 48.0616 27.5152 48.0616 27.7309Z" fill="#C16030"/>
<path d="M44.8256 28.0905C44.8256 28.2343 44.7537 28.3062 44.6099 28.3062C44.4661 28.3062 44.3942 28.2343 44.3942 28.0905C44.3942 27.9467 44.4661 27.8748 44.6099 27.8748C44.6818 27.8748 44.8256 28.0186 44.8256 28.0905Z" fill="#C16030"/>
<path d="M41.8773 28.4501C41.8773 28.5939 41.8054 28.6658 41.6615 28.6658C41.5177 28.6658 41.4458 28.5939 41.4458 28.4501C41.4458 28.3063 41.5177 28.2344 41.6615 28.2344C41.8054 28.2344 41.8773 28.3063 41.8773 28.4501Z" fill="#C16030"/>
<path d="M41.5896 27.3714C41.5896 27.5871 41.4458 27.8029 41.2301 27.8029C41.0143 27.8029 40.7986 27.659 40.7986 27.4433C40.7986 27.2276 40.9424 27.0118 41.1581 27.0118C41.3739 27.0118 41.5896 27.1557 41.5896 27.3714Z" fill="#C16030"/>
<path d="M70.6421 28.0186C70.6421 28.2344 70.4264 28.3782 70.2826 28.3063C70.0668 28.3063 69.923 28.0906 69.9949 27.9467C69.9949 27.731 70.2106 27.5872 70.3545 27.6591C70.4983 27.6591 70.6421 27.8029 70.6421 28.0186Z" fill="#C16030"/>
<path d="M67.6218 27.5872C67.6218 27.731 67.4779 27.8748 67.3341 27.8029C67.1903 27.8029 67.0465 27.6591 67.1184 27.5153C67.1184 27.3714 67.2622 27.2276 67.406 27.2995C67.5498 27.2995 67.6218 27.4433 67.6218 27.5872Z" fill="#C16030"/>
<path d="M64.7454 27.5152C64.7454 27.7309 64.5296 27.8748 64.3139 27.8748C64.0982 27.8748 63.9543 27.659 63.9543 27.4433C63.9543 27.2276 64.1701 27.0837 64.3858 27.0837C64.6016 27.1557 64.7454 27.2995 64.7454 27.5152Z" fill="#C16030"/>
<path d="M62.5161 26.3646C62.5161 26.4366 62.4441 26.5804 62.3722 26.5804C62.3003 26.5804 62.1565 26.5085 62.1565 26.4366C62.1565 26.3646 62.2284 26.2208 62.3003 26.2208C62.4441 26.2208 62.5161 26.2927 62.5161 26.3646Z" fill="#C16030"/>
<path d="M60.4306 27.5872C60.4306 27.731 60.3587 27.8029 60.2149 27.8748C60.0711 27.8748 59.9992 27.8029 59.9272 27.6591C59.9272 27.5153 59.9992 27.4434 60.143 27.3715C60.3587 27.3715 60.4306 27.4434 60.4306 27.5872Z" fill="#C16030"/>
<path d="M58.8486 27.8747C59.0643 27.9467 59.1362 28.1624 59.0643 28.3781C58.9924 28.5939 58.7767 28.6658 58.5609 28.5939C58.3452 28.522 58.2733 28.3062 58.3452 28.0905C58.4171 27.8747 58.6328 27.8028 58.8486 27.8747Z" fill="#C16030"/>
<path d="M58.2013 28.8816C58.2732 28.8816 58.3452 29.0254 58.2732 29.0973C58.2732 29.1692 58.1294 29.2412 58.0575 29.1692C57.9856 29.1692 57.9137 29.0254 57.9856 28.9535C57.9856 28.8816 58.1294 28.8816 58.2013 28.8816Z" fill="#C16030"/>
<path d="M59.2081 29.8164C59.4238 29.8883 59.4957 30.104 59.4238 30.3198C59.3519 30.5355 59.1362 30.6074 58.9204 30.5355C58.7047 30.4636 58.6328 30.2478 58.7047 30.0321C58.7766 29.8883 58.9923 29.7445 59.2081 29.8164Z" fill="#C16030"/>
<path d="M58.7048 30.6793C58.7767 30.6793 58.8486 30.8231 58.7767 30.8951C58.7767 30.967 58.6328 31.0389 58.5609 30.967C58.489 30.967 58.4171 30.8231 58.489 30.7512C58.489 30.6793 58.5609 30.6793 58.7048 30.6793Z" fill="#C16030"/>
<path d="M56.1159 30.8951C56.1159 31.1827 55.9721 31.3985 55.6844 31.3985C55.3968 31.3985 55.181 31.2547 55.181 30.967C55.181 30.6794 55.3249 30.4636 55.6125 30.4636C55.9002 30.4636 56.1159 30.6074 56.1159 30.8951Z" fill="#C16030"/>
<path d="M53.2394 30.0322C53.1674 30.176 53.0236 30.2479 52.8798 30.176C52.736 30.1041 52.6641 29.9603 52.6641 29.8164C52.736 29.6726 52.8798 29.6007 53.0236 29.6007C53.2394 29.6726 53.3113 29.8884 53.2394 30.0322Z" fill="#C16030"/>
<path d="M50.0033 29.2411C50.0033 29.313 49.8595 29.385 49.7876 29.313C49.7157 29.313 49.6438 29.1692 49.7157 29.0973C49.7157 29.0254 49.8595 28.9535 49.9314 29.0254C50.0033 29.0254 50.0033 29.0973 50.0033 29.2411Z" fill="#C16030"/>
<path d="M52.5201 30.8232C52.4482 31.0389 52.2325 31.1108 52.0887 31.1108C51.8729 31.0389 51.801 30.8232 51.801 30.6794C51.8729 30.4636 52.0887 30.3917 52.2325 30.3917C52.4482 30.4636 52.5921 30.6075 52.5201 30.8232Z" fill="#C16030"/>
<path d="M50.4348 31.1109C50.4348 31.1828 50.2909 31.2547 50.219 31.2547C50.1471 31.2547 50.0752 31.1109 50.0752 31.039C50.0752 30.9671 50.219 30.8951 50.2909 30.8951C50.4348 30.8951 50.5067 30.9671 50.4348 31.1109Z" fill="#C16030"/>
<path d="M48.4212 29.6726C48.3493 29.8883 48.1335 30.0322 47.9178 29.9603C47.7021 29.8883 47.5582 29.6726 47.6302 29.4569C47.7021 29.2411 47.9178 29.0973 48.1335 29.1692C48.3493 29.1692 48.4931 29.4569 48.4212 29.6726Z" fill="#C16030"/>
<path d="M44.7537 29.7445C44.6818 29.9602 44.4661 30.1041 44.2503 30.0321C44.0346 29.9602 43.8908 29.7445 43.9627 29.5288C44.0346 29.313 44.2503 29.1692 44.4661 29.2411C44.6818 29.313 44.8256 29.5288 44.7537 29.7445Z" fill="#C16030"/>
<path d="M43.0997 29.0254C43.0278 29.1693 42.8839 29.3131 42.6682 29.2412C42.5244 29.1693 42.3806 29.0254 42.4525 28.8097C42.5244 28.6659 42.6682 28.522 42.8839 28.594C43.0997 28.6659 43.1716 28.8816 43.0997 29.0254Z" fill="#C16030"/>
<path d="M41.6615 28.8096C41.6615 28.9535 41.5176 29.0254 41.3738 28.9535C41.23 28.9535 41.1581 28.8096 41.23 28.6658C41.23 28.522 41.3738 28.4501 41.5176 28.522C41.5896 28.5939 41.6615 28.7377 41.6615 28.8096Z" fill="#C16030"/>
<path d="M83.9458 66.9949C83.4424 72.2445 73.3748 74.7614 54.7495 70.7343C38.7851 67.2106 32.8883 62.824 33.8951 57.6463C34.9018 52.4687 47.3426 48.5854 62.9475 52.1091C76.6827 55.1294 84.5211 60.379 83.9458 66.9949Z" fill="url(#paint2_linear)"/>
<path d="M36.2682 56.4958C38.5694 54.4104 42.0931 53.2598 45.9044 52.8283C49.7876 52.3968 54.0305 52.6845 58.4171 53.4755C62.8037 54.2665 66.9746 55.3452 70.4983 56.9273C72.2961 57.7183 73.9501 58.5813 75.3883 59.588C76.8266 60.5948 78.0491 61.6735 79.0558 62.8241C78.1929 61.5296 77.0423 60.3071 75.676 59.1565C74.3096 58.006 72.6557 56.9992 70.8579 56.0643C67.2623 54.2665 63.0914 52.9721 58.5609 52.1811C54.1024 51.39 49.6438 51.2462 45.6887 51.8934C41.8773 52.6126 38.2817 54.1227 36.2682 56.4958Z" fill="#FBB800"/>
<path d="M37.9221 60.7386C38.7132 59.1565 39.648 57.3587 41.302 55.8485C42.8841 54.4103 44.8257 53.4035 46.2639 52.3968C45.401 52.3249 44.3942 52.3968 43.3155 52.7563C42.2369 53.044 41.0863 53.6193 40.0795 54.5541C39.0727 55.489 38.4255 56.6396 38.1379 57.7182C37.7783 58.7969 37.7783 59.8756 37.9221 60.7386Z" fill="#A84F19"/>
<path d="M45.1133 61.0262C45.5448 60.1633 46.0482 59.2284 46.6954 58.2936C47.3426 57.3587 48.0617 56.4958 49.0685 55.7048C50.9382 54.1227 53.1675 53.1878 54.8934 52.1811C53.9585 52.1092 52.8079 52.1092 51.5854 52.3968C50.3629 52.6845 49.0685 53.2597 47.9179 54.1946C46.7673 55.1295 45.9763 56.4239 45.5448 57.6464C44.9695 58.8689 44.9695 60.0914 45.1133 61.0262Z" fill="#A84F19"/>
<path d="M52.6641 63.1835C52.8798 62.7521 53.0955 62.2487 53.3113 61.7453C53.5989 61.2419 53.7428 60.7385 54.0304 60.2351C54.5338 59.1565 55.181 58.1497 56.0439 57.1429C57.6979 55.2013 59.7834 54.0507 61.5812 53.1158C60.5744 53.0439 59.4238 53.1158 58.2013 53.5473C56.9788 53.9788 55.6844 54.7698 54.6776 55.9923C53.6708 57.1429 53.0955 58.5092 52.8079 59.8037C52.6641 60.4509 52.5922 61.0262 52.5922 61.6015C52.5203 62.1768 52.5922 62.6801 52.6641 63.1835Z" fill="#A84F19"/>
<path d="M58.8485 64.6219C59.1361 64.1185 59.3519 63.6151 59.5676 63.1117C59.7114 62.8241 59.8553 62.6083 59.9991 62.3207C60.1429 62.033 60.2867 61.8173 60.5025 61.5297C61.1497 60.451 62.0126 59.4442 63.0913 58.5813C65.2487 56.7835 67.7656 55.9205 69.851 55.2014C68.7723 54.9138 67.4779 54.9138 66.1116 55.1295C64.7453 55.4171 63.2351 55.9924 61.9407 57.0711C60.6463 58.1498 59.7833 59.5161 59.28 60.8824C59.1361 61.242 59.0642 61.5297 58.9923 61.8892C58.9204 62.2488 58.8485 62.5364 58.8485 62.8241C58.7766 63.4713 58.7766 64.0466 58.8485 64.6219Z" fill="#A84F19"/>
<path d="M65.8959 67.6421C66.8307 65.5567 68.1252 62.9679 70.3544 61.0981C71.505 60.1633 72.7275 59.4442 73.95 58.8689C75.1725 58.3655 76.395 57.934 77.5456 57.7902C76.4669 57.2868 75.0287 57.2868 73.5905 57.5025C72.0803 57.7902 70.4983 58.4374 69.1319 59.588C67.7656 60.8105 66.8307 62.2487 66.3274 63.687C66.1835 64.0465 66.1116 64.4061 66.0397 64.7657C65.9678 65.1252 65.8959 65.4848 65.824 65.7724C65.824 66.4915 65.824 67.0668 65.8959 67.6421Z" fill="#A84F19"/>
<defs>
<linearGradient id="paint0_linear" x1="34.3226" y1="61.7018" x2="24.85" y2="43.5244" gradientUnits="userSpaceOnUse">
<stop stop-color="#AC4C14"/>
<stop offset="0.1229" stop-color="#B45313"/>
<stop offset="1" stop-color="#F18D00"/>
</linearGradient>
<linearGradient id="paint1_linear" x1="56.1876" y1="56.304" x2="56.8643" y2="27.4983" gradientUnits="userSpaceOnUse">
<stop stop-color="#71330F"/>
<stop offset="0.2953" stop-color="#70310F"/>
<stop offset="0.5523" stop-color="#6B2B0E"/>
<stop offset="0.7942" stop-color="#64210D"/>
<stop offset="1" stop-color="#5C150B"/>
</linearGradient>
<linearGradient id="paint2_linear" x1="57.5344" y1="69.8361" x2="60.8679" y2="48.7366" gradientUnits="userSpaceOnUse">
<stop stop-color="#AC4C14"/>
<stop offset="0.2204" stop-color="#D36713"/>
<stop offset="0.443" stop-color="#DF770A"/>
<stop offset="0.7622" stop-color="#EC8700"/>
<stop offset="1" stop-color="#F18D00"/>
</linearGradient>
</defs>
</svg>
