<svg width="68" height="68" viewBox="0 0 68 68" fill="none" xmlns="http://www.w3.org/2000/svg">
<rect width="68" height="68" rx="10" fill="white"/>
<path d="M20 32C16.7945 32 13.781 30.7517 11.5147 28.4852C9.24823 26.2188 8 23.2054 8 20C8 16.7945 9.24823 13.7812 11.5147 11.5147C13.7812 9.24823 16.7945 8 20 8C23.2054 8 26.2188 9.24823 28.4852 11.5147C30.7517 13.7812 32 16.7945 32 20C32 23.2054 30.7517 26.219 28.4852 28.4854C26.2188 30.7517 23.2054 32 20 32ZM20 8.9375C13.9 8.9375 8.9375 13.9002 8.9375 20C8.9375 26.0999 13.9 31.0625 20 31.0625C26.0999 31.0625 31.0625 26.0999 31.0625 20C31.0625 13.9002 26.0999 8.9375 20 8.9375Z" fill="#8DC63F"/>
<path d="M20.0116 28.8093C18.5531 28.8093 17.0991 28.4491 15.8188 27.7594C15.591 27.6365 15.5057 27.3523 15.6286 27.1244C15.7512 26.8964 16.0356 26.8113 16.2636 26.9341C19.2996 28.5702 23.1253 28.0077 25.5664 25.5663C27.054 24.079 27.8732 22.1011 27.8732 19.9975C27.8732 17.8938 27.054 15.9161 25.5664 14.4286C22.4959 11.3581 17.4993 11.3579 14.4287 14.4288C11.9875 16.8699 11.425 20.6954 13.0609 23.7314C13.1837 23.9594 13.0986 24.2436 12.8706 24.3664C12.6428 24.4891 12.3583 24.404 12.2356 24.1762C11.3551 22.5422 11.0119 20.6245 11.269 18.7766C11.5349 16.8661 12.3982 15.1332 13.7658 13.7657C17.202 10.3294 22.7931 10.3294 26.2295 13.7657C27.8941 15.4303 28.8107 17.6434 28.8107 19.9975C28.8107 22.3515 27.8939 24.5647 26.2295 26.2294C24.8618 27.597 23.1291 28.4603 21.2186 28.7262C20.8183 28.7818 20.4148 28.8093 20.0116 28.8093Z" fill="#8DC63F"/>
<path d="M14.0923 26.3714C13.9729 26.3714 13.8537 26.3261 13.7622 26.2355C13.5783 26.0531 13.5772 25.7563 13.7594 25.5725L13.7647 25.5672C13.9471 25.3833 14.2439 25.3821 14.4278 25.5644C14.6116 25.7466 14.6127 26.0434 14.4305 26.2273L14.4252 26.2326C14.3335 26.325 14.213 26.3714 14.0923 26.3714Z" fill="#8DC63F"/>
<path d="M21.9247 23.4127C21.4661 23.6857 20.9726 23.8241 20.4579 23.8241C19.1349 23.8241 17.9944 22.8921 17.485 21.5582H19.9175C20.1765 21.5582 20.3863 21.3483 20.3863 21.0894C20.3863 20.8305 20.1765 20.6207 19.9175 20.6207H17.2446C17.2162 20.4178 17.2008 20.21 17.2008 19.9979C17.2008 19.8337 17.2105 19.6722 17.2277 19.5132H20.6285C20.8874 19.5132 21.0975 19.3034 21.0975 19.0445C21.0975 18.7856 20.8874 18.5757 20.6285 18.5757H17.435C17.9166 17.1684 19.0897 16.1718 20.4579 16.1718C20.9726 16.1718 21.4661 16.3102 21.9247 16.5832C22.1472 16.7156 22.4349 16.6425 22.5673 16.42C22.6996 16.1976 22.6268 15.9099 22.4043 15.7775C21.807 15.4221 21.1341 15.2343 20.4579 15.2343C18.5809 15.2343 16.988 16.6414 16.4541 18.5757H15.5657C15.3069 18.5757 15.0969 18.7856 15.0969 19.0445C15.0969 19.3034 15.3069 19.5132 15.5657 19.5132H16.2847C16.2704 19.6725 16.2631 19.8342 16.2631 19.9979C16.2631 20.2089 16.2754 20.4167 16.299 20.6207H15.5657C15.3069 20.6207 15.0969 20.8305 15.0969 21.0894C15.0969 21.3483 15.3069 21.5582 15.5657 21.5582H16.4944C17.0648 23.4207 18.6259 24.7614 20.4579 24.7614C21.1339 24.7614 21.807 24.5735 22.4041 24.2181C22.6266 24.0858 22.6996 23.7981 22.5673 23.5756C22.4349 23.3531 22.1472 23.2801 21.9247 23.4127Z" fill="#8DC63F"/>
<path d="M48 32C44.7945 32 41.781 30.7517 39.5147 28.4852C37.2482 26.2188 36 23.2054 36 20C36 16.7945 37.2482 13.7812 39.5147 11.5147C41.7812 9.24823 44.7945 8 48 8C51.2054 8 54.2188 9.24823 56.4852 11.5147C58.7517 13.7812 60 16.7945 60 20C60 23.2054 58.7517 26.219 56.4852 28.4854C54.2188 30.7517 51.2054 32 48 32ZM48 8.9375C41.9 8.9375 36.9375 13.9002 36.9375 20C36.9375 26.0999 41.9 31.0625 48 31.0625C54.0999 31.0625 59.0625 26.0999 59.0625 20C59.0625 13.9002 54.0999 8.9375 48 8.9375Z" fill="#8DC63F"/>
<path d="M48.0116 28.8093C46.5531 28.8093 45.0991 28.4491 43.8188 27.7594C43.591 27.6365 43.5057 27.3523 43.6286 27.1244C43.7512 26.8964 44.0356 26.8113 44.2636 26.9341C47.2996 28.5702 51.1253 28.0077 53.5664 25.5663C55.054 24.079 55.8732 22.1011 55.8732 19.9975C55.8732 17.8938 55.054 15.9161 53.5664 14.4286C50.4959 11.3581 45.4993 11.3579 42.4287 14.4288C39.9875 16.8699 39.425 20.6954 41.0609 23.7314C41.1837 23.9594 41.0986 24.2436 40.8706 24.3664C40.6428 24.4891 40.3583 24.404 40.2356 24.1762C39.3551 22.5422 39.0119 20.6245 39.269 18.7766C39.5349 16.8661 40.3982 15.1332 41.7658 13.7657C45.202 10.3294 50.7931 10.3294 54.2295 13.7657C55.8941 15.4303 56.8107 17.6434 56.8107 19.9975C56.8107 22.3515 55.8939 24.5647 54.2295 26.2294C52.8618 27.597 51.1291 28.4603 49.2186 28.7262C48.8183 28.7818 48.4148 28.8093 48.0116 28.8093Z" fill="#8DC63F"/>
<path d="M42.0923 26.3714C41.9729 26.3714 41.8537 26.3261 41.7622 26.2355C41.5783 26.0531 41.5772 25.7563 41.7594 25.5725L41.7647 25.5672C41.9471 25.3833 42.2439 25.3821 42.4278 25.5644C42.6116 25.7466 42.6127 26.0434 42.4305 26.2273L42.4252 26.2326C42.3335 26.325 42.213 26.3714 42.0923 26.3714Z" fill="#8DC63F"/>
<path d="M49.9247 23.4127C49.4661 23.6857 48.9726 23.8241 48.4579 23.8241C47.1349 23.8241 45.9944 22.8921 45.485 21.5582H47.9175C48.1765 21.5582 48.3863 21.3483 48.3863 21.0894C48.3863 20.8305 48.1765 20.6207 47.9175 20.6207H45.2446C45.2162 20.4178 45.2008 20.21 45.2008 19.9979C45.2008 19.8337 45.2105 19.6722 45.2277 19.5132H48.6285C48.8874 19.5132 49.0975 19.3034 49.0975 19.0445C49.0975 18.7856 48.8874 18.5757 48.6285 18.5757H45.435C45.9166 17.1684 47.0897 16.1718 48.4579 16.1718C48.9726 16.1718 49.4661 16.3102 49.9247 16.5832C50.1472 16.7156 50.4349 16.6425 50.5673 16.42C50.6996 16.1976 50.6268 15.9099 50.4043 15.7775C49.807 15.4221 49.1341 15.2343 48.4579 15.2343C46.5809 15.2343 44.988 16.6414 44.4541 18.5757H43.5657C43.3069 18.5757 43.0969 18.7856 43.0969 19.0445C43.0969 19.3034 43.3069 19.5132 43.5657 19.5132H44.2847C44.2704 19.6725 44.2631 19.8342 44.2631 19.9979C44.2631 20.2089 44.2754 20.4167 44.299 20.6207H43.5657C43.3069 20.6207 43.0969 20.8305 43.0969 21.0894C43.0969 21.3483 43.3069 21.5582 43.5657 21.5582H44.4944C45.0648 23.4207 46.6259 24.7614 48.4579 24.7614C49.1339 24.7614 49.807 24.5735 50.4041 24.2181C50.6266 24.0858 50.6996 23.7981 50.5673 23.5756C50.4349 23.3531 50.1472 23.2801 49.9247 23.4127Z" fill="#8DC63F"/>
<path d="M20.1518 49.374C20.2172 49.486 20.2732 49.605 20.3198 49.731C20.3712 49.8523 20.4202 49.976 20.4668 50.102C20.5135 49.9713 20.5625 49.8477 20.6138 49.731C20.6652 49.6097 20.7235 49.4883 20.7888 49.367L24.1838 43.2C24.2445 43.0927 24.3075 43.0273 24.3728 43.004C24.4382 42.9807 24.5315 42.969 24.6528 42.969H25.6538V53H24.4638V45.629C24.4638 45.531 24.4662 45.426 24.4708 45.314C24.4755 45.202 24.4825 45.0877 24.4918 44.971L21.0548 51.243C20.9382 51.453 20.7748 51.558 20.5648 51.558H20.3688C20.1588 51.558 19.9955 51.453 19.8788 51.243L16.3648 44.95C16.3788 45.0713 16.3882 45.1903 16.3928 45.307C16.4022 45.4237 16.4068 45.531 16.4068 45.629V53H15.2168V42.969H16.2178C16.3392 42.969 16.4325 42.9807 16.4978 43.004C16.5632 43.0273 16.6262 43.0927 16.6868 43.2L20.1518 49.374ZM30.8567 45.797C31.2814 45.797 31.6734 45.8693 32.0327 46.014C32.3921 46.154 32.7024 46.3593 32.9637 46.63C33.2251 46.896 33.4281 47.2273 33.5727 47.624C33.7221 48.016 33.7967 48.464 33.7967 48.968C33.7967 49.164 33.7757 49.2947 33.7337 49.36C33.6917 49.4253 33.6124 49.458 33.4957 49.458H28.7777C28.7871 49.906 28.8477 50.2957 28.9597 50.627C29.0717 50.9583 29.2257 51.236 29.4217 51.46C29.6177 51.6793 29.8511 51.845 30.1217 51.957C30.3924 52.0643 30.6957 52.118 31.0317 52.118C31.3444 52.118 31.6127 52.083 31.8367 52.013C32.0654 51.9383 32.2614 51.859 32.4247 51.775C32.5881 51.691 32.7234 51.614 32.8307 51.544C32.9427 51.4693 33.0384 51.432 33.1177 51.432C33.2204 51.432 33.2997 51.4717 33.3557 51.551L33.7057 52.006C33.5517 52.1927 33.3674 52.356 33.1527 52.496C32.9381 52.6313 32.7071 52.7433 32.4597 52.832C32.2171 52.9207 31.9651 52.986 31.7037 53.028C31.4424 53.0747 31.1834 53.098 30.9267 53.098C30.4367 53.098 29.9841 53.0163 29.5687 52.853C29.1581 52.685 28.8011 52.4423 28.4977 52.125C28.1991 51.803 27.9657 51.4063 27.7977 50.935C27.6297 50.4637 27.5457 49.9223 27.5457 49.311C27.5457 48.8163 27.6204 48.3543 27.7697 47.925C27.9237 47.4957 28.1431 47.1247 28.4277 46.812C28.7124 46.4947 29.0601 46.2473 29.4707 46.07C29.8814 45.888 30.3434 45.797 30.8567 45.797ZM30.8847 46.714C30.2827 46.714 29.8091 46.889 29.4637 47.239C29.1184 47.5843 28.9037 48.065 28.8197 48.681H32.6767C32.6767 48.3917 32.6371 48.128 32.5577 47.89C32.4784 47.6473 32.3617 47.4397 32.2077 47.267C32.0537 47.0897 31.8647 46.9543 31.6407 46.861C31.4214 46.763 31.1694 46.714 30.8847 46.714ZM40.5325 53C40.3552 53 40.2432 52.9137 40.1965 52.741L40.0845 51.88C39.7812 52.2487 39.4335 52.545 39.0415 52.769C38.6542 52.9883 38.2085 53.098 37.7045 53.098C37.2985 53.098 36.9299 53.021 36.5985 52.867C36.2672 52.7083 35.9849 52.4773 35.7515 52.174C35.5182 51.8707 35.3385 51.4927 35.2125 51.04C35.0865 50.5873 35.0235 50.067 35.0235 49.479C35.0235 48.9563 35.0935 48.471 35.2335 48.023C35.3735 47.5703 35.5742 47.1783 35.8355 46.847C36.1015 46.5157 36.4235 46.2567 36.8015 46.07C37.1795 45.8787 37.6089 45.783 38.0895 45.783C38.5235 45.783 38.8945 45.8577 39.2025 46.007C39.5105 46.1517 39.7859 46.357 40.0285 46.623V42.689H41.2745V53H40.5325ZM38.1175 52.09C38.5235 52.09 38.8782 51.9967 39.1815 51.81C39.4895 51.6233 39.7719 51.3597 40.0285 51.019V47.589C39.7999 47.281 39.5479 47.0663 39.2725 46.945C39.0019 46.819 38.7009 46.756 38.3695 46.756C37.7069 46.756 37.1982 46.9917 36.8435 47.463C36.4889 47.9343 36.3115 48.6063 36.3115 49.479C36.3115 49.941 36.3512 50.3377 36.4305 50.669C36.5099 50.9957 36.6265 51.2663 36.7805 51.481C36.9345 51.691 37.1235 51.845 37.3475 51.943C37.5715 52.041 37.8282 52.09 38.1175 52.09ZM44.8978 45.909V53H43.6518V45.909H44.8978ZM45.1778 43.683C45.1778 43.8043 45.1522 43.9187 45.1008 44.026C45.0542 44.1287 44.9888 44.222 44.9048 44.306C44.8255 44.3853 44.7322 44.4483 44.6248 44.495C44.5175 44.5417 44.4032 44.565 44.2818 44.565C44.1605 44.565 44.0462 44.5417 43.9388 44.495C43.8362 44.4483 43.7428 44.3853 43.6588 44.306C43.5795 44.222 43.5165 44.1287 43.4698 44.026C43.4232 43.9187 43.3998 43.8043 43.3998 43.683C43.3998 43.5617 43.4232 43.4473 43.4698 43.34C43.5165 43.228 43.5795 43.1323 43.6588 43.053C43.7428 42.969 43.8362 42.9037 43.9388 42.857C44.0462 42.8103 44.1605 42.787 44.2818 42.787C44.4032 42.787 44.5175 42.8103 44.6248 42.857C44.7322 42.9037 44.8255 42.969 44.9048 43.053C44.9888 43.1323 45.0542 43.228 45.1008 43.34C45.1522 43.4473 45.1778 43.5617 45.1778 43.683ZM50.1139 45.797C50.6319 45.797 51.0985 45.8833 51.5139 46.056C51.9339 46.2287 52.2885 46.4737 52.5779 46.791C52.8719 47.1083 53.0959 47.4933 53.2499 47.946C53.4085 48.394 53.4879 48.8957 53.4879 49.451C53.4879 50.011 53.4085 50.515 53.2499 50.963C53.0959 51.411 52.8719 51.7937 52.5779 52.111C52.2885 52.4283 51.9339 52.6733 51.5139 52.846C51.0985 53.014 50.6319 53.098 50.1139 53.098C49.5959 53.098 49.1269 53.014 48.7069 52.846C48.2915 52.6733 47.9369 52.4283 47.6429 52.111C47.3489 51.7937 47.1225 51.411 46.9639 50.963C46.8052 50.515 46.7259 50.011 46.7259 49.451C46.7259 48.8957 46.8052 48.394 46.9639 47.946C47.1225 47.4933 47.3489 47.1083 47.6429 46.791C47.9369 46.4737 48.2915 46.2287 48.7069 46.056C49.1269 45.8833 49.5959 45.797 50.1139 45.797ZM50.1139 52.125C50.8139 52.125 51.3365 51.8917 51.6819 51.425C52.0272 50.9537 52.1999 50.298 52.1999 49.458C52.1999 48.6133 52.0272 47.9553 51.6819 47.484C51.3365 47.0127 50.8139 46.777 50.1139 46.777C49.7592 46.777 49.4512 46.8377 49.1899 46.959C48.9285 47.0803 48.7092 47.2553 48.5319 47.484C48.3592 47.7127 48.2285 47.995 48.1399 48.331C48.0559 48.6623 48.0139 49.038 48.0139 49.458C48.0139 49.878 48.0559 50.2537 48.1399 50.585C48.2285 50.9163 48.3592 51.1963 48.5319 51.425C48.7092 51.649 48.9285 51.8217 49.1899 51.943C49.4512 52.0643 49.7592 52.125 50.1139 52.125Z" fill="black"/>
</svg>
