<svg width="64" height="64" viewBox="0 0 64 64" fill="none" xmlns="http://www.w3.org/2000/svg">
<path d="M64 32.0001C64 49.5239 49.7778 64.0001 32 64.0001C14.4762 64.0001 0 49.7779 0 32.0001C0 14.2223 14.2222 0 32 0C49.5238 0.253969 64 14.4762 64 32.0001Z" fill="url(#paint0_linear)"/>
<path d="M39.3652 52.5716H23.1113C20.0636 52.5716 17.7778 50.0319 17.7778 47.2382V18.0318C17.7778 14.9842 20.3176 12.6985 23.1113 12.6985H39.3652C42.4128 12.6985 44.6986 15.2382 44.6986 18.0318V46.9843C44.9526 50.0319 42.4128 52.5716 39.3652 52.5716ZM23.1113 15.2382C21.5875 15.2382 20.3175 16.508 20.3175 18.0318V46.9843C20.3175 48.5081 21.5875 49.7779 23.1113 49.7779H39.3652C40.889 49.7779 42.1589 48.5081 42.1589 46.9843V18.0318C42.1589 16.508 40.889 15.2382 39.3652 15.2382H23.1113Z" fill="white"/>
<path d="M40.127 26.4129H22.3492C21.5873 26.4129 21.0793 25.9049 21.0793 25.143C21.0793 24.3811 21.5873 23.8732 22.3492 23.8732H40.127C40.8889 23.8732 41.3968 24.3811 41.3968 25.143C41.3968 25.651 40.8889 26.4129 40.127 26.4129Z" fill="white"/>
<path d="M39.8731 40.1271C39.1112 40.1271 38.6033 39.6191 38.6033 38.8572V33.0159C38.6033 32.254 39.1112 31.7461 39.8731 31.7461C40.635 31.7461 41.143 32.254 41.143 33.0159V38.8572C41.143 39.6191 40.3811 40.1271 39.8731 40.1271Z" fill="white"/>
<defs>
<linearGradient id="paint0_linear" x1="9.36787" y1="54.7105" x2="54.5261" y2="9.55237" gradientUnits="userSpaceOnUse">
<stop stop-color="#8BC53F"/>
<stop offset="1" stop-color="#8DC63F"/>
</linearGradient>
</defs>
</svg>
