<svg width="119" height="91" viewBox="0 0 119 91" fill="none" xmlns="http://www.w3.org/2000/svg">
<path d="M59.1 49.8C82.7 49.8 103.8 53.2 118.2 58.5C115.2 25.7 89.9 0 59.1 0C28.3 0 3 25.7 0 58.5C14.4 53.1 35.5 49.8 59.1 49.8Z" fill="#8EC044"/>
<path d="M18.1 42.5C17.9 44 17.8 45.5 17.8 47C17.8 60.1 25.4 71.6 37 78.3V83H37.1C37.3 86.9 47.8001 90.1 60.7001 90.1C73.6001 90.1 84.1001 86.9 84.3 83V78.3C95.9 71.6 103.5 60 103.5 47C103.5 45.5 103.4 44 103.2 42.5H18.1Z" fill="url(#paint0_linear)"/>
<path d="M20.7 51.2C20.4 53.3 20.9 55.9999 21.9 58.5999C22.9 61.1999 24.5 63.8 26.5 66.3C28.5 68.8 30.7 70.7999 33 72.5C35.3 74.1 37.6 75.2999 39.7 75.6999C37.9 74.4999 36.1 72.9 34.3 71C32.4 69.1 30.5 66.9999 28.6 64.5999C24.9 59.8999 21.9 55.4 20.7 51.2Z" fill="#E7E7E7"/>
<path d="M38.8 79.4C43.7 83 51.8001 85.7 60.7001 85.6C65.2001 85.6 69.5 85 73.2 83.8C76.9 82.6 80.2001 80.8 82.3001 78.6C79.6001 79.9 76.3 80.7 72.6 81.2C69 81.7 65 82 60.7001 82C52.3001 82 44.6 80.9 38.8 79.4Z" fill="#949494"/>
<path d="M102.8 42.9999C102.8 49.2999 83.9001 54.3999 60.6001 54.3999C37.3001 54.3999 18.4001 49.2999 18.4001 42.9999C18.4001 36.6999 37.3001 31.5999 60.6001 31.5999C83.9001 31.4999 102.8 36.6999 102.8 42.9999Z" fill="url(#paint1_linear)"/>
<path d="M21.2 47.1C27.5 52.8 42.7999 56.8 60.5999 56.8C78.3999 56.8 93.7 52.8 100 47.1C93.7 41.4 78.3999 37.4 60.5999 37.4C42.7999 37.5 27.5 41.5 21.2 47.1Z" fill="url(#paint2_linear)"/>
<path d="M49 45.2999C49 45.6999 48.1999 45.8999 47.0999 45.8999C46.0999 45.8999 45.2 45.5999 45.2 45.2999C45.2 44.8999 45.9999 44.6999 47.0999 44.6999C48.0999 44.5999 49 44.8999 49 45.2999Z" fill="#F6C643"/>
<path d="M37.8 48C37.8 48.4 37 48.6 35.9 48.6C34.9 48.6 34 48.3 34 48C34 47.6 34.8 47.4 35.9 47.4C36.9 47.3 37.8 47.6 37.8 48Z" fill="#F6C643"/>
<path d="M57.3 49.2999C57.3 49.6999 56.5 49.8999 55.4 49.8999C54.4 49.8999 53.5 49.5999 53.5 49.2999C53.5 48.8999 54.3 48.6999 55.4 48.6999C56.5 48.5999 57.3 48.8999 57.3 49.2999Z" fill="#F6C643"/>
<path d="M52.1 48.7C52.1 49.1 51.3001 49.3 50.2001 49.3C49.1001 49.3 48.3 49 48.3 48.7C48.3 48.3 49.1001 48.1 50.2001 48.1C51.3001 48.1 52.1 48.4 52.1 48.7Z" fill="#F6C643"/>
<path d="M62.5 45.2999C62.5 45.6999 61.6999 45.8999 60.5999 45.8999C59.5999 45.8999 58.7 45.5999 58.7 45.2999C58.7 44.8999 59.4999 44.6999 60.5999 44.6999C61.6999 44.5999 62.5 44.8999 62.5 45.2999Z" fill="#F6C643"/>
<path d="M61.2001 51.2C61.2001 51.6 60.4001 51.8 59.3001 51.8C58.3001 51.8 57.4001 51.5 57.4001 51.2C57.4001 50.8 58.2001 50.6 59.3001 50.6C60.4001 50.6 61.2001 50.9 61.2001 51.2Z" fill="#F6C643"/>
<path d="M54 52.5C54 52.9 53.1999 53.1 52.0999 53.1C51.0999 53.1 50.2 52.8 50.2 52.5C50.2 52.1 50.9999 51.9 52.0999 51.9C53.1999 51.8 54 52.1 54 52.5Z" fill="#F6C643"/>
<path d="M60.1 47.6C60.1 48 59.3001 48.2 58.2001 48.2C57.2001 48.2 56.3 47.9 56.3 47.6C56.3 47.2 57.1001 47 58.2001 47C59.3001 46.9 60.1 47.2 60.1 47.6Z" fill="#F6C643"/>
<path d="M67.3 45.6C67.3 46 66.5 46.2 65.4 46.2C64.4 46.2 63.5 45.9 63.5 45.6C63.5 45.2 64.3 45 65.4 45C66.5 44.9 67.3 45.2 67.3 45.6Z" fill="#F6C643"/>
<path d="M74.1 53C74.1 53.4 73.3 53.6 72.2 53.6C71.2 53.6 70.3 53.3 70.3 53C70.3 52.6 71.1 52.4 72.2 52.4C73.3 52.3 74.1 52.6 74.1 53Z" fill="#F6C643"/>
<path d="M91.1 50.7999C91.1 51.1999 90.3 51.4 89.2 51.4C88.2 51.4 87.3 51.0999 87.3 50.7999C87.3 50.3999 88.1 50.2 89.2 50.2C90.3 50.2 91.1 50.4999 91.1 50.7999Z" fill="#F6C643"/>
<path d="M47.9001 53.5C47.9001 53.9 47.1001 54.1 46.0001 54.1C45.0001 54.1 44.1001 53.8 44.1001 53.5C44.1001 53.1 44.9001 52.9 46.0001 52.9C47.1001 52.8 47.9001 53.1 47.9001 53.5Z" fill="#F6C643"/>
<path d="M36 50.2C36 50.6 35.1999 50.7999 34.0999 50.7999C33.0999 50.7999 32.2 50.5 32.2 50.2C32.2 49.8 32.9999 49.5999 34.0999 49.5999C35.1999 49.4999 36 49.8 36 50.2Z" fill="#F6C643"/>
<path d="M71.6 48.1C71.6 48.5 70.8 48.7 69.7 48.7C68.7 48.7 67.8 48.4 67.8 48.1C67.8 47.7 68.6 47.5 69.7 47.5C70.7 47.4 71.6 47.7 71.6 48.1Z" fill="#F6C643"/>
<path d="M78.7001 50.1C78.7001 50.5 77.9001 50.7 76.8001 50.7C75.8001 50.7 74.9001 50.4 74.9001 50.1C74.9001 49.7 75.7001 49.5 76.8001 49.5C77.8001 49.4 78.7001 49.7 78.7001 50.1Z" fill="#F6C643"/>
<path d="M62.9001 48.6C62.9001 49 62.1001 49.2 61.0001 49.2C60.0001 49.2 59.1001 48.9 59.1001 48.6C59.1001 48.2 59.9001 48 61.0001 48C62.0001 47.9 62.9001 48.2 62.9001 48.6Z" fill="#F6C643"/>
<path d="M75.1 43.6C75.1 44 74.3 44.2 73.2 44.2C72.2 44.2 71.3 43.9 71.3 43.6C71.3 43.2 72.1 43 73.2 43C74.2 42.9 75.1 43.2 75.1 43.6Z" fill="#F6C643"/>
<path d="M71.1 50.1C71.1 50.5 70.3 50.7 69.2 50.7C68.2 50.7 67.3 50.4 67.3 50.1C67.3 49.7 68.1 49.5 69.2 49.5C70.2 49.4 71.1 49.7 71.1 50.1Z" fill="#F6C643"/>
<path d="M66.0001 47.7999C66.0001 48.0999 65.4001 48.2999 64.7001 48.2999C64.0001 48.2999 63.4001 48.0999 63.4001 47.7999C63.4001 47.5999 64.0001 47.2999 64.7001 47.2999C65.4001 47.3999 66.0001 47.5999 66.0001 47.7999Z" fill="#F6C643"/>
<path d="M46.5001 49.7999C46.5001 50.0999 45.9001 50.2999 45.2001 50.2999C44.5001 50.2999 43.9001 50.0999 43.9001 49.7999C43.9001 49.5999 44.5001 49.2999 45.2001 49.2999C45.9001 49.2999 46.5001 49.4999 46.5001 49.7999Z" fill="#F6C643"/>
<path d="M70.3 44.6C70.3 44.8 69.7 45.1 69 45.1C68.3 45.1 67.7 44.9 67.7 44.6C67.7 44.3 68.3 44.1 69 44.1C69.7 44.2 70.3 44.4 70.3 44.6Z" fill="#F6C643"/>
<path d="M80.5001 47.2C80.5001 47.4 79.9001 47.7 79.2001 47.7C78.5001 47.7 77.9001 47.5 77.9001 47.2C77.9001 47 78.5001 46.7 79.2001 46.7C79.9001 46.8 80.5001 47 80.5001 47.2Z" fill="#F6C643"/>
<path d="M75.9 46.9C75.9 47.1 75.3 47.4 74.6 47.4C73.9 47.4 73.3 47.2 73.3 46.9C73.3 46.7 73.9 46.4 74.6 46.4C75.3 46.5 75.9 46.7 75.9 46.9Z" fill="#F6C643"/>
<path d="M77.2001 52.5C77.2001 52.7 76.6001 53 75.9001 53C75.2001 53 74.6001 52.8 74.6001 52.5C74.6001 52.3 75.2001 52 75.9001 52C76.6001 52 77.2001 52.2 77.2001 52.5Z" fill="#F6C643"/>
<path d="M77.5001 45.1C77.5001 45.3 76.9001 45.6 76.2001 45.6C75.5001 45.6 74.9001 45.4 74.9001 45.1C74.9001 44.9 75.5001 44.6 76.2001 44.6C76.9001 44.6 77.5001 44.8 77.5001 45.1Z" fill="#F6C643"/>
<path d="M54.9001 45.9C54.9001 46.1 54.3 46.4 53.6 46.4C52.9 46.4 52.3 46.2 52.3 45.9C52.3 45.7 52.9 45.4 53.6 45.4C54.3 45.5 54.9001 45.7 54.9001 45.9Z" fill="#F6C643"/>
<path d="M39.1 44.7C39.1 44.9 38.5 45.2 37.8 45.2C37.1 45.2 36.5 45 36.5 44.7C36.5 44.4 37.1 44.2 37.8 44.2C38.5 44.2 39.1 44.4 39.1 44.7Z" fill="#F6C643"/>
<path d="M91.7001 47.2C91.7001 47.4 91.1001 47.7 90.4001 47.7C89.7001 47.7 89.1001 47.5 89.1001 47.2C89.1001 47 89.7001 46.7 90.4001 46.7C91.1001 46.8 91.7001 47 91.7001 47.2Z" fill="#F6C643"/>
<path d="M84.3 44.2C84.3 44.4 83.7 44.7 83 44.7C82.3 44.7 81.7 44.5 81.7 44.2C81.7 43.9 82.3 43.7 83 43.7C83.7 43.7 84.3 44 84.3 44.2Z" fill="#F6C643"/>
<path d="M60.4001 54.5C60.4001 54.9 59.6001 55.1 58.5001 55.1C57.5001 55.1 56.6001 54.8 56.6001 54.5C56.6001 54.1 57.4001 53.9 58.5001 53.9C59.6001 53.8 60.4001 54.1 60.4001 54.5Z" fill="#F6C643"/>
<path d="M67.9001 53.6C67.9001 54 67.1001 54.2 66.0001 54.2C64.9001 54.2 64.1001 53.9 64.1001 53.6C64.1001 53.2 64.9001 53 66.0001 53C67.1001 53 67.9001 53.3 67.9001 53.6Z" fill="#F6C643"/>
<path d="M71.5 46.5999C71.5 46.7999 71.1 46.8999 70.6 46.8999C70.1 46.8999 69.7 46.7999 69.7 46.5999C69.7 46.3999 70.1 46.2999 70.6 46.2999C71.1 46.2999 71.5 46.4999 71.5 46.5999Z" fill="#F6C643"/>
<path d="M82.2001 51.5C82.2001 51.7 81.8001 51.7999 81.3001 51.7999C80.8001 51.7999 80.4001 51.7 80.4001 51.5C80.4001 51.3 80.8001 51.2 81.3001 51.2C81.8001 51.2 82.2001 51.3 82.2001 51.5Z" fill="#F6C643"/>
<path d="M55.5 42.5C55.5 42.7 55.0999 42.7999 54.5999 42.7999C54.0999 42.7999 53.7 42.7 53.7 42.5C53.7 42.3 54.0999 42.2 54.5999 42.2C55.0999 42.2 55.5 42.3 55.5 42.5Z" fill="#F6C643"/>
<path d="M60.6 41.3C60.6 41.5 60.2001 41.6 59.7001 41.6C59.2001 41.6 58.8 41.5 58.8 41.3C58.8 41.1 59.2001 41 59.7001 41C60.2001 41 60.6 41.1 60.6 41.3Z" fill="#F6C643"/>
<path d="M44.1 41.0999C44.1 41.2999 43.7001 41.3999 43.2001 41.3999C42.7001 41.3999 42.3 41.2999 42.3 41.0999C42.3 40.8999 42.7001 40.7999 43.2001 40.7999C43.7001 40.7999 44.1 40.8999 44.1 41.0999Z" fill="#F6C643"/>
<path d="M51.5 41.9C51.5 42.1 51.0999 42.2 50.5999 42.2C50.0999 42.2 49.7 42.1 49.7 41.9C49.7 41.7 50.0999 41.6 50.5999 41.6C51.0999 41.5 51.5 41.7 51.5 41.9Z" fill="#F6C643"/>
<path d="M42.3 43.4999C42.3 43.6999 41.9 43.7999 41.4 43.7999C40.9 43.7999 40.5 43.6999 40.5 43.4999C40.5 43.2999 40.9 43.1999 41.4 43.1999C41.9 43.0999 42.3 43.2999 42.3 43.4999Z" fill="#F6C643"/>
<path d="M41 50.1999C41 50.3999 40.5999 50.4999 40.0999 50.4999C39.5999 50.4999 39.2 50.3999 39.2 50.1999C39.2 49.9999 39.5999 49.8999 40.0999 49.8999C40.5999 49.8999 41 49.9999 41 50.1999Z" fill="#F6C643"/>
<path d="M41.8 46.7C41.8 46.9 41.4 47 40.9 47C40.4 47 40 46.9 40 46.7C40 46.5 40.4 46.4 40.9 46.4C41.4 46.4 41.8 46.5 41.8 46.7Z" fill="#F6C643"/>
<path d="M62 43.3C62 43.5 61.5999 43.6 61.0999 43.6C60.5999 43.6 60.2 43.5 60.2 43.3C60.2 43.1 60.5999 43 61.0999 43C61.5999 43 62 43.1 62 43.3Z" fill="#F6C643"/>
<path d="M56.1 43.7C56.1 43.9 55.7001 44 55.2001 44C54.7001 44 54.3 43.9 54.3 43.7C54.3 43.5 54.7001 43.4 55.2001 43.4C55.7001 43.4 56.1 43.6 56.1 43.7Z" fill="#F6C643"/>
<path d="M31.4001 44.9C31.4001 45.1 31.0001 45.2 30.5001 45.2C30.0001 45.2 29.6001 45.1 29.6001 44.9C29.6001 44.7 30.0001 44.6 30.5001 44.6C31.0001 44.6 31.4001 44.8 31.4001 44.9Z" fill="#F6C643"/>
<path d="M27.2001 46.0999C27.2001 46.2999 26.8001 46.3999 26.3001 46.3999C25.8001 46.3999 25.4001 46.2999 25.4001 46.0999C25.4001 45.8999 25.8001 45.7999 26.3001 45.7999C26.8001 45.7999 27.2001 45.9999 27.2001 46.0999Z" fill="#F6C643"/>
<path d="M86.8 42.9C86.8 43.1 86.4 43.2 85.9 43.2C85.4 43.2 85 43.1 85 42.9C85 42.7 85.4 42.6 85.9 42.6C86.4 42.6 86.8 42.7 86.8 42.9Z" fill="#F6C643"/>
<path d="M90 45.5999C90 45.7999 89.6 45.8999 89.1 45.8999C88.6 45.8999 88.2 45.7999 88.2 45.5999C88.2 45.3999 88.6 45.2999 89.1 45.2999C89.6 45.2999 90 45.3999 90 45.5999Z" fill="#F6C643"/>
<path d="M95.1 45.7C95.1 45.9 94.7 46 94.2 46C93.7 46 93.3 45.9 93.3 45.7C93.3 45.5 93.7 45.4 94.2 45.4C94.7 45.4 95.1 45.6 95.1 45.7Z" fill="#F6C643"/>
<path d="M32 47.2C32 47.4 31.6 47.5 31.1 47.5C30.6 47.5 30.2 47.4 30.2 47.2C30.2 47 30.6 46.9 31.1 46.9C31.6 46.9 32 47 32 47.2Z" fill="#F6C643"/>
<path d="M86.2001 46.3C86.2001 46.5 85.8001 46.6 85.3001 46.6C84.8001 46.6 84.4001 46.5 84.4001 46.3C84.4001 46.1 84.8001 46 85.3001 46C85.8001 46 86.2001 46.1 86.2001 46.3Z" fill="#F6C643"/>
<path d="M82.6 49.9C82.6 50.1 82.2 50.2 81.7 50.2C81.2 50.2 80.8 50.1 80.8 49.9C80.8 49.7 81.2 49.6 81.7 49.6C82.1 49.6 82.6 49.7 82.6 49.9Z" fill="#F6C643"/>
<path d="M90.8 44.2C90.8 44.4 90.4 44.5 89.9 44.5C89.4 44.5 89 44.4 89 44.2C89 44 89.4 43.9 89.9 43.9C90.4 43.9 90.8 44 90.8 44.2Z" fill="#F6C643"/>
<path d="M33.7001 46.3999C32.2001 46.3999 30.9 46.7999 30.3 47.3999C30.8 47.9999 32.1001 48.3999 33.7001 48.3999C35.2001 48.3999 36.5 47.9999 37.1 47.3999C36.5 46.7999 35.2001 46.3999 33.7001 46.3999Z" fill="#3F8834"/>
<path d="M36.6001 44.9C36.1001 43.9 35.3001 43.3 34.6001 43.2C34.3001 43.8 34.4001 44.8 34.9001 45.7C35.4001 46.7 36.2001 47.3 36.9001 47.4C37.2001 46.9 37.1001 45.9 36.6001 44.9Z" fill="#3F8834"/>
<path d="M38.9001 46.2C39.5001 45.3 39.7001 44.3 39.5001 43.7C38.8001 43.7 38.0001 44.1999 37.4001 45.0999C36.8001 45.9999 36.6001 46.9999 36.8001 47.5999C37.4001 47.5999 38.2001 47 38.9001 46.2Z" fill="#3F8834"/>
<path d="M72.1 44.4C70.8 43.7 69.4 43.4 68.7 43.6C68.9 44.4 69.9 45.3 71.2 46.1C72.5 46.8 73.9 47.1 74.6 46.9C74.4 46.1 73.5 45.1 72.1 44.4Z" fill="#3F8834"/>
<path d="M75.4 44.5C75.4 43.4 75 42.5 74.5 42.1C74 42.5 73.6 43.4 73.5 44.5C73.5 45.6 73.9 46.5 74.4 46.9C75 46.5 75.4 45.6 75.4 44.5Z" fill="#3F8834"/>
<path d="M76.8 46.7C77.8 46.2 78.4 45.5 78.5 44.8C77.9 44.5 76.9 44.5 75.9 45C74.9 45.5 74.3 46.2 74.2 46.9C74.8 47.2 75.8 47.1 76.8 46.7Z" fill="#3F8834"/>
<path d="M44.2002 51.7999H59.9002C59.9002 51.7999 57.6002 54.3999 52.6002 54.4999C46.6002 54.6999 44.2002 51.7999 44.2002 51.7999Z" fill="#C55B03"/>
<path d="M59.8001 51.4C59.6001 51 59.4001 50.7 59.1001 50.3C58.9001 49.9 58.8001 49.4 58.5001 49.1C58.2001 48.8 58.0001 48.4 57.7001 48.1C57.4001 47.8 57.1001 47.5 56.7001 47.2C56.3001 47 55.8001 47.1 55.5001 46.9C55.1001 46.7 54.9001 46.1 54.5001 45.9C54.1001 45.8 53.6001 45.8 53.2001 45.7C52.8001 45.6 52.3001 45.6 51.9001 45.6C51.5001 45.6 51.1001 45.8 50.6001 45.9C50.2001 46 49.7001 45.8 49.3001 45.9C48.9001 46 48.6001 46.4 48.2001 46.6C47.8001 46.8 47.6001 47.2 47.2001 47.5C46.8001 47.7 46.2001 47.6 45.9001 47.9C45.6001 48.2 45.3001 48.6 45.0001 49C44.7001 49.3 44.6001 49.8 44.3001 50.2C44.1001 50.6 44.2001 51.2 44.1001 51.6C44.1001 51.7 44.0001 51.8 43.9001 51.9H60.0001C59.9001 51.7 59.9001 51.6 59.8001 51.4Z" fill="url(#paint3_radial)"/>
<path d="M49.9001 48.4C49.9001 48.8 49.5 49.0999 49.1 49.0999C48.6 49.0999 48.3 48.8 48.3 48.4C48.3 48 48.7 47.7 49.1 47.7C49.5 47.7 49.9001 48.1 49.9001 48.4Z" fill="#50270E"/>
<path d="M48.1002 49.8C48.1002 50.2 47.7002 50.5 47.3002 50.5C46.8002 50.5 46.5002 50.2 46.5002 49.8C46.5002 49.4 46.9002 49.1 47.3002 49.1C47.7002 49.1 48.1002 49.4 48.1002 49.8Z" fill="#50270E"/>
<path d="M53.2001 48.9999C53.2001 49.3999 52.8001 49.6999 52.4001 49.6999C51.9001 49.6999 51.6001 49.3999 51.6001 48.9999C51.6001 48.5999 52.0001 48.2999 52.4001 48.2999C52.8001 48.2999 53.2001 48.6999 53.2001 48.9999Z" fill="#50270E"/>
<path d="M52.9001 46.7C52.9001 47.1 52.5 47.4 52.1 47.4C51.6 47.4 51.3 47.1 51.3 46.7C51.3 46.3 51.7 46 52.1 46C52.5 46 52.9001 46.4 52.9001 46.7Z" fill="#50270E"/>
<path d="M55.9001 48.9C55.9001 49.3 55.5 49.5999 55.1 49.5999C54.6 49.5999 54.3 49.3 54.3 48.9C54.3 48.5 54.7 48.2 55.1 48.2C55.5 48.2 55.9001 48.5 55.9001 48.9Z" fill="#50270E"/>
<path d="M51.1 48.1999C51.1 48.3999 50.9001 48.5999 50.7001 48.5999C50.5001 48.5999 50.3 48.3999 50.3 48.1999C50.3 47.9999 50.5001 47.7999 50.7001 47.7999C50.9001 47.7999 51.1 47.9999 51.1 48.1999Z" fill="#50270E"/>
<path d="M54.3002 47.3C54.3002 47.5 54.1002 47.7 53.9002 47.7C53.7002 47.7 53.5002 47.5 53.5002 47.3C53.5002 47.1 53.7002 46.9 53.9002 46.9C54.1002 46.9 54.3002 47.1 54.3002 47.3Z" fill="#50270E"/>
<path d="M54.5002 50.4C54.5002 50.6 54.3002 50.8 54.1002 50.8C53.9002 50.8 53.7002 50.6 53.7002 50.4C53.7002 50.2 53.9002 50 54.1002 50C54.3002 50 54.5002 50.2 54.5002 50.4Z" fill="#50270E"/>
<path d="M50.0002 47C50.0002 47.2 49.8002 47.4 49.6002 47.4C49.4002 47.4 49.2002 47.2 49.2002 47C49.2002 46.8 49.4002 46.6 49.6002 46.6C49.8002 46.5 50.0002 46.7 50.0002 47Z" fill="#50270E"/>
<path d="M50.4001 50.5C50.4001 50.7 50.2001 50.9 50.0001 50.9C49.8001 50.9 49.6001 50.7 49.6001 50.5C49.6001 50.3 49.8001 50.1 50.0001 50.1C50.2001 50.1 50.4001 50.3 50.4001 50.5Z" fill="#50270E"/>
<path d="M58.7001 49.9C58.7001 50.3 58.3001 50.5999 57.9001 50.5999C57.4001 50.5999 57.1001 50.3 57.1001 49.9C57.1001 49.5 57.5001 49.2 57.9001 49.2C58.3001 49.2 58.7001 49.6 58.7001 49.9Z" fill="#50270E"/>
<path d="M57.8 42.2999H67.8001C67.8001 42.2999 66.3 43.8999 63.1 43.9999C59.4 43.9999 57.8 42.2999 57.8 42.2999Z" fill="#C55B03"/>
<path d="M67.8 42.1C67.7 41.8 67.5 41.6 67.4 41.4C67.3 41.2 67.2 40.9 67 40.7C66.8 40.5 66.7 40.3 66.5 40.1C66.3 39.9 66.1 39.7 65.9 39.6C65.7 39.5 65.3 39.5 65.1 39.4C64.9 39.3 64.7 38.9 64.5 38.8C64.2 38.7 64 38.7 63.7 38.7C63.4 38.7 63.2 38.6 62.9 38.6C62.6 38.6 62.4 38.7 62.1 38.8C61.8 38.8 61.5 38.7 61.3 38.8C61 38.9 60.8 39.1 60.6 39.2C60.4 39.3 60.2 39.6 60 39.7C59.8 39.8 59.4 39.8 59.2 39.9C59 40.1 58.8 40.3 58.7 40.6C58.5 40.8 58.4 41.1 58.3 41.3C58.2 41.5 58.2 41.9 58.1 42.2C58.1 42.3 58 42.3 58 42.4H68.1C67.9 42.2 67.8 42.1 67.8 42.1Z" fill="url(#paint4_radial)"/>
<path d="M61.4001 40.1999C61.4001 40.3999 61.2001 40.5999 60.9001 40.5999C60.6001 40.5999 60.4001 40.3999 60.4001 40.1999C60.4001 39.9999 60.6001 39.7999 60.9001 39.7999C61.2001 39.7999 61.4001 39.9999 61.4001 40.1999Z" fill="#50270E"/>
<path d="M60.3 41.1C60.3 41.3 60.1 41.5 59.8 41.5C59.5 41.5 59.3 41.3 59.3 41.1C59.3 40.9 59.5 40.7 59.8 40.7C60.1 40.6 60.3 40.8 60.3 41.1Z" fill="#50270E"/>
<path d="M63.6001 40.6C63.6001 40.8 63.4001 41 63.1001 41C62.8001 41 62.6001 40.8 62.6001 40.6C62.6001 40.4 62.8001 40.2 63.1001 40.2C63.3001 40.1 63.6001 40.3 63.6001 40.6Z" fill="#50270E"/>
<path d="M63.4001 39.1999C63.4001 39.3999 63.2001 39.5999 62.9001 39.5999C62.6001 39.5999 62.4001 39.3999 62.4001 39.1999C62.4001 38.9999 62.6001 38.7999 62.9001 38.7999C63.1001 38.6999 63.4001 38.8999 63.4001 39.1999Z" fill="#50270E"/>
<path d="M65.3 40.5C65.3 40.7 65.1 40.9 64.8 40.9C64.5 40.9 64.3 40.7 64.3 40.5C64.3 40.3 64.5 40.1 64.8 40.1C65.1 40.1 65.3 40.3 65.3 40.5Z" fill="#50270E"/>
<path d="M62.2001 40.0999C62.2001 40.1999 62.1001 40.3999 61.9001 40.3999C61.8001 40.3999 61.6001 40.2999 61.6001 40.0999C61.6001 39.8999 61.7001 39.7999 61.9001 39.7999C62.1001 39.7999 62.2001 39.8999 62.2001 40.0999Z" fill="#50270E"/>
<path d="M64.3 39.5C64.3 39.7 64.2 39.7999 64 39.7999C63.9 39.7999 63.7 39.7 63.7 39.5C63.7 39.4 63.8 39.2 64 39.2C64.2 39.2 64.3 39.4 64.3 39.5Z" fill="#50270E"/>
<path d="M64.4001 41.4C64.4001 41.6 64.3 41.7 64.1 41.7C64 41.7 63.8 41.6 63.8 41.4C63.8 41.2 63.9 41.1 64.1 41.1C64.3 41.1 64.4001 41.3 64.4001 41.4Z" fill="#50270E"/>
<path d="M61.5 39.3C61.5 39.4 61.4 39.6 61.2 39.6C61 39.6 61 39.4 61 39.3C61 39.1 61.1 39 61.3 39C61.5 39 61.5 39.2 61.5 39.3Z" fill="#50270E"/>
<path d="M61.7999 41.5C61.7999 41.6 61.7 41.7999 61.5 41.7999C61.4 41.7999 61.2 41.7 61.2 41.5C61.2 41.3 61.3 41.2 61.5 41.2C61.7 41.2 61.7999 41.3 61.7999 41.5Z" fill="#50270E"/>
<path d="M67.1001 41.0999C67.1001 41.2999 66.9001 41.5 66.6001 41.5C66.3001 41.5 66.1001 41.2999 66.1001 41.0999C66.1001 40.8999 66.3001 40.7 66.6001 40.7C66.9001 40.7 67.1001 40.8999 67.1001 41.0999Z" fill="#50270E"/>
<path d="M71.3 50.1H84.5C84.5 50.1 82.6 51.8 78.4 51.9C73.3 51.9 71.3 50.1 71.3 50.1Z" fill="#C55B03"/>
<path d="M84.3001 49.9C84.2001 49.6 83.9001 49.4 83.7001 49.2C83.5001 49 83.4001 48.6 83.2001 48.4C83.0001 48.2 82.8001 47.9 82.5001 47.7C82.2001 47.5 82.0001 47.3 81.7001 47.1C81.4001 46.9 81.0001 47 80.6001 46.9C80.3001 46.8 80.1001 46.4 79.7001 46.3C79.4001 46.2 79.0001 46.2 78.6001 46.2C78.3001 46.2 77.9001 46.1 77.5001 46.1C77.1001 46.1 76.8001 46.2 76.4001 46.3C76.0001 46.3 75.6001 46.2 75.3001 46.3C75.0001 46.4 74.7001 46.6 74.4001 46.8C74.1001 46.9 73.9001 47.2 73.6001 47.4C73.3001 47.6 72.8001 47.5 72.5001 47.6C72.2001 47.8 72.0001 48.1 71.8001 48.3C71.6001 48.5 71.4001 48.8 71.2001 49.1C71.0001 49.4 71.1001 49.7 71.0001 50C71.0001 50.1 70.9001 50.1 70.9001 50.2H84.3001C84.4001 50 84.4001 50 84.3001 49.9Z" fill="url(#paint5_radial)"/>
<path d="M76.0001 47.9C76.0001 48.1 75.7001 48.4 75.3001 48.4C74.9001 48.4 74.6001 48.2 74.6001 47.9C74.6001 47.6 74.9001 47.4 75.3001 47.4C75.7001 47.5 76.0001 47.7 76.0001 47.9Z" fill="#50270E"/>
<path d="M74.5001 48.7999C74.5001 49.0999 74.2001 49.2999 73.8001 49.2999C73.4001 49.2999 73.1001 49.0999 73.1001 48.7999C73.1001 48.4999 73.4001 48.2999 73.8001 48.2999C74.2001 48.3999 74.5001 48.5999 74.5001 48.7999Z" fill="#50270E"/>
<path d="M78.8001 48.2999C78.8001 48.5999 78.5001 48.7999 78.1001 48.7999C77.7001 48.7999 77.4001 48.5999 77.4001 48.2999C77.4001 47.9999 77.7001 47.7999 78.1001 47.7999C78.5001 47.8999 78.8001 48.0999 78.8001 48.2999Z" fill="#50270E"/>
<path d="M78.5001 46.7999C78.5001 47.0999 78.2001 47.2999 77.8001 47.2999C77.4001 47.2999 77.1001 47.0999 77.1001 46.7999C77.1001 46.4999 77.4001 46.2999 77.8001 46.2999C78.2001 46.3999 78.5001 46.5999 78.5001 46.7999Z" fill="#50270E"/>
<path d="M81.1002 48.2C81.1002 48.5 80.8002 48.7 80.4002 48.7C80.0002 48.7 79.7002 48.5 79.7002 48.2C79.7002 47.9 80.0002 47.7 80.4002 47.7C80.8002 47.8 81.1002 48 81.1002 48.2Z" fill="#50270E"/>
<path d="M77.1001 47.8C77.1001 48 76.9001 48.1 76.8001 48.1C76.6001 48.1 76.4001 48 76.4001 47.8C76.4001 47.6 76.6001 47.5 76.8001 47.5C76.9001 47.5 77.1001 47.6 77.1001 47.8Z" fill="#50270E"/>
<path d="M79.8001 47.2C79.8001 47.4 79.6001 47.5 79.4001 47.5C79.2001 47.5 79.1001 47.4 79.1001 47.2C79.1001 47 79.3001 46.9 79.4001 46.9C79.6001 46.9 79.8001 47 79.8001 47.2Z" fill="#50270E"/>
<path d="M79.9002 49.2C79.9002 49.4 79.7002 49.5 79.5002 49.5C79.3002 49.5 79.2002 49.4 79.2002 49.2C79.2002 49 79.4002 48.9 79.5002 48.9C79.7002 48.9 79.9002 49 79.9002 49.2Z" fill="#50270E"/>
<path d="M76.1001 47C76.1001 47.2 75.9001 47.2999 75.8001 47.2999C75.6001 47.2999 75.4001 47.2 75.4001 47C75.4001 46.8 75.6001 46.7 75.8001 46.7C75.9001 46.7 76.1001 46.8 76.1001 47Z" fill="#50270E"/>
<path d="M76.4002 49.3C76.4002 49.5 76.2002 49.6 76.0002 49.6C75.8002 49.6 75.7002 49.5 75.7002 49.3C75.7002 49.1 75.9002 49 76.0002 49C76.3002 49 76.4002 49.1 76.4002 49.3Z" fill="#50270E"/>
<path d="M83.4002 48.9C83.4002 49.2 83.1002 49.4 82.7002 49.4C82.3002 49.4 82.0002 49.2 82.0002 48.9C82.0002 48.6 82.3002 48.4 82.7002 48.4C83.1002 48.4 83.4002 48.6 83.4002 48.9Z" fill="#50270E"/>
<path d="M60.6 58.2C39.6 58.2 18 52.8 18 43.9C18 34.9 39.7 29.6 60.6 29.6C81.6 29.6 103.2 35 103.2 43.9C103.3 52.9 81.6 58.2 60.6 58.2ZM60.6 31.8C36.4 31.8 20.2 38.1 20.2 43.9C20.2 49.7 36.4 56 60.6 56C84.8 56 101 49.7 101 43.9C101 38.1 84.8 31.8 60.6 31.8Z" fill="url(#paint6_linear)"/>
<path d="M104.7 16.7C103.3 16.3 101.7 16.7 101.1 17.5C101.1 17.6 98.0001 22.4 94.5001 28.1C91.2001 33.4 87.4001 39.5 85.1001 43.2L87.3001 43.8C90.2001 40.3 94.2001 34.2 98.3001 29C102.6 23.6 106.2 19 106.2 18.9C106.8 18.1 106.1 17.1 104.7 16.7Z" fill="#504F4E"/>
<path d="M104 16.4C102.6 16 101 16.4 100.4 17.2C100.4 17.3 97.3001 22.1 93.8001 27.8C90.5001 33.1 86.7001 39.2 84.4001 42.9L86.6001 43.5C89.5001 40 93.5001 33.9 97.6001 28.7C101.9 23.3 105.5 18.7 105.5 18.6C106.1 17.8 105.4 16.8 104 16.4Z" fill="url(#paint7_linear)"/>
<path d="M53.8 15.9C52.2 18.3 51.2 20.6 51.8 22.5C52.3 24.4 54.5 26 56.8 27C54.9 22.2 59 18.4 60.1 16C61.2 13.6 61.7 11.3 61 9.40002C60.4 7.50002 58.6 5.90002 57 4.90002C57.5 5.90002 58 7.40002 57.5 9.30002C57 11.2 55.4 13.4 53.8 15.9Z" fill="#FFF2CC"/>
<path d="M64.5999 21.1C63.5999 22.6 63 24 63.4 25.2C63.7 26.4 65.0999 27.4 66.4999 28C65.2999 25 67.7999 22.6 68.4999 21.1C69.1999 19.6 69.4999 18.2 69.0999 17C68.6999 15.8 67.5999 14.8 66.5999 14.2C66.8999 14.8 67.2 15.8 66.9 17C66.6 18.2 65.5999 19.6 64.5999 21.1Z" fill="#FFF2CC"/>
<defs>
<linearGradient id="paint0_linear" x1="60.6126" y1="43.2674" x2="60.6126" y2="87.0352" gradientUnits="userSpaceOnUse">
<stop stop-color="#E2E1E1"/>
<stop offset="0.2917" stop-color="#D7D7D7"/>
<stop offset="0.8448" stop-color="#BABAB9"/>
<stop offset="1" stop-color="#B0B0B0"/>
</linearGradient>
<linearGradient id="paint1_linear" x1="60.642" y1="31.9001" x2="60.642" y2="52.9653" gradientUnits="userSpaceOnUse">
<stop stop-color="#9B9B9A"/>
<stop offset="0.5989" stop-color="#B3B3B3"/>
<stop offset="1" stop-color="#BEBEBE"/>
</linearGradient>
<linearGradient id="paint2_linear" x1="60.6429" y1="37.785" x2="60.6429" y2="55.5574" gradientUnits="userSpaceOnUse">
<stop stop-color="#C55B03"/>
<stop offset="1" stop-color="#F3A400"/>
</linearGradient>
<radialGradient id="paint3_radial" cx="0" cy="0" r="1" gradientUnits="userSpaceOnUse" gradientTransform="translate(51.0914 47.649) scale(7.89984 8.66644)">
<stop stop-color="#C57C00"/>
<stop offset="0.0298101" stop-color="#C07700"/>
<stop offset="0.3414" stop-color="#945101"/>
<stop offset="0.6181" stop-color="#773902"/>
<stop offset="0.8471" stop-color="#652C00"/>
<stop offset="1" stop-color="#5F2700"/>
</radialGradient>
<radialGradient id="paint4_radial" cx="0" cy="0" r="1" gradientUnits="userSpaceOnUse" gradientTransform="translate(62.2288 39.7171) scale(5.04353 5.35456)">
<stop stop-color="#C57C00"/>
<stop offset="0.0298101" stop-color="#C07700"/>
<stop offset="0.3414" stop-color="#945101"/>
<stop offset="0.6181" stop-color="#773902"/>
<stop offset="0.8471" stop-color="#652C00"/>
<stop offset="1" stop-color="#5F2700"/>
</radialGradient>
<radialGradient id="paint5_radial" cx="0" cy="0" r="1" gradientUnits="userSpaceOnUse" gradientTransform="translate(77.0295 47.4132) scale(6.64115 5.61529)">
<stop stop-color="#C57C00"/>
<stop offset="0.0298101" stop-color="#C07700"/>
<stop offset="0.3414" stop-color="#945101"/>
<stop offset="0.6181" stop-color="#773902"/>
<stop offset="0.8471" stop-color="#652C00"/>
<stop offset="1" stop-color="#5F2700"/>
</radialGradient>
<linearGradient id="paint6_linear" x1="60.6229" y1="58.2469" x2="60.6229" y2="29.6161" gradientUnits="userSpaceOnUse">
<stop stop-color="white"/>
<stop offset="0.5739" stop-color="#F5F5F5"/>
<stop offset="1" stop-color="#EBEBEB"/>
</linearGradient>
<linearGradient id="paint7_linear" x1="93.2386" y1="28.8676" x2="95.4067" y2="30.4166" gradientUnits="userSpaceOnUse">
<stop offset="0.00537634" stop-color="#DDDDDD"/>
<stop offset="0.9946" stop-color="#B0B0B0"/>
</linearGradient>
</defs>
</svg>
