<svg width="85" height="99" viewBox="0 0 85 99" fill="none" xmlns="http://www.w3.org/2000/svg">
<path d="M26.5967 87.272C26.5967 88.1307 26.4607 88.912 26.1887 89.616C25.9167 90.32 25.5327 90.9227 25.0367 91.424C24.5407 91.9253 23.9461 92.3147 23.2527 92.592C22.5594 92.864 21.7914 93 20.9487 93H16.6607V81.536H20.9487C21.7914 81.536 22.5594 81.6747 23.2527 81.952C23.9461 82.224 24.5407 82.6133 25.0367 83.12C25.5327 83.6213 25.9167 84.224 26.1887 84.928C26.4607 85.632 26.5967 86.4133 26.5967 87.272ZM25.0047 87.272C25.0047 86.568 24.9087 85.9387 24.7168 85.384C24.5248 84.8293 24.2527 84.36 23.9007 83.976C23.5487 83.592 23.1221 83.2987 22.6207 83.096C22.1194 82.8933 21.5621 82.792 20.9487 82.792H18.2207V91.744H20.9487C21.5621 91.744 22.1194 91.6427 22.6207 91.44C23.1221 91.2373 23.5487 90.9467 23.9007 90.568C24.2527 90.184 24.5248 89.7147 24.7168 89.16C24.9087 88.6053 25.0047 87.976 25.0047 87.272ZM31.8416 84.768C32.327 84.768 32.775 84.8507 33.1856 85.016C33.5963 85.176 33.951 85.4107 34.2496 85.72C34.5483 86.024 34.7803 86.4027 34.9456 86.856C35.1163 87.304 35.2016 87.816 35.2016 88.392C35.2016 88.616 35.1776 88.7653 35.1296 88.84C35.0816 88.9147 34.991 88.952 34.8576 88.952H29.4656C29.4763 89.464 29.5456 89.9093 29.6736 90.288C29.8016 90.6667 29.9776 90.984 30.2016 91.24C30.4256 91.4907 30.6923 91.68 31.0016 91.808C31.311 91.9307 31.6576 91.992 32.0416 91.992C32.399 91.992 32.7056 91.952 32.9616 91.872C33.223 91.7867 33.447 91.696 33.6336 91.6C33.8203 91.504 33.975 91.416 34.0976 91.336C34.2256 91.2507 34.335 91.208 34.4256 91.208C34.543 91.208 34.6336 91.2533 34.6976 91.344L35.0976 91.864C34.9216 92.0773 34.711 92.264 34.4656 92.424C34.2203 92.5787 33.9563 92.7067 33.6736 92.808C33.3963 92.9093 33.1083 92.984 32.8096 93.032C32.511 93.0853 32.215 93.112 31.9216 93.112C31.3616 93.112 30.8443 93.0187 30.3696 92.832C29.9003 92.64 29.4923 92.3627 29.1456 92C28.8043 91.632 28.5376 91.1787 28.3456 90.64C28.1536 90.1013 28.0576 89.4827 28.0576 88.784C28.0576 88.2187 28.143 87.6907 28.3136 87.2C28.4896 86.7093 28.7403 86.2853 29.0656 85.928C29.391 85.5653 29.7883 85.2827 30.2576 85.08C30.727 84.872 31.255 84.768 31.8416 84.768ZM31.8736 85.816C31.1856 85.816 30.6443 86.016 30.2496 86.416C29.855 86.8107 29.6096 87.36 29.5136 88.064H33.9216C33.9216 87.7333 33.8763 87.432 33.7856 87.16C33.695 86.8827 33.5616 86.6453 33.3856 86.448C33.2096 86.2453 32.9936 86.0907 32.7376 85.984C32.487 85.872 32.199 85.816 31.8736 85.816ZM46.37 93H45.738C45.5993 93 45.4873 92.9787 45.402 92.936C45.3167 92.8933 45.2607 92.8027 45.234 92.664L45.074 91.912C44.8607 92.104 44.6527 92.2773 44.45 92.432C44.2473 92.5813 44.034 92.7093 43.81 92.816C43.586 92.9173 43.346 92.9947 43.09 93.048C42.8393 93.1013 42.5593 93.128 42.25 93.128C41.9353 93.128 41.6393 93.0853 41.362 93C41.09 92.9093 40.8527 92.776 40.65 92.6C40.4473 92.424 40.2847 92.2027 40.162 91.936C40.0447 91.664 39.986 91.344 39.986 90.976C39.986 90.656 40.074 90.3493 40.25 90.056C40.426 89.7573 40.7087 89.4933 41.098 89.264C41.4927 89.0347 42.0073 88.848 42.642 88.704C43.2767 88.5547 44.0527 88.4693 44.97 88.448V87.816C44.97 87.1867 44.834 86.712 44.562 86.392C44.2953 86.0667 43.898 85.904 43.37 85.904C43.0233 85.904 42.73 85.9493 42.49 86.04C42.2553 86.1253 42.05 86.224 41.874 86.336C41.7033 86.4427 41.554 86.5413 41.426 86.632C41.3033 86.7173 41.1807 86.76 41.058 86.76C40.962 86.76 40.8767 86.736 40.802 86.688C40.7327 86.6347 40.6767 86.5707 40.634 86.496L40.378 86.04C40.826 85.608 41.3087 85.2853 41.826 85.072C42.3433 84.8587 42.9167 84.752 43.546 84.752C43.9993 84.752 44.402 84.8267 44.754 84.976C45.106 85.1253 45.402 85.3333 45.642 85.6C45.882 85.8667 46.0633 86.1893 46.186 86.568C46.3087 86.9467 46.37 87.3627 46.37 87.816V93ZM42.674 92.128C42.9247 92.128 43.154 92.104 43.362 92.056C43.57 92.0027 43.7647 91.9307 43.946 91.84C44.1327 91.744 44.3087 91.6293 44.474 91.496C44.6447 91.3627 44.81 91.2107 44.97 91.04V89.352C44.314 89.3733 43.7567 89.4267 43.298 89.512C42.8393 89.592 42.466 89.6987 42.178 89.832C41.89 89.9653 41.6793 90.1227 41.546 90.304C41.418 90.4853 41.354 90.688 41.354 90.912C41.354 91.1253 41.3887 91.3093 41.458 91.464C41.5273 91.6187 41.6207 91.7467 41.738 91.848C41.8553 91.944 41.994 92.016 42.154 92.064C42.314 92.1067 42.4873 92.128 42.674 92.128ZM55.2294 84.896V95.744H53.8054V91.8C53.464 92.1947 53.0747 92.512 52.6374 92.752C52.2054 92.992 51.7094 93.112 51.1494 93.112C50.6854 93.112 50.264 93.024 49.8854 92.848C49.5067 92.6667 49.184 92.4027 48.9174 92.056C48.6507 91.7093 48.4454 91.2773 48.3014 90.76C48.1574 90.2427 48.0854 89.648 48.0854 88.976C48.0854 88.3787 48.1654 87.824 48.3254 87.312C48.4854 86.7947 48.7147 86.3467 49.0134 85.968C49.3174 85.5893 49.6854 85.2933 50.1174 85.08C50.5494 84.8613 51.04 84.752 51.5894 84.752C52.112 84.752 52.5547 84.8453 52.9174 85.032C53.2854 85.2187 53.6134 85.4827 53.9014 85.824L53.9974 85.192C54.0507 84.9947 54.1787 84.896 54.3814 84.896H55.2294ZM51.6214 91.96C52.0854 91.96 52.4907 91.8533 52.8374 91.64C53.1894 91.4267 53.512 91.1253 53.8054 90.736V86.816C53.5494 86.4747 53.264 86.232 52.9494 86.088C52.6347 85.9387 52.288 85.864 51.9094 85.864C51.152 85.864 50.5707 86.1333 50.1654 86.672C49.76 87.2107 49.5574 87.9787 49.5574 88.976C49.5574 89.504 49.6027 89.9573 49.6934 90.336C49.784 90.7093 49.9174 91.0187 50.0934 91.264C50.2694 91.504 50.4854 91.68 50.7414 91.792C50.9974 91.904 51.2907 91.96 51.6214 91.96ZM58.9969 84.896V90.064C58.9969 90.6773 59.1382 91.152 59.4209 91.488C59.7035 91.824 60.1302 91.992 60.7009 91.992C61.1169 91.992 61.5089 91.8933 61.8769 91.696C62.2449 91.4987 62.5835 91.224 62.8929 90.872V84.896H64.3169V93H63.4689C63.2662 93 63.1382 92.9013 63.0849 92.704L62.9729 91.832C62.6209 92.2213 62.2262 92.536 61.7889 92.776C61.3515 93.0107 60.8502 93.128 60.2849 93.128C59.8422 93.128 59.4502 93.056 59.1089 92.912C58.7729 92.7627 58.4902 92.5547 58.2609 92.288C58.0315 92.0213 57.8582 91.6987 57.7409 91.32C57.6289 90.9413 57.5729 90.5227 57.5729 90.064V84.896H58.9969ZM68.3895 84.896V93H66.9655V84.896H68.3895ZM70.0535 81.408L68.1895 83.472C68.1148 83.552 68.0402 83.6107 67.9655 83.648C67.8962 83.68 67.8055 83.696 67.6935 83.696H66.8455L68.0295 81.76C68.1042 81.6373 68.1842 81.5493 68.2695 81.496C68.3602 81.4373 68.4908 81.408 68.6615 81.408H70.0535Z" fill="black"/>
<g clip-path="url(#clip0)">
<path d="M42.5 35.8122C59.4712 35.8122 74.6447 38.2572 85 42.0685C82.8426 18.4814 64.6489 0 42.5 0C20.3511 0 2.15736 18.4814 0 42.0685C10.3553 38.1853 25.5288 35.8122 42.5 35.8122Z" fill="#8EC044"/>
<path d="M43.4348 70.6176C60.4333 70.6176 74.2132 65.0799 74.2132 58.2487C74.2132 51.4176 60.4333 45.8799 43.4348 45.8799C26.4364 45.8799 12.6565 51.4176 12.6565 58.2487C12.6565 65.0799 26.4364 70.6176 43.4348 70.6176Z" fill="#D2D2D2"/>
<path d="M28.6208 39.8392C28.6208 41.637 24.8814 43.1472 20.279 43.1472C15.6767 43.1472 11.9373 41.7089 11.9373 39.8392C11.9373 38.0414 15.6767 36.5312 20.279 36.5312C24.8814 36.6032 28.6208 38.0414 28.6208 39.8392Z" fill="#B7B6B6"/>
<path d="M9.70822 29.1243C9.63631 29.4838 9.63631 29.8434 9.63631 30.2029C9.63631 33.2952 9.27675 35.6683 12.6566 37.3942V38.6167C12.7285 39.6234 15.7488 40.9178 19.5602 40.9178C23.3715 40.9178 26.5356 39.6234 26.5356 38.6167V37.3942C29.9155 35.6683 29.5559 33.2952 29.5559 30.2029C29.5559 29.8434 29.5559 29.4838 29.484 29.1243H9.70822Z" fill="url(#paint0_linear)"/>
<path d="M13.0161 37.0347C14.5263 38.1133 16.9713 38.9763 19.7039 39.0482C22.4366 39.1201 25.0254 38.401 26.3198 37.1066C24.6659 37.8257 22.2928 38.0414 19.7039 37.9695C17.1151 37.8976 14.8139 37.5381 13.0161 37.0347Z" fill="#909090"/>
<path d="M29.5559 29.34C29.5559 30.7783 25.1693 31.9289 19.704 31.9289C14.2387 31.9289 9.85205 30.7783 9.85205 29.34C9.85205 27.9018 14.2387 26.7512 19.704 26.7512C25.1693 26.6793 29.5559 27.9018 29.5559 29.34Z" fill="url(#paint1_linear)"/>
<path d="M19.704 32.7918C14.814 32.7918 9.70825 31.5693 9.70825 29.4839C9.70825 27.3984 14.814 26.1759 19.704 26.1759C24.594 26.1759 29.6998 27.3984 29.6998 29.4839C29.6279 31.4974 24.594 32.7918 19.704 32.7918ZM19.704 26.6074C14.023 26.6074 10.2116 28.0456 10.2116 29.4839C10.2116 30.9221 14.023 32.3603 19.704 32.3603C25.3851 32.3603 29.1964 30.9221 29.1964 29.4839C29.1964 28.0456 25.3132 26.6074 19.704 26.6074Z" fill="url(#paint2_linear)"/>
<path d="M32.4323 20.0634C31.9289 19.9196 31.3537 20.0634 31.2098 20.351C31.2098 20.351 30.1312 22.005 28.9086 23.9466C27.7581 25.7444 26.4636 27.8299 25.6726 29.1243L26.4636 29.34C27.4704 28.1175 28.8367 26.0321 30.275 24.3062C31.7132 22.4365 33.0076 20.8544 33.0076 20.8544C33.1515 20.5668 32.8638 20.2072 32.4323 20.0634Z" fill="#504F4E"/>
<path d="M32.1447 19.9915C31.6414 19.8477 31.0661 19.9915 30.9222 20.2791C30.9222 20.2791 29.8436 21.9331 28.621 23.8747C27.4705 25.6725 26.176 27.758 25.385 29.0524L26.176 29.2681C27.1828 28.0456 28.5491 25.9602 29.9874 24.2343C31.4256 22.3646 32.72 20.7825 32.72 20.7825C32.8639 20.4949 32.6481 20.1353 32.1447 19.9915Z" fill="url(#paint3_linear)"/>
<path d="M28.5493 29.9153C28.5493 31.1378 24.5941 32.2165 19.6322 32.2165C14.7422 32.2165 10.7151 31.2097 10.7151 29.9153C10.7151 28.6209 14.6702 27.6141 19.6322 27.6141C24.5941 27.6141 28.5493 28.6928 28.5493 29.9153Z" fill="url(#paint4_linear)"/>
<path d="M12.5127 27.758C12.8723 27.3985 13.3757 27.1108 13.8791 26.8951C14.5263 26.6074 15.1016 27.0389 15.533 26.3198C16.6836 24.7377 21.4298 24.4501 23.4434 26.104C24.8097 26.3917 25.4569 26.6074 26.3918 27.3985C27.039 27.9738 27.5423 28.621 27.3266 29.6277C26.967 30.9941 25.2412 30.9221 24.0906 30.9941C22.3647 31.1379 20.6388 31.2098 18.9848 31.3536C17.1151 31.5694 14.8858 31.3536 13.088 30.7783C11.5779 30.3468 11.4341 28.8367 12.5127 27.758Z" fill="url(#paint5_linear)"/>
<path d="M18.9129 29.5558C18.9129 29.5558 18.5533 29.4838 18.0499 29.4119C17.5465 29.34 16.8993 29.1243 16.324 28.8366C16.0364 28.6928 15.7487 28.549 15.533 28.4052C15.3173 28.1894 15.1015 28.1175 14.9577 27.9018C14.8858 27.8299 14.8139 27.758 14.742 27.686C14.6701 27.6141 14.6701 27.5422 14.5981 27.5422C14.5262 27.4703 14.5262 27.3984 14.5262 27.3984C14.4543 27.3265 14.1667 27.4703 13.879 27.6141C13.5195 27.758 13.3756 28.1175 13.5195 28.2613C13.5195 28.2613 13.5914 28.3333 13.7352 28.4771C13.8071 28.549 13.879 28.6209 13.9509 28.6928C14.0229 28.7647 14.1667 28.8366 14.3105 28.9086C14.5262 29.0524 14.8858 29.1962 15.1734 29.34C15.4611 29.4838 15.8207 29.4838 16.1802 29.6277C16.8993 29.6996 17.5465 29.7715 18.0499 29.7715C18.5533 29.5558 18.9129 29.5558 18.9129 29.5558Z" fill="#F07F4E"/>
<path d="M16.4681 30.9941C16.4681 30.9941 16.1804 30.9222 15.7489 30.8503C15.5332 30.7783 15.2456 30.7783 15.0298 30.7064C14.7422 30.6345 14.4545 30.5626 14.2388 30.4188C13.7354 30.203 13.232 29.8435 12.9444 29.5558C12.6567 29.2682 12.5129 29.0525 12.5129 29.0525C12.441 28.9805 12.2253 29.1244 11.9376 29.2682C11.65 29.412 11.578 29.7716 11.65 29.8435C11.65 29.8435 11.7219 29.9154 11.8657 29.9873C12.0095 30.0592 12.1533 30.203 12.3691 30.3469C12.8006 30.6345 13.4478 30.8503 14.0231 30.9222C14.3107 30.9941 14.6703 30.9941 14.9579 30.9941C15.2456 30.9941 15.5332 30.9941 15.7489 30.9941C16.1085 30.9941 16.4681 30.9941 16.4681 30.9941Z" fill="#EB5D46"/>
<path d="M19.1288 25.6725C19.1288 25.6725 18.9131 25.6725 18.6254 25.6725C18.4816 25.6725 18.2659 25.6725 18.122 25.7444C17.9063 25.7444 17.6906 25.8163 17.5468 25.8882C17.331 25.9601 17.1153 26.032 16.9715 26.1759C16.7557 26.2478 16.6119 26.3916 16.54 26.5354C16.2523 26.7512 16.1085 26.9669 16.1085 26.9669C16.0366 27.0388 16.1085 27.2546 16.3242 27.2546C16.4681 27.3265 16.6838 27.3265 16.6838 27.2546C16.6838 27.2546 16.7557 27.1107 16.8995 26.895C16.9715 26.8231 17.1153 26.6793 17.1872 26.5354C17.331 26.3916 17.4748 26.3197 17.6187 26.2478C17.7625 26.104 17.9782 26.104 18.122 26.032C18.2659 25.9601 18.4097 25.8882 18.5535 25.8882C18.985 25.7444 19.1288 25.6725 19.1288 25.6725Z" fill="#F07F4E"/>
<path d="M19.0566 27.9737C19.0566 27.9737 19.4162 27.9737 19.8477 28.0456C20.0634 28.0456 20.3511 28.1175 20.7106 28.1175C20.9983 28.1175 21.3578 28.1175 21.7174 28.1175C22.0769 28.1175 22.3646 28.0456 22.7242 27.9737C23.0118 27.9018 23.3714 27.8299 23.5871 27.6861C23.8028 27.5422 24.0186 27.4703 24.1624 27.3265C24.3062 27.2546 24.3781 27.1827 24.3781 27.1827C24.522 27.0388 24.522 26.8231 24.3062 26.7512C24.1624 26.6793 23.9467 26.6793 23.8747 26.7512C23.8747 26.7512 23.8028 26.8231 23.7309 26.895C23.659 26.9669 23.5152 27.1108 23.2994 27.1827C23.0837 27.3265 22.868 27.3984 22.5803 27.5422C22.2927 27.6141 22.005 27.6861 21.6455 27.758C21.3578 27.8299 20.9983 27.8299 20.7106 27.9018C20.423 27.9737 20.1353 27.9018 19.8477 27.9737C19.3443 27.9018 19.0566 27.9737 19.0566 27.9737Z" fill="#D75322"/>
<path d="M22.1489 30.3468C22.1489 30.3468 22.5085 30.3468 22.94 30.4187C23.1557 30.4187 23.4433 30.4906 23.8029 30.4906C24.0905 30.4906 24.4501 30.4906 24.8097 30.4906C25.1692 30.4906 25.4569 30.4187 25.8164 30.3468C26.1041 30.2748 26.4636 30.2029 26.6794 30.0591C26.8951 29.9153 27.1109 29.8434 27.2547 29.6995C27.3985 29.6276 27.4704 29.5557 27.4704 29.5557C27.6142 29.4119 27.5423 29.1962 27.3985 29.1242C27.2547 29.0523 27.0389 29.0523 26.967 29.1242C26.967 29.1242 26.8951 29.1962 26.8232 29.2681C26.7513 29.34 26.6075 29.4838 26.3917 29.5557C26.176 29.6995 25.9603 29.7715 25.6726 29.9153C25.385 29.9872 25.0973 30.0591 24.7378 30.131C24.4501 30.2029 24.0905 30.2029 23.8029 30.2748C23.5153 30.3467 23.2276 30.2748 22.94 30.3468C22.4366 30.3468 22.1489 30.3468 22.1489 30.3468Z" fill="#D75322"/>
<path d="M73.8538 55.8757C73.8538 62.2039 60.4063 67.3816 43.7227 67.3816C27.0391 67.3816 13.5916 62.2039 13.5916 55.8757C13.5916 49.5474 27.111 44.3698 43.7227 44.3698C60.3344 44.3698 73.8538 49.5474 73.8538 55.8757Z" fill="#646363"/>
<path d="M80.9009 50.2665C80.9009 58.7522 64.8646 65.3681 43.9382 65.3681C23.0118 65.3681 6.68774 58.7522 6.68774 50.2665C6.68774 41.7809 22.9399 34.5897 43.9382 34.5897C64.8646 34.6616 80.9009 41.7809 80.9009 50.2665Z" fill="url(#paint6_linear)"/>
<path d="M43.5068 66.3748C22.7962 66.3748 6.61597 59.1117 6.61597 50.2666C6.61597 41.4933 22.7962 34.5178 43.5068 34.5178C64.2175 34.5178 81.1168 41.6371 81.1168 50.4104C81.1168 59.1836 64.2175 66.3748 43.5068 66.3748ZM43.9383 35.165C23.8029 35.165 7.407 41.7809 7.407 49.9789C7.407 58.1769 23.8029 64.7928 43.9383 64.7928C64.0737 64.7928 80.4696 58.1769 80.4696 49.9789C80.4696 41.8528 64.0737 35.165 43.9383 35.165Z" fill="url(#paint7_linear)"/>
<path d="M68.6762 50.3384C68.6762 55.8757 57.6017 60.4061 43.8665 60.4061C30.2032 60.4061 19.0569 55.9476 19.0569 50.3384C19.0569 44.8012 30.1313 40.2708 43.8665 40.2708C57.6017 40.2708 68.6762 44.7293 68.6762 50.3384Z" fill="url(#paint8_linear)"/>
<path d="M43.9383 61.9882C28.693 61.9882 16.2522 56.7387 16.2522 50.2666C16.2522 43.7945 28.693 38.5449 43.9383 38.5449C59.1837 38.5449 71.6244 43.7945 71.6244 50.2666C71.5525 56.7387 59.1837 61.9882 43.9383 61.9882ZM43.9383 40.918C31.2099 40.918 20.7827 45.0889 20.7827 50.2666C20.7827 55.4442 31.138 59.6151 43.9383 59.6151C56.6667 59.6151 67.094 55.4442 67.094 50.2666C67.0221 45.1608 56.6667 40.918 43.9383 40.918Z" fill="url(#paint9_linear)"/>
<path d="M61.9162 33.583C61.9162 32.6481 61.1252 32.6481 60.478 32.6481C60.2623 32.6481 59.9027 32.6481 60.2623 32.6481C60.9095 31.7852 60.1904 31.066 59.5431 31.066C58.2487 31.138 57.8173 32.72 57.8173 32.72C55.8037 33.4391 54.0059 33.9425 50.1946 33.7268L52.6396 37.5381C55.1565 36.3156 58.8959 34.8055 58.8959 34.8055C59.687 35.2369 61.9162 35.0212 61.9162 33.583Z" fill="#823B05"/>
<path d="M22.7243 48.9001C22.7243 48.9001 15.8207 43.3629 17.4747 41.637C19.2006 39.9111 25.1693 37.3942 26.248 37.1066C27.3266 36.8189 28.693 37.2504 28.4053 37.8976C28.4053 37.8976 25.4569 39.3358 24.0906 40.1269C22.7243 40.9179 21.286 41.4213 21.6456 41.9966C21.9332 42.5 25.3131 44.8012 26.7513 45.9517C28.1177 47.1742 28.6211 51.1294 22.7243 48.9001Z" fill="url(#paint10_linear)"/>
<path d="M20.7107 49.9788C20.8545 49.1878 21.286 48.4687 21.286 47.6777C20.9264 47.6058 20.5669 47.9653 20.4231 48.253C19.9197 47.8934 20.0635 47.0305 19.4163 46.6709C19.1286 46.8866 18.9848 47.39 18.9129 47.7496C18.6972 47.6777 18.1219 47.3181 17.978 47.6058C17.8342 47.8215 18.1938 48.181 18.3376 48.253C18.1219 48.181 17.9061 48.181 17.6904 48.181C17.5466 48.6844 18.6972 49.4036 19.0567 49.7631C18.4095 49.6912 17.4027 49.1159 16.8275 49.3316C16.6836 49.6193 16.8275 49.9069 17.1151 50.1227C16.5398 50.0508 14.8139 49.835 16.0364 50.6261C15.7488 50.6261 15.533 50.698 15.2454 50.698C15.1016 50.7699 15.1016 50.9856 15.1016 51.1294C15.3892 51.1294 15.6769 51.2014 15.8926 51.3452C15.1735 52.1362 16.1802 51.9205 16.6836 51.7047C16.6117 51.8486 16.6836 52.0643 16.6117 52.2081C16.8994 52.2081 17.2589 52.0643 17.4027 51.8486C17.4027 52.4958 18.05 51.9205 18.2657 51.6328C18.4095 51.5609 18.5533 51.5609 18.6972 51.489C18.5533 51.9924 18.05 52.2081 18.1219 52.7834C18.3376 52.7834 18.4814 52.8553 18.6253 52.7115C18.3376 53.143 18.1219 53.6464 18.2657 54.1497C18.7691 54.2936 19.4882 53.7183 19.632 53.2868C19.8478 53.5744 20.2073 54.0778 20.6388 54.0778C20.9983 53.6464 20.5669 53.3587 20.495 52.9992C20.3511 52.5677 20.4231 51.9924 20.2073 51.5609C20.3511 52.1362 21.5017 52.4958 22.077 52.4958C22.0051 52.4239 22.0051 52.28 21.9332 52.2081C22.2209 52.28 22.5085 52.1362 22.5085 51.8486C21.9332 51.5609 21.4298 51.3452 20.8545 51.0575C21.2141 50.4822 22.94 50.1227 22.94 49.5474C22.5804 49.4036 22.1489 49.5474 21.7894 49.4755C22.0051 49.3316 22.077 49.1159 22.077 48.8283C21.4298 48.6125 20.9264 49.835 20.7107 50.1946V49.9788Z" fill="url(#paint11_linear)"/>
<path d="M70.4739 49.4755C72.0559 46.3832 77.2336 45.0169 80.1101 44.4416C79.8943 44.4416 78.5999 43.4349 78.3123 43.8663C78.2404 44.0101 78.1684 44.154 78.1684 44.2259C78.0965 44.2259 78.0965 44.2978 78.0965 44.2978C78.1684 44.2259 78.1684 44.0821 78.0246 44.0101C77.8808 43.9382 77.6651 44.0821 77.3774 44.3697C77.0178 44.8731 76.5145 45.0169 76.083 45.0888C76.6583 44.8012 76.7302 44.2259 76.4426 44.0821C76.083 43.8663 75.7234 44.0821 75.6515 44.2978C75.5796 44.0821 75.3639 44.0821 75.22 44.0821C75.0043 44.0821 74.8605 44.154 74.7886 44.5854C74.7886 45.3046 74.5009 45.3765 74.3571 45.5922C74.2133 45.736 74.0695 45.5922 74.2133 45.5203C74.6447 45.0169 74.5009 44.8012 74.3571 44.6574C74.2133 44.5135 73.9256 44.5135 73.7818 44.6574C73.7099 44.2978 73.4942 44.154 73.1346 44.154C72.7031 44.154 72.6312 44.5135 72.847 44.945C72.5593 44.7293 72.2717 45.0169 72.4874 45.3765C72.775 45.9518 72.7031 46.0237 72.6312 46.2394C72.6312 46.3113 72.5593 46.3832 72.4874 46.3832C72.7031 46.0956 72.5593 45.736 72.3436 45.6641C72.2717 45.5203 72.1278 45.4484 72.0559 45.4484C71.7683 45.4484 71.6964 45.5203 71.6244 45.8079C71.4087 45.6641 71.1211 45.6641 71.1211 45.8799C71.0492 45.9518 70.9772 46.0237 70.9772 46.3113C70.9772 46.3832 71.0492 46.4552 71.0492 46.5271C70.9772 46.5271 70.9772 46.5271 70.9053 46.5271L70.8334 46.4552C70.7615 46.4552 70.7615 46.4552 70.6896 46.4552H70.6177C70.6177 46.4552 70.5458 46.4552 70.4739 46.4552C70.5458 46.3832 70.5458 46.3832 70.6896 46.3113C70.8334 46.2394 70.8334 46.1675 70.8334 46.0956C70.9053 46.0237 70.8334 45.8079 70.6896 45.8079C70.7615 45.6641 70.7615 45.5203 70.6177 45.4484C70.6177 45.3046 70.5458 45.3046 70.4739 45.3046C70.33 45.2327 70.1862 45.3046 70.1143 45.5922C70.1143 45.5922 70.1143 45.5203 70.1143 45.4484C70.1862 45.3046 70.1862 45.2327 70.5458 45.0888C70.8334 45.0169 70.7615 44.7293 70.5458 44.7293C70.8334 44.5854 70.9772 44.4416 70.7615 44.2259C70.6177 44.0821 70.4739 44.0821 70.2581 44.2259C70.2581 44.0821 70.1143 43.9382 69.9705 43.9382C69.8267 43.9382 69.6828 44.0101 69.6828 44.4416C69.6828 44.5854 69.539 44.5854 69.539 44.4416C69.539 44.2978 69.4671 44.154 69.7547 43.7944C69.8986 43.5787 69.8266 43.4349 69.7547 43.3629C69.8986 43.1472 69.7547 43.0753 69.6828 43.1472C69.7547 43.0034 69.6828 42.7876 69.3952 42.7157C69.1794 42.6438 68.9637 43.0034 69.1075 43.3629C68.9637 43.1472 68.8199 42.8596 68.8918 42.4281C68.8918 42.1404 68.8918 41.9966 68.748 41.9247C68.6761 41.9247 68.6041 41.9966 68.6041 41.9966V41.9247C68.6761 41.8528 68.6761 41.7809 68.6761 41.6371C68.748 41.2775 67.7412 41.2056 67.6693 41.1337C68.3884 42.2123 69.3952 43.9382 69.7547 45.5922H69.6828C69.7547 45.3765 69.6828 45.3046 69.3952 45.2327C69.3233 45.2327 69.1794 45.2327 69.1075 45.3046C68.8918 45.3046 68.6761 45.5203 68.748 45.8079C68.748 45.8079 68.6761 45.736 68.6761 45.6641C68.6761 45.5203 68.6041 45.3765 69.1075 45.0169C69.3952 44.7293 69.2514 44.5135 68.9637 44.5854C69.2514 44.2978 69.3952 44.0821 68.9637 43.9382C68.6761 43.8663 68.4603 43.9382 68.2446 44.154C68.1727 44.0101 67.885 43.9382 67.7412 44.0101C67.5974 44.0821 67.3816 44.2978 67.5974 44.7293C67.6693 44.8731 67.5255 44.945 67.4536 44.7293C67.3816 44.5854 67.2378 44.4416 67.3816 43.8663C67.4535 43.5787 67.3097 43.4349 67.1659 43.4349C67.0221 43.3629 66.8783 43.3629 66.7344 43.5068C66.7344 43.3629 66.5187 43.1472 66.1591 43.2191C65.8715 43.291 65.7277 43.7225 66.0872 44.0821C65.7277 43.9382 65.3681 43.7225 65.2243 43.2191C65.0805 42.9315 64.9366 42.7876 64.7928 42.7876C64.7928 43.0034 64.7209 43.1472 64.7209 43.1472C64.7209 43.1472 64.7209 43.0753 64.649 43.0753C64.649 43.0034 64.7209 42.8596 64.649 42.7876C64.5052 42.4281 63.1388 42.8596 62.9231 42.8596C66.6625 44.7293 68.3884 47.0305 69.2514 48.7563C69.0356 48.6125 69.8986 49.1159 70.4739 49.4755Z" fill="url(#paint12_linear)"/>
<path d="M63.7141 42.2124C64.3613 43.4349 65.7995 44.7293 68.4603 45.2327C71.121 45.808 70.7615 49.4036 67.3097 52.2801C63.0669 55.8037 41.7809 65.1523 22.94 53.7183C11.8655 47.0305 33.1515 23.5153 53.5745 33.4391C58.3207 35.7403 61.341 38.1134 63.7141 42.2124Z" fill="url(#paint13_radial)"/>
<path d="M42.1405 58.8241C37.7538 57.4577 33.5829 51.2014 35.2369 46.9586C36.9628 42.7877 38.6887 41.0618 48.7564 40.6303C58.896 40.2707 61.341 38.9044 64.4332 37.0347C64.4332 37.0347 64.4332 34.7335 65.9433 34.7335C65.9433 34.7335 67.885 35.0931 66.8782 36.4594C65.9433 37.8257 66.3029 36.4594 66.3029 36.4594C66.3029 36.4594 68.8198 35.3088 69.1794 37.0347C69.5389 38.7606 67.0939 39.5516 66.1591 39.1202C66.1591 39.1202 59.1117 43.5787 57.9611 45.4484C56.2352 48.1811 55.8756 48.1811 54.5093 49.6193C54.5093 49.6193 56.5948 48.3968 59.687 51.0576C62.7073 53.7183 57.3139 63.4264 42.1405 58.8241Z" fill="url(#paint14_radial)"/>
<path d="M54.0779 40.6304C54.006 40.6304 53.9341 40.7023 53.9341 40.7023C54.006 40.7023 54.006 40.6304 54.0779 40.6304Z" fill="url(#paint15_radial)"/>
<path d="M42.7157 32.3605C42.7157 32.3605 42.4281 32.4324 41.8528 32.5043C41.5651 32.5762 41.2775 32.5762 40.9179 32.72C40.5584 32.8639 40.1269 33.0077 39.6954 33.1515C37.8976 33.7987 35.6684 35.165 33.6548 36.819C31.6413 38.473 29.9154 40.4865 28.621 41.9967C27.9738 42.7877 27.4704 43.4349 27.1827 43.9383C26.8232 44.4417 26.6074 44.7293 26.6074 44.7293C26.3198 45.3046 26.4636 46.0238 27.0389 46.3114C27.6142 46.5991 28.2614 46.4552 28.5491 45.9518C28.5491 45.9518 28.6929 45.6642 28.9805 45.1608C29.2682 44.6574 29.6278 44.0102 30.203 43.2192C31.2098 41.6371 32.72 39.5517 34.4459 37.7539C36.1717 35.9561 38.1853 34.374 39.8393 33.583C40.2707 33.3672 40.6303 33.2234 40.9899 33.0077C41.3494 32.8639 41.6371 32.7919 41.9247 32.72C42.4281 32.4324 42.7157 32.3605 42.7157 32.3605Z" fill="#FAB750"/>
<path d="M19.6319 44.8012C19.2724 44.2978 18.8409 43.7225 18.6252 43.1472C18.4094 42.5 18.6252 42.2123 19.4162 41.7089C19.7758 41.4932 20.0634 41.2056 20.423 40.9898C20.7825 40.7741 21.0702 40.5584 21.4297 40.3426C22.077 39.9111 22.5803 39.4797 23.0837 39.1201C22.5084 39.192 21.7893 39.4078 21.0702 39.6954C20.7106 39.8392 20.3511 39.9831 19.9915 40.1988C19.6319 40.4145 19.2724 40.6303 18.8409 40.9179C18.6252 41.0617 18.4814 41.1337 18.2656 41.3494C18.0499 41.4932 17.9061 41.7809 17.7622 41.9966C17.5465 42.5719 17.6903 43.1472 17.9061 43.5068C18.4814 44.154 19.1286 44.5135 19.6319 44.8012Z" fill="#FBC27E"/>
<path d="M20.7108 49.2597C20.7827 47.39 21.4299 45.3046 22.6524 43.363C22.7963 43.1472 22.9401 42.8596 23.1558 42.6438C23.2996 42.3562 23.5154 42.2124 23.7311 41.9247C24.1626 41.4933 24.4502 40.9899 24.9536 40.5584C25.3851 40.1269 25.8885 39.6235 26.32 39.1921C26.7514 38.7606 27.3267 38.3291 27.7582 37.8977C29.7717 36.1718 32.001 34.9493 34.1584 34.0863C36.3157 33.2234 38.4012 32.5762 40.1271 31.929C38.3293 32.2885 36.1719 32.6481 33.8707 33.3672C31.5695 34.0863 29.1964 35.3088 27.0391 37.1066C26.5357 37.5381 25.9604 37.9696 25.5289 38.4729C25.0974 38.9763 24.5941 39.4078 24.1626 39.9112C23.7311 40.3427 23.3716 40.918 22.9401 41.4213C22.7244 41.709 22.5086 41.9247 22.3648 42.2124C22.221 42.5 22.0771 42.7877 21.9333 43.0034C20.7827 45.0889 20.4232 47.39 20.7108 49.2597Z" fill="#FAB750"/>
<path d="M29.5559 57.3859C29.5559 57.3859 20.9984 49.4036 23.0838 46.8867C25.1693 44.4417 32.5762 40.7742 33.9425 40.4146C35.3089 40.0551 36.9628 40.6304 36.6033 41.5652C36.6033 41.5652 33.0077 43.6507 31.2818 44.8013C29.5559 45.9518 27.83 46.7429 28.2615 47.462C28.621 48.253 32.8638 51.4891 34.5178 53.215C36.2437 54.8689 36.819 60.6219 29.5559 57.3859Z" fill="url(#paint16_linear)"/>
<path d="M34.0862 41.0618C34.0862 41.0618 33.2952 41.3494 32.1446 41.8528C31.5693 42.0685 30.9221 42.4281 30.203 42.7877C29.4839 43.1472 28.7647 43.5068 27.9737 43.9382C27.2546 44.3697 26.4636 44.7293 25.8163 45.1608C25.4568 45.3765 25.1691 45.5203 24.8096 45.736C24.5219 45.8799 24.1624 46.1675 23.8747 46.4552C23.5871 46.7428 23.4432 47.1743 23.3713 47.5338C23.3713 47.8934 23.3713 48.253 23.4432 48.4687C23.5871 48.9721 23.7309 49.1878 23.7309 49.1878C24.0185 49.6193 24.5219 49.6912 24.7377 49.4036C24.9534 49.1159 25.0253 48.7564 24.8096 48.4687C24.8096 48.4687 24.6658 48.3249 24.5938 48.1091C24.5219 47.8934 24.45 47.6058 24.6658 47.2462C24.8815 46.9585 25.6006 46.4552 26.2478 46.0237C26.895 45.5203 27.6141 45.0888 28.2614 44.5855C28.9805 44.0821 29.6277 43.6506 30.3468 43.2191C30.994 42.7877 31.6412 42.3562 32.2165 42.0685C33.3671 41.4932 34.0862 41.0618 34.0862 41.0618Z" fill="#FAB750"/>
<path d="M64.7928 37.7538C64.7928 37.7538 64.5052 38.2572 63.786 38.6886C63.4265 38.9763 62.995 39.192 62.4916 39.4078C61.9882 39.6235 61.4129 39.8392 60.6938 39.9831C59.3994 40.3426 57.8173 40.4864 56.0915 40.6303C55.2285 40.7022 54.3656 40.7741 53.5026 40.846C53.0712 40.9179 52.6397 40.9179 52.2082 40.9898C51.7767 40.9898 51.3453 40.9898 50.8419 41.0617C49.0441 41.1336 47.2463 41.1336 45.5923 41.2056C45.1608 41.2056 44.8013 41.2056 44.2979 41.2775C43.8664 41.2775 43.4349 41.3494 43.0035 41.4213C42.7877 41.4213 42.572 41.4932 42.3563 41.4932C42.1405 41.5651 41.9967 41.5651 41.781 41.637C41.4214 41.7089 41.0618 41.8528 40.7023 41.9966C39.336 42.5719 38.3292 43.4348 37.682 44.0101C37.0348 44.6573 36.7471 45.0888 36.7471 45.1607C36.1718 45.9518 36.3876 46.9585 36.9629 47.1743C37.5382 47.39 38.2573 47.0304 38.6168 46.4551C38.6168 46.4551 38.6888 46.3832 38.7607 46.1675C38.9045 46.0237 39.0483 45.8079 39.264 45.5203C39.6955 45.0169 40.4146 44.2978 41.4933 43.7225C41.9967 43.4348 42.6439 43.2191 43.2911 43.0753C43.6507 43.0034 44.0102 42.9314 44.3698 42.8595C44.7294 42.7876 45.1608 42.7876 45.5923 42.7157C47.3182 42.5 49.116 42.3562 50.9138 42.1404C51.3453 42.0685 51.8486 42.0685 52.2801 41.9966C52.7116 41.9247 53.1431 41.8528 53.5745 41.7809C54.4375 41.637 55.3004 41.4932 56.1634 41.3494C57.8173 41.0617 59.3994 40.7741 60.7657 40.2707C61.4129 40.055 61.9882 39.7673 62.5635 39.4797C63.0669 39.192 63.4984 38.9044 63.786 38.6167C64.5052 38.2572 64.7928 37.7538 64.7928 37.7538Z" fill="#ED923B"/>
<path d="M65.0086 36.6032C65.1524 36.2437 65.3681 35.8841 65.5839 35.7403C65.7996 35.5964 66.1592 35.5245 66.5187 35.4526C66.3749 35.3088 66.2311 35.165 66.0153 35.0931C65.7996 35.0211 65.44 35.0211 65.2243 35.2369C64.9367 35.4526 64.8647 35.7403 64.8647 35.956C64.8647 36.2436 64.9367 36.4594 65.0086 36.6032Z" fill="#FAB750"/>
<path d="M67.166 37.3223C67.4536 37.1785 67.7412 36.9628 67.8851 36.9628C68.0289 36.8909 68.3165 36.8909 68.6761 36.9628C68.6761 36.819 68.6042 36.6032 68.3885 36.4594C68.2446 36.3156 67.957 36.2437 67.6693 36.3156C67.1659 36.6032 67.094 37.0347 67.166 37.3223Z" fill="#FAB750"/>
<path d="M36.3876 41.7809C36.3876 41.7809 35.3089 42.5 33.6549 43.5068C32.8639 44.0102 31.929 44.6574 30.8503 45.3046C30.3469 45.5922 29.8436 45.9518 29.2683 46.3113C28.693 46.6709 28.2615 46.9585 27.4705 47.4619C27.6143 47.8215 27.9019 48.253 28.1177 48.4687C28.3334 48.7564 28.5491 48.9721 28.7649 49.1878C29.1963 49.6193 29.6278 50.0508 30.0593 50.4822C30.8503 51.3452 31.5694 52.2081 32.1447 52.9992C32.72 53.7902 33.0796 54.4374 33.2953 54.9408C33.5111 55.4442 33.583 55.7318 33.6549 55.7318C33.8706 56.2352 34.1583 56.5948 34.5897 56.5948C34.9493 56.5948 35.237 55.9476 34.9493 55.3003C34.9493 55.3003 34.8774 55.2284 34.8055 55.0127C34.7336 54.8689 34.6617 54.6531 34.4459 54.3655C34.1583 53.8621 33.6549 53.143 33.0077 52.352C32.3605 51.5609 31.5694 50.7699 30.6346 49.9069C30.2031 49.4755 29.6997 49.044 29.1963 48.6844C28.9806 48.4687 28.7649 48.3249 28.5491 48.1091L28.3334 47.8934C28.3334 47.8215 28.2615 47.8215 28.2615 47.7496C32.4324 44.6574 36.3876 41.7809 36.3876 41.7809Z" fill="#893012"/>
<path d="M69.0357 36.9628C69.0357 36.9628 69.0357 37.0347 69.0357 37.1785C69.0357 37.2504 69.0357 37.3223 69.0357 37.4662C69.0357 37.61 68.9637 37.7538 68.8918 37.8976C68.5323 38.5448 67.4536 38.9763 65.9434 39.1201C64.649 39.8392 60.8377 41.637 57.9612 44.2259C56.523 45.5203 55.3724 46.9585 54.5813 48.0372C54.1499 48.5406 53.8622 49.044 53.6465 49.3316C53.4307 49.6193 53.2869 49.7631 53.2869 49.835C53.1431 50.0508 52.9993 50.2665 52.9993 50.4103C52.9993 50.5541 52.9993 50.698 52.9993 50.9137C52.9993 51.1294 53.215 51.2733 53.5746 51.2013C53.8622 51.1294 54.1499 50.9137 54.3656 50.626C54.3656 50.626 54.4375 50.5541 54.4375 50.4822C54.5094 50.4103 54.5813 50.2665 54.7252 50.1227C54.9409 49.835 55.2285 49.3316 55.5881 48.7563C56.3072 47.6777 57.314 46.1675 58.6084 44.8731C59.8309 43.5068 61.413 42.3562 62.7793 41.3494C63.4984 40.846 64.1456 40.4145 64.649 40.055C64.9367 39.8392 65.1524 39.6954 65.44 39.5516C65.6558 39.4078 65.7996 39.264 65.9434 39.192C67.4536 38.9763 68.5323 38.5448 68.8918 37.8976C68.9637 37.7538 69.0357 37.61 69.0357 37.4662C69.0357 37.3223 69.0357 37.2504 69.0357 37.1785C69.1076 37.0347 69.0357 36.9628 69.0357 36.9628Z" fill="#6F270A"/>
<path d="M36.0999 53.5745C35.165 51.4891 35.5965 51.6329 36.5314 53.6464C37.1786 54.5813 37.8977 55.8038 39.1921 56.7386C40.4146 57.6735 41.9248 58.4645 43.6506 58.8241C45.3765 59.2556 47.2462 59.3994 49.116 59.2556C50.9857 59.1117 52.8554 58.8241 54.5094 58.2488C56.1633 57.6735 57.6735 56.8106 58.5364 55.66C58.9679 55.0847 59.1836 54.4375 59.2556 53.8622C59.3275 53.2869 59.1836 52.6397 59.0398 52.2082C58.6803 51.2733 57.8892 50.7699 57.3139 50.4823C56.7386 50.1946 56.3791 50.1227 56.3791 50.1227C55.3723 49.8351 54.5813 49.5474 54.5813 49.116C54.5813 48.7564 55.588 48.4688 56.8105 48.8283C56.8105 48.8283 57.242 48.9721 57.9611 49.3317C58.3207 49.4755 58.7522 49.7632 59.1836 50.1947C59.6151 50.6261 60.0466 51.1295 60.2623 51.8486C60.4781 52.5677 60.6219 53.2869 60.4781 54.1498C60.3342 55.0128 59.9747 55.8038 59.3994 56.5229C58.2488 57.8892 56.5229 58.7522 54.7251 59.3275C52.9273 59.9028 50.9138 60.1185 48.9721 60.1904C47.0305 60.1904 45.0889 60.0466 43.2911 59.4713C41.4933 58.9679 39.9112 58.0331 38.6887 57.0263C38.0415 56.5229 37.61 55.8757 37.1067 55.3723C36.8909 55.0847 36.7471 54.797 36.5314 54.5094C36.3875 54.1498 36.1718 53.8622 36.0999 53.5745Z" fill="#6F270A"/>
<path d="M59.9028 31.4256C59.6871 31.3536 59.4713 31.2817 59.1837 31.3536C58.896 31.3536 58.6084 31.5694 58.3927 31.857C58.0331 32.4323 58.1769 33.0076 58.3207 33.3672C58.3927 33.0076 58.4646 32.4323 58.7522 32.0728C58.968 31.6413 59.4713 31.4975 59.9028 31.4256Z" fill="#D69932"/>
<path d="M44.0104 32.72C44.0824 33.0077 43.8666 33.2234 43.579 33.2953C43.2913 33.3673 43.0756 33.1515 43.0037 32.8639C42.9318 32.5762 43.1475 32.3605 43.4352 32.2886C43.7228 32.2886 43.9385 32.4324 44.0104 32.72Z" fill="#732F0C"/>
<path d="M41.7092 33.9426C41.7092 34.0864 41.6373 34.3021 41.4216 34.3021C41.2777 34.3021 41.062 34.2302 41.062 34.0145C41.062 33.8706 41.1339 33.6549 41.3497 33.6549C41.4935 33.6549 41.6373 33.7987 41.7092 33.9426Z" fill="#732F0C"/>
<path d="M35.3808 37.7538C35.3808 37.8976 35.3089 38.0415 35.1651 38.0415C35.0213 38.0415 34.8774 37.9696 34.8774 37.8257C34.8774 37.6819 34.9494 37.5381 35.0932 37.5381C35.237 37.5381 35.3808 37.61 35.3808 37.7538Z" fill="#732F0C"/>
<path d="M38.1855 33.4391C38.2574 33.5829 38.1855 33.7268 38.0417 33.7268C37.8979 33.7987 37.754 33.7268 37.754 33.5829C37.6821 33.4391 37.754 33.2953 37.8979 33.2953C37.9698 33.2953 38.1136 33.2953 38.1855 33.4391Z" fill="#732F0C"/>
<path d="M36.0282 34.3022C36.1001 34.446 36.0282 34.5898 35.8844 34.6617C35.7405 34.7336 35.5967 34.6617 35.5248 34.5179C35.4529 34.3741 35.5248 34.2303 35.6686 34.1583C35.8124 34.0864 36.0282 34.1583 36.0282 34.3022Z" fill="#732F0C"/>
<path d="M34.9494 34.8055C35.0213 35.0212 34.9494 35.3089 34.6618 35.3808C34.446 35.4527 34.1584 35.3808 34.0865 35.0931C34.0146 34.8774 34.0865 34.5898 34.3741 34.5179C34.5899 34.4459 34.8775 34.5898 34.9494 34.8055Z" fill="#732F0C"/>
<path d="M31.7854 36.8909C31.8573 37.1067 31.7854 37.3224 31.5697 37.3943C31.3539 37.4662 31.1382 37.3943 31.0663 37.1786C30.9944 36.9629 31.0663 36.7471 31.282 36.6752C31.4258 36.5314 31.6416 36.6752 31.7854 36.8909Z" fill="#732F0C"/>
<path d="M29.1245 39.6235C29.1964 39.7674 29.1964 39.9112 29.0525 40.055C28.9087 40.1269 28.7649 40.1269 28.693 39.9831C28.6211 39.8393 28.6211 39.6955 28.7649 39.5516C28.8368 39.4797 28.9806 39.4797 29.1245 39.6235Z" fill="#732F0C"/>
<path d="M27.902 40.4865C28.0458 40.6303 28.0458 40.918 27.8301 41.0618C27.6862 41.2056 27.3986 41.2056 27.2548 40.9899C27.111 40.846 27.111 40.5584 27.3267 40.4146C27.4705 40.2708 27.7582 40.3427 27.902 40.4865Z" fill="#732F0C"/>
<path d="M25.8166 41.0618C25.9605 41.2056 25.8886 41.4214 25.7447 41.4933C25.6009 41.6371 25.3852 41.5652 25.3133 41.4214C25.1694 41.2775 25.2413 41.0618 25.3852 40.9899C25.4571 40.8461 25.6728 40.918 25.8166 41.0618Z" fill="#732F0C"/>
<path d="M25.4571 42.2843C25.6728 42.2843 25.7448 42.5 25.7448 42.7158C25.7448 42.9315 25.529 43.0034 25.3133 43.0034C25.0975 43.0034 25.0256 42.7877 25.0256 42.572C25.0975 42.4281 25.2414 42.2843 25.4571 42.2843Z" fill="#732F0C"/>
<path d="M25.0976 42.8596C25.1695 42.8596 25.2414 42.9315 25.2414 43.0754C25.2414 43.1473 25.1695 43.2192 25.0257 43.2192C24.9537 43.2192 24.8818 43.0754 24.8818 43.0035C24.9537 42.8596 25.0257 42.7877 25.0976 42.8596Z" fill="#732F0C"/>
<path d="M23.9469 44.0822C24.2345 44.1541 24.3784 44.3698 24.3065 44.6574C24.2345 44.9451 24.0188 45.0889 23.7312 45.017C23.4435 44.9451 23.2997 44.7294 23.3716 44.4417C23.4435 44.226 23.6592 44.0822 23.9469 44.0822Z" fill="#732F0C"/>
<path d="M24.2345 48.325C24.3064 48.325 24.3784 48.4688 24.3784 48.5407C24.3784 48.6126 24.2345 48.6845 24.1626 48.6845C24.0907 48.6845 24.0188 48.5407 24.0188 48.4688C24.0188 48.3969 24.0907 48.325 24.2345 48.325Z" fill="#732F0C"/>
<path d="M57.5296 36.747C57.4577 36.8908 57.3139 36.8908 57.242 36.8908C57.0981 36.8189 57.0981 36.6751 57.0981 36.6032C57.1701 36.4594 57.3139 36.3875 57.3858 36.4594C57.4577 36.4594 57.5296 36.6032 57.5296 36.747Z" fill="#732F0C"/>
<path d="M54.0061 36.3875C53.9341 36.6032 53.6465 36.747 53.3588 36.6751C53.1431 36.6032 52.9993 36.3156 53.0712 36.0279C53.1431 35.8122 53.4308 35.6684 53.7184 35.7403C53.9341 35.8122 54.078 36.0998 54.0061 36.3875Z" fill="#732F0C"/>
<path d="M53.4307 36.1718C53.4307 36.2437 53.2869 36.3156 53.215 36.2437C53.1431 36.2437 53.0712 36.0999 53.1431 36.028C53.1431 35.9561 53.2869 35.8841 53.3588 35.9561C53.4307 35.9561 53.4307 36.028 53.4307 36.1718Z" fill="#732F0C"/>
<path d="M49.6194 34.5178C49.6194 34.6616 49.5474 34.8055 49.4036 34.8055C49.2598 34.8055 49.116 34.7336 49.116 34.5897C49.116 34.4459 49.1879 34.3021 49.3317 34.3021C49.4755 34.2302 49.6194 34.374 49.6194 34.5178Z" fill="#732F0C"/>
<path d="M49.4035 34.6616C49.4035 34.9492 49.2597 35.165 48.972 35.2369C48.6844 35.2369 48.4686 35.0931 48.3967 34.8054C48.3967 34.5178 48.5406 34.302 48.8282 34.2301C49.1158 34.2301 49.3316 34.4458 49.4035 34.6616Z" fill="#732F0C"/>
<path d="M47.6778 35.3808C47.6778 35.5246 47.6059 35.5965 47.4621 35.5965C47.3183 35.5965 47.2463 35.5246 47.2463 35.3808C47.2463 35.237 47.3183 35.165 47.4621 35.165C47.6059 35.165 47.6778 35.237 47.6778 35.3808Z" fill="#732F0C"/>
<path d="M46.2394 34.302C46.2394 34.374 46.1675 34.5178 46.0956 34.5178C46.0237 34.5178 45.8799 34.4459 45.8799 34.374C45.8799 34.302 45.9518 34.1582 46.0237 34.1582C46.0956 34.0863 46.2394 34.1582 46.2394 34.302Z" fill="#732F0C"/>
<path d="M45.8799 35.956C45.8799 36.2437 45.7361 36.4594 45.4485 36.4594C45.1608 36.4594 44.9451 36.3156 44.9451 36.0279C44.9451 35.7403 45.0889 35.5246 45.3765 35.5246C45.6642 35.4526 45.8799 35.6684 45.8799 35.956Z" fill="#732F0C"/>
<path d="M42.3561 36.028C42.4281 36.0999 42.3561 36.2437 42.2842 36.3156C42.2123 36.3875 42.0685 36.3156 41.9966 36.2437C41.9247 36.1718 41.9966 36.028 42.0685 35.9561C42.1404 35.9561 42.2842 35.9561 42.3561 36.028Z" fill="#732F0C"/>
<path d="M38.6887 37.4662C38.7606 37.5381 38.6887 37.6819 38.6168 37.7539C38.5448 37.8258 38.401 37.7539 38.3291 37.6819C38.2572 37.61 38.3291 37.4662 38.401 37.3943C38.4729 37.3224 38.6167 37.3943 38.6887 37.4662Z" fill="#732F0C"/>
<path d="M38.8327 37.8976C38.9765 38.1133 38.9046 38.401 38.6888 38.5448C38.4731 38.6886 38.1854 38.6167 38.0416 38.401C37.8978 38.1853 37.9697 37.8976 38.1854 37.7538C38.4012 37.61 38.6888 37.6819 38.8327 37.8976Z" fill="#732F0C"/>
<path d="M35.8842 39.9831C36.028 40.1988 35.9561 40.4864 35.7403 40.6303C35.5246 40.7741 35.237 40.7022 35.0931 40.4864C34.9493 40.2707 35.0212 39.9831 35.237 39.8392C35.4527 39.6954 35.8123 39.7673 35.8842 39.9831Z" fill="#732F0C"/>
<path d="M33.0076 42.2843C33.2952 42.3562 33.4391 42.6439 33.2952 42.9315C33.2233 43.2192 32.9357 43.363 32.648 43.2192C32.3604 43.1473 32.2166 42.8596 32.3604 42.572C32.4323 42.3562 32.7199 42.2124 33.0076 42.2843Z" fill="#732F0C"/>
<path d="M32.1449 44.8732C32.2887 44.9451 32.3606 45.0889 32.2887 45.2327C32.2168 45.3766 32.0729 45.4485 31.9291 45.3766C31.7853 45.3046 31.7134 45.1608 31.7853 45.017C31.8572 44.9451 32.001 44.8732 32.1449 44.8732Z" fill="#732F0C"/>
<path d="M31.7851 46.2394C31.857 46.3113 31.9289 46.3832 31.9289 46.4551C31.857 46.527 31.7851 46.599 31.7132 46.599C31.6412 46.527 31.5693 46.4551 31.5693 46.3832C31.5693 46.2394 31.6412 46.1675 31.7851 46.2394Z" fill="#732F0C"/>
<path d="M30.5625 48.9721C30.7782 49.044 30.9221 49.3316 30.8502 49.5474C30.7782 49.7631 30.4906 49.9069 30.2749 49.835C30.0591 49.7631 29.9153 49.4755 29.9872 49.2597C30.0591 49.044 30.3468 48.9002 30.5625 48.9721Z" fill="#732F0C"/>
<path d="M29.9874 50.2665C30.275 50.3385 30.3469 50.6261 30.275 50.9138C30.2031 51.2014 29.9154 51.2733 29.6278 51.2014C29.3401 51.1295 29.2682 50.8418 29.3401 50.5542C29.484 50.2665 29.7716 50.1946 29.9874 50.2665Z" fill="#732F0C"/>
<path d="M54.7969 42.5001C54.8688 42.7158 54.725 42.8596 54.5093 42.9315C54.2935 43.0035 54.1497 42.8596 54.0778 42.6439C54.0059 42.4282 54.1497 42.2843 54.3654 42.2124C54.5093 42.1405 54.725 42.2843 54.7969 42.5001Z" fill="#732F0C"/>
<path d="M54.725 43.4349C54.7969 43.7225 54.5811 44.0102 54.3654 44.0821C54.0778 44.154 53.7901 43.9383 53.7182 43.7225C53.6463 43.4349 53.862 43.1472 54.0778 43.0753C54.3654 42.9315 54.6531 43.1472 54.725 43.4349Z" fill="#732F0C"/>
<path d="M52.0643 43.0753C52.1362 43.2191 51.9924 43.363 51.8486 43.4349C51.7047 43.5068 51.5609 43.363 51.489 43.2191C51.489 43.0753 51.5609 42.8596 51.7048 42.8596C51.8486 42.7877 51.9924 42.9315 52.0643 43.0753Z" fill="#732F0C"/>
<path d="M51.2733 43.6506C51.2733 43.7945 51.2014 43.9383 51.0576 44.0102C50.9137 44.0821 50.7699 43.9383 50.698 43.7945C50.698 43.6506 50.7699 43.4349 50.9137 43.4349C51.1295 43.363 51.2733 43.5068 51.2733 43.6506Z" fill="#732F0C"/>
<path d="M50.6259 44.9451C50.6978 45.017 50.6259 45.1608 50.554 45.2327C50.4821 45.3046 50.3383 45.2327 50.2664 45.1608C50.1944 45.0889 50.2664 44.9451 50.3383 44.8732C50.4821 44.8013 50.6259 44.8732 50.6259 44.9451Z" fill="#732F0C"/>
<path d="M47.8932 45.8081C48.0371 46.0238 47.8933 46.3834 47.6775 46.4553C47.4618 46.5991 47.1022 46.4553 47.0303 46.2395C46.8865 46.0238 47.0303 45.6642 47.246 45.5923C47.4618 45.4485 47.7494 45.5923 47.8932 45.8081Z" fill="#732F0C"/>
<path d="M46.599 45.3766C46.6709 45.5924 46.599 45.8081 46.4552 45.88C46.2394 45.9519 46.0237 45.88 45.9518 45.7362C45.8799 45.5204 45.9518 45.3047 46.0956 45.2328C46.3114 45.1609 46.5271 45.2328 46.599 45.3766Z" fill="#732F0C"/>
<path d="M45.0169 47.8216C45.2326 47.8935 45.3764 48.1811 45.3045 48.3969C45.2326 48.6126 44.9449 48.7564 44.7292 48.6845C44.5135 48.6126 44.3696 48.3249 44.4416 48.1092C44.5135 47.8935 44.8011 47.7497 45.0169 47.8216Z" fill="#732F0C"/>
<path d="M43.7225 49.1161C43.9382 49.188 44.0101 49.4037 43.9382 49.6194C43.8663 49.8352 43.6506 49.9071 43.4348 49.8352C43.2191 49.7633 43.1472 49.5475 43.2191 49.3318C43.291 49.188 43.5068 49.0441 43.7225 49.1161Z" fill="#732F0C"/>
<path d="M44.7293 50.4823C44.945 50.5542 45.0888 50.8419 45.0169 51.0576C44.945 51.2734 44.6573 51.4172 44.4416 51.3453C44.2259 51.2734 44.082 50.9857 44.154 50.77C44.2259 50.4823 44.5135 50.3385 44.7293 50.4823Z" fill="#732F0C"/>
<path d="M45.5922 53.6464C45.7361 53.5026 45.9518 53.5026 46.0956 53.6464C46.2394 53.7903 46.2394 54.006 46.0956 54.1498C45.9518 54.2937 45.7361 54.2937 45.5922 54.1498C45.4484 54.006 45.4484 53.7903 45.5922 53.6464Z" fill="#732F0C"/>
<path d="M47.8214 56.4511C47.8214 56.3792 47.9653 56.3073 48.0372 56.3073C48.1091 56.3073 48.181 56.4511 48.181 56.523C48.181 56.5949 48.0372 56.6668 47.9652 56.6668C47.8214 56.6668 47.7495 56.523 47.8214 56.4511Z" fill="#732F0C"/>
<path d="M51.3451 57.9612C51.417 57.7455 51.5608 57.6736 51.7765 57.7455C51.9923 57.8174 52.0642 57.9612 51.9923 58.1769C51.9204 58.3927 51.7765 58.4646 51.5608 58.3927C51.3451 58.3927 51.2732 58.1769 51.3451 57.9612Z" fill="#732F0C"/>
<path d="M52.1361 57.1701C52.2081 56.9544 52.4238 56.8106 52.7114 56.8825C52.9272 56.9544 53.071 57.1701 52.9991 57.4578C52.9272 57.6735 52.7114 57.8173 52.4238 57.8173C52.2081 57.6735 52.0642 57.4578 52.1361 57.1701Z" fill="#732F0C"/>
<path d="M43.4348 51.9204C43.291 51.9924 43.0753 51.9924 42.9314 51.7766C42.8595 51.6328 42.8595 51.4171 43.0753 51.2732C43.2191 51.2013 43.4348 51.2013 43.5786 51.4171C43.6506 51.6328 43.5786 51.8485 43.4348 51.9204Z" fill="#732F0C"/>
<path d="M43.363 49.4036C43.1472 49.4036 43.0034 49.2597 43.0034 49.044C43.0034 48.8283 43.1472 48.6844 43.363 48.6844C43.5787 48.6844 43.7225 48.8283 43.7225 49.044C43.7225 49.1878 43.5787 49.3317 43.363 49.4036Z" fill="#732F0C"/>
<path d="M42.5719 48.1811C42.4281 48.1811 42.3562 48.1092 42.3562 47.9654C42.3562 47.8215 42.4281 47.7496 42.5719 47.7496C42.7158 47.7496 42.7877 47.8215 42.7877 47.9654C42.7877 48.1092 42.7158 48.1811 42.5719 48.1811Z" fill="#732F0C"/>
<path d="M43.3629 48.6844C43.291 48.5406 43.3629 48.4687 43.5068 48.3967C43.6506 48.3248 43.7225 48.3967 43.7944 48.5406C43.8663 48.6844 43.7944 48.7563 43.6506 48.8282C43.5068 48.9001 43.3629 48.8282 43.3629 48.6844Z" fill="#732F0C"/>
<path d="M43.0753 47.7496C43.0034 47.6058 43.0753 47.39 43.2192 47.3181C43.363 47.2462 43.5787 47.3181 43.6506 47.4619C43.7225 47.6058 43.6506 47.8215 43.5068 47.8934C43.363 47.9653 43.1472 47.8934 43.0753 47.7496Z" fill="#732F0C"/>
<path d="M44.873 46.9586C44.8011 46.8866 44.873 46.7428 44.945 46.6709C45.0169 46.599 45.1607 46.6709 45.2326 46.7428C45.3045 46.8147 45.2326 46.9586 45.1607 47.0305C45.0888 47.1024 44.945 47.1024 44.873 46.9586Z" fill="#732F0C"/>
<path d="M45.0169 56.8105C44.945 56.9543 44.8012 56.9543 44.7293 56.9543C44.5854 56.8824 44.5854 56.7386 44.5854 56.6667C44.6574 56.5228 44.8012 56.5228 44.8731 56.5228C45.0169 56.5228 45.0888 56.6667 45.0169 56.8105Z" fill="#732F0C"/>
<path d="M44.0101 54.9408C43.8663 55.2285 43.5786 55.3004 43.3629 55.2285C43.0753 55.0846 43.0033 54.797 43.0753 54.5813C43.2191 54.2936 43.5067 54.1498 43.7225 54.2936C44.0101 54.3655 44.1539 54.6532 44.0101 54.9408Z" fill="#732F0C"/>
<path d="M42.0685 53.7183C41.9247 53.934 41.637 53.934 41.4932 53.7902C41.2775 53.6463 41.2775 53.3587 41.4213 53.2149C41.5651 52.9991 41.8528 52.9991 41.9966 53.143C42.2123 53.2149 42.2123 53.5025 42.0685 53.7183Z" fill="#732F0C"/>
<path d="M39.1202 52.0643C38.9764 52.2081 38.7607 52.2801 38.6169 52.1362C38.473 51.9924 38.4011 51.7767 38.5449 51.6329C38.6888 51.489 38.9045 51.4171 39.0483 51.5609C39.1922 51.7048 39.2641 51.9205 39.1202 52.0643Z" fill="#732F0C"/>
<path d="M38.6169 52.0643C38.473 52.0643 38.4011 51.9205 38.4011 51.8485C38.4011 51.7047 38.5449 51.6328 38.6169 51.6328C38.7607 51.6328 38.8326 51.7766 38.8326 51.8485C38.8326 51.9205 38.6888 52.0643 38.6169 52.0643Z" fill="#732F0C"/>
<path d="M37.8977 48.1092C37.8258 48.1092 37.7539 48.0373 37.7539 47.9654C37.7539 47.8934 37.8258 47.8215 37.8977 47.8215C37.9696 47.8215 38.0416 47.8934 38.0416 47.9654C38.1135 48.0373 38.0416 48.1092 37.8977 48.1092Z" fill="#732F0C"/>
<path d="M41.0619 47.8934C40.99 47.6777 41.0619 47.4619 41.2057 47.39C41.4215 47.3181 41.6372 47.39 41.7091 47.5339C41.781 47.7496 41.7091 47.9653 41.5653 48.0372C41.3496 48.1811 41.1338 48.1091 41.0619 47.8934Z" fill="#732F0C"/>
<path d="M40.4147 46.4552C40.2709 46.2395 40.3428 45.8799 40.6304 45.808C40.8462 45.6642 41.2057 45.7361 41.2776 46.0237C41.4214 46.2395 41.3495 46.599 41.0619 46.6709C40.8462 46.8148 40.5585 46.7429 40.4147 46.4552Z" fill="#732F0C"/>
<path d="M43.0034 45.4484C42.9315 45.3765 43.0034 45.2327 43.0753 45.2327C43.1472 45.1608 43.2911 45.2327 43.2911 45.3046C43.363 45.3765 43.2911 45.5203 43.2192 45.5203C43.1472 45.5922 43.0034 45.5922 43.0034 45.4484Z" fill="#732F0C"/>
<path d="M66.5185 47.2463C66.4466 47.3901 66.3028 47.3901 66.1589 47.3182C66.0151 47.2463 66.0151 47.1025 66.087 46.9586C66.1589 46.8148 66.3028 46.8148 66.4466 46.8867C66.5904 46.9586 66.5904 47.1025 66.5185 47.2463Z" fill="#732F0C"/>
<path d="M64.1454 46.0956C64.0016 46.3113 63.7139 46.3113 63.5701 46.1675C63.3544 46.0237 63.3544 45.736 63.4982 45.5922C63.642 45.3765 63.9297 45.3765 64.0735 45.5203C64.2892 45.6641 64.2892 45.9518 64.1454 46.0956Z" fill="#732F0C"/>
<path d="M64.0016 45.8799C63.8578 46.0956 63.5701 46.0956 63.4263 45.9518C63.2106 45.808 63.2106 45.5203 63.3544 45.3765C63.4982 45.1608 63.7859 45.1608 63.9297 45.3046C64.1454 45.4484 64.1454 45.6641 64.0016 45.8799Z" fill="#732F0C"/>
<path d="M60.7657 44.082C60.7657 44.2259 60.6218 44.3697 60.478 44.2978C60.3342 44.2978 60.1904 44.154 60.2623 44.0101C60.2623 43.8663 60.4061 43.7225 60.5499 43.7944C60.6938 43.7944 60.7657 43.9382 60.7657 44.082Z" fill="#732F0C"/>
<path d="M56.3789 45.7361C56.5947 45.8799 56.5947 46.2395 56.4508 46.4552C56.307 46.6709 55.9475 46.6709 55.7317 46.5271C55.516 46.3833 55.516 46.0237 55.6598 45.808C55.8755 45.5923 56.1632 45.5204 56.3789 45.7361Z" fill="#732F0C"/>
<path d="M55.1565 49.1879C55.3723 49.1159 55.588 49.1879 55.7318 49.4036C55.8037 49.6193 55.7318 49.8351 55.5161 49.9789C55.3003 50.0508 55.0846 49.9789 54.9408 49.7631C54.8689 49.5474 54.9408 49.3317 55.1565 49.1879Z" fill="#732F0C"/>
<path d="M57.8172 52.1363C57.8891 51.8487 58.1048 51.7048 58.3924 51.7767C58.6801 51.8487 58.8239 52.0644 58.752 52.3521C58.6801 52.6397 58.4644 52.7835 58.1767 52.7116C57.8891 52.6397 57.7452 52.424 57.8172 52.1363Z" fill="#732F0C"/>
<path d="M59.9027 52.2801C59.9747 52.0644 60.1904 51.9205 60.4061 51.9925C60.6219 52.0644 60.7657 52.2801 60.6938 52.4958C60.6219 52.7116 60.4061 52.8554 60.1904 52.7835C59.9746 52.7116 59.8308 52.4958 59.9027 52.2801Z" fill="#732F0C"/>
<path d="M61.269 51.8486C61.1252 51.7047 61.1252 51.4171 61.269 51.2733C61.4128 51.1294 61.7005 51.1294 61.8443 51.2733C61.9881 51.4171 61.9881 51.7047 61.8443 51.8486C61.7005 51.9924 61.4128 51.9924 61.269 51.8486Z" fill="#732F0C"/>
<path d="M63.7138 48.6844C63.57 48.7564 63.3543 48.6844 63.2824 48.5406C63.2105 48.3968 63.2824 48.1811 63.4262 48.1091C63.57 48.0372 63.7857 48.1091 63.8577 48.253C63.9296 48.3968 63.8577 48.6125 63.7138 48.6844Z" fill="#732F0C"/>
<path d="M62.5634 48.1091C62.4196 48.181 62.2039 48.1091 62.132 47.9653C62.0601 47.8215 62.132 47.6057 62.2758 47.5338C62.4196 47.4619 62.6354 47.5338 62.7073 47.6777C62.7792 47.8215 62.7073 48.0372 62.5634 48.1091Z" fill="#732F0C"/>
<path d="M61.8442 44.5855C61.7722 44.6574 61.6284 44.6574 61.5565 44.5136C61.4846 44.4417 61.4846 44.2979 61.6284 44.2259C61.7003 44.154 61.8442 44.154 61.9161 44.2979C61.988 44.3698 61.9161 44.5136 61.8442 44.5855Z" fill="#732F0C"/>
<path d="M58.2486 42.1404C58.1767 42.2123 58.0328 42.2123 57.9609 42.1404C57.889 42.0685 57.889 41.9247 57.9609 41.8528C58.0328 41.7809 58.1767 41.7809 58.2486 41.8528C58.3924 41.9247 58.3924 42.0685 58.2486 42.1404Z" fill="#732F0C"/>
<path d="M56.0194 40.7022C55.9475 40.918 55.6599 40.9899 55.4441 40.918C55.2284 40.8461 55.1565 40.5584 55.2284 40.3427C55.3003 40.1269 55.5879 40.055 55.8037 40.1269C56.0194 40.2708 56.0913 40.4865 56.0194 40.7022Z" fill="#732F0C"/>
<path d="M53.2867 39.1202C53.2148 39.264 53.0709 39.264 52.999 39.1921C52.8552 39.1202 52.8552 38.9763 52.9271 38.9044C52.999 38.7606 53.1429 38.7606 53.2148 38.8325C53.2867 38.9044 53.3586 39.0482 53.2867 39.1202Z" fill="#732F0C"/>
<path d="M52.3519 38.401C52.28 38.5449 52.1361 38.5449 52.0642 38.473C51.9204 38.401 51.9204 38.2572 51.9923 38.1853C52.0642 38.0415 52.208 38.0415 52.2799 38.1134C52.3519 38.1134 52.4238 38.2572 52.3519 38.401Z" fill="#732F0C"/>
<path d="M49.116 39.9112C49.116 40.127 48.9003 40.3427 48.6126 40.3427C48.3969 40.3427 48.1812 40.127 48.1812 39.8393C48.1812 39.6236 48.3969 39.4078 48.6845 39.4078C48.9722 39.4797 49.116 39.6955 49.116 39.9112Z" fill="#732F0C"/>
<path d="M47.8933 38.6168C47.8933 38.9044 47.6776 39.0483 47.39 39.0483C47.1023 39.0483 46.9585 38.8325 46.9585 38.5449C46.9585 38.2572 47.1742 38.1134 47.4619 38.1134C47.7495 38.1134 47.9653 38.3291 47.8933 38.6168Z" fill="#732F0C"/>
<path d="M46.4553 39.1202C46.4553 39.1921 46.3834 39.264 46.2395 39.264C46.1676 39.264 46.0957 39.1921 46.0957 39.0482C46.0957 38.9763 46.1676 38.9044 46.3114 38.9044C46.3834 38.9763 46.4553 39.0482 46.4553 39.1202Z" fill="#732F0C"/>
<path d="M44.226 39.6955C44.226 39.7674 44.226 39.9112 44.0822 39.9112C44.0103 39.9112 43.8665 39.9112 43.8665 39.7674C43.8665 39.6955 43.8665 39.5516 44.0103 39.5516C44.0822 39.5516 44.226 39.5516 44.226 39.6955Z" fill="#732F0C"/>
<path d="M43.7945 39.9831C43.8664 40.2708 43.7226 40.4865 43.4349 40.5584C43.1473 40.6303 42.9315 40.4865 42.8596 40.1988C42.7877 39.9112 42.9315 39.6955 43.2192 39.6236C43.4349 39.5516 43.7226 39.6955 43.7945 39.9831Z" fill="#732F0C"/>
<path d="M40.5584 40.4146C40.5584 40.5584 40.4865 40.6303 40.4146 40.7022C40.2708 40.7022 40.1989 40.6303 40.127 40.5584C40.127 40.4146 40.1989 40.3427 40.2708 40.2708C40.4146 40.2708 40.5584 40.3427 40.5584 40.4146Z" fill="#732F0C"/>
<path d="M37.61 42.6439C37.8258 42.8596 37.8258 43.1472 37.61 43.363C37.3943 43.5787 37.1067 43.5787 36.9628 43.363C36.7471 43.1472 36.7471 42.8596 36.9628 42.6439C37.1067 42.4281 37.3943 42.4281 37.61 42.6439Z" fill="#732F0C"/>
<path d="M36.3157 43.1473C36.5315 43.363 36.5315 43.6507 36.3157 43.8664C36.1 44.0821 35.8124 44.0821 35.5966 43.8664C35.3809 43.6507 35.3809 43.363 35.5966 43.1473C35.8124 42.9315 36.1 42.9315 36.3157 43.1473Z" fill="#732F0C"/>
<path d="M33.0795 45.5923C33.3671 45.6642 33.5828 45.8799 33.5109 46.1676C33.439 46.4552 33.2233 46.671 32.9356 46.5991C32.648 46.5271 32.4323 46.3114 32.5042 46.0238C32.5761 45.7361 32.7918 45.5923 33.0795 45.5923Z" fill="#732F0C"/>
<path d="M32.4323 49.3317C32.5042 49.3317 32.5761 49.4036 32.5761 49.5474C32.5761 49.6193 32.5042 49.6912 32.3604 49.6912C32.2885 49.6912 32.2166 49.6193 32.2166 49.4755C32.2166 49.4036 32.2885 49.3317 32.4323 49.3317Z" fill="#732F0C"/>
<path d="M32.3605 52.1362C32.6481 52.1362 32.7919 52.4239 32.72 52.6396C32.72 52.9273 32.4324 53.0711 32.2166 52.9992C31.929 52.9992 31.7852 52.7115 31.7852 52.4958C31.8571 52.2801 32.0728 52.1362 32.3605 52.1362Z" fill="#732F0C"/>
<path d="M47.8216 33.7987C47.8216 34.0863 47.6778 34.302 47.3901 34.302C47.1025 34.302 46.8867 34.1582 46.8867 33.8706C46.8867 33.5829 47.0305 33.3672 47.3182 33.3672C47.5339 33.3672 47.8216 33.511 47.8216 33.7987Z" fill="#8E3A14"/>
<path d="M45.6643 33.4391C45.6643 33.6548 45.5205 33.8706 45.3048 33.8706C45.089 33.8706 44.8733 33.7267 44.8733 33.511C44.8733 33.2953 45.0171 33.0795 45.2329 33.0795C45.4486 33.0076 45.6643 33.2234 45.6643 33.4391Z" fill="#8E3A14"/>
<path d="M41.8529 34.5897C41.9248 34.7336 41.8529 34.8774 41.7809 34.9493C41.6371 35.0212 41.4933 34.9493 41.4214 34.8774C41.3495 34.7336 41.4214 34.5897 41.4933 34.5178C41.6371 34.4459 41.7809 34.5178 41.8529 34.5897Z" fill="#8E3A14"/>
<path d="M39.4798 35.5965C39.5517 35.8122 39.5517 36.0279 39.3359 36.0998C39.1202 36.1718 38.9045 36.1718 38.8326 35.956C38.7606 35.7403 38.7606 35.5245 38.9764 35.4526C39.1202 35.3088 39.3359 35.3807 39.4798 35.5965Z" fill="#8E3A14"/>
<path d="M39.6956 36.7471C39.8394 36.9628 39.7675 37.1786 39.5517 37.3224C39.336 37.4662 39.1203 37.3943 38.9764 37.1786C38.8326 36.9628 38.9045 36.7471 39.1203 36.6033C39.336 36.4594 39.6236 36.5314 39.6956 36.7471Z" fill="#8E3A14"/>
<path d="M42.2124 34.9493C42.2843 35.0931 42.2124 35.3088 42.0686 35.3807C41.9247 35.4526 41.709 35.3807 41.6371 35.2369C41.5652 35.0931 41.6371 34.8773 41.7809 34.8054C41.9247 34.7335 42.1405 34.8054 42.2124 34.9493Z" fill="#FBBA00"/>
<path d="M38.4009 35.8121C38.4728 35.8841 38.4009 36.0279 38.329 36.0279C38.2571 36.0998 38.1133 36.0279 38.1133 35.956C38.0414 35.8841 38.1133 35.7402 38.1852 35.7402C38.2571 35.6683 38.4009 35.7402 38.4009 35.8121Z" fill="#FBBA00"/>
<path d="M38.9763 36.9628C39.0482 37.1785 38.9763 37.3943 38.7606 37.4662C38.5449 37.5381 38.3291 37.4662 38.2572 37.2504C38.1853 37.0347 38.2572 36.819 38.401 36.7471C38.6168 36.6751 38.8325 36.7471 38.9763 36.9628Z" fill="#FBBA00"/>
<path d="M35.1648 38.1854C35.3086 38.3292 35.2367 38.6168 35.0929 38.7607C34.9491 38.8326 34.6614 38.8326 34.5176 38.6168C34.3738 38.473 34.4457 38.1854 34.5895 38.0415C34.8053 37.9696 35.021 37.9696 35.1648 38.1854Z" fill="#FBBA00"/>
<path d="M33.5829 39.7673C33.6548 39.8392 33.6548 39.983 33.5829 39.983C33.511 40.055 33.3672 40.055 33.3672 39.983C33.2953 39.9111 33.2953 39.7673 33.3672 39.7673C33.3672 39.6954 33.511 39.6954 33.5829 39.7673Z" fill="#FBBA00"/>
<path d="M33.1514 39.7673C33.2952 39.9112 33.2233 40.1269 33.0794 40.1988C32.9356 40.3426 32.7199 40.2707 32.648 40.1269C32.5042 39.9831 32.5761 39.7673 32.7199 39.6954C32.8637 39.6235 33.0794 39.6235 33.1514 39.7673Z" fill="#FBBA00"/>
<path d="M30.7064 41.7809C30.7783 41.9247 30.7783 42.0686 30.6345 42.2124C30.4906 42.2843 30.3468 42.2843 30.203 42.1405C30.1311 41.9967 30.1311 41.7809 30.2749 41.709C30.4187 41.5652 30.6345 41.6371 30.7064 41.7809Z" fill="#FBBA00"/>
<path d="M56.5949 42.4281C56.6668 42.572 56.6668 42.7158 56.523 42.7877C56.3792 42.8596 56.2354 42.8596 56.1634 42.7158C56.0915 42.572 56.0915 42.4281 56.2354 42.3562C56.3073 42.2124 56.523 42.2843 56.5949 42.4281Z" fill="#FBBA00"/>
<path d="M52.9991 43.5068C53.071 43.6507 53.071 43.8664 52.9272 43.9383C52.7834 44.0102 52.5676 44.0102 52.4957 43.8664C52.4238 43.7226 52.4238 43.5068 52.5676 43.4349C52.7115 43.363 52.9272 43.363 52.9991 43.5068Z" fill="#FBBA00"/>
<path d="M49.835 46.3114C49.9069 46.3833 49.9069 46.5271 49.835 46.599C49.7631 46.6709 49.6193 46.6709 49.5473 46.599C49.4754 46.5271 49.4754 46.3833 49.5473 46.3114C49.5473 46.2395 49.6912 46.2395 49.835 46.3114Z" fill="#FBBA00"/>
<path d="M48.7564 46.6709C48.9002 46.8147 48.9002 46.9585 48.7564 47.1023C48.6126 47.2462 48.4687 47.2462 48.3249 47.1023C48.1811 46.9585 48.1811 46.8147 48.3249 46.6709C48.3968 46.599 48.6126 46.599 48.7564 46.6709Z" fill="#FBBA00"/>
<path d="M46.8867 50.1947C47.0305 50.3385 47.0305 50.5542 46.8867 50.698C46.7429 50.8419 46.5271 50.8419 46.3833 50.698C46.2395 50.5542 46.2395 50.3385 46.3114 50.1947C46.4552 50.0508 46.7429 50.0508 46.8867 50.1947Z" fill="#FBBA00"/>
<path d="M32.0011 55.0127C31.7854 55.1565 31.5696 55.0846 31.4258 54.9408C31.282 54.7251 31.3539 54.5093 31.4977 54.3655C31.7135 54.2217 31.9292 54.2936 32.073 54.4374C32.2168 54.6532 32.1449 54.9408 32.0011 55.0127Z" fill="#FBBA00"/>
<path d="M30.0595 53.2868C29.9876 53.3587 29.8438 53.3587 29.7718 53.2149C29.6999 53.143 29.6999 52.9992 29.8438 52.9272C29.9157 52.8553 30.0595 52.8553 30.1314 52.9992C30.2033 53.0711 30.2033 53.2149 30.0595 53.2868Z" fill="#FBBA00"/>
<path d="M29.8437 51.2733C29.7718 51.3452 29.6279 51.3452 29.556 51.2013C29.4841 51.1294 29.4841 50.9856 29.6279 50.9137C29.6998 50.8418 29.8437 50.8418 29.9156 50.9856C29.9156 51.0575 29.9156 51.2013 29.8437 51.2733Z" fill="#FBBA00"/>
<path d="M28.1179 50.2664C27.974 50.3384 27.7583 50.3384 27.6864 50.1945C27.6145 50.0507 27.6145 49.835 27.7583 49.7631C27.9021 49.6911 28.1179 49.6911 28.1898 49.835C28.2617 49.9788 28.2617 50.1945 28.1179 50.2664Z" fill="#FBBA00"/>
<path d="M28.6213 49.4754C28.5493 49.5473 28.4055 49.5473 28.3336 49.4035C28.2617 49.3316 28.2617 49.1878 28.4055 49.1158C28.4774 49.0439 28.6213 49.0439 28.6932 49.1878C28.7651 49.2597 28.7651 49.4035 28.6213 49.4754Z" fill="#FBBA00"/>
<path d="M26.9672 48.4687C26.8953 48.5406 26.7515 48.5406 26.6796 48.3968C26.6076 48.3249 26.6076 48.181 26.7515 48.1091C26.8234 48.0372 26.9672 48.0372 27.0391 48.181C27.111 48.3249 27.111 48.3968 26.9672 48.4687Z" fill="#FBBA00"/>
<path d="M29.8434 54.3655C29.7715 54.4374 29.6277 54.4374 29.4839 54.3655C29.412 54.2936 29.412 54.1498 29.4839 54.006C29.5558 53.934 29.6996 53.934 29.8434 54.006C29.9153 54.0779 29.9153 54.2217 29.8434 54.3655Z" fill="#E27100"/>
<path d="M26.7512 52.8554C26.5355 52.9992 26.1759 52.9273 26.0321 52.7116C25.8883 52.4958 25.9602 52.1363 26.1759 51.9924C26.3917 51.8486 26.7512 51.9205 26.895 52.1363C27.0389 52.4239 26.967 52.7115 26.7512 52.8554Z" fill="#E27100"/>
<path d="M26.0322 49.9789C25.8884 50.1227 25.6727 50.0508 25.5288 49.907C25.385 49.7632 25.4569 49.5474 25.6007 49.4036C25.7446 49.2598 25.9603 49.3317 26.1041 49.4755C26.248 49.6912 26.176 49.907 26.0322 49.9789Z" fill="#E27100"/>
<path d="M24.522 49.6912C24.3782 49.7631 24.2343 49.6193 24.1624 49.4755C24.0905 49.3317 24.2344 49.1878 24.3782 49.1159C24.522 49.044 24.6658 49.1878 24.7377 49.3317C24.8096 49.4755 24.6658 49.6912 24.522 49.6912Z" fill="#E27100"/>
<path d="M25.8882 46.2395C25.7444 46.2395 25.6006 46.0957 25.6006 45.8799C25.6006 45.7361 25.7444 45.5923 25.8882 45.5923C26.0321 45.5923 26.1759 45.7361 26.1759 45.8799C26.2478 46.1676 26.104 46.2395 25.8882 46.2395Z" fill="#E27100"/>
<path d="M21.4298 55.4442C21.4298 56.1633 21.0702 56.7386 21.1421 57.3858C21.5017 57.3858 21.8612 57.0982 22.0051 56.8105C22.5804 57.0982 22.5085 57.8173 23.2276 58.1049C23.5152 57.8892 23.5871 57.4577 23.5871 57.1701C23.8029 57.242 24.3782 57.4577 24.5939 57.242C24.7377 57.0982 24.3063 56.8105 24.1624 56.7386C24.3782 56.7386 24.5939 56.7386 24.8096 56.7386C24.8816 56.3071 23.659 55.8038 23.2276 55.5161C23.8748 55.5161 24.9535 55.8757 25.5288 55.6599C25.6726 55.3723 25.4568 55.1565 25.1692 55.0127C25.7445 55.0127 27.5423 55.0846 26.176 54.5093C26.4636 54.4374 26.6794 54.4374 26.967 54.3655C27.0389 54.2936 27.0389 54.0779 26.967 54.006C26.6794 54.006 26.3917 54.006 26.176 53.934C26.8232 53.2149 25.8164 53.4307 25.3849 53.6464C25.4568 53.5026 25.3849 53.3587 25.3849 53.2149C25.0254 53.2149 24.7377 53.4307 24.5939 53.5745C24.522 52.9992 23.8748 53.5745 23.731 53.7902C23.5871 53.8621 23.4433 53.8621 23.2995 54.006C23.3714 53.5745 23.8748 53.3587 23.731 52.8554C23.5152 52.9273 23.3714 52.8554 23.2276 52.9273C23.4433 52.5677 23.659 52.0643 23.3714 51.6329C22.868 51.5609 22.1489 52.1362 22.077 52.4958C21.8612 52.2801 21.4298 51.8486 20.9264 51.9205C20.5668 52.2801 21.0702 52.4958 21.214 52.8554C21.4298 53.2149 21.4298 53.7183 21.6455 54.0779C21.4298 53.6464 20.2792 53.3587 19.7039 53.4307C19.7758 53.5026 19.7758 53.6464 19.8477 53.7183C19.4881 53.7183 19.2724 53.7902 19.3443 54.0779C19.9196 54.2936 20.4949 54.3655 21.1421 54.6532C20.8545 55.1565 19.1286 55.6599 19.2724 56.0914C19.632 56.1633 20.0634 56.0195 20.423 56.0195C20.2073 56.1633 20.1354 56.379 20.2073 56.5948C20.8545 56.7386 21.286 55.6599 21.3579 55.3004L21.4298 55.4442Z" fill="url(#paint17_linear)"/>
<path d="M68.5321 45.8079C68.1007 45.6641 67.8849 45.5922 67.8849 45.4484C67.9568 45.3765 68.2445 45.3046 68.7479 45.5203C69.0355 45.6641 69.3232 45.8799 69.467 46.2394C69.6108 46.599 69.6108 46.9585 69.6108 47.3181C69.6108 47.6777 69.5389 48.1091 69.467 48.4687C69.3951 48.6844 69.3951 48.8282 69.3232 49.044C69.2513 49.2597 69.1793 49.4755 69.1074 49.6912C68.676 50.4822 68.1007 51.2013 67.4535 51.7766C66.8063 52.3519 66.0871 52.8553 65.368 53.2868C63.9298 54.1497 62.5634 54.7969 61.5567 55.3003C61.0533 55.5161 60.6218 55.7318 60.3342 55.8037C60.0465 55.9475 59.8308 56.0194 59.8308 56.0194C59.3274 56.1633 58.824 56.0194 58.7521 55.6599C58.6083 55.3003 58.8959 54.8689 59.3993 54.725C59.3993 54.725 59.5431 54.6531 59.9027 54.5812C60.1904 54.5093 60.6218 54.3655 61.1252 54.1497C62.132 53.7902 63.4983 53.2149 64.9365 52.4238C65.6557 52.0643 66.3748 51.6328 66.9501 51.0575C67.5973 50.5541 68.1726 49.9788 68.5321 49.3316C68.6041 49.1878 68.676 48.9721 68.7479 48.8282C68.8198 48.6125 68.8917 48.4687 68.8917 48.2529C68.9636 47.8934 69.0355 47.5338 69.1074 47.2462C69.1074 46.8866 69.1074 46.599 68.9636 46.3832C68.9636 46.0956 68.8198 45.8798 68.5321 45.8079Z" fill="#6F270A"/>
<path d="M47.0304 55.8037C47.1023 55.6599 47.2461 55.6599 47.3181 55.6599C47.4619 55.7318 47.4619 55.8757 47.4619 55.9476C47.39 56.0914 47.2461 56.0914 47.1742 56.0914C47.0304 56.0914 46.9585 55.9476 47.0304 55.8037Z" fill="#732F0C"/>
<path d="M47.6056 56.1633C47.7494 55.9475 47.9651 55.8037 48.2528 55.9475C48.4685 56.0914 48.6124 56.3071 48.4685 56.5947C48.3247 56.8105 48.109 56.9543 47.8213 56.8105C47.6056 56.6667 47.5337 56.379 47.6056 56.1633Z" fill="#732F0C"/>
<path d="M48.9721 56.6667C49.044 56.5228 49.1878 56.4509 49.3316 56.5228C49.4754 56.5948 49.5474 56.7386 49.4754 56.8824C49.4035 57.0262 49.2597 57.0981 49.1159 57.0262C48.9721 56.9543 48.9001 56.8105 48.9721 56.6667Z" fill="#732F0C"/>
<path d="M52.5678 57.6016C52.4239 57.3858 52.4959 57.0982 52.7835 56.9544C52.9992 56.8105 53.2869 56.8824 53.4307 57.1701C53.5745 57.3858 53.5026 57.6735 53.2869 57.8173C52.9992 57.8892 52.7116 57.8173 52.5678 57.6016Z" fill="#732F0C"/>
<path d="M55.5879 56.451C55.516 56.3072 55.5879 56.1633 55.6598 56.0914C55.8036 56.0195 55.9475 56.0914 56.0194 56.1633C56.0913 56.3072 56.0194 56.451 55.9475 56.5229C55.8036 56.5948 55.6598 56.5948 55.5879 56.451Z" fill="#732F0C"/>
<path d="M55.3002 53.0711C55.2283 53.0711 55.0845 52.9992 55.0845 52.9273C55.0845 52.8554 55.1564 52.7115 55.2283 52.7115C55.3002 52.7115 55.444 52.7835 55.444 52.8554C55.5159 52.9273 55.444 52.9992 55.3002 53.0711Z" fill="#732F0C"/>
<path d="M55.5159 52.7115C55.3721 52.7115 55.3002 52.6396 55.2283 52.5677C55.2283 52.4239 55.3002 52.3519 55.3721 52.28C55.5159 52.28 55.5878 52.3519 55.6597 52.4239C55.6597 52.4958 55.5878 52.6396 55.5159 52.7115Z" fill="#732F0C"/>
<path d="M54.7251 51.4891C54.7251 51.7048 54.5094 51.7767 54.3655 51.7767C54.1498 51.7767 54.0779 51.561 54.0779 51.4172C54.0779 51.2733 54.2936 51.1295 54.4374 51.1295C54.6532 51.1295 54.7251 51.3453 54.7251 51.4891Z" fill="#732F0C"/>
<path d="M53.6462 50.6262C53.6462 50.77 53.5024 50.8419 53.3586 50.8419C53.2147 50.8419 53.1428 50.6981 53.1428 50.5542C53.1428 50.4104 53.2866 50.3385 53.4305 50.3385C53.5743 50.3385 53.6462 50.4823 53.6462 50.6262Z" fill="#732F0C"/>
<path d="M52.0642 51.7767C52.0642 51.9205 51.9204 51.9924 51.7765 51.9924C51.6327 51.9924 51.5608 51.8486 51.5608 51.7048C51.5608 51.5609 51.7046 51.489 51.8484 51.489C51.9923 51.5609 52.0642 51.6328 52.0642 51.7767Z" fill="#732F0C"/>
<path d="M49.3317 51.6328C49.1159 51.489 49.044 51.2014 49.1879 50.9856C49.3317 50.7699 49.6193 50.698 49.8351 50.8418C50.0508 50.9856 50.1227 51.2733 49.9789 51.489C49.8351 51.7047 49.5474 51.7767 49.3317 51.6328Z" fill="#732F0C"/>
<path d="M50.7699 50.4104C50.5542 50.2666 50.4823 49.9789 50.6261 49.7632C50.7699 49.5475 51.0576 49.4756 51.2733 49.6194C51.489 49.7632 51.5609 50.0509 51.4171 50.2666C51.2733 50.4823 50.9857 50.5542 50.7699 50.4104Z" fill="#732F0C"/>
<path d="M51.4889 48.6845C51.2732 48.5406 51.2013 48.253 51.3451 47.9654C51.4889 47.7496 51.7766 47.6777 52.0642 47.8215C52.2799 47.9654 52.3518 48.253 52.208 48.5406C52.0642 48.7564 51.7766 48.8283 51.4889 48.6845Z" fill="#732F0C"/>
<path d="M54.1497 45.7361C54.0059 45.5923 54.0778 45.3765 54.2216 45.2327C54.3654 45.0889 54.5811 45.1608 54.725 45.3046C54.8688 45.4484 54.7969 45.6642 54.6531 45.808C54.5092 45.9518 54.2935 45.8799 54.1497 45.7361Z" fill="#732F0C"/>
<path d="M55.588 46.0956C55.5161 45.9518 55.5161 45.808 55.6599 45.6642C55.8037 45.5923 55.9476 45.5923 56.0914 45.7361C56.1633 45.8799 56.1633 46.0237 56.0195 46.1676C55.8757 46.3114 55.7318 46.2395 55.588 46.0956Z" fill="#732F0C"/>
<path d="M52.424 53.0712C52.2801 53.2869 51.9925 53.2869 51.8487 53.1431C51.6329 52.9993 51.6329 52.7116 51.7768 52.5678C51.9206 52.352 52.2082 52.352 52.352 52.4959C52.4959 52.6397 52.5678 52.8554 52.424 53.0712Z" fill="#732F0C"/>
<path d="M39.1203 53.4307C39.2641 53.3588 39.4798 53.4307 39.5517 53.5745C39.6237 53.7183 39.5517 53.9341 39.4079 54.006C39.2641 54.0779 39.0484 54.006 38.9765 53.8621C38.9045 53.7183 38.9765 53.5026 39.1203 53.4307Z" fill="#732F0C"/>
<path d="M41.5653 57.0983C41.6372 57.0264 41.781 56.9545 41.853 57.0264C41.9249 57.0983 41.9968 57.2421 41.9249 57.314C41.853 57.3859 41.7091 57.4578 41.6372 57.3859C41.4934 57.314 41.4934 57.1702 41.5653 57.0983Z" fill="#732F0C"/>
<path d="M44.298 57.0982C44.3699 56.9543 44.5137 56.9543 44.5856 56.9543C44.7295 57.0263 44.7295 57.1701 44.7295 57.242C44.6575 57.3858 44.5137 57.3858 44.4418 57.3858C44.298 57.3858 44.2261 57.242 44.298 57.0982Z" fill="#732F0C"/>
<path d="M45.0889 57.8892C45.0889 57.7454 45.2327 57.6016 45.3765 57.6016C45.5203 57.6016 45.6642 57.7454 45.6642 57.8892C45.6642 58.033 45.5203 58.1769 45.3765 58.1769C45.2327 58.2488 45.0889 58.1049 45.0889 57.8892Z" fill="#732F0C"/>
<path d="M45.8081 58.2488C45.8081 58.105 45.9519 57.9612 46.0958 57.9612C46.2396 57.9612 46.3834 58.105 46.3834 58.2488C46.3834 58.3927 46.2396 58.5365 46.0958 58.5365C45.9519 58.4646 45.8081 58.3927 45.8081 58.2488Z" fill="#732F0C"/>
<path d="M46.3115 57.9611C46.3115 57.8173 46.3834 57.7454 46.5273 57.7454C46.6711 57.7454 46.743 57.8173 46.743 57.9611C46.743 58.1049 46.6711 58.1768 46.5273 58.1768C46.4553 58.1768 46.3115 58.1049 46.3115 57.9611Z" fill="#732F0C"/>
<path d="M46.5271 57.6735C46.5271 57.3859 46.7428 57.2421 46.9586 57.1702C47.2462 57.1702 47.39 57.3859 47.462 57.6016C47.462 57.8893 47.2462 58.105 47.0305 58.105C46.7428 58.1769 46.5271 57.9612 46.5271 57.6735Z" fill="#732F0C"/>
<path d="M48.397 57.3859C48.397 57.2421 48.4689 57.1702 48.5408 57.1702C48.6846 57.1702 48.7565 57.2421 48.7565 57.314C48.7565 57.4578 48.6846 57.5297 48.6127 57.5297C48.5408 57.5297 48.397 57.4578 48.397 57.3859Z" fill="#732F0C"/>
<path d="M51.5612 58.0331C51.4173 57.8173 51.4893 57.5297 51.7769 57.3859C51.9926 57.2421 52.2803 57.314 52.4241 57.6016C52.5679 57.8173 52.496 58.105 52.2084 58.2488C51.9926 58.3926 51.705 58.2488 51.5612 58.0331Z" fill="#732F0C"/>
<path d="M53.0712 54.4375C52.9993 54.5094 52.8554 54.5094 52.8554 54.4375C52.7835 54.3656 52.7835 54.2218 52.8554 54.2218C52.9274 54.2218 53.0712 54.1499 53.0712 54.2218C53.1431 54.2218 53.1431 54.3656 53.0712 54.4375Z" fill="#732F0C"/>
<path d="M49.8351 53.5026C49.8351 53.7184 49.6913 53.8622 49.5474 53.9341C49.3317 53.9341 49.1879 53.7903 49.116 53.6464C49.116 53.4307 49.2598 53.2869 49.4036 53.215C49.6193 53.215 49.7632 53.3588 49.8351 53.5026Z" fill="#732F0C"/>
<path d="M55.588 54.5093C55.7318 54.6531 55.7318 54.8689 55.6599 55.0846C55.5161 55.2284 55.3004 55.3003 55.0846 55.1565C54.9408 55.0127 54.8689 54.7969 55.0127 54.5812C55.1565 54.3655 55.3723 54.3655 55.588 54.5093Z" fill="#732F0C"/>
<path d="M55.0846 55.4442C55.1565 55.6599 54.9408 55.9476 54.7251 55.9476C54.5093 56.0195 54.2217 55.8756 54.2217 55.588C54.1498 55.3723 54.2936 55.0846 54.5813 55.0127C54.797 55.0127 55.0127 55.1565 55.0846 55.4442Z" fill="#732F0C"/>
<path d="M51.2014 55.66C51.2014 55.7319 51.1294 55.8757 51.0575 55.8757C50.9856 55.8757 50.8418 55.8038 50.8418 55.7319C50.8418 55.66 50.9137 55.5161 50.9856 55.5161C51.1294 55.4442 51.2014 55.5161 51.2014 55.66Z" fill="#732F0C"/>
<path d="M60.8376 46.2394C60.7657 46.1675 60.7657 46.0237 60.8376 45.9518C60.9095 45.8798 61.0534 45.8798 61.1253 45.9518C61.1972 46.0237 61.1972 46.1675 61.1253 46.2394C60.9814 46.3832 60.9095 46.3113 60.8376 46.2394Z" fill="#732F0C"/>
<path d="M63.6422 48.7563C63.4265 48.8282 63.2107 48.6844 63.1388 48.4686C63.0669 48.2529 63.2107 48.0372 63.4265 47.9652C63.6422 47.8933 63.8579 48.0372 63.9298 48.2529C64.0018 48.5405 63.8579 48.7563 63.6422 48.7563Z" fill="#732F0C"/>
<path d="M63.4265 48.2529C63.1389 48.3248 62.8512 48.181 62.7793 47.8933C62.7074 47.6057 62.8512 47.318 63.1389 47.2461C63.4265 47.1742 63.7142 47.318 63.7861 47.6057C63.9299 47.8933 63.7142 48.181 63.4265 48.2529Z" fill="#732F0C"/>
<path d="M62.9948 47.8215C62.9229 47.8215 62.7791 47.8215 62.7791 47.6777C62.7791 47.6057 62.7791 47.4619 62.9229 47.4619C62.9948 47.4619 63.1386 47.4619 63.1386 47.6057C63.1386 47.6776 63.0667 47.7496 62.9948 47.8215Z" fill="#732F0C"/>
<path d="M62.4197 44.8012C62.2758 44.945 61.9882 44.945 61.8444 44.7292C61.7006 44.5854 61.7006 44.2978 61.9163 44.1539C62.0601 44.0101 62.3478 44.0101 62.4916 44.2259C62.6354 44.4416 62.6354 44.6573 62.4197 44.8012Z" fill="#732F0C"/>
<path d="M59.0397 44.4416C59.1116 44.6573 59.0397 44.945 58.7521 45.0888C58.4644 45.2326 58.2487 45.0888 58.1048 44.8731C58.0329 44.6573 58.1048 44.3697 58.3206 44.2259C58.6801 44.082 58.9678 44.2259 59.0397 44.4416Z" fill="#732F0C"/>
<path d="M55.8756 47.4619C55.9475 47.5338 55.9475 47.6057 55.8756 47.6777C55.8037 47.7496 55.7318 47.7496 55.6599 47.6777C55.588 47.6057 55.588 47.5338 55.6599 47.39C55.7318 47.39 55.8037 47.39 55.8756 47.4619Z" fill="#732F0C"/>
<path d="M62.2758 49.5475C62.1319 49.7632 61.8443 49.8351 61.6286 49.6913C61.4128 49.5475 61.3409 49.2598 61.4847 49.0441C61.6286 48.8284 61.9162 48.7564 62.132 48.9003C62.2758 49.0441 62.3477 49.3317 62.2758 49.5475Z" fill="#732F0C"/>
<path d="M60.478 47.3181C60.3342 47.5339 59.9747 47.5339 59.8308 47.39C59.6151 47.2462 59.6151 46.8867 59.7589 46.7428C59.9028 46.5271 60.2623 46.5271 60.4061 46.6709C60.6219 46.8147 60.6938 47.1024 60.478 47.3181Z" fill="#732F0C"/>
<path d="M60.1184 47.0305C59.9746 47.2463 59.687 47.2463 59.4712 47.1024C59.2555 46.9586 59.2555 46.671 59.3993 46.4552C59.5431 46.2395 59.8308 46.2395 60.0465 46.3833C60.2623 46.5271 60.2623 46.8148 60.1184 47.0305Z" fill="#732F0C"/>
<path d="M35.1651 51.0576C35.0932 51.1295 34.9494 51.0576 34.8774 50.9856C34.8055 50.9137 34.8774 50.7699 34.9494 50.698C35.0213 50.6261 35.1651 50.6261 35.237 50.7699C35.237 50.9137 35.237 50.9856 35.1651 51.0576Z" fill="#732F0C"/>
<path d="M35.2369 50.5542C35.0212 50.698 34.7335 50.6261 34.5897 50.4104C34.4459 50.1947 34.5178 49.907 34.7335 49.7632C34.9493 49.6194 35.2369 49.6913 35.3808 49.907C35.4527 50.1227 35.3808 50.4104 35.2369 50.5542Z" fill="#732F0C"/>
<path d="M33.7988 48.3968C33.5831 48.5406 33.2954 48.4687 33.0797 48.2529C32.9359 48.0372 33.0078 47.7495 33.2235 47.5338C33.4393 47.39 33.7269 47.4619 33.9427 47.6776C34.0865 47.9653 34.0146 48.2529 33.7988 48.3968Z" fill="#732F0C"/>
<path d="M33.2954 47.1024C33.1515 47.1743 32.9358 47.1743 32.8639 47.0305C32.792 46.8866 32.792 46.6709 32.9358 46.599C33.0796 46.5271 33.2954 46.5271 33.3673 46.6709C33.5111 46.8147 33.4392 47.0305 33.2954 47.1024Z" fill="#732F0C"/>
<path d="M41.7089 59.9747C41.7089 61.2691 39.5516 62.3478 36.9627 62.3478C34.302 62.3478 32.2166 61.2691 32.2166 59.9747C32.2166 58.6802 34.3739 57.6016 36.9627 57.6016C39.6235 57.6016 41.7089 58.6083 41.7089 59.9747Z" fill="#C6C6C6"/>
<path d="M41.0617 57.8892C41.0617 59.9747 38.9762 61.7006 36.4593 61.7006C33.9424 61.7006 31.8569 59.9747 31.8569 57.8892C31.8569 56.5948 32.648 55.3723 33.8705 54.7251C34.5896 54.2936 35.5244 54.5094 36.4593 54.5094C37.4661 54.5094 38.4009 54.3656 39.192 54.797C40.3426 55.5161 41.0617 56.6667 41.0617 57.8892Z" fill="url(#paint18_radial)"/>
<path d="M35.3806 55.3004C35.5244 55.5881 35.9559 55.8757 36.3874 55.8757C36.6031 55.8757 36.8189 55.8038 37.0346 55.66C37.1784 55.5162 37.3222 55.3723 37.3941 55.3004C37.2503 55.3004 37.0346 55.3004 36.8908 55.3723C36.7469 55.3723 36.5312 55.4442 36.3874 55.3723C36.0278 55.3723 35.7402 55.3723 35.3806 55.3004Z" fill="#F1C687"/>
<path d="M33.0076 58.4646C32.9357 57.9612 32.8637 57.2421 33.1514 56.5949C33.3671 55.9476 33.9424 55.5162 34.3739 55.1566C33.8705 55.2285 33.0795 55.5881 32.7199 56.3791C32.3604 57.2421 32.648 58.105 33.0076 58.4646Z" fill="#F9BE8F"/>
<path d="M47.7495 9.78003C46.4551 10.4272 45.0169 11.5778 44.2258 13.4475C43.7944 14.3824 43.5786 15.6049 43.7944 16.7555C43.7944 17.0431 43.9382 17.3308 44.0101 17.6184C44.082 17.9061 44.1539 18.1937 44.2977 18.4814C44.4416 18.769 44.5854 19.0567 44.6573 19.2724L44.9449 19.8477C45.736 21.4298 46.1674 22.868 45.9517 24.3063C45.8079 25.7445 45.0169 27.1108 44.1539 28.2614C45.5202 27.9019 47.2461 26.967 48.181 24.9535C48.6125 24.0186 48.8282 22.7961 48.7563 21.6455C48.6844 20.4949 48.3248 19.3443 47.7495 18.3376C47.5338 17.9061 47.2461 17.4746 47.0304 17.0431C46.8866 16.8993 46.8866 16.6836 46.8147 16.5398C46.7427 16.3959 46.6708 16.1802 46.5989 16.0364C46.3832 15.3892 46.3113 14.67 46.3832 13.879C46.527 12.5846 47.1023 11.0744 47.7495 9.78003Z" fill="#DADADA"/>
<path d="M53.2148 13.5913C52.2081 14.0947 51.0575 15.0295 50.4103 16.5397C50.0507 17.2588 49.9069 18.1937 50.1226 19.1285C50.1226 19.3443 50.1945 19.56 50.2664 19.8477C50.3383 20.0634 50.4103 20.2791 50.5541 20.4949L50.9136 21.0702L51.2013 21.5735C51.9204 22.868 52.2081 24.0905 51.9923 25.2411C51.7047 26.3916 50.9136 27.4703 50.1226 28.3333C51.2013 28.0456 52.5676 27.3265 53.2867 25.8164C53.6463 25.0972 53.862 24.1624 53.7182 23.2275C53.6463 22.2927 53.2867 21.4297 52.8553 20.6387C52.6395 20.2791 52.4238 19.9915 52.2081 19.6319C52.1361 19.4881 52.0642 19.3443 51.9923 19.2004C51.9204 19.0566 51.8485 18.9128 51.8485 18.769C51.7047 18.1937 51.6328 17.6184 51.7766 16.9712C51.9923 15.7487 52.6395 14.5981 53.2148 13.5913Z" fill="#DADADA"/>
</g>
<defs>
<linearGradient id="paint0_linear" x1="9.63178" y1="34.9812" x2="29.7134" y2="34.9812" gradientUnits="userSpaceOnUse">
<stop stop-color="#DCDCDC"/>
<stop offset="0.1619" stop-color="#D1D1D1"/>
<stop offset="0.4702" stop-color="#B3B3B3"/>
<stop offset="0.8897" stop-color="#80807F"/>
<stop offset="1" stop-color="#706F6F"/>
</linearGradient>
<linearGradient id="paint1_linear" x1="19.6796" y1="26.797" x2="19.6796" y2="31.5671" gradientUnits="userSpaceOnUse">
<stop stop-color="#9B9B9A"/>
<stop offset="0.5989" stop-color="#B3B3B3"/>
<stop offset="1" stop-color="#BEBEBE"/>
</linearGradient>
<linearGradient id="paint2_linear" x1="19.6748" y1="32.7733" x2="19.6748" y2="26.087" gradientUnits="userSpaceOnUse">
<stop stop-color="white"/>
<stop offset="0.5739" stop-color="#F5F5F5"/>
<stop offset="1" stop-color="#EBEBEB"/>
</linearGradient>
<linearGradient id="paint3_linear" x1="28.4708" y1="24.277" x2="29.2153" y2="24.8089" gradientUnits="userSpaceOnUse">
<stop offset="0.00537634" stop-color="#DDDDDD"/>
<stop offset="0.9946" stop-color="#B0B0B0"/>
</linearGradient>
<linearGradient id="paint4_linear" x1="10.7357" y1="29.9186" x2="28.5599" y2="29.9186" gradientUnits="userSpaceOnUse">
<stop stop-color="#D52610"/>
<stop offset="0.1935" stop-color="#CA2310"/>
<stop offset="0.5434" stop-color="#AE1D10"/>
<stop offset="1" stop-color="#84130C"/>
</linearGradient>
<linearGradient id="paint5_linear" x1="11.8178" y1="28.2313" x2="27.3042" y2="28.2313" gradientUnits="userSpaceOnUse">
<stop stop-color="#D52610"/>
<stop offset="0.1935" stop-color="#CA2310"/>
<stop offset="0.5434" stop-color="#AE1D10"/>
<stop offset="1" stop-color="#84130C"/>
</linearGradient>
<linearGradient id="paint6_linear" x1="43.7777" y1="35.1373" x2="43.7777" y2="63.4022" gradientUnits="userSpaceOnUse">
<stop stop-color="#CECECE"/>
<stop offset="0.1045" stop-color="#D4D4D4"/>
<stop offset="0.6908" stop-color="#F0F0F0"/>
<stop offset="1" stop-color="#FAFAFA"/>
</linearGradient>
<linearGradient id="paint7_linear" x1="43.8319" y1="34.5171" x2="43.8319" y2="66.3551" gradientUnits="userSpaceOnUse">
<stop stop-color="#F9F8F8"/>
<stop offset="0.1487" stop-color="#F5F5F5"/>
<stop offset="0.3202" stop-color="#EBEBEB"/>
<stop offset="0.5032" stop-color="#DADADA"/>
<stop offset="0.6941" stop-color="#C1C1C1"/>
<stop offset="0.8892" stop-color="#9F9F9F"/>
<stop offset="1" stop-color="#898988"/>
</linearGradient>
<linearGradient id="paint8_linear" x1="43.91" y1="40.5959" x2="43.91" y2="59.0719" gradientUnits="userSpaceOnUse">
<stop stop-color="#D2D2D2"/>
<stop offset="0.379" stop-color="#DBDBDB"/>
<stop offset="1" stop-color="#E5E5E5"/>
</linearGradient>
<linearGradient id="paint9_linear" x1="43.7106" y1="41.11" x2="44.1303" y2="60.4821" gradientUnits="userSpaceOnUse">
<stop offset="0.00537636" stop-color="#949494"/>
<stop offset="0.0990118" stop-color="#A7A7A7"/>
<stop offset="0.2968" stop-color="#C8C8C8"/>
<stop offset="0.4902" stop-color="#E1E1E1"/>
<stop offset="0.6756" stop-color="#F2F2F1"/>
<stop offset="0.8494" stop-color="#FCFCFC"/>
<stop offset="1" stop-color="white"/>
</linearGradient>
<linearGradient id="paint10_linear" x1="28.9229" y1="40.2168" x2="20.3485" y2="46.8858" gradientUnits="userSpaceOnUse">
<stop stop-color="#F3B15A"/>
<stop offset="0.1809" stop-color="#EBA34E"/>
<stop offset="0.5081" stop-color="#D68031"/>
<stop offset="0.9415" stop-color="#B44D0A"/>
<stop offset="0.9946" stop-color="#B04704"/>
</linearGradient>
<linearGradient id="paint11_linear" x1="22.7392" y1="50.8598" x2="15.2012" y2="49.9927" gradientUnits="userSpaceOnUse">
<stop stop-color="#0B441A"/>
<stop offset="0.21" stop-color="#175120"/>
<stop offset="0.6494" stop-color="#316F2B"/>
<stop offset="0.9946" stop-color="#468A32"/>
</linearGradient>
<linearGradient id="paint12_linear" x1="62.8716" y1="45.1193" x2="80.1014" y2="45.771" gradientUnits="userSpaceOnUse">
<stop stop-color="#0B441A"/>
<stop offset="0.21" stop-color="#175120"/>
<stop offset="0.6494" stop-color="#316F2B"/>
<stop offset="0.9946" stop-color="#468A32"/>
</linearGradient>
<radialGradient id="paint13_radial" cx="0" cy="0" r="1" gradientUnits="userSpaceOnUse" gradientTransform="translate(35.8247 39.1338) scale(17.1061)">
<stop stop-color="#F09934"/>
<stop offset="0.1903" stop-color="#E58C2D"/>
<stop offset="0.5346" stop-color="#CB6C1B"/>
<stop offset="0.9839" stop-color="#A14003"/>
</radialGradient>
<radialGradient id="paint14_radial" cx="0" cy="0" r="1" gradientUnits="userSpaceOnUse" gradientTransform="translate(42.525 46.0708) scale(15.0941)">
<stop offset="0.00537634" stop-color="#BC580F"/>
<stop offset="0.2257" stop-color="#B6510D"/>
<stop offset="0.6225" stop-color="#A43F07"/>
<stop offset="0.9946" stop-color="#8E2D01"/>
</radialGradient>
<radialGradient id="paint15_radial" cx="0" cy="0" r="1" gradientUnits="userSpaceOnUse" gradientTransform="translate(53.9846 40.6445) scale(0.0459045)">
<stop stop-color="#F3B15A"/>
<stop offset="0.1809" stop-color="#EBA34E"/>
<stop offset="0.5081" stop-color="#D68031"/>
<stop offset="0.9415" stop-color="#B44D0A"/>
<stop offset="0.9946" stop-color="#B04704"/>
</radialGradient>
<linearGradient id="paint16_linear" x1="34.812" y1="40.5218" x2="27.9521" y2="54.6228" gradientUnits="userSpaceOnUse">
<stop offset="0.00537634" stop-color="#BC580F"/>
<stop offset="0.4742" stop-color="#BA550B"/>
<stop offset="0.9946" stop-color="#B54F03"/>
</linearGradient>
<linearGradient id="paint17_linear" x1="19.2516" y1="54.8828" x2="26.9492" y2="54.8828" gradientUnits="userSpaceOnUse">
<stop stop-color="#0B441A"/>
<stop offset="0.21" stop-color="#175120"/>
<stop offset="0.6494" stop-color="#316F2B"/>
<stop offset="0.9946" stop-color="#468A32"/>
</linearGradient>
<radialGradient id="paint18_radial" cx="0" cy="0" r="1" gradientUnits="userSpaceOnUse" gradientTransform="translate(34.8435 56.7783) scale(4.12725)">
<stop stop-color="#E84B0F"/>
<stop offset="0.3287" stop-color="#E13E13"/>
<stop offset="0.9213" stop-color="#CE1917"/>
<stop offset="1" stop-color="#CC1018"/>
</radialGradient>
<clipPath id="clip0">
<rect width="85" height="70.6176" fill="white"/>
</clipPath>
</defs>
</svg>
