<svg width="105" height="55" viewBox="0 0 105 55" fill="none" xmlns="http://www.w3.org/2000/svg">
<path d="M10.944 6.935H6.536V19H4.7025V6.935H0.285V5.3865H10.944V6.935ZM14.2954 9.3765V19H12.6044V9.3765H14.2954ZM14.6564 6.3555C14.6564 6.52017 14.6216 6.67533 14.5519 6.821C14.4886 6.96033 14.3999 7.087 14.2859 7.201C14.1783 7.30867 14.0484 7.39417 13.8964 7.4575C13.7508 7.52083 13.5956 7.5525 13.4309 7.5525C13.2663 7.5525 13.1111 7.52083 12.9654 7.4575C12.8261 7.39417 12.7026 7.30867 12.5949 7.201C12.4873 7.087 12.4018 6.96033 12.3384 6.821C12.2751 6.67533 12.2434 6.52017 12.2434 6.3555C12.2434 6.19083 12.2751 6.03567 12.3384 5.89C12.4018 5.738 12.4873 5.60817 12.5949 5.5005C12.7026 5.3865 12.8261 5.29783 12.9654 5.2345C13.1111 5.17117 13.2663 5.1395 13.4309 5.1395C13.5956 5.1395 13.7508 5.17117 13.8964 5.2345C14.0484 5.29783 14.1783 5.3865 14.2859 5.5005C14.3999 5.60817 14.4886 5.738 14.5519 5.89C14.6216 6.03567 14.6564 6.19083 14.6564 6.3555ZM23.5149 13.1385C23.5149 12.7458 23.4579 12.388 23.3439 12.065C23.2362 11.7357 23.0747 11.4538 22.8594 11.2195C22.6504 10.9788 22.3939 10.7952 22.0899 10.6685C21.7859 10.5355 21.4407 10.469 21.0544 10.469C20.2437 10.469 19.6009 10.7065 19.1259 11.1815C18.6572 11.6502 18.3659 12.3025 18.2519 13.1385H23.5149ZM24.8829 17.651C24.6739 17.9043 24.4237 18.126 24.1324 18.316C23.841 18.4997 23.5275 18.6517 23.1919 18.772C22.8625 18.8923 22.5205 18.981 22.1659 19.038C21.8112 19.1013 21.4597 19.133 21.1114 19.133C20.4464 19.133 19.832 19.0222 19.2684 18.8005C18.711 18.5725 18.2265 18.2432 17.8149 17.8125C17.4095 17.3755 17.0929 16.8372 16.8649 16.1975C16.6369 15.5578 16.5229 14.8232 16.5229 13.9935C16.5229 13.3222 16.6242 12.6952 16.8269 12.1125C17.0359 11.5298 17.3335 11.0263 17.7199 10.602C18.1062 10.1713 18.578 9.83567 19.1354 9.595C19.6927 9.348 20.3197 9.2245 21.0164 9.2245C21.5927 9.2245 22.1247 9.32267 22.6124 9.519C23.1064 9.709 23.5307 9.98767 23.8854 10.355C24.2464 10.716 24.5282 11.1657 24.7309 11.704C24.9335 12.236 25.0349 12.844 25.0349 13.528C25.0349 13.794 25.0064 13.9713 24.9494 14.06C24.8924 14.1487 24.7847 14.193 24.6264 14.193H18.1949C18.2139 14.801 18.2962 15.3298 18.4419 15.7795C18.5939 16.2292 18.8029 16.606 19.0689 16.91C19.3349 17.2077 19.6515 17.4325 20.0189 17.5845C20.3862 17.7302 20.7979 17.803 21.2539 17.803C21.6782 17.803 22.0424 17.7555 22.3464 17.6605C22.6567 17.5592 22.9227 17.4515 23.1444 17.3375C23.366 17.2235 23.5497 17.119 23.6954 17.024C23.8474 16.9227 23.9772 16.872 24.0849 16.872C24.2242 16.872 24.3319 16.9258 24.4079 17.0335L24.8829 17.651ZM27.112 19V9.3765H28.1285C28.3691 9.3765 28.518 9.49367 28.575 9.728L28.6985 10.716C29.0531 10.279 29.4521 9.92117 29.8955 9.6425C30.3388 9.36383 30.8518 9.2245 31.4345 9.2245C32.0805 9.2245 32.603 9.405 33.002 9.766C33.4073 10.127 33.6986 10.6147 33.876 11.229C34.0153 10.8807 34.1926 10.5798 34.408 10.3265C34.6296 10.0732 34.8766 9.86417 35.149 9.6995C35.4213 9.53483 35.7095 9.4145 36.0135 9.3385C36.3238 9.2625 36.6373 9.2245 36.954 9.2245C37.4606 9.2245 37.9103 9.30683 38.303 9.4715C38.702 9.62983 39.0376 9.86417 39.31 10.1745C39.5886 10.4848 39.8008 10.868 39.9465 11.324C40.0921 11.7737 40.165 12.2898 40.165 12.8725V19H38.4645V12.8725C38.4645 12.1188 38.2998 11.5488 37.9705 11.1625C37.6411 10.7698 37.1661 10.5735 36.5455 10.5735C36.2668 10.5735 36.0008 10.6242 35.7475 10.7255C35.5005 10.8205 35.282 10.963 35.092 11.153C34.902 11.343 34.75 11.5837 34.636 11.875C34.5283 12.16 34.4745 12.4925 34.4745 12.8725V19H32.774V12.8725C32.774 12.0998 32.6188 11.5235 32.3085 11.1435C31.9981 10.7635 31.5453 10.5735 30.95 10.5735C30.532 10.5735 30.1456 10.6875 29.791 10.9155C29.4363 11.1372 29.1101 11.4412 28.8125 11.8275V19H27.112ZM44.4355 16.682C44.7458 17.1 45.0847 17.3945 45.452 17.5655C45.8193 17.7365 46.231 17.822 46.687 17.822C47.5863 17.822 48.2767 17.5022 48.758 16.8625C49.2393 16.2228 49.48 15.3108 49.48 14.1265C49.48 13.4995 49.423 12.9612 49.309 12.5115C49.2013 12.0618 49.043 11.6945 48.834 11.4095C48.625 11.1182 48.3685 10.906 48.0645 10.773C47.7605 10.64 47.4153 10.5735 47.029 10.5735C46.478 10.5735 45.9935 10.7002 45.5755 10.9535C45.1638 11.2068 44.7838 11.5647 44.4355 12.027V16.682ZM44.35 10.868C44.7553 10.3677 45.224 9.9655 45.756 9.6615C46.288 9.3575 46.896 9.2055 47.58 9.2055C48.1373 9.2055 48.6408 9.31317 49.0905 9.5285C49.5402 9.7375 49.9233 10.051 50.24 10.469C50.5567 10.8807 50.8005 11.3937 50.9715 12.008C51.1425 12.6223 51.228 13.3285 51.228 14.1265C51.228 14.8358 51.133 15.4977 50.943 16.112C50.753 16.72 50.4775 17.2488 50.1165 17.6985C49.7618 18.1418 49.3248 18.4933 48.8055 18.753C48.2925 19.0063 47.713 19.133 47.067 19.133C46.478 19.133 45.9713 19.0348 45.547 18.8385C45.129 18.6358 44.7585 18.3572 44.4355 18.0025V22.2585H42.735V9.3765H43.7515C43.9922 9.3765 44.141 9.49367 44.198 9.728L44.35 10.868ZM57.4419 9.2245C58.1449 9.2245 58.7782 9.34167 59.3419 9.576C59.9056 9.81033 60.3869 10.1428 60.7859 10.5735C61.1849 11.0042 61.4889 11.5267 61.6979 12.141C61.9132 12.749 62.0209 13.4298 62.0209 14.1835C62.0209 14.9435 61.9132 15.6275 61.6979 16.2355C61.4889 16.8435 61.1849 17.3628 60.7859 17.7935C60.3869 18.2242 59.9056 18.5567 59.3419 18.791C58.7782 19.019 58.1449 19.133 57.4419 19.133C56.7326 19.133 56.0929 19.019 55.5229 18.791C54.9592 18.5567 54.4779 18.2242 54.0789 17.7935C53.6799 17.3628 53.3727 16.8435 53.1574 16.2355C52.9484 15.6275 52.8439 14.9435 52.8439 14.1835C52.8439 13.4298 52.9484 12.749 53.1574 12.141C53.3727 11.5267 53.6799 11.0042 54.0789 10.5735C54.4779 10.1428 54.9592 9.81033 55.5229 9.576C56.0929 9.34167 56.7326 9.2245 57.4419 9.2245ZM57.4419 17.8125C58.3919 17.8125 59.1012 17.4958 59.5699 16.8625C60.0386 16.2228 60.2729 15.333 60.2729 14.193C60.2729 13.0467 60.0386 12.1537 59.5699 11.514C59.1012 10.8743 58.3919 10.5545 57.4419 10.5545C56.9606 10.5545 56.5394 10.6368 56.1784 10.8015C55.8237 10.9662 55.5261 11.2037 55.2854 11.514C55.0511 11.8243 54.8737 12.2075 54.7534 12.6635C54.6394 13.1132 54.5824 13.623 54.5824 14.193C54.5824 15.333 54.8167 16.2228 55.2854 16.8625C55.7604 17.4958 56.4792 17.8125 57.4419 17.8125Z" fill="black"/>
<path d="M12.0764 54.8303C5.50313 54.8303 0.152832 49.0734 0.152832 42.0005C0.152832 34.9277 5.50313 29.1707 12.0764 29.1707C18.6496 29.1707 23.9999 34.9277 23.9999 42.0005C23.9999 49.0734 18.6496 54.8303 12.0764 54.8303ZM12.0764 30.6511C6.26746 30.6511 1.68149 35.7501 1.68149 41.836C1.68149 48.0864 6.42032 53.021 12.0764 53.021C17.7324 53.021 22.4713 47.922 22.4713 41.836C22.4713 35.7501 17.7324 30.6511 12.0764 30.6511Z" fill="#8DC63F"/>
<path d="M16.0508 47.1005C15.898 47.1005 15.5923 47.1005 15.4394 46.936L11.4648 42.6593C11.312 42.4949 11.312 42.3304 11.312 42.0014V34.9285C11.312 34.435 11.6177 34.1061 12.0763 34.1061C12.5349 34.1061 12.8407 34.435 12.8407 34.9285V41.5079L16.6623 45.6201C16.9681 45.949 16.9681 46.4425 16.6623 46.7715C16.3566 46.936 16.2037 47.1005 16.0508 47.1005Z" fill="#8DC63F"/>
<path d="M23.2355 42.6594H21.2482C20.7896 42.6594 20.4839 42.3304 20.4839 41.8369C20.4839 41.3435 20.7896 41.0145 21.2482 41.0145H23.2355C23.6941 41.0145 23.9998 41.3435 23.9998 41.8369C23.9998 42.3304 23.6941 42.6594 23.2355 42.6594Z" fill="#8DC63F"/>
<path d="M2.75166 42.6594H0.764331C0.305732 42.6594 0 42.3304 0 41.8369C0 41.3435 0.305732 41.0145 0.764331 41.0145H2.75166C3.21026 41.0145 3.516 41.3435 3.516 41.8369C3.516 42.3304 3.21026 42.6594 2.75166 42.6594Z" fill="#8DC63F"/>
<path d="M12.0763 54.8313C11.6177 54.8313 11.312 54.5024 11.312 54.0089V51.8706C11.312 51.3772 11.6177 51.0482 12.0763 51.0482C12.5349 51.0482 12.8407 51.3772 12.8407 51.8706V54.0089C12.8407 54.5024 12.3821 54.8313 12.0763 54.8313Z" fill="#8DC63F"/>
<path d="M12.0763 32.7903C11.6177 32.7903 11.312 32.4613 11.312 31.9678V29.8295C11.312 29.3361 11.6177 29.0071 12.0763 29.0071C12.5349 29.0071 12.8407 29.3361 12.8407 29.8295V31.9678C12.8407 32.4613 12.3821 32.7903 12.0763 32.7903Z" fill="#8DC63F"/>
<path d="M33.5075 35.1396C33.9625 35.1396 34.3875 35.2071 34.7825 35.3421C35.1775 35.4771 35.5175 35.6746 35.8025 35.9346C36.0925 36.1896 36.32 36.5021 36.485 36.8721C36.65 37.2421 36.7325 37.6621 36.7325 38.1321C36.7325 38.5321 36.6725 38.9021 36.5525 39.2421C36.4325 39.5821 36.27 39.9096 36.065 40.2246C35.86 40.5346 35.6225 40.8371 35.3525 41.1321C35.0875 41.4221 34.805 41.7196 34.505 42.0246L31.6775 44.9196C31.8775 44.8646 32.08 44.8221 32.285 44.7921C32.49 44.7571 32.6875 44.7396 32.8775 44.7396H36.4775C36.6225 44.7396 36.7375 44.7821 36.8225 44.8671C36.9075 44.9521 36.95 45.0621 36.95 45.1971V46.0071H29.78V45.5496C29.78 45.4546 29.7975 45.3571 29.8325 45.2571C29.8725 45.1571 29.935 45.0646 30.02 44.9796L33.4625 41.5221C33.7475 41.2321 34.0075 40.9546 34.2425 40.6896C34.4775 40.4196 34.6775 40.1496 34.8425 39.8796C35.0125 39.6096 35.1425 39.3371 35.2325 39.0621C35.3225 38.7821 35.3675 38.4846 35.3675 38.1696C35.3675 37.8546 35.3175 37.5796 35.2175 37.3446C35.1175 37.1046 34.98 36.9071 34.805 36.7521C34.63 36.5971 34.425 36.4821 34.19 36.4071C33.955 36.3271 33.7025 36.2871 33.4325 36.2871C33.1625 36.2871 32.9125 36.3271 32.6825 36.4071C32.4525 36.4871 32.2475 36.5996 32.0675 36.7446C31.8925 36.8846 31.7425 37.0521 31.6175 37.2471C31.4975 37.4421 31.4125 37.6571 31.3625 37.8921C31.3225 38.0371 31.2625 38.1421 31.1825 38.2071C31.1025 38.2721 30.9975 38.3046 30.8675 38.3046C30.8425 38.3046 30.815 38.3046 30.785 38.3046C30.76 38.2996 30.73 38.2946 30.695 38.2896L29.9975 38.1696C30.0675 37.6796 30.2025 37.2471 30.4025 36.8721C30.6025 36.4921 30.855 36.1746 31.16 35.9196C31.47 35.6646 31.8225 35.4721 32.2175 35.3421C32.6175 35.2071 33.0475 35.1396 33.5075 35.1396ZM46.1387 40.6371C46.1387 41.5771 46.0362 42.3921 45.8312 43.0821C45.6312 43.7671 45.3562 44.3346 45.0062 44.7846C44.6562 45.2346 44.2412 45.5696 43.7612 45.7896C43.2862 46.0096 42.7762 46.1196 42.2312 46.1196C41.6812 46.1196 41.1687 46.0096 40.6937 45.7896C40.2237 45.5696 39.8137 45.2346 39.4637 44.7846C39.1137 44.3346 38.8387 43.7671 38.6387 43.0821C38.4387 42.3921 38.3387 41.5771 38.3387 40.6371C38.3387 39.6971 38.4387 38.8821 38.6387 38.1921C38.8387 37.5021 39.1137 36.9321 39.4637 36.4821C39.8137 36.0271 40.2237 35.6896 40.6937 35.4696C41.1687 35.2496 41.6812 35.1396 42.2312 35.1396C42.7762 35.1396 43.2862 35.2496 43.7612 35.4696C44.2412 35.6896 44.6562 36.0271 45.0062 36.4821C45.3562 36.9321 45.6312 37.5021 45.8312 38.1921C46.0362 38.8821 46.1387 39.6971 46.1387 40.6371ZM44.7512 40.6371C44.7512 39.8171 44.6812 39.1296 44.5412 38.5746C44.4062 38.0146 44.2212 37.5646 43.9862 37.2246C43.7562 36.8846 43.4887 36.6421 43.1837 36.4971C42.8787 36.3471 42.5612 36.2721 42.2312 36.2721C41.9012 36.2721 41.5837 36.3471 41.2787 36.4971C40.9737 36.6421 40.7062 36.8846 40.4762 37.2246C40.2462 37.5646 40.0612 38.0146 39.9212 38.5746C39.7862 39.1296 39.7187 39.8171 39.7187 40.6371C39.7187 41.4571 39.7862 42.1446 39.9212 42.6996C40.0612 43.2546 40.2462 43.7021 40.4762 44.0421C40.7062 44.3821 40.9737 44.6271 41.2787 44.7771C41.5837 44.9221 41.9012 44.9946 42.2312 44.9946C42.5612 44.9946 42.8787 44.9221 43.1837 44.7771C43.4887 44.6271 43.7562 44.3821 43.9862 44.0421C44.2212 43.7021 44.4062 43.2546 44.5412 42.6996C44.6812 42.1446 44.7512 41.4571 44.7512 40.6371ZM50.9602 46.0071V38.4096H51.7552C51.9452 38.4096 52.0652 38.5021 52.1152 38.6871L52.2127 39.4671C52.4927 39.1221 52.8052 38.8396 53.1502 38.6196C53.5002 38.3996 53.9052 38.2896 54.3652 38.2896C54.8802 38.2896 55.2952 38.4321 55.6102 38.7171C55.9302 39.0021 56.1602 39.3871 56.3002 39.8721C56.4052 39.5971 56.5427 39.3596 56.7127 39.1596C56.8877 38.9596 57.0827 38.7946 57.2977 38.6646C57.5127 38.5346 57.7402 38.4396 57.9802 38.3796C58.2252 38.3196 58.4727 38.2896 58.7227 38.2896C59.1227 38.2896 59.4777 38.3546 59.7877 38.4846C60.1027 38.6096 60.3677 38.7946 60.5827 39.0396C60.8027 39.2846 60.9702 39.5871 61.0852 39.9471C61.2002 40.3021 61.2577 40.7096 61.2577 41.1696V46.0071H59.9227V41.1696C59.9227 40.5746 59.7927 40.1246 59.5327 39.8196C59.2727 39.5096 58.8952 39.3546 58.4002 39.3546C58.1802 39.3546 57.9702 39.3946 57.7702 39.4746C57.5752 39.5496 57.4027 39.6621 57.2527 39.8121C57.1027 39.9621 56.9827 40.1521 56.8927 40.3821C56.8077 40.6071 56.7652 40.8696 56.7652 41.1696V46.0071H55.4302V41.1696C55.4302 40.5596 55.3077 40.1046 55.0627 39.8046C54.8177 39.5046 54.4602 39.3546 53.9902 39.3546C53.6602 39.3546 53.3527 39.4446 53.0677 39.6246C52.7877 39.7996 52.5302 40.0396 52.2952 40.3446V46.0071H50.9602ZM64.9521 38.4096V46.0071H63.6171V38.4096H64.9521ZM65.2521 36.0246C65.2521 36.1546 65.2246 36.2771 65.1696 36.3921C65.1196 36.5021 65.0496 36.6021 64.9596 36.6921C64.8746 36.7771 64.7746 36.8446 64.6596 36.8946C64.5446 36.9446 64.4221 36.9696 64.2921 36.9696C64.1621 36.9696 64.0396 36.9446 63.9246 36.8946C63.8146 36.8446 63.7146 36.7771 63.6246 36.6921C63.5396 36.6021 63.4721 36.5021 63.4221 36.3921C63.3721 36.2771 63.3471 36.1546 63.3471 36.0246C63.3471 35.8946 63.3721 35.7721 63.4221 35.6571C63.4721 35.5371 63.5396 35.4346 63.6246 35.3496C63.7146 35.2596 63.8146 35.1896 63.9246 35.1396C64.0396 35.0896 64.1621 35.0646 64.2921 35.0646C64.4221 35.0646 64.5446 35.0896 64.6596 35.1396C64.7746 35.1896 64.8746 35.2596 64.9596 35.3496C65.0496 35.4346 65.1196 35.5371 65.1696 35.6571C65.2246 35.7721 65.2521 35.8946 65.2521 36.0246ZM67.4925 46.0071V38.4096H68.2875C68.4775 38.4096 68.5975 38.5021 68.6475 38.6871L68.7525 39.5121C69.0825 39.1471 69.45 38.8521 69.855 38.6271C70.265 38.4021 70.7375 38.2896 71.2725 38.2896C71.6875 38.2896 72.0525 38.3596 72.3675 38.4996C72.6875 38.6346 72.9525 38.8296 73.1625 39.0846C73.3775 39.3346 73.54 39.6371 73.65 39.9921C73.76 40.3471 73.815 40.7396 73.815 41.1696V46.0071H72.48V41.1696C72.48 40.5946 72.3475 40.1496 72.0825 39.8346C71.8225 39.5146 71.4225 39.3546 70.8825 39.3546C70.4875 39.3546 70.1175 39.4496 69.7725 39.6396C69.4325 39.8296 69.1175 40.0871 68.8275 40.4121V46.0071H67.4925ZM77.1699 38.4096V43.2546C77.1699 43.8296 77.3024 44.2746 77.5674 44.5896C77.8324 44.9046 78.2324 45.0621 78.7674 45.0621C79.1574 45.0621 79.5249 44.9696 79.8699 44.7846C80.2149 44.5996 80.5324 44.3421 80.8224 44.0121V38.4096H82.1574V46.0071H81.3624C81.1724 46.0071 81.0524 45.9146 81.0024 45.7296L80.8974 44.9121C80.5674 45.2771 80.1974 45.5721 79.7874 45.7971C79.3774 46.0171 78.9074 46.1271 78.3774 46.1271C77.9624 46.1271 77.5949 46.0596 77.2749 45.9246C76.9599 45.7846 76.6949 45.5896 76.4799 45.3396C76.2649 45.0896 76.1024 44.7871 75.9924 44.4321C75.8874 44.0771 75.8349 43.6846 75.8349 43.2546V38.4096H77.1699ZM86.8399 46.1271C86.2399 46.1271 85.7774 45.9596 85.4524 45.6246C85.1324 45.2896 84.9724 44.8071 84.9724 44.1771V39.5271H84.0574C83.9774 39.5271 83.9099 39.5046 83.8549 39.4596C83.7999 39.4096 83.7724 39.3346 83.7724 39.2346V38.7021L85.0174 38.5446L85.3249 36.1971C85.3349 36.1221 85.3674 36.0621 85.4224 36.0171C85.4774 35.9671 85.5474 35.9421 85.6324 35.9421H86.3074V38.5596H88.4824V39.5271H86.3074V44.0871C86.3074 44.4071 86.3849 44.6446 86.5399 44.7996C86.6949 44.9546 86.8949 45.0321 87.1399 45.0321C87.2799 45.0321 87.3999 45.0146 87.4999 44.9796C87.6049 44.9396 87.6949 44.8971 87.7699 44.8521C87.8449 44.8071 87.9074 44.7671 87.9574 44.7321C88.0124 44.6921 88.0599 44.6721 88.0999 44.6721C88.1699 44.6721 88.2324 44.7146 88.2874 44.7996L88.6774 45.4371C88.4474 45.6521 88.1699 45.8221 87.8449 45.9471C87.5199 46.0671 87.1849 46.1271 86.8399 46.1271ZM93.3956 38.2896C93.9506 38.2896 94.4506 38.3821 94.8956 38.5671C95.3456 38.7521 95.7256 39.0146 96.0356 39.3546C96.3506 39.6946 96.5906 40.1071 96.7556 40.5921C96.9256 41.0721 97.0106 41.6096 97.0106 42.2046C97.0106 42.8046 96.9256 43.3446 96.7556 43.8246C96.5906 44.3046 96.3506 44.7146 96.0356 45.0546C95.7256 45.3946 95.3456 45.6571 94.8956 45.8421C94.4506 46.0221 93.9506 46.1121 93.3956 46.1121C92.8406 46.1121 92.3381 46.0221 91.8881 45.8421C91.4431 45.6571 91.0631 45.3946 90.7481 45.0546C90.4331 44.7146 90.1906 44.3046 90.0206 43.8246C89.8506 43.3446 89.7656 42.8046 89.7656 42.2046C89.7656 41.6096 89.8506 41.0721 90.0206 40.5921C90.1906 40.1071 90.4331 39.6946 90.7481 39.3546C91.0631 39.0146 91.4431 38.7521 91.8881 38.5671C92.3381 38.3821 92.8406 38.2896 93.3956 38.2896ZM93.3956 45.0696C94.1456 45.0696 94.7056 44.8196 95.0756 44.3196C95.4456 43.8146 95.6306 43.1121 95.6306 42.2121C95.6306 41.3071 95.4456 40.6021 95.0756 40.0971C94.7056 39.5921 94.1456 39.3396 93.3956 39.3396C93.0156 39.3396 92.6856 39.4046 92.4056 39.5346C92.1256 39.6646 91.8906 39.8521 91.7006 40.0971C91.5156 40.3421 91.3756 40.6446 91.2806 41.0046C91.1906 41.3596 91.1456 41.7621 91.1456 42.2121C91.1456 42.6621 91.1906 43.0646 91.2806 43.4196C91.3756 43.7746 91.5156 44.0746 91.7006 44.3196C91.8906 44.5596 92.1256 44.7446 92.4056 44.8746C92.6856 45.0046 93.0156 45.0696 93.3956 45.0696ZM103.193 39.6621C103.133 39.7721 103.041 39.8271 102.916 39.8271C102.841 39.8271 102.756 39.7996 102.661 39.7446C102.566 39.6896 102.448 39.6296 102.308 39.5646C102.173 39.4946 102.011 39.4321 101.821 39.3771C101.631 39.3171 101.406 39.2871 101.146 39.2871C100.921 39.2871 100.718 39.3171 100.538 39.3771C100.358 39.4321 100.203 39.5096 100.073 39.6096C99.948 39.7096 99.8505 39.8271 99.7805 39.9621C99.7155 40.0921 99.683 40.2346 99.683 40.3896C99.683 40.5846 99.738 40.7471 99.848 40.8771C99.963 41.0071 100.113 41.1196 100.298 41.2146C100.483 41.3096 100.693 41.3946 100.928 41.4696C101.163 41.5396 101.403 41.6171 101.648 41.7021C101.898 41.7821 102.141 41.8721 102.376 41.9721C102.611 42.0721 102.821 42.1971 103.006 42.3471C103.191 42.4971 103.338 42.6821 103.448 42.9021C103.563 43.1171 103.621 43.3771 103.621 43.6821C103.621 44.0321 103.558 44.3571 103.433 44.6571C103.308 44.9521 103.123 45.2096 102.878 45.4296C102.633 45.6446 102.333 45.8146 101.978 45.9396C101.623 46.0646 101.213 46.1271 100.748 46.1271C100.218 46.1271 99.738 46.0421 99.308 45.8721C98.878 45.6971 98.513 45.4746 98.213 45.2046L98.528 44.6946C98.568 44.6296 98.6155 44.5796 98.6705 44.5446C98.7255 44.5096 98.798 44.4921 98.888 44.4921C98.978 44.4921 99.073 44.5271 99.173 44.5971C99.273 44.6671 99.393 44.7446 99.533 44.8296C99.678 44.9146 99.8505 44.9921 100.051 45.0621C100.256 45.1321 100.511 45.1671 100.816 45.1671C101.076 45.1671 101.303 45.1346 101.498 45.0696C101.693 44.9996 101.856 44.9071 101.986 44.7921C102.116 44.6771 102.211 44.5446 102.271 44.3946C102.336 44.2446 102.368 44.0846 102.368 43.9146C102.368 43.7046 102.311 43.5321 102.196 43.3971C102.086 43.2571 101.938 43.1396 101.753 43.0446C101.568 42.9446 101.356 42.8596 101.116 42.7896C100.881 42.7146 100.638 42.6371 100.388 42.5571C100.143 42.4771 99.9005 42.3871 99.6605 42.2871C99.4255 42.1821 99.2155 42.0521 99.0305 41.8971C98.8455 41.7421 98.6955 41.5521 98.5805 41.3271C98.4705 41.0971 98.4155 40.8196 98.4155 40.4946C98.4155 40.2046 98.4755 39.9271 98.5955 39.6621C98.7155 39.3921 98.8905 39.1571 99.1205 38.9571C99.3505 38.7521 99.633 38.5896 99.968 38.4696C100.303 38.3496 100.686 38.2896 101.116 38.2896C101.616 38.2896 102.063 38.3696 102.458 38.5296C102.858 38.6846 103.203 38.8996 103.493 39.1746L103.193 39.6621Z" fill="#334717"/>
</svg>
