<svg width="50" height="50" viewBox="0 0 50 50" fill="none" xmlns="http://www.w3.org/2000/svg">
<g filter="url(#filter0_d)">
<path d="M25.6764 27.5478C25.451 27.5478 25.2256 27.5478 25.2256 27.344C22.0707 25.7134 17.789 23.0637 16.8876 18.172C16.4369 16.5414 16.8876 13.6879 18.6904 11.6497C19.8171 10.4267 21.8454 9 25.2256 9C30.4087 9 32.8876 12.0573 33.5637 14.9108C34.4651 18.3758 32.6623 22.8599 27.9299 24.6943C27.2538 24.8981 26.8031 24.6943 26.3524 24.0828C26.1271 23.4713 26.3524 23.0637 27.0284 22.6561C30.6341 21.2293 31.9862 17.7643 31.3102 15.1147C30.6341 12.465 28.3806 10.8344 25.2256 10.8344C23.1975 10.8344 21.6201 11.4458 20.4933 12.6688C19.1412 14.0955 18.9158 16.1338 19.1411 17.5605C19.8172 20.6178 22.0707 23.0637 26.3524 25.3057C26.8031 25.5096 27.0285 26.121 26.8031 26.7325C26.3524 27.344 26.1271 27.5478 25.6764 27.5478Z" fill="#24241C"/>
<path d="M39.8732 41H10.1268C9.4507 41 9 40.5923 9 39.9808C9 36.7197 9 32.0318 10.1268 29.7898C11.4789 26.5286 17.338 24.4904 18.0141 24.2866C18.4648 24.0828 19.1409 24.2866 19.3663 24.898C20.493 27.3439 22.7466 28.7707 25.0001 28.7707C27.2536 28.7707 29.2818 27.3439 30.6339 24.898C30.8592 24.4904 31.5352 24.0828 31.9859 24.2866C32.662 24.4904 38.5211 26.5286 39.8732 29.7898C40.7746 31.828 40.7746 34.07 40.5493 35.9044V36.9235C40.5493 37.535 40.0986 37.9426 39.4225 37.9426C38.7465 37.9426 38.2958 37.535 38.2958 36.9235V35.9044C38.2958 34.07 38.2958 32.2356 37.6197 30.605C36.9437 28.9745 33.7887 27.3439 31.9859 26.5286C30.4085 29.1783 27.7042 30.8089 24.7746 30.8089C21.8451 30.8089 19.3662 29.1783 17.5633 26.5286C15.7605 27.3439 12.6056 28.7706 11.9295 30.605C11.4788 31.828 11.0282 34.6815 11.0282 38.9617H39.8732C40.5493 38.9617 41 39.3694 41 39.9808C41 40.5923 40.5493 41 39.8732 41Z" fill="#24241C"/>
</g>
<defs>
<filter id="filter0_d" x="6" y="6" width="38" height="38" filterUnits="userSpaceOnUse" color-interpolation-filters="sRGB">
<feFlood flood-opacity="0" result="BackgroundImageFix"/>
<feColorMatrix in="SourceAlpha" type="matrix" values="0 0 0 0 0 0 0 0 0 0 0 0 0 0 0 0 0 0 127 0"/>
<feOffset/>
<feGaussianBlur stdDeviation="1.5"/>
<feColorMatrix type="matrix" values="0 0 0 0 0.545098 0 0 0 0 0.772549 0 0 0 0 0.247059 0 0 0 0.5 0"/>
<feBlend mode="normal" in2="BackgroundImageFix" result="effect1_dropShadow"/>
<feBlend mode="normal" in="SourceGraphic" in2="effect1_dropShadow" result="shape"/>
</filter>
</defs>
</svg>
