<svg width="95" height="76" viewBox="0 0 95 76" fill="none" xmlns="http://www.w3.org/2000/svg">
<g filter="url(#filter0_d)">
<rect x="4" width="87" height="68" rx="10" fill="#FCFFF8"/>
<path d="M32.5766 32C26.0034 32 20.6531 26.6497 20.6531 20.0764C20.6531 13.5032 26.0034 8.15283 32.5766 8.15283C39.1499 8.15283 44.5002 13.5032 44.5002 20.0764C44.5002 26.6497 39.1499 32 32.5766 32ZM32.5766 9.52866C26.7677 9.52866 22.1817 14.2675 22.1817 19.9235C22.1817 25.7325 26.9206 30.3184 32.5766 30.3184C38.2327 30.3184 42.9715 25.5796 42.9715 19.9235C42.9715 14.2675 38.2327 9.52866 32.5766 9.52866Z" fill="#8DC63F"/>
<path d="M36.5508 24.8153C36.398 24.8153 36.0923 24.8153 35.9394 24.6624L31.9648 20.6879C31.812 20.535 31.812 20.3822 31.812 20.0764V13.5032C31.812 13.0446 32.1177 12.7388 32.5763 12.7388C33.0349 12.7388 33.3407 13.0446 33.3407 13.5032V19.6178L37.1623 23.4395C37.4681 23.7452 37.4681 24.2038 37.1623 24.5095C36.8566 24.6624 36.7037 24.8153 36.5508 24.8153Z" fill="#8DC63F"/>
<path d="M43.7355 20.6878H41.7482C41.2896 20.6878 40.9839 20.3821 40.9839 19.9235C40.9839 19.4649 41.2896 19.1592 41.7482 19.1592H43.7355C44.1941 19.1592 44.4998 19.4649 44.4998 19.9235C44.4998 20.3821 44.1941 20.6878 43.7355 20.6878Z" fill="#8DC63F"/>
<path d="M23.2517 20.6878H21.2643C20.8057 20.6878 20.5 20.3821 20.5 19.9235C20.5 19.4649 20.8057 19.1592 21.2643 19.1592H23.2517C23.7103 19.1592 24.016 19.4649 24.016 19.9235C24.016 20.3821 23.7103 20.6878 23.2517 20.6878Z" fill="#8DC63F"/>
<path d="M32.5763 32C32.1177 32 31.812 31.6942 31.812 31.2356V29.2484C31.812 28.7898 32.1177 28.4841 32.5763 28.4841C33.0349 28.4841 33.3407 28.7898 33.3407 29.2484V31.2356C33.3407 31.6942 32.8821 32 32.5763 32Z" fill="#8DC63F"/>
<path d="M32.5763 11.5159C32.1177 11.5159 31.812 11.2102 31.812 10.7516V8.76433C31.812 8.30573 32.1177 8 32.5763 8C33.0349 8 33.3407 8.30573 33.3407 8.76433V10.7516C33.3407 11.2102 32.8821 11.5159 32.5763 11.5159Z" fill="#8DC63F"/>
<path d="M62.5766 32C56.0034 32 50.6531 26.6497 50.6531 20.0764C50.6531 13.5032 56.0034 8.15283 62.5766 8.15283C69.1499 8.15283 74.5002 13.5032 74.5002 20.0764C74.5002 26.6497 69.1499 32 62.5766 32ZM62.5766 9.52866C56.7677 9.52866 52.1817 14.2675 52.1817 19.9235C52.1817 25.7325 56.9206 30.3184 62.5766 30.3184C68.2327 30.3184 72.9715 25.5796 72.9715 19.9235C72.9715 14.2675 68.2327 9.52866 62.5766 9.52866Z" fill="#8DC63F"/>
<path d="M66.5508 24.8153C66.398 24.8153 66.0923 24.8153 65.9394 24.6624L61.9648 20.6879C61.812 20.535 61.812 20.3822 61.812 20.0764V13.5032C61.812 13.0446 62.1177 12.7388 62.5763 12.7388C63.0349 12.7388 63.3407 13.0446 63.3407 13.5032V19.6178L67.1623 23.4395C67.4681 23.7452 67.4681 24.2038 67.1623 24.5095C66.8566 24.6624 66.7037 24.8153 66.5508 24.8153Z" fill="#8DC63F"/>
<path d="M73.7355 20.6878H71.7482C71.2896 20.6878 70.9839 20.3821 70.9839 19.9235C70.9839 19.4649 71.2896 19.1592 71.7482 19.1592H73.7355C74.1941 19.1592 74.4998 19.4649 74.4998 19.9235C74.4998 20.3821 74.1941 20.6878 73.7355 20.6878Z" fill="#8DC63F"/>
<path d="M53.2517 20.6878H51.2643C50.8057 20.6878 50.5 20.3821 50.5 19.9235C50.5 19.4649 50.8057 19.1592 51.2643 19.1592H53.2517C53.7103 19.1592 54.016 19.4649 54.016 19.9235C54.016 20.3821 53.7103 20.6878 53.2517 20.6878Z" fill="#8DC63F"/>
<path d="M62.5763 32C62.1177 32 61.812 31.6942 61.812 31.2356V29.2484C61.812 28.7898 62.1177 28.4841 62.5763 28.4841C63.0349 28.4841 63.3407 28.7898 63.3407 29.2484V31.2356C63.3407 31.6942 62.8821 32 62.5763 32Z" fill="#8DC63F"/>
<path d="M62.5763 11.5159C62.1177 11.5159 61.812 11.2102 61.812 10.7516V8.76433C61.812 8.30573 62.1177 8 62.5763 8C63.0349 8 63.3407 8.30573 63.3407 8.76433V10.7516C63.3407 11.2102 62.8821 11.5159 62.5763 11.5159Z" fill="#8DC63F"/>
<path d="M14.5039 52.0479H16.6599V45.2089C16.6599 45.0036 16.6669 44.7959 16.6809 44.5859L14.8889 46.1189C14.8423 46.1563 14.7956 46.1843 14.7489 46.2029C14.7023 46.2169 14.6579 46.2239 14.6159 46.2239C14.5459 46.2239 14.4829 46.2099 14.4269 46.1819C14.3709 46.1493 14.3289 46.1119 14.3009 46.0699L13.9089 45.5309L16.8909 42.9479H17.9059V52.0479H19.8799V52.9999H14.5039V52.0479ZM27.612 43.5149C27.612 43.6923 27.556 43.8393 27.444 43.9559C27.332 44.0679 27.143 44.1239 26.877 44.1239H23.727L23.265 46.7559C23.7877 46.6439 24.2707 46.5879 24.714 46.5879C25.2367 46.5879 25.6963 46.6649 26.093 46.8189C26.4943 46.9729 26.8303 47.1853 27.101 47.4559C27.3717 47.7266 27.5747 48.0463 27.71 48.4149C27.85 48.7836 27.92 49.1849 27.92 49.6189C27.92 50.1509 27.8267 50.6316 27.64 51.0609C27.4533 51.4903 27.1967 51.8589 26.87 52.1669C26.548 52.4703 26.1677 52.7036 25.729 52.8669C25.2903 53.0303 24.8167 53.1119 24.308 53.1119C24.014 53.1119 23.7317 53.0816 23.461 53.0209C23.1903 52.9649 22.9383 52.8879 22.705 52.7899C22.4717 52.6919 22.2547 52.5799 22.054 52.4539C21.8533 52.3279 21.676 52.1949 21.522 52.0549L21.9 51.5229C21.984 51.4016 22.096 51.3409 22.236 51.3409C22.3247 51.3409 22.4273 51.3783 22.544 51.4529C22.6653 51.5229 22.81 51.6023 22.978 51.6909C23.146 51.7796 23.342 51.8613 23.566 51.9359C23.7947 52.0059 24.0653 52.0409 24.378 52.0409C24.728 52.0409 25.043 51.9849 25.323 51.8729C25.603 51.7609 25.841 51.6023 26.037 51.3969C26.2377 51.1869 26.3917 50.9373 26.499 50.6479C26.6063 50.3586 26.66 50.0343 26.66 49.6749C26.66 49.3623 26.6133 49.0799 26.52 48.8279C26.4313 48.5759 26.2937 48.3613 26.107 48.1839C25.925 48.0066 25.6963 47.8689 25.421 47.7709C25.1457 47.6729 24.8237 47.6239 24.455 47.6239C24.203 47.6239 23.9417 47.6449 23.671 47.6869C23.4003 47.7289 23.1203 47.7966 22.831 47.8899L22.047 47.6589L22.859 42.9689H27.612V43.5149ZM32.9161 52.9999V45.9089H33.6581C33.8355 45.9089 33.9475 45.9953 33.9941 46.1679L34.0851 46.8959C34.3465 46.5739 34.6381 46.3103 34.9601 46.1049C35.2868 45.8996 35.6648 45.7969 36.0941 45.7969C36.5748 45.7969 36.9621 45.9299 37.2561 46.1959C37.5548 46.4619 37.7695 46.8213 37.9001 47.2739C37.9981 47.0173 38.1265 46.7956 38.2851 46.6089C38.4485 46.4223 38.6305 46.2683 38.8311 46.1469C39.0318 46.0256 39.2441 45.9369 39.4681 45.8809C39.6968 45.8249 39.9278 45.7969 40.1611 45.7969C40.5345 45.7969 40.8658 45.8576 41.1551 45.9789C41.4491 46.0956 41.6965 46.2683 41.8971 46.4969C42.1025 46.7256 42.2588 47.0079 42.3661 47.3439C42.4735 47.6753 42.5271 48.0556 42.5271 48.4849V52.9999H41.2811V48.4849C41.2811 47.9296 41.1598 47.5096 40.9171 47.2249C40.6745 46.9356 40.3221 46.7909 39.8601 46.7909C39.6548 46.7909 39.4588 46.8283 39.2721 46.9029C39.0901 46.9729 38.9291 47.0779 38.7891 47.2179C38.6491 47.3579 38.5371 47.5353 38.4531 47.7499C38.3738 47.9599 38.3341 48.2049 38.3341 48.4849V52.9999H37.0881V48.4849C37.0881 47.9156 36.9738 47.4909 36.7451 47.2109C36.5165 46.9309 36.1828 46.7909 35.7441 46.7909C35.4361 46.7909 35.1491 46.8749 34.8831 47.0429C34.6218 47.2063 34.3815 47.4303 34.1621 47.7149V52.9999H32.9161ZM45.9502 45.9089V52.9999H44.7042V45.9089H45.9502ZM46.2302 43.6829C46.2302 43.8043 46.2045 43.9186 46.1532 44.0259C46.1065 44.1286 46.0412 44.2219 45.9572 44.3059C45.8779 44.3853 45.7845 44.4483 45.6772 44.4949C45.5699 44.5416 45.4555 44.5649 45.3342 44.5649C45.2129 44.5649 45.0985 44.5416 44.9912 44.4949C44.8885 44.4483 44.7952 44.3853 44.7112 44.3059C44.6319 44.2219 44.5689 44.1286 44.5222 44.0259C44.4755 43.9186 44.4522 43.8043 44.4522 43.6829C44.4522 43.5616 44.4755 43.4473 44.5222 43.3399C44.5689 43.2279 44.6319 43.1323 44.7112 43.0529C44.7952 42.9689 44.8885 42.9036 44.9912 42.8569C45.0985 42.8103 45.2129 42.7869 45.3342 42.7869C45.4555 42.7869 45.5699 42.8103 45.6772 42.8569C45.7845 42.9036 45.8779 42.9689 45.9572 43.0529C46.0412 43.1323 46.1065 43.2279 46.1532 43.3399C46.2045 43.4473 46.2302 43.5616 46.2302 43.6829ZM48.2962 52.9999V45.9089H49.0382C49.2156 45.9089 49.3276 45.9953 49.3742 46.1679L49.4722 46.9379C49.7802 46.5973 50.1232 46.3219 50.5012 46.1119C50.8839 45.9019 51.3249 45.7969 51.8242 45.7969C52.2116 45.7969 52.5522 45.8623 52.8462 45.9929C53.1449 46.1189 53.3922 46.3009 53.5882 46.5389C53.7889 46.7723 53.9406 47.0546 54.0432 47.3859C54.1459 47.7173 54.1972 48.0836 54.1972 48.4849V52.9999H52.9512V48.4849C52.9512 47.9483 52.8276 47.5329 52.5802 47.2389C52.3376 46.9403 51.9642 46.7909 51.4602 46.7909C51.0916 46.7909 50.7462 46.8796 50.4242 47.0569C50.1069 47.2343 49.8129 47.4746 49.5422 47.7779V52.9999H48.2962ZM57.3035 45.9089V50.4309C57.3035 50.9676 57.4272 51.3829 57.6745 51.6769C57.9219 51.9709 58.2952 52.1179 58.7945 52.1179C59.1585 52.1179 59.5015 52.0316 59.8235 51.8589C60.1455 51.6863 60.4419 51.4459 60.7125 51.1379V45.9089H61.9585V52.9999H61.2165C61.0392 52.9999 60.9272 52.9136 60.8805 52.7409L60.7825 51.9779C60.4745 52.3186 60.1292 52.5939 59.7465 52.8039C59.3639 53.0093 58.9252 53.1119 58.4305 53.1119C58.0432 53.1119 57.7002 53.0489 57.4015 52.9229C57.1075 52.7923 56.8602 52.6103 56.6595 52.3769C56.4589 52.1436 56.3072 51.8613 56.2045 51.5299C56.1065 51.1986 56.0575 50.8323 56.0575 50.4309V45.9089H57.3035ZM66.3038 53.1119C65.7438 53.1119 65.3121 52.9556 65.0088 52.6429C64.7101 52.3303 64.5608 51.8799 64.5608 51.2919V46.9519H63.7068C63.6321 46.9519 63.5691 46.9309 63.5178 46.8889C63.4665 46.8423 63.4408 46.7723 63.4408 46.6789V46.1819L64.6028 46.0349L64.8898 43.8439C64.8991 43.7739 64.9295 43.7179 64.9808 43.6759C65.0321 43.6293 65.0975 43.6059 65.1768 43.6059H65.8068V46.0489H67.8368V46.9519H65.8068V51.2079C65.8068 51.5066 65.8791 51.7283 66.0238 51.8729C66.1685 52.0176 66.3551 52.0899 66.5838 52.0899C66.7145 52.0899 66.8265 52.0736 66.9198 52.0409C67.0178 52.0036 67.1018 51.9639 67.1718 51.9219C67.2418 51.8799 67.3001 51.8426 67.3468 51.8099C67.3981 51.7726 67.4425 51.7539 67.4798 51.7539C67.5451 51.7539 67.6035 51.7936 67.6548 51.8729L68.0188 52.4679C67.8041 52.6686 67.5451 52.8273 67.2418 52.9439C66.9385 53.0559 66.6258 53.1119 66.3038 53.1119ZM72.3975 45.7969C72.9155 45.7969 73.3821 45.8833 73.7975 46.0559C74.2175 46.2286 74.5721 46.4736 74.8615 46.7909C75.1555 47.1083 75.3795 47.4933 75.5335 47.9459C75.6921 48.3939 75.7715 48.8956 75.7715 49.4509C75.7715 50.0109 75.6921 50.5149 75.5335 50.9629C75.3795 51.4109 75.1555 51.7936 74.8615 52.1109C74.5721 52.4283 74.2175 52.6733 73.7975 52.8459C73.3821 53.0139 72.9155 53.0979 72.3975 53.0979C71.8795 53.0979 71.4105 53.0139 70.9905 52.8459C70.5751 52.6733 70.2205 52.4283 69.9265 52.1109C69.6325 51.7936 69.4061 51.4109 69.2475 50.9629C69.0888 50.5149 69.0095 50.0109 69.0095 49.4509C69.0095 48.8956 69.0888 48.3939 69.2475 47.9459C69.4061 47.4933 69.6325 47.1083 69.9265 46.7909C70.2205 46.4736 70.5751 46.2286 70.9905 46.0559C71.4105 45.8833 71.8795 45.7969 72.3975 45.7969ZM72.3975 52.1249C73.0975 52.1249 73.6201 51.8916 73.9655 51.4249C74.3108 50.9536 74.4835 50.2979 74.4835 49.4579C74.4835 48.6133 74.3108 47.9553 73.9655 47.4839C73.6201 47.0126 73.0975 46.7769 72.3975 46.7769C72.0428 46.7769 71.7348 46.8376 71.4735 46.9589C71.2121 47.0803 70.9928 47.2553 70.8155 47.4839C70.6428 47.7126 70.5121 47.9949 70.4235 48.3309C70.3395 48.6623 70.2975 49.0379 70.2975 49.4579C70.2975 49.8779 70.3395 50.2536 70.4235 50.5849C70.5121 50.9163 70.6428 51.1963 70.8155 51.4249C70.9928 51.6489 71.2121 51.8216 71.4735 51.9429C71.7348 52.0643 72.0428 52.1249 72.3975 52.1249ZM81.5168 47.0779C81.4608 47.1806 81.3744 47.2319 81.2578 47.2319C81.1878 47.2319 81.1084 47.2063 81.0198 47.1549C80.9311 47.1036 80.8214 47.0476 80.6908 46.9869C80.5648 46.9216 80.4131 46.8633 80.2358 46.8119C80.0584 46.7559 79.8484 46.7279 79.6058 46.7279C79.3958 46.7279 79.2068 46.7559 79.0388 46.8119C78.8708 46.8633 78.7261 46.9356 78.6048 47.0289C78.4881 47.1223 78.3971 47.2319 78.3318 47.3579C78.2711 47.4793 78.2408 47.6123 78.2408 47.7569C78.2408 47.9389 78.2921 48.0906 78.3948 48.2119C78.5021 48.3333 78.6421 48.4383 78.8148 48.5269C78.9874 48.6156 79.1834 48.6949 79.4028 48.7649C79.6221 48.8303 79.8461 48.9026 80.0748 48.9819C80.3081 49.0566 80.5344 49.1406 80.7538 49.2339C80.9731 49.3273 81.1691 49.4439 81.3418 49.5839C81.5144 49.7239 81.6521 49.8966 81.7548 50.1019C81.8621 50.3026 81.9158 50.5453 81.9158 50.8299C81.9158 51.1566 81.8574 51.4599 81.7408 51.7399C81.6241 52.0153 81.4514 52.2556 81.2228 52.4609C80.9941 52.6616 80.7141 52.8203 80.3828 52.9369C80.0514 53.0536 79.6688 53.1119 79.2348 53.1119C78.7401 53.1119 78.2921 53.0326 77.8908 52.8739C77.4894 52.7106 77.1488 52.5029 76.8688 52.2509L77.1628 51.7749C77.2001 51.7143 77.2444 51.6676 77.2958 51.6349C77.3471 51.6023 77.4148 51.5859 77.4988 51.5859C77.5828 51.5859 77.6714 51.6186 77.7648 51.6839C77.8581 51.7493 77.9701 51.8216 78.1008 51.9009C78.2361 51.9803 78.3971 52.0526 78.5838 52.1179C78.7751 52.1833 79.0131 52.2159 79.2978 52.2159C79.5404 52.2159 79.7528 52.1856 79.9348 52.1249C80.1168 52.0596 80.2684 51.9733 80.3898 51.8659C80.5111 51.7586 80.5998 51.6349 80.6558 51.4949C80.7164 51.3549 80.7468 51.2056 80.7468 51.0469C80.7468 50.8509 80.6931 50.6899 80.5858 50.5639C80.4831 50.4333 80.3454 50.3236 80.1728 50.2349C80.0001 50.1416 79.8018 50.0623 79.5778 49.9969C79.3584 49.9269 79.1321 49.8546 78.8988 49.7799C78.6701 49.7053 78.4438 49.6213 78.2198 49.5279C78.0004 49.4299 77.8044 49.3086 77.6318 49.1639C77.4591 49.0193 77.3191 48.8419 77.2118 48.6319C77.1091 48.4173 77.0578 48.1583 77.0578 47.8549C77.0578 47.5843 77.1138 47.3253 77.2258 47.0779C77.3378 46.8259 77.5011 46.6066 77.7158 46.4199C77.9304 46.2286 78.1941 46.0769 78.5068 45.9649C78.8194 45.8529 79.1764 45.7969 79.5778 45.7969C80.0444 45.7969 80.4621 45.8716 80.8308 46.0209C81.2041 46.1656 81.5261 46.3663 81.7968 46.6229L81.5168 47.0779Z" fill="black"/>
<rect x="4.5" y="0.5" width="86" height="67" rx="9.5" stroke="#8DC63F"/>
</g>
<defs>
<filter id="filter0_d" x="0" y="0" width="95" height="76" filterUnits="userSpaceOnUse" color-interpolation-filters="sRGB">
<feFlood flood-opacity="0" result="BackgroundImageFix"/>
<feColorMatrix in="SourceAlpha" type="matrix" values="0 0 0 0 0 0 0 0 0 0 0 0 0 0 0 0 0 0 127 0"/>
<feOffset dy="4"/>
<feGaussianBlur stdDeviation="2"/>
<feColorMatrix type="matrix" values="0 0 0 0 0 0 0 0 0 0 0 0 0 0 0 0 0 0 0.25 0"/>
<feBlend mode="normal" in2="BackgroundImageFix" result="effect1_dropShadow"/>
<feBlend mode="normal" in="SourceGraphic" in2="effect1_dropShadow" result="shape"/>
</filter>
</defs>
</svg>
