<svg width="50" height="50" viewBox="0 0 50 50" fill="none" xmlns="http://www.w3.org/2000/svg">
<g filter="url(#filter0_d)">
<path d="M28.3632 34.07C25.1021 34.07 21.8409 32.847 19.395 30.4012C14.5033 25.5095 14.5033 17.5604 19.395 12.6686C21.8409 10.2228 24.8982 8.99988 28.3632 8.99988C31.6244 8.99988 34.8854 10.2228 37.3313 12.6686C42.223 17.5604 42.223 25.5095 37.3313 30.4012C34.8854 32.847 31.6244 34.07 28.3632 34.07ZM28.3632 11.0381C25.5097 11.0381 22.8599 12.0572 21.0255 14.0954C16.9491 18.1719 16.9491 24.898 21.0255 28.9744C23.0638 31.0126 25.7135 32.0317 28.3632 32.0317C31.2167 32.0317 33.8664 31.0126 35.7008 28.9744C39.7772 24.898 39.7772 18.1719 35.7008 14.0954C33.8664 12.0572 31.2167 11.0381 28.3632 11.0381Z" fill="#24241C"/>
<path d="M35.2927 22.656C34.6813 22.656 34.2736 22.2483 34.2736 21.6369C34.2736 18.3757 31.624 15.726 28.3629 15.726C25.1017 15.726 22.452 18.3757 22.452 21.6369C22.452 22.2483 22.0443 22.656 21.4329 22.656C20.8214 22.656 20.4138 22.2483 20.4138 21.6369C20.4138 17.1528 24.0826 13.484 28.5666 13.484C33.0507 13.484 36.7195 17.1528 36.7195 21.6369C36.3119 22.0445 35.9042 22.656 35.2927 22.656Z" fill="#24241C"/>
<path d="M12.8725 41C11.8534 41 10.8343 40.5924 10.2229 39.7771C9.40759 38.9618 9 37.9427 9 36.9236C9 35.9045 9.40759 34.8853 10.2229 34.2739L15.5222 28.9745C15.9298 28.5669 16.5413 28.5669 16.949 28.9745C17.3566 29.3821 17.3566 29.9936 16.949 30.4013L11.6497 35.7006C11.242 36.1083 11.0382 36.5159 11.0382 36.9236C11.0382 37.3312 11.242 37.9427 11.6497 38.1465C12.4649 38.9618 13.6879 38.9618 14.2993 38.1465L19.5986 32.8471C20.0063 32.4395 20.6178 32.4395 21.0254 32.8471C21.4331 33.2548 21.4331 33.8662 21.0254 34.2739L15.7261 39.5733C14.9108 40.5924 13.8917 41 12.8725 41Z" fill="#24241C"/>
</g>
<defs>
<filter id="filter0_d" x="6" y="5.99988" width="38.0001" height="38.0001" filterUnits="userSpaceOnUse" color-interpolation-filters="sRGB">
<feFlood flood-opacity="0" result="BackgroundImageFix"/>
<feColorMatrix in="SourceAlpha" type="matrix" values="0 0 0 0 0 0 0 0 0 0 0 0 0 0 0 0 0 0 127 0"/>
<feOffset/>
<feGaussianBlur stdDeviation="1.5"/>
<feColorMatrix type="matrix" values="0 0 0 0 0.545098 0 0 0 0 0.772549 0 0 0 0 0.247059 0 0 0 0.5 0"/>
<feBlend mode="normal" in2="BackgroundImageFix" result="effect1_dropShadow"/>
<feBlend mode="normal" in="SourceGraphic" in2="effect1_dropShadow" result="shape"/>
</filter>
</defs>
</svg>
