<svg width="64" height="70" viewBox="0 0 64 70" fill="none" xmlns="http://www.w3.org/2000/svg">
<rect width="64" height="70" rx="10" fill="white"/>
<path d="M18 38C14.7945 38 11.781 36.7517 9.5147 34.4852C7.24823 32.2188 6 29.2054 6 26C6 22.7945 7.24823 19.7812 9.5147 17.5147C11.7812 15.2482 14.7945 14 18 14C21.2054 14 24.2188 15.2482 26.4852 17.5147C28.7517 19.7812 30 22.7945 30 26C30 29.2054 28.7517 32.219 26.4852 34.4854C24.2188 36.7517 21.2054 38 18 38ZM18 14.9375C11.9 14.9375 6.9375 19.9002 6.9375 26C6.9375 32.0999 11.9 37.0625 18 37.0625C24.0999 37.0625 29.0625 32.0999 29.0625 26C29.0625 19.9002 24.0999 14.9375 18 14.9375Z" fill="#8DC63F"/>
<path d="M18.0116 34.8093C16.5531 34.8093 15.0991 34.4491 13.8188 33.7594C13.591 33.6365 13.5057 33.3523 13.6286 33.1244C13.7512 32.8964 14.0356 32.8113 14.2636 32.9341C17.2996 34.5702 21.1253 34.0077 23.5664 31.5663C25.054 30.079 25.8732 28.1011 25.8732 25.9975C25.8732 23.8938 25.054 21.9161 23.5664 20.4286C20.4959 17.3581 15.4993 17.3579 12.4287 20.4288C9.98751 22.8699 9.42501 26.6954 11.0609 29.7314C11.1837 29.9594 11.0986 30.2436 10.8706 30.3664C10.6428 30.4891 10.3583 30.404 10.2356 30.1762C9.35506 28.5422 9.01192 26.6245 9.269 24.7766C9.53487 22.8661 10.3982 21.1332 11.7658 19.7657C15.202 16.3294 20.7931 16.3294 24.2295 19.7657C25.8941 21.4303 26.8107 23.6434 26.8107 25.9975C26.8107 28.3515 25.8939 30.5647 24.2295 32.2294C22.8618 33.597 21.1291 34.4603 19.2186 34.7262C18.8183 34.7818 18.4148 34.8093 18.0116 34.8093Z" fill="#8DC63F"/>
<path d="M12.0923 32.3714C11.9729 32.3714 11.8537 32.3261 11.7622 32.2355C11.5783 32.0531 11.5772 31.7563 11.7594 31.5725L11.7647 31.5672C11.9471 31.3833 12.2439 31.3821 12.4278 31.5644C12.6116 31.7466 12.6127 32.0434 12.4305 32.2273L12.4252 32.2326C12.3335 32.325 12.213 32.3714 12.0923 32.3714Z" fill="#8DC63F"/>
<path d="M19.9247 29.4127C19.4661 29.6857 18.9726 29.8241 18.4579 29.8241C17.1349 29.8241 15.9944 28.8921 15.485 27.5582H17.9175C18.1765 27.5582 18.3863 27.3483 18.3863 27.0894C18.3863 26.8305 18.1765 26.6207 17.9175 26.6207H15.2446C15.2162 26.4178 15.2008 26.21 15.2008 25.9979C15.2008 25.8337 15.2105 25.6722 15.2277 25.5132H18.6285C18.8874 25.5132 19.0975 25.3034 19.0975 25.0445C19.0975 24.7856 18.8874 24.5757 18.6285 24.5757H15.435C15.9166 23.1684 17.0897 22.1718 18.4579 22.1718C18.9726 22.1718 19.4661 22.3102 19.9247 22.5832C20.1472 22.7156 20.4349 22.6425 20.5673 22.42C20.6996 22.1976 20.6268 21.9099 20.4043 21.7775C19.807 21.4221 19.1341 21.2343 18.4579 21.2343C16.5809 21.2343 14.988 22.6414 14.4541 24.5757H13.5657C13.3069 24.5757 13.0969 24.7856 13.0969 25.0445C13.0969 25.3034 13.3069 25.5132 13.5657 25.5132H14.2847C14.2704 25.6725 14.2631 25.8342 14.2631 25.9979C14.2631 26.2089 14.2754 26.4167 14.299 26.6207H13.5657C13.3069 26.6207 13.0969 26.8305 13.0969 27.0894C13.0969 27.3483 13.3069 27.5582 13.5657 27.5582H14.4944C15.0648 29.4207 16.6259 30.7614 18.4579 30.7614C19.1339 30.7614 19.807 30.5735 20.4041 30.2181C20.6266 30.0858 20.6996 29.7981 20.5673 29.5756C20.4349 29.3531 20.1472 29.2801 19.9247 29.4127Z" fill="#8DC63F"/>
<path d="M46 38C42.7945 38 39.781 36.7517 37.5147 34.4852C35.2482 32.2188 34 29.2054 34 26C34 22.7945 35.2482 19.7812 37.5147 17.5147C39.7812 15.2482 42.7945 14 46 14C49.2054 14 52.2188 15.2482 54.4852 17.5147C56.7517 19.7812 58 22.7945 58 26C58 29.2054 56.7517 32.219 54.4852 34.4854C52.2188 36.7517 49.2054 38 46 38ZM46 14.9375C39.9 14.9375 34.9375 19.9002 34.9375 26C34.9375 32.0999 39.9 37.0625 46 37.0625C52.0999 37.0625 57.0625 32.0999 57.0625 26C57.0625 19.9002 52.0999 14.9375 46 14.9375Z" fill="#8DC63F"/>
<path d="M46.0116 34.8093C44.5531 34.8093 43.0991 34.4491 41.8188 33.7594C41.591 33.6365 41.5057 33.3523 41.6286 33.1244C41.7512 32.8964 42.0356 32.8113 42.2636 32.9341C45.2996 34.5702 49.1253 34.0077 51.5664 31.5663C53.054 30.079 53.8732 28.1011 53.8732 25.9975C53.8732 23.8938 53.054 21.9161 51.5664 20.4286C48.4959 17.3581 43.4993 17.3579 40.4287 20.4288C37.9875 22.8699 37.425 26.6954 39.0609 29.7314C39.1837 29.9594 39.0986 30.2436 38.8706 30.3664C38.6428 30.4891 38.3583 30.404 38.2356 30.1762C37.3551 28.5422 37.0119 26.6245 37.269 24.7766C37.5349 22.8661 38.3982 21.1332 39.7658 19.7657C43.202 16.3294 48.7931 16.3294 52.2295 19.7657C53.8941 21.4303 54.8107 23.6434 54.8107 25.9975C54.8107 28.3515 53.8939 30.5647 52.2295 32.2294C50.8618 33.597 49.1291 34.4603 47.2186 34.7262C46.8183 34.7818 46.4148 34.8093 46.0116 34.8093Z" fill="#8DC63F"/>
<path d="M40.0923 32.3714C39.9729 32.3714 39.8537 32.3261 39.7622 32.2355C39.5783 32.0531 39.5772 31.7563 39.7594 31.5725L39.7647 31.5672C39.9471 31.3833 40.2439 31.3821 40.4278 31.5644C40.6116 31.7466 40.6127 32.0434 40.4305 32.2273L40.4252 32.2326C40.3335 32.325 40.213 32.3714 40.0923 32.3714Z" fill="#8DC63F"/>
<path d="M47.9247 29.4127C47.4661 29.6857 46.9726 29.8241 46.4579 29.8241C45.1349 29.8241 43.9944 28.8921 43.485 27.5582H45.9175C46.1765 27.5582 46.3863 27.3483 46.3863 27.0894C46.3863 26.8305 46.1765 26.6207 45.9175 26.6207H43.2446C43.2162 26.4178 43.2008 26.21 43.2008 25.9979C43.2008 25.8337 43.2105 25.6722 43.2277 25.5132H46.6285C46.8874 25.5132 47.0975 25.3034 47.0975 25.0445C47.0975 24.7856 46.8874 24.5757 46.6285 24.5757H43.435C43.9166 23.1684 45.0897 22.1718 46.4579 22.1718C46.9726 22.1718 47.4661 22.3102 47.9247 22.5832C48.1472 22.7156 48.4349 22.6425 48.5673 22.42C48.6996 22.1976 48.6268 21.9099 48.4043 21.7775C47.807 21.4221 47.1341 21.2343 46.4579 21.2343C44.5809 21.2343 42.988 22.6414 42.4541 24.5757H41.5657C41.3069 24.5757 41.0969 24.7856 41.0969 25.0445C41.0969 25.3034 41.3069 25.5132 41.5657 25.5132H42.2847C42.2704 25.6725 42.2631 25.8342 42.2631 25.9979C42.2631 26.2089 42.2754 26.4167 42.299 26.6207H41.5657C41.3069 26.6207 41.0969 26.8305 41.0969 27.0894C41.0969 27.3483 41.3069 27.5582 41.5657 27.5582H42.4944C43.0648 29.4207 44.6259 30.7614 46.4579 30.7614C47.1339 30.7614 47.807 30.5735 48.4041 30.2181C48.6266 30.0858 48.6996 29.7981 48.5673 29.5756C48.4349 29.3531 48.1472 29.2801 47.9247 29.4127Z" fill="#8DC63F"/>
<path d="M17.7995 52.685C17.8648 52.797 17.9208 52.916 17.9675 53.042C18.0188 53.1633 18.0678 53.287 18.1145 53.413C18.1611 53.2823 18.2101 53.1587 18.2615 53.042C18.3128 52.9207 18.3711 52.7993 18.4365 52.678L21.8315 46.511C21.8921 46.4037 21.9551 46.3383 22.0205 46.315C22.0858 46.2917 22.1791 46.28 22.3005 46.28H23.3015V56.311H22.1115V48.94C22.1115 48.842 22.1138 48.737 22.1185 48.625C22.1231 48.513 22.1301 48.3987 22.1395 48.282L18.7025 54.554C18.5858 54.764 18.4225 54.869 18.2125 54.869H18.0165C17.8065 54.869 17.6431 54.764 17.5265 54.554L14.0125 48.261C14.0265 48.3823 14.0358 48.5013 14.0405 48.618C14.0498 48.7347 14.0545 48.842 14.0545 48.94V56.311H12.8645V46.28H13.8655C13.9868 46.28 14.0801 46.2917 14.1455 46.315C14.2108 46.3383 14.2738 46.4037 14.3345 46.511L17.7995 52.685Z" fill="black"/>
<path d="M28.5044 49.108C28.929 49.108 29.321 49.1803 29.6804 49.325C30.0397 49.465 30.35 49.6703 30.6114 49.941C30.8727 50.207 31.0757 50.5383 31.2204 50.935C31.3697 51.327 31.4444 51.775 31.4444 52.279C31.4444 52.475 31.4234 52.6057 31.3814 52.671C31.3394 52.7363 31.26 52.769 31.1434 52.769H26.4254C26.4347 53.217 26.4954 53.6067 26.6074 53.938C26.7194 54.2693 26.8734 54.547 27.0694 54.771C27.2654 54.9903 27.4987 55.156 27.7694 55.268C28.04 55.3753 28.3434 55.429 28.6794 55.429C28.992 55.429 29.2604 55.394 29.4844 55.324C29.713 55.2493 29.909 55.17 30.0724 55.086C30.2357 55.002 30.371 54.925 30.4784 54.855C30.5904 54.7803 30.686 54.743 30.7654 54.743C30.868 54.743 30.9474 54.7827 31.0034 54.862L31.3534 55.317C31.1994 55.5037 31.015 55.667 30.8004 55.807C30.5857 55.9423 30.3547 56.0543 30.1074 56.143C29.8647 56.2317 29.6127 56.297 29.3514 56.339C29.09 56.3857 28.831 56.409 28.5744 56.409C28.0844 56.409 27.6317 56.3273 27.2164 56.164C26.8057 55.996 26.4487 55.7533 26.1454 55.436C25.8467 55.114 25.6134 54.7173 25.4454 54.246C25.2774 53.7747 25.1934 53.2333 25.1934 52.622C25.1934 52.1273 25.268 51.6653 25.4174 51.236C25.5714 50.8067 25.7907 50.4357 26.0754 50.123C26.36 49.8057 26.7077 49.5583 27.1184 49.381C27.529 49.199 27.991 49.108 28.5044 49.108ZM28.5324 50.025C27.9304 50.025 27.4567 50.2 27.1114 50.55C26.766 50.8953 26.5514 51.376 26.4674 51.992H30.3244C30.3244 51.7027 30.2847 51.439 30.2054 51.201C30.126 50.9583 30.0094 50.7507 29.8554 50.578C29.7014 50.4007 29.5124 50.2653 29.2884 50.172C29.069 50.074 28.817 50.025 28.5324 50.025Z" fill="black"/>
<path d="M38.1802 56.311C38.0028 56.311 37.8908 56.2247 37.8442 56.052L37.7322 55.191C37.4288 55.5597 37.0812 55.856 36.6892 56.08C36.3018 56.2993 35.8562 56.409 35.3522 56.409C34.9462 56.409 34.5775 56.332 34.2462 56.178C33.9148 56.0193 33.6325 55.7883 33.3992 55.485C33.1658 55.1817 32.9862 54.8037 32.8602 54.351C32.7342 53.8983 32.6712 53.378 32.6712 52.79C32.6712 52.2673 32.7412 51.782 32.8812 51.334C33.0212 50.8813 33.2218 50.4893 33.4832 50.158C33.7492 49.8267 34.0712 49.5677 34.4492 49.381C34.8272 49.1897 35.2565 49.094 35.7372 49.094C36.1712 49.094 36.5422 49.1687 36.8502 49.318C37.1582 49.4627 37.4335 49.668 37.6762 49.934V46H38.9222V56.311H38.1802ZM35.7652 55.401C36.1712 55.401 36.5258 55.3077 36.8292 55.121C37.1372 54.9343 37.4195 54.6707 37.6762 54.33V50.9C37.4475 50.592 37.1955 50.3773 36.9202 50.256C36.6495 50.13 36.3485 50.067 36.0172 50.067C35.3545 50.067 34.8458 50.3027 34.4912 50.774C34.1365 51.2453 33.9592 51.9173 33.9592 52.79C33.9592 53.252 33.9988 53.6487 34.0782 53.98C34.1575 54.3067 34.2742 54.5773 34.4282 54.792C34.5822 55.002 34.7712 55.156 34.9952 55.254C35.2192 55.352 35.4758 55.401 35.7652 55.401Z" fill="black"/>
<path d="M42.5455 49.22V56.311H41.2995V49.22H42.5455ZM42.8255 46.994C42.8255 47.1153 42.7998 47.2297 42.7485 47.337C42.7018 47.4397 42.6365 47.533 42.5525 47.617C42.4732 47.6963 42.3798 47.7593 42.2725 47.806C42.1652 47.8527 42.0508 47.876 41.9295 47.876C41.8082 47.876 41.6938 47.8527 41.5865 47.806C41.4838 47.7593 41.3905 47.6963 41.3065 47.617C41.2272 47.533 41.1642 47.4397 41.1175 47.337C41.0708 47.2297 41.0475 47.1153 41.0475 46.994C41.0475 46.8727 41.0708 46.7583 41.1175 46.651C41.1642 46.539 41.2272 46.4433 41.3065 46.364C41.3905 46.28 41.4838 46.2147 41.5865 46.168C41.6938 46.1213 41.8082 46.098 41.9295 46.098C42.0508 46.098 42.1652 46.1213 42.2725 46.168C42.3798 46.2147 42.4732 46.28 42.5525 46.364C42.6365 46.4433 42.7018 46.539 42.7485 46.651C42.7998 46.7583 42.8255 46.8727 42.8255 46.994Z" fill="black"/>
<path d="M47.7615 49.108C48.2795 49.108 48.7462 49.1943 49.1615 49.367C49.5815 49.5397 49.9362 49.7847 50.2255 50.102C50.5195 50.4193 50.7435 50.8043 50.8975 51.257C51.0562 51.705 51.1355 52.2067 51.1355 52.762C51.1355 53.322 51.0562 53.826 50.8975 54.274C50.7435 54.722 50.5195 55.1047 50.2255 55.422C49.9362 55.7393 49.5815 55.9843 49.1615 56.157C48.7462 56.325 48.2795 56.409 47.7615 56.409C47.2435 56.409 46.7745 56.325 46.3545 56.157C45.9392 55.9843 45.5845 55.7393 45.2905 55.422C44.9965 55.1047 44.7702 54.722 44.6115 54.274C44.4529 53.826 44.3735 53.322 44.3735 52.762C44.3735 52.2067 44.4529 51.705 44.6115 51.257C44.7702 50.8043 44.9965 50.4193 45.2905 50.102C45.5845 49.7847 45.9392 49.5397 46.3545 49.367C46.7745 49.1943 47.2435 49.108 47.7615 49.108ZM47.7615 55.436C48.4615 55.436 48.9842 55.2027 49.3295 54.736C49.6749 54.2647 49.8475 53.609 49.8475 52.769C49.8475 51.9243 49.6749 51.2663 49.3295 50.795C48.9842 50.3237 48.4615 50.088 47.7615 50.088C47.4069 50.088 47.0989 50.1487 46.8375 50.27C46.5762 50.3913 46.3569 50.5663 46.1795 50.795C46.0069 51.0237 45.8762 51.306 45.7875 51.642C45.7035 51.9733 45.6615 52.349 45.6615 52.769C45.6615 53.189 45.7035 53.5647 45.7875 53.896C45.8762 54.2273 46.0069 54.5073 46.1795 54.736C46.3569 54.96 46.5762 55.1327 46.8375 55.254C47.0989 55.3753 47.4069 55.436 47.7615 55.436Z" fill="black"/>
</svg>
