<svg width="115" height="94" viewBox="0 0 115 94" fill="none" xmlns="http://www.w3.org/2000/svg">
<path d="M110.4 56.3C110.4 25.2 86.3999 0 56.7999 0C27.1999 0 3.19995 25.2 3.19995 56.3C3.19995 60.4 3.59995 64.4 4.39995 68.2H109.1C109.9 64.4 110.4 60.4 110.4 56.3Z" fill="#8EC044"/>
<path d="M103.4 75.6C103.4 85.7 82.7001 93.8 57.1 93.8C31.5 93.8 10.8 85.7 10.8 75.6C10.8 65.5 31.5 57.4 57.1 57.4C82.7001 57.4 103.4 65.5 103.4 75.6Z" fill="#646363"/>
<path d="M114.2 66.7C114.2 80.1 89.6 90.5 57.4 90.5C25.2 90.5 0.199951 80.1 0.199951 66.7C0.199951 53.3 25.2 42 57.4 42C89.6 41.9 114.2 53.3 114.2 66.7Z" fill="url(#paint0_linear)"/>
<path d="M56.8 92.1C24.9 92.1 0 80.6 0 66.7C0 52.8 24.9 41.8 56.8 41.8C88.7 41.8 114.6 53.1 114.6 67C114.5 80.8 88.6 92.1 56.8 92.1ZM57.4 42.8C26.4 42.8 1.2 53.3 1.2 66.2C1.2 79.1 26.4 89.6 57.4 89.6C88.4 89.6 113.6 79.1 113.6 66.2C113.6 53.3 88.4 42.8 57.4 42.8Z" fill="url(#paint1_linear)"/>
<path d="M95.5 66.7C95.5 75.5 78.4001 82.6 57.4001 82.6C36.4001 82.6 19.3 75.5 19.3 66.7C19.3 57.9 36.4001 50.8 57.4001 50.8C78.4001 50.9 95.5 58 95.5 66.7Z" fill="url(#paint2_linear)"/>
<path d="M57.4001 83.7C35.0001 83.7 16.8 76.1 16.8 66.8C16.8 57.5 35.0001 49.9 57.4001 49.9C79.8 49.9 98 57.5 98 66.8C98 76.1 79.8 83.7 57.4001 83.7ZM57.4001 51.9C37.8001 51.9 21.8 58.6 21.8 66.7C21.8 74.9 37.8001 81.5 57.4001 81.5C77.0001 81.6 93 74.9 93 66.7C93 58.6 77.0001 51.9 57.4001 51.9Z" fill="url(#paint3_linear)"/>
<path d="M24.8001 47.4C26.0001 44.8 25.0001 39.4 29.6001 40C30.5001 44.4 32.8001 47.5 35.4001 43.7C37.5001 40.7 38.7001 36.7 43.5001 37.5C44.8001 40.3 46.7001 44.2 50.9001 42.2C53.7001 40.8 53.6001 36.5 58.3001 37.5C60.2001 40.9 53.6001 42.2 56.2001 44.8C58.0001 46.6 60.9001 42.9 62.4001 41.4C63.7001 40.1 68.9001 37.1 69.1001 40.8C69.3001 43.4 64.1001 44.9 70.2001 46.7C74.5001 47.9 75.0001 43.7 78.7001 42.4C80.4001 41.8 88.4001 40.3 86.4001 44.5C85.2001 46.9 79.5001 44.8 78.7001 49C77.8001 53.9 82.1001 51.8 84.6001 50.5C87.6001 49 92.6001 45.6 96.4001 47.9C102.5 51.6 93.6001 52.6 92.0001 54.2C86.5001 59.7 104.3 56 99.8001 63.8C97.3001 68.1 94.6001 64.1 92.0001 63.8C90.3001 63.6 89.6001 63.6 88.3001 64.9C86.5001 66.7 89.8001 67.9 91.0001 69.6C92.7001 72.1 91.0001 76 87.6001 75.2C83.9001 74.4 85.2001 69.2 82.3001 67.9C81.5001 67.6 81.1001 67.4 80.2001 67.5C79.7001 70 81.2001 72.1 81.2001 74.4C80.2001 79.6 78.1001 74 76.1001 73C72.4001 71.2 75.0001 80 68.0001 79.3C60.6001 78.5 53.2001 70.8 45.9001 70.8C40.5001 70.8 35.2001 70.4 30.3001 68C25.4001 65.5 21.4001 61.4 16.6001 58.7C14.0001 57.2 9.40008 53 13.2001 50.1C16.6001 47.3 22.4001 52.8 24.8001 47.4Z" fill="url(#paint4_linear)"/>
<path d="M53.9002 42.3C52.2002 43 50.6002 44.9 49.7002 47.1C48.7002 49.3 48.2002 52.0001 48.3002 54.7001C48.3002 57.4001 48.9002 60.1 50.0002 62.3C51.1002 64.5 52.9002 66.2 54.7002 66.7C53.4002 65.4 52.5002 63.6 52.0002 61.6C51.5002 59.5 51.2002 57.2001 51.2002 54.7001C51.2002 52.2001 51.4002 49.9 51.8002 47.8C52.1002 45.6 52.7002 43.7 53.9002 42.3Z" fill="#2C6B2E"/>
<path d="M41.4001 41.9C40.5001 43 39.7001 44.6 39.5001 46.5C39.2001 48.4 39.5001 50.5 40.3001 52.5C41.9001 56.6 45.0001 59.2 47.7001 60.3C46.2001 57.8 44.4001 54.9 43.1001 51.4C41.6001 48.1 41.2001 44.8 41.4001 41.9Z" fill="#2C6B2E"/>
<path d="M29.2 44.5C28.6 45.8 28.2 47.5 28.6 49.5C29 51.4 30.2 53.4 32.1 54.8C34 56.1 36.1 56.7 38 56.8C39.9 56.8 41.6 56.3 42.8 55.6C40 55.3 36.6 54.5 33.8 52.5C32.4 51.5 31.4 50.2 30.6 48.9C29.9 47.4 29.5 45.9 29.2 44.5Z" fill="#2C6B2E"/>
<path d="M15.5 53.7C17.5 54.1 19.5 54.8 21.6 56C23.7 57.2 25.7 58.8 28.1 60.4C30.5 62 33.3 63.3 36.1 63.4C38.8 63.6 41.1 62.7 42.9 61.8C40.9 61.8 38.7 61.9 36.4 61.3C34.2 60.7 32 59.5 29.7 58C27.4 56.5 25 54.9 22.5 54.1C19.9 53.2 17.4 53.2 15.5 53.7Z" fill="#2C6B2E"/>
<path d="M56.1001 59.2C56.7001 59.4 57.5001 59.2 58.1001 58.7C58.8001 58.2 59.2001 57.5 59.6001 56.7C60.3001 55.2 60.6001 53.5 60.8001 51.9C61.3001 48.7 61.6001 46.2 63.5001 44.4C62.9001 44.5 62.2001 44.6 61.5001 45C60.8001 45.4 60.2001 45.9 59.7001 46.6C58.7001 48 58.1001 49.7 57.9001 51.4C57.6001 53.1 57.6001 54.7 57.5001 56C57.4001 57.5 57.2001 58.6 56.1001 59.2Z" fill="#29662C"/>
<path d="M61.3 61.5C63.3 61.7999 65.9 61.1 68.1 59.5C70.3 57.9 72.2001 55.6 73.8001 53.2C75.4001 50.9 76.9 48.7 78.6 47C80.3 45.3 82.2001 44 83.8001 42.7C81.8001 43.1 79.5 43.7999 77.2 45.2999C76.9 45.4999 76.6001 45.7 76.4001 45.9C76.1001 46.1 75.9 46.3999 75.6 46.5999C75 47.0999 74.6 47.5999 74.1 48.0999C73.1 49.1999 72.3001 50.3 71.4001 51.5C70.6001 52.7 69.9 53.9 69.1 54.9C68.3 56 67.6 56.9 66.7 57.7999C65 59.5999 63.2 60.9 61.3 61.5Z" fill="#29662C"/>
<path d="M64.6001 61C66.7001 61.7 69.1001 62.4 72.0001 62.5C73.4001 62.6 75.0001 62.4 76.6001 61.9C78.2001 61.4 79.7001 60.6 81.0001 59.6C83.7001 57.6 85.6001 55.4 87.6001 53.6C88.6001 52.7 89.5001 52 90.6001 51.3C91.6001 50.7 92.7001 50.3 93.7001 50C92.6001 49.9 91.4001 49.9 90.1001 50.2C88.8001 50.5 87.6001 51.1 86.3001 51.9C83.9001 53.4 81.7001 55.5 79.3001 57.2C74.8001 61 69.0001 60.5 64.6001 61Z" fill="#1F5322"/>
<path d="M79.3 64.4C81.5 63.4 84.2 62 87.4 61.1C90.6 60.2 93.6 60 95.9 60.7C95 60 93.6 59.4 92 59.3C90.4 59.1 88.7 59.3 87 59.8C83.6 60.7 81 62.7 79.3 64.4Z" fill="#1B4D1F"/>
<path d="M88.8999 64.8C87.9999 64.8 87.3999 64.9 87.3999 65C87.3999 65.1 87.9999 65.1 88.8999 65.2C89.7999 65.2 90.3999 65.1 90.3999 65C90.3999 64.9 89.7999 64.8 88.8999 64.8Z" fill="#1F5322"/>
<path d="M11.6001 63C11.6001 63 11.6001 64.4 13.8001 65.6C16.0001 66.8 16.0001 66.8 16.0001 66.8C16.0001 66.8 14.3001 69.5 15.7001 72C17.1001 74.5 18.0001 74.9 22.0001 76.8L23.2001 76.9C23.2001 76.9 25.2001 80.5 29.7001 81.4C34.2001 82.3 34.7001 81.7 34.7001 81.7C34.7001 81.7 37.6001 83.7 41.5001 84.4C45.4001 85.1 45.4001 84.4 45.4001 84.4C45.4001 84.4 46.0001 85.6 50.2001 85.8C54.4001 86.1 56.5001 86.1 58.9001 85.2C58.9001 85.2 61.8001 86.6 66.3001 85.8C70.8001 84.9 74.2001 82.6 74.2001 82.6C74.2001 82.6 75.4001 83.6 77.1001 84C78.8001 84.4 81.7001 83.9 83.0001 83.6C83.0001 83.6 87.9001 84 90.2001 83.5C92.5001 82.9 100.4 81.2 96.5001 74.3L95.5001 72.6C95.5001 72.6 102.1 73 105.2 71.2C108.2 69.3 110.4 63.4 104.5 60.2C98.6001 57 32.5001 57.9 32.5001 57.9C32.5001 57.9 11.7001 62.4 11.6001 63Z" fill="#B2B2B2"/>
<path d="M75.6001 66.6C78.5001 67.2 83.6001 73.3 82.9001 77.2C79.0001 76.8 78.7001 70 76.7001 67.3L75.6001 66.6Z" fill="#1B4D1F"/>
<path d="M71.5 48.2C65.1 47.6 65.3 50.4 63.4 52.2C60.8 54.6 58.5 52 58 55.7C57.4 59.9 60.7 63.6 67.6 66.4C72.3 68.3 76.5 66.2 79.4 66.1C81.3 64 85.1 61.9 83.1 57.3C80.8 51.8 77.4 48.8 71.5 48.2Z" fill="#BE1622"/>
<path d="M71.6001 48.5C66.2001 48.4 66.2001 50.5 64.5001 51.9C62.1001 53.9 59.5001 52.6 58.8001 55.4C58.0001 58.6 62.3001 62.7 68.0001 64.5C72.8001 66 76.8001 64.1 79.9001 63.8C81.7001 62.1 84.2001 59.8 82.8001 56.5C81.2001 52.4 76.6001 48.6 71.6001 48.5Z" fill="url(#paint5_radial)"/>
<path d="M77.1001 62.5C77.1001 62.5 74.8001 63.5 71.6001 63.3C67.0001 63 62.1001 59.8 61.3001 57.1C60.5001 54.4 65.7001 53 66.6001 55.9C67.0001 57.4 65.7001 56.9 67.3001 58.5C68.8001 60.1 71.0001 60.6 74.7001 60C78.4001 59.4 78.0001 62 77.1001 62.5Z" fill="url(#paint6_linear)"/>
<path d="M63.5002 56.0999C64.2002 56.1999 64.9002 56.4999 65.0002 56.7999C65.1002 57.0999 64.6002 57.2999 63.9002 57.2999C63.2002 57.2999 62.5002 56.8999 62.4002 56.5999C62.3002 56.1999 62.8002 55.9999 63.5002 56.0999Z" fill="#F6AA00"/>
<path d="M64.7002 57.8001C65.3002 57.7001 66.0002 57.9001 66.3002 58.2001C66.5002 58.5001 66.2002 58.8001 65.6002 59.0001C65.0002 59.1001 64.3002 58.9001 64.0002 58.6001C63.8002 58.2001 64.1002 57.9001 64.7002 57.8001Z" fill="#F6AA00"/>
<path d="M67.2001 59.8001C67.6001 59.5001 68.2001 59.5001 68.6001 59.7001C69.0001 60.0001 69.0001 60.4001 68.6001 60.7001C68.2001 61.0001 67.6001 61.0001 67.2001 60.8001C66.8001 60.6001 66.8001 60.1001 67.2001 59.8001Z" fill="#F6AA00"/>
<path d="M69.5001 60.9C69.7001 60.5 70.2001 60.3 70.7001 60.5C71.1001 60.7 71.3001 61.2 71.1001 61.6C70.9001 62 70.4001 62.2 69.9001 62C69.5001 61.8 69.3001 61.3 69.5001 60.9Z" fill="#F6AA00"/>
<path d="M71.6001 61.6C71.6001 61.2 72.0001 60.9 72.4001 61C72.8001 61.1 73.2001 61.5 73.2001 62C73.2001 62.4 72.8001 62.7 72.4001 62.6C71.9001 62.4 71.6001 62 71.6001 61.6Z" fill="#F6AA00"/>
<path d="M74.3002 61.5C74.1002 61 74.2002 60.7 74.6002 60.7C75.0002 60.7 75.5002 61.1 75.7002 61.5C75.9002 62 75.8002 62.2999 75.4002 62.2999C75.0002 62.3999 74.5002 62 74.3002 61.5Z" fill="#F6AA00"/>
<path d="M65.6001 59.3001C66.1001 59.1001 66.7001 59.2001 66.9001 59.4001C67.1001 59.6001 66.9001 59.9001 66.4001 60.1001C65.9001 60.3001 65.3001 60.2001 65.1001 60.0001C64.9001 59.7001 65.1001 59.4001 65.6001 59.3001Z" fill="#F6AA00"/>
<path d="M81.2001 59.6C81.2001 59.6 81.6001 58.1 81.3001 56.1C80.9001 53.1 76.5001 50.1 72.8001 49.7C69.1001 49.4 67.2001 53 71.2001 53.3C73.2001 53.5 72.5001 52.6 74.7001 53.5C76.9001 54.4 77.0001 55.6 76.8001 58.3C76.6001 59.7 78.1001 61 81.2001 59.6Z" fill="url(#paint7_linear)"/>
<path d="M71.4 51.3C71.5 51.8 71.9 52.2 72.3 52.2C72.7 52.2 73 51.9 73 51.4C72.9 50.9 72.5 50.5 72.1 50.5C71.6 50.5 71.3 50.8 71.4 51.3Z" fill="#F6AA00"/>
<path d="M73.7 51.9C73.6 52.3 73.8 52.8 74.2 52.9C74.6 53 75.1 52.8 75.2 52.4C75.3 52 75.1 51.5 74.7 51.4C74.3 51.2 73.9 51.5 73.7 51.9Z" fill="#F6AA00"/>
<path d="M76.5001 53.4C76.1001 53.7 76.0001 54.1 76.4001 54.4C76.7001 54.6 77.4001 54.6 77.8001 54.3C78.2001 54 78.3001 53.6 77.9001 53.3C77.5001 53.1 76.9001 53.1 76.5001 53.4Z" fill="#F6AA00"/>
<path d="M78.0002 54.8C77.4002 55 77.2002 55.3 77.4002 55.6C77.7002 55.9 78.3002 56 78.9002 55.8C79.5002 55.6 79.7002 55.3 79.5002 55C79.2002 54.8 78.5002 54.7 78.0002 54.8Z" fill="#F6AA00"/>
<path d="M78.9 56.2C78.3 56.2 78 56.5 78.1 56.8C78.2 57.1 78.8 57.3 79.4 57.2C80 57.2 80.3 56.9 80.2 56.6C80 56.3 79.5 56.1 78.9 56.2Z" fill="#F6AA00"/>
<path d="M78.8001 58C78.2001 57.9 77.6001 58 77.6001 58.3C77.6001 58.6 78.1001 58.9 78.7001 59C79.3001 59.1 79.9001 59 79.9001 58.8C80.0001 58.4 79.4001 58.1 78.8001 58Z" fill="#F6AA00"/>
<path d="M75.7002 52.3999C75.5002 52.6999 75.5002 53.0999 75.8002 53.1999C76.1002 53.2999 76.5002 53.1999 76.8002 52.7999C77.0002 52.4999 77.0002 52.0999 76.7002 51.9999C76.4002 51.8999 76.0002 51.9999 75.7002 52.3999Z" fill="#F6AA00"/>
<path d="M80.8001 65.5C86.0001 64.9 93.5001 71.4 92.5001 76.9C89.6001 78.2 84.8001 65.1 78.6001 65.5H80.8001Z" fill="#1B4D1F"/>
<path d="M58.5 49.5C52.5 46 49.8 48.8 45.9 49.7C40.6 50.9 39.3 47.6 34.8 50.8C29.6 54.5 29 62.6 33.1 68.4C36.6 73.3 43.8 73.2 47.6 74.6C51.8 73.5 57.8 72 60.7 66.7C64.1 60.4 64 52.7 58.5 49.5Z" fill="#BE1622"/>
<path d="M57.4 50.1C51.9 47 49.3 49.5 45.7 50.3C40.8 51.4 39.6 48.4 35.4 51.3C30.6 54.6 30 61.8 33.8 66.9C37 71.3 43.7 71.1 47.2 72.4C51.1 71.4 56.7 70.1 59.4 65.3C62.7 59.8 62.6 52.9 57.4 50.1Z" fill="url(#paint8_radial)"/>
<path d="M45.8 69.6001C45.8 69.6001 42.1 69.6001 39 67.6001C34.6 64.8001 33.4 58.3001 35.8 54.7001C38.3 51.1001 45.5 52.2001 42.8 56.1001C41.4 58.1001 40.7 56.8001 40.3 59.5001C39.9 62.2001 41.6 64.0001 46.3 65.3001C51 66.6001 47.4 69.5001 45.8 69.6001Z" fill="url(#paint9_linear)"/>
<path d="M39.4999 54.7001C40.1999 55.1001 40.4999 55.9001 40.1999 56.3001C39.8999 56.7001 39.0999 56.7001 38.4999 56.3001C37.7999 55.9001 37.4999 55.2001 37.7999 54.7001C37.9999 54.2001 38.7999 54.2001 39.4999 54.7001Z" fill="#F6AA00"/>
<path d="M38.5 57.3001C39.3 57.5001 39.8 58.1001 39.7 58.6001C39.6 59.1001 38.8 59.3001 38 59.1001C37.2 58.9001 36.7 58.3001 36.8 57.8001C37 57.4001 37.8 57.1001 38.5 57.3001Z" fill="#F6AA00"/>
<path d="M38.7001 61.1001C39.5001 61.0001 40.2001 61.3001 40.3001 61.8001C40.4001 62.3001 39.8001 62.8001 39.0001 63.0001C38.2001 63.1001 37.5001 62.8001 37.4001 62.3001C37.3001 61.8001 37.9001 61.2001 38.7001 61.1001Z" fill="#F6AA00"/>
<path d="M39.7999 63.6001C40.4999 63.2001 41.2999 63.3001 41.4999 63.8001C41.6999 64.3001 41.2999 64.9001 40.5999 65.3001C39.8999 65.7001 39.0999 65.6001 38.8999 65.1001C38.6999 64.6001 39.0999 64.0001 39.7999 63.6001Z" fill="#F6AA00"/>
<path d="M41.1 65.5C41.6 65 42.3 64.9 42.7 65.2C43 65.5 42.9 66.2 42.3 66.7C41.8 67.2 41.1 67.3 40.7 67C40.4 66.7 40.6 66 41.1 65.5Z" fill="#F6AA00"/>
<path d="M44.0999 66.9C44.3999 66.2 44.9999 65.8 45.3999 66.1C45.7999 66.3 45.8999 67 45.4999 67.7C45.1999 68.4 44.5999 68.7 44.1999 68.5C43.7999 68.3 43.6999 67.6 44.0999 66.9Z" fill="#F6AA00"/>
<path d="M37.7001 59.6001C38.4001 59.7001 39 60.0001 39 60.4001C39 60.8001 38.4 61.0001 37.6 60.9001C36.9 60.8001 36.3 60.5001 36.3 60.1001C36.4 59.7001 37.0001 59.5001 37.7001 59.6001Z" fill="#F6AA00"/>
<path d="M53.6999 68.3001C53.6999 68.3001 55.8999 66.8001 58.1999 64.2001C61.4999 60.4001 60.5999 54.5001 57.0999 52.1001C53.5999 49.7001 47.0999 52.9001 50.8999 55.5001C52.7999 56.8001 53.0999 55.4001 54.2999 57.6001C55.4999 59.8001 54.0999 61.3001 50.4999 64.4001C48.7999 66.0001 48.7999 68.4001 53.6999 68.3001Z" fill="url(#paint10_linear)"/>
<path d="M53.6997 53.2001C53.1997 53.8001 53.0997 54.5001 53.4997 54.8001C53.8997 55.1001 54.5997 54.8001 55.0997 54.3001C55.5997 53.7001 55.6997 53.0001 55.2997 52.7001C54.8997 52.4001 54.1997 52.7001 53.6997 53.2001Z" fill="#F6AA00"/>
<path d="M55.3998 55.3C54.6998 55.7 54.3998 56.4 54.6998 56.8C54.9998 57.2 55.7998 57.2 56.3998 56.8C57.0998 56.4 57.3998 55.7 57.0998 55.3C56.8998 54.8 56.0998 54.8 55.3998 55.3Z" fill="#F6AA00"/>
<path d="M56.3998 58.5001C55.5998 58.6001 54.9998 59.1001 55.0998 59.6001C55.1998 60.1001 55.8998 60.3001 56.6998 60.2001C57.4998 60.1001 58.0998 59.6001 57.9998 59.1001C57.9998 58.7001 57.1998 58.4001 56.3998 58.5001Z" fill="#F6AA00"/>
<path d="M56.1998 61.0001C55.3998 60.9001 54.6998 61.2001 54.5998 61.7001C54.4998 62.2001 55.0998 62.6001 55.8998 62.7001C56.6998 62.8001 57.3998 62.5001 57.4998 62.0001C57.5998 61.6001 56.9998 61.1001 56.1998 61.0001Z" fill="#F6AA00"/>
<path d="M55.6 63.1001C54.9 62.8001 54.2 62.9001 54 63.3001C53.8 63.7001 54.2 64.2001 54.9 64.5001C55.6 64.8001 56.3 64.7001 56.5 64.3001C56.6 63.9001 56.2 63.3001 55.6 63.1001Z" fill="#F6AA00"/>
<path d="M53.1999 65.1001C52.6999 64.6001 51.9999 64.5001 51.6999 64.8001C51.3999 65.1001 51.4999 65.7001 52.0999 66.2001C52.5999 66.7001 53.2999 66.8001 53.5999 66.5001C53.8999 66.3001 53.7999 65.6001 53.1999 65.1001Z" fill="#F6AA00"/>
<path d="M56.9 56.9001C56.2 57.2001 55.8 57.6001 56 57.9001C56.1 58.2001 56.8 58.2001 57.5 58.0001C58.2 57.7001 58.6 57.3001 58.4 57.0001C58.2 56.7001 57.6 56.6001 56.9 56.9001Z" fill="#F6AA00"/>
<path d="M42.2 50.3001C42.2 50.3001 46.7999 55.4001 46.5999 57.5001C46.5999 57.5001 45.5 52.0001 48.5 49.1001C48.6 49.1001 45.3 51.8001 42.2 50.3001Z" fill="#FAC188"/>
<path d="M45 56.3C44.2 56.4 43.3 56.7 42.5 57.5C42.1 57.9 41.8 58.4 41.5 59.1C41.3 59.8 41.3 60.5001 41.6 61.2001C42.1 62.5001 43.1 63.3 44 63.8C44.9 64.3 45.8 64.5 46.6 64.6C46.1 63.9 45.5 63.3 45 62.6C44.4 61.9 43.9 61.2 43.6 60.5C43 59.2 44.1 57.6 45 56.3Z" fill="#FCCFA3"/>
<path d="M50 55.7001C50.5 56.9001 51.3 58.3001 51.3 59.5001C51.3 60.1001 51.2 60.6001 51 61.3001C50.9 61.6001 50.7 61.9001 50.6 62.2001C50.4 62.5001 50.3 62.8001 50.2 63.1001C50.5 63.0001 50.9 62.9001 51.2 62.8001C51.6 62.6001 51.9 62.4001 52.3 62.1001C53 61.5001 53.5 60.4001 53.5 59.3001C53.4 58.1001 52.8 57.2001 52.1 56.6001C51.5 56.1001 50.7 55.8001 50 55.7001Z" fill="#FCCFA3"/>
<path d="M90.4999 41.7999C83.1999 41.0999 83.4999 44.1999 81.3999 46.2999C78.4999 49.0999 75.8999 46.0999 75.2999 50.1999C74.5999 54.9999 78.3999 59.0999 86.1999 62.2999C91.4999 64.4999 96.1999 62.0999 99.4999 61.9999C101.7 59.6999 106 57.1999 103.7 51.9999C101.1 45.7999 97.1999 42.4999 90.4999 41.7999Z" fill="#BE1622"/>
<path d="M90.7 42.0999C84.6 41.8999 84.6 44.2999 82.7 45.9999C80 48.1999 77.1 46.7999 76.3 49.8999C75.4 53.4999 80.2 58.1999 86.7 60.1999C92.2 61.8999 96.7 59.6999 100.1 59.3999C102.1 57.4999 105 54.8999 103.4 51.0999C101.5 46.4999 96.3 42.1999 90.7 42.0999Z" fill="url(#paint11_radial)"/>
<path d="M96.8998 57.9999C96.8998 57.9999 94.2998 59.1999 90.6998 58.8999C85.4998 58.4999 79.9998 54.8999 78.9998 51.7999C78.0998 48.7999 83.9998 47.1999 84.9998 50.4999C85.4998 52.1999 83.9998 51.5999 85.6998 53.3999C87.3998 55.1999 89.8998 55.7999 94.0998 55.0999C98.2998 54.4999 97.9998 57.3999 96.8998 57.9999Z" fill="url(#paint12_linear)"/>
<path d="M81.4998 50.6999C82.2998 50.7999 82.9998 51.0999 83.1998 51.4999C83.2998 51.8999 82.7998 52.0999 81.9998 51.9999C81.1998 51.8999 80.4998 51.5999 80.2998 51.1999C80.1998 50.8999 80.6998 50.5999 81.4998 50.6999Z" fill="#F6AA00"/>
<path d="M82.7998 52.5999C83.4998 52.4999 84.2998 52.6999 84.5998 52.9999C84.8998 53.3999 84.4998 53.6999 83.7998 53.8999C83.0998 53.9999 82.2998 53.7999 81.9998 53.4999C81.7998 53.0999 82.0998 52.7999 82.7998 52.5999Z" fill="#F6AA00"/>
<path d="M85.6999 54.8999C86.1999 54.5999 86.8999 54.4999 87.2999 54.7999C87.6999 55.0999 87.6999 55.5999 87.2999 55.8999C86.7999 56.1999 86.0999 56.2999 85.6999 55.9999C85.1999 55.7999 85.2999 55.2999 85.6999 54.8999Z" fill="#F6AA00"/>
<path d="M88.2998 56.0999C88.4998 55.5999 89.0998 55.3999 89.5998 55.6999C90.0998 55.8999 90.2998 56.4999 90.0998 56.8999C89.8998 57.3999 89.2998 57.5999 88.7998 57.3999C88.2998 57.1999 88.0998 56.5999 88.2998 56.0999Z" fill="#F6AA00"/>
<path d="M90.5999 56.8998C90.5999 56.3998 90.9999 56.0998 91.4999 56.1998C91.9999 56.2998 92.3999 56.7998 92.3999 57.2998C92.3999 57.7998 91.9999 58.0998 91.4999 57.9998C90.9999 57.8998 90.5999 57.3998 90.5999 56.8998Z" fill="#F6AA00"/>
<path d="M93.6999 56.8999C93.3999 56.3999 93.5999 55.8999 93.9999 55.8999C94.3999 55.8999 94.9999 56.2999 95.2999 56.7999C95.5999 57.2999 95.3999 57.6999 94.9999 57.7999C94.4999 57.7999 93.9999 57.3999 93.6999 56.8999Z" fill="#F6AA00"/>
<path d="M83.8999 54.2999C84.4999 54.0999 85.0999 54.0999 85.2999 54.3999C85.4999 54.5999 85.2998 54.9999 84.6998 55.1999C84.0998 55.3999 83.4998 55.3999 83.1998 55.0999C83.0998 54.7999 83.2999 54.4999 83.8999 54.2999Z" fill="#F6AA00"/>
<path d="M101.5 54.7C101.5 54.7 102 53 101.6 50.7C101.1 47.3 96.0999 43.9 91.9999 43.5C87.7999 43.1 85.5999 47.2 90.0999 47.6C92.3999 47.8 91.5999 46.9 94.0999 47.9C96.5999 48.9 96.6999 50.3 96.3999 53.4C96.2999 54.8 98.0999 56.3 101.5 54.7Z" fill="url(#paint13_linear)"/>
<path d="M90.3998 45.1999C90.4998 45.6999 90.8998 46.1999 91.3998 46.1999C91.8998 46.1999 92.1998 45.8999 92.0998 45.2999C91.9998 44.7999 91.5998 44.2999 91.0998 44.2999C90.6998 44.2999 90.2998 44.6999 90.3998 45.1999Z" fill="#F6AA00"/>
<path d="M93.1 45.9999C92.9 46.4999 93.2 46.9999 93.7 47.0999C94.2 47.2999 94.7 46.9999 94.9 46.4999C95.1 45.9999 94.8 45.4999 94.3 45.3999C93.8 45.1999 93.2 45.4999 93.1 45.9999Z" fill="#F6AA00"/>
<path d="M96.1998 47.7C95.6998 48 95.6998 48.5 96.0998 48.8C96.4998 49.1 97.1998 49 97.6998 48.7C98.1998 48.4 98.1998 47.9 97.7998 47.6C97.3998 47.3 96.6998 47.3 96.1998 47.7Z" fill="#F6AA00"/>
<path d="M97.8 49.3C97.2 49.5 96.9 49.9 97.2 50.2C97.5 50.5 98.2 50.6 98.9 50.4C99.5 50.2 99.8 49.8 99.5 49.5C99.2 49.2 98.5 49.1 97.8 49.3Z" fill="#F6AA00"/>
<path d="M98.9 50.8C98.2 50.8 97.8 51.1 98 51.4C98.2 51.7 98.8 51.9 99.5 51.9C100.2 51.9 100.6 51.6 100.4 51.3C100.2 51 99.6 50.7 98.9 50.8Z" fill="#F6AA00"/>
<path d="M98.8 52.8C98.1 52.7 97.5 52.8 97.5 53.1C97.5 53.4 98.1 53.7 98.8 53.9C99.5 54 100.1 53.9 100.1 53.6C100.1 53.3 99.5 53 98.8 52.8Z" fill="#F6AA00"/>
<path d="M95.2998 46.4999C94.9998 46.8999 95.0998 47.2999 95.3998 47.4999C95.6998 47.5999 96.1998 47.3999 96.4998 47.0999C96.7998 46.6999 96.6998 46.2999 96.3998 46.0999C96.0998 45.8999 95.5998 46.0999 95.2998 46.4999Z" fill="#F6AA00"/>
<path d="M80.2998 47.0999C80.2998 47.0999 87.1998 48.7999 88.6998 50.1999C88.6998 50.1999 83.7998 47.0999 83.8998 44.2999C83.7998 44.2999 83.3998 46.9999 80.2998 47.0999Z" fill="#FAC188"/>
<path d="M86.5999 49.8999C86.0999 50.3999 85.7999 51.3999 86.0999 52.3999C86.4999 53.3999 87.4999 54.1999 88.3999 54.4999C90.3999 55.1999 92.2999 54.9999 93.5999 54.4999C92.2999 53.8999 90.5999 53.4999 88.9999 52.8999C88.1999 52.5999 87.5999 52.1999 87.0999 51.7999C86.7999 51.2999 86.5999 50.5999 86.5999 49.8999Z" fill="#FCCFA3"/>
<path d="M89.7 47.9999C90.7 48.6999 92 49.2999 93.1 49.9999C93.7 50.3999 94.1 50.6999 94.5 51.0999C94.9 51.4999 95.1 52.0999 95.3 52.6999C95.6 52.1999 95.9 51.4999 95.7 50.5999C95.5 49.7999 94.8 48.9999 94 48.4999C92.4 47.4999 90.8 47.5999 89.7 47.9999Z" fill="#FCCFA3"/>
<path d="M95.4001 49.9999C88.4001 49.1999 88.7 52.3999 86.6 54.3999C83.8 57.0999 81.3 54.1999 80.7 58.2999C79.9 62.9999 83.5 67.1999 91 70.4999C96.1 72.6999 100.6 70.3999 103.8 70.2999C105.9 67.9999 110.1 65.5999 107.9 60.2999C105.5 54.0999 101.8 50.6999 95.4001 49.9999Z" fill="#BE1622"/>
<path d="M95.5001 50.2C89.6001 50 89.6001 52.4 87.7001 54C85.1001 56.2 82.3001 54.7 81.5001 57.9C80.6001 61.5 85.2001 66.2 91.4001 68.3C96.6001 70 101 67.9 104.3 67.6C106.3 65.7 109 63.1 107.6 59.3C105.9 54.8 101 50.4 95.5001 50.2Z" fill="url(#paint14_radial)"/>
<path d="M101.4 66.2C101.4 66.2 98.9 67.3 95.4 67.1C90.4 66.7 85.1 63 84.2 59.9C83.3 56.8 89 55.3 90 58.6C90.5 60.3 89 59.7 90.7 61.5C92.3 63.3 94.7 63.9 98.8 63.3C102.8 62.7 102.4 65.7 101.4 66.2Z" fill="url(#paint15_linear)"/>
<path d="M86.5999 58.8C87.3999 58.9 88.0999 59.2 88.1999 59.6C88.2999 60 87.7999 60.2 86.9999 60.1C86.1999 60 85.4999 59.7 85.3999 59.3C85.3999 59 85.8999 58.7 86.5999 58.8Z" fill="#F6AA00"/>
<path d="M87.9001 60.7C88.6001 60.6 89.3001 60.8 89.6001 61.1C89.9001 61.5 89.5001 61.8 88.9001 61.9C88.2001 62 87.5001 61.8 87.2001 61.5C86.9001 61.2 87.2001 60.9 87.9001 60.7Z" fill="#F6AA00"/>
<path d="M90.6 63.1C91 62.8 91.7 62.7 92.2 63C92.6 63.3 92.6 63.8 92.1 64.1C91.7 64.4 91 64.5 90.5 64.2C90.2 63.9 90.2 63.4 90.6 63.1Z" fill="#F6AA00"/>
<path d="M93.1001 64.3C93.3001 63.8 93.9001 63.6 94.4001 63.9C94.9001 64.1 95.1001 64.7 94.9001 65.1C94.7001 65.6 94.1001 65.8 93.6001 65.5C93.1001 65.3 92.9001 64.8 93.1001 64.3Z" fill="#F6AA00"/>
<path d="M95.3999 65.1C95.3999 64.6 95.7999 64.3 96.2999 64.4C96.7999 64.5 97.0999 65 97.0999 65.5C97.0999 66 96.6999 66.3 96.1999 66.2C95.6999 66.1 95.2999 65.6 95.3999 65.1Z" fill="#F6AA00"/>
<path d="M98.3 65.1C98.1 64.6 98.1999 64.1 98.5999 64.1C98.9999 64.1 99.6 64.5 99.8 65.1C100 65.6 99.8999 66.1 99.4999 66.1C99.0999 66 98.6 65.6 98.3 65.1Z" fill="#F6AA00"/>
<path d="M88.9 62.4C89.4 62.2 90.1 62.3 90.3 62.5C90.5 62.7 90.3 63.1 89.8 63.3C89.3 63.5 88.6 63.4 88.4 63.2C88.1 62.9 88.4 62.6 88.9 62.4Z" fill="#F6AA00"/>
<path d="M105.8 62.9999C105.8 62.9999 106.3 61.3999 106 58.9999C105.6 55.5999 100.8 52.0999 96.8001 51.6999C92.8001 51.2999 90.6001 55.2999 95.0001 55.7999C97.2001 55.9999 96.4001 55.0999 98.8001 56.0999C101.2 57.0999 101.3 58.4999 101 61.5999C100.8 62.9999 102.5 64.4999 105.8 62.9999Z" fill="url(#paint16_linear)"/>
<path d="M95.2 53.4C95.3 53.9 95.7 54.4 96.2 54.5C96.7 54.6 97 54.2 96.9 53.6C96.8 53.1 96.4 52.6 95.9 52.5C95.5 52.5 95.2 52.9 95.2 53.4Z" fill="#F6AA00"/>
<path d="M97.8 54.2C97.6 54.7 97.9 55.2 98.3 55.3C98.8 55.5 99.3 55.2 99.4 54.7C99.6 54.2 99.3 53.7 98.9 53.6C98.5 53.4 98 53.7 97.8 54.2Z" fill="#F6AA00"/>
<path d="M100.8 55.8999C100.4 56.1999 100.3 56.6999 100.7 56.9999C101.1 57.2999 101.7 57.1999 102.2 56.8999C102.7 56.5999 102.7 56.0999 102.3 55.7999C101.9 55.4999 101.2 55.5999 100.8 55.8999Z" fill="#F6AA00"/>
<path d="M102.4 57.4999C101.8 57.6999 101.5 58.0999 101.8 58.3999C102.1 58.6999 102.8 58.7999 103.4 58.5999C104 58.3999 104.3 57.9999 104 57.6999C103.7 57.4999 103 57.3999 102.4 57.4999Z" fill="#F6AA00"/>
<path d="M103.4 59C102.8 59 102.4 59.3 102.5 59.6C102.6 59.9 103.3 60.1 103.9 60.1C104.5 60.1 104.9 59.8 104.8 59.5C104.6 59.2 104 59 103.4 59Z" fill="#F6AA00"/>
<path d="M103.3 61.1C102.6 61 102 61.1 102 61.4C102 61.7 102.5 62 103.2 62.2C103.9 62.3 104.5 62.2 104.5 61.9C104.5 61.6 104 61.2 103.3 61.1Z" fill="#F6AA00"/>
<path d="M100 54.6999C99.7 55.0999 99.8 55.4999 100.1 55.6999C100.4 55.7999 100.9 55.6999 101.1 55.2999C101.4 54.8999 101.3 54.4999 101 54.2999C100.7 54.1999 100.2 54.3999 100 54.6999Z" fill="#F6AA00"/>
<path d="M85.5 55.1999C85.5 55.1999 92.1 56.9999 93.5 58.3999C93.5 58.3999 88.8 55.1999 88.9 52.4999C88.9 52.3999 88.5 55.0999 85.5 55.1999Z" fill="#FAC188"/>
<path d="M91.5001 58.1C91.0001 58.6 90.7001 59.5 91.0001 60.5C91.3001 61.5 92.2001 62.3 93.2001 62.7C95.2001 63.5 97.0001 63.2 98.3001 62.8C97.0001 62.2 95.4001 61.8 93.9001 61.2C93.2001 60.9 92.5001 60.5 92.2001 60C91.7001 59.5 91.5001 58.8 91.5001 58.1Z" fill="#FCCFA3"/>
<path d="M94.5 56.0999C95.5 56.7999 96.7 57.3999 97.8 58.0999C98.4 58.4999 98.8 58.7999 99.1 59.1999C99.5 59.5999 99.6 60.1999 99.8 60.6999C100.1 60.1999 100.4 59.4999 100.2 58.6999C100 57.8999 99.4 57.0999 98.7 56.5999C97.2 55.7999 95.6 55.7999 94.5 56.0999Z" fill="#FCCFA3"/>
<path d="M84.8 59.7C77 58.2 77 61.6 74.5 63.6C71.1 66.3 68.6 62.8 67.5 67.2C66.2 72.3 69.9 77.1 78 81.4C83.5 84.3 88.8 82.2 92.4 82.4C95 80.1 99.9 77.9 98 72C95.7999 65.1 92 61.1 84.8 59.7Z" fill="#BE1622"/>
<path d="M85 59.9C78.4 59.1 78.2 61.7 75.9 63.2C72.8 65.3 69.7 63.5 68.6 66.8C67.3 70.7 72 76.2 78.8 79C84.5 81.4 89.6 79.5 93.4 79.5C95.8 77.7 99.1 75.2 97.8 70.9C96.2 65.8 91.1 60.7 85 59.9Z" fill="url(#paint17_radial)"/>
<path d="M90.1 77.8C90.1 77.8 87.1 78.8 83.3 78.2C77.8 77.3 72.1 72.8 71.4 69.4C70.7 66 77.3 64.9 78 68.6C78.4 70.4 76.8 69.7 78.5 71.8C80.2 73.9 82.8 74.8 87.4 74.5C92 74.1 91.3 77.3 90.1 77.8Z" fill="url(#paint18_linear)"/>
<path d="M74.2001 68.3C75.1001 68.4 75.8001 68.9 75.9001 69.3C76.0001 69.7 75.4001 69.9 74.5001 69.8C73.6001 69.7 72.9001 69.2 72.8001 68.8C72.7001 68.3 73.4001 68.1 74.2001 68.3Z" fill="#F6AA00"/>
<path d="M75.4 70.5C76.2 70.4 77 70.7 77.3 71.1C77.6 71.5 77.2 71.9 76.4 71.9C75.6 72 74.8 71.7 74.5 71.3C74.3 71 74.7 70.6 75.4 70.5Z" fill="#F6AA00"/>
<path d="M78.3001 73.3C78.8001 73 79.6 73 80 73.4C80.4 73.8 80.4001 74.3 79.8001 74.6C79.3001 74.9 78.5 74.9 78 74.5C77.7 74.2 77.8001 73.6 78.3001 73.3Z" fill="#F6AA00"/>
<path d="M81 74.9C81.3 74.4 82 74.3 82.5 74.5C83 74.8 83.2 75.4 82.9 75.9C82.6 76.4 81.9 76.5 81.4 76.3C80.8 76 80.7 75.3 81 74.9Z" fill="#F6AA00"/>
<path d="M83.3999 75.8999C83.4999 75.3999 83.8999 75.1 84.3999 75.3C84.8999 75.5 85.2999 75.9999 85.1999 76.5999C85.0999 77.0999 84.6999 77.3999 84.1999 77.1999C83.6999 76.9999 83.2999 76.4999 83.3999 75.8999Z" fill="#F6AA00"/>
<path d="M86.7 76.2C86.5 75.6 86.7 75.2 87.1 75.2C87.6 75.2 88.1 75.8 88.4 76.4C88.6 77 88.4 77.4 88 77.4C87.5 77.3 87 76.8 86.7 76.2Z" fill="#F6AA00"/>
<path d="M76.4001 72.3999C77.0001 72.2999 77.7001 72.3999 78.0001 72.5999C78.2001 72.8999 77.9001 73.1999 77.3001 73.3999C76.7001 73.5999 76.0001 73.3999 75.7001 73.1999C75.5001 72.8999 75.8001 72.5999 76.4001 72.3999Z" fill="#F6AA00"/>
<path d="M95.4 74.6C95.4 74.6 96.1 72.9 96 70.3C95.8 66.6 90.8 62.4 86.4 61.5C81.9 60.7 79.1 64.8 84 65.7C86.4 66.1 85.7 65.1 88.2 66.4C90.8 67.7 90.7 69.3 90.2 72.5C89.8 74.2 91.5 76 95.4 74.6Z" fill="url(#paint19_linear)"/>
<path d="M84.4001 63.3C84.4001 63.9 84.9001 64.4 85.4001 64.5C85.9001 64.6 86.3001 64.2 86.3001 63.6C86.3001 63 85.8001 62.5 85.3001 62.4C84.7001 62.4 84.3001 62.7 84.4001 63.3Z" fill="#F6AA00"/>
<path d="M87.1999 64.4C86.9999 64.9 87.1999 65.5 87.6999 65.7C88.1999 65.9 88.7999 65.7 88.9999 65.2C89.1999 64.7 88.9999 64.1 88.4999 63.9C87.9999 63.6 87.3999 63.9 87.1999 64.4Z" fill="#F6AA00"/>
<path d="M90.4 66.5C89.9 66.8 89.7 67.3 90.2 67.7C90.6 68 91.4 68 91.9 67.7C92.4 67.4 92.6 66.9 92.2 66.5C91.7 66.2 90.9 66.2 90.4 66.5Z" fill="#F6AA00"/>
<path d="M92 68.5C91.3 68.6 91 69.1 91.2 69.4C91.5 69.8 92.3 70 93 69.8C93.7 69.7 94 69.2 93.8 68.9C93.5 68.5 92.7 68.3 92 68.5Z" fill="#F6AA00"/>
<path d="M92.9999 70.2C92.2999 70.2 91.7999 70.5 91.8999 70.8C91.9999 71.2 92.6999 71.4 93.3999 71.5C94.0999 71.5 94.5999 71.2 94.4999 70.9C94.3999 70.5 93.6999 70.2 92.9999 70.2Z" fill="#F6AA00"/>
<path d="M92.7 72.4C91.9 72.2 91.3 72.2999 91.3 72.5999C91.3 72.8999 91.8 73.2999 92.6 73.5999C93.4 73.7999 94 73.7 94.1 73.4C94 73 93.4 72.6 92.7 72.4Z" fill="#F6AA00"/>
<path d="M89.5001 65.2C89.2001 65.6 89.2001 66.1 89.5001 66.2C89.8001 66.4 90.4001 66.2 90.7001 65.8C91.0001 65.4 91.0001 64.9 90.7001 64.8C90.4001 64.6 89.9001 64.8 89.5001 65.2Z" fill="#F6AA00"/>
<path d="M73.2 64.3C73.2 64.3 80.5 66.9 81.9 68.5C81.9 68.5 77 64.6 77.3 61.7C77.3 61.6 76.6 64.5 73.2 64.3Z" fill="#FAC188"/>
<path d="M79.8001 68C79.2001 68.5 78.8001 69.5 79.1001 70.6C79.4001 71.7 80.4001 72.6 81.4001 73.2C83.5001 74.2 85.6001 74.1 87.0001 73.7C85.7001 72.9 83.9001 72.3 82.2001 71.5C81.4001 71.1 80.7001 70.6 80.3001 70.1C79.9001 69.5 79.7001 68.8 79.8001 68Z" fill="#FCCFA3"/>
<path d="M83.3 66.2C84.3 67 85.6 67.8 86.8 68.7C87.4 69.1 87.9 69.6 88.2 70C88.6 70.5 88.7 71.1 88.9 71.8C89.3 71.3 89.7 70.5 89.5 69.6C89.3 68.7 88.7 67.8 87.9 67.2C86.3 66 84.6 65.9 83.3 66.2Z" fill="#FCCFA3"/>
<path d="M21.1 61.3C20.8 63.6 18.1 65 15.1 64.6C12.1 64.2 9.99999 62 10.3 59.7C10.6 57.4 13.3 56 16.3 56.4C19.3 56.8 21.5 59 21.1 61.3Z" fill="url(#paint20_radial)"/>
<path d="M14.0999 59.4C14.5999 60.1 14.3999 61.1 13.6999 61.6C12.9999 62.1 11.9999 61.8 11.4999 61.1C10.9999 60.4 11.1999 59.4 11.8999 58.9C12.6999 58.4 13.6999 58.6 14.0999 59.4Z" fill="black"/>
<path d="M31.4999 57.5C29.8999 59.2 26.8999 58.9 24.6999 56.9C22.4999 54.9 21.9999 51.9 23.4999 50.2C25.0999 48.5 28.0999 48.8 30.2999 50.8C32.5999 52.8 33.0999 55.8 31.4999 57.5Z" fill="url(#paint21_radial)"/>
<path d="M26.7998 52C26.7998 52.9 26.0998 53.6 25.2998 53.6C24.4998 53.6 23.7998 52.9 23.7998 52C23.7998 51.1 24.4998 50.4 25.2998 50.4C26.1998 50.4 26.8998 51.2 26.7998 52Z" fill="black"/>
<path d="M59.0999 64C58.2999 61.8 59.8999 59.3 62.7999 58.2C65.5999 57.2 68.4999 58.1 69.2999 60.2C70.0999 62.4 68.4999 64.9 65.5999 66C62.7999 67.1 59.8999 66.2 59.0999 64Z" fill="url(#paint22_radial)"/>
<path d="M66.1 62.4C65.3 62 65 61 65.4 60.3C65.8 59.6 66.7 59.3 67.5 59.7C68.3 60.1 68.6 61.1 68.2 61.8C67.9 62.5 66.9 62.8 66.1 62.4Z" fill="black"/>
<path d="M73.8 77.3C74.6 75.1 77.5 74.2 80.3 75.2C83.1 76.2 84.8 78.8 84 80.9C83.2 83.1 80.3 84 77.5 83C74.7 82 73 79.4 73.8 77.3Z" fill="url(#paint23_radial)"/>
<path d="M80.2999 80.5C79.9999 79.7 80.2999 78.7 81.0999 78.4C81.8999 78.1 82.7999 78.5 83.0999 79.3C83.3999 80.1 83.0999 81 82.2999 81.4C81.4999 81.7 80.5999 81.3 80.2999 80.5Z" fill="black"/>
<path d="M34.9999 60.6C34.7999 59 33.1999 57.6 31.5999 56.9C27.7999 55.2 28.3999 55.9 25.9999 56.1C24.7999 56.2 24.1999 56 22.9999 55.9C20.8999 55.7 20.2999 56.1 18.4999 57.6C16.4999 59.2 15.8999 60.4 15.8999 62.7C15.8999 63.5 15.5999 66.8 15.2999 68C14.9999 69.2 16.1999 71.4 16.8999 72.5C18.6999 75.4 21.5999 75.4 24.0999 75.4C25.3999 75.4 26.2999 75.7 27.4999 75.2C29.6999 74.2 30.0999 75.8 33.0999 72.7C34.2999 71.5 35.1999 70.2 34.8999 68.2C34.6999 67.3 34.5999 66.9 34.6999 66C34.7999 65.4 35.3999 64.7 35.4999 64C35.7999 62.8 35.1999 61.9 34.9999 60.6Z" fill="#2D7C36"/>
<path d="M34 60.5C33.8 59 32.4 57.8 31 57.1C27.7 55.6 28.2 56.2 26.1 56.3C25 56.3 24.5 56.2 23.4 56.1C21.5 55.9 21 56.3 19.5 57.6C17.7 59 17.2 60.1 17.2 62.2C17.2 62.9 17 65.9 16.7 67C16.4 68.1 17.5 70.1 18.1 71.1C19.7 73.7 22.2 73.7 24.5 73.7C25.6 73.7 26.5 74 27.5 73.5C29.4 72.6 29.8 74 32.4 71.2C33.4 70.1 34.3 68.9 34 67.1C33.9 66.3 33.7 65.9 33.8 65.2C33.9 64.6 34.4 64 34.5 63.4C34.7 62.4 34.2 61.6 34 60.5Z" fill="url(#paint24_radial)"/>
<path d="M28.5999 58.5999C30.7999 57.7999 32.0999 59.9999 32.6999 61.5999C33.3999 63.6999 33.6999 65.1999 30.8999 64.9999C29.7999 64.8999 26.4999 64.7999 26.0999 63.4999C25.6999 62.3999 27.4999 58.9999 28.5999 58.5999Z" fill="#9DC150"/>
<path d="M31.6998 67.6C32.4998 69.6 30.2998 70.8 28.5998 71.3C26.4998 71.9 24.8998 72.1 25.1998 69.6C25.2998 68.6 25.4998 65.6 26.7998 65.2C27.8998 64.9 31.2998 66.6 31.6998 67.6Z" fill="#9DC150"/>
<path d="M22.9998 71.2C21.0998 72.2 19.6998 70.1 18.9998 68.5C18.1998 66.5 17.7998 65 20.2998 64.9C21.2998 64.9 24.2998 64.8 24.7998 66C25.2998 67.1 23.8998 70.7 22.9998 71.2Z" fill="#9DC150"/>
<path d="M19.4 63.2C18.1 61.3 19.9 59.5 21.4 58.5C23.2 57.3 24.7 56.7 25.2 59.4C25.4 60.5 25.9 63.7 24.8 64.4C23.8 65.2 20.1 64.2 19.4 63.2Z" fill="#9DC150"/>
<path d="M23.3999 61.7999C23.3999 62.0999 22.6999 62.4 21.8999 62.4C21.0999 62.4 20.3999 62.0999 20.3999 61.7999C20.3999 61.4999 21.0999 61.2 21.8999 61.2C22.6999 61.2 23.3999 61.3999 23.3999 61.7999Z" fill="#EAF0D4"/>
<path d="M24.7999 63.4C24.4999 63.4 24.2 62.7 24.2 61.9C24.2 61.1 24.4999 60.4 24.7999 60.4C25.0999 60.4 25.4 61.1 25.4 61.9C25.4 62.7 25.1999 63.4 24.7999 63.4Z" fill="#EAF0D4"/>
<path d="M22.4 60.8C22.1 60.9 21.7 60.6 21.5 60.1C21.3 59.6 21.3 59.1 21.6 59C21.9 58.9 22.3 59.2 22.5 59.7C22.7 60.2 22.7 60.7 22.4 60.8Z" fill="#EAF0D4"/>
<path d="M23.4 61.1C23.1 61 23 60.5 23.2 60C23.4 59.5 23.8 59.2 24.1 59.3C24.4 59.4 24.4 59.9 24.2 60.4C24 60.9 23.6 61.2 23.4 61.1Z" fill="#EAF0D4"/>
<path d="M29.0998 62.4C28.7998 62.6 28.1998 62.2 27.7998 61.5C27.2998 60.8 27.1998 60.1 27.4998 59.9C27.7998 59.7 28.3998 60.1 28.7998 60.8C29.2998 61.5 29.3998 62.3 29.0998 62.4Z" fill="#EAF0D4"/>
<path d="M28.5998 64.4999C28.3998 64.1999 28.7998 63.6 29.4998 63.2C30.1998 62.7 30.8998 62.6 31.0998 62.9C31.2998 63.2 30.8998 63.7999 30.1998 64.1999C29.4998 64.5999 28.6998 64.7999 28.5998 64.4999Z" fill="#EAF0D4"/>
<path d="M29.3999 61C29.1999 60.8 29.1999 60.3 29.4999 59.9C29.7999 59.4 30.1999 59.2 30.4999 59.4C30.6999 59.6 30.6999 60.1 30.3999 60.5C30.0999 61 29.5999 61.2 29.3999 61Z" fill="#EAF0D4"/>
<path d="M29.6999 62C29.5999 61.7 29.9999 61.4 30.5999 61.3C31.0999 61.2 31.5999 61.3 31.6999 61.6C31.7999 61.9 31.3999 62.2 30.7999 62.3C30.1999 62.4 29.6999 62.3 29.6999 62Z" fill="#EAF0D4"/>
<path d="M27.6 68.2C27.4 67.9 27.9 67.3 28.7 67C29.4 66.6 30.2 66.6 30.3 66.9C30.5 67.2 30 67.8 29.2 68.1C28.5 68.4 27.8 68.5 27.6 68.2Z" fill="#EAF0D4"/>
<path d="M25.6999 67.4001C25.9999 67.2001 26.5999 67.7001 26.8999 68.5001C27.2999 69.2001 27.2999 70.0001 26.9999 70.1001C26.6999 70.3001 26.0999 69.8001 25.7999 69.0001C25.3999 68.2001 25.3999 67.5001 25.6999 67.4001Z" fill="#EAF0D4"/>
<path d="M28.9998 68.6C29.1998 68.4 29.6998 68.5 30.0998 68.8C30.4998 69.1 30.6998 69.6 30.4998 69.8C30.2998 70 29.7998 69.9 29.3998 69.6C28.9998 69.3 28.7998 68.8 28.9998 68.6Z" fill="#EAF0D4"/>
<path d="M28 68.8C28.3 68.8 28.6 69.2 28.6 69.7C28.6 70.2 28.5 70.7 28.2 70.7C27.9 70.7 27.6 70.3 27.6 69.8C27.5 69.2 27.7 68.8 28 68.8Z" fill="#EAF0D4"/>
<path d="M22.1 67.7C22.4 67.5 23 67.8 23.5 68.5C24 69.1 24.2 69.8 24 70.1C23.7 70.3 23.1 70 22.6 69.3C22 68.6 21.8 67.9 22.1 67.7Z" fill="#EAF0D4"/>
<path d="M22.4 65.5999C22.6 65.8999 22.3 66.4999 21.6 66.9999C21 67.4999 20.3 67.6999 20 67.3999C19.8 67.0999 20.1 66.4999 20.8 65.9999C21.5 65.4999 22.2 65.2999 22.4 65.5999Z" fill="#EAF0D4"/>
<path d="M21.8999 69.1C22.1999 69.2 22.1999 69.6999 21.8999 70.1999C21.6999 70.6999 21.1999 71 20.9999 70.8C20.6999 70.7 20.6999 70.1999 20.9999 69.6999C21.2999 69.1999 21.6999 69 21.8999 69.1Z" fill="#EAF0D4"/>
<path d="M21.6 68.0999C21.7 68.3999 21.3 68.6999 20.8 68.8999C20.3 69.0999 19.8 68.9999 19.7 68.6999C19.6 68.3999 20 68.0999 20.5 67.8999C21 67.7999 21.5 67.8999 21.6 68.0999Z" fill="#EAF0D4"/>
<path d="M20.9998 63.7C20.8998 63.4 21.3998 63 22.0998 62.8C22.7998 62.6 23.3998 62.6 23.4998 62.9C23.5998 63.2 23.0998 63.6 22.3998 63.8C21.6998 64 21.0998 64 20.9998 63.7Z" fill="#EAF0D4"/>
<path d="M43.4999 69C43.8999 67.4 42.8999 65.5 41.6999 64.3C38.7999 61.3 39.0999 62.2 36.8999 61.5C35.6999 61.1 35.2999 60.7 34.1999 60.2C32.2999 59.2 31.5999 59.4 29.3999 60.1C26.8999 60.9 25.8999 61.7 25.0999 63.9C24.7999 64.6 23.2999 67.6 22.5999 68.6C21.7999 69.6 22.1999 72.2 22.3999 73.4C22.9999 76.8 25.5999 77.9 27.9999 78.8C29.1999 79.3 29.9999 79.9 31.1999 79.9C33.5999 79.8 33.3999 81.4 37.3999 79.6C38.8999 78.9 40.2999 78 40.7999 76C40.9999 75.1 40.9999 74.7 41.3999 73.9C41.6999 73.3 42.4999 72.9 42.8999 72.4C43.3999 71.3 43.1999 70.3 43.4999 69Z" fill="#2D7C36"/>
<path d="M42.1999 68.2C42.4999 66.7 41.6999 65.1 40.5999 64C38.0999 61.4 38.2999 62.2 36.2999 61.5C35.2999 61.1 34.8999 60.8 33.8999 60.3C32.1999 59.5 31.5999 59.6 29.6999 60.2C27.4999 60.9 26.5999 61.7 25.8999 63.6C25.5999 64.2 24.2999 67 23.5999 67.8C22.8999 68.7 23.1999 71 23.3999 72.1C23.8999 75.1 26.1999 76.1 28.2999 76.9C29.3999 77.3 29.9999 77.9 31.1999 77.8C33.2999 77.7 33.0999 79.1 36.5999 77.5C37.8999 76.9 39.1999 76.1 39.5999 74.3C39.7999 73.5 39.7999 73.1 40.1999 72.4C40.4999 71.9 41.1999 71.5 41.4999 71C42.0999 70.2 41.8999 69.3 42.1999 68.2Z" fill="url(#paint25_radial)"/>
<path d="M37.9001 64.4C40.2001 64.4 40.7 67 40.6 68.7C40.5 70.9 40.2001 72.4 37.7001 71.3C36.7001 70.8 33.7 69.5 33.8 68.1C33.8 66.9 36.7001 64.4 37.9001 64.4Z" fill="#9DC150"/>
<path d="M37.4 73.9C37.4 76 34.9 76.3 33.2 76.2C31 76 29.5 75.6 30.6 73.4C31.1 72.5 32.4 69.8 33.7 69.9C34.9 70 37.4 72.9 37.4 73.9Z" fill="#9DC150"/>
<path d="M27.9999 74.1C25.8999 74.3 25.2999 71.9 25.2999 70.2C25.1999 68 25.4999 66.4 27.7999 67.3C28.7999 67.7 31.4999 68.7 31.5999 70C31.5999 71.2 29.0999 74 27.9999 74.1Z" fill="#9DC150"/>
<path d="M27.5999 65.3C27.0999 63 29.4999 62 31.1999 61.7C33.2999 61.3 34.8999 61.3 34.2999 64C34.0999 65.1 33.3999 68.3 32.0999 68.6C30.9999 68.8 27.8999 66.5 27.5999 65.3Z" fill="#9DC150"/>
<path d="M31.8998 65.4999C31.7998 65.7999 30.9998 65.7999 30.2998 65.4999C29.4998 65.1999 28.9998 64.6999 29.0998 64.3999C29.1998 64.0999 29.9998 64.0999 30.6998 64.3999C31.4998 64.5999 31.9998 65.1999 31.8998 65.4999Z" fill="#EAF0D4"/>
<path d="M32.5998 67.4999C32.2998 67.3999 32.2998 66.5999 32.5998 65.8999C32.8998 65.0999 33.3998 64.5999 33.6998 64.6999C33.9998 64.7999 33.9998 65.5999 33.6998 66.2999C33.3998 67.0999 32.8998 67.5999 32.5998 67.4999Z" fill="#EAF0D4"/>
<path d="M31.2999 64.1999C30.9999 64.1999 30.8 63.8 30.7 63.2C30.7 62.7 30.9 62.2 31.2 62.2C31.5 62.2 31.6999 62.6 31.7999 63.2C31.7999 63.7 31.5999 64.1999 31.2999 64.1999Z" fill="#EAF0D4"/>
<path d="M32.0998 64.7999C31.8998 64.5999 31.9998 64.0999 32.3998 63.6999C32.7998 63.2999 33.1998 63.0999 33.4998 63.2999C33.6998 63.4999 33.5998 63.9999 33.1998 64.3999C32.7998 64.7999 32.2998 64.9999 32.0998 64.7999Z" fill="#EAF0D4"/>
<path d="M36.8999 68.2C36.5999 68.3 36.1999 67.7 35.9999 66.9C35.7999 66.1 35.9999 65.4 36.2999 65.3C36.5999 65.2 36.9999 65.8 37.1999 66.7C37.3999 67.4 37.2999 68.1 36.8999 68.2Z" fill="#EAF0D4"/>
<path d="M35.6 69.9001C35.5 69.6001 36.1 69.2001 37 69.0001C37.8 68.8001 38.5 69.0001 38.6 69.3001C38.7 69.6001 38.1 70.0001 37.2 70.2001C36.4 70.4001 35.7 70.2001 35.6 69.9001Z" fill="#EAF0D4"/>
<path d="M37.6999 67C37.4999 66.8 37.7999 66.3 38.1999 66C38.5999 65.7 39.0999 65.6 39.2999 65.9C39.4999 66.1 39.1999 66.6 38.7999 66.9C38.3999 67.2 37.8999 67.2 37.6999 67Z" fill="#EAF0D4"/>
<path d="M37.6001 68.0001C37.7001 67.7001 38.1001 67.6001 38.7001 67.7001C39.2001 67.8001 39.6001 68.1001 39.6001 68.4001C39.5001 68.7001 39.1001 68.8001 38.5001 68.7001C37.9001 68.6001 37.6001 68.3001 37.6001 68.0001Z" fill="#EAF0D4"/>
<path d="M33.3999 73C33.3999 72.7 33.9999 72.3 34.7999 72.2C35.5999 72.1 36.2999 72.3 36.3999 72.7C36.3999 73 35.7999 73.4 34.9999 73.5C34.1999 73.5 33.4999 73.3 33.3999 73Z" fill="#EAF0D4"/>
<path d="M31.8998 71.5C32.1998 71.5 32.5998 72.1 32.6998 72.9C32.7998 73.7 32.5998 74.4 32.1998 74.5C31.8998 74.5 31.4998 73.9 31.4998 73.1C31.2998 72.2 31.5998 71.5 31.8998 71.5Z" fill="#EAF0D4"/>
<path d="M34.5998 73.9C34.8998 73.8 35.2998 74 35.4998 74.5C35.7998 75 35.7998 75.5 35.4998 75.6C35.1998 75.7 34.7998 75.5 34.5998 75C34.2998 74.5 34.2998 74 34.5998 73.9Z" fill="#EAF0D4"/>
<path d="M33.5999 73.7C33.8999 73.8 33.9999 74.3 33.7999 74.8C33.5999 75.3 33.2999 75.7 32.9999 75.6C32.6999 75.5 32.5999 75 32.7999 74.5C32.8999 73.9 33.2999 73.6 33.5999 73.7Z" fill="#EAF0D4"/>
<path d="M28.3998 70.5C28.6998 70.4 29.1998 71 29.3998 71.8C29.5998 72.6 29.5998 73.3 29.1998 73.4C28.8998 73.5 28.3998 72.9 28.1998 72.1C27.9998 71.3 28.0998 70.6 28.3998 70.5Z" fill="#EAF0D4"/>
<path d="M29.5999 68.6001C29.6999 68.9001 29.0999 69.4001 28.2999 69.6001C27.4999 69.8001 26.7999 69.8001 26.6999 69.4001C26.5999 69.1001 27.1999 68.6001 27.9999 68.4001C28.6999 68.2001 29.4999 68.3001 29.5999 68.6001Z" fill="#EAF0D4"/>
<path d="M27.7999 71.7001C27.9999 71.9001 27.7999 72.4001 27.3999 72.7001C26.9999 73.1001 26.4999 73.2001 26.2999 72.9001C26.0999 72.7001 26.2999 72.2001 26.6999 71.9001C27.0999 71.6001 27.5999 71.5001 27.7999 71.7001Z" fill="#EAF0D4"/>
<path d="M27.7998 70.7001C27.7998 71.0001 27.2998 71.2001 26.7998 71.1001C26.2998 71.1001 25.7998 70.8001 25.8998 70.5001C25.8998 70.2001 26.3998 70.0001 26.8998 70.1001C27.3998 70.1001 27.7998 70.4001 27.7998 70.7001Z" fill="#EAF0D4"/>
<path d="M28.8999 66.4C28.8999 66.1 29.4999 65.9 30.1999 66C30.8999 66.1 31.4999 66.3 31.4999 66.6C31.4999 66.9 30.8999 67.1 30.1999 67C29.4999 66.9 28.8999 66.7 28.8999 66.4Z" fill="#EAF0D4"/>
<path d="M53.6001 69.7C53.6001 68 52.3001 66.3 50.8001 65.3C47.3001 62.9 47.8001 63.8 45.4001 63.4C44.2001 63.2 43.6001 62.9 42.4001 62.6C40.3001 62 39.6001 62.4 37.6001 63.5C35.3001 64.8 34.5001 65.8 34.0001 68.2C33.9001 69 33.0001 72.3 32.4001 73.4C31.8001 74.6 32.7001 77 33.2001 78.2C34.5001 81.5 37.4001 82 40.0001 82.5C41.3001 82.7 42.2001 83.2 43.5001 82.9C45.9001 82.3 46.0001 84 49.6001 81.4C51.0001 80.4 52.2001 79.2 52.2001 77.2C52.2001 76.3 52.1001 75.8 52.4001 75C52.6001 74.4 53.3001 73.8 53.6001 73.2C54.0001 72 53.5001 71 53.6001 69.7Z" fill="#2D7C36"/>
<path d="M52.3001 69.2C52.3001 67.7 51.2001 66.2 49.9001 65.3C46.9001 63.2 47.3001 63.9 45.1001 63.6C44.0001 63.5 43.5001 63.2 42.5001 62.9C40.7001 62.4 40.1001 62.7 38.3001 63.7C36.3001 64.8 35.5001 65.8 35.2001 67.9C35.1001 68.6 34.3001 71.6 33.8001 72.6C33.3001 73.7 34.1001 75.9 34.5001 76.9C35.6001 79.9 38.2001 80.3 40.4001 80.7C41.6001 80.9 42.3001 81.4 43.5001 81.1C45.6001 80.6 45.7001 82 48.9001 79.7C50.1001 78.8 51.2001 77.7 51.2001 75.9C51.2001 75.1 51.1001 74.7 51.4001 73.9C51.6001 73.3 52.2001 72.8 52.4001 72.3C52.6001 71.3 52.2001 70.4 52.3001 69.2Z" fill="url(#paint26_radial)"/>
<path d="M47.2001 66.3C49.5001 65.9 50.5001 68.3 50.8001 70C51.2001 72.2 51.2001 73.8 48.4001 73.2C47.3001 72.9 44.1001 72.2 43.8001 70.8C43.6001 69.6 46.0001 66.5 47.2001 66.3Z" fill="#9DC150"/>
<path d="M48.7001 75.9C49.1001 78.1 46.7001 78.8 44.9001 79C42.7001 79.3 41.1001 79.2 41.8001 76.7C42.1001 75.7 42.9001 72.8 44.2001 72.6C45.3001 72.5 48.4001 74.9 48.7001 75.9Z" fill="#9DC150"/>
<path d="M39.2 78C37.1 78.7 36 76.3 35.7 74.6C35.2 72.4 35.1 70.8 37.7 71.2C38.7 71.4 41.7 71.8 42.1 73.1C42.3 74.3 40.3 77.7 39.2 78Z" fill="#9DC150"/>
<path d="M37.1 69.3C36.2 67.1 38.3 65.5999 40 64.9999C42.1 64.1999 43.7 63.7999 43.6 66.5999C43.6 67.6999 43.5 71.0999 42.3 71.5999C41.2 72.0999 37.6 70.4 37.1 69.3Z" fill="#9DC150"/>
<path d="M41.4002 68.6C41.3002 68.9 40.6002 69.1 39.8002 68.9C39.0002 68.8 38.3002 68.3 38.4002 68C38.5002 67.7 39.2002 67.5 40.0002 67.6C40.8002 67.8 41.4002 68.2 41.4002 68.6Z" fill="#EAF0D4"/>
<path d="M42.5001 70.3999C42.2001 70.2999 42.0001 69.5999 42.2001 68.7999C42.4001 67.9999 42.8001 67.2999 43.1001 67.3999C43.4001 67.4999 43.6001 68.1999 43.5001 68.9999C43.2001 69.8999 42.8001 70.4999 42.5001 70.3999Z" fill="#EAF0D4"/>
<path d="M40.5001 67.4C40.2001 67.5 39.9001 67.1 39.7001 66.5C39.6001 66 39.7001 65.5 40.0001 65.4C40.3001 65.3 40.6001 65.7 40.8001 66.3C40.9001 66.8 40.8001 67.3 40.5001 67.4Z" fill="#EAF0D4"/>
<path d="M41.4001 67.8999C41.1001 67.6999 41.2001 67.1999 41.5001 66.7999C41.8001 66.2999 42.2001 66.0999 42.5001 66.1999C42.8001 66.3999 42.7001 66.8999 42.4001 67.2999C42.1001 67.7999 41.7001 67.9999 41.4001 67.8999Z" fill="#EAF0D4"/>
<path d="M47.0002 70.3C46.7002 70.4 46.1002 69.9 45.8002 69.1C45.5002 68.3 45.5002 67.6 45.8002 67.4C46.1002 67.3 46.6002 67.8 47.0002 68.6C47.3002 69.4 47.3002 70.1 47.0002 70.3Z" fill="#EAF0D4"/>
<path d="M46.1001 72.2C46.0001 71.9 46.5001 71.3 47.3001 71C48.1001 70.7 48.8001 70.7 49.0001 71C49.1001 71.3 48.6001 71.8 47.8001 72.2C46.9001 72.6 46.2001 72.6 46.1001 72.2Z" fill="#EAF0D4"/>
<path d="M47.5001 68.9C47.3001 68.7 47.4001 68.2 47.8001 67.8C48.2001 67.4 48.7001 67.2 48.9001 67.4C49.1001 67.6 49.0001 68.1 48.6001 68.5C48.2001 69 47.7001 69.1 47.5001 68.9Z" fill="#EAF0D4"/>
<path d="M47.6001 69.9C47.6001 69.6 48.0001 69.4 48.6001 69.3C49.2001 69.3 49.6001 69.5 49.6001 69.8C49.6001 70.1 49.2001 70.3 48.6001 70.4C48.1001 70.5 47.6001 70.2 47.6001 69.9Z" fill="#EAF0D4"/>
<path d="M44.4999 75.8001C44.3999 75.5001 44.9999 75.0001 45.7999 74.8001C46.5999 74.6001 47.3999 74.6001 47.4999 75.0001C47.5999 75.3001 46.9999 75.8001 46.1999 76.0001C45.2999 76.2001 44.5999 76.1001 44.4999 75.8001Z" fill="#EAF0D4"/>
<path d="M42.5999 74.6C42.8999 74.5 43.3999 75.1 43.5999 75.9C43.7999 76.7 43.8 77.5 43.4 77.6C43.1 77.7 42.6 77.1 42.4 76.3C42.2 75.5 42.2999 74.7 42.5999 74.6Z" fill="#EAF0D4"/>
<path d="M45.7999 76.4C45.9999 76.2 46.4999 76.4 46.8999 76.8C47.2999 77.2 47.3999 77.7 47.0999 77.9C46.8999 78.1 46.3999 77.9 45.9999 77.5C45.5999 77.1 45.4999 76.6 45.7999 76.4Z" fill="#EAF0D4"/>
<path d="M44.7 76.4C45 76.4 45.2 76.9 45.1 77.5C45.1 78.1 44.8 78.5 44.5 78.5C44.2 78.5 44 78 44.1 77.4C44.1 76.8 44.4 76.4 44.7 76.4Z" fill="#EAF0D4"/>
<path d="M38.9 74.3C39.2 74.1 39.8 74.6 40.2 75.4C40.6 76.1 40.7 76.9 40.4 77.1C40.1 77.3 39.5 76.8 39.1 76C38.7 75.2 38.6 74.4 38.9 74.3Z" fill="#EAF0D4"/>
<path d="M39.7001 72.1999C39.9001 72.4999 39.4001 73.0999 38.6001 73.4999C37.9001 73.8999 37.1001 73.9999 36.9001 73.6999C36.7001 73.3999 37.2001 72.7999 38.0001 72.3999C38.8001 71.9999 39.5001 71.8999 39.7001 72.1999Z" fill="#EAF0D4"/>
<path d="M38.5001 75.6999C38.7001 75.8999 38.6001 76.3999 38.3001 76.7999C38.0001 77.1999 37.5001 77.4999 37.3001 77.2999C37.1001 77.0999 37.2001 76.5999 37.5001 76.1999C37.8001 75.6999 38.3001 75.4999 38.5001 75.6999Z" fill="#EAF0D4"/>
<path d="M38.3 74.6999C38.3 74.9999 37.9001 75.2999 37.4001 75.2999C36.8001 75.3999 36.4 75.1999 36.3 74.8999C36.3 74.5999 36.7001 74.2999 37.2001 74.2999C37.8001 74.1999 38.3 74.3999 38.3 74.6999Z" fill="#EAF0D4"/>
<path d="M38.6001 70.1C38.6001 69.8 39.1001 69.5 39.9001 69.4C40.6001 69.3 41.2001 69.5 41.3001 69.8C41.3001 70.1 40.8001 70.4 40.0001 70.5C39.3001 70.5 38.6001 70.4 38.6001 70.1Z" fill="#EAF0D4"/>
<path d="M63.7001 69.2C63.4001 67.5 61.8001 66 60.1001 65.2C56.1001 63.4 56.8001 64.2 54.3001 64.3C53.0001 64.4 52.4001 64.2 51.1001 64.1C48.9001 63.9 48.3001 64.4 46.4001 65.9C44.3001 67.6 43.7001 68.8 43.7001 71.3C43.7001 72.1 43.4001 75.7 43.1001 76.9C42.7001 78.2 44.1001 80.5 44.8001 81.7C46.7001 84.8 49.7001 84.8 52.4001 84.8C53.8001 84.8 54.7001 85.1 56.0001 84.6C58.3001 83.6 58.7001 85.2 61.9001 81.9C63.1001 80.6 64.1001 79.2 63.8001 77.1C63.6001 76.1 63.5001 75.7 63.6001 74.8C63.7001 74.1 64.3001 73.4 64.4001 72.7C64.5001 71.4 63.9001 70.5 63.7001 69.2Z" fill="#2D7C36"/>
<path d="M62.4002 69.1C62.2002 67.5 60.7002 66.3 59.2002 65.6C55.7002 64 56.3002 64.7 54.1002 64.8C53.0002 64.8 52.4002 64.7 51.3002 64.6C49.3002 64.4 48.8002 64.8 47.2002 66.2C45.4002 67.7 44.8002 68.8 44.8002 71C44.8002 71.7 44.6002 74.9 44.2002 76C43.9002 77.2 45.1002 79.2 45.7002 80.3C47.4002 83.1 50.0002 83.1 52.4002 83.1C53.6002 83.1 54.5002 83.4 55.6002 82.9C57.6002 82 58.0002 83.5 60.8002 80.5C61.9002 79.4 62.8002 78.1 62.5002 76.2C62.4002 75.3 62.2002 75 62.3002 74.2C62.4002 73.6 63.0002 73 63.0002 72.3C63.2002 71.2 62.6002 70.4 62.4002 69.1Z" fill="url(#paint27_radial)"/>
<path d="M56.8002 67.1999C59.1002 66.2999 60.5002 68.5999 61.1002 70.2999C61.9002 72.4999 62.2002 74.0999 59.3002 73.8999C58.1002 73.7999 54.7002 73.5999 54.2002 72.2999C53.7002 71.1999 55.6002 67.5999 56.8002 67.1999Z" fill="#9DC150"/>
<path d="M60.0002 76.7C60.8002 78.8 58.5002 80 56.8002 80.6C54.6002 81.3 53.0002 81.5 53.2002 78.8C53.3002 77.7 53.6002 74.6 54.9002 74.2C56.0002 73.8 59.6002 75.6 60.0002 76.7Z" fill="#9DC150"/>
<path d="M50.9002 80.5C48.9002 81.5 47.4002 79.4 46.7002 77.7C45.8002 75.6 45.4002 74 48.1002 73.9C49.2002 73.9 52.3002 73.8 52.9002 75.1C53.3002 76.2 51.9002 79.9 50.9002 80.5Z" fill="#9DC150"/>
<path d="M47.1001 72C45.8001 70 47.7001 68.1 49.2001 67.1C51.1001 65.9 52.7001 65.2 53.1001 68.1C53.3001 69.3 53.9001 72.6 52.7001 73.4C51.7001 74.1 47.8001 73.1 47.1001 72Z" fill="#9DC150"/>
<path d="M51.3001 70.4999C51.3001 70.8999 50.6001 71.0999 49.7001 71.0999C48.8001 71.0999 48.1001 70.7999 48.1001 70.4999C48.1001 70.0999 48.8001 69.7999 49.7001 69.7999C50.6001 69.8999 51.3001 70.1999 51.3001 70.4999Z" fill="#EAF0D4"/>
<path d="M52.8002 72.2C52.4002 72.2 52.2002 71.5 52.2002 70.6C52.2002 69.7 52.5002 69 52.9002 69C53.3002 69 53.6002 69.7 53.6002 70.6C53.4002 71.5 53.1002 72.2 52.8002 72.2Z" fill="#EAF0D4"/>
<path d="M50.2 69.5C49.9 69.6 49.5 69.3 49.3 68.8C49.1 68.3 49.1 67.8 49.4 67.6C49.7 67.5 50.1 67.8 50.3 68.3C50.5 68.8 50.5 69.4 50.2 69.5Z" fill="#EAF0D4"/>
<path d="M51.2001 69.8C50.9001 69.7 50.9001 69.2 51.1001 68.6C51.3001 68.1 51.7001 67.7 52.0001 67.8C52.3001 67.9 52.3001 68.4 52.1001 69C51.9001 69.6 51.5001 69.9 51.2001 69.8Z" fill="#EAF0D4"/>
<path d="M57.3001 71.1999C57.0001 71.3999 56.4001 70.9999 55.9001 70.1999C55.4001 69.4999 55.3001 68.6999 55.6001 68.4999C55.9001 68.2999 56.5001 68.6999 57.0001 69.4999C57.5001 70.2999 57.6001 70.9999 57.3001 71.1999Z" fill="#EAF0D4"/>
<path d="M56.7001 73.4C56.5001 73.1 56.9001 72.5 57.7001 72C58.4001 71.5 59.2001 71.4 59.4001 71.7C59.6001 72 59.2001 72.6 58.4001 73.1C57.7001 73.5 56.9001 73.7 56.7001 73.4Z" fill="#EAF0D4"/>
<path d="M57.6001 69.8C57.3001 69.6 57.4001 69.1 57.7001 68.6C58.0001 68.1 58.5001 67.9 58.7001 68C59.0001 68.2 58.9001 68.7 58.6001 69.2C58.3001 69.7 57.9001 69.9 57.6001 69.8Z" fill="#EAF0D4"/>
<path d="M57.9001 70.8C57.8001 70.5 58.2001 70.2 58.8001 70.1C59.4001 70 59.9001 70.1 59.9001 70.4C60.0001 70.7 59.6001 71 59.0001 71.1C58.5001 71.2 58.0001 71.1 57.9001 70.8Z" fill="#EAF0D4"/>
<path d="M55.8002 77.2C55.6002 76.9 56.1002 76.3 56.9002 75.9C57.7002 75.5 58.4002 75.4001 58.6002 75.8001C58.8002 76.1001 58.3002 76.7 57.5002 77.1C56.7002 77.5 55.9002 77.6 55.8002 77.2Z" fill="#EAF0D4"/>
<path d="M53.7002 76.4001C54.0002 76.2001 54.6002 76.7001 55.0002 77.5001C55.4002 78.3001 55.5002 79.0001 55.1002 79.2001C54.8002 79.4001 54.2002 78.9001 53.8002 78.1001C53.4002 77.3001 53.3002 76.6001 53.7002 76.4001Z" fill="#EAF0D4"/>
<path d="M57.2002 77.7C57.4002 77.5 57.9002 77.6 58.4002 77.9C58.8002 78.3 59.0002 78.7 58.9002 79C58.7002 79.2 58.2002 79.1 57.7002 78.8C57.2002 78.4 57.0002 77.9 57.2002 77.7Z" fill="#EAF0D4"/>
<path d="M56.1001 77.9C56.4001 77.9 56.7001 78.3 56.7001 78.9C56.7001 79.5 56.5001 80 56.2001 80C55.9001 80 55.6001 79.6 55.6001 79C55.6001 78.4 55.8001 77.9 56.1001 77.9Z" fill="#EAF0D4"/>
<path d="M49.9 76.7C50.2 76.5 50.8 76.8 51.4 77.5C51.9 78.2 52.2 78.9 51.9 79.1C51.6 79.3 51 79 50.4 78.3C49.8 77.7 49.6 77 49.9 76.7Z" fill="#EAF0D4"/>
<path d="M50.2999 74.4999C50.4999 74.7999 50.1999 75.4999 49.4999 75.9999C48.7999 76.4999 48.0999 76.7999 47.8999 76.4999C47.6999 76.1999 47.9999 75.4999 48.6999 74.9999C49.2999 74.4999 50.0999 74.1999 50.2999 74.4999Z" fill="#EAF0D4"/>
<path d="M49.7001 78.1999C50.0001 78.2999 50.0001 78.9 49.7001 79.4C49.4001 79.9 49.0001 80.1999 48.7001 80.0999C48.4001 79.9999 48.4001 79.4 48.7001 78.9C49.0001 78.4 49.5001 78.0999 49.7001 78.1999Z" fill="#EAF0D4"/>
<path d="M49.4 77.1999C49.5 77.4999 49.1 77.8999 48.6 77.9999C48.1 78.1999 47.5 78.0999 47.5 77.7999C47.4 77.4999 47.8 77.0999 48.3 76.9999C48.8 76.7999 49.3 76.8999 49.4 77.1999Z" fill="#EAF0D4"/>
<path d="M48.8001 72.5999C48.7001 72.2999 49.2001 71.8999 49.9001 71.6999C50.6001 71.4999 51.3001 71.4999 51.4001 71.7999C51.5001 72.0999 51.0001 72.4999 50.3001 72.6999C49.5001 72.8999 48.9001 72.8999 48.8001 72.5999Z" fill="#EAF0D4"/>
<path d="M74.7 68.3999C74.4 66.5999 72.7 65.1999 71 64.3999C66.9 62.5999 67.6 63.3999 64.9 63.4999C63.6 63.5999 62.9 63.3999 61.6 63.2999C59.3 63.0999 58.7 63.5999 56.7 65.0999C54.5 66.7999 53.9 68.0999 53.9 70.5999C53.9 71.3999 53.6 74.9999 53.2 76.2999C52.8 77.5999 54.2 79.9999 55 81.0999C57 84.2999 60.1 84.2999 62.9 84.2999C64.3 84.2999 65.3 84.6999 66.6 84.0999C69 82.9999 69.4 84.6999 72.7 81.3999C74 80.0999 75 78.6999 74.7 76.5999C74.5 75.5999 74.4 75.1999 74.5 74.2999C74.6 73.5999 75.3 72.8999 75.4 72.1999C75.6 70.7999 75 69.7999 74.7 68.3999Z" fill="#2D7C36"/>
<path d="M72.8001 68.4C72.6001 66.8 71.1001 65.6 69.6001 64.9C66.1001 63.3 66.7001 64 64.5001 64.1C63.4001 64.1 62.8001 64 61.7001 63.9C59.7001 63.7 59.2001 64.1 57.6001 65.5C55.8001 67 55.2001 68.1 55.2001 70.3C55.2001 71 55.0001 74.2 54.6001 75.3C54.3001 76.5 55.5001 78.5 56.1001 79.6C57.8001 82.4 60.4001 82.4 62.8001 82.4C64.0001 82.4 64.9001 82.7 66.0001 82.2C68.0001 81.3 68.4001 82.8 71.2001 79.8C72.3001 78.7 73.2001 77.4 72.9001 75.5C72.8001 74.6 72.6001 74.3 72.7001 73.5C72.8001 72.9 73.4001 72.3 73.4001 71.6C73.5001 70.4 72.9001 69.6 72.8001 68.4Z" fill="url(#paint28_radial)"/>
<path d="M67.0999 66.3999C69.3999 65.4999 70.7999 67.7999 71.3999 69.4999C72.1999 71.6999 72.4999 73.2999 69.5999 73.0999C68.3999 72.9999 64.9999 72.7999 64.4999 71.4999C63.9999 70.3999 65.9999 66.7999 67.0999 66.3999Z" fill="#9DC150"/>
<path d="M70.3 75.9C71.1 78 68.8 79.3 67.1 79.8C64.9 80.5 63.3 80.7 63.5 78C63.6 76.9 63.9 73.8 65.2 73.4C66.4 73 69.9 74.9 70.3 75.9Z" fill="#9DC150"/>
<path d="M61.2 79.6999C59.2 80.6999 57.7 78.5999 57 76.8999C56.1 74.7999 55.7 73.1999 58.4 73.0999C59.5 73.0999 62.6 72.9999 63.2 74.2999C63.6 75.3999 62.2 79.1999 61.2 79.6999Z" fill="#9DC150"/>
<path d="M57.4001 71.2999C56.1001 69.2999 58.0001 67.3999 59.5001 66.3999C61.4001 65.1999 63.0001 64.4999 63.4001 67.3999C63.6001 68.5999 64.2001 71.8999 63.0001 72.6999C62.1001 73.3999 58.1001 72.2999 57.4001 71.2999Z" fill="#9DC150"/>
<path d="M61.6001 69.7999C61.6001 70.1999 60.9001 70.4999 60.0001 70.4999C59.1001 70.4999 58.4001 70.1999 58.4001 69.7999C58.4001 69.3999 59.1001 69.1999 60.0001 69.1999C60.9001 69.0999 61.6001 69.3999 61.6001 69.7999Z" fill="#EAF0D4"/>
<path d="M63.1002 71.4999C62.7002 71.4999 62.5002 70.7999 62.5002 69.8999C62.5002 68.9999 62.8002 68.2999 63.2002 68.2999C63.6002 68.2999 63.8002 68.9999 63.8002 69.8999C63.8002 70.7999 63.5002 71.4999 63.1002 71.4999Z" fill="#EAF0D4"/>
<path d="M60.6002 68.6999C60.3002 68.7999 59.9002 68.4999 59.7002 67.9999C59.5002 67.4999 59.5002 66.9999 59.8002 66.7999C60.1002 66.6999 60.5002 66.9999 60.7002 67.4999C60.9002 68.0999 60.8002 68.5999 60.6002 68.6999Z" fill="#EAF0D4"/>
<path d="M61.6002 68.9999C61.3002 68.8999 61.3002 68.3999 61.5002 67.7999C61.7002 67.2999 62.1002 66.8999 62.4002 66.9999C62.7002 67.0999 62.7002 67.5999 62.5002 68.1999C62.3002 68.7999 61.9002 69.1999 61.6002 68.9999Z" fill="#EAF0D4"/>
<path d="M67.5999 70.5C67.2999 70.7 66.6999 70.3 66.1999 69.5C65.6999 68.8 65.6 68 65.9 67.8C66.2 67.6 66.8 68 67.3 68.8C67.8 69.5 67.8999 70.3 67.5999 70.5Z" fill="#EAF0D4"/>
<path d="M66.9999 72.5999C66.7999 72.2999 67.1999 71.6999 67.9999 71.1999C68.6999 70.6999 69.4999 70.6 69.6999 70.9C69.8999 71.2 69.4999 71.8 68.6999 72.3C67.9999 72.8 67.1999 72.8999 66.9999 72.5999Z" fill="#EAF0D4"/>
<path d="M67.8999 68.9999C67.5999 68.7999 67.6999 68.2999 67.9999 67.7999C68.2999 67.2999 68.7999 67.0999 68.9999 67.1999C69.2999 67.3999 69.1999 67.8999 68.8999 68.3999C68.5999 68.8999 68.1999 69.1999 67.8999 68.9999Z" fill="#EAF0D4"/>
<path d="M68.1999 69.9999C68.0999 69.6999 68.4999 69.4 69.0999 69.3C69.6999 69.2 70.1999 69.2999 70.1999 69.5999C70.2999 69.8999 69.8999 70.2 69.2999 70.3C68.7999 70.5 68.2999 70.2999 68.1999 69.9999Z" fill="#EAF0D4"/>
<path d="M66.1 76.5C65.9 76.2 66.4 75.6 67.2 75.2C68 74.8 68.7 74.7 68.9 75.1C69.1 75.4 68.6 76 67.8 76.4C67 76.7 66.2 76.8 66.1 76.5Z" fill="#EAF0D4"/>
<path d="M64 75.7C64.3 75.5 64.9 76 65.3 76.8C65.7 77.6 65.8 78.3 65.4 78.5C65.1 78.7 64.5 78.2 64.1 77.4C63.7 76.6 63.7 75.8 64 75.7Z" fill="#EAF0D4"/>
<path d="M67.5001 76.9C67.7001 76.7 68.2001 76.7999 68.6001 77.0999C69.0001 77.4999 69.2001 77.8999 69.1001 78.1999C68.9001 78.3999 68.4001 78.2999 67.9001 77.9999C67.5001 77.5999 67.3001 77.2 67.5001 76.9Z" fill="#EAF0D4"/>
<path d="M66.5001 77.1C66.8001 77.1 67.1001 77.5 67.1001 78.1C67.1001 78.7 66.9001 79.1 66.6001 79.2C66.3001 79.2 66.0001 78.8 66.0001 78.2C65.9001 77.6 66.1001 77.1 66.5001 77.1Z" fill="#EAF0D4"/>
<path d="M60.2001 75.9999C60.5001 75.7999 61.2001 76.0999 61.7001 76.7999C62.2001 77.4999 62.5001 78.1999 62.2001 78.3999C61.9001 78.5999 61.2001 78.2999 60.7001 77.5999C60.1001 76.8999 59.9001 76.1999 60.2001 75.9999Z" fill="#EAF0D4"/>
<path d="M60.6 73.7999C60.8 74.0999 60.5 74.6999 59.8 75.2999C59.1 75.7999 58.4 76.0999 58.2 75.7999C58 75.4999 58.3 74.8999 59 74.2999C59.6 73.6999 60.4 73.4999 60.6 73.7999Z" fill="#EAF0D4"/>
<path d="M60.1 77.4999C60.4 77.5999 60.4 78.1999 60.1 78.6999C59.8 79.1999 59.4 79.4999 59.1 79.3999C58.8 79.2999 58.8 78.6999 59.1 78.1999C59.4 77.5999 59.8 77.2999 60.1 77.4999Z" fill="#EAF0D4"/>
<path d="M59.7 76.5C59.8 76.8 59.4 77.2 58.9 77.3C58.4 77.5 57.8 77.4 57.7 77.1C57.6 76.8 58 76.4 58.5 76.3C59.1 76.1 59.6 76.2 59.7 76.5Z" fill="#EAF0D4"/>
<path d="M59.1001 71.7999C59.0001 71.4999 59.5001 71.0999 60.2001 70.8999C60.9001 70.6999 61.6001 70.6999 61.7001 70.9999C61.8001 71.2999 61.3001 71.6999 60.6001 71.8999C59.8001 72.1999 59.2001 72.0999 59.1001 71.7999Z" fill="#EAF0D4"/>
<defs>
<linearGradient id="paint0_linear" x1="57.1805" y1="42.7353" x2="57.1805" y2="87.4494" gradientUnits="userSpaceOnUse">
<stop stop-color="#CECECE"/>
<stop offset="0.1045" stop-color="#D4D4D4"/>
<stop offset="0.6908" stop-color="#F0F0F0"/>
<stop offset="1" stop-color="#FAFAFA"/>
</linearGradient>
<linearGradient id="paint1_linear" x1="57.2637" y1="41.7583" x2="57.2637" y2="92.123" gradientUnits="userSpaceOnUse">
<stop stop-color="#F9F8F8"/>
<stop offset="0.1487" stop-color="#F5F5F5"/>
<stop offset="0.3202" stop-color="#EBEBEB"/>
<stop offset="0.5032" stop-color="#DADADA"/>
<stop offset="0.6941" stop-color="#C1C1C1"/>
<stop offset="0.8892" stop-color="#9F9F9F"/>
<stop offset="1" stop-color="#898988"/>
</linearGradient>
<linearGradient id="paint2_linear" x1="57.3848" y1="51.3759" x2="57.3848" y2="80.5993" gradientUnits="userSpaceOnUse">
<stop stop-color="#D2D2D2"/>
<stop offset="0.379" stop-color="#DBDBDB"/>
<stop offset="1" stop-color="#E5E5E5"/>
</linearGradient>
<linearGradient id="paint3_linear" x1="57.0967" y1="53.437" x2="57.9284" y2="91.8337" gradientUnits="userSpaceOnUse">
<stop offset="0.00537634" stop-color="#949494"/>
<stop offset="0.0990117" stop-color="#A7A7A7"/>
<stop offset="0.2968" stop-color="#C8C8C8"/>
<stop offset="0.4902" stop-color="#E1E1E1"/>
<stop offset="0.6756" stop-color="#F2F2F1"/>
<stop offset="0.8494" stop-color="#FCFCFC"/>
<stop offset="1" stop-color="white"/>
</linearGradient>
<linearGradient id="paint4_linear" x1="11.6225" y1="58.2908" x2="100.388" y2="58.2908" gradientUnits="userSpaceOnUse">
<stop offset="0.00537634" stop-color="#549C2E"/>
<stop offset="0.0354345" stop-color="#519A2E"/>
<stop offset="0.6886" stop-color="#266A29"/>
<stop offset="1" stop-color="#165926"/>
</linearGradient>
<radialGradient id="paint5_radial" cx="0" cy="0" r="1" gradientUnits="userSpaceOnUse" gradientTransform="translate(71.8604 57.3882) rotate(-28.6298) scale(8.91192 10.8355)">
<stop offset="0.00537634" stop-color="#F18B61"/>
<stop offset="0.2172" stop-color="#F0875D"/>
<stop offset="0.4423" stop-color="#EB7B50"/>
<stop offset="0.6737" stop-color="#E3673C"/>
<stop offset="0.908" stop-color="#D74B23"/>
<stop offset="1" stop-color="#D23E19"/>
</radialGradient>
<linearGradient id="paint6_linear" x1="65.0223" y1="61.1068" x2="69.2888" y2="54.8951" gradientUnits="userSpaceOnUse">
<stop stop-color="#B91619"/>
<stop offset="0.2088" stop-color="#C5281F"/>
<stop offset="0.7176" stop-color="#E04931"/>
<stop offset="1" stop-color="#EA573A"/>
</linearGradient>
<linearGradient id="paint7_linear" x1="78.8729" y1="51.9788" x2="75.4557" y2="58.864" gradientUnits="userSpaceOnUse">
<stop stop-color="#B91619"/>
<stop offset="0.2088" stop-color="#C5281F"/>
<stop offset="0.7176" stop-color="#E04931"/>
<stop offset="1" stop-color="#EA573A"/>
</linearGradient>
<radialGradient id="paint8_radial" cx="0" cy="0" r="1" gradientUnits="userSpaceOnUse" gradientTransform="translate(46.6265 60.7186) rotate(-3.43981) scale(13.5721)">
<stop offset="0.00537634" stop-color="#F7B696"/>
<stop offset="0.1825" stop-color="#F7B292"/>
<stop offset="0.3707" stop-color="#F5A885"/>
<stop offset="0.5643" stop-color="#F39870"/>
<stop offset="0.7613" stop-color="#F07F54"/>
<stop offset="0.9593" stop-color="#EB5E33"/>
<stop offset="1" stop-color="#EA562C"/>
</radialGradient>
<linearGradient id="paint9_linear" x1="34.7026" y1="61.5752" x2="48.2417" y2="60.7614" gradientUnits="userSpaceOnUse">
<stop stop-color="#B91619"/>
<stop offset="0.2088" stop-color="#C5281F"/>
<stop offset="0.7176" stop-color="#E04931"/>
<stop offset="1" stop-color="#EA573A"/>
</linearGradient>
<linearGradient id="paint10_linear" x1="60.4141" y1="57.934" x2="48.0363" y2="61.3621" gradientUnits="userSpaceOnUse">
<stop stop-color="#B91619"/>
<stop offset="0.2088" stop-color="#C5281F"/>
<stop offset="0.7176" stop-color="#E04931"/>
<stop offset="1" stop-color="#EA573A"/>
</linearGradient>
<radialGradient id="paint11_radial" cx="0" cy="0" r="1" gradientUnits="userSpaceOnUse" gradientTransform="translate(90.954 52.1718) rotate(-28.6298) scale(10.0824 12.2587)">
<stop offset="0.00537634" stop-color="#F7B696"/>
<stop offset="0.1825" stop-color="#F7B292"/>
<stop offset="0.3707" stop-color="#F5A885"/>
<stop offset="0.5643" stop-color="#F39870"/>
<stop offset="0.7613" stop-color="#F07F54"/>
<stop offset="0.9593" stop-color="#EB5E33"/>
<stop offset="1" stop-color="#EA562C"/>
</radialGradient>
<linearGradient id="paint12_linear" x1="83.2183" y1="56.3787" x2="88.0449" y2="49.3518" gradientUnits="userSpaceOnUse">
<stop stop-color="#B91619"/>
<stop offset="0.2088" stop-color="#C5281F"/>
<stop offset="0.7176" stop-color="#E04931"/>
<stop offset="1" stop-color="#EA573A"/>
</linearGradient>
<linearGradient id="paint13_linear" x1="98.8885" y1="46.0511" x2="95.0219" y2="53.8416" gradientUnits="userSpaceOnUse">
<stop stop-color="#B91619"/>
<stop offset="0.2088" stop-color="#C5281F"/>
<stop offset="0.7176" stop-color="#E04931"/>
<stop offset="1" stop-color="#EA573A"/>
</linearGradient>
<radialGradient id="paint14_radial" cx="0" cy="0" r="1" gradientUnits="userSpaceOnUse" gradientTransform="translate(95.7097 60.354) rotate(-29.0496) scale(9.78607 12.1499)">
<stop offset="0.00537634" stop-color="#F7B696"/>
<stop offset="0.1825" stop-color="#F7B292"/>
<stop offset="0.3707" stop-color="#F5A885"/>
<stop offset="0.5643" stop-color="#F39870"/>
<stop offset="0.7613" stop-color="#F07F54"/>
<stop offset="0.9593" stop-color="#EB5E33"/>
<stop offset="1" stop-color="#EA562C"/>
</radialGradient>
<linearGradient id="paint15_linear" x1="88.1559" y1="64.4273" x2="92.8673" y2="57.6972" gradientUnits="userSpaceOnUse">
<stop stop-color="#B91619"/>
<stop offset="0.2088" stop-color="#C5281F"/>
<stop offset="0.7176" stop-color="#E04931"/>
<stop offset="1" stop-color="#EA573A"/>
</linearGradient>
<linearGradient id="paint16_linear" x1="103.528" y1="54.3189" x2="99.5814" y2="62.0956" gradientUnits="userSpaceOnUse">
<stop stop-color="#B91619"/>
<stop offset="0.2088" stop-color="#C5281F"/>
<stop offset="0.7176" stop-color="#E04931"/>
<stop offset="1" stop-color="#EA573A"/>
</linearGradient>
<radialGradient id="paint17_radial" cx="0" cy="0" r="1" gradientUnits="userSpaceOnUse" gradientTransform="translate(84.2419 70.8613) rotate(-23.2014) scale(10.9347 13.2945)">
<stop offset="0.00537634" stop-color="#F7B696"/>
<stop offset="0.1825" stop-color="#F7B292"/>
<stop offset="0.3707" stop-color="#F5A885"/>
<stop offset="0.5643" stop-color="#F39870"/>
<stop offset="0.7613" stop-color="#F07F54"/>
<stop offset="0.9593" stop-color="#EB5E33"/>
<stop offset="1" stop-color="#EA562C"/>
</radialGradient>
<linearGradient id="paint18_linear" x1="75.4585" y1="74.6102" x2="81.3907" y2="67.518" gradientUnits="userSpaceOnUse">
<stop stop-color="#B91619"/>
<stop offset="0.2088" stop-color="#C5281F"/>
<stop offset="0.7176" stop-color="#E04931"/>
<stop offset="1" stop-color="#EA573A"/>
</linearGradient>
<linearGradient id="paint19_linear" x1="93.4377" y1="65.0673" x2="88.4643" y2="73.0826" gradientUnits="userSpaceOnUse">
<stop stop-color="#B91619"/>
<stop offset="0.2088" stop-color="#C5281F"/>
<stop offset="0.7176" stop-color="#E04931"/>
<stop offset="1" stop-color="#EA573A"/>
</linearGradient>
<radialGradient id="paint20_radial" cx="0" cy="0" r="1" gradientUnits="userSpaceOnUse" gradientTransform="translate(14.1266 58.7012) rotate(8.5166) scale(6.27367)">
<stop stop-color="#8CA1B7"/>
<stop offset="0.4805" stop-color="#5E5C6A"/>
<stop offset="0.8329" stop-color="#302830"/>
<stop offset="1"/>
</radialGradient>
<radialGradient id="paint21_radial" cx="0" cy="0" r="1" gradientUnits="userSpaceOnUse" gradientTransform="translate(27.2068 51.4617) rotate(42.5928) scale(6.27355)">
<stop stop-color="#8CA1B7"/>
<stop offset="0.4805" stop-color="#5E5C6A"/>
<stop offset="0.8329" stop-color="#302830"/>
<stop offset="1"/>
</radialGradient>
<radialGradient id="paint22_radial" cx="0" cy="0" r="1" gradientUnits="userSpaceOnUse" gradientTransform="translate(64.3138 59.3724) rotate(159.764) scale(6.27237)">
<stop stop-color="#8CA1B7"/>
<stop offset="0.4805" stop-color="#5E5C6A"/>
<stop offset="0.8329" stop-color="#302830"/>
<stop offset="1"/>
</radialGradient>
<radialGradient id="paint23_radial" cx="0" cy="0" r="1" gradientUnits="userSpaceOnUse" gradientTransform="translate(80.7714 77.0095) rotate(-160.44) scale(6.27226)">
<stop stop-color="#8CA1B7"/>
<stop offset="0.4805" stop-color="#5E5C6A"/>
<stop offset="0.8329" stop-color="#302830"/>
<stop offset="1"/>
</radialGradient>
<radialGradient id="paint24_radial" cx="0" cy="0" r="1" gradientUnits="userSpaceOnUse" gradientTransform="translate(25.6077 64.9436) scale(11.1239)">
<stop offset="0.1828" stop-color="#EAF0D4"/>
<stop offset="0.4396" stop-color="#EAF0D2"/>
<stop offset="0.5684" stop-color="#E7EECC"/>
<stop offset="0.6688" stop-color="#E2EBC1"/>
<stop offset="0.7544" stop-color="#DBE6B1"/>
<stop offset="0.8306" stop-color="#D3E09C"/>
<stop offset="0.9001" stop-color="#C7D881"/>
<stop offset="0.9633" stop-color="#B9CF60"/>
<stop offset="1" stop-color="#AEC948"/>
</radialGradient>
<radialGradient id="paint25_radial" cx="0" cy="0" r="1" gradientUnits="userSpaceOnUse" gradientTransform="translate(32.7402 69.2203) rotate(21.6546) scale(11.1443)">
<stop offset="0.1828" stop-color="#EAF0D4"/>
<stop offset="0.4396" stop-color="#EAF0D2"/>
<stop offset="0.5684" stop-color="#E7EECC"/>
<stop offset="0.6688" stop-color="#E2EBC1"/>
<stop offset="0.7544" stop-color="#DBE6B1"/>
<stop offset="0.8306" stop-color="#D3E09C"/>
<stop offset="0.9001" stop-color="#C7D881"/>
<stop offset="0.9633" stop-color="#B9CF60"/>
<stop offset="1" stop-color="#AEC948"/>
</radialGradient>
<radialGradient id="paint26_radial" cx="0" cy="0" r="1" gradientUnits="userSpaceOnUse" gradientTransform="translate(43.0031 72.1579) rotate(10.2187) scale(11.3939)">
<stop offset="0.1828" stop-color="#EAF0D4"/>
<stop offset="0.4396" stop-color="#EAF0D2"/>
<stop offset="0.5684" stop-color="#E7EECC"/>
<stop offset="0.6688" stop-color="#E2EBC1"/>
<stop offset="0.7544" stop-color="#DBE6B1"/>
<stop offset="0.8306" stop-color="#D3E09C"/>
<stop offset="0.9001" stop-color="#C7D881"/>
<stop offset="0.9633" stop-color="#B9CF60"/>
<stop offset="1" stop-color="#AEC948"/>
</radialGradient>
<radialGradient id="paint27_radial" cx="0" cy="0" r="1" gradientUnits="userSpaceOnUse" gradientTransform="translate(53.6142 73.8631) scale(11.7082)">
<stop offset="0.1828" stop-color="#EAF0D4"/>
<stop offset="0.4396" stop-color="#EAF0D2"/>
<stop offset="0.5684" stop-color="#E7EECC"/>
<stop offset="0.6688" stop-color="#E2EBC1"/>
<stop offset="0.7544" stop-color="#DBE6B1"/>
<stop offset="0.8306" stop-color="#D3E09C"/>
<stop offset="0.9001" stop-color="#C7D881"/>
<stop offset="0.9633" stop-color="#B9CF60"/>
<stop offset="1" stop-color="#AEC948"/>
</radialGradient>
<radialGradient id="paint28_radial" cx="0" cy="0" r="1" gradientUnits="userSpaceOnUse" gradientTransform="translate(63.9351 73.1033) scale(11.7079)">
<stop offset="0.1828" stop-color="#EAF0D4"/>
<stop offset="0.4396" stop-color="#EAF0D2"/>
<stop offset="0.5684" stop-color="#E7EECC"/>
<stop offset="0.6688" stop-color="#E2EBC1"/>
<stop offset="0.7544" stop-color="#DBE6B1"/>
<stop offset="0.8306" stop-color="#D3E09C"/>
<stop offset="0.9001" stop-color="#C7D881"/>
<stop offset="0.9633" stop-color="#B9CF60"/>
<stop offset="1" stop-color="#AEC948"/>
</radialGradient>
</defs>
</svg>
