<svg width="100" height="130" viewBox="0 0 100 130" fill="none" xmlns="http://www.w3.org/2000/svg">
<rect width="100" height="130" rx="10" fill="white"/>
<path d="M47.2355 52.0665C62.9031 52.0665 76.9111 54.5118 86.471 58.3236C84.4793 34.7336 67.6831 16.25 47.2355 16.25C26.7879 16.25 9.99165 34.7336 8 58.3236C17.5599 54.4399 31.5679 52.0665 47.2355 52.0665Z" fill="#8EC044"/>
<path d="M85.2761 68.4644C86.3383 69.0398 86.1391 70.622 84.6122 71.2693C67.2848 78.5333 47.833 82.2013 28.1821 81.6259C26.3896 81.554 24.398 80.6909 23.6013 79.684C19.8172 74.5057 16.6969 69.8309 13.8422 64.3649C13.3111 63.2861 13.9086 61.7039 15.4355 61.9196C32.7629 64.293 49.8247 62.9984 65.5587 58.3236C66.9529 57.8921 68.8118 58.1078 69.7412 58.827C74.4548 62.5669 79.8322 65.4437 85.2761 68.4644Z" fill="#D2D2D2"/>
<path d="M69.1437 52.0665C69.8739 52.2103 75.0522 62.7107 78.2389 69.2555C78.6372 70.0466 79.0355 70.6939 79.8322 70.6939C80.6952 70.6939 80.8944 69.3993 80.8944 69.3993L81.3591 63.6457L69.8739 49.8369L69.1437 52.0665Z" fill="#818080"/>
<path d="M79.8322 70.2624C79.5003 70.2624 79.3011 69.9748 79.3011 69.6871L79.5667 66.6664C79.5667 66.3787 79.8323 66.163 80.0978 66.163C80.3634 66.163 80.5625 66.4506 80.5625 66.7383L80.297 69.759C80.3634 70.0467 80.0978 70.2624 79.8322 70.2624Z" fill="#C2C2C2"/>
<path d="M21.2776 61.2004C22.0743 61.3442 27.4518 72.42 30.8376 79.2525C31.2359 80.1155 31.6342 80.7628 32.5637 80.7628C33.4931 80.7628 33.6259 79.3963 33.6259 79.3963L34.0906 73.355L22.0079 58.827L21.2776 61.2004Z" fill="#818080"/>
<path d="M92.2468 58.5394C93.4418 59.3305 93.2426 61.3443 91.4501 62.2073C71.6664 71.7728 49.4927 76.5915 27.1199 75.8723C25.1282 75.8004 22.7382 74.6496 21.9416 73.355C17.5599 66.4507 13.975 60.4093 10.7219 53.2173C10.1244 51.8508 10.7883 49.7651 12.5808 50.0527C32.3645 53.2173 51.8163 51.4912 69.8075 45.306C71.4009 44.7306 73.5253 45.0183 74.5875 45.9533C79.965 50.7 86.0063 54.5118 92.2468 58.5394Z" fill="#9D9D9C"/>
<path d="M92.0476 58.2517C93.2426 58.9709 92.8443 60.1935 91.0518 61.0566C71.4672 69.9747 50.0238 74.5057 27.9165 73.8584C25.9248 73.7865 23.6012 72.7077 22.8046 71.4851C18.4893 65.0841 14.7052 58.3955 11.4522 51.7069C10.8547 50.4123 11.7841 49.6212 13.5102 49.9089C33.0284 52.8576 52.281 51.0596 70.0731 45.3059C71.6664 44.8025 73.7908 45.0182 74.7866 45.8813C80.0977 50.3404 85.8735 54.5118 92.0476 58.2517Z" fill="url(#paint0_linear)"/>
<path d="M71.8656 45.9532C76.1808 49.9089 81.5583 54.2241 87.8651 58.2517L88.1307 58.4674C88.2635 58.5394 88.3298 58.6113 88.3962 58.6113C88.529 58.6832 88.5954 58.827 88.5954 58.899C88.5954 58.9709 88.5954 58.9709 88.5954 59.1147C88.529 59.1866 88.4626 59.3305 88.3299 59.4743C88.0643 59.6901 87.7324 59.9059 87.334 60.1216C86.8693 60.2655 86.471 60.4812 86.0063 60.6251C84.2138 61.3443 82.4213 62.0635 80.6288 62.8546C78.7699 63.5738 76.9111 64.2211 74.9858 64.8684C73.0605 65.5876 71.1353 66.163 69.1436 66.7383C68.1478 67.026 67.152 67.3137 66.1562 67.6014C65.1603 67.8891 64.1645 68.1048 63.1687 68.3925C61.177 68.8959 59.2518 69.3994 57.3265 69.8309C55.4013 70.1905 53.476 70.622 51.6835 70.9816C51.2188 71.0536 50.7541 71.1974 50.2893 71.2693C49.8246 71.3412 49.3599 71.4132 48.8952 71.4851C47.9658 71.6289 47.1027 71.7728 46.1733 71.9166C42.5883 72.5639 39.1361 72.7797 35.8831 73.1393C35.4848 73.2112 35.0864 73.2112 34.6881 73.2831C34.2898 73.2831 33.8914 73.355 33.4931 73.355C32.6964 73.4269 31.8998 73.4269 31.1695 73.4989C29.6426 73.5708 28.182 73.7146 26.7215 73.7865C28.1157 73.8585 29.6426 73.8585 31.1695 73.9304C31.9662 73.9304 32.6964 74.0023 33.4931 74.0023C33.8914 74.0023 34.2898 74.0023 34.6881 74.0023C35.0864 74.0023 35.4848 74.0023 35.8831 73.9304C39.1361 73.7865 42.6547 73.7146 46.306 73.2831C47.2355 73.2112 48.1649 73.0673 49.0944 72.9954C49.5591 72.9235 50.0238 72.9235 50.4885 72.8516C50.9532 72.7797 51.4179 72.7077 51.8827 72.6358C53.7415 72.3481 55.6668 71.9885 57.6585 71.6289C59.5837 71.2693 61.5754 70.7659 63.567 70.2624C64.5628 69.9748 65.5587 69.8309 66.5545 69.4713C67.5503 69.1836 68.5461 68.8959 69.542 68.5363C71.5336 67.961 73.5253 67.3856 75.4505 66.5945C77.3758 65.8753 79.301 65.228 81.1599 64.4369C83.0188 63.6457 84.8113 62.8546 86.5374 62.0635C87.0021 61.8477 87.4004 61.7039 87.8651 61.4881C88.3299 61.2724 88.7946 60.9847 89.2593 60.4812C89.4585 60.2655 89.6576 59.9778 89.7904 59.6182C89.9232 59.2586 89.9232 58.7551 89.724 58.3236C89.5248 57.8921 89.2593 57.6763 88.9937 57.5325C88.861 57.4606 88.7282 57.3886 88.6618 57.3167L88.3962 57.1729C82.0893 53.3611 76.5127 49.4774 71.8656 45.9532Z" fill="#F4F4F4"/>
<path d="M56.5964 50.1246C58.3889 49.8369 60.7788 49.9088 61.4427 50.8438L64.1646 53.7206C64.8949 54.5837 64.0319 55.5906 62.2394 55.8783L57.4594 56.7413C55.6669 57.029 53.6753 56.5975 53.0114 55.6625L50.887 53.0014C50.1567 52.1384 51.0198 51.1315 52.8122 50.8438L56.5964 50.1246Z" fill="#B2B2B2"/>
<path d="M56.6628 42.501C58.3889 42.2133 60.7125 42.3572 61.4428 43.2921C61.4428 43.2921 64.2311 45.8813 64.3638 46.8162C64.4966 47.7512 63.9655 52.9295 63.9655 52.9295C63.7664 54.5117 63.2352 54.9433 61.5091 55.231L57.3931 56.094C55.667 56.3817 53.6753 55.8782 53.0114 54.9433L50.887 52.0664C50.7542 51.9226 50.887 45.1621 50.887 45.0182C50.6878 44.2271 51.5509 43.436 52.9451 43.2202L56.6628 42.501Z" fill="url(#paint1_linear)"/>
<path d="M56.5301 42.8605C58.1234 42.5728 60.2478 42.7166 60.9117 43.4358L63.3681 45.9531C64.032 46.7442 63.2353 47.6072 61.642 47.8949L57.3267 48.6141C55.7334 48.9018 53.9409 48.4703 53.3434 47.6792L51.4846 45.3777C50.8871 44.5866 51.6173 43.7235 53.2107 43.4358L56.5301 42.8605Z" fill="#F2DDB7"/>
<path d="M56.9283 44.0833C57.8577 43.9394 59.0527 44.0113 59.3847 44.3709L60.7788 45.6655C61.1108 46.097 60.7124 46.5286 59.783 46.6724L57.3266 47.1758C56.3972 47.3197 55.4014 47.1039 55.0694 46.7443L54.0072 45.5217C53.6753 45.0901 54.0736 44.6586 55.003 44.5148L56.9283 44.0833Z" fill="#E94E1B"/>
<path d="M52.4139 44.8024C52.6795 44.5866 52.945 44.3709 53.3434 44.3709C53.6753 44.3709 54.0073 44.5147 54.2728 44.7305C54.2728 44.3709 53.9409 43.8674 53.3434 43.8674C52.7459 43.9394 52.4139 44.4428 52.4139 44.8024Z" fill="#FFFBE9"/>
<path d="M52.2811 46.1689C52.4803 45.8812 52.8123 45.7373 53.1442 45.7373C53.4761 45.7373 53.8081 45.8812 54.0736 46.0969C54.0736 45.7373 53.7417 45.2339 53.1442 45.2339C52.5467 45.2339 52.2148 45.8093 52.2811 46.1689Z" fill="#FFFBE9"/>
<path d="M54.3391 47.9669C54.4719 47.823 54.6711 47.6073 54.8702 47.6073C55.0694 47.6073 55.2685 47.7511 55.4013 47.8949C55.4013 47.7511 55.4013 47.6073 55.2685 47.5353C55.2022 47.3915 55.003 47.3196 54.8038 47.3196C54.4719 47.3196 54.3391 47.7511 54.3391 47.9669Z" fill="#FFFBE9"/>
<path d="M55.7996 48.2546C56.0652 48.0388 56.3307 47.823 56.7291 47.823C57.061 47.823 57.3929 47.9669 57.6585 48.1826C57.6585 47.823 57.3266 47.3196 56.7291 47.3196C56.1316 47.3196 55.7996 47.8949 55.7996 48.2546Z" fill="#FFFBE9"/>
<path d="M61.3099 46.0251C61.4427 45.8813 61.7083 45.7374 61.9074 45.7374C62.1066 45.7374 62.3721 45.8093 62.5049 45.9532C62.5049 45.7374 62.2394 45.3778 61.9074 45.3778C61.5091 45.4497 61.3099 45.8093 61.3099 46.0251Z" fill="#FFFBE9"/>
<path d="M56.7955 43.6516C57.061 43.4359 57.3266 43.2201 57.7249 43.2201C58.0569 43.2201 58.3888 43.364 58.6543 43.5797C58.6543 43.2201 58.3224 42.7167 57.7249 42.7167C57.1274 42.7167 56.7955 43.292 56.7955 43.6516Z" fill="#FFFBE9"/>
<path d="M59.783 44.7305C59.9821 44.5867 60.1813 44.4429 60.4468 44.4429C60.7124 44.4429 60.9116 44.5867 61.1107 44.7305C61.1107 44.5148 60.8452 44.0833 60.4468 44.0833C59.9821 44.0833 59.783 44.4429 59.783 44.7305Z" fill="#FFFBE9"/>
<path d="M53.2106 47.1039C53.4097 46.96 53.6089 46.8881 53.8745 46.8881C54.14 46.8881 54.4056 46.8881 54.6047 46.96C54.5383 46.7443 54.2064 46.5285 53.8745 46.6004C53.5425 46.6723 53.2106 46.8881 53.2106 47.1039Z" fill="#FFFBE9"/>
<path d="M54.6048 43.9394C54.804 43.7237 55.0031 43.5798 55.2687 43.5798C55.5342 43.5798 55.7334 43.7237 55.9326 43.9394C55.9326 43.7956 55.9326 43.6517 55.7998 43.5079C55.667 43.3641 55.4678 43.2202 55.2687 43.2202C55.0695 43.2202 54.8704 43.3641 54.7376 43.5079C54.6048 43.6517 54.6048 43.7956 54.6048 43.9394Z" fill="#FFFBE9"/>
<path d="M60.3806 47.6073C60.5133 47.4634 60.7125 47.2477 60.9117 47.2477C61.1108 47.2477 61.31 47.3915 61.4428 47.6073C61.4428 47.4634 61.4428 47.3196 61.31 47.1757C61.2436 47.0319 61.0444 46.8881 60.8453 46.8881C60.6461 46.8881 60.4469 47.0319 60.3806 47.1757C60.3806 47.3196 60.3806 47.5353 60.3806 47.6073Z" fill="#FFFBE9"/>
<path d="M55.5342 45.7374C55.667 45.5936 55.8661 45.3778 56.0653 45.3778C56.2645 45.3778 56.4636 45.5216 56.5964 45.7374C56.5964 45.5936 56.5964 45.4497 56.4636 45.3059C56.4636 45.162 56.2645 45.0182 56.0653 45.0182C55.8661 45.0182 55.667 45.162 55.6006 45.3059C55.5342 45.4497 55.5342 45.5936 55.5342 45.7374Z" fill="#F6A24A"/>
<path d="M55.7333 46.7443C55.8661 46.6004 56.0653 46.5285 56.3308 46.5285C56.53 46.5285 56.7292 46.6004 56.9283 46.7443C56.9283 46.5285 56.6628 46.2408 56.3308 46.2408C55.9989 46.2408 55.7333 46.5285 55.7333 46.7443Z" fill="#F6A24A"/>
<path d="M56.4635 44.9462C56.5963 44.8024 56.7954 44.7304 57.061 44.7304C57.2602 44.7304 57.4593 44.8024 57.6585 44.9462C57.6585 44.7304 57.3929 44.4427 57.061 44.4427C56.6627 44.4427 56.4635 44.7304 56.4635 44.9462Z" fill="#F6A24A"/>
<path d="M57.6586 46.0251C57.7913 45.8812 57.9905 45.8093 58.2561 45.8093C58.4552 45.8093 58.6544 45.8812 58.8536 46.0251C58.8536 45.8093 58.588 45.5216 58.2561 45.5216C57.9241 45.5216 57.6586 45.8093 57.6586 46.0251Z" fill="#F6A24A"/>
<path d="M57.7913 44.4428C57.9241 44.2989 58.1233 44.227 58.3888 44.227C58.588 44.227 58.7871 44.2989 58.9863 44.4428C58.9863 44.227 58.7208 43.9393 58.3888 43.9393C57.9905 43.9393 57.7913 44.227 57.7913 44.4428Z" fill="#F6A24A"/>
<path d="M54.2728 45.3778C54.4056 45.2339 54.6048 45.162 54.8703 45.162C55.0695 45.162 55.2687 45.2339 55.4678 45.3778C55.4678 45.162 55.2023 44.8743 54.8703 44.8743C54.5384 44.8024 54.2728 45.0901 54.2728 45.3778Z" fill="#F6A24A"/>
<path d="M58.0569 45.5216C58.1897 45.3778 58.3889 45.3059 58.6544 45.3059C58.8536 45.3059 59.0528 45.3778 59.2519 45.5216C59.2519 45.3059 58.9864 45.0182 58.6544 45.0182C58.3225 45.0182 58.0569 45.3059 58.0569 45.5216Z" fill="#F6A24A"/>
<path d="M58.8536 46.1688C58.9864 46.025 59.1855 45.9531 59.4511 45.9531C59.6502 45.9531 59.8494 46.025 60.0486 46.1688C60.0486 45.9531 59.783 45.6654 59.4511 45.6654C59.1191 45.6654 58.8536 45.9531 58.8536 46.1688Z" fill="#F6A24A"/>
<path d="M59.0528 43.7236C59.252 43.5079 59.5175 43.364 59.7167 43.364C59.9822 43.364 60.2478 43.5079 60.4469 43.6517C60.4469 43.364 60.1814 42.9325 59.7167 42.9325C59.252 43.0044 59.0528 43.4359 59.0528 43.7236Z" fill="#FFFBE9"/>
<path d="M51.6172 52.1383C51.9491 52.7856 52.4138 53.5048 52.945 54.224C53.0777 54.4398 53.2769 54.5836 53.4097 54.7994C53.6088 54.9432 53.808 55.159 54.0072 55.3028C54.2063 55.4467 54.4719 55.5905 54.7374 55.6624C55.003 55.7343 55.2685 55.8063 55.5341 55.8782C56.0652 55.8782 56.5299 55.9501 57.061 55.8782C57.5257 55.8063 57.9905 55.7343 58.3888 55.6624C59.2518 55.4467 59.9821 55.2309 60.646 54.9432C59.9821 54.9432 59.1855 55.0151 58.3224 55.0151C57.9241 55.0871 57.4594 55.0871 56.9946 55.0871C56.5299 55.159 56.1316 55.0151 55.6669 55.0151C55.4677 54.9432 55.2022 54.9432 55.003 54.8713C54.8038 54.7994 54.6047 54.7275 54.4055 54.6555C54.2063 54.5836 54.0736 54.4398 53.8744 54.2959C53.7416 54.1521 53.5425 54.0082 53.4097 53.8644C52.7458 53.2171 52.1483 52.6418 51.6172 52.1383Z" fill="#212121"/>
<path d="M54.0737 54.1521C54.3392 54.2959 54.6712 54.3678 54.9367 54.4397C55.1359 54.5117 55.4014 54.5117 55.6006 54.5836C56.0653 54.5836 56.53 54.6555 56.9284 54.5836C57.1939 54.5836 57.4595 54.5117 57.6586 54.5117C57.7914 54.5117 57.9906 54.4397 58.1234 54.4397C58.8536 54.2959 59.5839 54.0082 60.115 53.7925C59.8494 53.7205 59.4511 53.7205 59.0528 53.6486C58.92 53.6486 58.7872 53.6486 58.5881 53.6486C58.1234 53.7205 57.6586 53.7205 57.1939 53.7205C57.1275 53.7205 57.0611 53.7205 56.9948 53.7205C56.5964 53.7205 56.2645 53.7205 55.8661 53.7205C55.7998 53.7205 55.7998 53.7205 55.7334 53.7205C55.5342 53.6486 55.2687 53.6486 55.0695 53.5767C54.9367 53.5767 54.8703 53.5048 54.7375 53.5048C54.6048 53.5048 54.5384 53.4329 54.4056 53.4329C54.2064 53.3609 54.0073 53.289 53.8081 53.1452C53.7417 53.1452 53.7417 53.0732 53.6753 53.0732C53.5426 53.0013 53.4098 52.8575 53.277 52.7856C53.277 52.7856 53.277 52.7856 53.2106 52.7856C53.0778 52.7136 53.0115 52.5698 52.8787 52.426C52.3476 51.9225 51.8165 51.4191 51.3517 50.9875C51.6837 51.6348 52.1484 52.354 52.6795 53.1452C52.8123 53.3609 53.0115 53.5048 53.1442 53.7205C53.6089 53.8644 53.8745 54.0082 54.0737 54.1521Z" fill="#212121"/>
<path d="M54.14 53.0733C54.472 53.2172 54.8703 53.2891 55.2022 53.361C55.4014 53.4329 55.6006 53.4329 55.7997 53.5049C56.1981 53.5049 56.5964 53.5768 56.9947 53.5049C57.1939 53.5049 57.4594 53.433 57.6586 53.433C57.7914 53.433 57.9242 53.361 58.0569 53.361C58.7208 53.2172 59.3183 53.0014 59.8494 52.7857C59.8494 52.6418 59.783 52.5699 59.6503 52.4261C59.5175 52.4261 59.3183 52.4261 59.1855 52.4261C58.7208 52.498 58.2561 52.498 57.725 52.498C57.6586 52.498 57.5922 52.498 57.5258 52.498C57.1275 52.498 56.7292 52.498 56.3308 52.498C56.2645 52.498 56.2645 52.498 56.1981 52.498C55.9325 52.498 55.7334 52.4261 55.4678 52.4261C55.335 52.4261 55.2022 52.3541 55.0695 52.3541C54.9367 52.3541 54.8703 52.2822 54.7375 52.2822C54.5384 52.2103 54.2728 52.1384 54.0736 52.0665C54.0073 52.0665 54.0073 51.9945 53.9409 51.9945C53.8081 51.9226 53.6753 51.8507 53.5425 51.7069C53.5425 51.7069 53.5425 51.7069 53.4761 51.7069C53.3434 51.6349 53.2106 51.4911 53.0778 51.3472C52.4803 50.8438 51.9492 50.2684 51.4845 49.8369C51.8164 50.4842 52.2812 51.2753 52.8123 51.9945C52.945 52.2103 53.1442 52.3541 53.277 52.5699C53.6753 52.7857 53.9409 52.9295 54.14 53.0733Z" fill="#212121"/>
<path d="M54.2063 51.9226C54.6047 52.0664 55.0694 52.1383 55.4677 52.2102C55.6669 52.2102 55.7997 52.2822 55.9988 52.2822C56.3308 52.2822 56.7291 52.2822 57.061 52.2102C57.2602 52.2102 57.4594 52.1383 57.6585 52.1383C57.7913 52.1383 57.9241 52.0664 58.0569 52.0664C58.6543 51.9226 59.1855 51.7787 59.6502 51.563C59.9821 51.4191 60.1813 51.2034 60.2477 50.9876C60.1149 50.9876 59.9157 50.9876 59.7829 50.9876C59.3182 50.9876 58.7871 51.0595 58.256 51.1314C58.1896 51.1314 58.1232 51.1314 58.0569 51.1314C57.6585 51.1314 57.1938 51.2034 56.7955 51.2034C56.7291 51.2034 56.7291 51.2034 56.6627 51.2034C56.3971 51.2034 56.1316 51.2034 55.866 51.2034C55.7333 51.2034 55.6005 51.2034 55.4677 51.1314C55.3349 51.1314 55.2022 51.0595 55.1358 51.0595C54.8702 50.9876 54.6711 50.9876 54.4055 50.9157C54.3391 50.9157 54.3391 50.8438 54.2727 50.8438C54.1399 50.7718 53.9408 50.6999 53.808 50.628C53.808 50.628 53.808 50.628 53.7416 50.628C53.6088 50.5561 53.4761 50.4122 53.3433 50.2684C52.7458 49.693 52.1483 49.1896 51.6172 48.7581C51.9491 49.4053 52.3475 50.1965 52.945 50.9876C53.1441 51.2034 53.2769 51.3472 53.4761 51.563C53.6752 51.7068 53.9408 51.8506 54.2063 51.9226Z" fill="#212121"/>
<path d="M54.2729 50.8437C54.7376 50.9875 55.2687 51.0595 55.7334 51.1314C55.8662 51.1314 56.0654 51.1314 56.1981 51.2033C56.5301 51.2033 56.7956 51.2033 57.1276 51.1314C57.3267 51.1314 57.4595 51.0595 57.6587 51.0595C57.7915 51.0595 57.8578 50.9875 57.9906 50.9875C58.4553 50.8437 58.9201 50.6999 59.3184 50.556C59.9159 50.3403 60.3806 50.0526 60.7789 49.7649C60.6462 49.7649 60.447 49.7649 60.2478 49.7649C59.7167 49.7649 59.1856 49.8368 58.6545 49.9087C58.5881 49.9087 58.5217 49.9087 58.4553 49.9087C58.057 49.9087 57.5923 49.9807 57.1276 50.0526C57.0612 50.0526 57.0612 50.0526 56.9948 50.0526C56.7292 50.0526 56.4637 50.0526 56.1981 50.0526C56.0654 50.0526 55.9326 50.0526 55.7998 50.0526C55.667 50.0526 55.5343 50.0526 55.4015 50.0526C55.1359 50.0526 54.8704 49.9807 54.6712 49.9087C54.6048 49.9087 54.5384 49.9087 54.5384 49.8368C54.3393 49.7649 54.2065 49.693 54.0073 49.6211C54.0073 49.6211 54.0073 49.6211 53.9409 49.6211C53.8082 49.5491 53.6754 49.3334 53.5426 49.2615C52.8787 48.6861 52.2812 48.1107 51.7501 47.6792C52.0821 48.3984 52.4804 49.1176 53.0779 49.9087C53.2771 50.1245 53.3434 50.3403 53.609 50.4841C53.7418 50.556 54.0073 50.6999 54.2729 50.8437Z" fill="#212121"/>
<path d="M51.6172 46.3846C51.9491 47.1039 52.3475 47.895 53.0113 48.6861C53.2105 48.9019 53.2769 49.1176 53.5424 49.2615C53.7416 49.4772 54.0736 49.6211 54.3391 49.693C54.8702 49.9088 55.4677 49.9088 55.9988 49.9088C56.5299 49.9807 57.061 49.8368 57.5921 49.7649C58.1232 49.693 58.588 49.4772 58.9863 49.4053C59.8493 49.1176 60.646 48.758 61.3099 48.3984C60.5796 48.3984 59.7166 48.4703 58.8535 48.6142C58.3888 48.6142 57.9241 48.758 57.4594 48.758C56.9946 48.758 56.5299 48.9019 55.9988 48.8299C55.4677 48.8299 55.003 48.8299 54.6047 48.6861C54.4055 48.6142 54.2063 48.5423 54.0736 48.4703C53.9408 48.3984 53.7416 48.1827 53.5424 48.0388C52.8786 47.4635 52.2147 46.8162 51.6172 46.3846Z" fill="#212121"/>
<path d="M43.8496 53.5768C45.7748 53.2172 48.364 53.3611 49.1606 54.368L52.1481 57.4606C52.9448 58.4675 52.0153 59.4743 50.0901 59.8339L44.8454 60.7689C42.9201 61.1285 40.7293 60.6251 39.9327 59.6182L37.6091 56.7414C36.8124 55.7345 37.7419 54.7276 39.6671 54.368L43.8496 53.5768Z" fill="#B2B2B2"/>
<path d="M43.916 45.234C45.7749 44.8744 48.364 45.0902 49.0943 46.0971C49.0943 46.0971 52.1482 48.902 52.281 49.9808C52.4137 50.9877 51.8162 56.6694 51.8162 56.6694C51.6171 58.3955 51.0196 58.827 49.1607 59.1866L44.7127 60.1216C42.8538 60.4812 40.663 59.9059 39.9327 58.827L37.6755 55.7345C37.5428 55.5906 37.6755 48.1828 37.6755 47.967C37.4764 47.104 38.4058 46.2409 39.9327 45.9532L43.916 45.234Z" fill="url(#paint2_linear)"/>
<path d="M43.7832 45.5936C45.5093 45.3059 47.8329 45.3778 48.5631 46.2409L51.2187 48.9739C51.8825 49.8369 51.0859 50.7719 49.3598 51.0596L44.6462 51.9226C42.9201 52.2103 40.9285 51.7788 40.2646 50.9157L38.2066 48.3985C37.5427 47.5355 38.3393 46.6005 40.0654 46.3128L43.7832 45.5936Z" fill="#F2DDB7"/>
<path d="M44.1815 46.9602C45.1773 46.8164 46.5051 46.8164 46.9034 47.3198L48.4304 48.7582C48.8287 49.1897 48.364 49.6932 47.3681 49.9089L44.7126 50.3405C43.7168 50.4843 42.5882 50.2685 42.1899 49.837L40.9949 48.4705C40.5965 48.039 41.0612 47.5356 42.0571 47.3198L44.1815 46.9602Z" fill="#E94E1B"/>
<path d="M39.2687 47.7513C39.5343 47.4636 39.8662 47.3197 40.2646 47.2478C40.6629 47.2478 40.9948 47.3916 41.2604 47.6793C41.2604 47.6074 41.2604 47.4636 41.194 47.3916C41.1276 47.2478 41.0612 47.1759 40.9948 47.104C40.9284 47.032 40.7957 46.9601 40.6629 46.8882C40.5301 46.8163 40.3973 46.8163 40.2646 46.8163C40.1318 46.8163 39.999 46.8163 39.8662 46.8882C39.7335 46.9601 39.6007 47.032 39.5343 47.104C39.3351 47.3197 39.2687 47.5355 39.2687 47.7513Z" fill="#FFFBE9"/>
<path d="M39.0695 49.1897C39.3351 48.902 39.667 48.7582 40.0653 48.6863C40.4637 48.6863 40.7956 48.8301 41.0612 49.1178C41.0612 49.0459 41.0612 48.902 40.9948 48.8301C40.9284 48.6863 40.862 48.6144 40.7956 48.5424C40.7292 48.4705 40.5965 48.3986 40.4637 48.3267C40.3309 48.2548 40.1981 48.2548 40.0653 48.2548C39.9326 48.2548 39.7998 48.2548 39.667 48.3267C39.5342 48.3986 39.4015 48.4705 39.3351 48.5424C39.1359 48.7582 39.1359 48.974 39.0695 49.1897Z" fill="#FFFBE9"/>
<path d="M41.3932 51.2036C41.5924 50.9878 41.7916 50.844 41.9907 50.844C42.1899 50.844 42.3891 50.9878 42.5882 51.2036C42.5882 51.0597 42.5882 50.9159 42.4555 50.7721C42.3891 50.6282 42.1899 50.4844 41.9907 50.4844C41.526 50.4844 41.3269 50.9878 41.3932 51.2036Z" fill="#FFFBE9"/>
<path d="M42.9866 51.4911C43.2521 51.2034 43.5841 51.0596 43.9824 50.9877C44.3807 50.9877 44.7127 51.1315 44.9782 51.4192C44.9782 51.3473 44.9782 51.2034 44.9118 51.1315C44.8454 50.9877 44.7791 50.9158 44.7127 50.8438C44.6463 50.7719 44.5135 50.7 44.3807 50.6281C44.2479 50.5562 44.1152 50.5562 43.9824 50.5562C43.8496 50.5562 43.7168 50.6281 43.5841 50.6281C43.4513 50.7 43.3185 50.7719 43.2521 50.8438C43.053 51.0596 42.9866 51.2754 42.9866 51.4911Z" fill="#FFFBE9"/>
<path d="M48.9615 49.0458C49.1607 48.902 49.3598 48.7581 49.6254 48.7581C49.8909 48.7581 50.0901 48.8301 50.2893 49.0458C50.2893 48.8301 50.0237 48.4705 49.6254 48.4705C49.227 48.4705 48.9615 48.8301 48.9615 49.0458Z" fill="#FFFBE9"/>
<path d="M44.1151 46.4567C44.3807 46.169 44.7126 46.0252 45.1109 46.0252C45.5093 46.0252 45.8412 46.169 46.1068 46.4567C46.1068 46.3848 46.1068 46.2409 46.0404 46.169C45.974 46.0252 45.9076 45.9532 45.8412 45.8813C45.7748 45.8094 45.642 45.7375 45.5093 45.6656C45.3765 45.5936 45.2437 45.5936 45.1109 45.5936C44.9782 45.5936 44.8454 45.6656 44.7126 45.6656C44.5798 45.7375 44.4471 45.8094 44.3807 45.8813C44.1815 46.0252 44.1151 46.2409 44.1151 46.4567Z" fill="#FFFBE9"/>
<path d="M47.3018 47.6074C47.5009 47.3917 47.7665 47.2478 48.032 47.2478C48.2976 47.2478 48.5631 47.3917 48.7623 47.5355C48.7623 47.2478 48.4967 46.8163 48.032 46.8882C47.5673 46.8882 47.3018 47.3197 47.3018 47.6074Z" fill="#FFFBE9"/>
<path d="M40.1318 50.2686C40.331 50.1247 40.5966 50.0528 40.8621 50.0528C41.1277 50.0528 41.3932 50.0528 41.6588 50.1967C41.5924 49.909 41.194 49.7651 40.8621 49.7651C40.5302 49.7651 40.1982 49.9809 40.1318 50.2686Z" fill="#FFFBE9"/>
<path d="M41.6588 46.8163C41.858 46.6005 42.1235 46.3848 42.3891 46.3848C42.6546 46.3848 42.9202 46.5286 43.1194 46.7444C43.1194 46.6005 43.1194 46.3848 42.9866 46.2409C42.9202 46.169 42.8538 46.0971 42.721 46.0252C42.6546 45.9532 42.5219 45.9532 42.3891 45.9532C42.1235 45.9532 41.9244 46.0971 41.858 46.3129C41.6588 46.4567 41.6588 46.6725 41.6588 46.8163Z" fill="#FFFBE9"/>
<path d="M47.9657 50.8439C48.1649 50.6281 48.364 50.4843 48.5632 50.4123C48.7624 50.4123 48.9615 50.5562 49.1607 50.7719C49.1607 50.6281 49.1607 50.4843 49.0279 50.3404C48.9615 50.1966 48.7624 50.0527 48.4968 50.0527C48.2976 50.0527 48.0985 50.1966 48.0321 50.3404C47.9657 50.5562 47.9657 50.7 47.9657 50.8439Z" fill="#FFFBE9"/>
<path d="M42.7209 48.7582C42.9201 48.5424 43.1192 48.3986 43.3184 48.3266C43.5175 48.3266 43.7167 48.4705 43.9159 48.6862C43.9159 48.5424 43.9159 48.3986 43.7831 48.2547C43.7167 48.1109 43.5175 47.967 43.252 47.967C43.0528 47.967 42.8537 48.1109 42.7873 48.2547C42.7209 48.4705 42.7209 48.6143 42.7209 48.7582Z" fill="#F6A24A"/>
<path d="M42.9201 49.9089C43.1193 49.7651 43.3184 49.6931 43.584 49.6931C43.8495 49.6931 44.0487 49.7651 44.2479 49.9089C44.2479 49.6931 43.9823 49.3335 43.584 49.4055C43.1857 49.3335 42.9201 49.6212 42.9201 49.9089Z" fill="#F6A24A"/>
<path d="M43.6505 47.8951C43.8496 47.7513 44.0488 47.6794 44.3143 47.6794C44.5799 47.6794 44.7791 47.7513 44.9782 47.8951C44.9782 47.6794 44.7127 47.3198 44.3143 47.3917C43.916 47.3198 43.6505 47.6794 43.6505 47.8951Z" fill="#F6A24A"/>
<path d="M44.9782 49.1178C45.1774 48.9739 45.3765 48.902 45.6421 48.902C45.9076 48.902 46.1068 48.9739 46.306 49.1178C46.306 48.902 46.0404 48.5424 45.6421 48.6143C45.2438 48.5424 44.9782 48.8301 44.9782 49.1178Z" fill="#F6A24A"/>
<path d="M45.111 47.3198C45.3101 47.176 45.5093 47.104 45.7748 47.104C46.0404 47.104 46.2396 47.176 46.4387 47.3198C46.4387 47.104 46.1732 46.7444 45.7748 46.8164C45.3765 46.8164 45.111 47.104 45.111 47.3198Z" fill="#F6A24A"/>
<path d="M41.3268 48.3266C41.526 48.1828 41.7252 48.1109 41.9907 48.1109C42.2563 48.1109 42.4554 48.1828 42.6546 48.3266C42.6546 48.1109 42.3891 47.7513 41.9907 47.8232C41.5924 47.7513 41.3268 48.1109 41.3268 48.3266Z" fill="#F6A24A"/>
<path d="M45.4429 48.5423C45.642 48.3985 45.8412 48.3266 46.1068 48.3266C46.3723 48.3266 46.5715 48.3985 46.7706 48.5423C46.7706 48.3266 46.5051 47.967 46.1068 48.0389C45.7084 47.967 45.4429 48.3266 45.4429 48.5423Z" fill="#F6A24A"/>
<path d="M46.3723 49.1897C46.5714 49.0458 46.7706 48.9739 47.0361 48.9739C47.3017 48.9739 47.5009 49.0458 47.7 49.1897C47.7 48.9739 47.4345 48.6143 47.0361 48.6862C46.6378 48.6143 46.3723 48.9739 46.3723 49.1897Z" fill="#F6A24A"/>
<path d="M46.5714 46.5286C46.7706 46.3129 47.0361 46.169 47.3017 46.169C47.5673 46.169 47.8328 46.3129 48.0984 46.5286C48.0984 46.241 47.8328 45.7375 47.3017 45.8094C46.7706 45.7375 46.505 46.241 46.5714 46.5286Z" fill="#FFFBE9"/>
<path d="M38.4059 55.8064C38.7378 56.5256 39.2689 57.3167 39.8664 58.1079C40.0656 58.3236 40.1984 58.5394 40.3975 58.6832C40.5967 58.899 40.7959 59.0428 41.0614 59.1867C41.327 59.3305 41.5925 59.4743 41.8581 59.5463C42.1236 59.6182 42.3892 59.6901 42.7211 59.762C43.2522 59.834 43.8497 59.834 44.3808 59.762C44.9119 59.6901 45.3767 59.6182 45.8414 59.4743C46.7708 59.2586 47.5675 58.9709 48.2977 58.6832C47.5675 58.6832 46.7044 58.7551 45.775 58.8271C45.3103 58.899 44.8456 58.899 44.3144 58.899C43.8497 58.9709 43.3186 58.8271 42.8539 58.8271C42.5883 58.7551 42.3892 58.6832 42.1236 58.6832C41.9245 58.6113 41.6589 58.5394 41.4597 58.3955C41.2606 58.2517 41.0614 58.1798 40.8623 58.0359C40.6631 57.8921 40.5303 57.7483 40.3311 57.5325C39.6673 56.9571 39.0034 56.3098 38.4059 55.8064Z" fill="#212121"/>
<path d="M41.1278 57.964C41.4597 58.1079 41.7917 58.2517 42.1236 58.3236C42.3892 58.3956 42.6547 58.4675 42.8539 58.4675C43.385 58.4675 43.8497 58.5394 44.3144 58.4675C44.58 58.4675 44.8455 58.3956 45.1775 58.3236C45.3767 58.3236 45.5094 58.2517 45.7086 58.1798C46.5716 57.964 47.3019 57.7483 47.8994 57.4606C47.5675 57.3887 47.2355 57.3887 46.7708 57.3167C46.638 57.3167 46.4389 57.3167 46.3061 57.3167C45.8414 57.3887 45.3103 57.3887 44.7792 57.3887C44.7128 57.3887 44.6464 57.3887 44.58 57.3887C44.1817 57.3887 43.7833 57.3887 43.3186 57.3887C43.2522 57.3887 43.2522 57.3887 43.1858 57.3887C42.9203 57.3168 42.6547 57.3167 42.4556 57.2448C42.3228 57.2448 42.19 57.1729 42.0572 57.1729C41.9245 57.1729 41.8581 57.101 41.7253 57.101C41.5261 57.0291 41.2606 56.8852 41.0614 56.8133C40.995 56.8133 40.995 56.7414 40.9286 56.7414C40.7959 56.6695 40.6631 56.5256 40.5303 56.4537C40.5303 56.4537 40.5303 56.4537 40.4639 56.3818C40.3311 56.2379 40.1984 56.166 40.0656 56.0222C39.4681 55.4468 38.937 54.9434 38.4059 54.5118C38.7378 55.231 39.2689 56.0222 39.8664 56.8133C40.0656 57.0291 40.1984 57.2448 40.3975 57.4606C40.5967 57.6764 40.8623 57.8202 41.1278 57.964Z" fill="#212121"/>
<path d="M41.1941 56.7414C41.5924 56.8852 41.9907 57.0291 42.3891 57.101C42.5882 57.1729 42.8538 57.1729 43.053 57.2448C43.5177 57.2448 43.9824 57.3167 44.3807 57.2448C44.6463 57.2448 44.9118 57.1729 45.111 57.1729C45.2438 57.1729 45.4429 57.101 45.5757 57.101C46.306 56.9571 46.9699 56.6695 47.5674 56.4537C47.5674 56.3099 47.501 56.166 47.3018 56.0941C47.169 56.0941 46.9699 56.0941 46.7707 56.0941C46.2396 56.166 45.7085 56.166 45.1774 56.166C45.111 56.166 45.0446 56.166 44.9782 56.166C44.5799 56.166 44.1152 56.166 43.6505 56.166C43.5841 56.166 43.5841 56.166 43.5177 56.166C43.2521 56.166 42.9866 56.0941 42.721 56.0941C42.5882 56.0941 42.4555 56.0222 42.3227 56.0222C42.1899 56.0222 42.0571 55.9502 41.9907 55.9502C41.7252 55.8783 41.526 55.8064 41.2605 55.6626C41.1941 55.6626 41.1941 55.5906 41.1277 55.5906C40.9949 55.5187 40.7958 55.3749 40.663 55.303C40.663 55.303 40.663 55.303 40.5966 55.231C40.4638 55.0872 40.331 54.9434 40.1983 54.8714C39.6008 54.2961 39.0033 53.7207 38.4722 53.2892C38.8705 54.0084 39.3352 54.7995 39.9327 55.6626C40.1319 55.8783 40.2647 56.0941 40.4638 56.3099C40.663 56.4537 40.9285 56.5975 41.1941 56.7414Z" fill="#212121"/>
<path d="M41.2605 55.5188C41.7252 55.6626 42.1899 55.8065 42.6547 55.8065C42.8538 55.8784 43.053 55.8784 43.2521 55.8784C43.6505 55.8784 44.0488 55.8784 44.4471 55.8065C44.6463 55.8065 44.9119 55.7345 45.111 55.7345C45.2438 55.7345 45.3766 55.6626 45.5094 55.6626C46.1732 55.5188 46.7043 55.303 47.2354 55.0873C47.5674 54.8715 47.8329 54.6557 47.8993 54.44C47.7002 54.44 47.5674 54.44 47.3682 54.44C46.8371 54.5119 46.2396 54.5119 45.7085 54.5838C45.6421 54.5838 45.5757 54.5838 45.443 54.5838C44.9782 54.5838 44.5135 54.6557 44.0488 54.6557C43.9824 54.6557 43.9824 54.6557 43.916 54.6557C43.6505 54.6557 43.3849 54.6557 43.053 54.6557C42.9202 54.6557 42.7874 54.6557 42.5883 54.5838C42.4555 54.5838 42.3227 54.5119 42.1899 54.5119C41.9244 54.44 41.6588 54.3681 41.3933 54.2961C41.3269 54.2961 41.2605 54.2242 41.2605 54.2242C41.0613 54.1523 40.9286 54.0804 40.7294 53.9365C40.7294 53.9365 40.663 53.9365 40.663 53.8646C40.5302 53.7927 40.3975 53.5769 40.1983 53.505C39.5344 52.8577 38.8705 52.2824 38.3394 51.8508C38.7377 52.57 39.2025 53.4331 39.8 54.2961C39.9991 54.5119 40.1319 54.7277 40.3311 54.9434C40.663 55.2311 40.9949 55.3749 41.2605 55.5188Z" fill="#212121"/>
<path d="M41.327 54.296C41.8581 54.5117 42.3892 54.5117 42.9203 54.5837C43.1195 54.5837 43.2522 54.6556 43.4514 54.6556C43.7833 54.6556 44.1153 54.6556 44.4472 54.5837C44.6464 54.5837 44.8456 54.5117 44.9783 54.5117C45.1111 54.5117 45.2439 54.4398 45.3103 54.4398C45.8414 54.296 46.3061 54.1521 46.7708 54.0083C47.4347 53.7206 47.9658 53.4329 48.3641 53.1453C48.165 53.1453 48.0322 53.1453 47.833 53.1453C47.3019 53.1453 46.7044 53.2172 46.0405 53.2891C45.9742 53.2891 45.9078 53.2891 45.775 53.2891C45.3103 53.2891 44.7792 53.4329 44.3144 53.4329C44.2481 53.4329 44.1817 53.4329 44.1817 53.4329C43.9161 53.4329 43.5842 53.4329 43.3186 53.4329C43.1858 53.4329 42.9867 53.4329 42.8539 53.4329C42.7211 53.4329 42.5883 53.4329 42.4556 53.361C42.19 53.361 41.8581 53.2891 41.6589 53.2172C41.5925 53.2172 41.5261 53.2172 41.4597 53.1453C41.2606 53.0733 41.0614 53.0014 40.9286 52.9295H40.8623C40.7295 52.8576 40.5303 52.6418 40.3975 52.498C39.6673 51.8507 39.0034 51.2034 38.4059 50.7C38.8042 51.4911 39.2689 52.2822 39.8664 53.1453C40.0656 53.361 40.1984 53.5768 40.4639 53.7925C40.7295 54.0083 40.995 54.2241 41.327 54.296Z" fill="#212121"/>
<path d="M38.4059 49.4774C38.8042 50.2685 39.2689 51.1316 39.8664 51.9946C40.0656 52.2104 40.1984 52.4262 40.4639 52.6419C40.7295 52.8577 40.995 53.0015 41.327 53.1454C41.9245 53.3611 42.522 53.3611 43.1195 53.4331C43.717 53.505 44.3144 53.3611 44.8456 53.2892C45.443 53.2173 45.9078 53.0015 46.3725 52.8577C47.3683 52.57 48.165 52.1385 48.8952 51.7789C48.0986 51.7789 47.1691 51.9227 46.1733 51.9946C45.7086 52.0666 45.1775 52.1385 44.6464 52.1385C44.1153 52.1385 43.6506 52.2823 43.0531 52.2104C42.522 52.2104 41.9909 52.2104 41.5261 52.0666C41.327 51.9946 41.1278 51.9227 40.9286 51.8508C40.7295 51.7789 40.5303 51.5631 40.3975 51.4193C39.8 50.6281 39.0698 49.9809 38.4059 49.4774Z" fill="#212121"/>
<path d="M63.2352 58.8271C65.0276 58.4675 67.484 58.6113 68.2143 59.6182L71.0026 62.8547C71.7329 63.8615 70.8698 64.9404 69.0109 65.3L64.0982 66.2349C62.3057 66.5945 60.2477 66.0911 59.5174 65.0842L57.3266 62.0635C56.5963 61.0566 57.4594 59.9778 59.3183 59.6182L63.2352 58.8271Z" fill="#B2B2B2"/>
<path d="M63.3015 50.2685C65.0939 49.9089 67.4839 50.1246 68.2142 51.2034C68.2142 51.2034 71.0689 54.0803 71.2017 55.231C71.3344 56.2379 70.8033 62.1354 70.8033 62.1354C70.6042 63.9334 70.0731 64.3649 68.2806 64.7245L64.0981 65.6595C62.3056 66.0191 60.314 65.4437 59.5837 64.3649L57.4593 61.1285C57.3265 60.9127 57.4593 53.2891 57.4593 53.1453C57.2601 52.2822 58.1232 51.4192 59.5837 51.1315L63.3015 50.2685Z" fill="url(#paint3_linear)"/>
<path d="M63.1688 50.6282C64.7621 50.3405 67.0193 50.4124 67.6168 51.2754L70.1396 54.0803C70.8035 54.9434 70.0068 55.9503 68.3471 56.238L63.9655 57.101C62.3721 57.3887 60.5133 56.9572 59.8494 56.0941L57.9241 53.505C57.2602 52.6419 58.0569 51.635 59.7166 51.3474L63.1688 50.6282Z" fill="#F2DDB7"/>
<path d="M63.5671 52.0665C64.4965 51.9227 65.7579 51.9227 66.0899 52.4261L67.484 53.9365C67.8823 54.368 67.4176 54.9433 66.4882 55.0872L63.9654 55.5906C63.036 55.7345 61.9738 55.5187 61.6418 55.0872L60.5796 53.7207C60.1813 53.2892 60.646 52.7138 61.5754 52.57L63.5671 52.0665Z" fill="#E94E1B"/>
<path d="M58.92 52.8577C59.1855 52.57 59.5175 52.3543 59.8494 52.3543C60.1814 52.3543 60.5133 52.57 60.7789 52.7858C60.7789 52.57 60.7125 52.3543 60.5797 52.1385C60.5133 52.0666 60.3805 51.9947 60.2477 51.9227C60.115 51.8508 59.9822 51.8508 59.8494 51.8508C59.5839 51.8508 59.3183 51.9947 59.1191 52.2104C58.9864 52.4262 58.92 52.642 58.92 52.8577Z" fill="#FFFBE9"/>
<path d="M58.787 54.368C59.0526 54.0803 59.3845 53.8645 59.7165 53.8645C60.0484 53.8645 60.3804 54.0803 60.6459 54.2961C60.6459 54.0803 60.5795 53.8645 60.4468 53.6488C60.3804 53.5768 60.2476 53.5049 60.1148 53.433C59.982 53.3611 59.8493 53.3611 59.7165 53.3611C59.4509 53.3611 59.1854 53.5049 58.9862 53.7207C58.7871 53.9364 58.787 54.1522 58.787 54.368Z" fill="#FFFBE9"/>
<path d="M60.9116 56.3817C61.0444 56.1659 61.2436 56.0221 61.4427 56.0221C61.6419 56.0221 61.8411 56.1659 62.0402 56.3817C62.0402 56.2378 62.0402 56.094 61.9074 55.9502C61.8411 55.8063 61.6419 55.6625 61.4427 55.6625C61.2436 55.6625 61.0444 55.8063 60.978 55.9502C60.9116 56.094 60.9116 56.3098 60.9116 56.3817Z" fill="#FFFBE9"/>
<path d="M62.4384 56.6694C62.704 56.3817 63.0359 56.1659 63.3679 56.1659C63.6998 56.1659 64.0317 56.3817 64.2973 56.5974C64.2973 56.3817 64.2309 56.1659 64.0981 55.9502C64.0317 55.8782 63.899 55.8063 63.7662 55.7344C63.6334 55.6625 63.5006 55.6625 63.3679 55.6625C63.1023 55.6625 62.8367 55.8063 62.6376 56.0221C62.4384 56.3098 62.4384 56.5255 62.4384 56.6694Z" fill="#FFFBE9"/>
<path d="M68.0816 54.2242C68.2807 54.0804 68.4799 53.9365 68.6791 53.9365C68.9446 53.9365 69.1438 54.0804 69.2766 54.2242C69.2766 54.0084 69.0774 53.5769 68.6791 53.6488C68.2807 53.5769 68.0152 53.9365 68.0816 54.2242Z" fill="#FFFBE9"/>
<path d="M63.4343 51.4911C63.6998 51.2035 64.0318 50.9877 64.3637 50.9877C64.6956 50.9877 65.0276 51.2035 65.2931 51.4192C65.2931 51.2035 65.2268 50.9877 65.094 50.7719C65.0276 50.7 64.8948 50.6281 64.762 50.5562C64.6293 50.4843 64.4965 50.4843 64.3637 50.4843C64.0981 50.4843 63.8326 50.6281 63.6334 50.8439C63.5007 51.0596 63.4343 51.3473 63.4343 51.4911Z" fill="#FFFBE9"/>
<path d="M66.4882 52.7138C66.6873 52.4981 66.8865 52.3542 67.152 52.3542C67.4176 52.3542 67.6168 52.4981 67.8159 52.7138C67.8159 52.4262 67.6168 51.9946 67.152 51.9946C66.6873 51.9946 66.4882 52.4262 66.4882 52.7138Z" fill="#FFFBE9"/>
<path d="M59.7166 55.4468C59.9158 55.303 60.1149 55.231 60.4469 55.231C60.7124 55.231 60.978 55.231 61.1772 55.3749C61.1108 55.0872 60.7788 54.9434 60.4469 54.9434C60.0486 54.9434 59.783 55.1591 59.7166 55.4468Z" fill="#FFFBE9"/>
<path d="M61.1771 51.8507C61.3763 51.6349 61.5755 51.4192 61.841 51.4192C62.1066 51.4192 62.3057 51.6349 62.5049 51.8507C62.5049 51.7069 62.5049 51.4911 62.3721 51.3473C62.2393 51.2034 62.0402 51.0596 61.841 51.0596C61.5755 51.0596 61.3763 51.2034 61.3099 51.4192C61.1771 51.563 61.1771 51.7069 61.1771 51.8507Z" fill="#FFFBE9"/>
<path d="M67.0856 56.0221C67.2183 55.8063 67.4175 55.5906 67.6167 55.5906C67.8158 55.5906 68.015 55.8063 68.2142 55.9502C68.2142 55.8063 68.2142 55.6625 68.1478 55.5186C68.0814 55.3748 67.8822 55.231 67.6831 55.231C67.4839 55.231 67.2847 55.3748 67.2183 55.5906C67.0856 55.7344 67.0856 55.8782 67.0856 56.0221Z" fill="#FFFBE9"/>
<path d="M62.1729 53.8645C62.3057 53.6487 62.5049 53.433 62.704 53.433C62.9032 53.433 63.1024 53.6487 63.3015 53.7926C63.3015 53.6487 63.3015 53.5049 63.2351 53.361C63.1687 53.2172 62.9696 53.0734 62.7704 53.0734C62.5712 53.0734 62.3721 53.2172 62.3057 53.433C62.1729 53.5768 62.1729 53.7926 62.1729 53.8645Z" fill="#F6A24A"/>
<path d="M62.3721 55.0153C62.5049 54.8715 62.7704 54.7276 62.9696 54.7276C63.1688 54.7276 63.4343 54.7996 63.5671 54.9434C63.5671 54.7276 63.3015 54.368 62.9696 54.368C62.5713 54.5119 62.3057 54.7996 62.3721 55.0153Z" fill="#F6A24A"/>
<path d="M63.1025 53.0015C63.2352 52.8577 63.5008 52.7139 63.6999 52.7139C63.8991 52.7139 64.1647 52.7858 64.2974 52.9296C64.2974 52.7139 64.0319 52.3542 63.6999 52.3542C63.3016 52.4262 63.0361 52.7858 63.1025 53.0015Z" fill="#F6A24A"/>
<path d="M64.2973 54.2241C64.4301 54.0802 64.6956 53.9364 64.8948 53.9364C65.094 53.9364 65.3595 54.0083 65.4923 54.1521C65.4923 53.9364 65.2267 53.5768 64.8948 53.5768C64.5629 53.6487 64.2973 54.0083 64.2973 54.2241Z" fill="#F6A24A"/>
<path d="M64.4301 52.4261C64.5628 52.2823 64.8284 52.1384 65.0275 52.1384C65.2267 52.1384 65.4923 52.2103 65.625 52.3542C65.625 52.1384 65.3595 51.7788 65.0275 51.7788C64.6292 51.8507 64.4301 52.2103 64.4301 52.4261Z" fill="#F6A24A"/>
<path d="M60.8452 53.4329C60.9779 53.2891 61.2435 53.1452 61.4426 53.1452C61.6418 53.1452 61.9074 53.2172 62.0401 53.361C62.0401 53.1452 61.7746 52.7856 61.4426 52.7856C61.1107 52.8576 60.8452 53.2172 60.8452 53.4329Z" fill="#F6A24A"/>
<path d="M64.7621 53.6488C64.8949 53.5049 65.1605 53.3611 65.3596 53.3611C65.5588 53.3611 65.8243 53.433 65.9571 53.5768C65.9571 53.3611 65.6916 53.0015 65.3596 53.0015C64.9613 53.0734 64.6957 53.433 64.7621 53.6488Z" fill="#F6A24A"/>
<path d="M65.5588 54.368C65.6916 54.2242 65.9571 54.0803 66.1563 54.0803C66.3554 54.0803 66.621 54.1522 66.7538 54.2961C66.7538 54.0803 66.4882 53.7207 66.1563 53.7207C65.8243 53.7926 65.5588 54.0803 65.5588 54.368Z" fill="#F6A24A"/>
<path d="M65.7578 51.635C65.957 51.4193 66.2225 51.2035 66.4881 51.2035C66.7536 51.2035 67.0192 51.3473 67.2184 51.5631C67.2184 51.4193 67.152 51.2035 67.0856 51.0597C67.0192 50.9877 66.9528 50.9158 66.82 50.8439C66.7536 50.772 66.6209 50.772 66.4881 50.772C66.2225 50.772 66.0234 50.9158 65.957 51.0597C65.7578 51.2754 65.7578 51.4912 65.7578 51.635Z" fill="#FFFBE9"/>
<path d="M58.123 61.1285C58.455 61.8477 58.8533 62.567 59.3844 63.3581C59.65 63.7896 59.9819 64.2211 60.4466 64.5088C60.6458 64.6526 60.9114 64.7965 61.1769 64.9403C61.4425 65.0122 61.708 65.0842 61.9736 65.1561C63.1022 65.3719 64.098 65.1561 64.961 64.9403C65.8241 64.7246 66.6208 64.4369 67.2846 64.1492C66.5544 64.1492 65.7577 64.2211 64.8947 64.293C64.0316 64.365 63.0358 64.4369 62.1063 64.293C61.9072 64.2211 61.6416 64.1492 61.4425 64.1492C61.2433 64.0773 61.0441 63.9334 60.845 63.8615C60.6458 63.7177 60.4466 63.6458 60.3139 63.43C60.1811 63.2862 59.9819 63.1423 59.8491 62.9266C59.2516 62.2793 58.6542 61.632 58.123 61.1285Z" fill="#212121"/>
<path d="M61.1106 63.6457C61.3098 63.7177 61.5753 63.7896 61.7745 63.8615C62.7039 64.0053 63.567 63.9334 64.3636 63.7177C65.0939 63.5738 65.7578 63.2861 66.3553 63.0704C65.8906 63.0704 65.2931 63.1423 64.6956 63.1423C64.5628 63.1423 64.43 63.1423 64.2308 63.1423C63.7661 63.1423 63.235 63.1423 62.7703 62.9984C62.6375 62.9984 62.4384 62.9984 62.3056 62.9265C62.2392 62.7827 62.1728 62.7108 62.04 62.5669C61.9736 62.4231 61.9073 62.2792 61.8409 62.1354C61.6417 61.9916 61.4425 61.9196 61.177 61.7758C60.9778 61.632 60.7123 61.4881 60.5131 61.4162C60.2475 61.2723 60.0484 61.1285 59.7828 60.9847C59.5173 60.8408 59.3181 60.697 59.0526 60.5531C58.9862 60.4812 58.9198 60.4812 58.8534 60.4093C58.8534 60.5531 58.8534 60.697 58.8534 60.7689C58.8534 60.8408 58.8534 60.9127 58.8534 60.9127C58.8534 60.9847 58.8534 60.9847 58.8534 61.0566C58.9198 61.2004 58.9862 61.4162 59.0526 61.632C59.3181 62.0635 59.6501 62.5669 60.0484 62.9984L60.1148 63.0704C60.1812 63.1423 60.3139 63.2142 60.3803 63.2861C60.7123 63.43 60.9114 63.5738 61.1106 63.6457Z" fill="#212121"/>
<path d="M61.0441 62.2793C61.2433 62.3513 61.4424 62.4232 61.6416 62.4232C62.4383 62.567 63.1685 62.4951 63.766 62.3513C64.3635 62.2074 64.961 62.0636 65.4257 61.8478C65.1602 61.8478 64.8946 61.9197 64.4963 61.9197C64.4299 61.9197 64.3635 61.9197 64.2307 61.9197C63.9652 61.9197 63.6996 61.8478 63.4341 61.7759C63.3677 61.704 63.2349 61.704 63.1685 61.6321C63.2349 61.4882 63.2349 61.4163 63.3013 61.2725C63.3677 61.1286 63.4341 60.9848 63.5005 60.769C63.2349 60.6971 62.9694 60.6252 62.7038 60.5533C62.4383 60.4813 62.1727 60.4094 61.9072 60.2656C61.5752 60.1937 61.3097 60.1217 60.9777 59.9779C60.6458 59.906 60.3802 59.7621 60.0483 59.6902C59.9819 59.6902 59.9155 59.6183 59.7827 59.6183C59.65 59.6902 59.5836 59.7621 59.5172 59.834C59.4508 59.834 59.4508 59.906 59.3844 59.906C59.318 59.906 59.318 59.906 59.2516 59.906C59.1188 59.906 58.9861 59.834 58.9197 59.906C59.1852 60.4094 59.5172 60.9848 59.9819 61.5601L60.0483 61.6321C60.1811 61.704 60.2474 61.8478 60.3802 61.9197C60.5794 62.0636 60.7786 62.2074 61.0441 62.2793Z" fill="#212121"/>
<path d="M60.9114 60.9848C61.0442 61.0567 61.2433 61.0567 61.3761 61.1286C61.9736 61.2724 62.5711 61.2005 63.1022 61.1286C63.5669 61.0567 64.0316 60.9128 64.43 60.8409C64.43 60.8409 64.3636 60.8409 64.2972 60.8409C64.2972 60.8409 64.2972 60.8409 64.2308 60.8409C64.1644 60.8409 64.098 60.769 64.0316 60.6252C64.0316 60.5532 63.9652 60.5532 63.9652 60.4813C64.1644 60.3375 64.2972 60.1936 64.43 60.0498C64.6291 59.834 64.7619 59.6902 64.9611 59.4744C64.6291 59.4025 64.3636 59.4025 64.0316 59.3306C63.6997 59.2587 63.3677 59.2587 63.0358 59.1867C62.7039 59.1148 62.3055 59.1148 61.9736 59.0429C61.5753 58.971 61.2433 58.8991 60.845 58.8271C60.7786 58.8271 60.6458 58.7552 60.5794 58.7552C60.3803 58.8271 60.1811 58.8271 60.0483 58.8991C59.9156 58.8991 59.8492 58.8991 59.7828 58.8271C59.7164 58.7552 59.65 58.6833 59.5172 58.6833C59.1853 58.4675 58.9197 58.1799 58.6542 58.036C58.9197 58.6114 59.3181 59.3306 59.7828 59.9779C59.8492 60.0498 59.8492 60.0498 59.9155 60.1217C60.0483 60.2655 60.1147 60.3375 60.2475 60.4813C60.4467 60.6971 60.7122 60.8409 60.9114 60.9848Z" fill="#212121"/>
<path d="M60.845 59.6183C60.9778 59.6902 61.0442 59.6902 61.177 59.7622C61.6417 59.906 62.04 59.906 62.4383 59.8341C62.7703 59.8341 63.1022 59.7622 63.4342 59.6902C63.6333 59.6902 63.8325 59.6902 64.0317 59.6183C64.098 59.6183 64.1644 59.6183 64.1644 59.5464C64.3636 59.4745 64.4964 59.4026 64.6292 59.2587C64.6955 59.1868 64.6955 59.1868 64.7619 59.1149C65.0939 58.971 65.3594 58.8272 65.625 58.6833C65.9569 58.4676 66.2225 58.3237 66.488 58.108C66.1561 58.108 65.7578 58.108 65.3594 58.108C64.9611 58.108 64.6291 58.108 64.2308 58.108C63.8325 58.108 63.3678 58.108 62.9694 58.108C62.5047 58.108 62.1728 58.108 61.6417 58.0361C61.5089 58.0361 61.4425 58.0361 61.3097 57.9641C61.0442 57.9641 60.7786 57.9641 60.5131 57.9641C60.3803 57.9641 60.2475 57.8922 60.1147 57.8203C59.982 57.7484 59.8492 57.6045 59.7164 57.5326C59.2517 57.1011 58.787 56.6696 58.3887 56.31C58.3887 56.31 58.3887 56.31 58.3223 56.238C58.6542 56.8853 58.9861 57.6765 59.5836 58.4676C59.65 58.5395 59.65 58.5395 59.7164 58.6114C59.8492 58.7553 59.9156 58.8991 60.1147 59.0429C60.3139 59.3306 60.5795 59.4745 60.845 59.6183Z" fill="#212121"/>
<path d="M58.1232 54.5837C58.4551 55.3749 58.8534 56.166 59.4509 57.029C59.5837 57.2448 59.7829 57.4606 59.982 57.6763C60.1812 57.8921 60.5131 58.1079 60.7787 58.2517C61.3762 58.4675 61.9737 58.5394 62.5048 58.5394C63.0359 58.5394 63.6998 58.5394 64.1645 58.3955C64.6956 58.2517 65.1603 58.1079 65.625 57.964C66.5545 57.6044 67.3511 57.2448 68.015 56.8133C67.2184 56.8852 66.3553 56.9571 65.4259 57.101C64.9612 57.1729 64.4301 57.2448 63.9653 57.3167C63.4342 57.3886 63.0359 57.3886 62.4384 57.3886C61.9073 57.3886 61.4426 57.3167 61.0443 57.2448C60.8451 57.1729 60.6459 57.101 60.5131 56.9571C60.314 56.8133 60.1812 56.5975 59.982 56.4537C59.3845 55.8064 58.7207 55.0872 58.1232 54.5837Z" fill="#212121"/>
<path d="M50.2229 61.1284C52.1481 60.7688 54.8037 60.9126 55.6003 61.9914L58.6542 65.4436C59.4509 66.5224 58.5214 67.7451 56.5298 68.1047L51.2187 69.1116C49.2934 69.4712 47.0362 68.8958 46.2396 67.817L43.916 64.5806C43.1193 63.5018 44.0488 62.2791 46.0404 61.9195L50.2229 61.1284Z" fill="#B2B2B2"/>
<path d="M50.2892 51.8507C52.2145 51.4911 54.8036 51.6349 55.5339 52.8576C55.5339 52.8576 58.6542 56.0221 58.7869 57.1728C58.9197 58.2516 58.3222 64.5806 58.3222 64.5806C58.123 66.5225 57.5255 67.0259 55.6003 67.3855L51.0859 68.3924C49.1606 68.752 47.0362 68.1767 46.2395 66.954L43.9159 63.5018C43.7832 63.2861 43.9159 55.0871 43.9159 54.8713C43.7168 53.9364 44.6462 53.0014 46.2395 52.6418L50.2892 51.8507Z" fill="url(#paint4_linear)"/>
<path d="M50.1565 52.2822C51.8826 51.9226 54.2726 52.0664 55.0029 53.0014L57.7248 56.022C58.455 56.957 57.592 58.0358 55.7995 58.3235L51.0196 59.2585C49.2935 59.6181 47.3018 59.1146 46.5715 58.1797L44.5135 55.3748C43.7832 54.4398 44.6463 53.361 46.4388 53.0733L50.1565 52.2822Z" fill="#F2DDB7"/>
<path d="M50.5548 53.7925C51.5506 53.5768 52.8784 53.6487 53.2767 54.1521L54.8036 55.7344C55.202 56.2378 54.7372 56.8132 53.7414 56.957L51.0195 57.4605C50.0237 57.6763 48.8951 57.3886 48.4967 56.8851L47.3017 55.3748C46.9034 54.8714 47.3681 54.296 48.364 54.1521L50.5548 53.7925Z" fill="#E94E1B"/>
<path d="M45.5756 54.6556C45.8412 54.3679 46.1731 54.1521 46.5714 54.1521C46.9698 54.1521 47.3017 54.3679 47.5673 54.6556C47.5673 54.4398 47.5009 54.224 47.3017 54.0083C47.2353 53.8644 47.1026 53.7925 46.9698 53.7206C46.837 53.6487 46.7042 53.6487 46.5051 53.6487C46.1731 53.6487 45.9076 53.8644 45.7748 54.0802C45.642 54.1521 45.5756 54.4398 45.5756 54.6556Z" fill="#FFFBE9"/>
<path d="M45.3766 56.2378C45.6421 55.9502 45.9741 55.7344 46.3724 55.7344C46.7707 55.7344 47.1027 55.9502 47.3682 56.2378C47.3682 56.0221 47.3018 55.8063 47.1027 55.5906C47.0363 55.4467 46.9035 55.3748 46.7707 55.3029C46.638 55.231 46.5052 55.231 46.306 55.231C45.9741 55.231 45.7085 55.4467 45.5758 55.6625C45.443 55.8063 45.3766 56.094 45.3766 56.2378Z" fill="#FFFBE9"/>
<path d="M47.7002 58.4674C47.8994 58.2516 48.0985 58.0359 48.2977 58.0359C48.4969 58.0359 48.7624 58.2516 48.8952 58.3955C48.8952 58.2516 48.8952 58.1078 48.7624 57.964C48.696 57.8201 48.4969 57.6763 48.2313 57.6763C48.0321 57.6763 47.833 57.8201 47.7666 58.0359C47.7002 58.1797 47.7002 58.3955 47.7002 58.4674Z" fill="#FFFBE9"/>
<path d="M49.3599 58.827C49.6254 58.5393 49.9574 58.3235 50.3557 58.3235C50.754 58.3235 51.086 58.5393 51.3515 58.827C51.3515 58.6112 51.2851 58.3954 51.086 58.1797C51.0196 58.0358 50.8868 57.9639 50.754 57.892C50.6212 57.8201 50.4885 57.8201 50.2893 57.8201C49.9574 57.8201 49.6918 58.0358 49.559 58.2516C49.3599 58.3954 49.3599 58.6112 49.3599 58.827Z" fill="#FFFBE9"/>
<path d="M55.4011 56.094C55.6003 55.8782 55.7995 55.8063 56.065 55.7344C56.3306 55.7344 56.5297 55.8782 56.7289 56.022C56.7289 55.7344 56.4633 55.3748 56.065 55.3748C55.6667 55.4467 55.4011 55.8782 55.4011 56.094Z" fill="#FFFBE9"/>
<path d="M50.4885 53.2172C50.754 52.9295 51.086 52.7138 51.4843 52.7138C51.8826 52.7138 52.2146 52.9295 52.4801 53.2172C52.4801 53.0015 52.4137 52.7857 52.2146 52.5699C52.1482 52.4261 52.0154 52.3542 51.8826 52.2822C51.7498 52.2103 51.6171 52.2103 51.4179 52.2103C51.086 52.2103 50.8204 52.4261 50.6876 52.6418C50.4885 52.7857 50.4885 53.0015 50.4885 53.2172Z" fill="#FFFBE9"/>
<path d="M53.7415 54.5117C53.9406 54.2959 54.2062 54.1521 54.4717 54.1521C54.7373 54.1521 55.0029 54.2959 55.202 54.5117C55.202 54.3679 55.1356 54.1521 55.0029 54.0083C54.9365 53.9363 54.8701 53.8644 54.7373 53.7925C54.6709 53.7206 54.5381 53.7206 54.4054 53.7206C53.9406 53.7206 53.6751 54.224 53.7415 54.5117Z" fill="#FFFBE9"/>
<path d="M46.4387 57.4605C46.6379 57.3167 46.9034 57.2448 47.169 57.1728C47.4345 57.1728 47.7665 57.1728 47.9657 57.3167C47.8993 57.029 47.5009 56.8132 47.169 56.8852C46.7707 56.8852 46.4387 57.1728 46.4387 57.4605Z" fill="#FFFBE9"/>
<path d="M48.0321 53.6487C48.2313 53.433 48.4968 53.1453 48.7624 53.1453C49.0279 53.1453 49.2935 53.361 49.4926 53.5768C49.4926 53.433 49.4926 53.2172 49.3599 53.0733C49.2271 52.8576 49.0279 52.7137 48.7624 52.7137C48.4968 52.7137 48.2976 52.9295 48.1649 53.0733C48.0321 53.2891 47.9657 53.433 48.0321 53.6487Z" fill="#FFFBE9"/>
<path d="M54.4053 58.1078C54.6045 57.892 54.8037 57.6763 55.0028 57.6763C55.202 57.6763 55.4675 57.892 55.6003 58.1078C55.6003 57.964 55.6003 57.8201 55.4675 57.6044C55.4012 57.4605 55.202 57.2448 54.9364 57.2448C54.6709 57.2448 54.4717 57.4605 54.4053 57.6044C54.4053 57.7482 54.4053 57.964 54.4053 58.1078Z" fill="#FFFBE9"/>
<path d="M49.0943 55.8063C49.2934 55.5905 49.4926 55.3748 49.6918 55.3748C49.8909 55.3748 50.1565 55.5905 50.2893 55.8063C50.2893 55.6624 50.2893 55.5186 50.1565 55.3028C50.0901 55.159 49.8909 54.9432 49.6254 54.9432C49.3598 54.9432 49.1607 55.159 49.0943 55.3028C49.0279 55.4467 49.0943 55.6624 49.0943 55.8063Z" fill="#F6A24A"/>
<path d="M49.2935 57.0289C49.4926 56.885 49.6918 56.7412 49.9574 56.7412C50.2229 56.7412 50.4221 56.8131 50.6212 57.0289C50.6212 56.8131 50.3557 56.4535 49.9574 56.4535C49.4926 56.4535 49.2271 56.8131 49.2935 57.0289Z" fill="#F6A24A"/>
<path d="M50.0238 54.7994C50.223 54.6555 50.4221 54.5117 50.6877 54.5117C50.9532 54.5117 51.1524 54.5836 51.3516 54.7994C51.3516 54.5836 51.086 54.224 50.6877 54.224C50.2894 54.224 50.0238 54.5836 50.0238 54.7994Z" fill="#F6A24A"/>
<path d="M51.4179 56.1658C51.617 56.022 51.8162 55.8782 52.0818 55.8782C52.3473 55.8782 52.5465 55.9501 52.7456 56.1658C52.7456 55.9501 52.4801 55.5905 52.0818 55.5905C51.617 55.5186 51.3515 55.8782 51.4179 56.1658Z" fill="#F6A24A"/>
<path d="M51.4843 54.2241C51.6835 54.0802 51.8826 53.9364 52.1482 53.9364C52.4138 53.9364 52.6129 54.0083 52.8121 54.2241C52.8121 54.0083 52.5465 53.6487 52.1482 53.6487C51.7499 53.5768 51.4843 53.9364 51.4843 54.2241Z" fill="#F6A24A"/>
<path d="M47.7 55.3028C47.8992 55.159 48.0984 55.0152 48.3639 55.0152C48.6295 55.0152 48.8286 55.0871 49.0278 55.3028C49.0278 55.0871 48.7623 54.7275 48.3639 54.7275C47.8992 54.6556 47.6336 55.0871 47.7 55.3028Z" fill="#F6A24A"/>
<path d="M51.8162 55.5186C52.0154 55.3748 52.2146 55.2309 52.4801 55.2309C52.7457 55.2309 52.9448 55.3028 53.144 55.5186C53.144 55.3028 52.8784 54.9432 52.4801 54.9432C52.0818 54.9432 51.8162 55.3028 51.8162 55.5186Z" fill="#F6A24A"/>
<path d="M52.7456 56.2378C52.9448 56.094 53.1439 55.9502 53.4095 55.9502C53.675 55.9502 53.8742 56.0221 54.0734 56.2378C54.0734 56.0221 53.8078 55.6625 53.4095 55.6625C53.0112 55.6625 52.7456 56.0221 52.7456 56.2378Z" fill="#F6A24A"/>
<path d="M52.9448 53.361C53.144 53.1452 53.4095 52.9294 53.7415 52.9294C54.007 52.9294 54.2726 53.0733 54.5381 53.2891C54.5381 53.1452 54.4718 52.9294 54.339 52.7856C54.2726 52.7137 54.2062 52.6418 54.0734 52.5698C53.9407 52.4979 53.8079 52.4979 53.7415 52.4979C53.4759 52.4979 53.2768 52.6418 53.144 52.8575C52.9448 53.0014 52.9448 53.1452 52.9448 53.361Z" fill="#FFFBE9"/>
<path d="M44.7126 63.6456C45.0445 64.3648 45.5092 65.2279 46.1067 66.0909C46.2395 66.3067 46.4387 66.5225 46.6378 66.7382C46.7706 66.954 47.0362 67.1697 47.3017 67.3136C47.5673 67.4574 47.8328 67.6013 48.0984 67.7451C48.3639 67.817 48.6959 67.8889 48.9614 68.0328C50.1564 68.2486 51.285 68.0328 52.2145 67.817C53.1439 67.6013 54.0069 67.2417 54.7372 66.954C53.9406 66.954 53.0775 67.0259 52.1481 67.0978C51.2186 67.1697 50.1564 67.2417 49.1606 67.0978C48.895 67.0259 48.6959 66.954 48.4303 66.8821C48.2312 66.7382 47.9656 66.6663 47.7664 66.5944C47.5673 66.4505 47.3681 66.3786 47.2353 66.1629C47.0362 66.019 46.9034 65.8032 46.7042 65.6594C45.9076 64.8683 45.3101 64.1491 44.7126 63.6456Z" fill="#212121"/>
<path d="M44.7126 62.2073C45.0445 62.9984 45.5092 63.7895 46.1067 64.7245C46.3059 64.9403 46.4387 65.156 46.6378 65.3718C46.837 65.5875 47.1026 65.8033 47.3017 65.9471C47.6337 66.1629 47.9656 66.2348 48.2976 66.3787C48.6295 66.4506 49.0278 66.5225 49.3598 66.5225C50.422 66.6664 51.4178 66.4506 52.2809 66.2348C53.2767 65.9472 54.0733 65.6595 54.8036 65.2999C54.0069 65.2999 53.1439 65.3718 52.1481 65.5156C51.285 65.5875 50.3556 65.6595 49.4262 65.5156C49.0942 65.5156 48.8287 65.4437 48.4967 65.3718C48.2312 65.2999 47.8992 65.2279 47.7001 65.0841C47.5009 64.9403 47.3017 64.8683 47.169 64.6526C46.9698 64.5087 46.837 64.293 46.6378 64.1491C45.974 63.4299 45.3101 62.7826 44.7126 62.2073Z" fill="#212121"/>
<path d="M44.7126 60.7688C45.0445 61.5599 45.5092 62.423 46.1067 63.286C46.3059 63.5018 46.4387 63.7176 46.6378 63.9333C46.837 64.1491 47.1026 64.3648 47.3681 64.5087C47.7664 64.7244 48.1648 64.7964 48.5631 64.9402C48.9614 65.0121 49.4262 65.0121 49.8245 65.0121C50.7539 65.084 51.617 64.9402 52.4136 64.6525C53.4095 64.3648 54.2725 64.0052 54.9364 63.6456C54.1397 63.6456 53.2103 63.7895 52.2809 63.8614C51.4842 63.9333 50.6875 64.0052 49.8909 63.9333C49.4925 63.9333 49.227 63.8614 48.8287 63.8614C48.4967 63.7895 48.0984 63.7176 47.8328 63.5737C47.6337 63.4299 47.4345 63.3579 47.3017 63.2141C47.1026 63.0703 46.9698 62.8545 46.7706 62.7107C45.974 62.0634 45.3101 61.3442 44.7126 60.7688Z" fill="#212121"/>
<path d="M44.7126 59.4023C45.0445 60.1935 45.5092 61.0565 46.1067 61.9915C46.3059 62.2073 46.4387 62.423 46.6378 62.7107C46.837 62.9265 47.1026 63.1422 47.4345 63.2861C47.8992 63.5018 48.4303 63.5737 48.895 63.6457C49.3598 63.7176 49.8909 63.7176 50.3556 63.6457C51.1523 63.6457 51.9489 63.5018 52.6128 63.2861C53.6086 62.9984 54.4717 62.5669 55.1356 62.2073C54.3389 62.2073 53.4095 62.3511 52.4136 62.423C51.7497 62.4949 51.0195 62.5669 50.2892 62.4949C49.8909 62.4949 49.4925 62.4949 49.0278 62.423C48.6295 62.3511 48.1648 62.3511 47.8328 62.2073C47.6337 62.1353 47.4345 61.9915 47.2353 61.8476C47.0362 61.7038 46.9034 61.488 46.7042 61.3442C46.0404 60.625 45.3101 59.9058 44.7126 59.4023Z" fill="#212121"/>
<path d="M44.7126 57.9639C45.0445 58.755 45.5092 59.69 46.1067 60.553C46.3059 60.7688 46.4387 61.0565 46.6378 61.2722C46.837 61.488 47.169 61.7037 47.4345 61.8476C47.9656 62.0633 48.5631 62.1353 49.0942 62.2072C49.6253 62.2072 50.2228 62.2072 50.7539 62.1353C51.4178 62.0633 52.0817 61.9195 52.6792 61.7037C53.675 61.3441 54.5381 60.9845 55.2683 60.553C54.4717 60.6249 53.5422 60.6969 52.48 60.8407C51.8825 60.9126 51.285 60.9845 50.6211 60.9845C50.1564 61.0565 49.6917 61.0565 49.1606 60.9845C48.6959 60.9126 48.1648 60.9126 47.8328 60.7688C47.6337 60.6969 47.4345 60.6249 47.2353 60.4811C47.0362 60.3372 46.9034 60.1215 46.7042 59.9776C46.0404 59.2584 45.3765 58.5392 44.7126 57.9639Z" fill="#212121"/>
<path d="M44.7127 56.5255C45.0446 57.3166 45.5094 58.2516 46.1069 59.1866C46.306 59.4023 46.4388 59.69 46.638 59.9058C46.9035 60.1215 47.1691 60.3373 47.501 60.4811C48.1649 60.7688 48.7624 60.7688 49.3599 60.8408C49.9574 60.8408 50.6213 60.8408 51.1524 60.6969C51.7499 60.5531 52.281 60.4092 52.7457 60.1935C53.7415 59.8339 54.6046 59.4023 55.3348 58.9708C54.5382 59.0427 53.5424 59.1147 52.5465 59.2585C52.0154 59.3304 51.4843 59.4023 50.9532 59.4743C50.4221 59.5462 49.9574 59.5462 49.3599 59.5462C48.8288 59.5462 48.2313 59.4743 47.833 59.4023C47.6338 59.3304 47.4346 59.2585 47.2355 59.1147C47.0363 58.9708 46.8371 58.7551 46.7044 58.6112C46.0405 57.8201 45.3766 57.1009 44.7127 56.5255Z" fill="#212121"/>
<path d="M32.4974 80.3313C32.4974 80.3313 32.431 80.3313 32.4974 80.3313C32.1655 80.3313 31.8999 80.0437 31.9663 79.6841L32.2318 76.5195C32.2318 76.1599 32.4974 75.9442 32.8293 76.0161C33.0949 76.0161 33.3604 76.3038 33.2941 76.6634L33.0285 79.8279C33.0285 80.1156 32.763 80.3313 32.4974 80.3313Z" fill="#C2C2C2"/>
<path d="M30.7713 51.7069L36.4807 73.2831C36.6798 74.0742 36.2815 74.9373 35.4848 75.225C34.7546 75.4407 33.9579 75.0092 33.6924 74.1462C33.6924 74.0742 33.6924 74.0742 33.6924 74.0023L29.9082 51.9227C29.8418 51.7069 30.041 51.4192 30.2402 51.4192C30.5057 51.3473 30.7049 51.4911 30.7713 51.7069Z" fill="#9D9D9C"/>
<path d="M27.5847 51.2755L43.0531 72.7078C43.4515 73.2832 43.3851 74.1462 42.854 74.5777C42.3229 75.0093 41.5262 74.9374 41.1279 74.362L41.0615 74.2901L26.9872 51.707C26.8544 51.4912 26.9208 51.2754 27.1199 51.1316C27.2527 51.0597 27.4519 51.1316 27.5847 51.2755Z" fill="#9D9D9C"/>
<path d="M29.1779 42.501L39.8664 83.28C40.0656 84.0711 39.6672 84.8622 38.937 85.078C38.2067 85.2938 37.4764 84.8622 37.2773 84.0711V83.9992L28.3812 42.7167C28.3148 42.501 28.4476 42.2133 28.7132 42.2133C28.9123 42.1414 29.1115 42.2852 29.1779 42.501Z" fill="#7B410B"/>
<path d="M28.8459 42.5729L38.2067 82.9204C38.2731 83.0642 38.1403 83.28 38.0075 83.28C37.8747 83.3519 37.6756 83.2081 37.6756 83.0642L28.7131 42.6448C28.7131 42.5729 28.7131 42.5729 28.7795 42.501L28.8459 42.5729Z" fill="#BB8E53"/>
<path d="M22.6719 43.7956L51.5508 78.2456C52.0819 78.8929 52.0155 79.8278 51.4844 80.4032C50.9533 80.9786 50.0239 80.9067 49.4928 80.3313C49.4928 80.3313 49.4928 80.2594 49.4264 80.2594L22.008 44.371C21.8752 44.1552 21.8752 43.8675 22.0744 43.7237C22.2072 43.5798 22.4727 43.6517 22.6719 43.7956Z" fill="#7B410B"/>
<path d="M22.4064 44.0114L49.9575 78.749C50.0903 78.8929 50.0239 79.1086 49.8911 79.2525C49.7584 79.3963 49.5592 79.3244 49.4264 79.2525L22.2072 44.2271C22.2072 44.1552 22.2072 44.1552 22.2072 44.0833C22.34 44.0114 22.34 44.0114 22.4064 44.0114Z" fill="#BB8E53"/>
<path d="M36.4093 98.8568C36.4093 99.7154 36.2733 100.497 36.0013 101.201C35.7293 101.905 35.3453 102.507 34.8493 103.009C34.3533 103.51 33.7586 103.899 33.0653 104.177C32.3719 104.449 31.6039 104.585 30.7613 104.585H26.4733V93.1208H30.7613C31.6039 93.1208 32.3719 93.2594 33.0653 93.5368C33.7586 93.8088 34.3533 94.1981 34.8493 94.7048C35.3453 95.2061 35.7293 95.8088 36.0013 96.5128C36.2733 97.2168 36.4093 97.9981 36.4093 98.8568ZM34.8173 98.8568C34.8173 98.1528 34.7213 97.5234 34.5293 96.9688C34.3373 96.4141 34.0653 95.9448 33.7133 95.5608C33.3613 95.1768 32.9346 94.8834 32.4333 94.6808C31.9319 94.4781 31.3746 94.3768 30.7613 94.3768H28.0333V103.329H30.7613C31.3746 103.329 31.9319 103.227 32.4333 103.025C32.9346 102.822 33.3613 102.531 33.7133 102.153C34.0653 101.769 34.3373 101.299 34.5293 100.745C34.7213 100.19 34.8173 99.5608 34.8173 98.8568Z" fill="black"/>
<path d="M41.6541 96.3528C42.1395 96.3528 42.5875 96.4354 42.9981 96.6008C43.4088 96.7608 43.7635 96.9954 44.0621 97.3048C44.3608 97.6088 44.5928 97.9874 44.7581 98.4408C44.9288 98.8888 45.0141 99.4008 45.0141 99.9768C45.0141 100.201 44.9901 100.35 44.9421 100.425C44.8941 100.499 44.8035 100.537 44.6701 100.537H39.2781C39.2888 101.049 39.3581 101.494 39.4861 101.873C39.6141 102.251 39.7901 102.569 40.0141 102.825C40.2381 103.075 40.5048 103.265 40.8141 103.393C41.1235 103.515 41.4701 103.577 41.8541 103.577C42.2115 103.577 42.5181 103.537 42.7741 103.457C43.0355 103.371 43.2595 103.281 43.4461 103.185C43.6328 103.089 43.7875 103.001 43.9101 102.921C44.0381 102.835 44.1475 102.793 44.2381 102.793C44.3555 102.793 44.4461 102.838 44.5101 102.929L44.9101 103.449C44.7341 103.662 44.5235 103.849 44.2781 104.009C44.0328 104.163 43.7688 104.291 43.4861 104.393C43.2088 104.494 42.9208 104.569 42.6221 104.617C42.3235 104.67 42.0275 104.697 41.7341 104.697C41.1741 104.697 40.6568 104.603 40.1821 104.417C39.7128 104.225 39.3048 103.947 38.9581 103.585C38.6168 103.217 38.3501 102.763 38.1581 102.225C37.9661 101.686 37.8701 101.067 37.8701 100.369C37.8701 99.8034 37.9555 99.2754 38.1261 98.7848C38.3021 98.2941 38.5528 97.8701 38.8781 97.5128C39.2035 97.1501 39.6008 96.8674 40.0701 96.6648C40.5395 96.4568 41.0675 96.3528 41.6541 96.3528ZM41.6861 97.4008C40.9981 97.4008 40.4568 97.6008 40.0621 98.0008C39.6675 98.3954 39.4221 98.9448 39.3261 99.6488H43.7341C43.7341 99.3181 43.6888 99.0168 43.5981 98.7448C43.5075 98.4674 43.3741 98.2301 43.1981 98.0328C43.0221 97.8301 42.8061 97.6754 42.5501 97.5688C42.2995 97.4568 42.0115 97.4008 41.6861 97.4008Z" fill="black"/>
<path d="M56.1825 104.585H55.5505C55.4119 104.585 55.2999 104.563 55.2145 104.521C55.1292 104.478 55.0732 104.387 55.0465 104.249L54.8865 103.497C54.6732 103.689 54.4652 103.862 54.2625 104.017C54.0599 104.166 53.8465 104.294 53.6225 104.401C53.3985 104.502 53.1585 104.579 52.9025 104.633C52.6519 104.686 52.3719 104.713 52.0625 104.713C51.7479 104.713 51.4519 104.67 51.1745 104.585C50.9025 104.494 50.6652 104.361 50.4625 104.185C50.2598 104.009 50.0972 103.787 49.9745 103.521C49.8572 103.249 49.7985 102.929 49.7985 102.561C49.7985 102.241 49.8865 101.934 50.0625 101.641C50.2385 101.342 50.5212 101.078 50.9105 100.849C51.3052 100.619 51.8199 100.433 52.4545 100.289C53.0892 100.139 53.8652 100.054 54.7825 100.033V99.4008C54.7825 98.7714 54.6465 98.2968 54.3745 97.9768C54.1079 97.6514 53.7105 97.4888 53.1825 97.4888C52.8359 97.4888 52.5425 97.5341 52.3025 97.6248C52.0679 97.7101 51.8625 97.8088 51.6865 97.9208C51.5159 98.0274 51.3665 98.1261 51.2385 98.2168C51.1159 98.3021 50.9932 98.3448 50.8705 98.3448C50.7745 98.3448 50.6892 98.3208 50.6145 98.2728C50.5452 98.2194 50.4892 98.1554 50.4465 98.0808L50.1905 97.6248C50.6385 97.1928 51.1212 96.8701 51.6385 96.6568C52.1559 96.4434 52.7292 96.3368 53.3585 96.3368C53.8118 96.3368 54.2145 96.4114 54.5665 96.5608C54.9185 96.7101 55.2145 96.9181 55.4545 97.1848C55.6945 97.4514 55.8759 97.7741 55.9985 98.1528C56.1212 98.5314 56.1825 98.9474 56.1825 99.4008V104.585ZM52.4865 103.713C52.7372 103.713 52.9665 103.689 53.1745 103.641C53.3825 103.587 53.5772 103.515 53.7585 103.425C53.9452 103.329 54.1212 103.214 54.2865 103.081C54.4572 102.947 54.6225 102.795 54.7825 102.625V100.937C54.1265 100.958 53.5692 101.011 53.1105 101.097C52.6519 101.177 52.2785 101.283 51.9905 101.417C51.7025 101.55 51.4918 101.707 51.3585 101.889C51.2305 102.07 51.1665 102.273 51.1665 102.497C51.1665 102.71 51.2012 102.894 51.2705 103.049C51.3399 103.203 51.4332 103.331 51.5505 103.433C51.6679 103.529 51.8065 103.601 51.9665 103.649C52.1265 103.691 52.2999 103.713 52.4865 103.713Z" fill="black"/>
<path d="M60.0739 92.8008V104.585H58.6499V92.8008H60.0739Z" fill="black"/>
<path d="M64.3176 92.8008V104.585H62.8936V92.8008H64.3176Z" fill="black"/>
<path d="M72.9294 104.585H72.2974C72.1587 104.585 72.0467 104.563 71.9614 104.521C71.8761 104.478 71.8201 104.387 71.7934 104.249L71.6334 103.497C71.4201 103.689 71.2121 103.862 71.0094 104.017C70.8067 104.166 70.5934 104.294 70.3694 104.401C70.1454 104.502 69.9054 104.579 69.6494 104.633C69.3987 104.686 69.1187 104.713 68.8094 104.713C68.4947 104.713 68.1987 104.67 67.9214 104.585C67.6494 104.494 67.4121 104.361 67.2094 104.185C67.0067 104.009 66.8441 103.787 66.7214 103.521C66.6041 103.249 66.5454 102.929 66.5454 102.561C66.5454 102.241 66.6334 101.934 66.8094 101.641C66.9854 101.342 67.2681 101.078 67.6574 100.849C68.0521 100.619 68.5667 100.433 69.2014 100.289C69.8361 100.139 70.6121 100.054 71.5294 100.033V99.4008C71.5294 98.7714 71.3934 98.2968 71.1214 97.9768C70.8547 97.6514 70.4574 97.4888 69.9294 97.4888C69.5827 97.4888 69.2894 97.5341 69.0494 97.6248C68.8147 97.7101 68.6094 97.8088 68.4334 97.9208C68.2627 98.0274 68.1134 98.1261 67.9854 98.2168C67.8627 98.3021 67.7401 98.3448 67.6174 98.3448C67.5214 98.3448 67.4361 98.3208 67.3614 98.2728C67.2921 98.2194 67.2361 98.1554 67.1934 98.0808L66.9374 97.6248C67.3854 97.1928 67.8681 96.8701 68.3854 96.6568C68.9027 96.4434 69.4761 96.3368 70.1054 96.3368C70.5587 96.3368 70.9614 96.4114 71.3134 96.5608C71.6654 96.7101 71.9614 96.9181 72.2014 97.1848C72.4414 97.4514 72.6227 97.7741 72.7454 98.1528C72.8681 98.5314 72.9294 98.9474 72.9294 99.4008V104.585ZM69.2334 103.713C69.4841 103.713 69.7134 103.689 69.9214 103.641C70.1294 103.587 70.3241 103.515 70.5054 103.425C70.6921 103.329 70.8681 103.214 71.0334 103.081C71.2041 102.947 71.3694 102.795 71.5294 102.625V100.937C70.8734 100.958 70.3161 101.011 69.8574 101.097C69.3987 101.177 69.0254 101.283 68.7374 101.417C68.4494 101.55 68.2387 101.707 68.1054 101.889C67.9774 102.07 67.9134 102.273 67.9134 102.497C67.9134 102.71 67.9481 102.894 68.0174 103.049C68.0867 103.203 68.1801 103.331 68.2974 103.433C68.4147 103.529 68.5534 103.601 68.7134 103.649C68.8734 103.691 69.0467 103.713 69.2334 103.713ZM72.3534 92.9928L70.4894 95.0568C70.4147 95.1368 70.3401 95.1954 70.2654 95.2328C70.1961 95.2648 70.1054 95.2808 69.9934 95.2808H69.1454L70.3294 93.3448C70.4041 93.2221 70.4841 93.1341 70.5694 93.0808C70.6601 93.0221 70.7907 92.9928 70.9614 92.9928H72.3534Z" fill="black"/>
<defs>
<linearGradient id="paint0_linear" x1="16.3958" y1="63.6779" x2="64.6248" y2="24.4222" gradientUnits="userSpaceOnUse">
<stop stop-color="#DADADA"/>
<stop offset="0.3224" stop-color="#E0E0E0"/>
<stop offset="1" stop-color="#EBEBEB"/>
</linearGradient>
<linearGradient id="paint1_linear" x1="63.7903" y1="49.4429" x2="49.47" y2="49.1616" gradientUnits="userSpaceOnUse">
<stop stop-color="#4D4D4C"/>
<stop offset="1" stop-color="#706F6F"/>
</linearGradient>
<linearGradient id="paint2_linear" x1="51.7222" y1="52.8068" x2="36.0546" y2="52.4991" gradientUnits="userSpaceOnUse">
<stop stop-color="#4D4D4C"/>
<stop offset="1" stop-color="#706F6F"/>
</linearGradient>
<linearGradient id="paint3_linear" x1="70.6125" y1="58.0504" x2="55.9006" y2="57.7615" gradientUnits="userSpaceOnUse">
<stop stop-color="#4D4D4C"/>
<stop offset="1" stop-color="#706F6F"/>
</linearGradient>
<linearGradient id="paint4_linear" x1="58.1762" y1="60.2776" x2="42.3121" y2="59.966" gradientUnits="userSpaceOnUse">
<stop stop-color="#4D4D4C"/>
<stop offset="1" stop-color="#706F6F"/>
</linearGradient>
</defs>
</svg>
