<svg width="32" height="32" viewBox="0 0 32 32" fill="none" xmlns="http://www.w3.org/2000/svg">
<path d="M6.42042 30.7653C4.58603 30.7653 2.54784 29.3248 1.73256 27.4727C1.12109 25.8264 1.32497 24.18 2.54789 22.9453L22.7261 2.57235C23.1338 2.16078 23.7453 2.16078 24.1529 2.57235L29.2484 7.71704C29.6561 8.12862 29.6561 8.74598 29.2484 9.15755L9.07008 29.5305C8.45861 30.3537 7.43953 30.7653 6.42042 30.7653ZM23.5415 4.63023L3.97454 24.3859C3.15926 25.209 3.36318 26.0321 3.567 26.6495C4.17846 28.2958 6.4205 29.3247 7.64343 28.09L27.2102 8.33441L23.5415 4.63023Z" fill="#44444D"/>
<path d="M31.0828 7.09968C30.879 7.09968 30.4713 7.0997 30.2675 6.89391L25.1719 1.74922C24.7643 1.33764 24.7643 0.720257 25.1719 0.308681C25.5796 -0.102894 26.1911 -0.102894 26.5987 0.308681L31.6943 5.45337C32.1019 5.86495 32.1019 6.48234 31.6943 6.89391C31.6943 6.89391 31.2866 7.09968 31.0828 7.09968Z" fill="#44444D"/>
<path d="M10.293 28.0901C10.0892 28.0901 9.6815 28.0901 9.47768 27.8844L4.38215 22.7397C3.97451 22.3281 3.97451 21.7107 4.38215 21.2992C4.78979 20.8876 5.40128 20.8876 5.80892 21.2992L10.9045 26.4439C11.3121 26.8554 11.3121 27.4728 10.9045 27.8844C10.9045 27.8844 10.7007 28.0901 10.293 28.0901Z" fill="#44444D"/>
<path d="M1.12107 32.0001C0.917246 32.0001 0.509553 32.0001 0.305732 31.7943C-0.101911 31.3827 -0.101911 30.7654 0.305732 30.3538L2.95538 27.6786C3.36303 27.267 3.97452 27.267 4.38216 27.6786C4.7898 28.0901 4.7898 28.7075 4.38216 29.1191L1.73251 31.7943C1.73251 32.0001 1.52871 32.0001 1.12107 32.0001Z" fill="#44444D"/>
</svg>
