<svg width="88" height="107" viewBox="0 0 88 107" fill="none" xmlns="http://www.w3.org/2000/svg">
<path d="M21.7485 99.736L21.7405 101H14.6765V89.536H21.7405V90.8H16.2285V94.608H20.6925V95.824H16.2285V99.736H21.7485ZM24.8501 94.072C25.0261 93.8747 25.2128 93.696 25.4101 93.536C25.6075 93.376 25.8155 93.24 26.0341 93.128C26.2581 93.0107 26.4928 92.9227 26.7381 92.864C26.9888 92.8 27.2581 92.768 27.5461 92.768C27.9888 92.768 28.3781 92.8427 28.7141 92.992C29.0555 93.136 29.3381 93.344 29.5621 93.616C29.7915 93.8827 29.9648 94.2053 30.0821 94.584C30.1995 94.9627 30.2581 95.3813 30.2581 95.84V101H28.8261V95.84C28.8261 95.2267 28.6848 94.752 28.4021 94.416C28.1248 94.0747 27.7008 93.904 27.1301 93.904C26.7088 93.904 26.3141 94.0053 25.9461 94.208C25.5835 94.4107 25.2475 94.6853 24.9381 95.032V101H23.5061V92.896H24.3621C24.5648 92.896 24.6901 92.9947 24.7381 93.192L24.8501 94.072ZM37.298 94.232C37.234 94.3493 37.1353 94.408 37.002 94.408C36.922 94.408 36.8313 94.3787 36.73 94.32C36.6287 94.2613 36.5033 94.1973 36.354 94.128C36.21 94.0533 36.0367 93.9867 35.834 93.928C35.6313 93.864 35.3913 93.832 35.114 93.832C34.874 93.832 34.658 93.864 34.466 93.928C34.274 93.9867 34.1087 94.0693 33.97 94.176C33.8367 94.2827 33.7327 94.408 33.658 94.552C33.5887 94.6907 33.554 94.8427 33.554 95.008C33.554 95.216 33.6127 95.3893 33.73 95.528C33.8527 95.6667 34.0127 95.7867 34.21 95.888C34.4073 95.9893 34.6313 96.08 34.882 96.16C35.1327 96.2347 35.3887 96.3173 35.65 96.408C35.9167 96.4933 36.1753 96.5893 36.426 96.696C36.6767 96.8027 36.9007 96.936 37.098 97.096C37.2953 97.256 37.4527 97.4533 37.57 97.688C37.6927 97.9173 37.754 98.1947 37.754 98.52C37.754 98.8933 37.6873 99.24 37.554 99.56C37.4207 99.8747 37.2233 100.149 36.962 100.384C36.7007 100.613 36.3807 100.795 36.002 100.928C35.6233 101.061 35.186 101.128 34.69 101.128C34.1247 101.128 33.6127 101.037 33.154 100.856C32.6953 100.669 32.306 100.432 31.986 100.144L32.322 99.6C32.3647 99.5307 32.4153 99.4773 32.474 99.44C32.5327 99.4027 32.6073 99.384 32.698 99.384C32.794 99.384 32.8953 99.4213 33.002 99.496C33.1087 99.5707 33.2367 99.6533 33.386 99.744C33.5407 99.8347 33.7273 99.9173 33.946 99.992C34.1647 100.067 34.4367 100.104 34.762 100.104C35.0393 100.104 35.282 100.069 35.49 100C35.698 99.9253 35.8713 99.8267 36.01 99.704C36.1487 99.5813 36.25 99.44 36.314 99.28C36.3833 99.12 36.418 98.9493 36.418 98.768C36.418 98.544 36.3567 98.36 36.234 98.216C36.1167 98.0667 35.9593 97.9413 35.762 97.84C35.5647 97.7333 35.338 97.6427 35.082 97.568C34.8313 97.488 34.5727 97.4053 34.306 97.32C34.0447 97.2347 33.786 97.1387 33.53 97.032C33.2793 96.92 33.0553 96.7813 32.858 96.616C32.6607 96.4507 32.5007 96.248 32.378 96.008C32.2607 95.7627 32.202 95.4667 32.202 95.12C32.202 94.8107 32.266 94.5147 32.394 94.232C32.522 93.944 32.7087 93.6933 32.954 93.48C33.1993 93.2613 33.5007 93.088 33.858 92.96C34.2153 92.832 34.6233 92.768 35.082 92.768C35.6153 92.768 36.0927 92.8533 36.514 93.024C36.9407 93.1893 37.3087 93.4187 37.618 93.712L37.298 94.232ZM44.0419 97.352C43.3859 97.3733 42.8259 97.4267 42.3619 97.512C41.9032 97.592 41.5272 97.6987 41.2339 97.832C40.9459 97.9653 40.7352 98.1227 40.6019 98.304C40.4739 98.4853 40.4099 98.688 40.4099 98.912C40.4099 99.1253 40.4445 99.3093 40.5139 99.464C40.5832 99.6187 40.6765 99.7467 40.7939 99.848C40.9165 99.944 41.0579 100.016 41.2179 100.064C41.3832 100.107 41.5592 100.128 41.7459 100.128C41.9965 100.128 42.2259 100.104 42.4339 100.056C42.6419 100.003 42.8365 99.928 43.0179 99.832C43.2045 99.736 43.3805 99.6213 43.5459 99.488C43.7165 99.3547 43.8819 99.2027 44.0419 99.032V97.352ZM39.4419 94.04C39.8899 93.608 40.3725 93.2853 40.8899 93.072C41.4072 92.8587 41.9805 92.752 42.6099 92.752C43.0632 92.752 43.4659 92.8267 43.8179 92.976C44.1699 93.1253 44.4659 93.3333 44.7059 93.6C44.9459 93.8667 45.1272 94.1893 45.2499 94.568C45.3725 94.9467 45.4339 95.3627 45.4339 95.816V101H44.8019C44.6632 101 44.5565 100.979 44.4819 100.936C44.4072 100.888 44.3485 100.797 44.3059 100.664L44.1459 99.896C43.9325 100.093 43.7245 100.269 43.5219 100.424C43.3192 100.573 43.1059 100.701 42.8819 100.808C42.6579 100.909 42.4179 100.987 42.1619 101.04C41.9112 101.099 41.6312 101.128 41.3219 101.128C41.0072 101.128 40.7112 101.085 40.4339 101C40.1565 100.909 39.9139 100.776 39.7059 100.6C39.5032 100.424 39.3405 100.203 39.2179 99.936C39.1005 99.664 39.0419 99.344 39.0419 98.976C39.0419 98.656 39.1299 98.3493 39.3059 98.056C39.4819 97.7573 39.7672 97.4933 40.1619 97.264C40.5565 97.0347 41.0712 96.848 41.7059 96.704C42.3405 96.5547 43.1192 96.4693 44.0419 96.448V95.816C44.0419 95.1867 43.9059 94.712 43.6339 94.392C43.3619 94.0667 42.9645 93.904 42.4419 93.904C42.0899 93.904 41.7939 93.9493 41.5539 94.04C41.3192 94.1253 41.1139 94.224 40.9379 94.336C40.7672 94.4427 40.6179 94.5413 40.4899 94.632C40.3672 94.7173 40.2445 94.76 40.1219 94.76C40.0259 94.76 39.9432 94.736 39.8739 94.688C39.8045 94.6347 39.7459 94.5707 39.6979 94.496L39.4419 94.04ZM49.225 89.216V101H47.801V89.216H49.225ZM56.0763 97.352C55.4203 97.3733 54.8603 97.4267 54.3963 97.512C53.9376 97.592 53.5616 97.6987 53.2683 97.832C52.9803 97.9653 52.7696 98.1227 52.6363 98.304C52.5083 98.4853 52.4443 98.688 52.4443 98.912C52.4443 99.1253 52.4789 99.3093 52.5483 99.464C52.6176 99.6187 52.7109 99.7467 52.8283 99.848C52.9509 99.944 53.0923 100.016 53.2523 100.064C53.4176 100.107 53.5936 100.128 53.7803 100.128C54.0309 100.128 54.2603 100.104 54.4683 100.056C54.6763 100.003 54.8709 99.928 55.0523 99.832C55.2389 99.736 55.4149 99.6213 55.5803 99.488C55.7509 99.3547 55.9163 99.2027 56.0763 99.032V97.352ZM51.4763 94.04C51.9243 93.608 52.4069 93.2853 52.9243 93.072C53.4416 92.8587 54.0149 92.752 54.6443 92.752C55.0976 92.752 55.5003 92.8267 55.8523 92.976C56.2043 93.1253 56.5003 93.3333 56.7403 93.6C56.9803 93.8667 57.1616 94.1893 57.2843 94.568C57.4069 94.9467 57.4683 95.3627 57.4683 95.816V101H56.8363C56.6976 101 56.5909 100.979 56.5163 100.936C56.4416 100.888 56.3829 100.797 56.3403 100.664L56.1803 99.896C55.9669 100.093 55.7589 100.269 55.5563 100.424C55.3536 100.573 55.1403 100.701 54.9163 100.808C54.6923 100.909 54.4523 100.987 54.1963 101.04C53.9456 101.099 53.6656 101.128 53.3563 101.128C53.0416 101.128 52.7456 101.085 52.4683 101C52.1909 100.909 51.9483 100.776 51.7403 100.6C51.5376 100.424 51.3749 100.203 51.2523 99.936C51.1349 99.664 51.0763 99.344 51.0763 98.976C51.0763 98.656 51.1643 98.3493 51.3403 98.056C51.5163 97.7573 51.8016 97.4933 52.1963 97.264C52.5909 97.0347 53.1056 96.848 53.7403 96.704C54.3749 96.5547 55.1536 96.4693 56.0763 96.448V95.816C56.0763 95.1867 55.9403 94.712 55.6683 94.392C55.3963 94.0667 54.9989 93.904 54.4763 93.904C54.1243 93.904 53.8283 93.9493 53.5883 94.04C53.3536 94.1253 53.1483 94.224 52.9723 94.336C52.8016 94.4427 52.6523 94.5413 52.5243 94.632C52.4016 94.7173 52.2789 94.76 52.1563 94.76C52.0603 94.76 51.9776 94.736 51.9083 94.688C51.8389 94.6347 51.7803 94.5707 51.7323 94.496L51.4763 94.04ZM65.0674 94.824C64.8007 94.4667 64.5127 94.2187 64.2034 94.08C63.894 93.936 63.5474 93.864 63.1634 93.864C62.4114 93.864 61.8327 94.1333 61.4274 94.672C61.022 95.2107 60.8194 95.9787 60.8194 96.976C60.8194 97.504 60.8647 97.9573 60.9554 98.336C61.046 98.7093 61.1794 99.0187 61.3554 99.264C61.5314 99.504 61.7474 99.68 62.0034 99.792C62.2594 99.904 62.55 99.96 62.8754 99.96C63.3447 99.96 63.7527 99.8533 64.0994 99.64C64.4514 99.4267 64.774 99.1253 65.0674 98.736V94.824ZM66.4914 89.216V101H65.6434C65.4407 101 65.3127 100.901 65.2594 100.704L65.1314 99.72C64.7847 100.136 64.39 100.472 63.9474 100.728C63.5047 100.984 62.9927 101.112 62.4114 101.112C61.9474 101.112 61.526 101.024 61.1474 100.848C60.7687 100.667 60.446 100.403 60.1794 100.056C59.9127 99.7093 59.7074 99.2773 59.5634 98.76C59.4194 98.2427 59.3474 97.648 59.3474 96.976C59.3474 96.3787 59.4274 95.824 59.5874 95.312C59.7474 94.7947 59.9767 94.3467 60.2754 93.968C60.574 93.5893 60.9394 93.2933 61.3714 93.08C61.8087 92.8613 62.2994 92.752 62.8434 92.752C63.3394 92.752 63.7634 92.8373 64.1154 93.008C64.4727 93.1733 64.79 93.4053 65.0674 93.704V89.216H66.4914ZM73.2825 97.352C72.6265 97.3733 72.0665 97.4267 71.6025 97.512C71.1438 97.592 70.7678 97.6987 70.4745 97.832C70.1865 97.9653 69.9758 98.1227 69.8425 98.304C69.7145 98.4853 69.6505 98.688 69.6505 98.912C69.6505 99.1253 69.6852 99.3093 69.7545 99.464C69.8238 99.6187 69.9172 99.7467 70.0345 99.848C70.1572 99.944 70.2985 100.016 70.4585 100.064C70.6238 100.107 70.7998 100.128 70.9865 100.128C71.2372 100.128 71.4665 100.104 71.6745 100.056C71.8825 100.003 72.0772 99.928 72.2585 99.832C72.4452 99.736 72.6212 99.6213 72.7865 99.488C72.9572 99.3547 73.1225 99.2027 73.2825 99.032V97.352ZM68.6825 94.04C69.1305 93.608 69.6132 93.2853 70.1305 93.072C70.6478 92.8587 71.2212 92.752 71.8505 92.752C72.3038 92.752 72.7065 92.8267 73.0585 92.976C73.4105 93.1253 73.7065 93.3333 73.9465 93.6C74.1865 93.8667 74.3678 94.1893 74.4905 94.568C74.6132 94.9467 74.6745 95.3627 74.6745 95.816V101H74.0425C73.9038 101 73.7972 100.979 73.7225 100.936C73.6478 100.888 73.5892 100.797 73.5465 100.664L73.3865 99.896C73.1732 100.093 72.9652 100.269 72.7625 100.424C72.5598 100.573 72.3465 100.701 72.1225 100.808C71.8985 100.909 71.6585 100.987 71.4025 101.04C71.1518 101.099 70.8718 101.128 70.5625 101.128C70.2478 101.128 69.9518 101.085 69.6745 101C69.3972 100.909 69.1545 100.776 68.9465 100.6C68.7438 100.424 68.5812 100.203 68.4585 99.936C68.3412 99.664 68.2825 99.344 68.2825 98.976C68.2825 98.656 68.3705 98.3493 68.5465 98.056C68.7225 97.7573 69.0078 97.4933 69.4025 97.264C69.7972 97.0347 70.3118 96.848 70.9465 96.704C71.5812 96.5547 72.3598 96.4693 73.2825 96.448V95.816C73.2825 95.1867 73.1465 94.712 72.8745 94.392C72.6025 94.0667 72.2052 93.904 71.6825 93.904C71.3305 93.904 71.0345 93.9493 70.7945 94.04C70.5598 94.1253 70.3545 94.224 70.1785 94.336C70.0078 94.4427 69.8585 94.5413 69.7305 94.632C69.6078 94.7173 69.4852 94.76 69.3625 94.76C69.2665 94.76 69.1838 94.736 69.1145 94.688C69.0452 94.6347 68.9865 94.5707 68.9385 94.496L68.6825 94.04ZM81.7136 94.232C81.6496 94.3493 81.551 94.408 81.4176 94.408C81.3376 94.408 81.247 94.3787 81.1456 94.32C81.0443 94.2613 80.919 94.1973 80.7696 94.128C80.6256 94.0533 80.4523 93.9867 80.2496 93.928C80.047 93.864 79.807 93.832 79.5296 93.832C79.2896 93.832 79.0736 93.864 78.8816 93.928C78.6896 93.9867 78.5243 94.0693 78.3856 94.176C78.2523 94.2827 78.1483 94.408 78.0736 94.552C78.0043 94.6907 77.9696 94.8427 77.9696 95.008C77.9696 95.216 78.0283 95.3893 78.1456 95.528C78.2683 95.6667 78.4283 95.7867 78.6256 95.888C78.823 95.9893 79.047 96.08 79.2976 96.16C79.5483 96.2347 79.8043 96.3173 80.0656 96.408C80.3323 96.4933 80.591 96.5893 80.8416 96.696C81.0923 96.8027 81.3163 96.936 81.5136 97.096C81.711 97.256 81.8683 97.4533 81.9856 97.688C82.1083 97.9173 82.1696 98.1947 82.1696 98.52C82.1696 98.8933 82.103 99.24 81.9696 99.56C81.8363 99.8747 81.639 100.149 81.3776 100.384C81.1163 100.613 80.7963 100.795 80.4176 100.928C80.039 101.061 79.6016 101.128 79.1056 101.128C78.5403 101.128 78.0283 101.037 77.5696 100.856C77.111 100.669 76.7216 100.432 76.4016 100.144L76.7376 99.6C76.7803 99.5307 76.831 99.4773 76.8896 99.44C76.9483 99.4027 77.023 99.384 77.1136 99.384C77.2096 99.384 77.311 99.4213 77.4176 99.496C77.5243 99.5707 77.6523 99.6533 77.8016 99.744C77.9563 99.8347 78.143 99.9173 78.3616 99.992C78.5803 100.067 78.8523 100.104 79.1776 100.104C79.455 100.104 79.6976 100.069 79.9056 100C80.1136 99.9253 80.287 99.8267 80.4256 99.704C80.5643 99.5813 80.6656 99.44 80.7296 99.28C80.799 99.12 80.8336 98.9493 80.8336 98.768C80.8336 98.544 80.7723 98.36 80.6496 98.216C80.5323 98.0667 80.375 97.9413 80.1776 97.84C79.9803 97.7333 79.7536 97.6427 79.4976 97.568C79.247 97.488 78.9883 97.4053 78.7216 97.32C78.4603 97.2347 78.2016 97.1387 77.9456 97.032C77.695 96.92 77.471 96.7813 77.2736 96.616C77.0763 96.4507 76.9163 96.248 76.7936 96.008C76.6763 95.7627 76.6176 95.4667 76.6176 95.12C76.6176 94.8107 76.6816 94.5147 76.8096 94.232C76.9376 93.944 77.1243 93.6933 77.3696 93.48C77.615 93.2613 77.9163 93.088 78.2736 92.96C78.631 92.832 79.039 92.768 79.4976 92.768C80.031 92.768 80.5083 92.8533 80.9296 93.024C81.3563 93.1893 81.7243 93.4187 82.0336 93.712L81.7136 94.232Z" fill="black"/>
<path d="M84.742 43.2154C84.742 19.3433 66.3198 0 43.5992 0C20.8785 0 2.4563 19.3433 2.4563 43.2154C2.4563 46.3625 2.76334 49.4328 3.37741 52.3497H83.7442C84.3582 49.4328 84.742 46.3625 84.742 43.2154Z" fill="#8EC044"/>
<path d="M79.3689 55.3598C79.3689 63.1125 63.4798 69.33 43.8295 69.33C24.1792 69.33 8.29004 63.1125 8.29004 55.3598C8.29004 47.6071 24.1792 41.3896 43.8295 41.3896C63.4798 41.3896 79.3689 47.6071 79.3689 55.3598Z" fill="#646363"/>
<path d="M87.6589 48.5282C87.6589 58.8139 68.7762 66.7969 44.0598 66.7969C19.3433 66.7969 0.153564 58.8139 0.153564 48.5282C0.153564 38.2425 19.3433 29.5687 44.0598 29.5687C68.7762 29.492 87.6589 38.2425 87.6589 48.5282Z" fill="url(#paint0_linear)"/>
<path d="M43.5992 68.0251C19.113 68.0251 0 59.1978 0 48.5283C0 37.8588 19.113 29.4153 43.5992 29.4153C68.0853 29.4153 87.9659 38.0891 87.9659 48.7586C87.8891 59.3513 68.0085 68.0251 43.5992 68.0251ZM44.0597 30.1829C20.2644 30.1829 0.921109 38.2426 0.921109 48.1445C0.921109 58.0464 20.2644 66.1061 44.0597 66.1061C67.855 66.1061 87.1983 58.0464 87.1983 48.1445C87.1983 38.2426 67.855 30.1829 44.0597 30.1829Z" fill="url(#paint1_linear)"/>
<path d="M73.3049 48.5284C73.3049 55.2832 60.1791 60.7331 44.0597 60.7331C27.9403 60.7331 14.8145 55.2832 14.8145 48.5284C14.8145 41.7736 27.9403 36.3237 44.0597 36.3237C60.1791 36.4005 73.3049 41.8504 73.3049 48.5284Z" fill="url(#paint2_linear)"/>
<path d="M44.0597 61.5774C26.8657 61.5774 12.8955 55.7437 12.8955 48.6051C12.8955 41.4665 26.8657 35.6328 44.0597 35.6328C61.2537 35.6328 75.2239 41.4665 75.2239 48.6051C75.2239 55.7437 61.2537 61.5774 44.0597 61.5774ZM44.0597 37.168C29.0149 37.168 16.7335 42.3108 16.7335 48.5283C16.7335 54.8226 29.0149 59.8887 44.0597 59.8887C59.1045 59.9654 71.3859 54.8226 71.3859 48.5283C71.3859 42.3108 59.1045 37.168 44.0597 37.168Z" fill="url(#paint3_linear)"/>
<path d="M19.0362 33.7137C19.9573 31.718 19.1897 27.573 22.7206 28.0336C23.4115 31.411 25.1769 33.7905 27.1727 30.8737C28.7846 28.5709 29.7057 25.5005 33.3902 26.1146C34.388 28.2638 35.8465 31.2574 39.0703 29.7223C41.2196 28.6476 41.1428 25.347 44.7505 26.1146C46.2089 28.7244 41.1428 29.7223 43.1386 31.718C44.5202 33.0997 46.7462 30.2596 47.8976 29.1082C48.8955 28.1103 52.887 25.8075 53.0405 28.6476C53.194 30.6434 49.2025 31.7948 53.8848 33.1764C57.1855 34.0975 57.5693 30.8737 60.4094 29.8758C61.7143 29.4152 67.855 28.2638 66.3198 31.4877C65.3987 33.3299 61.0234 31.718 60.4094 34.9419C59.7185 38.7031 63.0192 37.0911 64.9381 36.0933C67.2409 34.9419 71.0789 32.3321 73.9957 34.0975C78.678 36.9376 71.8465 37.7052 70.6183 38.9334C66.3966 43.1551 80.0597 40.315 76.6055 46.3022C74.6865 49.6029 72.614 46.5325 70.6183 46.3022C69.3134 46.1487 68.7761 46.1487 67.7782 47.1466C66.3966 48.5282 68.9296 49.4493 69.8507 50.7542C71.1556 52.6732 69.8507 55.6668 67.2409 55.0528C64.4008 54.4387 65.3987 50.4472 63.1727 49.4493C62.5586 49.2191 62.2516 49.0655 61.5607 49.1423C61.1769 51.0613 62.3283 52.6732 62.3283 54.4387C61.5607 58.4302 59.9488 54.1316 58.4136 53.3641C55.5735 51.9824 57.5693 58.7372 52.1961 58.1999C46.516 57.5858 40.8358 51.6754 35.2324 51.6754C31.0874 51.6754 27.0192 51.3683 23.258 49.5261C19.4968 47.6071 16.4264 44.46 12.742 42.3875C10.7462 41.2361 7.21531 38.0122 10.1322 35.7862C12.742 33.637 17.194 37.8587 19.0362 33.7137Z" fill="url(#paint4_linear)"/>
<path d="M41.3733 29.7991C40.0684 30.3364 38.8403 31.7948 38.1495 33.4835C37.3819 35.1722 36.9981 37.2447 37.0748 39.3172C37.0748 41.3897 37.5354 43.4622 38.3797 45.1509C39.2241 46.8396 40.6057 48.1445 41.9874 48.5283C40.9895 47.5304 40.2987 46.1488 39.9149 44.6136C39.5311 43.0016 39.3008 41.2362 39.3008 39.3172C39.3008 37.3982 39.4544 35.6328 39.7614 34.0208C39.9917 32.3321 40.4522 30.8737 41.3733 29.7991Z" fill="#2C6B2E"/>
<path d="M31.7784 29.4921C31.0876 30.3364 30.4735 31.5646 30.32 33.023C30.0897 34.4814 30.32 36.0933 30.9341 37.6285C32.1622 40.7756 34.5418 42.7714 36.6143 43.6157C35.4629 41.6968 34.0812 39.4707 33.0833 36.7842C31.932 34.2511 31.6249 31.7181 31.7784 29.4921Z" fill="#2C6B2E"/>
<path d="M22.4137 31.4878C21.9532 32.4857 21.6461 33.7906 21.9532 35.3257C22.2602 36.7842 23.1813 38.3193 24.6397 39.394C26.0982 40.3918 27.7101 40.8524 29.1685 40.9292C30.627 40.9292 31.9319 40.5454 32.853 40.008C30.7037 39.7778 28.0939 39.1637 25.9447 37.6285C24.87 36.8609 24.1024 35.8631 23.4884 34.8652C22.951 33.7138 22.644 32.5624 22.4137 31.4878Z" fill="#2C6B2E"/>
<path d="M11.8977 38.5496C13.4329 38.8566 14.9681 39.3939 16.58 40.315C18.1919 41.2361 19.7271 42.4643 21.5693 43.6924C23.4116 44.9206 25.5608 45.9184 27.7101 45.9952C29.7826 46.1487 31.548 45.4579 32.9297 44.767C31.3945 44.767 29.7058 44.8438 27.9404 44.3832C26.2517 43.9227 24.563 43.0016 22.7975 41.8502C21.032 40.6988 19.1898 39.4707 17.2708 38.8566C15.2751 38.1658 13.3561 38.1658 11.8977 38.5496Z" fill="#2C6B2E"/>
<path d="M43.062 42.7714C43.5226 42.9249 44.1366 42.7714 44.5972 42.3876C45.1345 42.0038 45.4415 41.4664 45.7486 40.8524C46.2859 39.701 46.5162 38.3961 46.6697 37.1679C47.0535 34.7117 47.2838 32.7927 48.7422 31.411C48.2816 31.4878 47.7443 31.5645 47.207 31.8716C46.6697 32.1786 46.2091 32.5624 45.8253 33.0997C45.0577 34.1743 44.5972 35.4792 44.4437 36.7841C44.2134 38.0891 44.2134 39.3172 44.1366 40.3151C44.0599 41.4664 43.9064 42.3108 43.062 42.7714Z" fill="#29662C"/>
<path d="M47.0535 44.5368C48.5886 44.7671 50.5844 44.2297 52.2731 43.0016C53.9618 41.7735 55.4202 40.008 56.6484 38.1658C57.8765 36.4003 59.0279 34.7116 60.3328 33.4067C61.6377 32.1018 63.0961 31.1039 64.3243 30.1061C62.7891 30.4131 61.0236 30.9504 59.2582 32.1018C59.0279 32.2553 58.7976 32.4089 58.6441 32.5624C58.4138 32.7159 58.2603 32.9462 58.03 33.0997C57.5695 33.4835 57.2624 33.8673 56.8786 34.2511C56.111 35.0954 55.497 35.9398 54.8061 36.8609C54.1921 37.782 53.6547 38.7031 53.0407 39.4707C52.4266 40.315 51.8893 41.0059 51.1985 41.6967C49.8936 43.0784 48.5119 44.0762 47.0535 44.5368Z" fill="#29662C"/>
<path d="M49.5864 44.153C51.1984 44.6903 53.0406 45.2276 55.2666 45.3044C56.3412 45.3811 57.5694 45.2276 58.7975 44.8438C60.0257 44.46 61.177 43.8459 62.1749 43.0784C64.2474 41.5432 65.7058 39.8545 67.241 38.4728C68.0086 37.782 68.6994 37.2447 69.5438 36.7073C70.3114 36.2468 71.1557 35.9398 71.9233 35.7095C71.079 35.6327 70.1579 35.6327 69.16 35.863C68.1621 36.0933 67.241 36.5538 66.2431 37.1679C64.4009 38.3193 62.7122 39.9312 60.87 41.2361C57.4159 44.153 52.9638 43.7692 49.5864 44.153Z" fill="#1F5322"/>
<path d="M60.8699 46.7628C62.5586 45.9953 64.6311 44.9206 67.0874 44.2298C69.5436 43.539 71.8464 43.3855 73.6119 43.9228C72.921 43.3855 71.8464 42.9249 70.6183 42.8481C69.3901 42.6946 68.0852 42.8481 66.7803 43.2319C64.1705 43.9228 62.1748 45.4579 60.8699 46.7628Z" fill="#1B4D1F"/>
<path d="M68.2388 47.0698C67.548 47.0698 67.0874 47.1466 67.0874 47.2233C67.0874 47.3001 67.548 47.3001 68.2388 47.3769C68.9296 47.3769 69.3902 47.3001 69.3902 47.2233C69.3902 47.1466 68.9296 47.0698 68.2388 47.0698Z" fill="#1F5322"/>
<path d="M8.90405 45.6882C8.90405 45.6882 8.90405 46.7628 10.5928 47.6839C12.2815 48.605 12.2815 48.6051 12.2815 48.6051C12.2815 48.6051 10.9765 50.6775 12.0512 52.5965C13.1258 54.5155 13.8166 54.8225 16.887 56.281L17.8081 56.3577C17.8081 56.3577 19.3433 59.121 22.7974 59.8119C26.2516 60.5027 26.6354 60.0421 26.6354 60.0421C26.6354 60.0421 28.8614 61.5773 31.855 62.1146C34.8486 62.652 34.8486 62.1146 34.8486 62.1146C34.8486 62.1146 35.3092 63.0358 38.5331 63.1893C41.7569 63.4196 43.3689 63.4195 45.2111 62.7287C45.2111 62.7287 47.4371 63.8033 50.8913 63.1893C54.3454 62.4984 56.9552 60.733 56.9552 60.733C56.9552 60.733 57.8763 61.5006 59.1812 61.8076C60.4862 62.1146 62.7122 61.7309 63.71 61.5006C63.71 61.5006 67.4712 61.8076 69.2367 61.4238C71.0021 60.9633 77.0661 59.6584 74.0725 54.362L73.3049 53.0571C73.3049 53.0571 78.371 53.3641 80.7505 51.9824C83.0533 50.524 84.742 45.9952 80.2132 43.539C75.6844 41.0827 24.9467 41.7735 24.9467 41.7735C24.9467 41.7735 8.98081 45.2276 8.90405 45.6882Z" fill="#B2B2B2"/>
<path d="M58.03 48.4515C60.256 48.9121 64.1708 53.5944 63.6334 56.588C60.6398 56.281 60.4096 51.0614 58.8744 48.9889L58.03 48.4515Z" fill="#1B4D1F"/>
<path d="M54.8828 34.3279C49.9702 33.8674 50.1237 36.0166 48.6653 37.3983C46.6695 39.2405 44.9041 37.2447 44.5203 40.0848C44.0597 43.3087 46.5928 46.1488 51.8892 48.2981C55.4968 49.7565 58.7207 48.1445 60.9467 48.0678C62.4052 46.4558 65.322 44.8439 63.7868 41.313C62.0214 37.0912 59.4115 34.7885 54.8828 34.3279Z" fill="#BE1622"/>
<path d="M54.9596 34.5582C50.8146 34.4814 50.8146 36.0934 49.5097 37.168C47.6675 38.7032 45.6718 37.7053 45.1345 39.8546C44.5204 42.3109 47.821 45.458 52.1963 46.8396C55.8807 47.991 58.9511 46.5326 61.3306 46.3023C62.7123 44.9974 64.6313 43.232 63.5566 40.6989C62.3285 37.5518 58.7976 34.6349 54.9596 34.5582Z" fill="url(#paint5_radial)"/>
<path d="M59.1814 45.3043C59.1814 45.3043 57.416 46.0719 54.9597 45.9184C51.4287 45.6881 47.6676 43.2319 47.0535 41.1594C46.4394 39.0869 50.4309 38.0122 51.1217 40.2382C51.4287 41.3896 50.4309 41.0058 51.659 42.234C52.8104 43.4621 54.4991 43.8459 57.3392 43.3854C60.1793 42.9248 59.8722 44.9206 59.1814 45.3043Z" fill="url(#paint6_linear)"/>
<path d="M48.7421 40.3918C49.2794 40.4685 49.8167 40.6988 49.8935 40.9291C49.9702 41.1593 49.5864 41.3129 49.0491 41.3129C48.5118 41.3129 47.9745 41.0058 47.8977 40.7755C47.821 40.4685 48.2048 40.315 48.7421 40.3918Z" fill="#F6AA00"/>
<path d="M49.6633 41.6967C50.1238 41.62 50.6612 41.7735 50.8914 42.0038C51.045 42.234 50.8147 42.4643 50.3541 42.6178C49.8936 42.6946 49.3563 42.5411 49.126 42.3108C48.9725 42.0038 49.2027 41.7735 49.6633 41.6967Z" fill="#F6AA00"/>
<path d="M51.5823 43.232C51.8894 43.0017 52.3499 43.0017 52.657 43.1552C52.964 43.3855 52.964 43.6925 52.657 43.9228C52.3499 44.1531 51.8894 44.1531 51.5823 43.9996C51.2753 43.846 51.2753 43.4622 51.5823 43.232Z" fill="#F6AA00"/>
<path d="M53.3476 44.0762C53.5011 43.7692 53.8849 43.6157 54.2687 43.7692C54.5757 43.9227 54.7292 44.3065 54.5757 44.6136C54.4222 44.9206 54.0384 45.0741 53.6546 44.9206C53.3476 44.7671 53.1941 44.3833 53.3476 44.0762Z" fill="#F6AA00"/>
<path d="M54.9595 44.6135C54.9595 44.3065 55.2665 44.0762 55.5735 44.1529C55.8806 44.2297 56.1876 44.5367 56.1876 44.9205C56.1876 45.2276 55.8806 45.4578 55.5735 45.3811C55.1898 45.2276 54.9595 44.9205 54.9595 44.6135Z" fill="#F6AA00"/>
<path d="M57.0321 44.5368C56.8786 44.153 56.9553 43.9227 57.2624 43.9227C57.5694 43.9227 57.9532 44.2298 58.1067 44.5368C58.2602 44.9206 58.1835 45.1509 57.8764 45.1509C57.5694 45.2276 57.1856 44.9206 57.0321 44.5368Z" fill="#F6AA00"/>
<path d="M50.354 42.8481C50.7378 42.6946 51.1984 42.7713 51.3519 42.9248C51.5054 43.0784 51.3519 43.3086 50.9681 43.4622C50.5843 43.6157 50.1237 43.5389 49.9702 43.3854C49.8167 43.1551 49.9702 42.9248 50.354 42.8481Z" fill="#F6AA00"/>
<path d="M62.3284 43.0783C62.3284 43.0783 62.6355 41.927 62.4052 40.3918C62.0982 38.089 58.7208 35.7862 55.8807 35.4792C53.0406 35.2489 51.5822 38.0122 54.6525 38.2425C56.1877 38.396 55.6504 37.7052 57.3391 38.396C59.0278 39.0869 59.1046 40.008 58.951 42.0805C58.7975 43.1551 59.9489 44.153 62.3284 43.0783Z" fill="url(#paint7_linear)"/>
<path d="M54.806 36.7073C54.8827 37.0911 55.1898 37.3982 55.4968 37.3982C55.8038 37.3982 56.0341 37.1679 56.0341 36.7841C55.9574 36.4003 55.6503 36.0933 55.3433 36.0933C54.9595 36.0933 54.7292 36.3235 54.806 36.7073Z" fill="#F6AA00"/>
<path d="M56.5716 37.1679C56.4948 37.4749 56.6483 37.8587 56.9554 37.9355C57.2624 38.0122 57.6462 37.8587 57.7229 37.5517C57.7997 37.2446 57.6462 36.8609 57.3392 36.7841C57.0321 36.6306 56.7251 36.8609 56.5716 37.1679Z" fill="#F6AA00"/>
<path d="M58.7207 38.3194C58.4137 38.5497 58.3369 38.8567 58.6439 39.087C58.8742 39.2405 59.4115 39.2405 59.7186 39.0102C60.0256 38.7799 60.1024 38.4729 59.7953 38.2426C59.4883 38.0891 59.0277 38.0891 58.7207 38.3194Z" fill="#F6AA00"/>
<path d="M59.8721 39.3939C59.4116 39.5474 59.2581 39.7777 59.4116 40.008C59.6419 40.2382 60.1024 40.315 60.563 40.1615C61.0235 40.008 61.177 39.7777 61.0235 39.5474C60.7932 39.3939 60.2559 39.3171 59.8721 39.3939Z" fill="#F6AA00"/>
<path d="M60.5629 40.4686C60.1024 40.4686 59.8721 40.6989 59.9489 40.9291C60.0256 41.1594 60.4862 41.3129 60.9467 41.2362C61.4073 41.2362 61.6376 41.0059 61.5608 40.7756C61.4073 40.5453 61.0235 40.3918 60.5629 40.4686Z" fill="#F6AA00"/>
<path d="M60.4863 41.8502C60.0257 41.7734 59.5652 41.8502 59.5652 42.0805C59.5652 42.3107 59.949 42.541 60.4095 42.6178C60.8701 42.6945 61.3306 42.6178 61.3306 42.4643C61.4074 42.1572 60.9469 41.927 60.4863 41.8502Z" fill="#F6AA00"/>
<path d="M58.1067 37.5516C57.9532 37.7819 57.9532 38.089 58.1835 38.1657C58.4138 38.2425 58.7208 38.1657 58.9511 37.8587C59.1046 37.6284 59.1046 37.3214 58.8743 37.2446C58.6441 37.1678 58.337 37.2446 58.1067 37.5516Z" fill="#F6AA00"/>
<path d="M62.0215 47.6071C66.0129 47.1465 71.7699 52.1359 71.0023 56.3576C68.7763 57.3555 65.0918 47.3 60.3328 47.6071H62.0215Z" fill="#1B4D1F"/>
<path d="M44.904 35.3257C40.2985 32.6392 38.226 34.7884 35.2324 35.4793C31.1642 36.4004 30.1663 33.8673 26.7121 36.3236C22.7207 39.1637 22.2601 45.3812 25.4072 49.8332C28.0938 53.5944 33.6205 53.5176 36.5373 54.5923C39.7612 53.7479 44.3667 52.5965 46.5927 48.5283C49.2025 43.6925 49.1258 37.782 44.904 35.3257Z" fill="#BE1622"/>
<path d="M44.0597 35.7862C39.838 33.4067 37.8422 35.3256 35.0789 35.9397C31.3177 36.7841 30.3966 34.4813 27.1727 36.7073C23.4883 39.2404 23.0277 44.767 25.9446 48.6817C28.4009 52.0591 33.5437 51.9056 36.2303 52.9035C39.2239 52.1359 43.5224 51.138 45.5949 47.4536C48.128 43.2318 48.0512 37.9355 44.0597 35.7862Z" fill="url(#paint8_radial)"/>
<path d="M35.1556 50.7543C35.1556 50.7543 32.3155 50.7543 29.936 49.2191C26.5586 47.0698 25.6375 42.0805 27.4797 39.3172C29.3987 36.5538 34.9253 37.3982 32.8528 40.3918C31.7782 41.927 31.2409 40.9291 30.9338 43.0016C30.6268 45.0741 31.9317 46.4558 35.5394 47.4536C39.1471 48.4515 36.3837 50.6775 35.1556 50.7543Z" fill="url(#paint9_linear)"/>
<path d="M30.3198 39.3173C30.8572 39.6243 31.0874 40.2384 30.8572 40.5454C30.6269 40.8524 30.0128 40.8524 29.5523 40.5454C29.0149 40.2384 28.7847 39.7011 29.0149 39.3173C29.1685 38.9335 29.7825 38.9335 30.3198 39.3173Z" fill="#F6AA00"/>
<path d="M29.5522 41.313C30.1663 41.4665 30.5501 41.9271 30.4733 42.3109C30.3965 42.6947 29.7825 42.8482 29.1684 42.6947C28.5543 42.5412 28.1705 42.0806 28.2473 41.6968C28.4008 41.3898 29.0149 41.1595 29.5522 41.313Z" fill="#F6AA00"/>
<path d="M29.7057 44.2298C30.3198 44.153 30.8571 44.3833 30.9338 44.7671C31.0106 45.1509 30.55 45.5347 29.936 45.6882C29.3219 45.765 28.7846 45.5347 28.7078 45.1509C28.6311 44.7671 29.0916 44.3066 29.7057 44.2298Z" fill="#F6AA00"/>
<path d="M30.5499 46.1488C31.0872 45.8418 31.7013 45.9185 31.8548 46.3023C32.0084 46.6861 31.7013 47.1467 31.164 47.4537C30.6267 47.7607 30.0126 47.684 29.8591 47.3002C29.7056 46.9164 30.0126 46.4558 30.5499 46.1488Z" fill="#F6AA00"/>
<path d="M31.548 47.6071C31.9318 47.2233 32.4692 47.1466 32.7762 47.3768C33.0065 47.6071 32.9297 48.1444 32.4692 48.5282C32.0854 48.912 31.548 48.9888 31.241 48.7585C31.0107 48.5282 31.1642 47.9909 31.548 47.6071Z" fill="#F6AA00"/>
<path d="M33.8507 48.6818C34.081 48.1445 34.5416 47.8374 34.8486 48.0677C35.1556 48.2212 35.2324 48.7585 34.9254 49.2959C34.6951 49.8332 34.2345 50.0634 33.9275 49.9099C33.6205 49.7564 33.5437 49.2191 33.8507 48.6818Z" fill="#F6AA00"/>
<path d="M28.9382 43.0784C29.4755 43.1552 29.936 43.3854 29.936 43.6925C29.936 43.9995 29.4755 44.153 28.8614 44.0763C28.3241 43.9995 27.8635 43.7692 27.8635 43.4622C27.9403 43.1552 28.4008 43.0016 28.9382 43.0784Z" fill="#F6AA00"/>
<path d="M41.2195 49.7564C41.2195 49.7564 42.9082 48.605 44.6737 46.6093C47.2067 43.6925 46.5159 39.1637 43.8293 37.3215C41.1427 35.4792 36.1534 37.9355 39.0702 39.9313C40.5287 40.9291 40.7589 39.8545 41.68 41.5432C42.6012 43.2319 41.5265 44.3833 38.7632 46.7628C37.4583 47.991 37.4583 49.8332 41.2195 49.7564Z" fill="url(#paint10_linear)"/>
<path d="M41.2194 38.1659C40.8356 38.6264 40.7589 39.1637 41.0659 39.394C41.373 39.6243 41.9103 39.394 42.2941 39.0102C42.6779 38.5497 42.7546 38.0123 42.4476 37.7821C42.1405 37.5518 41.6032 37.7821 41.2194 38.1659Z" fill="#F6AA00"/>
<path d="M42.5244 39.7777C41.9871 40.0848 41.7568 40.6221 41.9871 40.9291C42.2174 41.2361 42.8315 41.2361 43.292 40.9291C43.8293 40.6221 44.0596 40.0848 43.8293 39.7777C43.6758 39.3939 43.0617 39.3939 42.5244 39.7777Z" fill="#F6AA00"/>
<path d="M43.2919 42.2341C42.6778 42.3109 42.2173 42.6947 42.294 43.0785C42.3708 43.4623 42.9081 43.6158 43.5222 43.539C44.1362 43.4623 44.5968 43.0785 44.52 42.6947C44.52 42.3876 43.906 42.1574 43.2919 42.2341Z" fill="#F6AA00"/>
<path d="M43.1384 44.1531C42.5243 44.0764 41.987 44.3067 41.9102 44.6904C41.8335 45.0742 42.294 45.3813 42.9081 45.458C43.5222 45.5348 44.0595 45.3045 44.1362 44.9207C44.213 44.6137 43.7524 44.2299 43.1384 44.1531Z" fill="#F6AA00"/>
<path d="M42.6781 45.765C42.1407 45.5347 41.6034 45.6115 41.4499 45.9185C41.2964 46.2256 41.6034 46.6093 42.1408 46.8396C42.6781 47.0699 43.2154 46.9931 43.3689 46.6861C43.4457 46.3791 43.1386 45.9185 42.6781 45.765Z" fill="#F6AA00"/>
<path d="M40.8357 47.3002C40.4519 46.9164 39.9146 46.8397 39.6843 47.07C39.4541 47.3002 39.5308 47.7608 39.9914 48.1446C40.3752 48.5284 40.9125 48.6051 41.1428 48.3749C41.373 48.2213 41.2963 47.684 40.8357 47.3002Z" fill="#F6AA00"/>
<path d="M43.6759 41.006C43.1386 41.2363 42.8316 41.5433 42.9851 41.7736C43.0618 42.0039 43.5991 42.0039 44.1365 41.8503C44.6738 41.6201 44.9808 41.313 44.8273 41.0827C44.6738 40.8525 44.2132 40.7757 43.6759 41.006Z" fill="#F6AA00"/>
<path d="M32.3923 35.9398C32.3923 35.9398 35.9232 39.8545 35.7697 41.4664C35.7697 41.4664 34.9254 37.2447 37.2282 35.0187C37.3049 35.0187 34.7719 37.0912 32.3923 35.9398Z" fill="#FAC188"/>
<path d="M34.5416 40.5454C33.9275 40.6222 33.2367 40.8524 32.6226 41.4665C32.3156 41.7736 32.0853 42.1574 31.855 42.6947C31.7015 43.232 31.7015 43.7693 31.9318 44.3066C32.3156 45.3045 33.0832 45.9185 33.774 46.3023C34.4648 46.6861 35.1557 46.8397 35.7698 46.9164C35.386 46.3791 34.9254 45.9185 34.5416 45.3812C34.0811 44.8439 33.6973 44.3066 33.467 43.7693C33.0064 42.7714 33.8508 41.5433 34.5416 40.5454Z" fill="#FCCFA3"/>
<path d="M38.3796 40.0848C38.7634 41.0059 39.3775 42.0806 39.3775 43.0017C39.3775 43.4622 39.3007 43.846 39.1472 44.3833C39.0705 44.6136 38.917 44.8439 38.8402 45.0742C38.6867 45.3045 38.6099 45.5347 38.5332 45.765C38.7634 45.6882 39.0705 45.6115 39.3007 45.5347C39.6078 45.3812 39.8381 45.2277 40.1451 44.9974C40.6824 44.5369 41.0662 43.6925 41.0662 42.8482C40.9894 41.9271 40.5289 41.2362 39.9916 40.7757C39.531 40.3919 38.917 40.1616 38.3796 40.0848Z" fill="#FCCFA3"/>
<path d="M69.4668 29.4152C63.8634 28.8779 64.0937 31.2574 62.4817 32.8693C60.2557 35.0186 58.26 32.7158 57.7994 35.8629C57.2621 39.5474 60.179 42.6945 66.1662 45.1508C70.2344 46.8395 73.8421 44.9973 76.3751 44.9205C78.0638 43.155 81.3645 41.2361 79.599 37.2446C77.6033 32.4855 74.6097 29.9525 69.4668 29.4152Z" fill="#BE1622"/>
<path d="M69.6206 29.6455C64.9383 29.492 64.9383 31.3342 63.4798 32.6391C61.4074 34.3278 59.1813 33.2532 58.5673 35.6327C57.8764 38.396 61.5609 42.0037 66.5502 43.5389C70.772 44.8438 74.2261 43.1551 76.8359 42.9248C78.3711 41.4664 80.5971 39.4706 79.369 36.5538C77.9106 33.0229 73.9191 29.7222 69.6206 29.6455Z" fill="url(#paint11_radial)"/>
<path d="M74.3794 41.8501C74.3794 41.8501 72.3837 42.7713 69.6204 42.541C65.6289 42.2339 61.4071 39.4706 60.6395 37.0911C59.9487 34.7883 64.4775 33.5602 65.2451 36.0932C65.6289 37.3981 64.4775 36.9376 65.7824 38.3192C67.0873 39.7009 69.0063 40.1614 72.2302 39.6241C75.454 39.1636 75.2238 41.3896 74.3794 41.8501Z" fill="url(#paint12_linear)"/>
<path d="M62.5585 36.2467C63.1726 36.3235 63.7099 36.5538 63.8634 36.8608C63.9402 37.1679 63.5564 37.3214 62.9423 37.2446C62.3282 37.1679 61.7909 36.9376 61.6374 36.6305C61.5607 36.4003 61.9445 36.17 62.5585 36.2467Z" fill="#F6AA00"/>
<path d="M63.5563 37.7051C64.0936 37.6284 64.7077 37.7819 64.9379 38.0122C65.1682 38.3192 64.8612 38.5495 64.3239 38.703C63.7865 38.7798 63.1725 38.6263 62.9422 38.396C62.7887 38.0889 63.019 37.8587 63.5563 37.7051Z" fill="#F6AA00"/>
<path d="M65.7823 39.4706C66.1661 39.2403 66.7034 39.1635 67.0105 39.3938C67.3175 39.6241 67.3175 40.0079 67.0105 40.2382C66.6267 40.4684 66.0894 40.5452 65.7823 40.3149C65.3985 40.1614 65.4753 39.7776 65.7823 39.4706Z" fill="#F6AA00"/>
<path d="M67.7781 40.3917C67.9316 40.0079 68.3921 39.8544 68.7759 40.0846C69.1597 40.2382 69.3132 40.6987 69.1597 41.0057C69.0062 41.3895 68.5457 41.5431 68.1619 41.3895C67.7781 41.236 67.6245 40.7755 67.7781 40.3917Z" fill="#F6AA00"/>
<path d="M69.5437 41.0058C69.5437 40.622 69.8507 40.3917 70.2345 40.4684C70.6183 40.5452 70.9254 40.929 70.9254 41.3128C70.9254 41.6966 70.6183 41.9269 70.2345 41.8501C69.8507 41.7733 69.5437 41.3896 69.5437 41.0058Z" fill="#F6AA00"/>
<path d="M71.9231 41.0057C71.6929 40.622 71.8464 40.2382 72.1534 40.2382C72.4604 40.2382 72.921 40.5452 73.1513 40.929C73.3816 41.3128 73.228 41.6198 72.921 41.6966C72.5372 41.6966 72.1534 41.3895 71.9231 41.0057Z" fill="#F6AA00"/>
<path d="M64.4006 39.0101C64.8612 38.8565 65.3218 38.8566 65.4753 39.0868C65.6288 39.2403 65.4753 39.5474 65.0147 39.7009C64.5542 39.8544 64.0936 39.8544 63.8633 39.6241C63.7866 39.3939 63.9401 39.1636 64.4006 39.0101Z" fill="#F6AA00"/>
<path d="M77.9105 39.3172C77.9105 39.3172 78.2942 38.0123 77.9872 36.2468C77.6034 33.637 73.7655 31.0272 70.6183 30.7202C67.3945 30.4131 65.7058 33.5602 69.1599 33.8673C70.9254 34.0208 70.3113 33.33 72.2303 34.0976C74.1493 34.8651 74.226 35.9398 73.9957 38.3193C73.919 39.3939 75.3006 40.5453 77.9105 39.3172Z" fill="url(#paint13_linear)"/>
<path d="M69.3901 32.0251C69.4669 32.4089 69.7739 32.7927 70.1577 32.7927C70.5415 32.7927 70.7718 32.5624 70.695 32.1018C70.6182 31.718 70.3112 31.3342 69.9274 31.3342C69.6204 31.3342 69.3133 31.6413 69.3901 32.0251Z" fill="#F6AA00"/>
<path d="M71.4626 32.639C71.3091 33.0228 71.5394 33.4066 71.9232 33.4834C72.307 33.6369 72.6908 33.4066 72.8443 33.0228C72.9978 32.639 72.7675 32.2552 72.3837 32.1785C72 32.0249 71.5394 32.2552 71.4626 32.639Z" fill="#F6AA00"/>
<path d="M73.8422 33.944C73.4584 34.1743 73.4584 34.5581 73.7654 34.7884C74.0725 35.0187 74.6098 34.9419 74.9936 34.7116C75.3774 34.4813 75.3774 34.0975 75.0703 33.8673C74.7633 33.637 74.226 33.637 73.8422 33.944Z" fill="#F6AA00"/>
<path d="M75.0704 35.1722C74.6099 35.3257 74.3796 35.6327 74.6099 35.863C74.8401 36.0933 75.3775 36.17 75.9148 36.0165C76.3753 35.863 76.6056 35.556 76.3753 35.3257C76.1451 35.0954 75.6077 35.0186 75.0704 35.1722Z" fill="#F6AA00"/>
<path d="M75.9147 36.3235C75.3774 36.3235 75.0703 36.5538 75.2238 36.7841C75.3774 37.0144 75.8379 37.1679 76.3752 37.1679C76.9125 37.1679 77.2196 36.9376 77.0661 36.7073C76.9125 36.477 76.452 36.2468 75.9147 36.3235Z" fill="#F6AA00"/>
<path d="M75.838 37.8587C75.3006 37.782 74.8401 37.8587 74.8401 38.089C74.8401 38.3193 75.3006 38.5496 75.838 38.7031C76.3753 38.7799 76.8358 38.7031 76.8358 38.4728C76.8358 38.2425 76.3753 38.0123 75.838 37.8587Z" fill="#F6AA00"/>
<path d="M73.1512 33.0229C72.921 33.3299 72.9977 33.637 73.228 33.7905C73.4583 33.8673 73.8421 33.7137 74.0724 33.4835C74.3026 33.1764 74.2259 32.8694 73.9956 32.7159C73.7653 32.5623 73.3815 32.7159 73.1512 33.0229Z" fill="#F6AA00"/>
<path d="M61.6375 33.4835C61.6375 33.4835 66.9338 34.7884 68.0852 35.863C68.0852 35.863 64.324 33.4835 64.4008 31.3342C64.324 31.3342 64.017 33.4067 61.6375 33.4835Z" fill="#FAC188"/>
<path d="M66.4732 35.6327C66.0894 36.0165 65.8592 36.7841 66.0894 37.5517C66.3965 38.3193 67.1641 38.9333 67.8549 39.1636C69.3901 39.7009 70.8485 39.5474 71.8464 39.1636C70.8485 38.7031 69.5436 38.396 68.3154 37.9355C67.7014 37.7052 67.2408 37.3981 66.857 37.0911C66.6267 36.7073 66.4732 36.17 66.4732 35.6327Z" fill="#FCCFA3"/>
<path d="M68.8528 34.1743C69.6204 34.7116 70.6182 35.1721 71.4626 35.7094C71.9231 36.0165 72.2302 36.2468 72.5372 36.5538C72.8443 36.8608 72.9978 37.3214 73.1513 37.7819C73.3816 37.3981 73.6118 36.8608 73.4583 36.17C73.3048 35.5559 72.7675 34.9419 72.1534 34.5581C70.9253 33.7905 69.6971 33.8672 68.8528 34.1743Z" fill="#FCCFA3"/>
<path d="M73.2282 35.7095C67.8551 35.0954 68.0854 37.5517 66.4734 39.0869C64.3242 41.1594 62.4052 38.9333 61.9446 42.0805C61.3306 45.6881 64.0939 48.912 69.8508 51.4451C73.7655 53.1338 77.2197 51.3683 79.676 51.2916C81.2879 49.5261 84.5118 47.6839 82.8231 43.6157C80.9809 38.8566 78.1408 36.2468 73.2282 35.7095Z" fill="#BE1622"/>
<path d="M73.3049 35.863C68.7762 35.7095 68.7761 37.5517 67.3177 38.7799C65.322 40.4686 63.1727 39.3172 62.5587 41.7735C61.8678 44.5368 65.3988 48.1445 70.1578 49.7564C74.1493 51.0613 77.5267 49.4494 80.0597 49.2191C81.5949 47.7607 83.6674 45.7649 82.5928 42.8481C81.2879 39.3939 77.5267 36.0165 73.3049 35.863Z" fill="url(#paint14_radial)"/>
<path d="M77.8336 48.1445C77.8336 48.1445 75.9146 48.9888 73.2281 48.8353C69.3901 48.5283 65.3219 45.6882 64.631 43.3087C63.9402 40.9291 68.3155 39.7777 69.0831 42.3108C69.4669 43.6157 68.3155 43.1551 69.6204 44.5368C70.8485 45.9185 72.6908 46.379 75.8379 45.9185C78.9082 45.4579 78.6012 47.7607 77.8336 48.1445Z" fill="url(#paint15_linear)"/>
<path d="M66.4734 42.4643C67.0874 42.541 67.6247 42.7713 67.7015 43.0783C67.7783 43.3854 67.3945 43.5389 66.7804 43.4621C66.1663 43.3854 65.629 43.1551 65.5522 42.8481C65.5522 42.6178 65.936 42.3875 66.4734 42.4643Z" fill="#F6AA00"/>
<path d="M67.4712 43.9227C68.0085 43.8459 68.5458 43.9994 68.7761 44.2297C69.0064 44.5367 68.6993 44.767 68.2388 44.8438C67.7015 44.9205 67.1642 44.767 66.9339 44.5367C66.7036 44.3065 66.9339 44.0762 67.4712 43.9227Z" fill="#F6AA00"/>
<path d="M69.5436 45.7649C69.8507 45.5346 70.388 45.4578 70.7718 45.6881C71.0788 45.9184 71.0788 46.3022 70.695 46.5325C70.388 46.7627 69.8507 46.8395 69.4669 46.6092C69.2366 46.3789 69.2366 45.9951 69.5436 45.7649Z" fill="#F6AA00"/>
<path d="M71.4626 46.686C71.6162 46.3022 72.0767 46.1487 72.4605 46.3789C72.8443 46.5325 72.9978 46.993 72.8443 47.3001C72.6908 47.6838 72.2302 47.8374 71.8464 47.6071C71.4626 47.4536 71.3091 47.0698 71.4626 46.686Z" fill="#F6AA00"/>
<path d="M73.2281 47.3001C73.2281 46.9163 73.5352 46.686 73.919 46.7628C74.3028 46.8395 74.5331 47.2233 74.5331 47.6071C74.5331 47.9909 74.226 48.2212 73.8422 48.1444C73.4584 48.0677 73.1514 47.6839 73.2281 47.3001Z" fill="#F6AA00"/>
<path d="M75.4542 47.3001C75.3007 46.9163 75.3774 46.5325 75.6845 46.5325C75.9915 46.5325 76.4521 46.8395 76.6056 47.3001C76.7591 47.6839 76.6823 48.0677 76.3753 48.0677C76.0683 47.9909 75.6845 47.6839 75.4542 47.3001Z" fill="#F6AA00"/>
<path d="M68.2389 45.2276C68.6227 45.0741 69.16 45.1508 69.3135 45.3044C69.467 45.4579 69.3135 45.7649 68.9297 45.9184C68.5459 46.0719 68.0086 45.9952 67.8551 45.8417C67.6248 45.6114 67.8551 45.3811 68.2389 45.2276Z" fill="#F6AA00"/>
<path d="M81.2112 45.6881C81.2112 45.6881 81.595 44.46 81.3647 42.6178C81.0577 40.0079 77.3733 37.3214 74.3029 37.0143C71.2325 36.7073 69.5438 39.7777 72.9212 40.1615C74.6099 40.315 73.9959 39.6241 75.8381 40.3917C77.6803 41.1593 77.7571 42.234 77.5268 44.6135C77.3733 45.6881 78.6782 46.8395 81.2112 45.6881Z" fill="url(#paint16_linear)"/>
<path d="M73.0747 38.3193C73.1515 38.703 73.4585 39.0868 73.8423 39.1636C74.2261 39.2404 74.4564 38.9333 74.3796 38.4728C74.3029 38.089 73.9958 37.7052 73.612 37.6284C73.305 37.6284 73.0747 37.9355 73.0747 38.3193Z" fill="#F6AA00"/>
<path d="M75.0703 38.9333C74.9168 39.3171 75.1471 39.7009 75.4541 39.7777C75.8379 39.9312 76.2217 39.7009 76.2985 39.3171C76.452 38.9333 76.2217 38.5495 75.9147 38.4728C75.6077 38.3193 75.2239 38.5495 75.0703 38.9333Z" fill="#F6AA00"/>
<path d="M77.3731 40.2383C77.066 40.4685 76.9893 40.8523 77.2963 41.0826C77.6033 41.3129 78.0639 41.2361 78.4477 41.0059C78.8315 40.7756 78.8315 40.3918 78.5244 40.1615C78.2174 39.9312 77.6801 40.008 77.3731 40.2383Z" fill="#F6AA00"/>
<path d="M78.6014 41.4664C78.1409 41.6199 77.9106 41.9269 78.1409 42.1572C78.3712 42.3875 78.9085 42.4643 79.369 42.3107C79.8296 42.1572 80.0599 41.8502 79.8296 41.6199C79.5993 41.4664 79.062 41.3896 78.6014 41.4664Z" fill="#F6AA00"/>
<path d="M79.3691 42.6178C78.9085 42.6178 78.6015 42.8481 78.6783 43.0784C78.755 43.3086 79.2923 43.4621 79.7529 43.4621C80.2134 43.4621 80.5205 43.2319 80.4437 43.0016C80.2902 42.7713 79.8296 42.6178 79.3691 42.6178Z" fill="#F6AA00"/>
<path d="M79.2921 44.2297C78.7547 44.153 78.2942 44.2297 78.2942 44.46C78.2942 44.6903 78.678 44.9205 79.2153 45.0741C79.7526 45.1508 80.2132 45.0741 80.2132 44.8438C80.2132 44.6135 79.8294 44.3065 79.2921 44.2297Z" fill="#F6AA00"/>
<path d="M76.7592 39.3171C76.5289 39.6242 76.6056 39.9312 76.8359 40.0847C77.0662 40.1615 77.45 40.0847 77.6035 39.7777C77.8338 39.4706 77.757 39.1636 77.5267 39.0101C77.2965 38.9333 76.9127 39.0868 76.7592 39.3171Z" fill="#F6AA00"/>
<path d="M65.6289 39.7009C65.6289 39.7009 70.695 41.0826 71.7696 42.1572C71.7696 42.1572 68.162 39.7009 68.2387 37.6284C68.2387 37.5517 67.9317 39.6242 65.6289 39.7009Z" fill="#FAC188"/>
<path d="M70.2347 41.927C69.8509 42.3108 69.6206 43.0016 69.8509 43.7692C70.0812 44.5368 70.772 45.1509 71.5396 45.4579C73.0748 46.072 74.4565 45.8417 75.4543 45.5347C74.4565 45.0741 73.2283 44.7671 72.0769 44.3065C71.5396 44.0763 71.0023 43.7692 70.772 43.3854C70.3882 43.0016 70.2347 42.4643 70.2347 41.927Z" fill="#FCCFA3"/>
<path d="M72.5374 40.3917C73.3049 40.929 74.2261 41.3896 75.0704 41.9269C75.531 42.2339 75.838 42.4642 76.0683 42.7712C76.3753 43.0783 76.4521 43.5388 76.6056 43.9226C76.8359 43.5388 77.0661 43.0015 76.9126 42.3874C76.7591 41.7734 76.2985 41.1593 75.7612 40.7755C74.6098 40.1614 73.3817 40.1614 72.5374 40.3917Z" fill="#FCCFA3"/>
<path d="M65.0916 43.1551C59.1044 42.0038 59.1044 44.6136 57.1854 46.1488C54.5756 48.2212 52.6567 45.5347 51.8123 48.9121C50.8144 52.8268 53.6545 56.5112 59.872 59.8119C64.0938 62.0379 68.162 60.4259 70.9253 60.5795C72.9211 58.814 76.6822 57.1253 75.2238 52.5965C73.5351 47.3001 70.6183 44.2298 65.0916 43.1551Z" fill="#BE1622"/>
<path d="M65.2451 43.3086C60.179 42.6945 60.0255 44.6903 58.2601 45.8417C55.8805 47.4536 53.501 46.0719 52.6567 48.605C51.6588 51.5986 55.2665 55.8203 60.4861 57.9696C64.8614 59.8118 68.7761 58.3534 71.6929 58.3534C73.5351 56.9717 76.0682 55.0528 75.0703 51.7521C73.8422 47.8374 69.9274 43.9227 65.2451 43.3086Z" fill="url(#paint17_radial)"/>
<path d="M69.1599 57.0485C69.1599 57.0485 66.8571 57.8161 63.9403 57.3556C59.7185 56.6647 55.3433 53.2106 54.806 50.6008C54.2686 47.991 59.3347 47.1466 59.872 49.9867C60.1791 51.3684 58.9509 50.831 60.2558 52.443C61.5607 54.0549 63.5565 54.7458 67.0874 54.5155C70.6183 54.2084 70.081 56.6647 69.1599 57.0485Z" fill="url(#paint18_linear)"/>
<path d="M56.9552 49.7565C57.6461 49.8332 58.1834 50.217 58.2602 50.5241C58.3369 50.8311 57.8764 50.9846 57.1855 50.9078C56.4947 50.8311 55.9574 50.4473 55.8806 50.1403C55.8039 49.7565 56.3412 49.6029 56.9552 49.7565Z" fill="#F6AA00"/>
<path d="M57.8763 51.4451C58.4904 51.3683 59.1045 51.5986 59.3348 51.9056C59.565 52.2126 59.258 52.5197 58.6439 52.5197C58.0299 52.5964 57.4158 52.3662 57.1855 52.0591C57.032 51.8289 57.339 51.5218 57.8763 51.4451Z" fill="#F6AA00"/>
<path d="M60.1025 53.5943C60.4863 53.364 61.1004 53.364 61.4074 53.6711C61.7144 53.9781 61.7144 54.3619 61.2539 54.5922C60.8701 54.8225 60.256 54.8225 59.8722 54.5154C59.6419 54.2852 59.7187 53.8246 60.1025 53.5943Z" fill="#F6AA00"/>
<path d="M62.1748 54.8226C62.4051 54.4388 62.9424 54.362 63.3262 54.5155C63.71 54.7458 63.8635 55.2064 63.6332 55.5902C63.403 55.974 62.8656 56.0507 62.4819 55.8972C62.0213 55.6669 61.9445 55.1296 62.1748 54.8226Z" fill="#F6AA00"/>
<path d="M64.017 55.5901C64.0937 55.2063 64.4008 54.976 64.7846 55.1295C65.1684 55.283 65.4754 55.6668 65.3986 56.1274C65.3219 56.5112 65.0148 56.7414 64.631 56.5879C64.2472 56.4344 63.9402 56.0506 64.017 55.5901Z" fill="#F6AA00"/>
<path d="M66.5502 55.8203C66.3967 55.3598 66.5502 55.0527 66.8573 55.0527C67.241 55.0527 67.6248 55.5133 67.8551 55.9738C68.0086 56.4344 67.8551 56.7414 67.5481 56.7414C67.1643 56.6647 66.7805 56.2809 66.5502 55.8203Z" fill="#F6AA00"/>
<path d="M58.644 52.9035C59.1046 52.8268 59.6419 52.9035 59.8722 53.057C60.0257 53.2873 59.7954 53.5176 59.3348 53.6711C58.8743 53.8246 58.337 53.6711 58.1067 53.5176C57.9532 53.2873 58.1835 53.057 58.644 52.9035Z" fill="#F6AA00"/>
<path d="M73.2282 54.5922C73.2282 54.5922 73.7655 53.2873 73.6888 51.2915C73.5352 48.4515 69.6973 45.2276 66.3199 44.5367C62.8657 43.9227 60.7165 47.0698 64.4777 47.7606C66.3199 48.0677 65.7826 47.3001 67.7016 48.2979C69.6973 49.2958 69.6205 50.5239 69.2367 52.9802C68.9297 54.2851 70.2346 55.6668 73.2282 54.5922Z" fill="url(#paint19_linear)"/>
<path d="M64.7847 45.9185C64.7847 46.379 65.1685 46.7628 65.5523 46.8396C65.9361 46.9164 66.2431 46.6093 66.2431 46.1488C66.2431 45.6882 65.8593 45.3044 65.4755 45.2277C65.015 45.2277 64.7079 45.4579 64.7847 45.9185Z" fill="#F6AA00"/>
<path d="M66.9338 46.7628C66.7803 47.1466 66.9338 47.6071 67.3176 47.7606C67.7014 47.9142 68.162 47.7606 68.3155 47.3768C68.469 46.9931 68.3155 46.5325 67.9317 46.379C67.5479 46.1487 67.0873 46.379 66.9338 46.7628Z" fill="#F6AA00"/>
<path d="M69.3902 48.3747C69.0064 48.605 68.8529 48.9888 69.2367 49.2958C69.5438 49.5261 70.1578 49.5261 70.5416 49.2958C70.9254 49.0656 71.0789 48.6818 70.7719 48.3747C70.3881 48.1445 69.774 48.1445 69.3902 48.3747Z" fill="#F6AA00"/>
<path d="M70.6183 49.91C70.081 49.9867 69.8507 50.3705 70.0042 50.6008C70.2345 50.9078 70.8486 51.0613 71.3859 50.9078C71.9232 50.8311 72.1535 50.4473 71.9999 50.217C71.7697 49.91 71.1556 49.7564 70.6183 49.91Z" fill="#F6AA00"/>
<path d="M71.3859 51.2148C70.8486 51.2148 70.4648 51.4451 70.5415 51.6754C70.6183 51.9824 71.1556 52.136 71.6929 52.2127C72.2302 52.2127 72.614 51.9824 72.5373 51.7522C72.4605 51.4451 71.9232 51.2148 71.3859 51.2148Z" fill="#F6AA00"/>
<path d="M71.1557 52.9035C70.5416 52.75 70.0811 52.8267 70.0811 53.057C70.0811 53.2873 70.4648 53.5943 71.0789 53.8246C71.693 53.9781 72.1535 53.9013 72.2303 53.6711C72.1535 53.364 71.693 53.057 71.1557 52.9035Z" fill="#F6AA00"/>
<path d="M68.6996 47.3769C68.4693 47.6839 68.4693 48.0677 68.6996 48.1445C68.9298 48.298 69.3904 48.1445 69.6207 47.8375C69.8509 47.5304 69.8509 47.1466 69.6207 47.0699C69.3904 46.9164 69.0066 47.0699 68.6996 47.3769Z" fill="#F6AA00"/>
<path d="M56.1875 46.686C56.1875 46.686 61.7909 48.6818 62.8655 49.9099C62.8655 49.9099 59.1043 46.9163 59.3346 44.6903C59.3346 44.6135 58.7973 46.8396 56.1875 46.686Z" fill="#FAC188"/>
<path d="M61.2538 49.5261C60.7933 49.9099 60.4862 50.6775 60.7165 51.5219C60.9468 52.3662 61.7144 53.057 62.482 53.5176C64.0939 54.2852 65.7058 54.2084 66.7805 53.9014C65.7826 53.2873 64.4009 52.8268 63.096 52.2127C62.4819 51.9057 61.9446 51.5219 61.6376 51.1381C61.3306 50.6775 61.177 50.1402 61.2538 49.5261Z" fill="#FCCFA3"/>
<path d="M63.9404 48.1445C64.708 48.7586 65.7059 49.3727 66.627 50.0635C67.0876 50.3705 67.4713 50.7543 67.7016 51.0614C68.0087 51.4452 68.0854 51.9057 68.2389 52.443C68.546 52.0592 68.853 51.4452 68.6995 50.7543C68.546 50.0635 68.0854 49.3727 67.4713 48.9121C66.2432 47.991 64.9383 47.9142 63.9404 48.1445Z" fill="#FCCFA3"/>
<path d="M16.1961 44.3833C15.9659 46.1488 13.8934 47.2234 11.5906 46.9163C9.28782 46.6093 7.67588 44.9206 7.90616 43.1552C8.13643 41.3897 10.2089 40.3151 12.5117 40.6221C14.8145 40.9291 16.5032 42.6178 16.1961 44.3833Z" fill="url(#paint20_radial)"/>
<path d="M10.8229 42.9248C11.2067 43.4621 11.0532 44.2297 10.5159 44.6135C9.9786 44.9973 9.211 44.767 8.82721 44.2297C8.44341 43.6924 8.59693 42.9248 9.13425 42.541C9.74832 42.1572 10.5159 42.3108 10.8229 42.9248Z" fill="black"/>
<path d="M24.179 41.4664C22.9509 42.7713 20.6481 42.5411 18.9594 41.0059C17.2707 39.4707 16.8869 37.1679 18.0383 35.863C19.2664 34.5581 21.5692 34.7884 23.2579 36.3236C25.0233 37.8588 25.4071 40.1615 24.179 41.4664Z" fill="url(#paint21_radial)"/>
<path d="M20.5713 37.2447C20.5713 37.9356 20.034 38.4729 19.4199 38.4729C18.8059 38.4729 18.2686 37.9356 18.2686 37.2447C18.2686 36.5539 18.8059 36.0166 19.4199 36.0166C20.1108 36.0166 20.6481 36.6307 20.5713 37.2447Z" fill="black"/>
<path d="M45.3645 46.4558C44.7504 44.7671 45.9785 42.8481 48.2045 42.0038C50.3538 41.2362 52.5798 41.927 53.1939 43.5389C53.808 45.2276 52.5798 47.1466 50.3538 47.991C48.2045 48.8353 45.9785 48.1445 45.3645 46.4558Z" fill="url(#paint22_radial)"/>
<path d="M50.7377 45.2276C50.1236 44.9206 49.8933 44.153 50.2003 43.6157C50.5074 43.0783 51.1982 42.8481 51.8123 43.1551C52.4264 43.4621 52.6566 44.2297 52.3496 44.767C52.1193 45.3044 51.3517 45.5346 50.7377 45.2276Z" fill="black"/>
<path d="M56.6482 56.6647C57.2623 54.9761 59.4883 54.2852 61.6375 55.0528C63.7868 55.8204 65.0917 57.8161 64.4776 59.4281C63.8635 61.1168 61.6375 61.8076 59.4883 61.04C57.339 60.2724 56.0341 58.2767 56.6482 56.6647Z" fill="url(#paint23_radial)"/>
<path d="M61.6374 59.121C61.4071 58.5069 61.6374 57.7393 62.2515 57.5091C62.8655 57.2788 63.5564 57.5858 63.7866 58.1999C64.0169 58.814 63.7867 59.5048 63.1726 59.8118C62.5585 60.0421 61.8677 59.7351 61.6374 59.121Z" fill="black"/>
<path d="M26.8656 43.8459C26.712 42.6178 25.4839 41.5431 24.2557 41.0058C21.3389 39.7009 21.7995 40.2382 19.9572 40.3917C19.0361 40.4685 18.5756 40.315 17.6545 40.2382C16.0425 40.0847 15.582 40.3917 14.2003 41.5431C12.6651 42.7713 12.2046 43.6924 12.2046 45.4578C12.2046 46.0719 11.9743 48.605 11.744 49.5261C11.5137 50.4472 12.4348 52.1359 12.9722 52.9802C14.3538 55.2062 16.5798 55.2062 18.4988 55.2062C19.4967 55.2062 20.1875 55.4365 21.1086 55.0527C22.7973 54.2851 23.1044 55.5133 25.4071 53.1337C26.3282 52.2126 27.0191 51.2148 26.7888 49.6796C26.6353 48.9888 26.5585 48.6817 26.6353 47.9909C26.712 47.5303 27.1726 46.993 27.2494 46.4557C27.4796 45.5346 27.0191 44.8438 26.8656 43.8459Z" fill="#2D7C36"/>
<path d="M26.0981 43.7691C25.9446 42.6178 24.87 41.6966 23.7954 41.1593C21.2623 40.0079 21.6461 40.4685 20.0342 40.5453C19.1898 40.5453 18.806 40.4685 17.9617 40.3917C16.5033 40.2382 16.1195 40.5453 14.9681 41.5431C13.5864 42.6178 13.2026 43.4621 13.2026 45.0741C13.2026 45.6114 13.0491 47.9141 12.8188 48.7585C12.5885 49.6028 13.4329 51.138 13.8934 51.9056C15.1216 53.9013 17.0406 53.9013 18.806 53.9013C19.6504 53.9013 20.3412 54.1316 21.1088 53.7478C22.5672 53.057 22.8743 54.1316 24.87 51.9824C25.6376 51.138 26.3284 50.2169 26.0981 48.8352C26.0214 48.2212 25.8679 47.9141 25.9446 47.3768C26.0214 46.9163 26.4052 46.4557 26.4819 45.9952C26.6355 45.2276 26.2517 44.6135 26.0981 43.7691Z" fill="url(#paint24_radial)"/>
<path d="M21.9529 42.3107C23.6416 41.6967 24.6395 43.3854 25.1 44.6135C25.6374 46.2254 25.8676 47.3768 23.7184 47.2233C22.874 47.1465 20.341 47.0698 20.0339 46.0719C19.7269 45.2276 21.1086 42.6178 21.9529 42.3107Z" fill="#9DC150"/>
<path d="M24.3326 49.219C24.9467 50.7542 23.258 51.6753 21.9531 52.0591C20.3411 52.5197 19.113 52.6732 19.3433 50.7542C19.42 49.9866 19.5735 47.6839 20.5714 47.3768C21.4157 47.1466 24.0256 48.4515 24.3326 49.219Z" fill="#9DC150"/>
<path d="M17.6544 51.9824C16.196 52.75 15.1213 51.1381 14.584 49.9099C13.97 48.3747 13.6629 47.2233 15.5819 47.1466C16.3495 47.1466 18.6523 47.0698 19.0361 47.9909C19.4199 48.8353 18.3452 51.5986 17.6544 51.9824Z" fill="#9DC150"/>
<path d="M14.8912 45.8417C13.8934 44.3833 15.275 43.0017 16.4264 42.2341C17.8081 41.313 18.9595 40.8524 19.3433 42.9249C19.4968 43.7692 19.8806 46.2255 19.0362 46.7628C18.2686 47.3769 15.4285 46.6093 14.8912 45.8417Z" fill="#9DC150"/>
<path d="M17.9615 44.7671C17.9615 44.9973 17.4241 45.2276 16.8101 45.2276C16.196 45.2276 15.6587 44.9973 15.6587 44.7671C15.6587 44.5368 16.196 44.3065 16.8101 44.3065C17.4241 44.3065 17.9615 44.46 17.9615 44.7671Z" fill="#EAF0D4"/>
<path d="M19.0362 45.9953C18.806 45.9953 18.5757 45.458 18.5757 44.8439C18.5757 44.2298 18.806 43.6925 19.0362 43.6925C19.2665 43.6925 19.4968 44.2298 19.4968 44.8439C19.4968 45.458 19.3433 45.9953 19.0362 45.9953Z" fill="#EAF0D4"/>
<path d="M17.1941 43.9995C16.9638 44.0763 16.6568 43.846 16.5032 43.4622C16.3497 43.0784 16.3497 42.6946 16.58 42.6179C16.8103 42.5411 17.1173 42.7714 17.2708 43.1552C17.4243 43.539 17.4243 43.9228 17.1941 43.9995Z" fill="#EAF0D4"/>
<path d="M17.9617 44.2297C17.7314 44.153 17.6546 43.7692 17.8081 43.3854C17.9617 43.0016 18.2687 42.7713 18.499 42.8481C18.7292 42.9248 18.7292 43.3086 18.5757 43.6924C18.4222 44.0762 18.1152 44.3065 17.9617 44.2297Z" fill="#EAF0D4"/>
<path d="M22.3367 45.2277C22.1064 45.3812 21.6458 45.0741 21.3388 44.5368C20.955 43.9995 20.8783 43.4622 21.1085 43.3087C21.3388 43.1552 21.7994 43.4622 22.1064 43.9995C22.4902 44.5368 22.567 45.1509 22.3367 45.2277Z" fill="#EAF0D4"/>
<path d="M21.9528 46.8395C21.7993 46.6092 22.1064 46.1487 22.6437 45.8416C23.181 45.4578 23.7183 45.3811 23.8718 45.6113C24.0253 45.8416 23.7183 46.3022 23.181 46.6092C22.6437 46.9162 22.0296 47.0698 21.9528 46.8395Z" fill="#EAF0D4"/>
<path d="M22.5672 44.1529C22.4137 43.9994 22.4137 43.6156 22.644 43.3086C22.8742 42.9248 23.1813 42.7713 23.4115 42.9248C23.5651 43.0783 23.5651 43.4621 23.3348 43.7691C23.1045 44.1529 22.7207 44.3065 22.5672 44.1529Z" fill="#EAF0D4"/>
<path d="M22.7974 44.9206C22.7206 44.6903 23.0277 44.46 23.4882 44.3833C23.872 44.3065 24.2558 44.3833 24.3326 44.6136C24.4093 44.8438 24.1023 45.0741 23.6417 45.1509C23.1812 45.2276 22.7974 45.1509 22.7974 44.9206Z" fill="#EAF0D4"/>
<path d="M21.1855 49.6797C21.0319 49.4494 21.4157 48.9889 22.0298 48.7586C22.5671 48.4516 23.1812 48.4516 23.258 48.6818C23.4115 48.9121 23.0277 49.3727 22.4136 49.603C21.8763 49.8332 21.339 49.91 21.1855 49.6797Z" fill="#EAF0D4"/>
<path d="M19.7269 49.0657C19.9572 48.9122 20.4177 49.296 20.648 49.9101C20.955 50.4474 20.955 51.0614 20.7248 51.1382C20.4945 51.2917 20.0339 50.9079 19.8036 50.2939C19.4966 49.6798 19.4966 49.1425 19.7269 49.0657Z" fill="#EAF0D4"/>
<path d="M22.2599 49.9867C22.4135 49.8332 22.7972 49.91 23.1043 50.1403C23.4113 50.3705 23.5648 50.7543 23.4113 50.9078C23.2578 51.0614 22.874 50.9846 22.567 50.7543C22.2599 50.524 22.1064 50.1402 22.2599 49.9867Z" fill="#EAF0D4"/>
<path d="M21.4923 50.1403C21.7226 50.1403 21.9528 50.4473 21.9528 50.8311C21.9528 51.2149 21.8761 51.5987 21.6458 51.5987C21.4155 51.5987 21.1853 51.2916 21.1853 50.9078C21.1085 50.4473 21.262 50.1403 21.4923 50.1403Z" fill="#EAF0D4"/>
<path d="M16.9637 49.2958C17.194 49.1423 17.6545 49.3726 18.0383 49.9099C18.4221 50.3705 18.5756 50.9078 18.4221 51.1381C18.1919 51.2916 17.7313 51.0613 17.3475 50.524C16.8869 49.9867 16.7334 49.4494 16.9637 49.2958Z" fill="#EAF0D4"/>
<path d="M17.1941 47.6839C17.3476 47.9142 17.1173 48.3747 16.58 48.7585C16.1195 49.1423 15.5821 49.2958 15.3519 49.0655C15.1983 48.8353 15.4286 48.3747 15.9659 47.9909C16.5033 47.6071 17.0406 47.4536 17.1941 47.6839Z" fill="#EAF0D4"/>
<path d="M16.8101 50.3704C17.0403 50.4471 17.0403 50.8309 16.8101 51.2147C16.6566 51.5985 16.2728 51.8288 16.1192 51.6753C15.889 51.5985 15.889 51.2147 16.1192 50.8309C16.3495 50.4471 16.6566 50.2936 16.8101 50.3704Z" fill="#EAF0D4"/>
<path d="M16.5799 49.6028C16.6566 49.8331 16.3496 50.0634 15.9658 50.2169C15.582 50.3704 15.1982 50.2936 15.1215 50.0634C15.0447 49.8331 15.3517 49.6028 15.7355 49.4493C16.1193 49.3725 16.5031 49.4493 16.5799 49.6028Z" fill="#EAF0D4"/>
<path d="M16.1192 46.2256C16.0424 45.9953 16.4262 45.6882 16.9635 45.5347C17.5008 45.3812 17.9614 45.3812 18.0381 45.6115C18.1149 45.8418 17.7311 46.1488 17.1938 46.3023C16.6565 46.4558 16.1959 46.4558 16.1192 46.2256Z" fill="#EAF0D4"/>
<path d="M33.3902 50.2937C33.6973 49.0655 32.9297 47.6071 32.0086 46.686C29.7826 44.3832 30.0128 45.0741 28.3241 44.5368C27.403 44.2297 27.096 43.9227 26.2516 43.5389C24.7932 42.7713 24.2559 42.9248 22.5672 43.4621C20.6482 44.0762 19.8806 44.6903 19.2666 46.379C19.0363 46.9163 17.8849 49.2191 17.3476 49.9866C16.7335 50.7542 17.0406 52.75 17.1941 53.6711C17.6546 56.2809 19.6504 57.1252 21.4926 57.8161C22.4137 58.1999 23.0278 58.6604 23.9489 58.6604C25.7911 58.5837 25.6376 59.8118 28.7079 58.4301C29.8593 57.8928 30.9339 57.202 31.3177 55.6668C31.4713 54.976 31.4713 54.669 31.7783 54.0549C32.0086 53.5943 32.6226 53.2873 32.9297 52.9035C33.3135 52.0591 33.16 51.2915 33.3902 50.2937Z" fill="#2D7C36"/>
<path d="M32.3924 49.6796C32.6226 48.5283 32.0086 47.3001 31.1642 46.4558C29.2452 44.46 29.3988 45.0741 27.8636 44.5368C27.096 44.2298 26.7889 43.9995 26.0214 43.6157C24.7164 43.0016 24.2559 43.0784 22.7975 43.5389C21.1088 44.0762 20.4179 44.6903 19.8806 46.1487C19.6503 46.6093 18.6525 48.7585 18.1152 49.3726C17.5779 50.0634 17.8081 51.8289 17.9616 52.6733C18.3454 54.976 20.1109 55.7436 21.7228 56.3577C22.5672 56.6647 23.0277 57.1253 23.9489 57.0485C25.5608 56.9718 25.4073 58.0464 28.0938 56.8182C29.0917 56.3577 30.0896 55.7436 30.3966 54.362C30.5501 53.7479 30.5501 53.4408 30.8572 52.9035C31.0875 52.5197 31.6248 52.2127 31.855 51.8289C32.3156 51.2148 32.1621 50.524 32.3924 49.6796Z" fill="url(#paint25_radial)"/>
<path d="M29.0916 46.7628C30.8571 46.7628 31.2409 48.7585 31.1641 50.0635C31.0874 51.7522 30.8571 52.9035 28.9381 52.0592C28.1705 51.6754 25.8677 50.6775 25.9445 49.6029C25.9445 48.6818 28.1705 46.7628 29.0916 46.7628Z" fill="#9DC150"/>
<path d="M28.7078 54.055C28.7078 55.6669 26.7889 55.8972 25.484 55.8204C23.7953 55.6669 22.6439 55.3599 23.4882 53.6712C23.872 52.9804 24.8699 50.9079 25.8677 50.9846C26.7889 51.0614 28.7078 53.2874 28.7078 54.055Z" fill="#9DC150"/>
<path d="M21.4923 54.2084C19.8804 54.3619 19.4198 52.5197 19.4198 51.2148C19.3431 49.5261 19.5733 48.2979 21.3388 48.9888C22.1064 49.2958 24.1789 50.0634 24.2557 51.0613C24.2557 51.9824 22.3367 54.1316 21.4923 54.2084Z" fill="#9DC150"/>
<path d="M21.1853 47.4536C20.8016 45.6882 22.6438 44.9206 23.9487 44.6903C25.5606 44.3832 26.7888 44.3832 26.3282 46.4557C26.1747 47.3001 25.6374 49.7564 24.6395 49.9867C23.7952 50.1402 21.4156 48.3747 21.1853 47.4536Z" fill="#9DC150"/>
<path d="M24.4859 47.607C24.4091 47.8373 23.7951 47.8373 23.2577 47.607C22.6437 47.3767 22.2599 46.993 22.3366 46.7627C22.4134 46.5324 23.0275 46.5324 23.5648 46.7627C24.1789 46.9162 24.5626 47.3767 24.4859 47.607Z" fill="#EAF0D4"/>
<path d="M25.023 49.1421C24.7928 49.0654 24.7928 48.4513 25.023 47.914C25.2533 47.2999 25.6371 46.9161 25.8674 46.9929C26.0977 47.0696 26.0977 47.6837 25.8674 48.221C25.6371 48.8351 25.2533 49.2189 25.023 49.1421Z" fill="#EAF0D4"/>
<path d="M24.0255 46.6092C23.7952 46.6092 23.6417 46.3021 23.5649 45.8416C23.5649 45.4578 23.7185 45.074 23.9487 45.074C24.179 45.074 24.3325 45.381 24.4093 45.8416C24.4093 46.2254 24.2558 46.6092 24.0255 46.6092Z" fill="#EAF0D4"/>
<path d="M24.6393 47.0696C24.4857 46.9161 24.5625 46.5323 24.8695 46.2253C25.1766 45.9183 25.4836 45.7647 25.7139 45.9183C25.8674 46.0718 25.7906 46.4556 25.4836 46.7626C25.1766 47.0696 24.7928 47.2232 24.6393 47.0696Z" fill="#EAF0D4"/>
<path d="M28.3242 49.6797C28.0939 49.7564 27.7868 49.2959 27.6333 48.6818C27.4798 48.0677 27.6333 47.5304 27.8636 47.4537C28.0939 47.3769 28.4009 47.8374 28.5544 48.5283C28.708 49.0656 28.6312 49.6029 28.3242 49.6797Z" fill="#EAF0D4"/>
<path d="M27.3262 50.9846C27.2495 50.7543 27.71 50.4472 28.4008 50.2937C29.0149 50.1402 29.5522 50.2937 29.629 50.524C29.7057 50.7543 29.2452 51.0613 28.5544 51.2148C27.9403 51.3684 27.403 51.2148 27.3262 50.9846Z" fill="#EAF0D4"/>
<path d="M28.938 48.7585C28.7845 48.605 29.0148 48.2212 29.3218 47.9909C29.6289 47.7607 30.0127 47.6839 30.1662 47.9142C30.3197 48.0677 30.0894 48.4515 29.7824 48.6818C29.4753 48.9121 29.0915 48.9121 28.938 48.7585Z" fill="#EAF0D4"/>
<path d="M28.8616 49.5262C28.9383 49.2959 29.2454 49.2191 29.7059 49.2959C30.0897 49.3726 30.3968 49.6029 30.3968 49.8332C30.32 50.0635 30.013 50.1402 29.5524 50.0635C29.0919 49.9867 28.8616 49.7564 28.8616 49.5262Z" fill="#EAF0D4"/>
<path d="M25.6375 53.3641C25.6375 53.1338 26.098 52.8268 26.7121 52.75C27.3261 52.6733 27.8635 52.8268 27.9402 53.1338C27.9402 53.3641 27.4797 53.6711 26.8656 53.7479C26.2515 53.7479 25.7142 53.5944 25.6375 53.3641Z" fill="#EAF0D4"/>
<path d="M24.4859 52.2126C24.7162 52.2126 25.0232 52.6732 25.1 53.2873C25.1767 53.9013 25.0232 54.4387 24.7162 54.5154C24.4859 54.5154 24.1789 54.0549 24.1789 53.4408C24.0253 52.75 24.2556 52.2126 24.4859 52.2126Z" fill="#EAF0D4"/>
<path d="M26.5585 54.055C26.7887 53.9782 27.0958 54.1317 27.2493 54.5155C27.4796 54.8993 27.4796 55.2831 27.2493 55.3599C27.019 55.4366 26.712 55.2831 26.5585 54.8993C26.3282 54.5155 26.3282 54.1317 26.5585 54.055Z" fill="#EAF0D4"/>
<path d="M25.7909 53.9014C26.0211 53.9781 26.0979 54.3619 25.9444 54.7457C25.7909 55.1295 25.5606 55.4366 25.3303 55.3598C25.1 55.2831 25.0233 54.8993 25.1768 54.5155C25.2536 54.0549 25.5606 53.8246 25.7909 53.9014Z" fill="#EAF0D4"/>
<path d="M21.7993 51.4451C22.0296 51.3684 22.4134 51.8289 22.5669 52.443C22.7204 53.0571 22.7204 53.5944 22.4134 53.6712C22.1831 53.7479 21.7993 53.2874 21.6458 52.6733C21.4923 52.0592 21.569 51.5219 21.7993 51.4451Z" fill="#EAF0D4"/>
<path d="M22.7205 49.9867C22.7972 50.217 22.3367 50.6008 21.7226 50.7543C21.1085 50.9078 20.5712 50.9078 20.4945 50.6008C20.4177 50.3705 20.8782 49.9867 21.4923 49.8332C22.0296 49.6796 22.6437 49.7564 22.7205 49.9867Z" fill="#EAF0D4"/>
<path d="M21.3391 52.3662C21.4926 52.5198 21.3391 52.9036 21.032 53.1338C20.725 53.4409 20.3412 53.5176 20.1877 53.2874C20.0341 53.1338 20.1877 52.75 20.4947 52.5198C20.8017 52.2895 21.1855 52.2127 21.3391 52.3662Z" fill="#EAF0D4"/>
<path d="M21.3389 51.5987C21.3389 51.829 20.9551 51.9825 20.5713 51.9057C20.1875 51.9057 19.8037 51.6754 19.8805 51.4452C19.8805 51.2149 20.2643 51.0614 20.6481 51.1381C21.0319 51.1381 21.3389 51.3684 21.3389 51.5987Z" fill="#EAF0D4"/>
<path d="M22.1833 48.298C22.1833 48.0677 22.6439 47.9142 23.1812 47.9909C23.7185 48.0677 24.1791 48.2212 24.1791 48.4515C24.1791 48.6817 23.7185 48.8353 23.1812 48.7585C22.6439 48.6817 22.1833 48.5282 22.1833 48.298Z" fill="#EAF0D4"/>
<path d="M41.1428 50.8311C41.1428 49.5262 40.145 48.2213 38.9936 47.4537C36.307 45.6114 36.6908 46.3023 34.8486 45.9952C33.9275 45.8417 33.4669 45.6114 32.5458 45.3812C30.9339 44.9206 30.3966 45.2276 28.8614 46.072C27.0959 47.0699 26.4818 47.8375 26.098 49.6797C26.0213 50.2937 25.3305 52.8268 24.8699 53.6711C24.4093 54.5923 25.1002 56.4345 25.484 57.3556C26.4818 59.8886 28.7079 60.2724 30.7036 60.6562C31.7015 60.8097 32.3923 61.1935 33.3902 60.9633C35.2324 60.5027 35.3091 61.8076 38.0725 59.8119C39.1471 59.0443 40.0682 58.1232 40.0682 56.588C40.0682 55.8972 39.9914 55.5134 40.2217 54.8993C40.3752 54.4387 40.9125 53.9782 41.1428 53.5176C41.4499 52.5965 41.0661 51.8289 41.1428 50.8311Z" fill="#2D7C36"/>
<path d="M40.1451 50.4472C40.1451 49.2958 39.3007 48.1444 38.3029 47.4536C36.0001 45.8417 36.3071 46.379 34.6184 46.1487C33.7741 46.0719 33.3903 45.8417 32.6227 45.6114C31.241 45.2276 30.7805 45.4579 29.3988 46.2255C27.8636 47.0698 27.2495 47.8374 27.0193 49.4493C26.9425 49.9867 26.3284 52.2894 25.9446 53.057C25.5608 53.9014 26.1749 55.5901 26.482 56.3577C27.3263 58.6604 29.322 58.9675 31.0107 59.2745C31.9318 59.428 32.4692 59.8118 33.3903 59.5815C35.0022 59.1977 35.079 60.2724 37.5353 58.5069C38.4564 57.8161 39.3007 56.9717 39.3007 55.5901C39.3007 54.976 39.224 54.669 39.4542 54.0549C39.6078 53.5943 40.0683 53.2105 40.2218 52.8267C40.3753 52.0592 40.0683 51.3683 40.1451 50.4472Z" fill="url(#paint26_radial)"/>
<path d="M36.2304 48.2212C37.9959 47.9142 38.7635 49.7564 38.9937 51.0613C39.3008 52.75 39.3008 53.9781 37.1515 53.5176C36.3072 53.2873 33.8509 52.75 33.6206 51.6754C33.4671 50.7543 35.3093 48.3747 36.2304 48.2212Z" fill="#9DC150"/>
<path d="M37.3818 55.5901C37.6889 57.2788 35.8466 57.8161 34.465 57.9696C32.7763 58.1999 31.5481 58.1231 32.0854 56.2041C32.3157 55.4365 32.9298 53.2105 33.9277 53.057C34.772 52.9803 37.1515 54.8225 37.3818 55.5901Z" fill="#9DC150"/>
<path d="M30.0896 57.2021C28.4777 57.7394 27.6334 55.8972 27.4031 54.5923C27.0193 52.9036 26.9425 51.6755 28.9383 51.9825C29.7058 52.136 32.0086 52.443 32.3157 53.4409C32.4692 54.362 30.934 56.9718 30.0896 57.2021Z" fill="#9DC150"/>
<path d="M28.4776 50.524C27.7868 48.8353 29.3987 47.6839 30.7036 47.2233C32.3156 46.6093 33.5437 46.3022 33.467 48.4515C33.467 49.2958 33.3902 51.9056 32.4691 52.2894C31.6247 52.6732 28.8614 51.3683 28.4776 50.524Z" fill="#9DC150"/>
<path d="M31.7784 49.9867C31.7016 50.2169 31.1643 50.3705 30.5502 50.2169C29.9361 50.1402 29.3988 49.7564 29.4756 49.5261C29.5524 49.2958 30.0897 49.1423 30.7037 49.2191C31.3178 49.3726 31.7784 49.6796 31.7784 49.9867Z" fill="#EAF0D4"/>
<path d="M32.6226 51.3683C32.3924 51.2916 32.2388 50.7543 32.3924 50.1402C32.5459 49.5261 32.8529 48.9888 33.0832 49.0656C33.3135 49.1423 33.467 49.6796 33.3902 50.2937C33.16 50.9845 32.8529 51.4451 32.6226 51.3683Z" fill="#EAF0D4"/>
<path d="M31.0874 49.0655C30.8572 49.1423 30.6269 48.8352 30.4734 48.3747C30.3966 47.9909 30.4734 47.6071 30.7036 47.5303C30.9339 47.4536 31.1642 47.7606 31.3177 48.2211C31.3945 48.6049 31.3177 48.9887 31.0874 49.0655Z" fill="#EAF0D4"/>
<path d="M31.7784 49.4493C31.5482 49.2958 31.6249 48.912 31.8552 48.605C32.0855 48.2212 32.3925 48.0677 32.6228 48.1444C32.8531 48.298 32.7763 48.6818 32.546 48.9888C32.3158 49.3726 32.0087 49.5261 31.7784 49.4493Z" fill="#EAF0D4"/>
<path d="M36.077 51.2915C35.8467 51.3683 35.3861 50.9845 35.1559 50.3704C34.9256 49.7563 34.9256 49.219 35.1559 49.0655C35.3861 48.9888 35.7699 49.3726 36.077 49.9866C36.3072 50.6007 36.3072 51.138 36.077 51.2915Z" fill="#EAF0D4"/>
<path d="M35.386 52.7501C35.3092 52.5198 35.693 52.0592 36.3071 51.829C36.9211 51.5987 37.4584 51.5987 37.612 51.829C37.6887 52.0592 37.3049 52.443 36.6909 52.7501C36 53.0571 35.4627 53.0571 35.386 52.7501Z" fill="#EAF0D4"/>
<path d="M36.4608 50.217C36.3073 50.0635 36.384 49.6797 36.6911 49.3726C36.9981 49.0656 37.3819 48.9121 37.5354 49.0656C37.6889 49.2191 37.6122 49.6029 37.3051 49.9099C36.9981 50.2937 36.6143 50.3705 36.4608 50.217Z" fill="#EAF0D4"/>
<path d="M36.5374 50.9846C36.5374 50.7543 36.8444 50.6008 37.3049 50.524C37.7655 50.524 38.0725 50.6776 38.0725 50.9078C38.0725 51.1381 37.7655 51.2916 37.3049 51.3684C36.9211 51.4452 36.5374 51.2149 36.5374 50.9846Z" fill="#EAF0D4"/>
<path d="M34.1578 55.5133C34.081 55.2831 34.5416 54.8993 35.1557 54.7457C35.7697 54.5922 36.3838 54.5922 36.4606 54.8993C36.5373 55.1295 36.0768 55.5133 35.4627 55.6668C34.7719 55.8204 34.2345 55.7436 34.1578 55.5133Z" fill="#EAF0D4"/>
<path d="M32.6992 54.5922C32.9295 54.5155 33.3133 54.976 33.4668 55.5901C33.6203 56.2042 33.6203 56.8182 33.3133 56.895C33.083 56.9718 32.6992 56.5112 32.5457 55.8971C32.3922 55.2831 32.4689 54.669 32.6992 54.5922Z" fill="#EAF0D4"/>
<path d="M35.1556 55.9739C35.3091 55.8204 35.6929 55.9739 36 56.281C36.307 56.588 36.3838 56.9718 36.1535 57.1253C36 57.2788 35.6162 57.1253 35.3091 56.8183C35.0021 56.5112 34.9253 56.1274 35.1556 55.9739Z" fill="#EAF0D4"/>
<path d="M34.3113 55.9739C34.5416 55.9739 34.6951 56.3577 34.6184 56.8182C34.6184 57.2788 34.3881 57.5858 34.1578 57.5858C33.9275 57.5858 33.774 57.202 33.8508 56.7415C33.8508 56.2809 34.0811 55.9739 34.3113 55.9739Z" fill="#EAF0D4"/>
<path d="M29.8592 54.362C30.0895 54.2085 30.5501 54.5923 30.8571 55.2063C31.1641 55.7436 31.2409 56.3577 31.0106 56.5112C30.7803 56.6647 30.3198 56.281 30.0128 55.6669C29.7057 55.0528 29.629 54.4387 29.8592 54.362Z" fill="#EAF0D4"/>
<path d="M30.4734 52.75C30.6269 52.9803 30.2431 53.4408 29.629 53.7479C29.0917 54.0549 28.4777 54.1316 28.3241 53.9014C28.1706 53.6711 28.5544 53.2105 29.1685 52.9035C29.7826 52.5965 30.3199 52.5197 30.4734 52.75Z" fill="#EAF0D4"/>
<path d="M29.5522 55.4365C29.7058 55.59 29.629 55.9738 29.3987 56.2809C29.1685 56.5879 28.7847 56.8182 28.6311 56.6647C28.4776 56.5111 28.5544 56.1273 28.7847 55.8203C29.0149 55.4365 29.3987 55.283 29.5522 55.4365Z" fill="#EAF0D4"/>
<path d="M29.3987 54.6689C29.3987 54.8992 29.0917 55.1295 28.7079 55.1295C28.2473 55.2062 27.9403 55.0527 27.8635 54.8224C27.8635 54.5922 28.1706 54.3619 28.5544 54.3619C29.0149 54.2851 29.3987 54.4386 29.3987 54.6689Z" fill="#EAF0D4"/>
<path d="M29.6292 51.1381C29.6292 50.9078 30.0129 50.6775 30.627 50.6008C31.1643 50.524 31.6249 50.6775 31.7016 50.9078C31.7016 51.1381 31.3179 51.3684 30.7038 51.4451C30.1665 51.4451 29.6292 51.3684 29.6292 51.1381Z" fill="#EAF0D4"/>
<path d="M48.8956 50.4472C48.6653 49.1423 47.4372 47.9909 46.1323 47.3768C43.0619 45.9952 43.5992 46.6093 41.6802 46.686C40.6824 46.7628 40.2218 46.6092 39.2239 46.5325C37.5352 46.379 37.0747 46.7628 35.6163 47.9142C34.0043 49.2191 33.5438 50.1402 33.5438 52.0591C33.5438 52.6732 33.3135 55.4365 33.0832 56.3577C32.7762 57.3555 33.8508 59.121 34.3881 60.0421C35.8465 62.4216 38.1493 62.4216 40.2218 62.4216C41.2964 62.4216 41.9873 62.6519 42.9851 62.2681C44.7506 61.5005 45.0576 62.7287 47.5139 60.1956C48.435 59.1977 49.2026 58.1231 48.9723 56.5112C48.8188 55.7436 48.7421 55.4365 48.8188 54.7457C48.8956 54.2084 49.3561 53.6711 49.4329 53.1338C49.5097 52.1359 49.0491 51.4451 48.8956 50.4472Z" fill="#2D7C36"/>
<path d="M47.8979 50.3705C47.7443 49.1424 46.593 48.2212 45.4416 47.6839C42.755 46.4558 43.2156 46.9931 41.5269 47.0699C40.6825 47.0699 40.222 46.9931 39.3776 46.9163C37.8424 46.7628 37.4586 47.0699 36.2305 48.1445C34.8488 49.2959 34.3883 50.1402 34.3883 51.8289C34.3883 52.3662 34.2347 54.8225 33.9277 55.6669C33.6974 56.588 34.6185 58.1232 35.0791 58.9675C36.384 61.1168 38.3797 61.1168 40.222 61.1168C41.1431 61.1168 41.8339 61.347 42.6782 60.9632C44.2134 60.2724 44.5205 61.4238 46.6697 59.121C47.5141 58.2767 48.2049 57.2788 47.9746 55.8204C47.8979 55.1296 47.7443 54.8993 47.8211 54.2852C47.8979 53.8247 48.3584 53.3641 48.3584 52.8268C48.5119 51.9824 48.0514 51.3684 47.8979 50.3705Z" fill="url(#paint27_radial)"/>
<path d="M43.5992 48.912C45.3647 48.2212 46.4393 49.9867 46.8999 51.2916C47.5139 52.9803 47.7442 54.2084 45.5182 54.0549C44.5971 53.9781 41.9873 53.8246 41.6035 52.8267C41.2197 51.9824 42.6781 49.2191 43.5992 48.912Z" fill="#9DC150"/>
<path d="M46.0556 56.2041C46.6696 57.8161 44.9042 58.7372 43.5993 59.1977C41.9106 59.7351 40.6824 59.8886 40.836 57.8161C40.9127 56.9717 41.143 54.5922 42.1409 54.2852C42.9852 53.9781 45.7485 55.3598 46.0556 56.2041Z" fill="#9DC150"/>
<path d="M39.0704 59.1209C37.5353 59.8885 36.3839 58.2766 35.8466 56.9717C35.1557 55.3597 34.8487 54.1316 36.9212 54.0548C37.7655 54.0548 40.1451 53.9781 40.6056 54.9759C40.9127 55.8203 39.838 58.6604 39.0704 59.1209Z" fill="#9DC150"/>
<path d="M36.1535 52.5965C35.1556 51.0613 36.614 49.6029 37.7654 48.8353C39.2238 47.9142 40.452 47.3769 40.759 49.6029C40.9125 50.524 41.3731 53.0571 40.452 53.6711C39.6844 54.2085 36.6908 53.4409 36.1535 52.5965Z" fill="#9DC150"/>
<path d="M39.3774 51.445C39.3774 51.7521 38.8401 51.9056 38.1493 51.9056C37.4585 51.9056 36.9211 51.6753 36.9211 51.445C36.9211 51.138 37.4585 50.9077 38.1493 50.9077C38.8401 50.9845 39.3774 51.2147 39.3774 51.445Z" fill="#EAF0D4"/>
<path d="M40.5289 52.75C40.2219 52.75 40.0684 52.2127 40.0684 51.5218C40.0684 50.831 40.2986 50.2937 40.6057 50.2937C40.9127 50.2937 41.143 50.831 41.143 51.5218C40.9895 52.2127 40.7592 52.75 40.5289 52.75Z" fill="#EAF0D4"/>
<path d="M38.5332 50.6775C38.3029 50.7542 37.9959 50.524 37.8423 50.1402C37.6888 49.7564 37.6888 49.3726 37.9191 49.2191C38.1494 49.1423 38.4564 49.3726 38.6099 49.7564C38.7635 50.1402 38.7635 50.6007 38.5332 50.6775Z" fill="#EAF0D4"/>
<path d="M39.3007 50.9077C39.0704 50.831 39.0704 50.4472 39.2239 49.9866C39.3775 49.6028 39.6845 49.2958 39.9148 49.3726C40.145 49.4493 40.145 49.8331 39.9915 50.2937C39.838 50.7542 39.531 50.9845 39.3007 50.9077Z" fill="#EAF0D4"/>
<path d="M43.983 51.9823C43.7527 52.1359 43.2922 51.8288 42.9084 51.2148C42.5246 50.6774 42.4478 50.0634 42.6781 49.9098C42.9084 49.7563 43.3689 50.0634 43.7527 50.6774C44.1365 51.2915 44.2133 51.8288 43.983 51.9823Z" fill="#EAF0D4"/>
<path d="M43.5225 53.6711C43.369 53.4409 43.676 52.9803 44.2901 52.5965C44.8274 52.2127 45.4415 52.1359 45.595 52.3662C45.7485 52.5965 45.4415 53.0571 44.8274 53.4409C44.2901 53.7479 43.676 53.9014 43.5225 53.6711Z" fill="#EAF0D4"/>
<path d="M44.2133 50.9078C43.983 50.7543 44.0597 50.3705 44.29 49.9867C44.5203 49.6029 44.9041 49.4494 45.0576 49.5261C45.2879 49.6797 45.2111 50.0635 44.9808 50.4473C44.7506 50.831 44.4435 50.9846 44.2133 50.9078Z" fill="#EAF0D4"/>
<path d="M44.4436 51.6754C44.3669 51.4451 44.6739 51.2148 45.1345 51.138C45.595 51.0613 45.9788 51.138 45.9788 51.3683C46.0556 51.5986 45.7485 51.8289 45.288 51.9056C44.9042 51.9824 44.5204 51.9056 44.4436 51.6754Z" fill="#EAF0D4"/>
<path d="M42.8315 56.5881C42.6779 56.3578 43.0617 55.8972 43.6758 55.5902C44.2899 55.2832 44.8272 55.2064 44.9807 55.5135C45.1342 55.7437 44.7504 56.2043 44.1364 56.5113C43.5223 56.8184 42.9082 56.8951 42.8315 56.5881Z" fill="#EAF0D4"/>
<path d="M41.2196 55.974C41.4499 55.8205 41.9105 56.2043 42.2175 56.8184C42.5245 57.4325 42.6013 57.9698 42.2943 58.1233C42.064 58.2768 41.6034 57.893 41.2964 57.2789C40.9894 56.6649 40.9126 56.1276 41.2196 55.974Z" fill="#EAF0D4"/>
<path d="M43.9062 56.9718C44.0598 56.8183 44.4436 56.8951 44.8274 57.1254C45.1344 57.4324 45.2879 57.7394 45.2111 57.9697C45.0576 58.1232 44.6738 58.0465 44.29 57.8162C43.9062 57.5092 43.7527 57.1254 43.9062 56.9718Z" fill="#EAF0D4"/>
<path d="M43.0618 57.1254C43.2921 57.1254 43.5223 57.4324 43.5223 57.893C43.5223 58.3535 43.3688 58.7373 43.1385 58.7373C42.9083 58.7373 42.678 58.4303 42.678 57.9697C42.678 57.5092 42.8315 57.1254 43.0618 57.1254Z" fill="#EAF0D4"/>
<path d="M38.3028 56.2042C38.5331 56.0506 38.9936 56.2809 39.4542 56.8182C39.838 57.3555 40.0683 57.8929 39.838 58.0464C39.6077 58.1999 39.1472 57.9696 38.6866 57.4323C38.2261 56.9718 38.0725 56.4344 38.3028 56.2042Z" fill="#EAF0D4"/>
<path d="M38.6099 54.5155C38.7634 54.7457 38.5331 55.2831 37.9958 55.6668C37.4585 56.0506 36.9212 56.2809 36.7676 56.0506C36.6141 55.8204 36.8444 55.2831 37.3817 54.8993C37.8423 54.5155 38.4563 54.2852 38.6099 54.5155Z" fill="#EAF0D4"/>
<path d="M38.1493 57.3555C38.3796 57.4323 38.3796 57.8928 38.1493 58.2766C37.919 58.6604 37.612 58.8907 37.3817 58.814C37.1514 58.7372 37.1514 58.2766 37.3817 57.8928C37.612 57.509 37.9958 57.2788 38.1493 57.3555Z" fill="#EAF0D4"/>
<path d="M37.919 56.5879C37.9958 56.8182 37.6887 57.1252 37.3049 57.202C36.9211 57.3555 36.4606 57.2787 36.4606 57.0484C36.3838 56.8182 36.6908 56.5111 37.0746 56.4344C37.4584 56.2808 37.8422 56.3576 37.919 56.5879Z" fill="#EAF0D4"/>
<path d="M37.4585 53.057C37.3818 52.8267 37.7655 52.5197 38.3029 52.3661C38.8402 52.2126 39.3775 52.2126 39.4542 52.4429C39.531 52.6732 39.1472 52.9802 38.6099 53.1337C37.9958 53.2873 37.5353 53.2873 37.4585 53.057Z" fill="#EAF0D4"/>
<path d="M57.339 49.8331C57.1087 48.4514 55.8038 47.3768 54.4989 46.7627C51.3518 45.381 51.8891 45.9951 49.8166 46.0719C48.8187 46.1486 48.2814 45.9951 47.2835 45.9184C45.5181 45.7648 45.0575 46.1486 43.5223 47.3C41.8336 48.6049 41.3731 49.6028 41.3731 51.5218C41.3731 52.1358 41.1428 54.8992 40.8358 55.897C40.5287 56.8949 41.6034 58.7371 42.2174 59.5815C43.7526 62.0378 46.1321 62.0378 48.2814 62.0378C49.356 62.0378 50.1236 62.3448 51.1215 61.8842C52.9637 61.0399 53.2707 62.3448 55.8038 59.8117C56.8017 58.8139 57.5692 57.7392 57.339 56.1273C57.1854 55.3597 57.1087 55.0527 57.1855 54.3619C57.2622 53.8245 57.7995 53.2872 57.8763 52.7499C58.0298 51.6753 57.5692 50.9077 57.339 49.8331Z" fill="#2D7C36"/>
<path d="M55.8808 49.8331C55.7273 48.605 54.5759 47.6839 53.4245 47.1466C50.7379 45.9184 51.1985 46.4557 49.5098 46.5325C48.6654 46.5325 48.2049 46.4557 47.3605 46.379C45.8253 46.2255 45.4415 46.5325 44.2134 47.6071C42.8317 48.7585 42.3712 49.6029 42.3712 51.2916C42.3712 51.8289 42.2177 54.2852 41.9106 55.1295C41.6803 56.0506 42.6015 57.5858 43.062 58.4302C44.3669 60.5794 46.3626 60.5794 48.2049 60.5794C49.126 60.5794 49.8168 60.8097 50.6612 60.4259C52.1963 59.7351 52.5034 60.8864 54.6526 58.5837C55.497 57.7393 56.1878 56.7415 55.9575 55.283C55.8808 54.5922 55.7273 54.3619 55.804 53.7479C55.8808 53.2873 56.3413 52.8267 56.3413 52.2894C56.4181 51.3683 55.9575 50.7543 55.8808 49.8331Z" fill="url(#paint28_radial)"/>
<path d="M51.5052 48.2979C53.2707 47.6071 54.3453 49.3725 54.8058 50.6774C55.4199 52.3661 55.6502 53.5943 53.4242 53.4407C52.5031 53.364 49.8933 53.2105 49.5095 52.2126C49.1257 51.3682 50.6608 48.6049 51.5052 48.2979Z" fill="#9DC150"/>
<path d="M53.9616 55.5901C54.5757 57.202 52.8102 58.1999 51.5053 58.5837C49.8166 59.121 48.5884 59.2745 48.742 57.202C48.8187 56.3577 49.049 53.9781 50.0469 53.6711C50.968 53.3641 53.6545 54.8225 53.9616 55.5901Z" fill="#9DC150"/>
<path d="M46.9764 58.5069C45.4413 59.2745 44.2899 57.6626 43.7526 56.3577C43.0617 54.7457 42.7547 53.5176 44.8272 53.4408C45.6715 53.4408 48.0511 53.3641 48.5116 54.3619C48.8187 55.2063 47.744 58.1231 46.9764 58.5069Z" fill="#9DC150"/>
<path d="M44.0597 52.0592C43.0618 50.524 44.5203 49.0656 45.6717 48.298C47.1301 47.3769 48.3582 46.8395 48.6653 49.0656C48.8188 49.9867 49.2793 52.5197 48.3582 53.1338C47.6674 53.6711 44.597 52.8268 44.0597 52.0592Z" fill="#9DC150"/>
<path d="M47.2837 50.9077C47.2837 51.2147 46.7464 51.445 46.0555 51.445C45.3647 51.445 44.8274 51.2147 44.8274 50.9077C44.8274 50.6007 45.3647 50.4471 46.0555 50.4471C46.7464 50.3704 47.2837 50.6007 47.2837 50.9077Z" fill="#EAF0D4"/>
<path d="M48.4352 52.2126C48.1281 52.2126 47.9746 51.6753 47.9746 50.9845C47.9746 50.2937 48.2049 49.7563 48.5119 49.7563C48.819 49.7563 48.9725 50.2937 48.9725 50.9845C48.9725 51.6753 48.7422 52.2126 48.4352 52.2126Z" fill="#EAF0D4"/>
<path d="M46.5161 50.0633C46.2858 50.1401 45.9788 49.9098 45.8253 49.526C45.6717 49.1422 45.6717 48.7584 45.902 48.6049C46.1323 48.5282 46.4393 48.7584 46.5928 49.1422C46.7464 49.6028 46.6696 49.9866 46.5161 50.0633Z" fill="#EAF0D4"/>
<path d="M47.2838 50.2936C47.0536 50.2168 47.0536 49.8331 47.2071 49.3725C47.3606 48.9887 47.6676 48.6817 47.8979 48.7584C48.1282 48.8352 48.1282 49.219 47.9747 49.6795C47.8212 50.1401 47.5141 50.4471 47.2838 50.2936Z" fill="#EAF0D4"/>
<path d="M51.889 51.4451C51.6587 51.5986 51.1982 51.2916 50.8144 50.6775C50.4306 50.1402 50.3538 49.5261 50.5841 49.3726C50.8144 49.2191 51.275 49.5261 51.6588 50.1402C52.0425 50.6775 52.1193 51.2916 51.889 51.4451Z" fill="#EAF0D4"/>
<path d="M51.4285 53.057C51.275 52.8267 51.582 52.3662 52.1961 51.9824C52.7334 51.5986 53.3475 51.5218 53.501 51.7521C53.6545 51.9824 53.3475 52.4429 52.7334 52.8267C52.1961 53.2105 51.582 53.2873 51.4285 53.057Z" fill="#EAF0D4"/>
<path d="M52.1193 50.2937C51.889 50.1402 51.9657 49.7564 52.196 49.3726C52.4263 48.9888 52.8101 48.8353 52.9636 48.912C53.1939 49.0655 53.1171 49.4493 52.8869 49.8331C52.6566 50.2169 52.3495 50.4472 52.1193 50.2937Z" fill="#EAF0D4"/>
<path d="M52.3496 51.0612C52.2729 50.8309 52.5799 50.6007 53.0405 50.5239C53.501 50.4471 53.8848 50.5239 53.8848 50.7542C53.9616 50.9845 53.6546 51.2147 53.194 51.2915C52.8102 51.445 52.4264 51.2915 52.3496 51.0612Z" fill="#EAF0D4"/>
<path d="M50.7377 56.0506C50.5842 55.8203 50.968 55.3598 51.5821 55.0527C52.1961 54.7457 52.7334 54.6689 52.887 54.976C53.0405 55.2063 52.6567 55.6668 52.0426 55.9738C51.4285 56.2041 50.8145 56.2809 50.7377 56.0506Z" fill="#EAF0D4"/>
<path d="M49.1258 55.4366C49.3561 55.283 49.8166 55.6668 50.1237 56.2809C50.4307 56.895 50.5075 57.4323 50.2004 57.5858C49.9702 57.7393 49.5096 57.3555 49.2026 56.7415C48.8955 56.1274 48.8955 55.5133 49.1258 55.4366Z" fill="#EAF0D4"/>
<path d="M51.8124 56.3577C51.9659 56.2042 52.3497 56.2809 52.6568 56.5112C52.9638 56.8183 53.1173 57.1253 53.0406 57.3556C52.887 57.5091 52.5033 57.4323 52.1195 57.2021C51.8124 56.895 51.6589 56.588 51.8124 56.3577Z" fill="#EAF0D4"/>
<path d="M51.045 56.5112C51.2752 56.5112 51.5055 56.8183 51.5055 57.2788C51.5055 57.7394 51.352 58.0464 51.1217 58.1232C50.8914 58.1232 50.6612 57.8161 50.6612 57.3556C50.5844 56.895 50.7379 56.5112 51.045 56.5112Z" fill="#EAF0D4"/>
<path d="M46.2091 55.6668C46.4393 55.5133 46.9767 55.7436 47.3605 56.2809C47.7442 56.8182 47.9745 57.3555 47.7442 57.509C47.514 57.6625 46.9767 57.4323 46.5929 56.8949C46.1323 56.3576 45.9788 55.8203 46.2091 55.6668Z" fill="#EAF0D4"/>
<path d="M46.5161 53.9781C46.6696 54.2084 46.4393 54.6689 45.902 55.1295C45.3647 55.5133 44.8274 55.7436 44.6739 55.5133C44.5204 55.283 44.7506 54.8225 45.288 54.3619C45.7485 53.9014 46.3626 53.7478 46.5161 53.9781Z" fill="#EAF0D4"/>
<path d="M46.1322 56.8182C46.3625 56.895 46.3625 57.3555 46.1322 57.7393C45.9019 58.1231 45.5949 58.3534 45.3646 58.2767C45.1343 58.1999 45.1343 57.7393 45.3646 57.3555C45.5949 56.895 45.9019 56.6647 46.1322 56.8182Z" fill="#EAF0D4"/>
<path d="M45.8251 56.0506C45.9019 56.2809 45.5948 56.588 45.211 56.6647C44.8272 56.8182 44.3667 56.7415 44.2899 56.5112C44.2132 56.2809 44.5202 55.9739 44.904 55.8971C45.3645 55.7436 45.7483 55.8204 45.8251 56.0506Z" fill="#EAF0D4"/>
<path d="M45.3648 52.4428C45.288 52.2126 45.6718 51.9055 46.2091 51.752C46.7464 51.5985 47.2837 51.5985 47.3605 51.8288C47.4373 52.059 47.0535 52.3661 46.5161 52.5196C45.9021 52.7499 45.4415 52.6731 45.3648 52.4428Z" fill="#EAF0D4"/>
<defs>
<linearGradient id="paint0_linear" x1="43.8913" y1="30.1331" x2="43.8913" y2="64.4553" gradientUnits="userSpaceOnUse">
<stop stop-color="#CECECE"/>
<stop offset="0.1045" stop-color="#D4D4D4"/>
<stop offset="0.6908" stop-color="#F0F0F0"/>
<stop offset="1" stop-color="#FAFAFA"/>
</linearGradient>
<linearGradient id="paint1_linear" x1="43.9551" y1="29.3833" x2="43.9551" y2="68.0428" gradientUnits="userSpaceOnUse">
<stop stop-color="#F9F8F8"/>
<stop offset="0.1487" stop-color="#F5F5F5"/>
<stop offset="0.3202" stop-color="#EBEBEB"/>
<stop offset="0.5032" stop-color="#DADADA"/>
<stop offset="0.6941" stop-color="#C1C1C1"/>
<stop offset="0.8892" stop-color="#9F9F9F"/>
<stop offset="1" stop-color="#898988"/>
</linearGradient>
<linearGradient id="paint2_linear" x1="44.048" y1="36.7658" x2="44.048" y2="59.1974" gradientUnits="userSpaceOnUse">
<stop stop-color="#D2D2D2"/>
<stop offset="0.379" stop-color="#DBDBDB"/>
<stop offset="1" stop-color="#E5E5E5"/>
</linearGradient>
<linearGradient id="paint3_linear" x1="43.8269" y1="38.3478" x2="44.4653" y2="67.8207" gradientUnits="userSpaceOnUse">
<stop offset="0.00537634" stop-color="#949494"/>
<stop offset="0.0990117" stop-color="#A7A7A7"/>
<stop offset="0.2968" stop-color="#C8C8C8"/>
<stop offset="0.4902" stop-color="#E1E1E1"/>
<stop offset="0.6756" stop-color="#F2F2F1"/>
<stop offset="0.8494" stop-color="#FCFCFC"/>
<stop offset="1" stop-color="white"/>
</linearGradient>
<linearGradient id="paint4_linear" x1="8.92121" y1="42.0734" x2="77.0571" y2="42.0734" gradientUnits="userSpaceOnUse">
<stop offset="0.00537634" stop-color="#549C2E"/>
<stop offset="0.0354345" stop-color="#519A2E"/>
<stop offset="0.6886" stop-color="#266A29"/>
<stop offset="1" stop-color="#165926"/>
</linearGradient>
<radialGradient id="paint5_radial" cx="0" cy="0" r="1" gradientUnits="userSpaceOnUse" gradientTransform="translate(55.1594 41.3806) rotate(-28.6298) scale(6.8407 8.31725)">
<stop offset="0.00537634" stop-color="#F18B61"/>
<stop offset="0.2172" stop-color="#F0875D"/>
<stop offset="0.4423" stop-color="#EB7B50"/>
<stop offset="0.6737" stop-color="#E3673C"/>
<stop offset="0.908" stop-color="#D74B23"/>
<stop offset="1" stop-color="#D23E19"/>
</radialGradient>
<linearGradient id="paint6_linear" x1="49.9105" y1="44.2349" x2="53.1855" y2="39.4669" gradientUnits="userSpaceOnUse">
<stop stop-color="#B91619"/>
<stop offset="0.2088" stop-color="#C5281F"/>
<stop offset="0.7176" stop-color="#E04931"/>
<stop offset="1" stop-color="#EA573A"/>
</linearGradient>
<linearGradient id="paint7_linear" x1="60.5421" y1="37.2284" x2="57.9191" y2="42.5134" gradientUnits="userSpaceOnUse">
<stop stop-color="#B91619"/>
<stop offset="0.2088" stop-color="#C5281F"/>
<stop offset="0.7176" stop-color="#E04931"/>
<stop offset="1" stop-color="#EA573A"/>
</linearGradient>
<radialGradient id="paint8_radial" cx="0" cy="0" r="1" gradientUnits="userSpaceOnUse" gradientTransform="translate(35.7901 43.937) rotate(-3.43981) scale(10.4178)">
<stop offset="0.00537634" stop-color="#F7B696"/>
<stop offset="0.1825" stop-color="#F7B292"/>
<stop offset="0.3707" stop-color="#F5A885"/>
<stop offset="0.5643" stop-color="#F39870"/>
<stop offset="0.7613" stop-color="#F07F54"/>
<stop offset="0.9593" stop-color="#EB5E33"/>
<stop offset="1" stop-color="#EA562C"/>
</radialGradient>
<linearGradient id="paint9_linear" x1="26.6373" y1="44.5944" x2="37.0299" y2="43.9698" gradientUnits="userSpaceOnUse">
<stop stop-color="#B91619"/>
<stop offset="0.2088" stop-color="#C5281F"/>
<stop offset="0.7176" stop-color="#E04931"/>
<stop offset="1" stop-color="#EA573A"/>
</linearGradient>
<linearGradient id="paint10_linear" x1="46.3733" y1="41.7995" x2="36.8722" y2="44.4309" gradientUnits="userSpaceOnUse">
<stop stop-color="#B91619"/>
<stop offset="0.2088" stop-color="#C5281F"/>
<stop offset="0.7176" stop-color="#E04931"/>
<stop offset="1" stop-color="#EA573A"/>
</linearGradient>
<radialGradient id="paint11_radial" cx="0" cy="0" r="1" gradientUnits="userSpaceOnUse" gradientTransform="translate(69.8155 37.3766) rotate(-28.6298) scale(7.73919 9.40968)">
<stop offset="0.00537634" stop-color="#F7B696"/>
<stop offset="0.1825" stop-color="#F7B292"/>
<stop offset="0.3707" stop-color="#F5A885"/>
<stop offset="0.5643" stop-color="#F39870"/>
<stop offset="0.7613" stop-color="#F07F54"/>
<stop offset="0.9593" stop-color="#EB5E33"/>
<stop offset="1" stop-color="#EA562C"/>
</radialGradient>
<linearGradient id="paint12_linear" x1="63.8776" y1="40.6058" x2="67.5825" y2="35.2119" gradientUnits="userSpaceOnUse">
<stop stop-color="#B91619"/>
<stop offset="0.2088" stop-color="#C5281F"/>
<stop offset="0.7176" stop-color="#E04931"/>
<stop offset="1" stop-color="#EA573A"/>
</linearGradient>
<linearGradient id="paint13_linear" x1="75.906" y1="32.6784" x2="72.938" y2="38.6583" gradientUnits="userSpaceOnUse">
<stop stop-color="#B91619"/>
<stop offset="0.2088" stop-color="#C5281F"/>
<stop offset="0.7176" stop-color="#E04931"/>
<stop offset="1" stop-color="#EA573A"/>
</linearGradient>
<radialGradient id="paint14_radial" cx="0" cy="0" r="1" gradientUnits="userSpaceOnUse" gradientTransform="translate(73.4658 43.6572) rotate(-29.0496) scale(7.5117 9.32612)">
<stop offset="0.00537634" stop-color="#F7B696"/>
<stop offset="0.1825" stop-color="#F7B292"/>
<stop offset="0.3707" stop-color="#F5A885"/>
<stop offset="0.5643" stop-color="#F39870"/>
<stop offset="0.7613" stop-color="#F07F54"/>
<stop offset="0.9593" stop-color="#EB5E33"/>
<stop offset="1" stop-color="#EA562C"/>
</radialGradient>
<linearGradient id="paint15_linear" x1="67.6676" y1="46.7838" x2="71.284" y2="41.6178" gradientUnits="userSpaceOnUse">
<stop stop-color="#B91619"/>
<stop offset="0.2088" stop-color="#C5281F"/>
<stop offset="0.7176" stop-color="#E04931"/>
<stop offset="1" stop-color="#EA573A"/>
</linearGradient>
<linearGradient id="paint16_linear" x1="79.4669" y1="39.0247" x2="76.4378" y2="44.994" gradientUnits="userSpaceOnUse">
<stop stop-color="#B91619"/>
<stop offset="0.2088" stop-color="#C5281F"/>
<stop offset="0.7176" stop-color="#E04931"/>
<stop offset="1" stop-color="#EA573A"/>
</linearGradient>
<radialGradient id="paint17_radial" cx="0" cy="0" r="1" gradientUnits="userSpaceOnUse" gradientTransform="translate(64.6632 51.7224) rotate(-23.2014) scale(8.39337 10.2048)">
<stop offset="0.00537634" stop-color="#F7B696"/>
<stop offset="0.1825" stop-color="#F7B292"/>
<stop offset="0.3707" stop-color="#F5A885"/>
<stop offset="0.5643" stop-color="#F39870"/>
<stop offset="0.7613" stop-color="#F07F54"/>
<stop offset="0.9593" stop-color="#EB5E33"/>
<stop offset="1" stop-color="#EA562C"/>
</radialGradient>
<linearGradient id="paint18_linear" x1="57.9212" y1="54.6001" x2="62.4747" y2="49.1562" gradientUnits="userSpaceOnUse">
<stop stop-color="#B91619"/>
<stop offset="0.2088" stop-color="#C5281F"/>
<stop offset="0.7176" stop-color="#E04931"/>
<stop offset="1" stop-color="#EA573A"/>
</linearGradient>
<linearGradient id="paint19_linear" x1="71.7219" y1="47.275" x2="67.9044" y2="53.4274" gradientUnits="userSpaceOnUse">
<stop stop-color="#B91619"/>
<stop offset="0.2088" stop-color="#C5281F"/>
<stop offset="0.7176" stop-color="#E04931"/>
<stop offset="1" stop-color="#EA573A"/>
</linearGradient>
<radialGradient id="paint20_radial" cx="0" cy="0" r="1" gradientUnits="userSpaceOnUse" gradientTransform="translate(10.8434 42.3885) rotate(8.5166) scale(4.81561)">
<stop stop-color="#8CA1B7"/>
<stop offset="0.4805" stop-color="#5E5C6A"/>
<stop offset="0.8329" stop-color="#302830"/>
<stop offset="1"/>
</radialGradient>
<radialGradient id="paint21_radial" cx="0" cy="0" r="1" gradientUnits="userSpaceOnUse" gradientTransform="translate(20.8836 36.8315) rotate(42.5928) scale(4.81552)">
<stop stop-color="#8CA1B7"/>
<stop offset="0.4805" stop-color="#5E5C6A"/>
<stop offset="0.8329" stop-color="#302830"/>
<stop offset="1"/>
</radialGradient>
<radialGradient id="paint22_radial" cx="0" cy="0" r="1" gradientUnits="userSpaceOnUse" gradientTransform="translate(49.3665 42.9036) rotate(159.764) scale(4.81461)">
<stop stop-color="#8CA1B7"/>
<stop offset="0.4805" stop-color="#5E5C6A"/>
<stop offset="0.8329" stop-color="#302830"/>
<stop offset="1"/>
</radialGradient>
<radialGradient id="paint23_radial" cx="0" cy="0" r="1" gradientUnits="userSpaceOnUse" gradientTransform="translate(61.9994 56.4418) rotate(-160.44) scale(4.81453)">
<stop stop-color="#8CA1B7"/>
<stop offset="0.4805" stop-color="#5E5C6A"/>
<stop offset="0.8329" stop-color="#302830"/>
<stop offset="1"/>
</radialGradient>
<radialGradient id="paint24_radial" cx="0" cy="0" r="1" gradientUnits="userSpaceOnUse" gradientTransform="translate(19.6563 47.18) scale(8.5386)">
<stop offset="0.1828" stop-color="#EAF0D4"/>
<stop offset="0.4396" stop-color="#EAF0D2"/>
<stop offset="0.5684" stop-color="#E7EECC"/>
<stop offset="0.6688" stop-color="#E2EBC1"/>
<stop offset="0.7544" stop-color="#DBE6B1"/>
<stop offset="0.8306" stop-color="#D3E09C"/>
<stop offset="0.9001" stop-color="#C7D881"/>
<stop offset="0.9633" stop-color="#B9CF60"/>
<stop offset="1" stop-color="#AEC948"/>
</radialGradient>
<radialGradient id="paint25_radial" cx="0" cy="0" r="1" gradientUnits="userSpaceOnUse" gradientTransform="translate(25.1312 50.4629) rotate(21.6546) scale(8.55426)">
<stop offset="0.1828" stop-color="#EAF0D4"/>
<stop offset="0.4396" stop-color="#EAF0D2"/>
<stop offset="0.5684" stop-color="#E7EECC"/>
<stop offset="0.6688" stop-color="#E2EBC1"/>
<stop offset="0.7544" stop-color="#DBE6B1"/>
<stop offset="0.8306" stop-color="#D3E09C"/>
<stop offset="0.9001" stop-color="#C7D881"/>
<stop offset="0.9633" stop-color="#B9CF60"/>
<stop offset="1" stop-color="#AEC948"/>
</radialGradient>
<radialGradient id="paint26_radial" cx="0" cy="0" r="1" gradientUnits="userSpaceOnUse" gradientTransform="translate(33.0088 52.7177) rotate(10.2187) scale(8.74583)">
<stop offset="0.1828" stop-color="#EAF0D4"/>
<stop offset="0.4396" stop-color="#EAF0D2"/>
<stop offset="0.5684" stop-color="#E7EECC"/>
<stop offset="0.6688" stop-color="#E2EBC1"/>
<stop offset="0.7544" stop-color="#DBE6B1"/>
<stop offset="0.8306" stop-color="#D3E09C"/>
<stop offset="0.9001" stop-color="#C7D881"/>
<stop offset="0.9633" stop-color="#B9CF60"/>
<stop offset="1" stop-color="#AEC948"/>
</radialGradient>
<radialGradient id="paint27_radial" cx="0" cy="0" r="1" gradientUnits="userSpaceOnUse" gradientTransform="translate(41.1538 54.0266) scale(8.98711)">
<stop offset="0.1828" stop-color="#EAF0D4"/>
<stop offset="0.4396" stop-color="#EAF0D2"/>
<stop offset="0.5684" stop-color="#E7EECC"/>
<stop offset="0.6688" stop-color="#E2EBC1"/>
<stop offset="0.7544" stop-color="#DBE6B1"/>
<stop offset="0.8306" stop-color="#D3E09C"/>
<stop offset="0.9001" stop-color="#C7D881"/>
<stop offset="0.9633" stop-color="#B9CF60"/>
<stop offset="1" stop-color="#AEC948"/>
</radialGradient>
<radialGradient id="paint28_radial" cx="0" cy="0" r="1" gradientUnits="userSpaceOnUse" gradientTransform="translate(49.0761 53.4434) scale(8.98688)">
<stop offset="0.1828" stop-color="#EAF0D4"/>
<stop offset="0.4396" stop-color="#EAF0D2"/>
<stop offset="0.5684" stop-color="#E7EECC"/>
<stop offset="0.6688" stop-color="#E2EBC1"/>
<stop offset="0.7544" stop-color="#DBE6B1"/>
<stop offset="0.8306" stop-color="#D3E09C"/>
<stop offset="0.9001" stop-color="#C7D881"/>
<stop offset="0.9633" stop-color="#B9CF60"/>
<stop offset="1" stop-color="#AEC948"/>
</radialGradient>
</defs>
</svg>
