<svg width="36" height="36" viewBox="0 0 36 36" fill="none" xmlns="http://www.w3.org/2000/svg">
<g filter="url(#filter0_d)">
<rect x="4" width="28" height="28" rx="14" fill="white"/>
<path d="M25.4286 6.00001C25.7714 6.00001 26 6.20482 26 6.51204L26 17.4694C26 17.7766 25.7714 17.9814 25.4286 17.9814C25.0857 17.9814 24.8571 17.7766 24.8571 17.4694L24.8571 6.51204C24.8571 6.20482 25.0857 6.00001 25.4286 6.00001Z" fill="#8DC63F"/>
<path d="M12.9713 5.99996L23.8285 5.99996C24.1713 5.99996 24.3999 6.20477 24.3999 6.51199C24.3999 6.8192 24.1713 7.02401 23.8285 7.02401L12.9713 7.02401C12.057 7.02401 11.7142 7.63844 11.7142 7.94566C11.7142 8.15047 11.8284 8.35528 11.9427 8.45769C12.1713 8.6625 12.3999 8.66251 12.7427 8.66251C13.0856 8.66251 13.3142 8.86732 13.3142 9.17454C13.3142 9.48176 13.0856 9.68657 12.7427 9.68657C11.8285 9.68657 11.3713 10.1986 11.3713 10.6082C11.3713 10.7106 11.3713 10.9154 11.5999 11.1202C11.8285 11.3251 12.1713 11.325 12.5142 11.325C12.857 11.325 13.0856 11.5298 13.0856 11.8371C13.0856 12.1443 12.857 12.3491 12.5142 12.3491C11.5999 12.3491 11.1428 12.8611 11.1428 13.2708C11.1428 13.3732 11.1427 13.578 11.3713 13.7828C11.5999 13.9876 11.8285 13.9876 12.2856 13.9876C12.6285 13.9876 12.8571 14.1924 12.8571 14.4996C12.8571 14.8068 12.6285 15.0116 12.2856 15.0116C11.9428 15.0116 11.5999 15.1141 11.3713 15.3189C11.257 15.4213 11.1428 15.6261 11.1428 15.9333C11.1428 16.3429 11.4856 16.7526 12.2856 16.7526L19.1428 16.7526C19.4856 16.7526 19.7142 16.9574 19.7142 17.2646C19.7142 17.5718 19.4856 17.7766 19.1428 17.7766L12.2856 17.7766C10.7999 17.7766 9.99993 16.8549 9.99993 15.9333C9.99993 15.4213 10.2285 15.0117 10.5714 14.602C10.5714 14.602 10.5713 14.602 10.6856 14.4996C10.3428 14.1924 10.1142 13.7828 10.1142 13.2708C10.1142 12.7587 10.3428 12.1443 10.9142 11.7347C10.5713 11.4275 10.3428 11.0178 10.3428 10.5058C10.3428 9.89137 10.6856 9.37934 11.257 8.96972C10.9142 8.6625 10.7999 8.25286 10.7999 7.74083C10.457 7.02399 11.3713 5.99996 12.9713 5.99996Z" fill="#8DC63F"/>
<path d="M23.7143 16.855C23.9429 16.855 24.1715 16.9574 24.2858 17.1622C24.4001 17.4694 24.2857 17.6742 23.9429 17.8791C22.5714 18.3911 21.5429 19.3127 20.6286 20.132C19.3715 21.2584 18.1143 22.3849 16.5143 21.8729C16.0571 21.6681 15.7143 21.3608 15.4857 20.9512C15.0286 19.62 16.8572 17.4694 17.2 17.0598C17.4286 16.855 17.7715 16.7526 18 16.9574C18.2286 17.1622 18.3429 17.4694 18.1143 17.6742C17.3143 18.4935 16.4 20.0296 16.6286 20.644C16.6286 20.7464 16.7429 20.8488 16.8572 20.8488C17.7715 21.156 18.4572 20.5416 19.7143 19.3127C20.7429 18.3911 21.7714 17.367 23.3714 16.7526C23.6 16.855 23.7143 16.855 23.7143 16.855Z" fill="#8DC63F"/>
</g>
<defs>
<filter id="filter0_d" x="0" y="0" width="36" height="36" filterUnits="userSpaceOnUse" color-interpolation-filters="sRGB">
<feFlood flood-opacity="0" result="BackgroundImageFix"/>
<feColorMatrix in="SourceAlpha" type="matrix" values="0 0 0 0 0 0 0 0 0 0 0 0 0 0 0 0 0 0 127 0"/>
<feOffset dy="4"/>
<feGaussianBlur stdDeviation="2"/>
<feColorMatrix type="matrix" values="0 0 0 0 0 0 0 0 0 0 0 0 0 0 0 0 0 0 0.25 0"/>
<feBlend mode="normal" in2="BackgroundImageFix" result="effect1_dropShadow"/>
<feBlend mode="normal" in="SourceGraphic" in2="effect1_dropShadow" result="shape"/>
</filter>
</defs>
</svg>
