<svg width="190" height="27" viewBox="0 0 190 27" fill="none" xmlns="http://www.w3.org/2000/svg">
<rect width="190" height="27" rx="13.5" fill="#CE2F2F"/>
<path d="M59.284 8.536L54.612 20H53.22L48.548 8.536H49.788C49.9267 8.536 50.0387 8.57067 50.124 8.64C50.2093 8.70933 50.2733 8.79733 50.316 8.904L53.548 16.992C53.6173 17.1733 53.684 17.3707 53.748 17.584C53.8173 17.7973 53.8787 18.0213 53.932 18.256C53.9853 18.0213 54.0413 17.7973 54.1 17.584C54.1587 17.3707 54.2227 17.1733 54.292 16.992L57.516 8.904C57.548 8.81333 57.6093 8.73067 57.7 8.656C57.796 8.576 57.9107 8.536 58.044 8.536H59.284ZM67.8881 18.736L67.8801 20H60.8161V8.536H67.8801V9.8H62.3681V13.608H66.8321V14.824H62.3681V18.736H67.8881ZM73.2505 14.088C73.6985 14.088 74.0932 14.0347 74.4345 13.928C74.7812 13.816 75.0692 13.6613 75.2985 13.464C75.5332 13.2613 75.7092 13.0213 75.8265 12.744C75.9438 12.4667 76.0025 12.16 76.0025 11.824C76.0025 11.1413 75.7785 10.6267 75.3305 10.28C74.8825 9.93333 74.2105 9.76 73.3145 9.76H71.6185V14.088H73.2505ZM78.5465 20H77.1705C76.8878 20 76.6798 19.8907 76.5465 19.672L73.5705 15.576C73.4798 15.448 73.3812 15.3573 73.2745 15.304C73.1732 15.2453 73.0132 15.216 72.7945 15.216H71.6185V20H70.0745V8.536H73.3145C74.0398 8.536 74.6665 8.61067 75.1945 8.76C75.7225 8.904 76.1572 9.11467 76.4985 9.392C76.8452 9.66933 77.1012 10.0053 77.2665 10.4C77.4318 10.7893 77.5145 11.2267 77.5145 11.712C77.5145 12.1173 77.4505 12.496 77.3225 12.848C77.1945 13.2 77.0078 13.5173 76.7625 13.8C76.5225 14.0773 76.2265 14.3147 75.8745 14.512C75.5278 14.7093 75.1332 14.8587 74.6905 14.96C74.8878 15.072 75.0585 15.2347 75.2025 15.448L78.5465 20ZM87.4235 14.088C87.8715 14.088 88.2662 14.0347 88.6075 13.928C88.9542 13.816 89.2422 13.6613 89.4715 13.464C89.7062 13.2613 89.8822 13.0213 89.9995 12.744C90.1168 12.4667 90.1755 12.16 90.1755 11.824C90.1755 11.1413 89.9515 10.6267 89.5035 10.28C89.0555 9.93333 88.3835 9.76 87.4875 9.76H85.7915V14.088H87.4235ZM92.7195 20H91.3435C91.0608 20 90.8528 19.8907 90.7195 19.672L87.7435 15.576C87.6528 15.448 87.5542 15.3573 87.4475 15.304C87.3462 15.2453 87.1862 15.216 86.9675 15.216H85.7915V20H84.2475V8.536H87.4875C88.2128 8.536 88.8395 8.61067 89.3675 8.76C89.8955 8.904 90.3302 9.11467 90.6715 9.392C91.0182 9.66933 91.2742 10.0053 91.4395 10.4C91.6048 10.7893 91.6875 11.2267 91.6875 11.712C91.6875 12.1173 91.6235 12.496 91.4955 12.848C91.3675 13.2 91.1808 13.5173 90.9355 13.8C90.6955 14.0773 90.3995 14.3147 90.0475 14.512C89.7008 14.7093 89.3062 14.8587 88.8635 14.96C89.0608 15.072 89.2315 15.2347 89.3755 15.448L92.7195 20ZM101.375 18.736L101.367 20H94.3027V8.536H101.367V9.8H95.8547V13.608H100.319V14.824H95.8547V18.736H101.375ZM111.359 17.632C111.444 17.632 111.519 17.6667 111.583 17.736L112.199 18.4C111.73 18.944 111.159 19.368 110.487 19.672C109.82 19.976 109.012 20.128 108.063 20.128C107.242 20.128 106.495 19.9867 105.823 19.704C105.151 19.416 104.578 19.016 104.103 18.504C103.628 17.9867 103.26 17.368 102.999 16.648C102.738 15.928 102.607 15.136 102.607 14.272C102.607 13.408 102.743 12.616 103.015 11.896C103.287 11.176 103.668 10.5573 104.159 10.04C104.655 9.52267 105.247 9.12267 105.935 8.84C106.623 8.552 107.383 8.408 108.215 8.408C109.031 8.408 109.751 8.53867 110.375 8.8C110.999 9.06133 111.548 9.416 112.023 9.864L111.511 10.576C111.479 10.6293 111.436 10.6747 111.383 10.712C111.335 10.744 111.268 10.76 111.183 10.76C111.087 10.76 110.97 10.7093 110.831 10.608C110.692 10.5013 110.511 10.384 110.287 10.256C110.063 10.128 109.783 10.0133 109.447 9.912C109.111 9.80533 108.698 9.752 108.207 9.752C107.615 9.752 107.074 9.856 106.583 10.064C106.092 10.2667 105.668 10.5627 105.311 10.952C104.959 11.3413 104.684 11.816 104.487 12.376C104.29 12.936 104.191 13.568 104.191 14.272C104.191 14.9867 104.292 15.624 104.495 16.184C104.703 16.744 104.983 17.2187 105.335 17.608C105.692 17.992 106.111 18.2853 106.591 18.488C107.076 18.6907 107.599 18.792 108.159 18.792C108.5 18.792 108.807 18.7733 109.079 18.736C109.356 18.6933 109.61 18.6293 109.839 18.544C110.074 18.4587 110.29 18.352 110.487 18.224C110.69 18.0907 110.89 17.9333 111.087 17.752C111.178 17.672 111.268 17.632 111.359 17.632ZM121.095 18.736L121.087 20H114.023V8.536H121.087V9.8H115.575V13.608H120.039V14.824H115.575V18.736H121.095ZM131.033 9.84H127.321V20H125.777V9.84H122.057V8.536H131.033V9.84ZM137.721 15.744L135.921 11.08C135.868 10.9413 135.812 10.7813 135.753 10.6C135.694 10.4133 135.638 10.216 135.585 10.008C135.473 10.44 135.358 10.8 135.241 11.088L133.441 15.744H137.721ZM140.953 20H139.753C139.614 20 139.502 19.9653 139.417 19.896C139.332 19.8267 139.268 19.7387 139.225 19.632L138.153 16.864H133.009L131.937 19.632C131.905 19.728 131.844 19.8133 131.753 19.888C131.662 19.9627 131.55 20 131.417 20H130.217L134.801 8.536H136.369L140.953 20Z" fill="white"/>
</svg>
