<svg width="64" height="70" viewBox="0 0 64 70" fill="none" xmlns="http://www.w3.org/2000/svg">
<rect width="64" height="70" rx="10" fill="white"/>
<g clip-path="url(#clip0)">
<path d="M32.3316 38C28.9125 38 25.698 36.7517 23.2806 34.4852C20.8631 32.2188 19.5316 29.2054 19.5316 26C19.5316 22.7945 20.8631 19.7812 23.2806 17.5147C25.6982 15.2482 28.9125 14 32.3316 14C35.7507 14 38.965 15.2482 41.3825 17.5147C43.8001 19.7812 45.1316 22.7945 45.1316 26C45.1316 29.2054 43.8001 32.219 41.3825 34.4854C38.965 36.7517 35.7507 38 32.3316 38ZM32.3316 14.9375C25.825 14.9375 20.5316 19.9002 20.5316 26C20.5316 32.0999 25.825 37.0625 32.3316 37.0625C38.8382 37.0625 44.1316 32.0999 44.1316 26C44.1316 19.9002 38.8382 14.9375 32.3316 14.9375Z" fill="#8DC63F"/>
<path d="M32.3439 34.8093C30.7883 34.8093 29.2373 34.4491 27.8717 33.7594C27.6287 33.6365 27.5377 33.3523 27.6687 33.1244C27.7996 32.8964 28.1029 32.8113 28.3461 32.9341C31.5846 34.5702 35.6652 34.0077 38.2691 31.5663C39.8558 30.079 40.7297 28.1011 40.7297 25.9975C40.7297 23.8938 39.8558 21.9161 38.2691 20.4286C34.9939 17.3581 29.6642 17.3579 26.3888 20.4288C23.7849 22.8699 23.1849 26.6954 24.9299 29.7314C25.0609 29.9594 24.9701 30.2436 24.7269 30.3664C24.484 30.4891 24.1805 30.404 24.0496 30.1762C23.1103 28.5422 22.7443 26.6245 23.0185 24.7766C23.3021 22.8661 24.223 21.1332 25.6818 19.7657C29.3471 16.3294 35.3109 16.3294 38.9763 19.7657C40.7519 21.4303 41.7297 23.6434 41.7297 25.9975C41.7297 28.3515 40.7517 30.5647 38.9763 32.2294C37.5176 33.597 35.6693 34.4603 33.6314 34.7262C33.2045 34.7818 32.774 34.8093 32.3439 34.8093Z" fill="#8DC63F"/>
<path d="M26.0301 32.3714C25.9027 32.3714 25.7756 32.3261 25.6779 32.2355C25.4818 32.0531 25.4807 31.7563 25.675 31.5725L25.6807 31.5672C25.8752 31.3833 26.1918 31.3821 26.3879 31.5644C26.584 31.7466 26.5852 32.0434 26.3908 32.2273L26.3852 32.2326C26.2873 32.325 26.1588 32.3714 26.0301 32.3714Z" fill="#8DC63F"/>
<path d="M34.3847 29.4127C33.8954 29.6857 33.369 29.8241 32.82 29.8241C31.4089 29.8241 30.1923 28.8921 29.6489 27.5582H32.2436C32.5198 27.5582 32.7436 27.3483 32.7436 27.0894C32.7436 26.8305 32.5198 26.6207 32.2436 26.6207H29.3925C29.3622 26.4178 29.3458 26.21 29.3458 25.9979C29.3458 25.8337 29.3561 25.6722 29.3745 25.5132H33.002C33.2782 25.5132 33.5022 25.3034 33.5022 25.0445C33.5022 24.7856 33.2782 24.5757 33.002 24.5757H29.5956C30.1093 23.1684 31.3606 22.1718 32.82 22.1718C33.369 22.1718 33.8954 22.3102 34.3847 22.5832C34.622 22.7156 34.9288 22.6425 35.07 22.42C35.2112 22.1976 35.1335 21.9099 34.8962 21.7775C34.2591 21.4221 33.5413 21.2343 32.82 21.2343C30.8179 21.2343 29.1188 22.6414 28.5493 24.5757H27.6017C27.3257 24.5757 27.1017 24.7856 27.1017 25.0445C27.1017 25.3034 27.3257 25.5132 27.6017 25.5132H28.3686C28.3534 25.6725 28.3456 25.8342 28.3456 25.9979C28.3456 26.2089 28.3587 26.4167 28.3839 26.6207H27.6017C27.3257 26.6207 27.1017 26.8305 27.1017 27.0894C27.1017 27.3483 27.3257 27.5582 27.6017 27.5582H28.5923C29.2007 29.4207 30.8659 30.7614 32.82 30.7614C33.5411 30.7614 34.2591 30.5735 34.896 30.2181C35.1333 30.0858 35.2112 29.7981 35.07 29.5756C34.9288 29.3531 34.622 29.2801 34.3847 29.4127Z" fill="#8DC63F"/>
</g>
<path d="M12 56.031V46H15.199C15.815 46 16.3447 46.0607 16.788 46.182C17.236 46.3033 17.6023 46.476 17.887 46.7C18.1763 46.924 18.3887 47.1993 18.524 47.526C18.664 47.848 18.734 48.212 18.734 48.618C18.734 48.8653 18.6943 49.1033 18.615 49.332C18.5403 49.5607 18.4237 49.773 18.265 49.969C18.111 50.165 17.915 50.34 17.677 50.494C17.4437 50.648 17.1683 50.774 16.851 50.872C17.5837 51.0167 18.1367 51.2803 18.51 51.663C18.8833 52.0457 19.07 52.5497 19.07 53.175C19.07 53.5997 18.9907 53.987 18.832 54.337C18.678 54.687 18.4493 54.988 18.146 55.24C17.8473 55.492 17.4787 55.688 17.04 55.828C16.606 55.9633 16.109 56.031 15.549 56.031H12ZM13.358 51.46V54.953H15.528C15.9153 54.953 16.2467 54.9087 16.522 54.82C16.802 54.7313 17.0307 54.6077 17.208 54.449C17.39 54.2857 17.523 54.0943 17.607 53.875C17.691 53.651 17.733 53.406 17.733 53.14C17.733 52.622 17.5487 52.2137 17.18 51.915C16.816 51.6117 16.263 51.46 15.521 51.46H13.358ZM13.358 50.494H15.15C15.5327 50.494 15.864 50.452 16.144 50.368C16.424 50.284 16.655 50.1673 16.837 50.018C17.0237 49.8687 17.1613 49.689 17.25 49.479C17.3387 49.2643 17.383 49.031 17.383 48.779C17.383 48.191 17.2057 47.7593 16.851 47.484C16.4963 47.2087 15.9457 47.071 15.199 47.071H13.358V50.494Z" fill="black"/>
<path d="M26.2265 56.031H25.6735C25.5521 56.031 25.4541 56.0123 25.3795 55.975C25.3048 55.9377 25.2558 55.8583 25.2325 55.737L25.0925 55.079C24.9058 55.247 24.7238 55.3987 24.5465 55.534C24.3691 55.6647 24.1825 55.7767 23.9865 55.87C23.7905 55.9587 23.5805 56.0263 23.3565 56.073C23.1371 56.1197 22.8921 56.143 22.6215 56.143C22.3461 56.143 22.0871 56.1057 21.8445 56.031C21.6065 55.9517 21.3988 55.835 21.2215 55.681C21.0441 55.527 20.9018 55.3333 20.7945 55.1C20.6918 54.862 20.6405 54.582 20.6405 54.26C20.6405 53.98 20.7175 53.7117 20.8715 53.455C21.0255 53.1937 21.2728 52.9627 21.6135 52.762C21.9588 52.5613 22.4091 52.398 22.9645 52.272C23.5198 52.1413 24.1988 52.0667 25.0015 52.048V51.495C25.0015 50.9443 24.8825 50.529 24.6445 50.249C24.4111 49.9643 24.0635 49.822 23.6015 49.822C23.2981 49.822 23.0415 49.8617 22.8315 49.941C22.6261 50.0157 22.4465 50.102 22.2925 50.2C22.1431 50.2933 22.0125 50.3797 21.9005 50.459C21.7931 50.5337 21.6858 50.571 21.5785 50.571C21.4945 50.571 21.4198 50.55 21.3545 50.508C21.2938 50.4613 21.2448 50.4053 21.2075 50.34L20.9835 49.941C21.3755 49.563 21.7978 49.2807 22.2505 49.094C22.7031 48.9073 23.2048 48.814 23.7555 48.814C24.1521 48.814 24.5045 48.8793 24.8125 49.01C25.1205 49.1407 25.3795 49.3227 25.5895 49.556C25.7995 49.7893 25.9581 50.0717 26.0655 50.403C26.1728 50.7343 26.2265 51.0983 26.2265 51.495V56.031ZM22.9925 55.268C23.2118 55.268 23.4125 55.247 23.5945 55.205C23.7765 55.1583 23.9468 55.0953 24.1055 55.016C24.2688 54.932 24.4228 54.8317 24.5675 54.715C24.7168 54.5983 24.8615 54.4653 25.0015 54.316V52.839C24.4275 52.8577 23.9398 52.9043 23.5385 52.979C23.1371 53.049 22.8105 53.1423 22.5585 53.259C22.3065 53.3757 22.1221 53.5133 22.0055 53.672C21.8935 53.8307 21.8375 54.008 21.8375 54.204C21.8375 54.3907 21.8678 54.5517 21.9285 54.687C21.9891 54.8223 22.0708 54.9343 22.1735 55.023C22.2761 55.107 22.3975 55.17 22.5375 55.212C22.6775 55.2493 22.8291 55.268 22.9925 55.268Z" fill="black"/>
<path d="M28.2642 56.031V48.94H28.9782C29.1135 48.94 29.2068 48.9657 29.2582 49.017C29.3095 49.0683 29.3445 49.157 29.3632 49.283L29.4472 50.389C29.6898 49.8943 29.9885 49.5093 30.3432 49.234C30.7025 48.954 31.1225 48.814 31.6032 48.814C31.7992 48.814 31.9765 48.8373 32.1352 48.884C32.2938 48.926 32.4408 48.9867 32.5762 49.066L32.4152 49.997C32.3825 50.1137 32.3102 50.172 32.1982 50.172C32.1328 50.172 32.0325 50.151 31.8972 50.109C31.7618 50.0623 31.5728 50.039 31.3302 50.039C30.8962 50.039 30.5322 50.165 30.2382 50.417C29.9488 50.669 29.7062 51.0353 29.5102 51.516V56.031H28.2642Z" fill="black"/>
<path d="M39.0089 56.031H38.4559C38.3345 56.031 38.2365 56.0123 38.1619 55.975C38.0872 55.9377 38.0382 55.8583 38.0149 55.737L37.8749 55.079C37.6882 55.247 37.5062 55.3987 37.3289 55.534C37.1515 55.6647 36.9649 55.7767 36.7689 55.87C36.5729 55.9587 36.3629 56.0263 36.1389 56.073C35.9195 56.1197 35.6745 56.143 35.4039 56.143C35.1285 56.143 34.8695 56.1057 34.6269 56.031C34.3889 55.9517 34.1812 55.835 34.0039 55.681C33.8265 55.527 33.6842 55.3333 33.5769 55.1C33.4742 54.862 33.4229 54.582 33.4229 54.26C33.4229 53.98 33.4999 53.7117 33.6539 53.455C33.8079 53.1937 34.0552 52.9627 34.3959 52.762C34.7412 52.5613 35.1915 52.398 35.7469 52.272C36.3022 52.1413 36.9812 52.0667 37.7839 52.048V51.495C37.7839 50.9443 37.6649 50.529 37.4269 50.249C37.1935 49.9643 36.8459 49.822 36.3839 49.822C36.0805 49.822 35.8239 49.8617 35.6139 49.941C35.4085 50.0157 35.2289 50.102 35.0749 50.2C34.9255 50.2933 34.7949 50.3797 34.6829 50.459C34.5755 50.5337 34.4682 50.571 34.3609 50.571C34.2769 50.571 34.2022 50.55 34.1369 50.508C34.0762 50.4613 34.0272 50.4053 33.9899 50.34L33.7659 49.941C34.1579 49.563 34.5802 49.2807 35.0329 49.094C35.4855 48.9073 35.9872 48.814 36.5379 48.814C36.9345 48.814 37.2869 48.8793 37.5949 49.01C37.9029 49.1407 38.1619 49.3227 38.3719 49.556C38.5819 49.7893 38.7405 50.0717 38.8479 50.403C38.9552 50.7343 39.0089 51.0983 39.0089 51.495V56.031ZM35.7749 55.268C35.9942 55.268 36.1949 55.247 36.3769 55.205C36.5589 55.1583 36.7292 55.0953 36.8879 55.016C37.0512 54.932 37.2052 54.8317 37.3499 54.715C37.4992 54.5983 37.6439 54.4653 37.7839 54.316V52.839C37.2099 52.8577 36.7222 52.9043 36.3209 52.979C35.9195 53.049 35.5929 53.1423 35.3409 53.259C35.0889 53.3757 34.9045 53.5133 34.7879 53.672C34.6759 53.8307 34.6199 54.008 34.6199 54.204C34.6199 54.3907 34.6502 54.5517 34.7109 54.687C34.7715 54.8223 34.8532 54.9343 34.9559 55.023C35.0585 55.107 35.1799 55.17 35.3199 55.212C35.4599 55.2493 35.6115 55.268 35.7749 55.268Z" fill="black"/>
<path d="M43.1956 56.143C42.6356 56.143 42.2039 55.9867 41.9006 55.674C41.6019 55.3613 41.4526 54.911 41.4526 54.323V49.983H40.5986C40.5239 49.983 40.4609 49.962 40.4096 49.92C40.3582 49.8733 40.3326 49.8033 40.3326 49.71V49.213L41.4946 49.066L41.7816 46.875C41.7909 46.805 41.8212 46.749 41.8726 46.707C41.9239 46.6603 41.9892 46.637 42.0686 46.637H42.6986V49.08H44.7286V49.983H42.6986V54.239C42.6986 54.5377 42.7709 54.7593 42.9156 54.904C43.0602 55.0487 43.2469 55.121 43.4756 55.121C43.6062 55.121 43.7182 55.1047 43.8116 55.072C43.9096 55.0347 43.9936 54.995 44.0636 54.953C44.1336 54.911 44.1919 54.8737 44.2386 54.841C44.2899 54.8037 44.3342 54.785 44.3716 54.785C44.4369 54.785 44.4952 54.8247 44.5466 54.904L44.9106 55.499C44.6959 55.6997 44.4369 55.8583 44.1336 55.975C43.8302 56.087 43.5176 56.143 43.1956 56.143Z" fill="black"/>
<path d="M49.2892 48.828C49.8072 48.828 50.2739 48.9143 50.6892 49.087C51.1092 49.2597 51.4639 49.5047 51.7532 49.822C52.0472 50.1393 52.2712 50.5243 52.4252 50.977C52.5839 51.425 52.6632 51.9267 52.6632 52.482C52.6632 53.042 52.5839 53.546 52.4252 53.994C52.2712 54.442 52.0472 54.8247 51.7532 55.142C51.4639 55.4593 51.1092 55.7043 50.6892 55.877C50.2739 56.045 49.8072 56.129 49.2892 56.129C48.7712 56.129 48.3022 56.045 47.8822 55.877C47.4669 55.7043 47.1122 55.4593 46.8182 55.142C46.5242 54.8247 46.2979 54.442 46.1392 53.994C45.9806 53.546 45.9012 53.042 45.9012 52.482C45.9012 51.9267 45.9806 51.425 46.1392 50.977C46.2979 50.5243 46.5242 50.1393 46.8182 49.822C47.1122 49.5047 47.4669 49.2597 47.8822 49.087C48.3022 48.9143 48.7712 48.828 49.2892 48.828ZM49.2892 55.156C49.9892 55.156 50.5119 54.9227 50.8572 54.456C51.2026 53.9847 51.3752 53.329 51.3752 52.489C51.3752 51.6443 51.2026 50.9863 50.8572 50.515C50.5119 50.0437 49.9892 49.808 49.2892 49.808C48.9346 49.808 48.6266 49.8687 48.3652 49.99C48.1039 50.1113 47.8846 50.2863 47.7072 50.515C47.5346 50.7437 47.4039 51.026 47.3152 51.362C47.2312 51.6933 47.1892 52.069 47.1892 52.489C47.1892 52.909 47.2312 53.2847 47.3152 53.616C47.4039 53.9473 47.5346 54.2273 47.7072 54.456C47.8846 54.68 48.1039 54.8527 48.3652 54.974C48.6266 55.0953 48.9346 55.156 49.2892 55.156Z" fill="black"/>
<defs>
<clipPath id="clip0">
<rect width="25.6" height="24" fill="white" transform="translate(19.5316 14)"/>
</clipPath>
</defs>
</svg>
