<svg width="100" height="130" viewBox="0 0 100 130" fill="none" xmlns="http://www.w3.org/2000/svg">
<rect width="100" height="130" rx="10" fill="white"/>
<path d="M50.4964 47.7804C67.4374 47.7804 82.6312 50.218 93 54.065C90.85 30.4511 72.6506 12 50.4964 12C28.3422 12 10.1572 30.4511 8 54.065C18.3688 50.218 33.5626 47.7804 50.4964 47.7804Z" fill="#8EC044"/>
<path d="M41.1487 71.725C41.1487 73.6377 37.6109 75.1909 33.2391 75.1909C28.8672 75.1909 25.3294 73.6377 25.3294 71.725C25.3294 69.8123 28.8744 68.2592 33.2391 68.2592C37.6037 68.2592 41.1487 69.8123 41.1487 71.725Z" fill="#D2D2D2"/>
<path d="M33.7783 79.0234L46.0023 75.1549L74.8078 83.5967L72.1186 86.6742C72.1186 86.6742 35.3243 81.7487 33.7783 79.0234Z" fill="#D2D2D2"/>
<path d="M37.2154 66.7923L36.5466 26.3165L43.5575 21.4053V16.9615L53.3798 13.6826L54.5519 13.9199L54.444 18.3565L62.9721 24.4469V61.6295L54.5519 69.3522L37.2154 66.7923Z" fill="url(#paint0_linear)"/>
<path d="M37.7116 26.5466L44.2622 22.1028L52.6824 28.186L37.7116 26.5466Z" fill="url(#paint1_linear)"/>
<path d="M44.8949 17.0765L43.7372 16.9615L53.4085 13.7185L54.444 13.8192L44.8949 17.0765Z" fill="#EFEEEE"/>
<path d="M37.7116 26.5466L44.2622 22.1028L46.2972 23.7135L37.7116 26.5466Z" fill="#5E686E"/>
<path d="M45.2473 21.736L54.4441 18.3564L62.9721 24.4469L53.9767 28.0206L45.2473 21.736Z" fill="#D6DFE5"/>
<path d="M36.633 26.8558L53.5165 28.7182L54.214 69.0071L37.3305 66.325L36.633 26.8558Z" fill="url(#paint2_linear)"/>
<path d="M23.0355 44.8898L23.9055 53.7773L36.8414 53.9859L36.7623 44.8898H23.0355Z" fill="url(#paint3_linear)"/>
<path d="M44.2478 44.8898H36.7624L36.8415 53.9859L43.3418 54.0937L44.2478 44.8898Z" fill="url(#paint4_linear)"/>
<path d="M23.9057 53.7845L25.5667 70.7184C25.5667 72.1134 29.162 73.2495 33.6418 73.2495C38.1215 73.2495 41.7096 72.1134 41.7096 70.7184L43.3419 54.0937L23.9057 53.7845Z" fill="url(#paint5_linear)"/>
<path d="M33.6416 42.3514C27.7813 42.3514 23.0355 43.4876 23.0355 44.8897C23.0355 46.2919 27.7813 47.428 33.6416 47.428C34.7417 47.428 35.7988 47.3849 36.8126 47.313L36.7623 42.4665C35.7772 42.3946 34.7274 42.3514 33.6416 42.3514Z" fill="url(#paint6_linear)"/>
<path d="M44.2478 44.8898C44.2478 43.7465 41.0983 42.7829 36.7624 42.4666L36.8127 47.313C41.1199 46.9894 44.2478 46.0259 44.2478 44.8898Z" fill="url(#paint7_linear)"/>
<path d="M43.234 53.4969C43.234 54.8991 38.9196 56.0352 33.6561 56.0352C28.3926 56.0352 24.0782 54.8991 24.0782 53.4969C24.0782 52.0947 28.3926 50.9586 33.6561 50.9586C38.9196 50.9586 43.234 52.0947 43.234 53.4969Z" fill="url(#paint8_linear)"/>
<path d="M28.9821 70.4811L27.2061 47.5431L28.4141 47.7085L29.3776 70.6393L28.9821 70.4811Z" fill="#F9FDFF"/>
<path d="M25.9189 69.7477C28.2029 71.1766 30.8468 71.9249 33.5409 71.9049C34.3175 71.9049 35.0653 71.8258 35.7916 71.7755C36.4925 71.6926 37.1886 71.5726 37.8768 71.4159C38.2076 71.3225 38.5312 71.2506 38.8404 71.1427C39.1496 71.0349 39.4444 70.9126 39.7176 70.7688C40.2425 70.474 40.789 70.0929 40.8825 69.5536C40.7354 69.7803 40.5446 69.9753 40.321 70.1272C40.0975 70.2791 39.8459 70.3848 39.581 70.438C39.3006 70.5243 38.9986 70.5818 38.7038 70.6537C38.4089 70.7257 38.0782 70.7472 37.7618 70.7976C37.1218 70.8982 36.4243 70.9126 35.7269 70.9845C35.0294 71.0564 34.2887 71.0564 33.5337 71.0492C30.9412 71.0367 28.3684 70.597 25.9189 69.7477Z" fill="#EEF3F6"/>
<path d="M26.2426 70.8765C27.1733 71.7417 28.3258 72.3316 29.5719 72.5807C30.2806 72.7619 31.0016 72.8916 31.729 72.969C32.4481 73.0409 33.2606 73.0481 34.0588 73.0696C35.5698 73.0695 37.0724 72.8441 38.517 72.4009C39.1599 72.1945 39.7719 71.9018 40.3362 71.5309C40.8559 71.2237 41.2391 70.73 41.4076 70.1503C41.1294 70.6433 40.6864 71.0227 40.1564 71.2217C39.5767 71.4765 38.9718 71.6693 38.3516 71.7969C36.9301 72.0745 35.4855 72.2165 34.0372 72.2212C33.2678 72.2212 32.5128 72.2212 31.7866 72.178C31.0603 72.1349 30.3484 72.0989 29.7013 71.9695C28.4845 71.8516 27.3062 71.4792 26.2426 70.8765Z" fill="#7F929D"/>
<path d="M30.4275 43.1208L29.3776 43.1999L30.1039 50.9226L30.3484 50.7645L30.4275 43.1208Z" fill="#DEE5EA"/>
<path d="M33.5626 47.7301C28.4213 47.7301 22.9565 46.7378 22.9565 44.8898C22.9565 43.0418 28.4213 42.0135 33.5626 42.0135C38.7039 42.0135 44.1687 43.0059 44.1687 44.8898C44.1687 46.7737 38.7039 47.7301 33.5626 47.7301ZM33.5626 42.6967C27.3715 42.6967 23.5749 43.9982 23.5749 44.9257C23.5749 45.8533 27.3715 47.1548 33.5626 47.1548C39.7537 47.1548 43.5575 45.8533 43.5575 44.9257C43.5575 43.9982 39.7537 42.6607 33.5626 42.6607V42.6967Z" fill="url(#paint9_linear)"/>
<path d="M73.4344 80.4185C73.4411 80.0337 73.593 79.6657 73.8598 79.3883C74.1265 79.1109 74.4883 78.9446 74.8726 78.9229L75.0811 69.7549C74.6546 69.6284 74.2815 69.3652 74.0194 69.0058C73.7572 68.6464 73.6205 68.2108 73.6303 67.7661C73.6401 67.3213 73.7959 66.8922 74.0737 66.5447C74.3514 66.1972 74.7357 65.9507 75.1674 65.8432L75.268 61.4641L71.4211 63.8945L35.8061 78.2182L34.8425 77.8371L33.7783 79.0235C33.7783 79.1386 33.7783 79.2105 33.7783 79.2105L71.6008 85.3009L74.815 83.5968V81.907C74.4423 81.8717 74.0955 81.7005 73.8409 81.426C73.5863 81.1515 73.4416 80.7929 73.4344 80.4185Z" fill="url(#paint10_linear)"/>
<path d="M75.304 61.4281C74.851 60.8025 69.6162 55.0932 59.9737 55.5822C36.1225 56.7902 33.9437 76.9598 33.7783 79.0235L34.8425 77.9521L36.3957 77.233L68.1278 64.4913L69.0122 64.1174L71.457 63.8945L75.304 61.4569V61.4281Z" fill="url(#paint11_linear)"/>
<path d="M34.2889 78.8006C34.2889 78.8006 37.726 66.0588 48.8498 63.6212C59.9737 61.1836 71.3492 63.8657 71.3492 63.8657L71.5937 84.5674L34.2889 78.8006Z" fill="url(#paint12_linear)"/>
<path d="M45.9806 75.1549C46.0676 75.4022 46.1046 75.6643 46.0894 75.926C46.0741 76.1877 46.007 76.4438 45.8919 76.6793C45.7768 76.9148 45.6161 77.1251 45.419 77.2979C45.2219 77.4708 44.9924 77.6027 44.7438 77.686C44.2604 77.9036 43.711 77.924 43.2128 77.7427C42.7145 77.5614 42.3067 77.1927 42.0761 76.7153C41.9901 76.4679 41.9539 76.206 41.9696 75.9446C41.9853 75.6832 42.0526 75.4275 42.1676 75.1922C42.2825 74.957 42.4429 74.7468 42.6395 74.5738C42.8361 74.4007 43.0649 74.2683 43.3129 74.1842C43.7964 73.9666 44.3457 73.9462 44.844 74.1275C45.3423 74.3089 45.7501 74.6775 45.9806 75.1549Z" fill="url(#paint13_linear)"/>
<path d="M51.0717 69.2228C51.1023 69.4734 51.056 69.7273 50.939 69.9509C50.8219 70.1745 50.6395 70.3572 50.4162 70.4747C50.1928 70.5922 49.939 70.639 49.6884 70.6089C49.4378 70.5788 49.2023 70.4731 49.0132 70.306C48.824 70.1388 48.6902 69.9181 48.6295 69.6731C48.5688 69.4282 48.584 69.1705 48.6732 68.9344C48.7623 68.6982 48.9212 68.4948 49.1287 68.3511C49.3362 68.2074 49.5825 68.1303 49.8349 68.1299C50.1435 68.1121 50.4467 68.217 50.6783 68.4217C50.91 68.6264 51.0514 68.9144 51.0717 69.2228Z" fill="url(#paint14_linear)"/>
<path d="M68.135 65.3255C68.1656 65.576 68.1193 65.8299 68.0023 66.0535C67.8852 66.2771 67.7028 66.4598 67.4795 66.5774C67.2561 66.6949 67.0023 66.7417 66.7517 66.7116C66.5011 66.6814 66.2656 66.5758 66.0765 66.4086C65.8873 66.2415 65.7535 66.0208 65.6928 65.7758C65.6321 65.5308 65.6473 65.2731 65.7365 65.037C65.8256 64.8009 65.9845 64.5975 66.192 64.4538C66.3995 64.3101 66.6458 64.2329 66.8982 64.2325C67.2064 64.2167 67.5085 64.3222 67.7397 64.5266C67.9709 64.7309 68.1128 65.0177 68.135 65.3255Z" fill="url(#paint15_linear)"/>
<path d="M59.1107 72.8755C59.1499 73.2986 59.0602 73.7237 58.8534 74.0949C58.6467 74.4661 58.3325 74.7661 57.9522 74.9555C57.5718 75.145 57.1431 75.215 56.7223 75.1564C56.3014 75.0978 55.9082 74.9133 55.594 74.6272C55.2799 74.341 55.0597 73.9666 54.9622 73.553C54.8647 73.1394 54.8946 72.7061 55.0478 72.3098C55.2011 71.9135 55.4706 71.5728 55.8209 71.3324C56.1713 71.092 56.5862 70.9632 57.0111 70.9628C57.5418 70.9431 58.0591 71.1325 58.4517 71.4902C58.8443 71.8478 59.081 72.3452 59.1107 72.8755Z" fill="url(#paint16_linear)"/>
<path d="M62.0013 70.2942C61.8693 70.2242 61.7527 70.1285 61.6582 70.0127C61.5637 69.8969 61.4933 69.7635 61.4511 69.6201C61.4089 69.4768 61.3957 69.3265 61.4124 69.178C61.4291 69.0295 61.4753 68.8858 61.5483 68.7554C61.7136 68.4997 61.9725 68.3188 62.2696 68.2516C62.5666 68.1844 62.8781 68.2362 63.1374 68.3959C63.2697 68.4666 63.3865 68.563 63.4811 68.6794C63.5756 68.7958 63.6461 68.9299 63.6882 69.0739C63.7304 69.2178 63.7435 69.3687 63.7267 69.5177C63.7099 69.6667 63.6636 69.8109 63.5904 69.9419C63.4252 70.1979 63.1658 70.3785 62.8683 70.4445C62.5708 70.5104 62.2593 70.4564 62.0013 70.2942Z" fill="url(#paint17_linear)"/>
<path d="M69.1201 72.5951C69.1273 72.9271 69.0352 73.2537 68.8556 73.533C68.6761 73.8123 68.4172 74.0317 68.1123 74.1631C67.8073 74.2945 67.47 74.3318 67.1437 74.2704C66.8174 74.209 66.5168 74.0516 66.2804 73.8183C66.0441 73.5851 65.8827 73.2866 65.817 72.9611C65.7513 72.6356 65.7843 72.2979 65.9116 71.9912C66.039 71.6845 66.255 71.4228 66.5319 71.2396C66.8089 71.0564 67.1342 70.96 67.4663 70.9628C67.9018 70.9609 68.3203 71.1316 68.6302 71.4375C68.9402 71.7434 69.1163 72.1596 69.1201 72.5951Z" fill="url(#paint18_linear)"/>
<path d="M72.8303 77.9952C72.7945 78.232 72.6915 78.4536 72.5336 78.6336C72.3756 78.8136 72.1693 78.9445 71.9391 79.0107C71.709 79.0769 71.4647 79.0757 71.2352 79.0071C71.0057 78.9386 70.8007 78.8057 70.6446 78.6241C70.4884 78.4425 70.3877 78.2199 70.3543 77.9828C70.3209 77.7457 70.3562 77.5039 70.4561 77.2863C70.5561 77.0686 70.7164 76.8842 70.918 76.755C71.1196 76.6257 71.3541 76.5571 71.5935 76.5571C71.9458 76.5901 72.2715 76.7584 72.5022 77.0266C72.7328 77.2948 72.8505 77.6421 72.8303 77.9952Z" fill="url(#paint19_linear)"/>
<path d="M68.401 79.9439C68.4766 80.3233 68.433 80.7169 68.2764 81.0706C68.1197 81.4244 67.8575 81.7211 67.5257 81.9201C67.1939 82.1191 66.8087 82.2107 66.4228 82.1823C66.0369 82.1539 65.6693 82.007 65.3701 81.7616C65.071 81.5162 64.855 81.1844 64.7517 80.8115C64.6485 80.4386 64.663 80.0429 64.7933 79.6786C64.9235 79.3143 65.1632 78.9992 65.4795 78.7763C65.7958 78.5535 66.1733 78.4339 66.5602 78.4338C67.0034 78.3955 67.444 78.5319 67.788 78.8141C68.132 79.0962 68.3519 79.5017 68.401 79.9439Z" fill="url(#paint20_linear)"/>
<path d="M58.9885 65.57C59.0502 65.9752 58.9863 66.3897 58.8053 66.7575C58.6244 67.1254 58.335 67.429 57.9763 67.6274C57.6176 67.8259 57.2067 67.9096 56.7989 67.8675C56.3911 67.8253 56.0061 67.6593 55.6955 67.3916C55.385 67.124 55.1639 66.7677 55.062 66.3706C54.9601 65.9735 54.9823 65.5547 55.1256 65.1706C55.2689 64.7865 55.5265 64.4556 55.8636 64.2223C56.2007 63.989 56.6012 63.8646 57.0111 63.8658C57.4983 63.8339 57.9785 63.9947 58.3484 64.3134C58.7182 64.6322 58.9481 65.0834 58.9885 65.57Z" fill="url(#paint21_linear)"/>
<path d="M53.049 76.8952C53.0294 77.183 52.9261 77.4589 52.7519 77.6889C52.5777 77.9189 52.3401 78.093 52.0683 78.1898C51.7965 78.2867 51.5024 78.302 51.222 78.234C50.9416 78.166 50.6871 78.0175 50.4899 77.8069C50.2927 77.5963 50.1613 77.3327 50.1118 77.0484C50.0624 76.7642 50.097 76.4717 50.2115 76.2068C50.3259 75.942 50.5153 75.7163 50.7562 75.5576C50.9972 75.3988 51.2792 75.3139 51.5677 75.3132C51.9734 75.3282 52.3567 75.5029 52.6341 75.7992C52.9115 76.0955 53.0607 76.4894 53.049 76.8952Z" fill="url(#paint22_linear)"/>
<path d="M45.6356 68.741C45.7289 69.0773 45.7143 69.4345 45.594 69.7621C45.4736 70.0897 45.2535 70.3714 44.9646 70.5673C44.6757 70.7633 44.3327 70.8637 43.9838 70.8544C43.6348 70.8451 43.2976 70.7267 43.0196 70.5156C42.7415 70.3046 42.5367 70.0117 42.4339 69.6781C42.3311 69.3446 42.3355 68.9872 42.4465 68.6562C42.5575 68.3253 42.7695 68.0375 43.0527 67.8334C43.3358 67.6294 43.6759 67.5192 44.0249 67.5186C44.4003 67.4693 44.7799 67.5701 45.0814 67.7989C45.3829 68.0277 45.5821 68.3662 45.6356 68.741Z" fill="url(#paint23_linear)"/>
<path d="M39.2071 76.0465C39.1863 76.2127 39.118 76.3694 39.0104 76.4978C38.9028 76.6261 38.7604 76.7206 38.6003 76.77C38.4403 76.8194 38.2694 76.8216 38.1081 76.7762C37.9469 76.7309 37.8022 76.6399 37.6914 76.5143C37.5805 76.3887 37.5083 76.2338 37.4834 76.0682C37.4585 75.9025 37.4819 75.7332 37.5508 75.5806C37.6197 75.4279 37.7313 75.2984 37.872 75.2076C38.0128 75.1168 38.1767 75.0685 38.3442 75.0686C38.4652 75.0759 38.5835 75.1071 38.6924 75.1602C38.8013 75.2134 38.8986 75.2875 38.9788 75.3784C39.0589 75.4692 39.1204 75.575 39.1596 75.6897C39.1987 75.8043 39.2149 75.9256 39.2071 76.0465Z" fill="url(#paint24_linear)"/>
<path d="M61.8576 78.966C61.8491 79.2402 61.7599 79.5058 61.6013 79.7296C61.4426 79.9534 61.2215 80.1255 60.9655 80.2242C60.7096 80.323 60.4302 80.3441 60.1623 80.2849C59.8944 80.2257 59.65 80.0889 59.4595 79.8915C59.269 79.6941 59.1409 79.4449 59.0913 79.1751C59.0417 78.9052 59.0727 78.6268 59.1806 78.3745C59.2884 78.1223 59.4682 77.9074 59.6975 77.7568C59.9268 77.6062 60.1955 77.5266 60.4698 77.5278C60.8424 77.5409 61.1954 77.6982 61.4543 77.9665C61.7132 78.2348 61.8578 78.5931 61.8576 78.966Z" fill="url(#paint25_linear)"/>
<path d="M21.2112 99.696H26.1712V101H19.6592V89.536H21.2112V99.696Z" fill="black"/>
<path d="M33.7559 101H33.1239C32.9853 101 32.8733 100.979 32.7879 100.936C32.7026 100.893 32.6466 100.803 32.6199 100.664L32.4599 99.912C32.2466 100.104 32.0386 100.277 31.8359 100.432C31.6333 100.581 31.4199 100.709 31.1959 100.816C30.9719 100.917 30.7319 100.995 30.4759 101.048C30.2253 101.101 29.9453 101.128 29.6359 101.128C29.3213 101.128 29.0253 101.085 28.7479 101C28.4759 100.909 28.2386 100.776 28.0359 100.6C27.8333 100.424 27.6706 100.203 27.5479 99.936C27.4306 99.664 27.3719 99.344 27.3719 98.976C27.3719 98.656 27.4599 98.3493 27.6359 98.056C27.8119 97.7573 28.0946 97.4933 28.4839 97.264C28.8786 97.0346 29.3933 96.848 30.0279 96.704C30.6626 96.5546 31.4386 96.4693 32.3559 96.448V95.816C32.3559 95.1866 32.2199 94.712 31.9479 94.392C31.6813 94.0666 31.2839 93.904 30.7559 93.904C30.4093 93.904 30.1159 93.9493 29.8759 94.04C29.6413 94.1253 29.4359 94.224 29.2599 94.336C29.0893 94.4426 28.9399 94.5413 28.8119 94.632C28.6893 94.7173 28.5666 94.76 28.4439 94.76C28.3479 94.76 28.2626 94.736 28.1879 94.688C28.1186 94.6346 28.0626 94.5706 28.0199 94.496L27.7639 94.04C28.2119 93.608 28.6946 93.2853 29.2119 93.072C29.7293 92.8586 30.3026 92.752 30.9319 92.752C31.3853 92.752 31.7879 92.8266 32.1399 92.976C32.4919 93.1253 32.7879 93.3333 33.0279 93.6C33.2679 93.8666 33.4493 94.1893 33.5719 94.568C33.6946 94.9466 33.7559 95.3626 33.7559 95.816V101ZM30.0599 100.128C30.3106 100.128 30.5399 100.104 30.7479 100.056C30.9559 100.003 31.1506 99.9306 31.3319 99.84C31.5186 99.744 31.6946 99.6293 31.8599 99.496C32.0306 99.3626 32.1959 99.2106 32.3559 99.04V97.352C31.6999 97.3733 31.1426 97.4266 30.6839 97.512C30.2253 97.592 29.8519 97.6986 29.5639 97.832C29.2759 97.9653 29.0653 98.1226 28.9319 98.304C28.8039 98.4853 28.7399 98.688 28.7399 98.912C28.7399 99.1253 28.7746 99.3093 28.8439 99.464C28.9133 99.6186 29.0066 99.7466 29.1239 99.848C29.2413 99.944 29.3799 100.016 29.5399 100.064C29.6999 100.107 29.8733 100.128 30.0599 100.128ZM33.1799 89.408L31.3159 91.472C31.2413 91.552 31.1666 91.6106 31.0919 91.648C31.0226 91.68 30.9319 91.696 30.8199 91.696H29.9719L31.1559 89.76C31.2306 89.6373 31.3106 89.5493 31.3959 89.496C31.4866 89.4373 31.6173 89.408 31.7879 89.408H33.1799Z" fill="black"/>
<path d="M41.5913 94.336C41.5486 94.3946 41.506 94.44 41.4633 94.472C41.4206 94.504 41.3593 94.52 41.2793 94.52C41.1993 94.52 41.1113 94.488 41.0153 94.424C40.9246 94.3546 40.8073 94.28 40.6633 94.2C40.5193 94.12 40.3433 94.048 40.1353 93.984C39.9326 93.9146 39.682 93.88 39.3833 93.88C38.9886 93.88 38.6393 93.952 38.3353 94.096C38.0313 94.2346 37.7753 94.4373 37.5673 94.704C37.3646 94.9706 37.21 95.2933 37.1033 95.672C37.002 96.0506 36.9513 96.4746 36.9513 96.944C36.9513 97.4346 37.0073 97.872 37.1193 98.256C37.2313 98.6346 37.3886 98.9546 37.5913 99.216C37.794 99.472 38.0393 99.6693 38.3273 99.808C38.6206 99.9413 38.9486 100.008 39.3113 100.008C39.658 100.008 39.9433 99.968 40.1673 99.888C40.3913 99.8026 40.578 99.7093 40.7273 99.608C40.8766 99.5066 40.9993 99.416 41.0953 99.336C41.1913 99.2506 41.2873 99.208 41.3833 99.208C41.506 99.208 41.5966 99.2533 41.6553 99.344L42.0553 99.864C41.7033 100.296 41.2633 100.613 40.7353 100.816C40.2073 101.013 39.65 101.112 39.0633 101.112C38.5566 101.112 38.0846 101.019 37.6473 100.832C37.2153 100.645 36.8393 100.376 36.5193 100.024C36.1993 99.6666 35.946 99.2293 35.7593 98.712C35.578 98.1946 35.4873 97.6053 35.4873 96.944C35.4873 96.3413 35.57 95.784 35.7353 95.272C35.906 94.76 36.1513 94.32 36.4713 93.952C36.7966 93.5786 37.1966 93.288 37.6713 93.08C38.146 92.872 38.69 92.768 39.3033 92.768C39.8686 92.768 40.37 92.8613 40.8073 93.048C41.2446 93.2293 41.6313 93.488 41.9673 93.824L41.5913 94.336Z" fill="black"/>
<path d="M46.1381 101.128C45.4981 101.128 45.0047 100.949 44.6581 100.592C44.3167 100.235 44.1461 99.72 44.1461 99.048V94.088H43.1701C43.0847 94.088 43.0127 94.064 42.9541 94.016C42.8954 93.9626 42.8661 93.8826 42.8661 93.776V93.208L44.1941 93.04L44.5221 90.536C44.5327 90.456 44.5674 90.392 44.6261 90.344C44.6847 90.2906 44.7594 90.264 44.8501 90.264H45.5701V93.056H47.8901V94.088H45.5701V98.952C45.5701 99.2933 45.6527 99.5466 45.8181 99.712C45.9834 99.8773 46.1967 99.96 46.4581 99.96C46.6074 99.96 46.7354 99.9413 46.8421 99.904C46.9541 99.8613 47.0501 99.816 47.1301 99.768C47.2101 99.72 47.2767 99.6773 47.3301 99.64C47.3887 99.5973 47.4394 99.576 47.4821 99.576C47.5567 99.576 47.6234 99.6213 47.6821 99.712L48.0981 100.392C47.8527 100.621 47.5567 100.803 47.2101 100.936C46.8634 101.064 46.5061 101.128 46.1381 101.128Z" fill="black"/>
<path d="M53.0088 92.768C53.4941 92.768 53.9421 92.8506 54.3528 93.016C54.7635 93.176 55.1181 93.4106 55.4168 93.72C55.7155 94.024 55.9475 94.4026 56.1128 94.856C56.2835 95.304 56.3688 95.816 56.3688 96.392C56.3688 96.616 56.3448 96.7653 56.2968 96.84C56.2488 96.9146 56.1581 96.952 56.0248 96.952H50.6328C50.6435 97.464 50.7128 97.9093 50.8408 98.288C50.9688 98.6666 51.1448 98.984 51.3688 99.24C51.5928 99.4906 51.8595 99.68 52.1688 99.808C52.4781 99.9306 52.8248 99.992 53.2088 99.992C53.5661 99.992 53.8728 99.952 54.1288 99.872C54.3901 99.7866 54.6141 99.696 54.8008 99.6C54.9875 99.504 55.1421 99.416 55.2648 99.336C55.3928 99.2506 55.5021 99.208 55.5928 99.208C55.7101 99.208 55.8008 99.2533 55.8648 99.344L56.2648 99.864C56.0888 100.077 55.8781 100.264 55.6328 100.424C55.3875 100.579 55.1235 100.707 54.8408 100.808C54.5635 100.909 54.2755 100.984 53.9768 101.032C53.6781 101.085 53.3821 101.112 53.0888 101.112C52.5288 101.112 52.0115 101.019 51.5368 100.832C51.0675 100.64 50.6595 100.363 50.3128 100C49.9715 99.632 49.7048 99.1786 49.5128 98.64C49.3208 98.1013 49.2248 97.4826 49.2248 96.784C49.2248 96.2186 49.3101 95.6906 49.4808 95.2C49.6568 94.7093 49.9075 94.2853 50.2328 93.928C50.5581 93.5653 50.9555 93.2826 51.4248 93.08C51.8941 92.872 52.4221 92.768 53.0088 92.768ZM53.0408 93.816C52.3528 93.816 51.8115 94.016 51.4168 94.416C51.0221 94.8106 50.7768 95.36 50.6808 96.064H55.0888C55.0888 95.7333 55.0435 95.432 54.9528 95.16C54.8621 94.8826 54.7288 94.6453 54.5528 94.448C54.3768 94.2453 54.1608 94.0906 53.9048 93.984C53.6541 93.872 53.3661 93.816 53.0408 93.816Z" fill="black"/>
<path d="M61.6214 92.768C62.2134 92.768 62.7468 92.8666 63.2214 93.064C63.7014 93.2613 64.1068 93.5413 64.4374 93.904C64.7734 94.2666 65.0294 94.7066 65.2054 95.224C65.3868 95.736 65.4774 96.3093 65.4774 96.944C65.4774 97.584 65.3868 98.16 65.2054 98.672C65.0294 99.184 64.7734 99.6213 64.4374 99.984C64.1068 100.347 63.7014 100.627 63.2214 100.824C62.7468 101.016 62.2134 101.112 61.6214 101.112C61.0294 101.112 60.4934 101.016 60.0134 100.824C59.5388 100.627 59.1334 100.347 58.7974 99.984C58.4614 99.6213 58.2028 99.184 58.0214 98.672C57.8401 98.16 57.7494 97.584 57.7494 96.944C57.7494 96.3093 57.8401 95.736 58.0214 95.224C58.2028 94.7066 58.4614 94.2666 58.7974 93.904C59.1334 93.5413 59.5388 93.2613 60.0134 93.064C60.4934 92.8666 61.0294 92.768 61.6214 92.768ZM61.6214 100C62.4214 100 63.0188 99.7333 63.4134 99.2C63.8081 98.6613 64.0054 97.912 64.0054 96.952C64.0054 95.9866 63.8081 95.2346 63.4134 94.696C63.0188 94.1573 62.4214 93.888 61.6214 93.888C61.2161 93.888 60.8641 93.9573 60.5654 94.096C60.2668 94.2346 60.0161 94.4346 59.8134 94.696C59.6161 94.9573 59.4668 95.28 59.3654 95.664C59.2694 96.0426 59.2214 96.472 59.2214 96.952C59.2214 97.432 59.2694 97.8613 59.3654 98.24C59.4668 98.6186 59.6161 98.9386 59.8134 99.2C60.0161 99.456 60.2668 99.6533 60.5654 99.792C60.8641 99.9306 61.2161 100 61.6214 100Z" fill="black"/>
<path d="M72.0221 94.232C71.9581 94.3493 71.8594 94.408 71.7261 94.408C71.6461 94.408 71.5554 94.3786 71.4541 94.32C71.3527 94.2613 71.2274 94.1973 71.0781 94.128C70.9341 94.0533 70.7607 93.9866 70.5581 93.928C70.3554 93.864 70.1154 93.832 69.8381 93.832C69.5981 93.832 69.3821 93.864 69.1901 93.928C68.9981 93.9866 68.8327 94.0693 68.6941 94.176C68.5607 94.2826 68.4567 94.408 68.3821 94.552C68.3127 94.6906 68.2781 94.8426 68.2781 95.008C68.2781 95.216 68.3367 95.3893 68.4541 95.528C68.5767 95.6666 68.7367 95.7866 68.9341 95.888C69.1314 95.9893 69.3554 96.08 69.6061 96.16C69.8567 96.2346 70.1127 96.3173 70.3741 96.408C70.6407 96.4933 70.8994 96.5893 71.1501 96.696C71.4007 96.8026 71.6247 96.936 71.8221 97.096C72.0194 97.256 72.1767 97.4533 72.2941 97.688C72.4167 97.9173 72.4781 98.1946 72.4781 98.52C72.4781 98.8933 72.4114 99.24 72.2781 99.56C72.1447 99.8746 71.9474 100.149 71.6861 100.384C71.4247 100.613 71.1047 100.795 70.7261 100.928C70.3474 101.061 69.9101 101.128 69.4141 101.128C68.8487 101.128 68.3367 101.037 67.8781 100.856C67.4194 100.669 67.0301 100.432 66.7101 100.144L67.0461 99.6C67.0887 99.5306 67.1394 99.4773 67.1981 99.44C67.2567 99.4026 67.3341 99.384 67.4301 99.384C67.5261 99.384 67.6274 99.4213 67.7341 99.496C67.8407 99.5706 67.9687 99.6533 68.1181 99.744C68.2727 99.8346 68.4567 99.9173 68.6701 99.992C68.8887 100.067 69.1607 100.104 69.4861 100.104C69.7634 100.104 70.0061 100.069 70.2141 100C70.4221 99.9253 70.5954 99.8266 70.7341 99.704C70.8727 99.5813 70.9741 99.44 71.0381 99.28C71.1074 99.12 71.1421 98.9493 71.1421 98.768C71.1421 98.544 71.0807 98.36 70.9581 98.216C70.8407 98.0666 70.6834 97.9413 70.4861 97.84C70.2887 97.7333 70.0621 97.6426 69.8061 97.568C69.5554 97.488 69.2967 97.4053 69.0301 97.32C68.7687 97.2346 68.5101 97.1386 68.2541 97.032C68.0034 96.92 67.7794 96.7813 67.5821 96.616C67.3847 96.4506 67.2247 96.248 67.1021 96.008C66.9847 95.7626 66.9261 95.4666 66.9261 95.12C66.9261 94.8106 66.9901 94.5146 67.1181 94.232C67.2461 93.944 67.4327 93.6933 67.6781 93.48C67.9234 93.2613 68.2247 93.088 68.5821 92.96C68.9394 92.832 69.3474 92.768 69.8061 92.768C70.3394 92.768 70.8167 92.8533 71.2381 93.024C71.6647 93.1893 72.0327 93.4186 72.3421 93.712L72.0221 94.232Z" fill="black"/>
<path d="M80.0893 103.392C80.0413 103.499 79.98 103.584 79.9053 103.648C79.836 103.712 79.7266 103.744 79.5773 103.744H78.5213L80.0013 100.528L76.6573 92.896H77.8893C78.012 92.896 78.108 92.928 78.1773 92.992C78.2466 93.0506 78.2973 93.1173 78.3293 93.192L80.4973 98.296C80.5453 98.4133 80.5853 98.5306 80.6173 98.648C80.6546 98.7653 80.6866 98.8853 80.7133 99.008C80.7506 98.8853 80.788 98.7653 80.8253 98.648C80.8626 98.5306 80.9053 98.4106 80.9533 98.288L83.0573 93.192C83.0893 93.1066 83.1426 93.0373 83.2173 92.984C83.2973 92.9253 83.3826 92.896 83.4733 92.896H84.6093L80.0893 103.392Z" fill="black"/>
<path d="M27.4024 117V105.216H28.8264V109.984C29.173 109.616 29.557 109.323 29.9784 109.104C30.3997 108.88 30.885 108.768 31.4344 108.768C31.877 108.768 32.2664 108.843 32.6024 108.992C32.9437 109.136 33.2264 109.344 33.4504 109.616C33.6797 109.883 33.853 110.205 33.9704 110.584C34.0877 110.963 34.1464 111.381 34.1464 111.84V117H32.7224V111.84C32.7224 111.227 32.581 110.752 32.2984 110.416C32.021 110.075 31.5944 109.904 31.0184 109.904C30.597 109.904 30.2024 110.005 29.8344 110.208C29.4717 110.411 29.1357 110.685 28.8264 111.032V117H27.4024Z" fill="black"/>
<path d="M37.675 108.896V114.064C37.675 114.677 37.8163 115.152 38.099 115.488C38.3817 115.824 38.8083 115.992 39.379 115.992C39.795 115.992 40.187 115.893 40.555 115.696C40.923 115.499 41.2617 115.224 41.571 114.872V108.896H42.995V117H42.147C41.9443 117 41.8163 116.901 41.763 116.704L41.651 115.832C41.299 116.221 40.9043 116.536 40.467 116.776C40.0297 117.011 39.5283 117.128 38.963 117.128C38.5203 117.128 38.1283 117.056 37.787 116.912C37.451 116.763 37.1683 116.555 36.939 116.288C36.7097 116.021 36.5363 115.699 36.419 115.32C36.307 114.941 36.251 114.523 36.251 114.064V108.896H37.675Z" fill="black"/>
<path d="M48.6916 108.768C49.1769 108.768 49.6249 108.851 50.0356 109.016C50.4463 109.176 50.8009 109.411 51.0996 109.72C51.3983 110.024 51.6303 110.403 51.7956 110.856C51.9663 111.304 52.0516 111.816 52.0516 112.392C52.0516 112.616 52.0276 112.765 51.9796 112.84C51.9316 112.915 51.841 112.952 51.7076 112.952H46.3156C46.3263 113.464 46.3956 113.909 46.5236 114.288C46.6516 114.667 46.8276 114.984 47.0516 115.24C47.2756 115.491 47.5423 115.68 47.8516 115.808C48.1609 115.931 48.5076 115.992 48.8916 115.992C49.2489 115.992 49.5556 115.952 49.8116 115.872C50.0729 115.787 50.2969 115.696 50.4836 115.6C50.6703 115.504 50.8249 115.416 50.9476 115.336C51.0756 115.251 51.1849 115.208 51.2756 115.208C51.3929 115.208 51.4836 115.253 51.5476 115.344L51.9476 115.864C51.7716 116.077 51.5609 116.264 51.3156 116.424C51.0703 116.579 50.8063 116.707 50.5236 116.808C50.2463 116.909 49.9583 116.984 49.6596 117.032C49.361 117.085 49.0649 117.112 48.7716 117.112C48.2116 117.112 47.6943 117.019 47.2196 116.832C46.7503 116.64 46.3423 116.363 45.9956 116C45.6543 115.632 45.3876 115.179 45.1956 114.64C45.0036 114.101 44.9076 113.483 44.9076 112.784C44.9076 112.219 44.9929 111.691 45.1636 111.2C45.3396 110.709 45.5903 110.285 45.9156 109.928C46.2409 109.565 46.6383 109.283 47.1076 109.08C47.5769 108.872 48.1049 108.768 48.6916 108.768ZM48.7236 109.816C48.0356 109.816 47.4943 110.016 47.0996 110.416C46.7049 110.811 46.4596 111.36 46.3636 112.064H50.7716C50.7716 111.733 50.7263 111.432 50.6356 111.16C50.5449 110.883 50.4116 110.645 50.2356 110.448C50.0596 110.245 49.8436 110.091 49.5876 109.984C49.3369 109.872 49.049 109.816 48.7236 109.816Z" fill="black"/>
<path d="M52.7971 108.896H53.9651C54.0771 108.896 54.1705 108.925 54.2451 108.984C54.3198 109.043 54.3731 109.112 54.4051 109.192L56.4611 114.408C56.5358 114.6 56.5944 114.792 56.6371 114.984C56.6798 115.176 56.7198 115.365 56.7571 115.552C56.7998 115.365 56.8451 115.176 56.8931 114.984C56.9411 114.792 57.0025 114.6 57.0771 114.408L59.1571 109.192C59.1891 109.107 59.2398 109.037 59.3091 108.984C59.3838 108.925 59.4744 108.896 59.5811 108.896H60.6931L57.3891 117H56.1011L52.7971 108.896Z" fill="black"/>
<path d="M65.2355 108.768C65.8275 108.768 66.3608 108.867 66.8355 109.064C67.3155 109.261 67.7208 109.541 68.0515 109.904C68.3875 110.267 68.6435 110.707 68.8195 111.224C69.0008 111.736 69.0915 112.309 69.0915 112.944C69.0915 113.584 69.0008 114.16 68.8195 114.672C68.6435 115.184 68.3875 115.621 68.0515 115.984C67.7208 116.347 67.3155 116.627 66.8355 116.824C66.3608 117.016 65.8275 117.112 65.2355 117.112C64.6435 117.112 64.1075 117.016 63.6275 116.824C63.1528 116.627 62.7475 116.347 62.4115 115.984C62.0755 115.621 61.8168 115.184 61.6355 114.672C61.4542 114.16 61.3635 113.584 61.3635 112.944C61.3635 112.309 61.4542 111.736 61.6355 111.224C61.8168 110.707 62.0755 110.267 62.4115 109.904C62.7475 109.541 63.1528 109.261 63.6275 109.064C64.1075 108.867 64.6435 108.768 65.2355 108.768ZM65.2355 116C66.0355 116 66.6328 115.733 67.0275 115.2C67.4222 114.661 67.6195 113.912 67.6195 112.952C67.6195 111.987 67.4222 111.235 67.0275 110.696C66.6328 110.157 66.0355 109.888 65.2355 109.888C64.8302 109.888 64.4782 109.957 64.1795 110.096C63.8808 110.235 63.6302 110.435 63.4275 110.696C63.2302 110.957 63.0808 111.28 62.9795 111.664C62.8835 112.043 62.8355 112.472 62.8355 112.952C62.8355 113.432 62.8835 113.861 62.9795 114.24C63.0808 114.619 63.2302 114.939 63.4275 115.2C63.6302 115.456 63.8808 115.653 64.1795 115.792C64.4782 115.931 64.8302 116 65.2355 116Z" fill="black"/>
<path d="M75.6361 110.232C75.5721 110.349 75.4735 110.408 75.3401 110.408C75.2601 110.408 75.1694 110.379 75.0681 110.32C74.9668 110.261 74.8414 110.197 74.6921 110.128C74.5481 110.053 74.3748 109.987 74.1721 109.928C73.9695 109.864 73.7295 109.832 73.4521 109.832C73.2121 109.832 72.9961 109.864 72.8041 109.928C72.6121 109.987 72.4468 110.069 72.3081 110.176C72.1748 110.283 72.0708 110.408 71.9961 110.552C71.9268 110.691 71.8921 110.843 71.8921 111.008C71.8921 111.216 71.9508 111.389 72.0681 111.528C72.1908 111.667 72.3508 111.787 72.5481 111.888C72.7455 111.989 72.9694 112.08 73.2201 112.16C73.4708 112.235 73.7268 112.317 73.9881 112.408C74.2548 112.493 74.5134 112.589 74.7641 112.696C75.0148 112.803 75.2388 112.936 75.4361 113.096C75.6335 113.256 75.7908 113.453 75.9081 113.688C76.0308 113.917 76.0921 114.195 76.0921 114.52C76.0921 114.893 76.0255 115.24 75.8921 115.56C75.7588 115.875 75.5615 116.149 75.3001 116.384C75.0388 116.613 74.7188 116.795 74.3401 116.928C73.9615 117.061 73.5241 117.128 73.0281 117.128C72.4628 117.128 71.9508 117.037 71.4921 116.856C71.0335 116.669 70.6441 116.432 70.3241 116.144L70.6601 115.6C70.7028 115.531 70.7535 115.477 70.8121 115.44C70.8708 115.403 70.9481 115.384 71.0441 115.384C71.1401 115.384 71.2414 115.421 71.3481 115.496C71.4548 115.571 71.5828 115.653 71.7321 115.744C71.8868 115.835 72.0708 115.917 72.2841 115.992C72.5028 116.067 72.7748 116.104 73.1001 116.104C73.3775 116.104 73.6201 116.069 73.8281 116C74.0361 115.925 74.2094 115.827 74.3481 115.704C74.4868 115.581 74.5881 115.44 74.6521 115.28C74.7214 115.12 74.7561 114.949 74.7561 114.768C74.7561 114.544 74.6948 114.36 74.5721 114.216C74.4548 114.067 74.2975 113.941 74.1001 113.84C73.9028 113.733 73.6761 113.643 73.4201 113.568C73.1695 113.488 72.9108 113.405 72.6441 113.32C72.3828 113.235 72.1241 113.139 71.8681 113.032C71.6175 112.92 71.3934 112.781 71.1961 112.616C70.9988 112.451 70.8388 112.248 70.7161 112.008C70.5988 111.763 70.5401 111.467 70.5401 111.12C70.5401 110.811 70.6041 110.515 70.7321 110.232C70.8601 109.944 71.0468 109.693 71.2921 109.48C71.5374 109.261 71.8388 109.088 72.1961 108.96C72.5534 108.832 72.9615 108.768 73.4201 108.768C73.9535 108.768 74.4308 108.853 74.8521 109.024C75.2788 109.189 75.6468 109.419 75.9561 109.712L75.6361 110.232Z" fill="black"/>
<defs>
<linearGradient id="paint0_linear" x1="36.5466" y1="41.5174" x2="62.9721" y2="41.5174" gradientUnits="userSpaceOnUse">
<stop stop-color="#E6E6E6"/>
<stop offset="0.22" stop-color="#D8DADC"/>
<stop offset="0.65" stop-color="#B2B9C0"/>
<stop offset="1" stop-color="#8E9AA6"/>
</linearGradient>
<linearGradient id="paint1_linear" x1="37.7116" y1="25.1444" x2="52.6824" y2="25.1444" gradientUnits="userSpaceOnUse">
<stop offset="0.01" stop-color="#9FA9AF"/>
<stop offset="0.24" stop-color="#919BA1"/>
<stop offset="0.67" stop-color="#6D757B"/>
<stop offset="1" stop-color="#4E555B"/>
</linearGradient>
<linearGradient id="paint2_linear" x1="38.7614" y1="28.4521" x2="50.6331" y2="62.4493" gradientUnits="userSpaceOnUse">
<stop offset="0.01" stop-color="#E1E8EC"/>
<stop offset="0.65" stop-color="#D5DAE1"/>
<stop offset="1" stop-color="#CDD0D9"/>
</linearGradient>
<linearGradient id="paint3_linear" x1="24.2219" y1="49.5349" x2="35.4968" y2="49.3407" gradientUnits="userSpaceOnUse">
<stop stop-color="#C6CDD6"/>
<stop offset="0.24" stop-color="#E1E8EC"/>
<stop offset="0.45" stop-color="#CED5DC"/>
<stop offset="0.82" stop-color="#B0B8C2"/>
<stop offset="0.98" stop-color="#BFC8D3"/>
</linearGradient>
<linearGradient id="paint4_linear" x1="37.3736" y1="49.5349" x2="43.5863" y2="49.427" gradientUnits="userSpaceOnUse">
<stop offset="0.18" stop-color="#B0B8C2"/>
<stop offset="0.55" stop-color="#CED5DC"/>
<stop offset="0.76" stop-color="#E1E8EC"/>
<stop offset="1" stop-color="#C6CDD6"/>
</linearGradient>
<linearGradient id="paint5_linear" x1="25.6458" y1="63.5709" x2="41.6018" y2="63.2977" gradientUnits="userSpaceOnUse">
<stop stop-color="#C6CDD6"/>
<stop offset="0.24" stop-color="#E1E8EC"/>
<stop offset="0.82" stop-color="#B9C2CC"/>
<stop offset="0.98" stop-color="#BFC8D3"/>
</linearGradient>
<linearGradient id="paint6_linear" x1="24.15" y1="45.0551" x2="35.7844" y2="44.8538" gradientUnits="userSpaceOnUse">
<stop stop-color="#BAC3CF"/>
<stop offset="0.56" stop-color="#D3DAE1"/>
<stop offset="0.99" stop-color="#E1E8EC"/>
</linearGradient>
<linearGradient id="paint7_linear" x1="342.541" y1="264.047" x2="408.237" y2="262.313" gradientUnits="userSpaceOnUse">
<stop stop-color="#BAC3CF"/>
<stop offset="0.56" stop-color="#D3DAE1"/>
<stop offset="0.99" stop-color="#E1E8EC"/>
</linearGradient>
<linearGradient id="paint8_linear" x1="24.0639" y1="53.4969" x2="43.2196" y2="53.4969" gradientUnits="userSpaceOnUse">
<stop stop-color="#F7FBFD"/>
<stop offset="0.7" stop-color="#E9EEF1"/>
<stop offset="1" stop-color="#E1E7EA"/>
</linearGradient>
<linearGradient id="paint9_linear" x1="22.9637" y1="45.0767" x2="44.1687" y2="44.7028" gradientUnits="userSpaceOnUse">
<stop stop-color="#E1E7F2"/>
<stop offset="0.46" stop-color="#F1F4F9"/>
<stop offset="1" stop-color="white"/>
</linearGradient>
<linearGradient id="paint10_linear" x1="55.3213" y1="79.5197" x2="68.8325" y2="55.9345" gradientUnits="userSpaceOnUse">
<stop offset="0.01" stop-color="#DA8900"/>
<stop offset="0.16" stop-color="#E09305"/>
<stop offset="0.7" stop-color="#F4B315"/>
<stop offset="1" stop-color="#FCBF1B"/>
</linearGradient>
<linearGradient id="paint11_linear" x1="33.7783" y1="67.2884" x2="75.304" y2="67.2884" gradientUnits="userSpaceOnUse">
<stop offset="0.15" stop-color="#FFD70F"/>
<stop offset="0.34" stop-color="#F9CB0D"/>
<stop offset="0.68" stop-color="#EAAB07"/>
<stop offset="0.99" stop-color="#DA8900"/>
</linearGradient>
<linearGradient id="paint12_linear" x1="50.8201" y1="63.7291" x2="57.1765" y2="87.9254" gradientUnits="userSpaceOnUse">
<stop stop-color="#FFF155"/>
<stop offset="0.21" stop-color="#FDEC49"/>
<stop offset="0.59" stop-color="#F9DF29"/>
<stop offset="0.99" stop-color="#F4CF00"/>
</linearGradient>
<linearGradient id="paint13_linear" x1="41.9467" y1="75.9243" x2="46.1029" y2="75.9243" gradientUnits="userSpaceOnUse">
<stop stop-color="#DEB000"/>
<stop offset="0.39" stop-color="#DDA400"/>
<stop offset="0.99" stop-color="#DA8900"/>
</linearGradient>
<linearGradient id="paint14_linear" x1="189.062" y1="266.273" x2="197.621" y2="266.273" gradientUnits="userSpaceOnUse">
<stop stop-color="#DEB000"/>
<stop offset="0.39" stop-color="#DDA400"/>
<stop offset="0.99" stop-color="#DA8900"/>
</linearGradient>
<linearGradient id="paint15_linear" x1="265.165" y1="248.853" x2="273.723" y2="248.853" gradientUnits="userSpaceOnUse">
<stop stop-color="#DEB000"/>
<stop offset="0.39" stop-color="#DDA400"/>
<stop offset="0.99" stop-color="#DA8900"/>
</linearGradient>
<linearGradient id="paint16_linear" x1="329.765" y1="427.852" x2="354.415" y2="427.852" gradientUnits="userSpaceOnUse">
<stop stop-color="#DEB000"/>
<stop offset="0.39" stop-color="#DDA400"/>
<stop offset="0.99" stop-color="#DA8900"/>
</linearGradient>
<linearGradient id="paint17_linear" x1="915.43" y1="1446.32" x2="911.784" y2="1452.48" gradientUnits="userSpaceOnUse">
<stop stop-color="#DEB000"/>
<stop offset="0.39" stop-color="#DDA400"/>
<stop offset="0.99" stop-color="#DA8900"/>
</linearGradient>
<linearGradient id="paint18_linear" x1="333.967" y1="352.124" x2="349.448" y2="352.124" gradientUnits="userSpaceOnUse">
<stop stop-color="#DEB000"/>
<stop offset="0.39" stop-color="#DDA400"/>
<stop offset="0.99" stop-color="#DA8900"/>
</linearGradient>
<linearGradient id="paint19_linear" x1="70.3568" y1="77.9952" x2="72.8303" y2="77.9952" gradientUnits="userSpaceOnUse">
<stop offset="0.01" stop-color="#DA8900"/>
<stop offset="0.61" stop-color="#DDA400"/>
<stop offset="1" stop-color="#DEB000"/>
</linearGradient>
<linearGradient id="paint20_linear" x1="360.571" y1="433.695" x2="379.789" y2="433.695" gradientUnits="userSpaceOnUse">
<stop stop-color="#DEB000"/>
<stop offset="0.39" stop-color="#DDA400"/>
<stop offset="0.99" stop-color="#DA8900"/>
</linearGradient>
<linearGradient id="paint21_linear" x1="317.407" y1="363.077" x2="339.515" y2="363.077" gradientUnits="userSpaceOnUse">
<stop stop-color="#DEB000"/>
<stop offset="0.39" stop-color="#DDA400"/>
<stop offset="0.99" stop-color="#DA8900"/>
</linearGradient>
<linearGradient id="paint22_linear" x1="223.323" y1="342.681" x2="235.517" y2="342.681" gradientUnits="userSpaceOnUse">
<stop stop-color="#DEB000"/>
<stop offset="0.39" stop-color="#DDA400"/>
<stop offset="0.99" stop-color="#DA8900"/>
</linearGradient>
<linearGradient id="paint23_linear" x1="202.075" y1="331.715" x2="216.989" y2="331.715" gradientUnits="userSpaceOnUse">
<stop stop-color="#DEB000"/>
<stop offset="0.39" stop-color="#DDA400"/>
<stop offset="0.99" stop-color="#DA8900"/>
</linearGradient>
<linearGradient id="paint24_linear" x1="108.604" y1="230.061" x2="112.787" y2="230.061" gradientUnits="userSpaceOnUse">
<stop stop-color="#DEB000"/>
<stop offset="0.39" stop-color="#DDA400"/>
<stop offset="0.99" stop-color="#DA8900"/>
</linearGradient>
<linearGradient id="paint25_linear" x1="257.191" y1="337.356" x2="267.986" y2="337.356" gradientUnits="userSpaceOnUse">
<stop stop-color="#DEB000"/>
<stop offset="0.39" stop-color="#DDA400"/>
<stop offset="0.99" stop-color="#DA8900"/>
</linearGradient>
</defs>
</svg>
