<svg width="88" height="114" viewBox="0 0 88 114" fill="none" xmlns="http://www.w3.org/2000/svg">
<path d="M24.2483 74.328C24.2003 74.408 24.147 74.4693 24.0883 74.512C24.035 74.5493 23.9683 74.568 23.8883 74.568C23.7976 74.568 23.691 74.5227 23.5683 74.432C23.4456 74.3413 23.291 74.2427 23.1043 74.136C22.923 74.024 22.7016 73.9227 22.4403 73.832C22.1843 73.7413 21.8723 73.696 21.5043 73.696C21.1576 73.696 20.851 73.744 20.5843 73.84C20.323 73.9307 20.1016 74.056 19.9203 74.216C19.7443 74.376 19.611 74.5653 19.5203 74.784C19.4296 74.9973 19.3843 75.2293 19.3843 75.48C19.3843 75.8 19.4616 76.0667 19.6163 76.28C19.7763 76.488 19.9843 76.6667 20.2403 76.816C20.5016 76.9653 20.795 77.096 21.1203 77.208C21.451 77.3147 21.787 77.4267 22.1283 77.544C22.475 77.6613 22.811 77.7947 23.1363 77.944C23.467 78.088 23.7603 78.272 24.0163 78.496C24.2776 78.72 24.4856 78.9947 24.6403 79.32C24.8003 79.6453 24.8803 80.0453 24.8803 80.52C24.8803 81.0213 24.795 81.4933 24.6243 81.936C24.4536 82.3733 24.203 82.7547 23.8723 83.08C23.547 83.4053 23.1443 83.6613 22.6643 83.848C22.1896 84.0347 21.6483 84.128 21.0403 84.128C20.2936 84.128 19.6163 83.9947 19.0083 83.728C18.4003 83.456 17.8803 83.0907 17.4483 82.632L17.8963 81.896C17.939 81.8373 17.9896 81.7893 18.0483 81.752C18.1123 81.7093 18.1816 81.688 18.2563 81.688C18.3256 81.688 18.403 81.7173 18.4883 81.776C18.579 81.8293 18.6803 81.8987 18.7923 81.984C18.9043 82.0693 19.0323 82.1627 19.1763 82.264C19.3203 82.3653 19.483 82.4587 19.6643 82.544C19.851 82.6293 20.0616 82.7013 20.2963 82.76C20.531 82.8133 20.795 82.84 21.0883 82.84C21.4563 82.84 21.7843 82.7893 22.0723 82.688C22.3603 82.5867 22.603 82.4453 22.8003 82.264C23.003 82.0773 23.1576 81.856 23.2643 81.6C23.371 81.344 23.4243 81.0587 23.4243 80.744C23.4243 80.3973 23.3443 80.1147 23.1843 79.896C23.0296 79.672 22.8243 79.4853 22.5683 79.336C22.3123 79.1867 22.019 79.0613 21.6883 78.96C21.3576 78.8533 21.0216 78.7467 20.6803 78.64C20.339 78.528 20.003 78.4 19.6723 78.256C19.3416 78.112 19.0483 77.9253 18.7923 77.696C18.5363 77.4667 18.3283 77.1813 18.1683 76.84C18.0136 76.4933 17.9363 76.0667 17.9363 75.56C17.9363 75.1547 18.0136 74.7627 18.1683 74.384C18.3283 74.0053 18.5576 73.6693 18.8563 73.376C19.1603 73.0827 19.531 72.848 19.9683 72.672C20.411 72.496 20.9176 72.408 21.4883 72.408C22.1283 72.408 22.7096 72.5093 23.2323 72.712C23.7603 72.9147 24.2243 73.208 24.6243 73.592L24.2483 74.328ZM30.2549 75.768C30.8469 75.768 31.3803 75.8667 31.8549 76.064C32.3296 76.2613 32.7349 76.5413 33.0709 76.904C33.4069 77.2667 33.6629 77.7067 33.8389 78.224C34.0203 78.736 34.1109 79.3093 34.1109 79.944C34.1109 80.584 34.0203 81.16 33.8389 81.672C33.6629 82.184 33.4069 82.6213 33.0709 82.984C32.7349 83.3467 32.3296 83.6267 31.8549 83.824C31.3803 84.016 30.8469 84.112 30.2549 84.112C29.6576 84.112 29.1189 84.016 28.6389 83.824C28.1643 83.6267 27.7589 83.3467 27.4229 82.984C27.0869 82.6213 26.8283 82.184 26.6469 81.672C26.4709 81.16 26.3829 80.584 26.3829 79.944C26.3829 79.3093 26.4709 78.736 26.6469 78.224C26.8283 77.7067 27.0869 77.2667 27.4229 76.904C27.7589 76.5413 28.1643 76.2613 28.6389 76.064C29.1189 75.8667 29.6576 75.768 30.2549 75.768ZM30.2549 83C31.0549 83 31.6523 82.7333 32.0469 82.2C32.4416 81.6613 32.6389 80.912 32.6389 79.952C32.6389 78.9867 32.4416 78.2347 32.0469 77.696C31.6523 77.1573 31.0549 76.888 30.2549 76.888C29.8496 76.888 29.4949 76.9573 29.1909 77.096C28.8923 77.2347 28.6416 77.4347 28.4389 77.696C28.2416 77.9573 28.0923 78.28 27.9909 78.664C27.8949 79.0427 27.8469 79.472 27.8469 79.952C27.8469 80.912 28.0443 81.6613 28.4389 82.2C28.8389 82.7333 29.4443 83 30.2549 83ZM37.4991 82.048C37.7604 82.4 38.0457 82.648 38.3551 82.792C38.6644 82.936 39.0111 83.008 39.3951 83.008C40.1524 83.008 40.7337 82.7387 41.1391 82.2C41.5444 81.6613 41.7471 80.8933 41.7471 79.896C41.7471 79.368 41.6991 78.9147 41.6031 78.536C41.5124 78.1573 41.3791 77.848 41.2031 77.608C41.0271 77.3627 40.8111 77.184 40.5551 77.072C40.2991 76.96 40.0084 76.904 39.6831 76.904C39.2191 76.904 38.8111 77.0107 38.4591 77.224C38.1124 77.4373 37.7924 77.7387 37.4991 78.128V82.048ZM37.4271 77.152C37.7684 76.7307 38.1631 76.392 38.6111 76.136C39.0591 75.88 39.5711 75.752 40.1471 75.752C40.6164 75.752 41.0404 75.8427 41.4191 76.024C41.7977 76.2 42.1204 76.464 42.3871 76.816C42.6537 77.1627 42.8591 77.5947 43.0031 78.112C43.1471 78.6293 43.2191 79.224 43.2191 79.896C43.2191 80.4933 43.1391 81.0507 42.9791 81.568C42.8191 82.08 42.5871 82.5253 42.2831 82.904C41.9844 83.2773 41.6164 83.5733 41.1791 83.792C40.7471 84.0053 40.2591 84.112 39.7151 84.112C39.2191 84.112 38.7924 84.0293 38.4351 83.864C38.0831 83.6933 37.7711 83.4587 37.4991 83.16V86.744H36.0671V75.896H36.9231C37.1257 75.896 37.2511 75.9947 37.2991 76.192L37.4271 77.152ZM49.5778 80.352C48.9218 80.3733 48.3618 80.4267 47.8978 80.512C47.4391 80.592 47.0631 80.6987 46.7698 80.832C46.4818 80.9653 46.2711 81.1227 46.1378 81.304C46.0098 81.4853 45.9458 81.688 45.9458 81.912C45.9458 82.1253 45.9805 82.3093 46.0498 82.464C46.1191 82.6187 46.2125 82.7467 46.3298 82.848C46.4525 82.944 46.5938 83.016 46.7538 83.064C46.9191 83.1067 47.0951 83.128 47.2818 83.128C47.5325 83.128 47.7618 83.104 47.9698 83.056C48.1778 83.0027 48.3725 82.928 48.5538 82.832C48.7405 82.736 48.9165 82.6213 49.0818 82.488C49.2525 82.3547 49.4178 82.2027 49.5778 82.032V80.352ZM44.9778 77.04C45.4258 76.608 45.9085 76.2853 46.4258 76.072C46.9431 75.8587 47.5165 75.752 48.1458 75.752C48.5991 75.752 49.0018 75.8267 49.3538 75.976C49.7058 76.1253 50.0018 76.3333 50.2418 76.6C50.4818 76.8667 50.6631 77.1893 50.7858 77.568C50.9085 77.9467 50.9698 78.3627 50.9698 78.816V84H50.3378C50.1991 84 50.0925 83.9787 50.0178 83.936C49.9431 83.888 49.8845 83.7973 49.8418 83.664L49.6818 82.896C49.4685 83.0933 49.2605 83.2693 49.0578 83.424C48.8551 83.5733 48.6418 83.7013 48.4178 83.808C48.1938 83.9093 47.9538 83.9867 47.6978 84.04C47.4471 84.0987 47.1671 84.128 46.8578 84.128C46.5431 84.128 46.2471 84.0853 45.9698 84C45.6925 83.9093 45.4498 83.776 45.2418 83.6C45.0391 83.424 44.8765 83.2027 44.7538 82.936C44.6365 82.664 44.5778 82.344 44.5778 81.976C44.5778 81.656 44.6658 81.3493 44.8418 81.056C45.0178 80.7573 45.3031 80.4933 45.6978 80.264C46.0925 80.0347 46.6071 79.848 47.2418 79.704C47.8765 79.5547 48.6551 79.4693 49.5778 79.448V78.816C49.5778 78.1867 49.4418 77.712 49.1698 77.392C48.8978 77.0667 48.5005 76.904 47.9778 76.904C47.6258 76.904 47.3298 76.9493 47.0898 77.04C46.8551 77.1253 46.6498 77.224 46.4738 77.336C46.3031 77.4427 46.1538 77.5413 46.0258 77.632C45.9031 77.7173 45.7805 77.76 45.6578 77.76C45.5618 77.76 45.4791 77.736 45.4098 77.688C45.3405 77.6347 45.2818 77.5707 45.2338 77.496L44.9778 77.04ZM58.0089 77.232C57.9449 77.3493 57.8463 77.408 57.7129 77.408C57.6329 77.408 57.5423 77.3787 57.4409 77.32C57.3396 77.2613 57.2143 77.1973 57.0649 77.128C56.9209 77.0533 56.7476 76.9867 56.5449 76.928C56.3423 76.864 56.1023 76.832 55.8249 76.832C55.5849 76.832 55.3689 76.864 55.1769 76.928C54.9849 76.9867 54.8196 77.0693 54.6809 77.176C54.5476 77.2827 54.4436 77.408 54.3689 77.552C54.2996 77.6907 54.2649 77.8427 54.2649 78.008C54.2649 78.216 54.3236 78.3893 54.4409 78.528C54.5636 78.6667 54.7236 78.7867 54.9209 78.888C55.1183 78.9893 55.3423 79.08 55.5929 79.16C55.8436 79.2347 56.0996 79.3173 56.3609 79.408C56.6276 79.4933 56.8863 79.5893 57.1369 79.696C57.3876 79.8027 57.6116 79.936 57.8089 80.096C58.0063 80.256 58.1636 80.4533 58.2809 80.688C58.4036 80.9173 58.4649 81.1947 58.4649 81.52C58.4649 81.8933 58.3983 82.24 58.2649 82.56C58.1316 82.8747 57.9343 83.1493 57.6729 83.384C57.4116 83.6133 57.0916 83.7947 56.7129 83.928C56.3343 84.0613 55.8969 84.128 55.4009 84.128C54.8356 84.128 54.3236 84.0373 53.8649 83.856C53.4063 83.6693 53.0169 83.432 52.6969 83.144L53.0329 82.6C53.0756 82.5307 53.1263 82.4773 53.1849 82.44C53.2436 82.4027 53.3183 82.384 53.4089 82.384C53.5049 82.384 53.6063 82.4213 53.7129 82.496C53.8196 82.5707 53.9476 82.6533 54.0969 82.744C54.2516 82.8347 54.4383 82.9173 54.6569 82.992C54.8756 83.0667 55.1476 83.104 55.4729 83.104C55.7503 83.104 55.9929 83.0693 56.2009 83C56.4089 82.9253 56.5823 82.8267 56.7209 82.704C56.8596 82.5813 56.9609 82.44 57.0249 82.28C57.0943 82.12 57.1289 81.9493 57.1289 81.768C57.1289 81.544 57.0676 81.36 56.9449 81.216C56.8276 81.0667 56.6703 80.9413 56.4729 80.84C56.2756 80.7333 56.0489 80.6427 55.7929 80.568C55.5423 80.488 55.2836 80.4053 55.0169 80.32C54.7556 80.2347 54.4969 80.1387 54.2409 80.032C53.9903 79.92 53.7663 79.7813 53.5689 79.616C53.3716 79.4507 53.2116 79.248 53.0889 79.008C52.9716 78.7627 52.9129 78.4667 52.9129 78.12C52.9129 77.8107 52.9769 77.5147 53.1049 77.232C53.2329 76.944 53.4196 76.6933 53.6649 76.48C53.9103 76.2613 54.2116 76.088 54.5689 75.96C54.9263 75.832 55.3343 75.768 55.7929 75.768C56.3263 75.768 56.8036 75.8533 57.2249 76.024C57.6516 76.1893 58.0196 76.4187 58.3289 76.712L58.0089 77.232ZM71.1903 75.896L66.6703 86.392C66.6223 86.4987 66.561 86.584 66.4863 86.648C66.417 86.712 66.3076 86.744 66.1583 86.744H65.1023L66.5823 83.528L63.2383 75.896H64.4703C64.593 75.896 64.689 75.928 64.7583 75.992C64.833 76.0507 64.8836 76.1173 64.9103 76.192L67.0783 81.296C67.1636 81.52 67.2356 81.7547 67.2943 82C67.369 81.7493 67.449 81.512 67.5343 81.288L69.6383 76.192C69.6703 76.1067 69.7236 76.0373 69.7983 75.984C69.8783 75.9253 69.9663 75.896 70.0623 75.896H71.1903ZM25.5805 101.336C25.5378 101.395 25.4952 101.44 25.4525 101.472C25.4098 101.504 25.3512 101.52 25.2765 101.52C25.1965 101.52 25.1085 101.488 25.0125 101.424C24.9165 101.355 24.7965 101.28 24.6525 101.2C24.5138 101.12 24.3405 101.048 24.1325 100.984C23.9298 100.915 23.6792 100.88 23.3805 100.88C22.9805 100.88 22.6285 100.952 22.3245 101.096C22.0205 101.235 21.7645 101.437 21.5565 101.704C21.3538 101.971 21.1992 102.293 21.0925 102.672C20.9912 103.051 20.9405 103.475 20.9405 103.944C20.9405 104.435 20.9965 104.872 21.1085 105.256C21.2205 105.635 21.3778 105.955 21.5805 106.216C21.7885 106.472 22.0365 106.669 22.3245 106.808C22.6178 106.941 22.9458 107.008 23.3085 107.008C23.6552 107.008 23.9405 106.968 24.1645 106.888C24.3885 106.803 24.5725 106.709 24.7165 106.608C24.8658 106.507 24.9885 106.416 25.0845 106.336C25.1858 106.251 25.2845 106.208 25.3805 106.208C25.4978 106.208 25.5885 106.253 25.6525 106.344L26.0525 106.864C25.8765 107.083 25.6765 107.269 25.4525 107.424C25.2285 107.579 24.9858 107.709 24.7245 107.816C24.4685 107.917 24.1992 107.992 23.9165 108.04C23.6338 108.088 23.3458 108.112 23.0525 108.112C22.5458 108.112 22.0738 108.019 21.6365 107.832C21.2045 107.645 20.8285 107.376 20.5085 107.024C20.1885 106.667 19.9378 106.229 19.7565 105.712C19.5752 105.195 19.4845 104.605 19.4845 103.944C19.4845 103.341 19.5672 102.784 19.7325 102.272C19.9032 101.76 20.1485 101.32 20.4685 100.952C20.7938 100.579 21.1912 100.288 21.6605 100.08C22.1352 99.872 22.6792 99.768 23.2925 99.768C23.8632 99.768 24.3645 99.8613 24.7965 100.048C25.2338 100.229 25.6205 100.488 25.9565 100.824L25.5805 101.336ZM29.0831 101.52C29.3391 100.965 29.6538 100.533 30.0271 100.224C30.4005 99.9093 30.8565 99.752 31.3951 99.752C31.5658 99.752 31.7285 99.7707 31.8831 99.808C32.0431 99.8453 32.1845 99.904 32.3071 99.984L32.2031 101.048C32.1711 101.181 32.0911 101.248 31.9631 101.248C31.8885 101.248 31.7791 101.232 31.6351 101.2C31.4911 101.168 31.3285 101.152 31.1471 101.152C30.8911 101.152 30.6618 101.189 30.4591 101.264C30.2618 101.339 30.0831 101.451 29.9231 101.6C29.7685 101.744 29.6271 101.925 29.4991 102.144C29.3765 102.357 29.2645 102.603 29.1631 102.88V108H27.7311V99.896H28.5471C28.7018 99.896 28.8085 99.9253 28.8671 99.984C28.9258 100.043 28.9658 100.144 28.9871 100.288L29.0831 101.52ZM38.8051 103.064C38.8051 102.733 38.7571 102.432 38.6611 102.16C38.5705 101.883 38.4345 101.645 38.2531 101.448C38.0771 101.245 37.8611 101.091 37.6051 100.984C37.3491 100.872 37.0585 100.816 36.7331 100.816C36.0505 100.816 35.5091 101.016 35.1091 101.416C34.7145 101.811 34.4691 102.36 34.3731 103.064H38.8051ZM39.9571 106.864C39.7811 107.077 39.5705 107.264 39.3251 107.424C39.0798 107.579 38.8158 107.707 38.5331 107.808C38.2558 107.909 37.9678 107.984 37.6691 108.032C37.3705 108.085 37.0745 108.112 36.7811 108.112C36.2211 108.112 35.7038 108.019 35.2291 107.832C34.7598 107.64 34.3518 107.363 34.0051 107C33.6638 106.632 33.3971 106.179 33.2051 105.64C33.0131 105.101 32.9171 104.483 32.9171 103.784C32.9171 103.219 33.0025 102.691 33.1731 102.2C33.3491 101.709 33.5998 101.285 33.9251 100.928C34.2505 100.565 34.6478 100.283 35.1171 100.08C35.5865 99.872 36.1145 99.768 36.7011 99.768C37.1865 99.768 37.6345 99.8507 38.0451 100.016C38.4611 100.176 38.8185 100.411 39.1171 100.72C39.4211 101.024 39.6585 101.403 39.8291 101.856C39.9998 102.304 40.0851 102.816 40.0851 103.392C40.0851 103.616 40.0611 103.765 40.0131 103.84C39.9651 103.915 39.8745 103.952 39.7411 103.952H34.3251C34.3411 104.464 34.4105 104.909 34.5331 105.288C34.6611 105.667 34.8371 105.984 35.0611 106.24C35.2851 106.491 35.5518 106.68 35.8611 106.808C36.1705 106.931 36.5171 106.992 36.9011 106.992C37.2585 106.992 37.5651 106.952 37.8211 106.872C38.0825 106.787 38.3065 106.696 38.4931 106.6C38.6798 106.504 38.8345 106.416 38.9571 106.336C39.0851 106.251 39.1945 106.208 39.2851 106.208C39.4025 106.208 39.4931 106.253 39.5571 106.344L39.9571 106.864ZM41.9843 108V99.896H42.8403C43.0429 99.896 43.1683 99.9947 43.2163 100.192L43.3203 101.024C43.6189 100.656 43.9549 100.355 44.3283 100.12C44.7016 99.8853 45.1336 99.768 45.6243 99.768C46.1683 99.768 46.6083 99.92 46.9443 100.224C47.2856 100.528 47.5309 100.939 47.6803 101.456C47.7976 101.163 47.9469 100.909 48.1283 100.696C48.3149 100.483 48.5229 100.307 48.7523 100.168C48.9816 100.029 49.2243 99.928 49.4803 99.864C49.7416 99.8 50.0056 99.768 50.2723 99.768C50.6989 99.768 51.0776 99.8373 51.4083 99.976C51.7443 100.109 52.0269 100.307 52.2563 100.568C52.4909 100.829 52.6696 101.152 52.7923 101.536C52.9149 101.915 52.9763 102.349 52.9763 102.84V108H51.5443V102.84C51.5443 102.205 51.4056 101.725 51.1283 101.4C50.8509 101.069 50.4509 100.904 49.9283 100.904C49.6936 100.904 49.4696 100.947 49.2563 101.032C49.0483 101.112 48.8643 101.232 48.7043 101.392C48.5443 101.552 48.4163 101.755 48.3203 102C48.2296 102.24 48.1843 102.52 48.1843 102.84V108H46.7523V102.84C46.7523 102.189 46.6216 101.704 46.3603 101.384C46.0989 101.064 45.7176 100.904 45.2163 100.904C44.8643 100.904 44.5389 101 44.2403 101.192C43.9416 101.379 43.6669 101.635 43.4163 101.96V108H41.9843ZM59.6825 104.352C59.0265 104.373 58.4665 104.427 58.0025 104.512C57.5438 104.592 57.1678 104.699 56.8745 104.832C56.5865 104.965 56.3758 105.123 56.2425 105.304C56.1145 105.485 56.0505 105.688 56.0505 105.912C56.0505 106.125 56.0852 106.309 56.1545 106.464C56.2238 106.619 56.3172 106.747 56.4345 106.848C56.5572 106.944 56.6985 107.016 56.8585 107.064C57.0238 107.107 57.1998 107.128 57.3865 107.128C57.6372 107.128 57.8665 107.104 58.0745 107.056C58.2825 107.003 58.4772 106.928 58.6585 106.832C58.8452 106.736 59.0212 106.621 59.1865 106.488C59.3572 106.355 59.5225 106.203 59.6825 106.032V104.352ZM55.0825 101.04C55.5305 100.608 56.0132 100.285 56.5305 100.072C57.0478 99.8587 57.6212 99.752 58.2505 99.752C58.7038 99.752 59.1065 99.8267 59.4585 99.976C59.8105 100.125 60.1065 100.333 60.3465 100.6C60.5865 100.867 60.7678 101.189 60.8905 101.568C61.0132 101.947 61.0745 102.363 61.0745 102.816V108H60.4425C60.3038 108 60.1972 107.979 60.1225 107.936C60.0478 107.888 59.9892 107.797 59.9465 107.664L59.7865 106.896C59.5732 107.093 59.3652 107.269 59.1625 107.424C58.9598 107.573 58.7465 107.701 58.5225 107.808C58.2985 107.909 58.0585 107.987 57.8025 108.04C57.5518 108.099 57.2718 108.128 56.9625 108.128C56.6478 108.128 56.3518 108.085 56.0745 108C55.7972 107.909 55.5545 107.776 55.3465 107.6C55.1438 107.424 54.9812 107.203 54.8585 106.936C54.7412 106.664 54.6825 106.344 54.6825 105.976C54.6825 105.656 54.7705 105.349 54.9465 105.056C55.1225 104.757 55.4078 104.493 55.8025 104.264C56.1972 104.035 56.7118 103.848 57.3465 103.704C57.9812 103.555 58.7598 103.469 59.6825 103.448V102.816C59.6825 102.187 59.5465 101.712 59.2745 101.392C59.0025 101.067 58.6052 100.904 58.0825 100.904C57.7305 100.904 57.4345 100.949 57.1945 101.04C56.9598 101.125 56.7545 101.224 56.5785 101.336C56.4078 101.443 56.2585 101.541 56.1305 101.632C56.0078 101.717 55.8852 101.76 55.7625 101.76C55.6665 101.76 55.5838 101.736 55.5145 101.688C55.4452 101.635 55.3865 101.571 55.3385 101.496L55.0825 101.04ZM68.1136 101.232C68.0496 101.349 67.951 101.408 67.8176 101.408C67.7376 101.408 67.647 101.379 67.5456 101.32C67.4443 101.261 67.319 101.197 67.1696 101.128C67.0256 101.053 66.8523 100.987 66.6496 100.928C66.447 100.864 66.207 100.832 65.9296 100.832C65.6896 100.832 65.4736 100.864 65.2816 100.928C65.0896 100.987 64.9243 101.069 64.7856 101.176C64.6523 101.283 64.5483 101.408 64.4736 101.552C64.4043 101.691 64.3696 101.843 64.3696 102.008C64.3696 102.216 64.4283 102.389 64.5456 102.528C64.6683 102.667 64.8283 102.787 65.0256 102.888C65.223 102.989 65.447 103.08 65.6976 103.16C65.9483 103.235 66.2043 103.317 66.4656 103.408C66.7323 103.493 66.991 103.589 67.2416 103.696C67.4923 103.803 67.7163 103.936 67.9136 104.096C68.111 104.256 68.2683 104.453 68.3856 104.688C68.5083 104.917 68.5696 105.195 68.5696 105.52C68.5696 105.893 68.503 106.24 68.3696 106.56C68.2363 106.875 68.039 107.149 67.7776 107.384C67.5163 107.613 67.1963 107.795 66.8176 107.928C66.439 108.061 66.0016 108.128 65.5056 108.128C64.9403 108.128 64.4283 108.037 63.9696 107.856C63.511 107.669 63.1216 107.432 62.8016 107.144L63.1376 106.6C63.1803 106.531 63.231 106.477 63.2896 106.44C63.3483 106.403 63.423 106.384 63.5136 106.384C63.6096 106.384 63.711 106.421 63.8176 106.496C63.9243 106.571 64.0523 106.653 64.2016 106.744C64.3563 106.835 64.543 106.917 64.7616 106.992C64.9803 107.067 65.2523 107.104 65.5776 107.104C65.855 107.104 66.0976 107.069 66.3056 107C66.5136 106.925 66.687 106.827 66.8256 106.704C66.9643 106.581 67.0656 106.44 67.1296 106.28C67.199 106.12 67.2336 105.949 67.2336 105.768C67.2336 105.544 67.1723 105.36 67.0496 105.216C66.9323 105.067 66.775 104.941 66.5776 104.84C66.3803 104.733 66.1536 104.643 65.8976 104.568C65.647 104.488 65.3883 104.405 65.1216 104.32C64.8603 104.235 64.6016 104.139 64.3456 104.032C64.095 103.92 63.871 103.781 63.6736 103.616C63.4763 103.451 63.3163 103.248 63.1936 103.008C63.0763 102.763 63.0176 102.467 63.0176 102.12C63.0176 101.811 63.0816 101.515 63.2096 101.232C63.3376 100.944 63.5243 100.693 63.7696 100.48C64.015 100.261 64.3163 100.088 64.6736 99.96C65.031 99.832 65.439 99.768 65.8976 99.768C66.431 99.768 66.9083 99.8533 67.3296 100.024C67.7563 100.189 68.1243 100.419 68.4336 100.712L68.1136 101.232Z" fill="black"/>
<path d="M42.5 35.8122C59.4712 35.8122 74.6447 38.2572 85 42.0685C82.8426 18.4814 64.6489 0 42.5 0C20.3511 0 2.15736 18.4814 0 42.0685C10.3553 38.1853 25.5288 35.8122 42.5 35.8122Z" fill="#8EC044"/>
<path d="M13.0163 30.5626C12.8724 31.6413 12.8005 32.72 12.8005 33.7987C12.8005 43.2191 18.2659 51.489 26.6076 56.3071V59.687H26.6796C26.8234 62.4916 34.3741 64.7927 43.6508 64.7927C52.9274 64.7927 60.4782 62.4916 60.622 59.687V56.3071C68.9638 51.489 74.4291 43.1472 74.4291 33.7987C74.4291 32.72 74.3572 31.6413 74.2134 30.5626H13.0163Z" fill="url(#paint0_linear)"/>
<path d="M14.8859 36.8188C14.6702 38.329 15.0297 40.2706 15.7489 42.1403C16.468 44.01 17.6186 45.8798 19.0568 47.6776C20.495 49.4754 22.0771 50.9136 23.7311 52.1361C25.3851 53.2867 27.039 54.1496 28.5492 54.4373C27.2548 53.5743 25.9604 52.4238 24.6659 51.0574C23.2996 49.6911 21.9333 48.1809 20.567 46.4551C17.9062 43.0752 15.7489 39.8392 14.8859 36.8188Z" fill="#E7E7E7"/>
<path d="M27.9021 57.0981C31.4258 59.687 37.2507 61.6286 43.6508 61.5567C46.8869 61.5567 49.9791 61.1252 52.6398 60.2623C55.3006 59.3993 57.6737 58.1049 59.1838 56.5228C57.2422 57.4577 54.8691 58.033 52.2084 58.3925C49.6195 58.7521 46.7431 58.9678 43.6508 58.9678C37.6102 58.9678 32.073 58.1768 27.9021 57.0981Z" fill="#949494"/>
<path d="M73.9257 30.9221C73.9257 35.4526 60.3343 39.1201 43.5788 39.1201C26.8233 39.1201 13.2319 35.4526 13.2319 30.9221C13.2319 26.3917 26.8233 22.7242 43.5788 22.7242C60.3343 22.6523 73.9257 26.3917 73.9257 30.9221Z" fill="url(#paint1_linear)"/>
<path d="M15.2456 33.8705C19.7761 37.9695 30.7786 40.8459 43.5789 40.8459C56.3793 40.8459 67.3818 37.9695 71.9123 33.8705C67.3818 29.7715 56.3793 26.895 43.5789 26.895C30.7786 26.9669 19.7761 29.8434 15.2456 33.8705Z" fill="url(#paint2_linear)"/>
<path d="M35.2371 32.5761C35.2371 32.8638 34.6618 33.0076 33.8707 33.0076C33.1516 33.0076 32.5044 32.7919 32.5044 32.5761C32.5044 32.2885 33.0797 32.1447 33.8707 32.1447C34.5898 32.0728 35.2371 32.2885 35.2371 32.5761Z" fill="#F6C643"/>
<path d="M27.1831 34.5178C27.1831 34.8054 26.6078 34.9493 25.8168 34.9493C25.0976 34.9493 24.4504 34.7335 24.4504 34.5178C24.4504 34.2301 25.0257 34.0863 25.8168 34.0863C26.5359 34.0144 27.1831 34.2301 27.1831 34.5178Z" fill="#F6C643"/>
<path d="M41.2056 35.4526C41.2056 35.7403 40.6303 35.8841 39.8392 35.8841C39.1201 35.8841 38.4729 35.6683 38.4729 35.4526C38.4729 35.165 39.0482 35.0211 39.8392 35.0211C40.6303 34.9492 41.2056 35.165 41.2056 35.4526Z" fill="#F6C643"/>
<path d="M37.4663 35.0211C37.4663 35.3087 36.891 35.4525 36.1 35.4525C35.3089 35.4525 34.7336 35.2368 34.7336 35.0211C34.7336 34.7334 35.3089 34.5896 36.1 34.5896C36.891 34.5896 37.4663 34.8053 37.4663 35.0211Z" fill="#F6C643"/>
<path d="M44.9451 32.5761C44.9451 32.8638 44.3698 33.0076 43.5787 33.0076C42.8596 33.0076 42.2124 32.7919 42.2124 32.5761C42.2124 32.2885 42.7877 32.1447 43.5787 32.1447C44.3698 32.0728 44.9451 32.2885 44.9451 32.5761Z" fill="#F6C643"/>
<path d="M44.0102 36.8189C44.0102 37.1066 43.4349 37.2504 42.6439 37.2504C41.9248 37.2504 41.2776 37.0347 41.2776 36.8189C41.2776 36.5313 41.8529 36.3875 42.6439 36.3875C43.4349 36.3875 44.0102 36.6032 44.0102 36.8189Z" fill="#F6C643"/>
<path d="M38.8325 37.7538C38.8325 38.0414 38.2572 38.1852 37.4662 38.1852C36.7471 38.1852 36.0999 37.9695 36.0999 37.7538C36.0999 37.4661 36.6751 37.3223 37.4662 37.3223C38.2572 37.2504 38.8325 37.4661 38.8325 37.7538Z" fill="#F6C643"/>
<path d="M43.2195 34.2301C43.2195 34.5177 42.6442 34.6616 41.8531 34.6616C41.134 34.6616 40.4868 34.4458 40.4868 34.2301C40.4868 33.9424 41.0621 33.7986 41.8531 33.7986C42.6442 33.7267 43.2195 33.9424 43.2195 34.2301Z" fill="#F6C643"/>
<path d="M48.397 32.7918C48.397 33.0795 47.8217 33.2233 47.0306 33.2233C46.3115 33.2233 45.6643 33.0076 45.6643 32.7918C45.6643 32.5042 46.2396 32.3604 47.0306 32.3604C47.8217 32.2885 48.397 32.5042 48.397 32.7918Z" fill="#F6C643"/>
<path d="M53.2869 38.1134C53.2869 38.401 52.7116 38.5448 51.9205 38.5448C51.2014 38.5448 50.5542 38.3291 50.5542 38.1134C50.5542 37.8257 51.1295 37.6819 51.9205 37.6819C52.7116 37.61 53.2869 37.8257 53.2869 38.1134Z" fill="#F6C643"/>
<path d="M65.5119 36.5313C65.5119 36.819 64.9367 36.9628 64.1456 36.9628C63.4265 36.9628 62.7793 36.7471 62.7793 36.5313C62.7793 36.2437 63.3546 36.0999 64.1456 36.0999C64.9367 36.0999 65.5119 36.3156 65.5119 36.5313Z" fill="#F6C643"/>
<path d="M34.446 38.4729C34.446 38.7605 33.8707 38.9043 33.0797 38.9043C32.3606 38.9043 31.7134 38.6886 31.7134 38.4729C31.7134 38.1852 32.2887 38.0414 33.0797 38.0414C33.8707 37.9695 34.446 38.1852 34.446 38.4729Z" fill="#F6C643"/>
<path d="M25.8884 36.0998C25.8884 36.3875 25.3131 36.5313 24.5221 36.5313C23.803 36.5313 23.1558 36.3156 23.1558 36.0998C23.1558 35.8122 23.7311 35.6684 24.5221 35.6684C25.3131 35.5964 25.8884 35.8122 25.8884 36.0998Z" fill="#F6C643"/>
<path d="M51.4892 34.5897C51.4892 34.8773 50.9139 35.0212 50.1229 35.0212C49.4038 35.0212 48.7566 34.8054 48.7566 34.5897C48.7566 34.302 49.3319 34.1582 50.1229 34.1582C50.842 34.0863 51.4892 34.302 51.4892 34.5897Z" fill="#F6C643"/>
<path d="M56.595 36.0279C56.595 36.3156 56.0197 36.4594 55.2286 36.4594C54.5095 36.4594 53.8623 36.2437 53.8623 36.0279C53.8623 35.7403 54.4376 35.5965 55.2286 35.5965C55.9478 35.5245 56.595 35.7403 56.595 36.0279Z" fill="#F6C643"/>
<path d="M45.2329 34.9492C45.2329 35.2368 44.6576 35.3807 43.8666 35.3807C43.1475 35.3807 42.5002 35.1649 42.5002 34.9492C42.5002 34.6615 43.0755 34.5177 43.8666 34.5177C44.5857 34.4458 45.2329 34.6615 45.2329 34.9492Z" fill="#F6C643"/>
<path d="M54.0061 31.3536C54.0061 31.6413 53.4308 31.7851 52.6398 31.7851C51.9206 31.7851 51.2734 31.5693 51.2734 31.3536C51.2734 31.066 51.8487 30.9221 52.6398 30.9221C53.3589 30.8502 54.0061 31.066 54.0061 31.3536Z" fill="#F6C643"/>
<path d="M51.1296 36.0279C51.1296 36.3156 50.5543 36.4594 49.7633 36.4594C49.0442 36.4594 48.397 36.2437 48.397 36.0279C48.397 35.7403 48.9723 35.5965 49.7633 35.5965C50.4824 35.5245 51.1296 35.7403 51.1296 36.0279Z" fill="#F6C643"/>
<path d="M47.4622 34.3738C47.4622 34.5896 47.0308 34.7334 46.5274 34.7334C46.024 34.7334 45.5925 34.5896 45.5925 34.3738C45.5925 34.23 46.024 34.0143 46.5274 34.0143C47.0308 34.0862 47.4622 34.23 47.4622 34.3738Z" fill="#F6C643"/>
<path d="M33.4395 35.8122C33.4395 36.0279 33.0081 36.1718 32.5047 36.1718C32.0013 36.1718 31.5698 36.0279 31.5698 35.8122C31.5698 35.6684 32.0013 35.4526 32.5047 35.4526C33.0081 35.4526 33.4395 35.5965 33.4395 35.8122Z" fill="#F6C643"/>
<path d="M50.5543 32.0728C50.5543 32.2166 50.1228 32.4324 49.6194 32.4324C49.116 32.4324 48.6846 32.2886 48.6846 32.0728C48.6846 31.8571 49.116 31.7133 49.6194 31.7133C50.1228 31.7852 50.5543 31.929 50.5543 32.0728Z" fill="#F6C643"/>
<path d="M57.8895 33.9424C57.8895 34.0863 57.458 34.302 56.9546 34.302C56.4512 34.302 56.0198 34.1582 56.0198 33.9424C56.0198 33.7986 56.4512 33.5829 56.9546 33.5829C57.458 33.6548 57.8895 33.7986 57.8895 33.9424Z" fill="#F6C643"/>
<path d="M54.5814 33.7267C54.5814 33.8706 54.1499 34.0863 53.6465 34.0863C53.1431 34.0863 52.7117 33.9425 52.7117 33.7267C52.7117 33.5829 53.1431 33.3672 53.6465 33.3672C54.1499 33.4391 54.5814 33.5829 54.5814 33.7267Z" fill="#F6C643"/>
<path d="M55.5162 37.7538C55.5162 37.8977 55.0847 38.1134 54.5813 38.1134C54.078 38.1134 53.6465 37.9696 53.6465 37.7538C53.6465 37.61 54.078 37.3943 54.5813 37.3943C55.0847 37.3943 55.5162 37.5381 55.5162 37.7538Z" fill="#F6C643"/>
<path d="M55.732 32.4323C55.732 32.5761 55.3005 32.7919 54.7972 32.7919C54.2938 32.7919 53.8623 32.6481 53.8623 32.4323C53.8623 32.2885 54.2938 32.0728 54.7972 32.0728C55.3005 32.0728 55.732 32.2166 55.732 32.4323Z" fill="#F6C643"/>
<path d="M39.4798 33.0076C39.4798 33.1515 39.0483 33.3672 38.545 33.3672C38.0416 33.3672 37.6101 33.2234 37.6101 33.0076C37.6101 32.8638 38.0416 32.6481 38.545 32.6481C39.0483 32.72 39.4798 32.8638 39.4798 33.0076Z" fill="#F6C643"/>
<path d="M28.1178 32.1446C28.1178 32.2884 27.6863 32.5042 27.1829 32.5042C26.6795 32.5042 26.248 32.3603 26.248 32.1446C26.248 31.9289 26.6795 31.785 27.1829 31.785C27.6863 31.785 28.1178 31.9289 28.1178 32.1446Z" fill="#F6C643"/>
<path d="M65.9434 33.9424C65.9434 34.0863 65.512 34.302 65.0086 34.302C64.5052 34.302 64.0737 34.1582 64.0737 33.9424C64.0737 33.7986 64.5052 33.5829 65.0086 33.5829C65.512 33.6548 65.9434 33.7986 65.9434 33.9424Z" fill="#F6C643"/>
<path d="M60.6219 31.7851C60.6219 31.9289 60.1904 32.1447 59.6871 32.1447C59.1837 32.1447 58.7522 32.0008 58.7522 31.7851C58.7522 31.5694 59.1837 31.4255 59.6871 31.4255C60.1904 31.4255 60.6219 31.6413 60.6219 31.7851Z" fill="#F6C643"/>
<path d="M43.4351 39.192C43.4351 39.4796 42.8598 39.6235 42.0687 39.6235C41.3496 39.6235 40.7024 39.4077 40.7024 39.192C40.7024 38.9043 41.2777 38.7605 42.0687 38.7605C42.8598 38.6886 43.4351 38.9043 43.4351 39.192Z" fill="#F6C643"/>
<path d="M48.8284 38.5449C48.8284 38.8325 48.2531 38.9763 47.462 38.9763C46.671 38.9763 46.0957 38.7606 46.0957 38.5449C46.0957 38.2572 46.671 38.1134 47.462 38.1134C48.2531 38.1134 48.8284 38.3291 48.8284 38.5449Z" fill="#F6C643"/>
<path d="M51.4172 33.5109C51.4172 33.6547 51.1296 33.7266 50.77 33.7266C50.4105 33.7266 50.1228 33.6547 50.1228 33.5109C50.1228 33.3671 50.4105 33.2952 50.77 33.2952C51.1296 33.2952 51.4172 33.439 51.4172 33.5109Z" fill="#F6C643"/>
<path d="M59.1118 37.0346C59.1118 37.1784 58.8242 37.2503 58.4646 37.2503C58.105 37.2503 57.8174 37.1784 57.8174 37.0346C57.8174 36.8908 58.105 36.8188 58.4646 36.8188C58.8242 36.8188 59.1118 36.8908 59.1118 37.0346Z" fill="#F6C643"/>
<path d="M39.9114 30.5625C39.9114 30.7064 39.6237 30.7783 39.2641 30.7783C38.9046 30.7783 38.6169 30.7064 38.6169 30.5625C38.6169 30.4187 38.9046 30.3468 39.2641 30.3468C39.6237 30.3468 39.9114 30.4187 39.9114 30.5625Z" fill="#F6C643"/>
<path d="M43.5788 29.6997C43.5788 29.8436 43.2912 29.9155 42.9316 29.9155C42.5721 29.9155 42.2844 29.8436 42.2844 29.6997C42.2844 29.5559 42.5721 29.484 42.9316 29.484C43.2912 29.484 43.5788 29.5559 43.5788 29.6997Z" fill="#F6C643"/>
<path d="M31.7134 29.5558C31.7134 29.6996 31.4257 29.7716 31.0662 29.7716C30.7066 29.7716 30.4189 29.6996 30.4189 29.5558C30.4189 29.412 30.7066 29.3401 31.0662 29.3401C31.4257 29.3401 31.7134 29.412 31.7134 29.5558Z" fill="#F6C643"/>
<path d="M37.0349 30.1311C37.0349 30.2749 36.7472 30.3468 36.3877 30.3468C36.0281 30.3468 35.7405 30.2749 35.7405 30.1311C35.7405 29.9873 36.0281 29.9154 36.3877 29.9154C36.7472 29.8435 37.0349 29.9873 37.0349 30.1311Z" fill="#F6C643"/>
<path d="M30.4189 31.2816C30.4189 31.4254 30.1313 31.4974 29.7717 31.4974C29.4122 31.4974 29.1245 31.4254 29.1245 31.2816C29.1245 31.1378 29.4122 31.0659 29.7717 31.0659C30.1313 30.994 30.4189 31.1378 30.4189 31.2816Z" fill="#F6C643"/>
<path d="M29.4841 36.0998C29.4841 36.2436 29.1965 36.3155 28.8369 36.3155C28.4773 36.3155 28.1897 36.2436 28.1897 36.0998C28.1897 35.9559 28.4773 35.884 28.8369 35.884C29.1965 35.884 29.4841 35.9559 29.4841 36.0998Z" fill="#F6C643"/>
<path d="M30.0593 33.5829C30.0593 33.7267 29.7717 33.7987 29.4121 33.7987C29.0525 33.7987 28.7649 33.7267 28.7649 33.5829C28.7649 33.4391 29.0525 33.3672 29.4121 33.3672C29.7717 33.3672 30.0593 33.4391 30.0593 33.5829Z" fill="#F6C643"/>
<path d="M44.5857 31.1379C44.5857 31.2817 44.298 31.3536 43.9385 31.3536C43.5789 31.3536 43.2913 31.2817 43.2913 31.1379C43.2913 30.994 43.5789 30.9221 43.9385 30.9221C44.298 30.9221 44.5857 30.994 44.5857 31.1379Z" fill="#F6C643"/>
<path d="M40.3428 31.4256C40.3428 31.5694 40.0551 31.6413 39.6955 31.6413C39.336 31.6413 39.0483 31.5694 39.0483 31.4256C39.0483 31.2818 39.336 31.2098 39.6955 31.2098C40.0551 31.2098 40.3428 31.3537 40.3428 31.4256Z" fill="#F6C643"/>
<path d="M22.5805 32.2885C22.5805 32.4323 22.2929 32.5042 21.9333 32.5042C21.5738 32.5042 21.2861 32.4323 21.2861 32.2885C21.2861 32.1447 21.5738 32.0728 21.9333 32.0728C22.2929 32.0728 22.5805 32.2166 22.5805 32.2885Z" fill="#F6C643"/>
<path d="M19.5603 33.1514C19.5603 33.2952 19.2726 33.3671 18.9131 33.3671C18.5535 33.3671 18.2659 33.2952 18.2659 33.1514C18.2659 33.0076 18.5535 32.9357 18.9131 32.9357C19.2726 32.9357 19.5603 33.0795 19.5603 33.1514Z" fill="#F6C643"/>
<path d="M62.4197 30.8503C62.4197 30.9941 62.132 31.066 61.7725 31.066C61.4129 31.066 61.1252 30.9941 61.1252 30.8503C61.1252 30.7064 61.4129 30.6345 61.7725 30.6345C62.132 30.6345 62.4197 30.7064 62.4197 30.8503Z" fill="#F6C643"/>
<path d="M64.7209 32.7918C64.7209 32.9356 64.4333 33.0075 64.0737 33.0075C63.7142 33.0075 63.4265 32.9356 63.4265 32.7918C63.4265 32.648 63.7142 32.576 64.0737 32.576C64.4333 32.576 64.7209 32.648 64.7209 32.7918Z" fill="#F6C643"/>
<path d="M68.3884 32.8638C68.3884 33.0076 68.1008 33.0795 67.7412 33.0795C67.3816 33.0795 67.094 33.0076 67.094 32.8638C67.094 32.72 67.3816 32.6481 67.7412 32.6481C68.1008 32.6481 68.3884 32.7919 68.3884 32.8638Z" fill="#F6C643"/>
<path d="M23.0119 33.9425C23.0119 34.0864 22.7243 34.1583 22.3647 34.1583C22.0052 34.1583 21.7175 34.0864 21.7175 33.9425C21.7175 33.7987 22.0052 33.7268 22.3647 33.7268C22.7243 33.7268 23.0119 33.7987 23.0119 33.9425Z" fill="#F6C643"/>
<path d="M61.9883 33.2952C61.9883 33.439 61.7006 33.5109 61.3411 33.5109C60.9815 33.5109 60.6938 33.439 60.6938 33.2952C60.6938 33.1514 60.9815 33.0795 61.3411 33.0795C61.7006 33.0795 61.9883 33.1514 61.9883 33.2952Z" fill="#F6C643"/>
<path d="M59.3994 35.8841C59.3994 36.0279 59.1117 36.0998 58.7522 36.0998C58.3926 36.0998 58.105 36.0279 58.105 35.8841C58.105 35.7402 58.3926 35.6683 58.7522 35.6683C59.0398 35.6683 59.3994 35.7402 59.3994 35.8841Z" fill="#F6C643"/>
<path d="M65.2961 31.7852C65.2961 31.929 65.0085 32.0009 64.6489 32.0009C64.2894 32.0009 64.0017 31.929 64.0017 31.7852C64.0017 31.6414 64.2894 31.5695 64.6489 31.5695C65.0085 31.5695 65.2961 31.6414 65.2961 31.7852Z" fill="#F6C643"/>
<path d="M24.2346 33.3672C23.1559 33.3672 22.221 33.6548 21.7896 34.0863C22.1491 34.5178 23.084 34.8054 24.2346 34.8054C25.3132 34.8054 26.2481 34.5178 26.6796 34.0863C26.2481 33.6548 25.3132 33.3672 24.2346 33.3672Z" fill="#3F8834"/>
<path d="M26.3198 32.2884C25.9603 31.5693 25.385 31.1378 24.8816 31.0659C24.6659 31.4974 24.7378 32.2165 25.0973 32.8637C25.4569 33.5828 26.0322 34.0143 26.5356 34.0862C26.7513 33.7267 26.6794 33.0075 26.3198 32.2884Z" fill="#3F8834"/>
<path d="M27.974 33.2233C28.4055 32.5761 28.5493 31.857 28.4055 31.4255C27.9021 31.4255 27.3268 31.7851 26.8953 32.4323C26.4638 33.0795 26.32 33.7986 26.4638 34.2301C26.8953 34.2301 27.4706 33.7986 27.974 33.2233Z" fill="#3F8834"/>
<path d="M51.8486 31.929C50.9137 31.4256 49.9069 31.2099 49.4036 31.3537C49.5474 31.929 50.2665 32.5762 51.2014 33.1515C52.1362 33.6549 53.143 33.8706 53.6464 33.7268C53.5026 33.1515 52.8553 32.4324 51.8486 31.929Z" fill="#3F8834"/>
<path d="M54.2216 32.0009C54.2216 31.2099 53.9339 30.5627 53.5743 30.275C53.2148 30.5627 52.9271 31.2099 52.8552 32.0009C52.8552 32.7919 53.1429 33.4392 53.5024 33.7268C53.9339 33.4392 54.2216 32.7919 54.2216 32.0009Z" fill="#3F8834"/>
<path d="M55.2284 33.5829C55.9475 33.2233 56.3789 32.72 56.4509 32.2166C56.0194 32.0008 55.3003 32.0008 54.5812 32.3604C53.862 32.72 53.4306 33.2233 53.3586 33.7267C53.7901 33.9425 54.5092 33.8705 55.2284 33.5829Z" fill="#3F8834"/>
<path d="M31.7856 37.2504H43.0758C43.0758 37.2504 41.4219 39.1201 37.8263 39.192C33.5115 39.3358 31.7856 37.2504 31.7856 37.2504Z" fill="#C55B03"/>
<path d="M43.0038 36.9628C42.86 36.6751 42.7162 36.4594 42.5004 36.1717C42.3566 35.8841 42.2847 35.5245 42.069 35.3088C41.8532 35.0931 41.7094 34.8054 41.4937 34.5897C41.2779 34.3739 41.0622 34.1582 40.7746 33.9425C40.4869 33.7986 40.1274 33.8706 39.9116 33.7267C39.624 33.5829 39.4801 33.1514 39.1925 33.0076C38.9048 32.9357 38.5453 32.9357 38.2576 32.8638C37.97 32.7919 37.6104 32.7919 37.3228 32.7919C37.0351 32.7919 36.7475 32.9357 36.3879 33.0076C36.1003 33.0795 35.7407 32.9357 35.4531 33.0076C35.1654 33.0795 34.9497 33.3672 34.662 33.511C34.3744 33.6548 34.2306 33.9425 33.9429 34.1582C33.6553 34.302 33.2238 34.2301 33.0081 34.4458C32.7923 34.6616 32.5766 34.9492 32.3609 35.2369C32.1451 35.4526 32.0732 35.8122 31.8575 36.0998C31.7136 36.3875 31.7856 36.8189 31.7136 37.1066C31.7136 37.1785 31.6417 37.2504 31.5698 37.3223H43.1477C43.0757 37.1785 43.0757 37.1066 43.0038 36.9628Z" fill="url(#paint3_radial)"/>
<path d="M35.8845 34.8054C35.8845 35.093 35.5968 35.3088 35.3092 35.3088C34.9496 35.3088 34.7339 35.093 34.7339 34.8054C34.7339 34.5177 35.0215 34.302 35.3092 34.302C35.5968 34.302 35.8845 34.5897 35.8845 34.8054Z" fill="#50270E"/>
<path d="M34.5903 35.8121C34.5903 36.0997 34.3026 36.3155 34.015 36.3155C33.6554 36.3155 33.4397 36.0997 33.4397 35.8121C33.4397 35.5245 33.7273 35.3087 34.015 35.3087C34.3026 35.3087 34.5903 35.5245 34.5903 35.8121Z" fill="#50270E"/>
<path d="M38.2575 35.2368C38.2575 35.5244 37.9699 35.7402 37.6822 35.7402C37.3227 35.7402 37.1069 35.5244 37.1069 35.2368C37.1069 34.9491 37.3946 34.7334 37.6822 34.7334C37.9699 34.7334 38.2575 35.021 38.2575 35.2368Z" fill="#50270E"/>
<path d="M38.0417 33.5829C38.0417 33.8705 37.7541 34.0862 37.4664 34.0862C37.1068 34.0862 36.8911 33.8705 36.8911 33.5829C36.8911 33.2952 37.1788 33.0795 37.4664 33.0795C37.7541 33.0795 38.0417 33.3671 38.0417 33.5829Z" fill="#50270E"/>
<path d="M40.1992 35.165C40.1992 35.4527 39.9115 35.6684 39.6239 35.6684C39.2643 35.6684 39.0486 35.4527 39.0486 35.165C39.0486 34.8774 39.3362 34.6616 39.6239 34.6616C39.9115 34.6616 40.1992 34.8774 40.1992 35.165Z" fill="#50270E"/>
<path d="M36.7474 34.6616C36.7474 34.8054 36.6036 34.9492 36.4598 34.9492C36.3159 34.9492 36.1721 34.8054 36.1721 34.6616C36.1721 34.5177 36.3159 34.3739 36.4598 34.3739C36.6036 34.3739 36.7474 34.5177 36.7474 34.6616Z" fill="#50270E"/>
<path d="M39.0487 34.0145C39.0487 34.1583 38.9049 34.3021 38.761 34.3021C38.6172 34.3021 38.4734 34.1583 38.4734 34.0145C38.4734 33.8706 38.6172 33.7268 38.761 33.7268C38.9049 33.7268 39.0487 33.8706 39.0487 34.0145Z" fill="#50270E"/>
<path d="M39.1925 36.2437C39.1925 36.3875 39.0487 36.5314 38.9048 36.5314C38.761 36.5314 38.6172 36.3875 38.6172 36.2437C38.6172 36.0999 38.761 35.9561 38.9048 35.9561C39.0487 35.9561 39.1925 36.0999 39.1925 36.2437Z" fill="#50270E"/>
<path d="M35.9564 33.7987C35.9564 33.9425 35.8126 34.0863 35.6687 34.0863C35.5249 34.0863 35.3811 33.9425 35.3811 33.7987C35.3811 33.6548 35.5249 33.511 35.6687 33.511C35.8126 33.4391 35.9564 33.5829 35.9564 33.7987Z" fill="#50270E"/>
<path d="M36.244 36.3155C36.244 36.4593 36.1002 36.6031 35.9564 36.6031C35.8125 36.6031 35.6687 36.4593 35.6687 36.3155C35.6687 36.1717 35.8125 36.0278 35.9564 36.0278C36.1002 36.0278 36.244 36.1717 36.244 36.3155Z" fill="#50270E"/>
<path d="M42.2126 35.8841C42.2126 36.1718 41.925 36.3875 41.6373 36.3875C41.2777 36.3875 41.062 36.1718 41.062 35.8841C41.062 35.5965 41.3497 35.3807 41.6373 35.3807C41.925 35.3807 42.2126 35.6684 42.2126 35.8841Z" fill="#50270E"/>
<path d="M41.5652 30.4188H48.7564C48.7564 30.4188 47.6777 31.5694 45.3765 31.6413C42.7158 31.6413 41.5652 30.4188 41.5652 30.4188Z" fill="#C55B03"/>
<path d="M48.7564 30.275C48.6845 30.0592 48.5406 29.9154 48.4687 29.7716C48.3968 29.6278 48.3249 29.412 48.1811 29.2682C48.0372 29.1244 47.9653 28.9806 47.8215 28.8367C47.6777 28.6929 47.5339 28.5491 47.39 28.4772C47.2462 28.4053 46.9586 28.4053 46.8147 28.3334C46.6709 28.2614 46.5271 27.9738 46.3833 27.9019C46.1675 27.83 46.0237 27.83 45.808 27.83C45.5922 27.83 45.4484 27.7581 45.2327 27.7581C45.0169 27.7581 44.8731 27.83 44.6574 27.9019C44.4416 27.9019 44.2259 27.83 44.0821 27.9019C43.8663 27.9738 43.7225 28.1176 43.5787 28.1895C43.4349 28.2614 43.291 28.4772 43.1472 28.5491C43.0034 28.621 42.7158 28.621 42.5719 28.6929C42.4281 28.8367 42.2843 28.9806 42.2124 29.1963C42.0685 29.3401 41.9966 29.5559 41.9247 29.6997C41.8528 29.8435 41.8528 30.1312 41.7809 30.3469C41.7809 30.4188 41.709 30.4188 41.709 30.4907H48.9721C48.8283 30.3469 48.7564 30.275 48.7564 30.275Z" fill="url(#paint4_radial)"/>
<path d="M44.1539 28.9086C44.1539 29.0524 44.0101 29.1963 43.7944 29.1963C43.5786 29.1963 43.4348 29.0524 43.4348 28.9086C43.4348 28.7648 43.5786 28.621 43.7944 28.621C44.0101 28.621 44.1539 28.7648 44.1539 28.9086Z" fill="#50270E"/>
<path d="M43.3632 29.5559C43.3632 29.6997 43.2193 29.8435 43.0036 29.8435C42.7879 29.8435 42.644 29.6997 42.644 29.5559C42.644 29.412 42.7879 29.2682 43.0036 29.2682C43.2193 29.1963 43.3632 29.3401 43.3632 29.5559Z" fill="#50270E"/>
<path d="M45.7362 29.1962C45.7362 29.3401 45.5924 29.4839 45.3766 29.4839C45.1609 29.4839 45.0171 29.3401 45.0171 29.1962C45.0171 29.0524 45.1609 28.9086 45.3766 28.9086C45.5205 28.8367 45.7362 28.9805 45.7362 29.1962Z" fill="#50270E"/>
<path d="M45.5922 28.1894C45.5922 28.3332 45.4483 28.4771 45.2326 28.4771C45.0169 28.4771 44.873 28.3332 44.873 28.1894C44.873 28.0456 45.0169 27.9018 45.2326 27.9018C45.3764 27.8299 45.5922 27.9737 45.5922 28.1894Z" fill="#50270E"/>
<path d="M46.9584 29.1243C46.9584 29.2681 46.8146 29.412 46.5988 29.412C46.3831 29.412 46.2393 29.2681 46.2393 29.1243C46.2393 28.9805 46.3831 28.8367 46.5988 28.8367C46.8146 28.8367 46.9584 28.9805 46.9584 29.1243Z" fill="#50270E"/>
<path d="M44.7293 28.8367C44.7293 28.9086 44.6574 29.0524 44.5136 29.0524C44.4417 29.0524 44.2979 28.9805 44.2979 28.8367C44.2979 28.6929 44.3698 28.621 44.5136 28.621C44.6574 28.621 44.7293 28.6929 44.7293 28.8367Z" fill="#50270E"/>
<path d="M46.2393 28.4052C46.2393 28.549 46.1674 28.6209 46.0236 28.6209C45.9517 28.6209 45.8079 28.549 45.8079 28.4052C45.8079 28.3333 45.8798 28.1895 46.0236 28.1895C46.1674 28.1895 46.2393 28.3333 46.2393 28.4052Z" fill="#50270E"/>
<path d="M46.3114 29.7715C46.3114 29.9153 46.2394 29.9873 46.0956 29.9873C46.0237 29.9873 45.8799 29.9153 45.8799 29.7715C45.8799 29.6277 45.9518 29.5558 46.0956 29.5558C46.2394 29.5558 46.3114 29.6996 46.3114 29.7715Z" fill="#50270E"/>
<path d="M44.2258 28.2615C44.2258 28.3334 44.1539 28.4772 44.01 28.4772C43.8662 28.4772 43.8662 28.3334 43.8662 28.2615C43.8662 28.1177 43.9381 28.0458 44.0819 28.0458C44.2258 28.0458 44.2258 28.1896 44.2258 28.2615Z" fill="#50270E"/>
<path d="M44.4417 29.8434C44.4417 29.9153 44.3698 30.0592 44.226 30.0592C44.1541 30.0592 44.0103 29.9872 44.0103 29.8434C44.0103 29.6996 44.0822 29.6277 44.226 29.6277C44.3698 29.6277 44.4417 29.6996 44.4417 29.8434Z" fill="#50270E"/>
<path d="M48.2531 29.5557C48.2531 29.6995 48.1092 29.8434 47.8935 29.8434C47.6778 29.8434 47.5339 29.6995 47.5339 29.5557C47.5339 29.4119 47.6778 29.2681 47.8935 29.2681C48.1092 29.2681 48.2531 29.4119 48.2531 29.5557Z" fill="#50270E"/>
<path d="M51.2734 36.0278H60.7658C60.7658 36.0278 59.3995 37.2503 56.3792 37.3223C52.7117 37.3223 51.2734 36.0278 51.2734 36.0278Z" fill="#C55B03"/>
<path d="M60.6221 35.884C60.5501 35.6683 60.3344 35.5245 60.1906 35.3806C60.0468 35.2368 59.9748 34.9492 59.831 34.8053C59.6872 34.6615 59.5434 34.4458 59.3276 34.302C59.1119 34.1581 58.9681 34.0143 58.7523 33.8705C58.5366 33.7267 58.249 33.7986 57.9613 33.7267C57.7456 33.6548 57.6017 33.3671 57.3141 33.2952C57.0984 33.2233 56.8107 33.2233 56.5231 33.2233C56.3073 33.2233 56.0197 33.1514 55.732 33.1514C55.4444 33.1514 55.2286 33.2233 54.941 33.2952C54.6534 33.2952 54.3657 33.2233 54.15 33.2952C53.9342 33.3671 53.7185 33.5109 53.5028 33.6548C53.287 33.7267 53.1432 33.9424 52.9275 34.0862C52.7117 34.23 52.3522 34.1581 52.1364 34.23C51.9207 34.3739 51.7769 34.5896 51.633 34.7334C51.4892 34.8773 51.3454 35.093 51.2016 35.3087C51.0577 35.5245 51.1297 35.7402 51.0578 35.9559C51.0578 36.0278 50.9858 36.0278 50.9858 36.0998H60.6221C60.694 35.9559 60.694 35.9559 60.6221 35.884Z" fill="url(#paint5_radial)"/>
<path d="M54.6535 34.4459C54.6535 34.5897 54.4378 34.8054 54.1501 34.8054C53.8625 34.8054 53.6467 34.6616 53.6467 34.4459C53.6467 34.2301 53.8625 34.0863 54.1501 34.0863C54.4378 34.1582 54.6535 34.302 54.6535 34.4459Z" fill="#50270E"/>
<path d="M53.5749 35.093C53.5749 35.3087 53.3592 35.4525 53.0715 35.4525C52.7839 35.4525 52.5681 35.3087 52.5681 35.093C52.5681 34.8772 52.7839 34.7334 53.0715 34.7334C53.3592 34.8053 53.5749 34.9491 53.5749 35.093Z" fill="#50270E"/>
<path d="M56.6672 34.7335C56.6672 34.9492 56.4514 35.093 56.1638 35.093C55.8761 35.093 55.6604 34.9492 55.6604 34.7335C55.6604 34.5177 55.8761 34.3739 56.1638 34.3739C56.4514 34.4458 56.6672 34.5896 56.6672 34.7335Z" fill="#50270E"/>
<path d="M56.4511 33.6547C56.4511 33.8705 56.2354 34.0143 55.9477 34.0143C55.6601 34.0143 55.4443 33.8705 55.4443 33.6547C55.4443 33.439 55.6601 33.2952 55.9477 33.2952C56.2354 33.3671 56.4511 33.5109 56.4511 33.6547Z" fill="#50270E"/>
<path d="M58.3212 34.6616C58.3212 34.8773 58.1055 35.0211 57.8178 35.0211C57.5302 35.0211 57.3145 34.8773 57.3145 34.6616C57.3145 34.4458 57.5302 34.302 57.8178 34.302C58.1055 34.3739 58.3212 34.5177 58.3212 34.6616Z" fill="#50270E"/>
<path d="M55.4445 34.3739C55.4445 34.5178 55.3007 34.5897 55.2288 34.5897C55.085 34.5897 54.9412 34.5178 54.9412 34.3739C54.9412 34.2301 55.085 34.1582 55.2288 34.1582C55.3007 34.1582 55.4445 34.2301 55.4445 34.3739Z" fill="#50270E"/>
<path d="M57.386 33.9425C57.386 34.0864 57.2421 34.1583 57.0983 34.1583C56.9545 34.1583 56.8826 34.0864 56.8826 33.9425C56.8826 33.7987 57.0264 33.7268 57.0983 33.7268C57.2421 33.7268 57.386 33.7987 57.386 33.9425Z" fill="#50270E"/>
<path d="M57.458 35.3807C57.458 35.5245 57.3142 35.5964 57.1703 35.5964C57.0265 35.5964 56.9546 35.5245 56.9546 35.3807C56.9546 35.2368 57.0984 35.1649 57.1703 35.1649C57.3142 35.1649 57.458 35.2368 57.458 35.3807Z" fill="#50270E"/>
<path d="M54.7255 33.7986C54.7255 33.9424 54.5817 34.0144 54.5098 34.0144C54.366 34.0144 54.2222 33.9424 54.2222 33.7986C54.2222 33.6548 54.366 33.5829 54.5098 33.5829C54.5817 33.5829 54.7255 33.6548 54.7255 33.7986Z" fill="#50270E"/>
<path d="M54.9411 35.4527C54.9411 35.5965 54.7973 35.6684 54.6535 35.6684C54.5097 35.6684 54.4377 35.5965 54.4377 35.4527C54.4377 35.3088 54.5816 35.2369 54.6535 35.2369C54.8692 35.2369 54.9411 35.3088 54.9411 35.4527Z" fill="#50270E"/>
<path d="M59.975 35.1651C59.975 35.3808 59.7593 35.5247 59.4716 35.5247C59.184 35.5247 58.9683 35.3808 58.9683 35.1651C58.9683 34.9494 59.184 34.8055 59.4716 34.8055C59.7593 34.8055 59.975 34.9494 59.975 35.1651Z" fill="#50270E"/>
<path d="M43.5789 41.8528C28.4773 41.8528 12.9443 37.9696 12.9443 31.5694C12.9443 25.0973 28.5492 21.286 43.5789 21.286C58.6804 21.286 74.2134 25.1693 74.2134 31.5694C74.2853 38.0415 58.6804 41.8528 43.5789 41.8528ZM43.5789 22.8681C26.1761 22.8681 14.5264 27.3985 14.5264 31.5694C14.5264 35.7403 26.1761 40.2708 43.5789 40.2708C60.9816 40.2708 72.6313 35.7403 72.6313 31.5694C72.6313 27.3985 60.9816 22.8681 43.5789 22.8681Z" fill="url(#paint6_linear)"/>
<path d="M75.292 12.0093C74.2853 11.7217 73.1347 12.0093 72.7032 12.5846C72.7032 12.6565 70.4739 16.1083 67.957 20.2073C65.5839 24.0186 62.8512 28.4053 61.1973 31.066L62.7793 31.4975C64.8648 28.9806 67.7413 24.5939 70.6897 20.8545C73.7819 16.9713 76.3707 13.6633 76.3707 13.5914C76.8022 13.0161 76.2988 12.297 75.292 12.0093Z" fill="#504F4E"/>
<path d="M74.7886 11.7935C73.7818 11.5059 72.6312 11.7935 72.1998 12.3688C72.1998 12.4407 69.9705 15.8925 67.4536 19.9915C65.0805 23.8028 62.3478 28.1895 60.6938 30.8502L62.2759 31.2817C64.3614 28.7647 67.2378 24.3781 70.1862 20.6387C73.2784 16.7554 75.8673 13.4475 75.8673 13.3756C76.2988 12.8003 75.7954 12.0812 74.7886 11.7935Z" fill="url(#paint7_linear)"/>
<path d="M38.6886 11.434C37.538 13.1599 36.8189 14.8139 37.2503 16.1802C37.6099 17.5465 39.192 18.6971 40.8459 19.4162C39.4796 15.9645 42.428 13.2318 43.219 11.5059C44.0101 9.78003 44.3696 8.12605 43.8663 6.75972C43.4348 5.39339 42.1404 4.2428 40.9898 3.52368C41.3493 4.2428 41.7089 5.32148 41.3493 6.68781C40.9898 8.05414 39.8392 9.6362 38.6886 11.434Z" fill="#FFF2CC"/>
<path d="M46.455 15.1735C45.7359 16.2522 45.3044 17.2589 45.5921 18.1219C45.8078 18.9848 46.8146 19.7039 47.8213 20.1354C46.9584 17.978 48.7562 16.2522 49.2596 15.1735C49.7629 14.0948 49.9787 13.088 49.691 12.2251C49.4034 11.3621 48.6124 10.643 47.8932 10.2115C48.109 10.643 48.3247 11.3621 48.109 12.2251C47.8932 13.088 47.1741 14.0948 46.455 15.1735Z" fill="#FFF2CC"/>
<defs>
<linearGradient id="paint0_linear" x1="43.5879" y1="31.1145" x2="43.5879" y2="62.5888" gradientUnits="userSpaceOnUse">
<stop stop-color="#E2E1E1"/>
<stop offset="0.2917" stop-color="#D7D7D7"/>
<stop offset="0.8448" stop-color="#BABAB9"/>
<stop offset="1" stop-color="#B0B0B0"/>
</linearGradient>
<linearGradient id="paint1_linear" x1="43.6089" y1="22.94" x2="43.6089" y2="38.0885" gradientUnits="userSpaceOnUse">
<stop stop-color="#9B9B9A"/>
<stop offset="0.5989" stop-color="#B3B3B3"/>
<stop offset="1" stop-color="#BEBEBE"/>
</linearGradient>
<linearGradient id="paint2_linear" x1="43.6098" y1="27.1719" x2="43.6098" y2="39.9524" gradientUnits="userSpaceOnUse">
<stop stop-color="#C55B03"/>
<stop offset="1" stop-color="#F3A400"/>
</linearGradient>
<radialGradient id="paint3_radial" cx="0" cy="0" r="1" gradientUnits="userSpaceOnUse" gradientTransform="translate(36.7412 34.2653) scale(5.68093 6.23221)">
<stop stop-color="#C57C00"/>
<stop offset="0.0298101" stop-color="#C07700"/>
<stop offset="0.3414" stop-color="#945101"/>
<stop offset="0.6181" stop-color="#773902"/>
<stop offset="0.8471" stop-color="#652C00"/>
<stop offset="1" stop-color="#5F2700"/>
</radialGradient>
<radialGradient id="paint4_radial" cx="0" cy="0" r="1" gradientUnits="userSpaceOnUse" gradientTransform="translate(44.75 28.5614) scale(3.6269 3.85057)">
<stop stop-color="#C57C00"/>
<stop offset="0.0298101" stop-color="#C07700"/>
<stop offset="0.3414" stop-color="#945101"/>
<stop offset="0.6181" stop-color="#773902"/>
<stop offset="0.8471" stop-color="#652C00"/>
<stop offset="1" stop-color="#5F2700"/>
</radialGradient>
<radialGradient id="paint5_radial" cx="0" cy="0" r="1" gradientUnits="userSpaceOnUse" gradientTransform="translate(55.3936 34.0957) scale(4.77579 4.03807)">
<stop stop-color="#C57C00"/>
<stop offset="0.0298101" stop-color="#C07700"/>
<stop offset="0.3414" stop-color="#945101"/>
<stop offset="0.6181" stop-color="#773902"/>
<stop offset="0.8471" stop-color="#652C00"/>
<stop offset="1" stop-color="#5F2700"/>
</radialGradient>
<linearGradient id="paint6_linear" x1="43.5953" y1="41.8866" x2="43.5953" y2="21.2976" gradientUnits="userSpaceOnUse">
<stop stop-color="white"/>
<stop offset="0.5739" stop-color="#F5F5F5"/>
<stop offset="1" stop-color="#EBEBEB"/>
</linearGradient>
<linearGradient id="paint7_linear" x1="67.0498" y1="20.7592" x2="68.6089" y2="21.8731" gradientUnits="userSpaceOnUse">
<stop offset="0.00537634" stop-color="#DDDDDD"/>
<stop offset="0.9946" stop-color="#B0B0B0"/>
</linearGradient>
</defs>
</svg>
