<svg width="100" height="68" viewBox="0 0 100 68" fill="none" xmlns="http://www.w3.org/2000/svg">
<rect width="100" height="68" rx="10" fill="white"/>
<path d="M35.5518 37C28.9785 37 23.6282 31.6497 23.6282 25.0764C23.6282 18.5032 28.9785 13.1528 35.5518 13.1528C42.125 13.1528 47.4753 18.5032 47.4753 25.0764C47.4753 31.6497 42.125 37 35.5518 37ZM35.5518 14.5287C29.7429 14.5287 25.1569 19.2675 25.1569 24.9235C25.1569 30.7325 29.8957 35.3184 35.5518 35.3184C41.2078 35.3184 45.9467 30.5796 45.9467 24.9235C45.9467 19.2675 41.2078 14.5287 35.5518 14.5287Z" fill="#8DC63F"/>
<path d="M39.526 29.8152C39.3731 29.8152 39.0674 29.8152 38.9146 29.6624L34.94 25.6878C34.7871 25.535 34.7872 25.3821 34.7872 25.0764V18.5031C34.7872 18.0445 35.0929 17.7388 35.5515 17.7388C36.0101 17.7388 36.3158 18.0445 36.3158 18.5031V24.6177L40.1375 28.4394C40.4432 28.7451 40.4432 29.2037 40.1375 29.5095C39.8318 29.6623 39.6788 29.8152 39.526 29.8152Z" fill="#8DC63F"/>
<path d="M46.7107 25.6878H44.7235C44.2649 25.6878 43.9591 25.3821 43.9591 24.9235C43.9591 24.4649 44.2649 24.1592 44.7235 24.1592H46.7107C47.1693 24.1592 47.475 24.4649 47.475 24.9235C47.475 25.3821 47.1693 25.6878 46.7107 25.6878Z" fill="#8DC63F"/>
<path d="M26.2269 25.6878H24.2396C23.781 25.6878 23.4752 25.3821 23.4752 24.9235C23.4752 24.4649 23.781 24.1592 24.2396 24.1592H26.2269C26.6855 24.1592 26.9912 24.4649 26.9912 24.9235C26.9912 25.3821 26.6855 25.6878 26.2269 25.6878Z" fill="#8DC63F"/>
<path d="M35.5515 37C35.0929 37 34.7872 36.6943 34.7872 36.2357V34.2485C34.7872 33.7899 35.0929 33.4841 35.5515 33.4841C36.0101 33.4841 36.3158 33.7899 36.3158 34.2485V36.2357C36.3158 36.6943 35.8572 37 35.5515 37Z" fill="#8DC63F"/>
<path d="M35.5515 16.5159C35.0929 16.5159 34.7872 16.2102 34.7872 15.7516V13.7643C34.7872 13.3057 35.0929 13 35.5515 13C36.0101 13 36.3158 13.3057 36.3158 13.7643V15.7516C36.3158 16.2102 35.8572 16.5159 35.5515 16.5159Z" fill="#8DC63F"/>
<path d="M65.5518 37C58.9785 37 53.6282 31.6497 53.6282 25.0764C53.6282 18.5032 58.9785 13.1528 65.5518 13.1528C72.125 13.1528 77.4753 18.5032 77.4753 25.0764C77.4753 31.6497 72.125 37 65.5518 37ZM65.5518 14.5287C59.7429 14.5287 55.1569 19.2675 55.1569 24.9235C55.1569 30.7325 59.8957 35.3184 65.5518 35.3184C71.2078 35.3184 75.9467 30.5796 75.9467 24.9235C75.9467 19.2675 71.2078 14.5287 65.5518 14.5287Z" fill="#8DC63F"/>
<path d="M69.526 29.8152C69.3731 29.8152 69.0674 29.8152 68.9146 29.6624L64.94 25.6878C64.7871 25.535 64.7872 25.3821 64.7872 25.0764V18.5031C64.7872 18.0445 65.0929 17.7388 65.5515 17.7388C66.0101 17.7388 66.3158 18.0445 66.3158 18.5031V24.6177L70.1375 28.4394C70.4432 28.7451 70.4432 29.2037 70.1375 29.5095C69.8318 29.6623 69.6788 29.8152 69.526 29.8152Z" fill="#8DC63F"/>
<path d="M76.7107 25.6878H74.7235C74.2649 25.6878 73.9591 25.3821 73.9591 24.9235C73.9591 24.4649 74.2649 24.1592 74.7235 24.1592H76.7107C77.1693 24.1592 77.475 24.4649 77.475 24.9235C77.475 25.3821 77.1693 25.6878 76.7107 25.6878Z" fill="#8DC63F"/>
<path d="M56.2269 25.6878H54.2396C53.781 25.6878 53.4752 25.3821 53.4752 24.9235C53.4752 24.4649 53.781 24.1592 54.2396 24.1592H56.2269C56.6855 24.1592 56.9912 24.4649 56.9912 24.9235C56.9912 25.3821 56.6855 25.6878 56.2269 25.6878Z" fill="#8DC63F"/>
<path d="M65.5515 37C65.0929 37 64.7872 36.6943 64.7872 36.2357V34.2485C64.7872 33.7899 65.0929 33.4841 65.5515 33.4841C66.0101 33.4841 66.3158 33.7899 66.3158 34.2485V36.2357C66.3158 36.6943 65.8572 37 65.5515 37Z" fill="#8DC63F"/>
<path d="M65.5515 16.5159C65.0929 16.5159 64.7872 16.2102 64.7872 15.7516V13.7643C64.7872 13.3057 65.0929 13 65.5515 13C66.0101 13 66.3158 13.3057 66.3158 13.7643V15.7516C66.3158 16.2102 65.8572 16.5159 65.5515 16.5159Z" fill="#8DC63F"/>
<path d="M21.978 54.261V55.213H16.602V54.261H18.751V47.422C18.751 47.2167 18.758 47.009 18.772 46.799L16.987 48.332C16.9263 48.3833 16.8657 48.416 16.805 48.43C16.7443 48.4393 16.6883 48.4393 16.637 48.43C16.5857 48.4207 16.5367 48.402 16.49 48.374C16.448 48.346 16.4153 48.3157 16.392 48.283L16 47.744L18.989 45.161H20.004V54.261H21.978Z" fill="black"/>
<path d="M25.6571 48.969C26.1798 48.857 26.6604 48.801 27.0991 48.801C27.6218 48.801 28.0838 48.878 28.4851 49.032C28.8864 49.186 29.2201 49.3983 29.4861 49.669C29.7568 49.9397 29.9598 50.2593 30.0951 50.628C30.2351 50.9967 30.3051 51.398 30.3051 51.832C30.3051 52.364 30.2118 52.8447 30.0251 53.274C29.8431 53.7033 29.5888 54.072 29.2621 54.38C28.9401 54.6833 28.5598 54.9167 28.1211 55.08C27.6824 55.2433 27.2088 55.325 26.7001 55.325C26.4061 55.325 26.1238 55.2947 25.8531 55.234C25.5824 55.178 25.3281 55.101 25.0901 55.003C24.8568 54.905 24.6398 54.793 24.4391 54.667C24.2384 54.541 24.0611 54.408 23.9071 54.268L24.2921 53.736C24.3761 53.6147 24.4858 53.554 24.6211 53.554C24.7144 53.554 24.8194 53.5913 24.9361 53.666C25.0528 53.736 25.1951 53.8153 25.3631 53.904C25.5311 53.9927 25.7271 54.0743 25.9511 54.149C26.1798 54.219 26.4504 54.254 26.7631 54.254C27.1131 54.254 27.4281 54.198 27.7081 54.086C27.9881 53.974 28.2284 53.8153 28.4291 53.61C28.6298 53.4 28.7838 53.1503 28.8911 52.861C28.9984 52.5717 29.0521 52.2473 29.0521 51.888C29.0521 51.5753 29.0054 51.293 28.9121 51.041C28.8234 50.789 28.6858 50.5743 28.4991 50.397C28.3171 50.2197 28.0884 50.082 27.8131 49.984C27.5378 49.886 27.2158 49.837 26.8471 49.837C26.5951 49.837 26.3314 49.858 26.0561 49.9C25.7854 49.942 25.5078 50.0097 25.2231 50.103L24.4391 49.872L25.2441 45.182H29.9971V45.728C29.9971 45.9053 29.9411 46.0523 29.8291 46.169C29.7218 46.281 29.5351 46.337 29.2691 46.337H26.1191L25.6571 48.969Z" fill="black"/>
<path d="M36.1132 55.213V48.122H36.8622C37.0396 48.122 37.1492 48.2083 37.1912 48.381L37.2822 49.109C37.5436 48.787 37.8376 48.5233 38.1642 48.318C38.4909 48.1127 38.8689 48.01 39.2982 48.01C39.7742 48.01 40.1592 48.143 40.4532 48.409C40.7519 48.675 40.9666 49.0343 41.0972 49.487C41.1999 49.2303 41.3306 49.0087 41.4892 48.822C41.6526 48.6353 41.8346 48.4813 42.0352 48.36C42.2359 48.2387 42.4482 48.15 42.6722 48.094C42.9009 48.038 43.1319 48.01 43.3652 48.01C43.7386 48.01 44.0699 48.0707 44.3592 48.192C44.6532 48.3087 44.9006 48.4813 45.1012 48.71C45.3066 48.9387 45.4629 49.221 45.5702 49.557C45.6776 49.8883 45.7312 50.2687 45.7312 50.698V55.213H44.4782V50.698C44.4782 50.1427 44.3569 49.7227 44.1142 49.438C43.8716 49.1487 43.5216 49.004 43.0642 49.004C42.8589 49.004 42.6629 49.0413 42.4762 49.116C42.2942 49.186 42.1332 49.291 41.9932 49.431C41.8532 49.571 41.7412 49.7483 41.6572 49.963C41.5779 50.173 41.5382 50.418 41.5382 50.698V55.213H40.2852V50.698C40.2852 50.1287 40.1709 49.704 39.9422 49.424C39.7136 49.144 39.3799 49.004 38.9412 49.004C38.6332 49.004 38.3486 49.088 38.0872 49.256C37.8259 49.4193 37.5856 49.6433 37.3662 49.928V55.213H36.1132Z" fill="black"/>
<path d="M49.0909 48.122V55.213H47.8449V48.122H49.0909ZM49.3569 45.896C49.3569 46.0173 49.3313 46.1317 49.2799 46.239C49.2333 46.3417 49.1679 46.435 49.0839 46.519C49.0046 46.5983 48.9089 46.6613 48.7969 46.708C48.6896 46.7547 48.5753 46.778 48.4539 46.778C48.3326 46.778 48.2183 46.7547 48.1109 46.708C48.0083 46.6613 47.9173 46.5983 47.8379 46.519C47.7586 46.435 47.6956 46.3417 47.6489 46.239C47.6023 46.1317 47.5789 46.0173 47.5789 45.896C47.5789 45.7747 47.6023 45.6603 47.6489 45.553C47.6956 45.441 47.7586 45.3453 47.8379 45.266C47.9173 45.182 48.0083 45.1167 48.1109 45.07C48.2183 45.0233 48.3326 45 48.4539 45C48.5753 45 48.6896 45.0233 48.7969 45.07C48.9089 45.1167 49.0046 45.182 49.0839 45.266C49.1679 45.3453 49.2333 45.441 49.2799 45.553C49.3313 45.6603 49.3569 45.7747 49.3569 45.896Z" fill="black"/>
<path d="M52.4642 49.151C52.6182 48.9783 52.7816 48.822 52.9542 48.682C53.1269 48.542 53.3089 48.423 53.5002 48.325C53.6962 48.2223 53.9016 48.1453 54.1162 48.094C54.3356 48.038 54.5712 48.01 54.8232 48.01C55.2106 48.01 55.5512 48.0753 55.8452 48.206C56.1439 48.332 56.3912 48.514 56.5872 48.752C56.7879 48.9853 56.9396 49.2677 57.0422 49.599C57.1449 49.9303 57.1962 50.2967 57.1962 50.698V55.213H55.9432V50.698C55.9432 50.1613 55.8196 49.746 55.5722 49.452C55.3296 49.1533 54.9586 49.004 54.4592 49.004C54.0906 49.004 53.7452 49.0927 53.4232 49.27C53.1059 49.4473 52.8119 49.6877 52.5412 49.991V55.213H51.2882V48.122H52.0372C52.2146 48.122 52.3242 48.2083 52.3662 48.381L52.4642 49.151Z" fill="black"/>
<path d="M65.0759 48.122V55.213H64.3339C64.1565 55.213 64.0445 55.1267 63.9979 54.954L63.8999 54.191C63.5919 54.5317 63.2465 54.807 62.8639 55.017C62.4812 55.2223 62.0425 55.325 61.5479 55.325C61.1605 55.325 60.8175 55.262 60.5189 55.136C60.2249 55.0053 59.9775 54.8233 59.7769 54.59C59.5762 54.3567 59.4245 54.0743 59.3219 53.743C59.2239 53.4117 59.1749 53.0453 59.1749 52.644V48.122H60.4209V52.644C60.4209 53.1807 60.5422 53.596 60.7849 53.89C61.0322 54.184 61.4079 54.331 61.9119 54.331C62.2805 54.331 62.6235 54.2447 62.9409 54.072C63.2629 53.8947 63.5592 53.652 63.8299 53.344V48.122H65.0759Z" fill="black"/>
<path d="M69.3785 55.325C68.8185 55.325 68.3868 55.1687 68.0835 54.856C67.7848 54.5433 67.6355 54.093 67.6355 53.505V49.165H66.7815C66.7068 49.165 66.6438 49.144 66.5925 49.102C66.5412 49.0553 66.5155 48.9853 66.5155 48.892V48.395L67.6775 48.248L67.9645 46.057C67.9785 45.987 68.0088 45.931 68.0555 45.889C68.1068 45.8423 68.1722 45.819 68.2515 45.819H68.8815V48.262H70.9325V49.165H68.8815V53.421C68.8815 53.7197 68.9538 53.9413 69.0985 54.086C69.2432 54.2307 69.4298 54.303 69.6585 54.303C69.7892 54.303 69.9012 54.2867 69.9945 54.254C70.0925 54.2167 70.1765 54.177 70.2465 54.135C70.3165 54.093 70.3748 54.0557 70.4215 54.023C70.4728 53.9857 70.5172 53.967 70.5545 53.967C70.6198 53.967 70.6782 54.0067 70.7295 54.086L71.0935 54.681C70.8788 54.8817 70.6198 55.0403 70.3165 55.157C70.0132 55.269 69.7005 55.325 69.3785 55.325Z" fill="black"/>
<path d="M75.3171 48.01C75.8351 48.01 76.3017 48.0963 76.7171 48.269C77.1324 48.4417 77.4871 48.6867 77.7811 49.004C78.0751 49.3213 78.2991 49.7063 78.4531 50.159C78.6117 50.607 78.6911 51.1087 78.6911 51.664C78.6911 52.224 78.6117 52.728 78.4531 53.176C78.2991 53.624 78.0751 54.0067 77.7811 54.324C77.4871 54.6413 77.1324 54.8863 76.7171 55.059C76.3017 55.227 75.8351 55.311 75.3171 55.311C74.7944 55.311 74.3231 55.227 73.9031 55.059C73.4877 54.8863 73.1331 54.6413 72.8391 54.324C72.5451 54.0067 72.3187 53.624 72.1601 53.176C72.0061 52.728 71.9291 52.224 71.9291 51.664C71.9291 51.1087 72.0061 50.607 72.1601 50.159C72.3187 49.7063 72.5451 49.3213 72.8391 49.004C73.1331 48.6867 73.4877 48.4417 73.9031 48.269C74.3231 48.0963 74.7944 48.01 75.3171 48.01ZM75.3171 54.338C76.0171 54.338 76.5397 54.1047 76.8851 53.638C77.2304 53.1667 77.4031 52.511 77.4031 51.671C77.4031 50.8263 77.2304 50.1683 76.8851 49.697C76.5397 49.2257 76.0171 48.99 75.3171 48.99C74.9624 48.99 74.6521 49.0507 74.3861 49.172C74.1247 49.2933 73.9054 49.4683 73.7281 49.697C73.5554 49.9257 73.4247 50.208 73.3361 50.544C73.2521 50.8753 73.2101 51.251 73.2101 51.671C73.2101 52.511 73.3827 53.1667 73.7281 53.638C74.0781 54.1047 74.6077 54.338 75.3171 54.338Z" fill="black"/>
<path d="M84.5514 49.291C84.4954 49.3937 84.4091 49.445 84.2924 49.445C84.2224 49.445 84.1431 49.4193 84.0544 49.368C83.9658 49.3167 83.8561 49.2607 83.7254 49.2C83.5994 49.1347 83.4478 49.0763 83.2704 49.025C83.0931 48.969 82.8831 48.941 82.6404 48.941C82.4304 48.941 82.2414 48.969 82.0734 49.025C81.9054 49.0763 81.7608 49.1487 81.6394 49.242C81.5228 49.3353 81.4318 49.445 81.3664 49.571C81.3058 49.6923 81.2754 49.8253 81.2754 49.97C81.2754 50.152 81.3268 50.3037 81.4294 50.425C81.5368 50.5463 81.6768 50.6513 81.8494 50.74C82.0221 50.8287 82.2181 50.908 82.4374 50.978C82.6568 51.0433 82.8808 51.1157 83.1094 51.195C83.3428 51.2697 83.5691 51.3537 83.7884 51.447C84.0078 51.5403 84.2038 51.657 84.3764 51.797C84.5491 51.937 84.6868 52.1097 84.7894 52.315C84.8968 52.5157 84.9504 52.7583 84.9504 53.043C84.9504 53.3697 84.8921 53.673 84.7754 53.953C84.6588 54.2283 84.4861 54.4687 84.2574 54.674C84.0288 54.8747 83.7488 55.0333 83.4174 55.15C83.0861 55.2667 82.7034 55.325 82.2694 55.325C81.7748 55.325 81.3268 55.2457 80.9254 55.087C80.5241 54.9237 80.1834 54.716 79.9034 54.464L80.1974 53.988C80.2348 53.9273 80.2791 53.8807 80.3304 53.848C80.3818 53.8153 80.4471 53.799 80.5264 53.799C80.6104 53.799 80.6991 53.8317 80.7924 53.897C80.8858 53.9623 80.9978 54.0347 81.1284 54.114C81.2638 54.1933 81.4271 54.2657 81.6184 54.331C81.8098 54.3963 82.0478 54.429 82.3324 54.429C82.5751 54.429 82.7874 54.3987 82.9694 54.338C83.1514 54.2727 83.3031 54.1863 83.4244 54.079C83.5458 53.9717 83.6344 53.848 83.6904 53.708C83.7511 53.568 83.7814 53.4187 83.7814 53.26C83.7814 53.064 83.7278 52.903 83.6204 52.777C83.5178 52.6463 83.3801 52.5367 83.2074 52.448C83.0348 52.3547 82.8364 52.2753 82.6124 52.21C82.3931 52.14 82.1668 52.0677 81.9334 51.993C81.7048 51.9183 81.4784 51.8343 81.2544 51.741C81.0351 51.643 80.8391 51.5217 80.6664 51.377C80.4938 51.2323 80.3538 51.055 80.2464 50.845C80.1438 50.6303 80.0924 50.3713 80.0924 50.068C80.0924 49.7973 80.1484 49.5383 80.2604 49.291C80.3724 49.039 80.5358 48.8197 80.7504 48.633C80.9651 48.4417 81.2288 48.29 81.5414 48.178C81.8541 48.066 82.2111 48.01 82.6124 48.01C83.0791 48.01 83.4968 48.0847 83.8654 48.234C84.2388 48.3787 84.5608 48.5793 84.8314 48.836L84.5514 49.291Z" fill="black"/>
</svg>
