<svg width="24" height="24" viewBox="0 0 24 24" fill="none" xmlns="http://www.w3.org/2000/svg">
<path d="M12 24C8.79454 24 5.78099 22.7517 3.5147 20.4852C1.24823 18.2188 0 15.2054 0 12C0 8.79454 1.24823 5.78118 3.5147 3.5147C5.78118 1.24823 8.79454 0 12 0C15.2054 0 18.2188 1.24823 20.4852 3.5147C22.7517 5.78118 24 8.79454 24 12C24 15.2054 22.7517 18.219 20.4852 20.4854C18.2188 22.7517 15.2054 24 12 24ZM12 0.937498C5.90001 0.937498 0.937498 5.9002 0.937498 12C0.937498 18.0999 5.90001 23.0625 12 23.0625C18.0999 23.0625 23.0625 18.0999 23.0625 12C23.0625 5.9002 18.0999 0.937498 12 0.937498Z" fill="#8DC63F"/>
<path d="M12.0113 20.8093C10.5529 20.8093 9.09883 20.4491 7.81856 19.7594C7.59078 19.6365 7.50545 19.3523 7.62831 19.1244C7.751 18.8964 8.03536 18.8113 8.26332 18.9341C11.2994 20.5702 15.125 20.0077 17.5662 17.5663C19.0537 16.079 19.8729 14.1011 19.8729 11.9975C19.8729 9.89385 19.0537 7.91612 17.5662 6.42857C14.4957 3.35808 9.4991 3.35789 6.42842 6.42876C3.98726 8.86992 3.42476 12.6954 5.06063 15.7314C5.18349 15.9594 5.09835 16.2436 4.87038 16.3664C4.6426 16.4891 4.35805 16.404 4.23537 16.1762C3.35482 14.5422 3.01168 12.6245 3.26876 10.7766C3.53463 8.86607 4.39797 7.13316 5.76558 5.76573C9.20174 2.32939 14.7929 2.32939 18.2292 5.76573C19.8938 7.43034 20.8104 9.64336 20.8104 11.9975C20.8104 14.3515 19.8936 16.5647 18.2292 18.2294C16.8616 19.597 15.1289 20.4603 13.2183 20.7262C12.8181 20.7818 12.4145 20.8093 12.0113 20.8093Z" fill="#8DC63F"/>
<path d="M6.09231 18.3714C5.97293 18.3714 5.85373 18.3261 5.76217 18.2355C5.57833 18.0531 5.57724 17.7563 5.75943 17.5725L5.76474 17.5672C5.94711 17.3833 6.24392 17.3821 6.42776 17.5644C6.6116 17.7466 6.6127 18.0434 6.43051 18.2273L6.4252 18.2326C6.33346 18.325 6.21298 18.3714 6.09231 18.3714Z" fill="#8DC63F"/>
<path d="M13.925 15.4127C13.4663 15.6857 12.9728 15.8241 12.4581 15.8241C11.1352 15.8241 9.99463 14.8921 9.48523 13.5582H11.9178C12.1767 13.5582 12.3865 13.3483 12.3865 13.0894C12.3865 12.8305 12.1767 12.6207 11.9178 12.6207H9.24481C9.21643 12.4178 9.20105 12.21 9.20105 11.9979C9.20105 11.8337 9.21075 11.6722 9.22797 11.5132H12.6288C12.8877 11.5132 13.0977 11.3034 13.0977 11.0445C13.0977 10.7856 12.8877 10.5757 12.6288 10.5757H9.43524C9.91681 9.1684 11.09 8.17175 12.4581 8.17175C12.9728 8.17175 13.4663 8.31018 13.925 8.58319C14.1475 8.71558 14.4351 8.64252 14.5675 8.42004C14.6999 8.19757 14.627 7.90991 14.4045 7.77753C13.8072 7.42212 13.1343 7.23425 12.4581 7.23425C10.5811 7.23425 8.98828 8.64142 8.45435 10.5757H7.56592C7.30719 10.5757 7.09717 10.7856 7.09717 11.0445C7.09717 11.3034 7.30719 11.5132 7.56592 11.5132H8.28497C8.27069 11.6725 8.26337 11.8342 8.26337 11.9979C8.26337 12.2089 8.27563 12.4167 8.29926 12.6207H7.56592C7.30719 12.6207 7.09717 12.8305 7.09717 13.0894C7.09717 13.3483 7.30719 13.5582 7.56592 13.5582H8.49463C9.065 15.4207 10.6262 16.7614 12.4581 16.7614C13.1342 16.7614 13.8072 16.5735 14.4044 16.2181C14.6268 16.0858 14.6999 15.7981 14.5675 15.5756C14.4351 15.3531 14.1475 15.2801 13.925 15.4127Z" fill="#8DC63F"/>
</svg>
