<svg width="40" height="40" viewBox="0 0 40 40" fill="none" xmlns="http://www.w3.org/2000/svg">
<g filter="url(#filter0_d)">
<path d="M6 20C6 12.268 12.268 6 20 6C27.732 6 34 12.268 34 20C34 27.732 27.732 34 20 34C12.268 34 6 27.732 6 20Z" fill="#8DC63F"/>
<path d="M27.4286 12C27.7714 12 28 12.2048 28 12.512L28 23.4694C28 23.7766 27.7714 23.9814 27.4286 23.9814C27.0857 23.9814 26.8571 23.7766 26.8571 23.4694L26.8571 12.512C26.8571 12.2048 27.0857 12 27.4286 12Z" fill="#FCFFF8"/>
<path d="M14.9715 12L25.8286 12C26.1715 12 26.4 12.2048 26.4 12.512C26.4 12.8192 26.1715 13.024 25.8286 13.024L14.9715 13.024C14.0572 13.024 13.7143 13.6384 13.7143 13.9457C13.7143 14.1505 13.8286 14.3553 13.9429 14.4577C14.1714 14.6625 14.4 14.6625 14.7429 14.6625C15.0857 14.6625 15.3143 14.8673 15.3143 15.1745C15.3143 15.4818 15.0857 15.6866 14.7429 15.6866C13.8286 15.6866 13.3714 16.1986 13.3714 16.6082C13.3714 16.7106 13.3714 16.9154 13.6 17.1202C13.8286 17.3251 14.1714 17.325 14.5143 17.325C14.8571 17.325 15.0857 17.5298 15.0857 17.8371C15.0857 18.1443 14.8571 18.3491 14.5143 18.3491C13.6 18.3491 13.1429 18.8611 13.1429 19.2708C13.1429 19.3732 13.1429 19.578 13.3714 19.7828C13.6 19.9876 13.8286 19.9876 14.2858 19.9876C14.6286 19.9876 14.8572 20.1924 14.8572 20.4996C14.8572 20.8068 14.6286 21.0116 14.2858 21.0116C13.9429 21.0116 13.6 21.1141 13.3714 21.3189C13.2571 21.4213 13.1429 21.6261 13.1429 21.9333C13.1429 22.3429 13.4858 22.7526 14.2858 22.7526L21.1429 22.7526C21.4858 22.7526 21.7143 22.9574 21.7143 23.2646C21.7143 23.5718 21.4858 23.7766 21.1429 23.7766L14.2858 23.7766C12.8001 23.7766 12.0001 22.8549 12.0001 21.9333C12.0001 21.4213 12.2286 21.0117 12.5715 20.602C12.5715 20.602 12.5715 20.602 12.6857 20.4996C12.3429 20.1924 12.1143 19.7828 12.1143 19.2708C12.1143 18.7587 12.3429 18.1443 12.9143 17.7347C12.5715 17.4275 12.3429 17.0178 12.3429 16.5058C12.3429 15.8914 12.6857 15.3793 13.2572 14.9697C12.9143 14.6625 12.8 14.2529 12.8 13.7408C12.4571 13.024 13.3715 12 14.9715 12Z" fill="#FCFFF8"/>
<path d="M25.7142 22.855C25.9428 22.855 26.1714 22.9574 26.2856 23.1622C26.3999 23.4694 26.2856 23.6742 25.9427 23.8791C24.5713 24.3911 23.5428 25.3127 22.6285 26.132C21.3713 27.2584 20.1141 28.3849 18.5141 27.8729C18.057 27.6681 17.7142 27.3608 17.4856 26.9512C17.0285 25.62 18.857 23.4694 19.1999 23.0598C19.4285 22.855 19.7713 22.7526 19.9999 22.9574C20.2285 23.1622 20.3427 23.4694 20.1142 23.6742C19.3142 24.4935 18.3999 26.0296 18.6285 26.644C18.6285 26.7464 18.7428 26.8488 18.8571 26.8488C19.7713 27.156 20.4571 26.5416 21.7142 25.3127C22.7428 24.3911 23.7713 23.367 25.3713 22.7526C25.5999 22.855 25.7142 22.855 25.7142 22.855Z" fill="#FCFFF8"/>
</g>
<defs>
<filter id="filter0_d" x="0" y="0" width="40" height="40" filterUnits="userSpaceOnUse" color-interpolation-filters="sRGB">
<feFlood flood-opacity="0" result="BackgroundImageFix"/>
<feColorMatrix in="SourceAlpha" type="matrix" values="0 0 0 0 0 0 0 0 0 0 0 0 0 0 0 0 0 0 127 0"/>
<feOffset/>
<feGaussianBlur stdDeviation="3"/>
<feColorMatrix type="matrix" values="0 0 0 0 0 0 0 0 0 0 0 0 0 0 0 0 0 0 1 0"/>
<feBlend mode="normal" in2="BackgroundImageFix" result="effect1_dropShadow"/>
<feBlend mode="normal" in="SourceGraphic" in2="effect1_dropShadow" result="shape"/>
</filter>
</defs>
</svg>
