<svg width="85" height="64" viewBox="0 0 85 64" fill="none" xmlns="http://www.w3.org/2000/svg">
<path d="M39.2355 33.0614C54.9031 33.0614 68.9111 35.3186 78.471 38.8372C76.4793 17.0618 59.6831 0 39.2355 0C18.7879 0 1.99165 17.0618 0 38.8372C9.55992 35.2522 23.5679 33.0614 39.2355 33.0614Z" fill="#8EC044"/>
<path d="M77.2761 48.1979C78.3383 48.729 78.1391 50.1896 76.6122 50.7871C59.2848 57.4923 39.833 60.8781 20.1821 60.347C18.3896 60.2806 16.398 59.484 15.6013 58.5545C11.8172 53.7746 8.69693 49.4593 5.84223 44.4138C5.31112 43.418 5.90862 41.9574 7.43555 42.1566C24.7629 44.3474 41.8247 43.1524 57.5587 38.8372C58.9529 38.4389 60.8118 38.638 61.7412 39.3019C66.4548 42.7541 71.8322 45.4096 77.2761 48.1979Z" fill="#D2D2D2"/>
<path d="M61.1438 33.0613C61.8741 33.1941 67.0524 42.8868 70.239 48.9281C70.6373 49.6584 71.0357 50.2559 71.8323 50.2559C72.6954 50.2559 72.8945 49.0609 72.8945 49.0609L73.3593 43.7499L61.8741 31.0033L61.1438 33.0613Z" fill="#818080"/>
<path d="M71.8324 49.8576C71.5004 49.8576 71.3013 49.5921 71.3013 49.3265L71.5668 46.5382C71.5668 46.2726 71.8324 46.0735 72.0979 46.0735C72.3635 46.0735 72.5626 46.339 72.5626 46.6046L72.2971 49.3929C72.3635 49.6585 72.0979 49.8576 71.8324 49.8576Z" fill="#C2C2C2"/>
<path d="M13.2776 41.4927C14.0742 41.6255 19.4517 51.8493 22.8375 58.1562C23.2358 58.9528 23.6342 59.5503 24.5636 59.5503C25.493 59.5503 25.6258 58.2889 25.6258 58.2889L26.0905 52.7123L14.0079 39.3019L13.2776 41.4927Z" fill="#818080"/>
<path d="M84.2467 39.0364C85.4417 39.7666 85.2426 41.6255 83.4501 42.4222C63.6663 51.2518 41.4927 55.6998 19.1198 55.036C17.1281 54.9696 14.7382 53.9074 13.9415 52.7124C9.55987 46.3391 5.97491 40.7625 2.72188 34.1236C2.12438 32.8623 2.78827 30.937 4.58075 31.2025C24.3645 34.1236 43.8162 32.5303 61.8075 26.8209C63.4008 26.2898 65.5252 26.5554 66.5874 27.4184C71.9649 31.8 78.0062 35.3186 84.2467 39.0364Z" fill="#9D9D9C"/>
<path d="M84.0477 38.7708C85.2426 39.4347 84.8443 40.5633 83.0518 41.3599C63.4673 49.5921 42.0239 53.7745 19.9165 53.177C17.9249 53.1106 15.6013 52.1148 14.8046 50.9862C10.4894 45.0777 6.70527 38.9035 3.45224 32.7294C2.85475 31.5344 3.78418 30.8042 5.51028 31.0697C25.0284 33.7916 44.2811 32.1319 62.0731 26.8209C63.6664 26.3562 65.7909 26.5553 66.7867 27.352C72.0978 31.4681 77.8735 35.3186 84.0477 38.7708Z" fill="url(#paint0_linear)"/>
<path d="M63.8655 27.4185C68.1807 31.0698 73.5582 35.0531 79.8651 38.7709L80.1306 38.97C80.2634 39.0364 80.3298 39.1028 80.3962 39.1028C80.529 39.1692 80.5953 39.302 80.5953 39.3684C80.5953 39.4347 80.5953 39.4347 80.5953 39.5675C80.529 39.6339 80.4626 39.7667 80.3298 39.8995C80.0642 40.0986 79.7323 40.2978 79.334 40.497C78.8693 40.6297 78.4709 40.8289 78.0062 40.9617C76.2137 41.6256 74.4212 42.2894 72.6287 43.0197C70.7699 43.6836 68.911 44.2811 66.9857 44.8786C65.0605 45.5425 63.1352 46.0736 61.1436 46.6047C60.1477 46.8702 59.1519 47.1358 58.1561 47.4013C57.1603 47.6669 56.1644 47.8661 55.1686 48.1316C53.177 48.5963 51.2517 49.061 49.3265 49.4594C47.4012 49.7913 45.4759 50.1896 43.6834 50.5216C43.2187 50.588 42.754 50.7208 42.2893 50.7871C41.8246 50.8535 41.3598 50.9199 40.8951 50.9863C39.9657 51.1191 39.1026 51.2519 38.1732 51.3846C34.5882 51.9821 31.1361 52.1813 27.883 52.5132C27.4847 52.5796 27.0864 52.5796 26.688 52.646C26.2897 52.646 25.8914 52.7124 25.493 52.7124C24.6964 52.7788 23.8997 52.7788 23.1695 52.8452C21.6425 52.9116 20.182 53.0443 18.7214 53.1107C20.1156 53.1771 21.6425 53.1771 23.1695 53.2435C23.9661 53.2435 24.6964 53.3099 25.493 53.3099C25.8914 53.3099 26.2897 53.3099 26.688 53.3099C27.0864 53.3099 27.4847 53.3099 27.883 53.2435C31.1361 53.1107 34.6546 53.0443 38.306 52.646C39.2354 52.5796 40.1649 52.4469 41.0943 52.3805C41.559 52.3141 42.0237 52.3141 42.4885 52.2477C42.9532 52.1813 43.4179 52.1149 43.8826 52.0485C45.7415 51.783 47.6667 51.451 49.6584 51.1191C51.5837 50.7871 53.5753 50.3224 55.5669 49.8577C56.5628 49.5922 57.5586 49.4594 58.5544 49.1274C59.5502 48.8619 60.5461 48.5963 61.5419 48.2644C63.5335 47.7333 65.5252 47.2022 67.4505 46.4719C69.3757 45.808 71.301 45.2105 73.1599 44.4803C75.0187 43.75 76.8112 43.0197 78.5373 42.2894C79.002 42.0903 79.4004 41.9575 79.8651 41.7583C80.3298 41.5592 80.7945 41.2936 81.2592 40.8289C81.4584 40.6297 81.6576 40.3642 81.7903 40.0322C81.9231 39.7003 81.9231 39.2356 81.7239 38.8372C81.5248 38.4389 81.2592 38.2398 80.9937 38.107C80.8609 38.0406 80.7281 37.9742 80.6617 37.9078L80.3962 37.775C74.0893 34.2565 68.5127 30.6715 63.8655 27.4185Z" fill="#F4F4F4"/>
<path d="M48.5962 31.2689C50.3887 31.0033 52.7787 31.0697 53.4426 31.9328L56.1645 34.5883C56.8948 35.385 56.0317 36.3144 54.2393 36.5799L49.4593 37.3766C47.6668 37.6422 45.6752 37.2438 45.0113 36.3808L42.8869 33.9244C42.1566 33.1278 43.0196 32.1983 44.8121 31.9328L48.5962 31.2689Z" fill="#B2B2B2"/>
<path d="M48.6627 24.2318C50.3888 23.9662 52.7124 24.099 53.4426 24.962C53.4426 24.962 56.2309 27.352 56.3637 28.2151C56.4965 29.0781 55.9654 33.8581 55.9654 33.8581C55.7662 35.3186 55.2351 35.7169 53.509 35.9825L49.393 36.7791C47.6669 37.0447 45.6752 36.58 45.0113 35.7169L42.8869 33.0614C42.7541 32.9286 42.8869 26.6881 42.8869 26.5553C42.6877 25.8251 43.5508 25.0948 44.9449 24.8956L48.6627 24.2318Z" fill="url(#paint1_linear)"/>
<path d="M48.5299 24.5637C50.1232 24.2981 52.2476 24.4309 52.9115 25.0948L55.3679 27.4184C56.0318 28.1486 55.2351 28.9453 53.6418 29.2108L49.3266 29.8747C47.7332 30.1403 45.9408 29.7419 45.3433 29.0117L43.4844 26.8872C42.8869 26.157 43.6172 25.3603 45.2105 25.0948L48.5299 24.5637Z" fill="#F2DDB7"/>
<path d="M48.9283 25.6923C49.8577 25.5595 51.0527 25.6259 51.3847 25.9578L52.7788 27.1528C53.1108 27.5512 52.7124 27.9495 51.783 28.0823L49.3266 28.547C48.3972 28.6798 47.4014 28.4806 47.0694 28.1487L46.0072 27.0201C45.6753 26.6217 46.0736 26.2234 47.003 26.0906L48.9283 25.6923Z" fill="#E94E1B"/>
<path d="M44.4138 26.3561C44.6794 26.1569 44.9449 25.9578 45.3433 25.9578C45.6752 25.9578 46.0071 26.0905 46.2727 26.2897C46.2727 25.9578 45.9408 25.493 45.3433 25.493C44.7458 25.5594 44.4138 26.0241 44.4138 26.3561Z" fill="#FFFBE9"/>
<path d="M44.2811 27.6174C44.4802 27.3519 44.8122 27.2191 45.1441 27.2191C45.4761 27.2191 45.808 27.3519 46.0736 27.5511C46.0736 27.2191 45.7416 26.7544 45.1441 26.7544C44.5466 26.7544 44.2147 27.2855 44.2811 27.6174Z" fill="#FFFBE9"/>
<path d="M46.3391 29.2772C46.4719 29.1444 46.671 28.9452 46.8702 28.9452C47.0694 28.9452 47.2685 29.078 47.4013 29.2108C47.4013 29.078 47.4013 28.9452 47.2685 28.8789C47.2022 28.7461 47.003 28.6797 46.8038 28.6797C46.4719 28.6797 46.3391 29.078 46.3391 29.2772Z" fill="#FFFBE9"/>
<path d="M47.7996 29.5427C48.0651 29.3436 48.3307 29.1444 48.729 29.1444C49.0609 29.1444 49.3929 29.2772 49.6584 29.4763C49.6584 29.1444 49.3265 28.6797 48.729 28.6797C48.1315 28.6797 47.7996 29.2108 47.7996 29.5427Z" fill="#FFFBE9"/>
<path d="M53.3098 27.4848C53.4426 27.352 53.7081 27.2193 53.9073 27.2193C54.1065 27.2193 54.372 27.2857 54.5048 27.4184C54.5048 27.2193 54.2392 26.8873 53.9073 26.8873C53.509 26.9537 53.3098 27.2857 53.3098 27.4848Z" fill="#FFFBE9"/>
<path d="M48.7954 25.294C49.061 25.0948 49.3265 24.8956 49.7248 24.8956C50.0568 24.8956 50.3887 25.0284 50.6543 25.2276C50.6543 24.8956 50.3223 24.4309 49.7248 24.4309C49.1274 24.4309 48.7954 24.962 48.7954 25.294Z" fill="#FFFBE9"/>
<path d="M51.783 26.2898C51.9821 26.157 52.1813 26.0242 52.4468 26.0242C52.7124 26.0242 52.9116 26.157 53.1107 26.2898C53.1107 26.0906 52.8452 25.6923 52.4468 25.6923C51.9821 25.6923 51.783 26.0242 51.783 26.2898Z" fill="#FFFBE9"/>
<path d="M45.2104 28.4805C45.4096 28.3478 45.6088 28.2814 45.8743 28.2814C46.1399 28.2814 46.4054 28.2814 46.6046 28.3478C46.5382 28.1486 46.2063 27.9494 45.8743 28.0158C45.5424 28.0822 45.2104 28.2814 45.2104 28.4805Z" fill="#FFFBE9"/>
<path d="M46.6047 25.5595C46.8039 25.3603 47.0031 25.2276 47.2686 25.2276C47.5342 25.2276 47.7333 25.3603 47.9325 25.5595C47.9325 25.4267 47.9325 25.294 47.7997 25.1612C47.667 25.0284 47.4678 24.8956 47.2686 24.8956C47.0695 24.8956 46.8703 25.0284 46.7375 25.1612C46.6047 25.294 46.6047 25.4267 46.6047 25.5595Z" fill="#FFFBE9"/>
<path d="M52.3804 28.9453C52.5131 28.8125 52.7123 28.6133 52.9115 28.6133C53.1106 28.6133 53.3098 28.7461 53.4426 28.9453C53.4426 28.8125 53.4426 28.6797 53.3098 28.5469C53.2434 28.4141 53.0443 28.2814 52.8451 28.2814C52.6459 28.2814 52.4468 28.4141 52.3804 28.5469C52.3804 28.6797 52.3804 28.8789 52.3804 28.9453Z" fill="#FFFBE9"/>
<path d="M47.5342 27.2192C47.667 27.0864 47.8661 26.8872 48.0653 26.8872C48.2645 26.8872 48.4636 27.02 48.5964 27.2192C48.5964 27.0864 48.5964 26.9536 48.4636 26.8209C48.4636 26.6881 48.2645 26.5553 48.0653 26.5553C47.8661 26.5553 47.667 26.6881 47.6006 26.8209C47.5342 26.9536 47.5342 27.0864 47.5342 27.2192Z" fill="#F6A24A"/>
<path d="M47.7334 28.1486C47.8662 28.0158 48.0653 27.9494 48.3309 27.9494C48.5301 27.9494 48.7292 28.0158 48.9284 28.1486C48.9284 27.9494 48.6628 27.6838 48.3309 27.6838C47.999 27.6838 47.7334 27.9494 47.7334 28.1486Z" fill="#F6A24A"/>
<path d="M48.4634 26.4889C48.5962 26.3561 48.7953 26.2897 49.0609 26.2897C49.26 26.2897 49.4592 26.3561 49.6584 26.4889C49.6584 26.2897 49.3928 26.0242 49.0609 26.0242C48.6625 26.0242 48.4634 26.2897 48.4634 26.4889Z" fill="#F6A24A"/>
<path d="M49.6584 27.4847C49.7912 27.352 49.9904 27.2856 50.2559 27.2856C50.4551 27.2856 50.6543 27.352 50.8534 27.4847C50.8534 27.2856 50.5879 27.02 50.2559 27.02C49.924 27.02 49.6584 27.2856 49.6584 27.4847Z" fill="#F6A24A"/>
<path d="M49.7913 26.0242C49.924 25.8914 50.1232 25.825 50.3888 25.825C50.5879 25.825 50.7871 25.8914 50.9863 26.0242C50.9863 25.825 50.7207 25.5594 50.3888 25.5594C49.9904 25.5594 49.7913 25.825 49.7913 26.0242Z" fill="#F6A24A"/>
<path d="M46.2727 26.8873C46.4055 26.7545 46.6046 26.6881 46.8702 26.6881C47.0694 26.6881 47.2685 26.7545 47.4677 26.8873C47.4677 26.6881 47.2021 26.4225 46.8702 26.4225C46.5383 26.3562 46.2727 26.6217 46.2727 26.8873Z" fill="#F6A24A"/>
<path d="M50.0569 27.02C50.1897 26.8872 50.3888 26.8209 50.6544 26.8209C50.8535 26.8209 51.0527 26.8872 51.2519 27.02C51.2519 26.8209 50.9863 26.5553 50.6544 26.5553C50.3224 26.5553 50.0569 26.8209 50.0569 27.02Z" fill="#F6A24A"/>
<path d="M50.8535 27.6174C50.9863 27.4846 51.1855 27.4183 51.451 27.4183C51.6502 27.4183 51.8493 27.4846 52.0485 27.6174C52.0485 27.4183 51.783 27.1527 51.451 27.1527C51.1191 27.1527 50.8535 27.4183 50.8535 27.6174Z" fill="#F6A24A"/>
<path d="M51.0527 25.3603C51.2519 25.1611 51.5175 25.0283 51.7166 25.0283C51.9822 25.0283 52.2477 25.1611 52.4469 25.2939C52.4469 25.0283 52.1813 24.63 51.7166 24.63C51.2519 24.6964 51.0527 25.0947 51.0527 25.3603Z" fill="#FFFBE9"/>
<path d="M43.6172 33.1277C43.9491 33.7252 44.4138 34.3891 44.945 35.0529C45.0777 35.2521 45.2769 35.3849 45.4097 35.5841C45.6088 35.7168 45.808 35.916 46.0072 36.0488C46.2063 36.1815 46.4719 36.3143 46.7374 36.3807C47.003 36.4471 47.2685 36.5135 47.5341 36.5799C48.0652 36.5799 48.5299 36.6463 49.061 36.5799C49.5258 36.5135 49.9905 36.4471 50.3888 36.3807C51.2518 36.1815 51.9821 35.9824 52.646 35.7168C51.9821 35.7168 51.1855 35.7832 50.3224 35.7832C49.9241 35.8496 49.4594 35.8496 48.9946 35.8496C48.5299 35.916 48.1316 35.7832 47.6669 35.7832C47.4677 35.7168 47.2022 35.7168 47.003 35.6504C46.8038 35.5841 46.6047 35.5177 46.4055 35.4513C46.2063 35.3849 46.0736 35.2521 45.8744 35.1193C45.7416 34.9866 45.5425 34.8538 45.4097 34.721C44.7458 34.1235 44.1483 33.5924 43.6172 33.1277Z" fill="#212121"/>
<path d="M46.0735 34.9866C46.339 35.1194 46.671 35.1858 46.9365 35.2522C47.1357 35.3186 47.4012 35.3186 47.6004 35.385C48.0651 35.385 48.5298 35.4514 48.9282 35.385C49.1937 35.385 49.4593 35.3186 49.6585 35.3186C49.7912 35.3186 49.9904 35.2522 50.1232 35.2522C50.8534 35.1194 51.5837 34.8539 52.1148 34.6547C51.8493 34.5883 51.4509 34.5883 51.0526 34.5219C50.9198 34.5219 50.7871 34.5219 50.5879 34.5219C50.1232 34.5883 49.6585 34.5883 49.1937 34.5883C49.1273 34.5883 49.061 34.5883 48.9946 34.5883C48.5962 34.5883 48.2643 34.5883 47.866 34.5883C47.7996 34.5883 47.7996 34.5883 47.7332 34.5883C47.534 34.5219 47.2685 34.5219 47.0693 34.4555C46.9365 34.4555 46.8701 34.3891 46.7374 34.3891C46.6046 34.3891 46.5382 34.3228 46.4054 34.3228C46.2063 34.2564 46.0071 34.19 45.8079 34.0572C45.7415 34.0572 45.7415 33.9908 45.6752 33.9908C45.5424 33.9244 45.4096 33.7916 45.2768 33.7253C45.2768 33.7253 45.2768 33.7253 45.2104 33.7253C45.0777 33.6589 45.0113 33.5261 44.8785 33.3933C44.3474 32.9286 43.8163 32.4639 43.3516 32.0656C43.6835 32.663 44.1482 33.3269 44.6793 34.0572C44.8121 34.2564 45.0113 34.3891 45.144 34.5883C45.6088 34.7211 45.8743 34.8539 46.0735 34.9866Z" fill="#212121"/>
<path d="M46.1399 33.9908C46.4718 34.1235 46.8702 34.1899 47.2021 34.2563C47.4013 34.3227 47.6005 34.3227 47.7996 34.3891C48.1979 34.3891 48.5963 34.4555 48.9946 34.3891C49.1938 34.3891 49.4593 34.3227 49.6585 34.3227C49.7913 34.3227 49.924 34.2563 50.0568 34.2563C50.7207 34.1235 51.3182 33.9244 51.8493 33.7252C51.8493 33.5924 51.7829 33.5261 51.6501 33.3933C51.5174 33.3933 51.3182 33.3933 51.1854 33.3933C50.7207 33.4597 50.256 33.4597 49.7249 33.4597C49.6585 33.4597 49.5921 33.4597 49.5257 33.4597C49.1274 33.4597 48.7291 33.4597 48.3307 33.4597C48.2643 33.4597 48.2643 33.4597 48.1979 33.4597C47.9324 33.4597 47.7332 33.3933 47.4677 33.3933C47.3349 33.3933 47.2021 33.3269 47.0693 33.3269C46.9366 33.3269 46.8702 33.2605 46.7374 33.2605C46.5382 33.1941 46.2727 33.1277 46.0735 33.0613C46.0071 33.0613 46.0071 32.9949 45.9407 32.9949C45.808 32.9286 45.6752 32.8622 45.5424 32.7294C45.5424 32.7294 45.5424 32.7294 45.476 32.7294C45.3432 32.663 45.2105 32.5302 45.0777 32.3974C44.4802 31.9327 43.9491 31.4016 43.4844 31.0033C43.8163 31.6008 44.281 32.3311 44.8121 32.9949C44.9449 33.1941 45.1441 33.3269 45.2769 33.5261C45.6752 33.7252 45.9407 33.858 46.1399 33.9908Z" fill="#212121"/>
<path d="M46.2063 32.9285C46.6047 33.0613 47.0694 33.1277 47.4677 33.1941C47.6669 33.1941 47.7997 33.2605 47.9988 33.2605C48.3308 33.2605 48.7291 33.2605 49.061 33.1941C49.2602 33.1941 49.4594 33.1277 49.6585 33.1277C49.7913 33.1277 49.9241 33.0613 50.0569 33.0613C50.6544 32.9285 51.1855 32.7958 51.6502 32.5966C51.9821 32.4638 52.1813 32.2646 52.2477 32.0655C52.1149 32.0655 51.9157 32.0655 51.783 32.0655C51.3182 32.0655 50.7871 32.1319 50.256 32.1983C50.1896 32.1983 50.1232 32.1983 50.0569 32.1983C49.6585 32.1983 49.1938 32.2646 48.7955 32.2646C48.7291 32.2646 48.7291 32.2646 48.6627 32.2646C48.3972 32.2646 48.1316 32.2646 47.866 32.2646C47.7333 32.2646 47.6005 32.2646 47.4677 32.1983C47.3349 32.1983 47.2022 32.1319 47.1358 32.1319C46.8702 32.0655 46.6711 32.0655 46.4055 31.9991C46.3391 31.9991 46.3391 31.9327 46.2727 31.9327C46.1399 31.8663 45.9408 31.7999 45.808 31.7335C45.808 31.7335 45.808 31.7335 45.7416 31.7335C45.6088 31.6672 45.4761 31.5344 45.3433 31.4016C44.7458 30.8705 44.1483 30.4058 43.6172 30.0074C43.9491 30.6049 44.3475 31.3352 44.945 32.0655C45.1441 32.2646 45.2769 32.3974 45.4761 32.5966C45.6752 32.7294 45.9408 32.8621 46.2063 32.9285Z" fill="#212121"/>
<path d="M46.2728 31.9328C46.7375 32.0656 47.2686 32.132 47.7333 32.1984C47.8661 32.1984 48.0652 32.1984 48.198 32.2647C48.53 32.2647 48.7955 32.2647 49.1275 32.1984C49.3266 32.1984 49.4594 32.132 49.6586 32.132C49.7913 32.132 49.8577 32.0656 49.9905 32.0656C50.4552 31.9328 50.9199 31.8 51.3183 31.6673C51.9158 31.4681 52.3805 31.2025 52.7788 30.937C52.646 30.937 52.4469 30.937 52.2477 30.937C51.7166 30.937 51.1855 31.0034 50.6544 31.0698C50.588 31.0698 50.5216 31.0698 50.4552 31.0698C50.0569 31.0698 49.5922 31.1361 49.1275 31.2025C49.0611 31.2025 49.0611 31.2025 48.9947 31.2025C48.7291 31.2025 48.4636 31.2025 48.198 31.2025C48.0652 31.2025 47.9325 31.2025 47.7997 31.2025C47.6669 31.2025 47.5341 31.2025 47.4014 31.2025C47.1358 31.2025 46.8703 31.1361 46.6711 31.0698C46.6047 31.0698 46.5383 31.0698 46.5383 31.0034C46.3391 30.937 46.2064 30.8706 46.0072 30.8042C46.0072 30.8042 46.0072 30.8042 45.9408 30.8042C45.808 30.7378 45.6753 30.5387 45.5425 30.4723C44.8786 29.9412 44.2811 29.41 43.75 29.0117C44.0819 29.6756 44.4803 30.3395 45.0778 31.0698C45.2769 31.2689 45.3433 31.4681 45.6089 31.6009C45.7416 31.6672 46.0072 31.8 46.2728 31.9328Z" fill="#212121"/>
<path d="M43.6172 27.8167C43.9491 28.4805 44.3475 29.2108 45.0113 29.9411C45.2105 30.1402 45.2769 30.3394 45.5424 30.4722C45.7416 30.6713 46.0736 30.8041 46.3391 30.8705C46.8702 31.0697 47.4677 31.0697 47.9988 31.0697C48.5299 31.1361 49.061 31.0033 49.5921 30.9369C50.1232 30.8705 50.588 30.6713 50.9863 30.605C51.8493 30.3394 52.646 30.0075 53.3099 29.6755C52.5796 29.6755 51.7166 29.7419 50.8535 29.8747C50.3888 29.8747 49.9241 30.0075 49.4594 30.0075C48.9946 30.0075 48.5299 30.1402 47.9988 30.0739C47.4677 30.0739 47.003 30.0739 46.6047 29.9411C46.4055 29.8747 46.2063 29.8083 46.0736 29.7419C45.9408 29.6755 45.7416 29.4764 45.5424 29.3436C44.8786 28.8125 44.2147 28.215 43.6172 27.8167Z" fill="#212121"/>
<path d="M35.8497 34.4556C37.775 34.1236 40.3641 34.2564 41.1608 35.1858L44.1482 38.0405C44.9449 38.97 44.0155 39.8994 42.0902 40.2313L36.8455 41.0944C34.9203 41.4263 32.7295 40.9616 31.9328 40.0322L29.6092 37.3766C28.8125 36.4472 29.742 35.5178 31.6672 35.1858L35.8497 34.4556Z" fill="#B2B2B2"/>
<path d="M35.916 26.7545C37.7748 26.4225 40.364 26.6217 41.0943 27.5512C41.0943 27.5512 44.1481 30.1403 44.2809 31.1361C44.4137 32.0656 43.8162 37.3102 43.8162 37.3102C43.617 38.9036 43.0195 39.3019 41.1606 39.6338L36.7126 40.4969C34.8538 40.8288 32.6629 40.2977 31.9327 39.3019L29.6755 36.4472C29.5427 36.3144 29.6755 29.4764 29.6755 29.2772C29.4763 28.4806 30.4057 27.6839 31.9327 27.4184L35.916 26.7545Z" fill="url(#paint2_linear)"/>
<path d="M35.7832 27.0864C37.5093 26.8209 39.8329 26.8873 40.5632 27.6839L43.2187 30.2067C43.8826 31.0034 43.0859 31.8664 41.3599 32.132L36.6463 32.9286C34.9202 33.1942 32.9285 32.7958 32.2647 31.9992L30.2066 29.6756C29.5427 28.8789 30.3394 28.0159 32.0655 27.7503L35.7832 27.0864Z" fill="#F2DDB7"/>
<path d="M36.1814 28.3479C37.1773 28.2151 38.505 28.2151 38.9034 28.6798L40.4303 30.0076C40.8286 30.4059 40.3639 30.8706 39.3681 31.0698L36.7125 31.4681C35.7167 31.6009 34.5881 31.4017 34.1898 31.0034L32.9948 29.742C32.5965 29.3437 33.0612 28.879 34.057 28.6798L36.1814 28.3479Z" fill="#E94E1B"/>
<path d="M31.2688 29.0781C31.5344 28.8126 31.8663 28.6798 32.2646 28.6134C32.663 28.6134 32.9949 28.7462 33.2604 29.0117C33.2604 28.9454 33.2604 28.8126 33.1941 28.7462C33.1277 28.6134 33.0613 28.547 32.9949 28.4806C32.9285 28.4143 32.7957 28.3479 32.663 28.2815C32.5302 28.2151 32.3974 28.2151 32.2646 28.2151C32.1318 28.2151 31.9991 28.2151 31.8663 28.2815C31.7335 28.3479 31.6007 28.4143 31.5344 28.4806C31.3352 28.6798 31.2688 28.879 31.2688 29.0781Z" fill="#FFFBE9"/>
<path d="M31.0696 30.4059C31.3351 30.1403 31.6671 30.0076 32.0654 29.9412C32.4637 29.9412 32.7957 30.074 33.0612 30.3395C33.0612 30.2731 33.0612 30.1403 32.9948 30.074C32.9285 29.9412 32.8621 29.8748 32.7957 29.8084C32.7293 29.742 32.5965 29.6756 32.4637 29.6092C32.331 29.5428 32.1982 29.5428 32.0654 29.5428C31.9326 29.5428 31.7999 29.5428 31.6671 29.6092C31.5343 29.6756 31.4015 29.742 31.3351 29.8084C31.136 30.0076 31.136 30.2067 31.0696 30.4059Z" fill="#FFFBE9"/>
<path d="M33.3933 32.2648C33.5925 32.0657 33.7916 31.9329 33.9908 31.9329C34.19 31.9329 34.3891 32.0657 34.5883 32.2648C34.5883 32.1321 34.5883 31.9993 34.4555 31.8665C34.3891 31.7337 34.19 31.601 33.9908 31.601C33.5261 31.601 33.3269 32.0657 33.3933 32.2648Z" fill="#FFFBE9"/>
<path d="M34.9866 32.5303C35.2521 32.2647 35.5841 32.132 35.9824 32.0656C36.3807 32.0656 36.7127 32.1983 36.9782 32.4639C36.9782 32.3975 36.9782 32.2647 36.9118 32.1983C36.8454 32.0656 36.7791 31.9992 36.7127 31.9328C36.6463 31.8664 36.5135 31.8 36.3807 31.7336C36.2479 31.6672 36.1152 31.6672 35.9824 31.6672C35.8496 31.6672 35.7168 31.7336 35.5841 31.7336C35.4513 31.8 35.3185 31.8664 35.2521 31.9328C35.053 32.132 34.9866 32.3311 34.9866 32.5303Z" fill="#FFFBE9"/>
<path d="M40.9617 30.273C41.1608 30.1403 41.36 30.0075 41.6256 30.0075C41.8911 30.0075 42.0903 30.0739 42.2894 30.273C42.2894 30.0739 42.0239 29.7419 41.6256 29.7419C41.2272 29.7419 40.9617 30.0739 40.9617 30.273Z" fill="#FFFBE9"/>
<path d="M36.1152 27.8831C36.3808 27.6175 36.7127 27.4848 37.1111 27.4848C37.5094 27.4848 37.8413 27.6175 38.1069 27.8831C38.1069 27.8167 38.1069 27.6839 38.0405 27.6175C37.9741 27.4848 37.9077 27.4184 37.8413 27.352C37.7749 27.2856 37.6422 27.2192 37.5094 27.1528C37.3766 27.0864 37.2438 27.0864 37.1111 27.0864C36.9783 27.0864 36.8455 27.1528 36.7127 27.1528C36.58 27.2192 36.4472 27.2856 36.3808 27.352C36.1816 27.4848 36.1152 27.6839 36.1152 27.8831Z" fill="#FFFBE9"/>
<path d="M39.3018 28.9454C39.5009 28.7462 39.7665 28.6135 40.032 28.6135C40.2976 28.6135 40.5631 28.7462 40.7623 28.879C40.7623 28.6135 40.4967 28.2151 40.032 28.2815C39.5673 28.2815 39.3018 28.6798 39.3018 28.9454Z" fill="#FFFBE9"/>
<path d="M32.1318 31.4017C32.331 31.269 32.5966 31.2026 32.8621 31.2026C33.1277 31.2026 33.3932 31.2026 33.6588 31.3353C33.5924 31.0698 33.194 30.937 32.8621 30.937C32.5302 30.937 32.1982 31.1362 32.1318 31.4017Z" fill="#FFFBE9"/>
<path d="M33.6589 28.2151C33.8581 28.016 34.1237 27.8168 34.3892 27.8168C34.6548 27.8168 34.9203 27.9496 35.1195 28.1487C35.1195 28.016 35.1195 27.8168 34.9867 27.684C34.9203 27.6176 34.8539 27.5512 34.7211 27.4848C34.6548 27.4185 34.522 27.4185 34.3892 27.4185C34.1237 27.4185 33.9245 27.5512 33.8581 27.7504C33.6589 27.8832 33.6589 28.0823 33.6589 28.2151Z" fill="#FFFBE9"/>
<path d="M39.9658 31.9328C40.165 31.7336 40.3641 31.6008 40.5633 31.5345C40.7625 31.5345 40.9616 31.6672 41.1608 31.8664C41.1608 31.7336 41.1608 31.6008 41.028 31.4681C40.9616 31.3353 40.7625 31.2025 40.4969 31.2025C40.2978 31.2025 40.0986 31.3353 40.0322 31.4681C39.9658 31.6672 39.9658 31.8 39.9658 31.9328Z" fill="#FFFBE9"/>
<path d="M34.7209 30.0076C34.9201 29.8085 35.1193 29.6757 35.3184 29.6093C35.5176 29.6093 35.7168 29.7421 35.9159 29.9412C35.9159 29.8085 35.9159 29.6757 35.7832 29.5429C35.7168 29.4101 35.5176 29.2773 35.2521 29.2773C35.0529 29.2773 34.8537 29.4101 34.7873 29.5429C34.7209 29.7421 34.7209 29.8748 34.7209 30.0076Z" fill="#F6A24A"/>
<path d="M34.9202 31.0698C35.1193 30.937 35.3185 30.8706 35.584 30.8706C35.8496 30.8706 36.0488 30.937 36.2479 31.0698C36.2479 30.8706 35.9824 30.5387 35.584 30.605C35.1857 30.5387 34.9202 30.8042 34.9202 31.0698Z" fill="#F6A24A"/>
<path d="M35.6504 29.2109C35.8496 29.0781 36.0487 29.0117 36.3143 29.0117C36.5798 29.0117 36.779 29.0781 36.9782 29.2109C36.9782 29.0117 36.7126 28.6798 36.3143 28.7462C35.9159 28.6798 35.6504 29.0117 35.6504 29.2109Z" fill="#F6A24A"/>
<path d="M36.9783 30.3395C37.1774 30.2068 37.3766 30.1404 37.6422 30.1404C37.9077 30.1404 38.1069 30.2068 38.306 30.3395C38.306 30.1404 38.0405 29.8084 37.6422 29.8748C37.2438 29.8084 36.9783 30.074 36.9783 30.3395Z" fill="#F6A24A"/>
<path d="M37.1111 28.6798C37.3102 28.547 37.5094 28.4806 37.775 28.4806C38.0405 28.4806 38.2397 28.547 38.4389 28.6798C38.4389 28.4806 38.1733 28.1487 37.775 28.2151C37.3766 28.2151 37.1111 28.4806 37.1111 28.6798Z" fill="#F6A24A"/>
<path d="M33.3269 29.6092C33.5261 29.4764 33.7252 29.4101 33.9908 29.4101C34.2563 29.4101 34.4555 29.4764 34.6547 29.6092C34.6547 29.4101 34.3891 29.0781 33.9908 29.1445C33.5925 29.0781 33.3269 29.4101 33.3269 29.6092Z" fill="#F6A24A"/>
<path d="M37.4429 29.8083C37.642 29.6755 37.8412 29.6091 38.1068 29.6091C38.3723 29.6091 38.5715 29.6755 38.7706 29.8083C38.7706 29.6091 38.5051 29.2772 38.1068 29.3436C37.7084 29.2772 37.4429 29.6091 37.4429 29.8083Z" fill="#F6A24A"/>
<path d="M38.3723 30.4058C38.5715 30.2731 38.7706 30.2067 39.0362 30.2067C39.3018 30.2067 39.5009 30.2731 39.7001 30.4058C39.7001 30.2067 39.4345 29.8747 39.0362 29.9411C38.6379 29.8747 38.3723 30.2067 38.3723 30.4058Z" fill="#F6A24A"/>
<path d="M38.5715 27.9495C38.7707 27.7503 39.0363 27.6175 39.3018 27.6175C39.5674 27.6175 39.8329 27.7503 40.0985 27.9495C40.0985 27.6839 39.8329 27.2192 39.3018 27.2856C38.7707 27.2192 38.5052 27.6839 38.5715 27.9495Z" fill="#FFFBE9"/>
<path d="M30.4058 36.5137C30.7377 37.1776 31.2688 37.9078 31.8663 38.6381C32.0655 38.8373 32.1982 39.0364 32.3974 39.1692C32.5966 39.3684 32.7957 39.5011 33.0613 39.6339C33.3268 39.7667 33.5924 39.8995 33.858 39.9659C34.1235 40.0323 34.3891 40.0986 34.721 40.165C35.2521 40.2314 35.8496 40.2314 36.3807 40.165C36.9118 40.0986 37.3765 40.0323 37.8413 39.8995C38.7707 39.7003 39.5674 39.4348 40.2976 39.1692C39.5674 39.1692 38.7043 39.2356 37.7749 39.302C37.3101 39.3684 36.8454 39.3684 36.3143 39.3684C35.8496 39.4348 35.3185 39.302 34.8538 39.302C34.5882 39.2356 34.3891 39.1692 34.1235 39.1692C33.9243 39.1028 33.6588 39.0364 33.4596 38.9037C33.2605 38.7709 33.0613 38.7045 32.8621 38.5717C32.663 38.4389 32.5302 38.3062 32.331 38.107C31.6671 37.5759 31.0033 36.9784 30.4058 36.5137Z" fill="#212121"/>
<path d="M33.1277 38.5052C33.4596 38.638 33.7916 38.7708 34.1235 38.8372C34.3891 38.9036 34.6546 38.97 34.8538 38.97C35.3849 38.97 35.8496 39.0363 36.3143 38.97C36.5799 38.97 36.8454 38.9036 37.1774 38.8372C37.3765 38.8372 37.5093 38.7708 37.7085 38.7044C38.5715 38.5052 39.3018 38.3061 39.8993 38.0405C39.5673 37.9741 39.2354 37.9741 38.7707 37.9077C38.6379 37.9077 38.4387 37.9077 38.306 37.9077C37.8413 37.9741 37.3101 37.9741 36.779 37.9741C36.7127 37.9741 36.6463 37.9741 36.5799 37.9741C36.1815 37.9741 35.7832 37.9741 35.3185 37.9741C35.2521 37.9741 35.2521 37.9741 35.1857 37.9741C34.9202 37.9077 34.6546 37.9077 34.4555 37.8414C34.3227 37.8414 34.1899 37.775 34.0571 37.775C33.9243 37.775 33.858 37.7086 33.7252 37.7086C33.526 37.6422 33.2605 37.5094 33.0613 37.443C32.9949 37.443 32.9949 37.3766 32.9285 37.3766C32.7957 37.3103 32.663 37.1775 32.5302 37.1111C32.5302 37.1111 32.5302 37.1111 32.4638 37.0447C32.331 36.9119 32.1982 36.8455 32.0655 36.7128C31.468 36.1817 30.9369 35.7169 30.4058 35.3186C30.7377 35.9825 31.2688 36.7128 31.8663 37.443C32.0655 37.6422 32.1982 37.8414 32.3974 38.0405C32.5966 38.2397 32.8621 38.3725 33.1277 38.5052Z" fill="#212121"/>
<path d="M33.1941 37.3767C33.5924 37.5095 33.9907 37.6423 34.3891 37.7086C34.5882 37.775 34.8538 37.775 35.053 37.8414C35.5177 37.8414 35.9824 37.9078 36.3807 37.8414C36.6463 37.8414 36.9118 37.775 37.111 37.775C37.2438 37.775 37.4429 37.7086 37.5757 37.7086C38.306 37.5759 38.9699 37.3103 39.5674 37.1112C39.5674 36.9784 39.501 36.8456 39.3018 36.7792C39.169 36.7792 38.9699 36.7792 38.7707 36.7792C38.2396 36.8456 37.7085 36.8456 37.1774 36.8456C37.111 36.8456 37.0446 36.8456 36.9782 36.8456C36.5799 36.8456 36.1152 36.8456 35.6505 36.8456C35.5841 36.8456 35.5841 36.8456 35.5177 36.8456C35.2521 36.8456 34.9866 36.7792 34.721 36.7792C34.5882 36.7792 34.4555 36.7128 34.3227 36.7128C34.1899 36.7128 34.0571 36.6464 33.9907 36.6464C33.7252 36.58 33.526 36.5137 33.2605 36.3809C33.1941 36.3809 33.1941 36.3145 33.1277 36.3145C32.9949 36.2481 32.7958 36.1153 32.663 36.0489C32.663 36.0489 32.663 36.0489 32.5966 35.9825C32.4638 35.8498 32.331 35.717 32.1983 35.6506C31.6008 35.1195 31.0033 34.5884 30.4722 34.1901C30.8705 34.8539 31.3352 35.5842 31.9327 36.3809C32.1319 36.58 32.2647 36.7792 32.4638 36.9784C32.663 37.1111 32.9285 37.2439 33.1941 37.3767Z" fill="#212121"/>
<path d="M33.2604 36.2481C33.7252 36.3809 34.1899 36.5137 34.6546 36.5137C34.8538 36.5801 35.0529 36.58 35.2521 36.58C35.6504 36.58 36.0488 36.5801 36.4471 36.5137C36.6462 36.5137 36.9118 36.4473 37.111 36.4473C37.2437 36.4473 37.3765 36.3809 37.5093 36.3809C38.1732 36.2481 38.7043 36.0489 39.2354 35.8498C39.5673 35.6506 39.8329 35.4514 39.8993 35.2523C39.7001 35.2523 39.5673 35.2523 39.3682 35.2523C38.8371 35.3187 38.2396 35.3187 37.7085 35.3851C37.6421 35.3851 37.5757 35.3851 37.4429 35.3851C36.9782 35.3851 36.5135 35.4515 36.0487 35.4515C35.9824 35.4515 35.9824 35.4515 35.916 35.4515C35.6504 35.4515 35.3849 35.4515 35.0529 35.4515C34.9201 35.4515 34.7874 35.4514 34.5882 35.3851C34.4554 35.3851 34.3227 35.3187 34.1899 35.3187C33.9243 35.2523 33.6588 35.1859 33.3932 35.1195C33.3268 35.1195 33.2604 35.0531 33.2604 35.0531C33.0613 34.9867 32.9285 34.9203 32.7293 34.7876C32.7293 34.7876 32.6629 34.7876 32.6629 34.7212C32.5302 34.6548 32.3974 34.4556 32.1982 34.3892C31.5343 33.7917 30.8705 33.2606 30.3394 32.8623C30.7377 33.5262 31.2024 34.3228 31.7999 35.1195C31.9991 35.3187 32.1318 35.5178 32.331 35.717C32.6629 35.9826 32.9949 36.1153 33.2604 36.2481Z" fill="#212121"/>
<path d="M33.3268 35.1195C33.858 35.3186 34.3891 35.3186 34.9202 35.385C35.1193 35.385 35.2521 35.4514 35.4513 35.4514C35.7832 35.4514 36.1152 35.4514 36.4471 35.385C36.6463 35.385 36.8454 35.3186 36.9782 35.3186C37.111 35.3186 37.2438 35.2522 37.3101 35.2522C37.8413 35.1195 38.306 34.9867 38.7707 34.8539C39.4346 34.5884 39.9657 34.3228 40.364 34.0573C40.1648 34.0573 40.0321 34.0573 39.8329 34.0573C39.3018 34.0573 38.7043 34.1236 38.0404 34.19C37.974 34.19 37.9076 34.19 37.7749 34.19C37.3101 34.19 36.779 34.3228 36.3143 34.3228C36.2479 34.3228 36.1815 34.3228 36.1815 34.3228C35.916 34.3228 35.5841 34.3228 35.3185 34.3228C35.1857 34.3228 34.9866 34.3228 34.8538 34.3228C34.721 34.3228 34.5882 34.3228 34.4555 34.2564C34.1899 34.2564 33.858 34.19 33.6588 34.1236C33.5924 34.1236 33.526 34.1236 33.4596 34.0573C33.2605 33.9909 33.0613 33.9245 32.9285 33.8581H32.8621C32.7294 33.7917 32.5302 33.5925 32.3974 33.4598C31.6671 32.8623 31.0033 32.2648 30.4058 31.8C30.8041 32.5303 31.2688 33.2606 31.8663 34.0573C32.0655 34.2564 32.1982 34.4556 32.4638 34.6547C32.7294 34.8539 32.9949 35.0531 33.3268 35.1195Z" fill="#212121"/>
<path d="M30.4058 30.6715C30.8041 31.4018 31.2688 32.1984 31.8663 32.9951C32.0655 33.1943 32.1982 33.3934 32.4638 33.5926C32.7294 33.7918 32.9949 33.9245 33.3268 34.0573C33.9243 34.2565 34.5218 34.2565 35.1193 34.3229C35.7168 34.3893 36.3143 34.2565 36.8454 34.1901C37.4429 34.1237 37.9076 33.9245 38.3724 33.7918C39.3682 33.5262 40.1648 33.1279 40.8951 32.7959C40.0985 32.7959 39.169 32.9287 38.1732 32.9951C37.7085 33.0615 37.1774 33.1279 36.6463 33.1279C36.1152 33.1279 35.6504 33.2607 35.0529 33.1943C34.5218 33.1943 33.9907 33.1943 33.526 33.0615C33.3268 32.9951 33.1277 32.9287 32.9285 32.8623C32.7294 32.7959 32.5302 32.5968 32.3974 32.464C31.7999 31.7337 31.0696 31.1362 30.4058 30.6715Z" fill="#212121"/>
<path d="M55.2352 39.3019C57.0276 38.9699 59.484 39.1027 60.2143 40.0321L63.0026 43.0196C63.7329 43.9491 62.8698 44.9449 61.0109 45.2768L56.0982 46.1399C54.3057 46.4718 52.2477 46.0071 51.5174 45.0777L49.3266 42.2893C48.5963 41.3599 49.4594 40.3641 51.3183 40.0321L55.2352 39.3019Z" fill="#B2B2B2"/>
<path d="M55.3016 31.4016C57.0941 31.0697 59.484 31.2688 60.2143 32.2647C60.2143 32.2647 63.069 34.9202 63.2018 35.9824C63.3346 36.9118 62.8035 42.3557 62.8035 42.3557C62.6043 44.0154 62.0732 44.4137 60.2807 44.7457L56.0982 45.6087C54.3057 45.9407 52.3141 45.4095 51.5838 44.4137L49.4594 41.4263C49.3266 41.2271 49.4594 34.1899 49.4594 34.0571C49.2602 33.2605 50.1233 32.4638 51.5838 32.1983L55.3016 31.4016Z" fill="url(#paint3_linear)"/>
<path d="M55.1687 31.7337C56.7621 31.4681 59.0193 31.5345 59.6168 32.3312L62.1395 34.9203C62.8034 35.717 62.0067 36.6464 60.347 36.9119L55.9654 37.7086C54.3721 37.9742 52.5132 37.5758 51.8493 36.7792L49.9241 34.3892C49.2602 33.5925 50.0568 32.6631 51.7166 32.3975L55.1687 31.7337Z" fill="#F2DDB7"/>
<path d="M55.567 33.0614C56.4964 32.9286 57.7578 32.9286 58.0897 33.3933L59.4839 34.7875C59.8822 35.1858 59.4175 35.7169 58.4881 35.8497L55.9653 36.3144C55.0359 36.4472 53.9737 36.248 53.6417 35.8497L52.5795 34.5883C52.1812 34.19 52.6459 33.6589 53.5753 33.5261L55.567 33.0614Z" fill="#E94E1B"/>
<path d="M50.9199 33.7916C51.1855 33.5261 51.5174 33.3269 51.8494 33.3269C52.1813 33.3269 52.5132 33.5261 52.7788 33.7252C52.7788 33.5261 52.7124 33.3269 52.5796 33.1277C52.5132 33.0613 52.3805 32.995 52.2477 32.9286C52.1149 32.8622 51.9821 32.8622 51.8494 32.8622C51.5838 32.8622 51.3183 32.995 51.1191 33.1941C50.9863 33.3933 50.9199 33.5925 50.9199 33.7916Z" fill="#FFFBE9"/>
<path d="M50.7871 35.1858C51.0527 34.9202 51.3846 34.7211 51.7165 34.7211C52.0485 34.7211 52.3804 34.9202 52.646 35.1194C52.646 34.9202 52.5796 34.7211 52.4468 34.5219C52.3804 34.4555 52.2477 34.3891 52.1149 34.3227C51.9821 34.2563 51.8493 34.2563 51.7165 34.2563C51.451 34.2563 51.1854 34.3891 50.9863 34.5883C50.7871 34.7875 50.7871 34.9866 50.7871 35.1858Z" fill="#FFFBE9"/>
<path d="M52.9116 37.0446C53.0444 36.8455 53.2436 36.7127 53.4427 36.7127C53.6419 36.7127 53.8411 36.8455 54.0402 37.0446C54.0402 36.9118 54.0402 36.7791 53.9074 36.6463C53.8411 36.5135 53.6419 36.3807 53.4427 36.3807C53.2436 36.3807 53.0444 36.5135 52.978 36.6463C52.9116 36.7791 52.9116 36.9782 52.9116 37.0446Z" fill="#FFFBE9"/>
<path d="M54.4385 37.3102C54.704 37.0446 55.036 36.8455 55.3679 36.8455C55.6999 36.8455 56.0318 37.0446 56.2974 37.2438C56.2974 37.0446 56.231 36.8455 56.0982 36.6463C56.0318 36.5799 55.899 36.5135 55.7662 36.4471C55.6335 36.3807 55.5007 36.3807 55.3679 36.3807C55.1024 36.3807 54.8368 36.5135 54.6376 36.7127C54.4385 36.9782 54.4385 37.1774 54.4385 37.3102Z" fill="#FFFBE9"/>
<path d="M60.0815 35.053C60.2806 34.9202 60.4798 34.7874 60.679 34.7874C60.9445 34.7874 61.1437 34.9202 61.2764 35.053C61.2764 34.8538 61.0773 34.4555 60.679 34.5219C60.2806 34.4555 60.0151 34.7874 60.0815 35.053Z" fill="#FFFBE9"/>
<path d="M55.4343 32.5303C55.6999 32.2647 56.0318 32.0655 56.3638 32.0655C56.6957 32.0655 57.0276 32.2647 57.2932 32.4639C57.2932 32.2647 57.2268 32.0655 57.094 31.8664C57.0276 31.8 56.8949 31.7336 56.7621 31.6672C56.6293 31.6008 56.4965 31.6008 56.3638 31.6008C56.0982 31.6008 55.8327 31.7336 55.6335 31.9328C55.5007 32.1319 55.4343 32.3975 55.4343 32.5303Z" fill="#FFFBE9"/>
<path d="M58.4883 33.6589C58.6874 33.4597 58.8866 33.3269 59.1522 33.3269C59.4177 33.3269 59.6169 33.4597 59.816 33.6589C59.816 33.3933 59.6169 32.995 59.1522 32.995C58.6874 32.995 58.4883 33.3933 58.4883 33.6589Z" fill="#FFFBE9"/>
<path d="M51.7166 36.1816C51.9157 36.0489 52.1149 35.9825 52.4468 35.9825C52.7124 35.9825 52.9779 35.9825 53.1771 36.1153C53.1107 35.8497 52.7788 35.7169 52.4468 35.7169C52.0485 35.7169 51.7829 35.9161 51.7166 36.1816Z" fill="#FFFBE9"/>
<path d="M53.177 32.8621C53.3762 32.6629 53.5753 32.4638 53.8409 32.4638C54.1064 32.4638 54.3056 32.6629 54.5048 32.8621C54.5048 32.7293 54.5048 32.5302 54.372 32.3974C54.2392 32.2646 54.0401 32.1318 53.8409 32.1318C53.5753 32.1318 53.3762 32.2646 53.3098 32.4638C53.177 32.5966 53.177 32.7293 53.177 32.8621Z" fill="#FFFBE9"/>
<path d="M59.0857 36.7127C59.2185 36.5135 59.4176 36.3144 59.6168 36.3144C59.816 36.3144 60.0151 36.5135 60.2143 36.6463C60.2143 36.5135 60.2143 36.3808 60.1479 36.248C60.0815 36.1152 59.8824 35.9824 59.6832 35.9824C59.484 35.9824 59.2849 36.1152 59.2185 36.3144C59.0857 36.4471 59.0857 36.5799 59.0857 36.7127Z" fill="#FFFBE9"/>
<path d="M54.1729 34.7211C54.3056 34.522 54.5048 34.3228 54.704 34.3228C54.9031 34.3228 55.1023 34.522 55.3015 34.6547C55.3015 34.522 55.3015 34.3892 55.2351 34.2564C55.1687 34.1236 54.9695 33.9908 54.7703 33.9908C54.5712 33.9908 54.372 34.1236 54.3056 34.3228C54.1729 34.4556 54.1729 34.6547 54.1729 34.7211Z" fill="#F6A24A"/>
<path d="M54.372 35.7833C54.5048 35.6505 54.7703 35.5177 54.9695 35.5177C55.1686 35.5177 55.4342 35.5841 55.567 35.7169C55.567 35.5177 55.3014 35.1858 54.9695 35.1858C54.5711 35.3186 54.3056 35.5841 54.372 35.7833Z" fill="#F6A24A"/>
<path d="M55.1025 33.9244C55.2352 33.7916 55.5008 33.6588 55.6999 33.6588C55.8991 33.6588 56.1647 33.7252 56.2974 33.858C56.2974 33.6588 56.0319 33.3269 55.6999 33.3269C55.3016 33.3933 55.0361 33.7252 55.1025 33.9244Z" fill="#F6A24A"/>
<path d="M56.2974 35.0529C56.4301 34.9202 56.6957 34.7874 56.8949 34.7874C57.094 34.7874 57.3596 34.8538 57.4923 34.9866C57.4923 34.7874 57.2268 34.4554 56.8949 34.4554C56.5629 34.5218 56.2974 34.8538 56.2974 35.0529Z" fill="#F6A24A"/>
<path d="M56.4302 33.3933C56.563 33.2605 56.8285 33.1277 57.0277 33.1277C57.2268 33.1277 57.4924 33.1941 57.6252 33.3269C57.6252 33.1277 57.3596 32.7958 57.0277 32.7958C56.6293 32.8622 56.4302 33.1941 56.4302 33.3933Z" fill="#F6A24A"/>
<path d="M52.8452 34.3227C52.978 34.1899 53.2435 34.0572 53.4427 34.0572C53.6419 34.0572 53.9074 34.1235 54.0402 34.2563C54.0402 34.0572 53.7747 33.7252 53.4427 33.7252C53.1108 33.7916 52.8452 34.1236 52.8452 34.3227Z" fill="#F6A24A"/>
<path d="M56.7621 34.5219C56.8949 34.3892 57.1605 34.2564 57.3596 34.2564C57.5588 34.2564 57.8243 34.3228 57.9571 34.4555C57.9571 34.2564 57.6916 33.9244 57.3596 33.9244C56.9613 33.9908 56.6957 34.3228 56.7621 34.5219Z" fill="#F6A24A"/>
<path d="M57.5588 35.1858C57.6916 35.053 57.9572 34.9202 58.1563 34.9202C58.3555 34.9202 58.6211 34.9866 58.7538 35.1194C58.7538 34.9202 58.4883 34.5883 58.1563 34.5883C57.8244 34.6546 57.5588 34.9202 57.5588 35.1858Z" fill="#F6A24A"/>
<path d="M57.7578 32.663C57.957 32.4638 58.2225 32.2647 58.4881 32.2647C58.7536 32.2647 59.0192 32.3974 59.2184 32.5966C59.2184 32.4638 59.152 32.2647 59.0856 32.1319C59.0192 32.0655 58.9528 31.9991 58.82 31.9327C58.7536 31.8663 58.6209 31.8663 58.4881 31.8663C58.2225 31.8663 58.0234 31.9991 57.957 32.1319C57.7578 32.3311 57.7578 32.5302 57.7578 32.663Z" fill="#FFFBE9"/>
<path d="M50.123 41.4263C50.455 42.0902 50.8533 42.754 51.3844 43.4843C51.65 43.8826 51.9819 44.281 52.4466 44.5465C52.6458 44.6793 52.9114 44.8121 53.1769 44.9448C53.4425 45.0112 53.708 45.0776 53.9736 45.144C55.1022 45.3432 56.098 45.144 56.961 44.9448C57.8241 44.7457 58.6208 44.4801 59.2846 44.2146C58.5544 44.2146 57.7577 44.281 56.8947 44.3474C56.0316 44.4137 55.0358 44.4801 54.1063 44.3474C53.9072 44.281 53.6416 44.2146 53.4425 44.2146C53.2433 44.1482 53.0441 44.0154 52.845 43.949C52.6458 43.8162 52.4466 43.7499 52.3139 43.5507C52.1811 43.4179 51.9819 43.2851 51.8491 43.086C51.2516 42.4885 50.6542 41.891 50.123 41.4263Z" fill="#212121"/>
<path d="M53.1105 43.7498C53.3096 43.8162 53.5752 43.8826 53.7744 43.949C54.7038 44.0817 55.5668 44.0154 56.3635 43.8162C57.0938 43.6834 57.7577 43.4179 58.3552 43.2187C57.8904 43.2187 57.2929 43.2851 56.6954 43.2851C56.5627 43.2851 56.4299 43.2851 56.2307 43.2851C55.766 43.2851 55.2349 43.2851 54.7702 43.1523C54.6374 43.1523 54.4382 43.1523 54.3055 43.0859C54.2391 42.9531 54.1727 42.8868 54.0399 42.754C53.9735 42.6212 53.9071 42.4884 53.8407 42.3556C53.6416 42.2229 53.4424 42.1565 53.1769 42.0237C52.9777 41.8909 52.7121 41.7582 52.513 41.6918C52.2474 41.559 52.0483 41.4262 51.7827 41.2934C51.5172 41.1607 51.318 41.0279 51.0524 40.8951C50.9861 40.8287 50.9197 40.8287 50.8533 40.7623C50.8533 40.8951 50.8533 41.0279 50.8533 41.0943C50.8533 41.1607 50.8533 41.227 50.8533 41.227C50.8533 41.2934 50.8533 41.2934 50.8533 41.3598C50.9197 41.4926 50.9861 41.6918 51.0524 41.8909C51.318 42.2893 51.6499 42.754 52.0483 43.1523L52.1147 43.2187C52.181 43.2851 52.3138 43.3515 52.3802 43.4179C52.7121 43.5506 52.9113 43.6834 53.1105 43.7498Z" fill="#212121"/>
<path d="M53.0441 42.4885C53.2433 42.5549 53.4424 42.6212 53.6416 42.6212C54.4383 42.754 55.1685 42.6876 55.766 42.5549C56.3635 42.4221 56.961 42.2893 57.4257 42.0901C57.1602 42.0901 56.8946 42.1565 56.4963 42.1565C56.4299 42.1565 56.3635 42.1565 56.2307 42.1565C55.9652 42.1565 55.6996 42.0901 55.4341 42.0238C55.3677 41.9574 55.2349 41.9574 55.1685 41.891C55.2349 41.7582 55.2349 41.6918 55.3013 41.559C55.3677 41.4263 55.4341 41.2935 55.5005 41.0943C55.2349 41.0279 54.9694 40.9615 54.7038 40.8952C54.4383 40.8288 54.1727 40.7624 53.9072 40.6296C53.5752 40.5632 53.3097 40.4968 52.9777 40.364C52.6458 40.2977 52.3802 40.1649 52.0483 40.0985C51.9819 40.0985 51.9155 40.0321 51.7827 40.0321C51.65 40.0985 51.5836 40.1649 51.5172 40.2313C51.4508 40.2313 51.4508 40.2977 51.3844 40.2977C51.318 40.2977 51.318 40.2977 51.2516 40.2977C51.1188 40.2977 50.9861 40.2313 50.9197 40.2977C51.1852 40.7624 51.5172 41.2935 51.9819 41.8246L52.0483 41.891C52.1811 41.9574 52.2474 42.0901 52.3802 42.1565C52.5794 42.2893 52.7786 42.4221 53.0441 42.4885Z" fill="#212121"/>
<path d="M52.9115 41.2936C53.0443 41.36 53.2434 41.36 53.3762 41.4264C53.9737 41.5591 54.5712 41.4927 55.1023 41.4264C55.567 41.36 56.0317 41.2272 56.4301 41.1608C56.4301 41.1608 56.3637 41.1608 56.2973 41.1608C56.2973 41.1608 56.2973 41.1608 56.2309 41.1608C56.1645 41.1608 56.0981 41.0944 56.0317 40.9616C56.0317 40.8952 55.9654 40.8952 55.9654 40.8289C56.1645 40.6961 56.2973 40.5633 56.4301 40.4305C56.6292 40.2314 56.762 40.0986 56.9612 39.8994C56.6292 39.833 56.3637 39.833 56.0317 39.7666C55.6998 39.7003 55.3679 39.7003 55.0359 39.6339C54.704 39.5675 54.3057 39.5675 53.9737 39.5011C53.5754 39.4347 53.2434 39.3683 52.8451 39.3019C52.7787 39.3019 52.6459 39.2355 52.5796 39.2355C52.3804 39.3019 52.1812 39.3019 52.0485 39.3683C51.9157 39.3683 51.8493 39.3683 51.7829 39.3019C51.7165 39.2355 51.6501 39.1692 51.5173 39.1692C51.1854 38.97 50.9199 38.7044 50.6543 38.5717C50.9199 39.1028 51.3182 39.7666 51.7829 40.3641C51.8493 40.4305 51.8493 40.4305 51.9157 40.4969C52.0484 40.6297 52.1148 40.6961 52.2476 40.8289C52.4468 41.028 52.7123 41.1608 52.9115 41.2936Z" fill="#212121"/>
<path d="M52.845 40.0321C52.9778 40.0985 53.0442 40.0985 53.177 40.1649C53.6417 40.2977 54.04 40.2977 54.4383 40.2313C54.7703 40.2313 55.1022 40.1649 55.4342 40.0985C55.6333 40.0985 55.8325 40.0985 56.0317 40.0321C56.098 40.0321 56.1644 40.0321 56.1644 39.9657C56.3636 39.8993 56.4964 39.833 56.6292 39.7002C56.6955 39.6338 56.6955 39.6338 56.7619 39.5674C57.0939 39.4346 57.3594 39.3018 57.625 39.1691C57.9569 38.9699 58.2225 38.8371 58.488 38.638C58.1561 38.638 57.7578 38.638 57.3594 38.638C56.9611 38.638 56.6292 38.638 56.2308 38.638C55.8325 38.638 55.3678 38.638 54.9694 38.638C54.5047 38.638 54.1728 38.638 53.6417 38.5716C53.5089 38.5716 53.4425 38.5716 53.3097 38.5052C53.0442 38.5052 52.7786 38.5052 52.5131 38.5052C52.3803 38.5052 52.2475 38.4388 52.1147 38.3724C51.982 38.306 51.8492 38.1732 51.7164 38.1069C51.2517 37.7085 50.787 37.3102 50.3887 36.9783C50.3887 36.9783 50.3887 36.9783 50.3223 36.9119C50.6542 37.5094 50.9861 38.2396 51.5836 38.9699C51.65 39.0363 51.65 39.0363 51.7164 39.1027C51.8492 39.2355 51.9156 39.3682 52.1147 39.501C52.3139 39.7666 52.5795 39.8993 52.845 40.0321Z" fill="#212121"/>
<path d="M50.123 35.3849C50.455 36.1152 50.8533 36.8454 51.4508 37.6421C51.5836 37.8413 51.7828 38.0404 51.9819 38.2396C52.1811 38.4387 52.513 38.6379 52.7786 38.7707C53.3761 38.9699 53.9736 39.0362 54.5047 39.0362C55.0358 39.0362 55.6997 39.0362 56.1644 38.9035C56.6955 38.7707 57.1602 38.6379 57.6249 38.5051C58.5544 38.1732 59.351 37.8413 60.0149 37.4429C59.2182 37.5093 58.3552 37.5757 57.4258 37.7085C56.961 37.7749 56.4299 37.8413 55.9652 37.9076C55.4341 37.974 55.0358 37.974 54.4383 37.974C53.9072 37.974 53.4425 37.9076 53.0441 37.8413C52.845 37.7749 52.6458 37.7085 52.513 37.5757C52.3139 37.4429 52.1811 37.2438 51.9819 37.111C51.3844 36.5135 50.7205 35.8496 50.123 35.3849Z" fill="#212121"/>
<path d="M42.223 41.4262C44.1483 41.0943 46.8038 41.227 47.6005 42.2229L50.6543 45.4095C51.451 46.4053 50.5215 47.5339 48.5299 47.8659L43.2188 48.7953C41.2936 49.1272 39.0364 48.5961 38.2397 47.6003L35.9161 44.6128C35.1195 43.617 36.0489 42.4884 38.0405 42.1565L42.223 41.4262Z" fill="#B2B2B2"/>
<path d="M42.2892 32.8622C44.2145 32.5303 46.8036 32.6631 47.5339 33.7917C47.5339 33.7917 50.6542 36.7127 50.7869 37.775C50.9197 38.7708 50.3222 44.6129 50.3222 44.6129C50.123 46.4054 49.5255 46.8701 47.6003 47.2021L43.0859 48.1315C41.1606 48.4635 39.0362 47.9324 38.2395 46.8038L35.9159 43.6171C35.7832 43.418 35.9159 35.8497 35.9159 35.6505C35.7168 34.7875 36.6462 33.9244 38.2395 33.5925L42.2892 32.8622Z" fill="url(#paint4_linear)"/>
<path d="M42.1566 33.2605C43.8827 32.9286 46.2726 33.0614 47.0029 33.9244L49.7248 36.7127C50.4551 37.5758 49.5921 38.5716 47.7996 38.8372L43.0196 39.7002C41.2935 40.0321 39.3019 39.5674 38.5716 38.7044L36.5136 36.1152C35.7833 35.2522 36.6463 34.2564 38.4388 33.9908L42.1566 33.2605Z" fill="#F2DDB7"/>
<path d="M42.5547 34.6547C43.5505 34.4555 44.8783 34.5219 45.2766 34.9866L46.8036 36.4472C47.2019 36.9119 46.7372 37.443 45.7414 37.5758L43.0194 38.0405C42.0236 38.2397 40.895 37.9741 40.4967 37.5094L39.3017 36.1152C38.9034 35.6505 39.3681 35.1194 40.3639 34.9866L42.5547 34.6547Z" fill="#E94E1B"/>
<path d="M37.5757 35.4514C37.8412 35.1859 38.1732 34.9867 38.5715 34.9867C38.9698 34.9867 39.3018 35.1859 39.5673 35.4514C39.5673 35.2522 39.5009 35.0531 39.3018 34.8539C39.2354 34.7211 39.1026 34.6547 38.9698 34.5884C38.8371 34.522 38.7043 34.522 38.5051 34.522C38.1732 34.522 37.9076 34.7211 37.7749 34.9203C37.6421 34.9867 37.5757 35.2522 37.5757 35.4514Z" fill="#FFFBE9"/>
<path d="M37.3767 36.9119C37.6423 36.6463 37.9742 36.4471 38.3725 36.4471C38.7709 36.4471 39.1028 36.6463 39.3684 36.9119C39.3684 36.7127 39.302 36.5135 39.1028 36.3144C39.0364 36.1816 38.9036 36.1152 38.7709 36.0488C38.6381 35.9824 38.5053 35.9824 38.3061 35.9824C37.9742 35.9824 37.7087 36.1816 37.5759 36.3808C37.4431 36.5135 37.3767 36.7791 37.3767 36.9119Z" fill="#FFFBE9"/>
<path d="M39.7002 38.9699C39.8994 38.7707 40.0985 38.5716 40.2977 38.5716C40.4969 38.5716 40.7624 38.7707 40.8952 38.9035C40.8952 38.7707 40.8952 38.638 40.7624 38.5052C40.696 38.3724 40.4969 38.2396 40.2313 38.2396C40.0321 38.2396 39.833 38.3724 39.7666 38.5716C39.7002 38.7043 39.7002 38.9035 39.7002 38.9699Z" fill="#FFFBE9"/>
<path d="M41.3599 39.3019C41.6254 39.0363 41.9574 38.8372 42.3557 38.8372C42.754 38.8372 43.086 39.0363 43.3515 39.3019C43.3515 39.1027 43.2851 38.9035 43.086 38.7044C43.0196 38.5716 42.8868 38.5052 42.754 38.4388C42.6212 38.3724 42.4885 38.3724 42.2893 38.3724C41.9574 38.3724 41.6918 38.5716 41.559 38.7708C41.3599 38.9035 41.3599 39.1027 41.3599 39.3019Z" fill="#FFFBE9"/>
<path d="M47.4011 36.7791C47.6003 36.58 47.7995 36.5136 48.065 36.4472C48.3306 36.4472 48.5297 36.58 48.7289 36.7127C48.7289 36.4472 48.4633 36.1152 48.065 36.1152C47.6667 36.1816 47.4011 36.58 47.4011 36.7791Z" fill="#FFFBE9"/>
<path d="M42.4885 34.1237C42.7541 33.8581 43.086 33.6589 43.4844 33.6589C43.8827 33.6589 44.2146 33.8581 44.4802 34.1237C44.4802 33.9245 44.4138 33.7253 44.2146 33.5262C44.1482 33.3934 44.0155 33.327 43.8827 33.2606C43.7499 33.1942 43.6171 33.1942 43.418 33.1942C43.086 33.1942 42.8205 33.3934 42.6877 33.5925C42.4885 33.7253 42.4885 33.9245 42.4885 34.1237Z" fill="#FFFBE9"/>
<path d="M45.7415 35.3185C45.9407 35.1194 46.2063 34.9866 46.4718 34.9866C46.7374 34.9866 47.0029 35.1194 47.2021 35.3185C47.2021 35.1858 47.1357 34.9866 47.0029 34.8538C46.9365 34.7874 46.8701 34.721 46.7374 34.6546C46.671 34.5883 46.5382 34.5883 46.4054 34.5883C45.9407 34.5883 45.6752 35.053 45.7415 35.3185Z" fill="#FFFBE9"/>
<path d="M38.4387 38.0404C38.6379 37.9077 38.9034 37.8413 39.169 37.7749C39.4345 37.7749 39.7665 37.7749 39.9657 37.9077C39.8993 37.6421 39.5009 37.4429 39.169 37.5093C38.7707 37.5093 38.4387 37.7749 38.4387 38.0404Z" fill="#FFFBE9"/>
<path d="M40.0321 34.5219C40.2313 34.3227 40.4969 34.0571 40.7624 34.0571C41.028 34.0571 41.2935 34.2563 41.4927 34.4555C41.4927 34.3227 41.4927 34.1235 41.3599 33.9908C41.2271 33.7916 41.028 33.6588 40.7624 33.6588C40.4969 33.6588 40.2977 33.858 40.1649 33.9908C40.0321 34.1899 39.9658 34.3227 40.0321 34.5219Z" fill="#FFFBE9"/>
<path d="M46.4053 38.638C46.6044 38.4388 46.8036 38.2396 47.0028 38.2396C47.2019 38.2396 47.4675 38.4388 47.6003 38.638C47.6003 38.5052 47.6003 38.3724 47.4675 38.1733C47.4011 38.0405 47.2019 37.8413 46.9364 37.8413C46.6708 37.8413 46.4717 38.0405 46.4053 38.1733C46.4053 38.306 46.4053 38.5052 46.4053 38.638Z" fill="#FFFBE9"/>
<path d="M41.0942 36.5136C41.2934 36.3144 41.4925 36.1153 41.6917 36.1153C41.8909 36.1153 42.1564 36.3144 42.2892 36.5136C42.2892 36.3808 42.2892 36.248 42.1564 36.0489C42.09 35.9161 41.8909 35.7169 41.6253 35.7169C41.3598 35.7169 41.1606 35.9161 41.0942 36.0489C41.0278 36.1816 41.0942 36.3808 41.0942 36.5136Z" fill="#F6A24A"/>
<path d="M41.2935 37.6421C41.4927 37.5093 41.6919 37.3765 41.9574 37.3765C42.223 37.3765 42.4221 37.4429 42.6213 37.6421C42.6213 37.4429 42.3558 37.111 41.9574 37.111C41.4927 37.111 41.2272 37.4429 41.2935 37.6421Z" fill="#F6A24A"/>
<path d="M42.0239 35.5841C42.2231 35.4513 42.4223 35.3185 42.6878 35.3185C42.9534 35.3185 43.1525 35.3849 43.3517 35.5841C43.3517 35.3849 43.0861 35.053 42.6878 35.053C42.2895 35.053 42.0239 35.3849 42.0239 35.5841Z" fill="#F6A24A"/>
<path d="M43.4181 36.8455C43.6172 36.7127 43.8164 36.5799 44.0819 36.5799C44.3475 36.5799 44.5467 36.6463 44.7458 36.8455C44.7458 36.6463 44.4803 36.3144 44.0819 36.3144C43.6172 36.248 43.3517 36.5799 43.4181 36.8455Z" fill="#F6A24A"/>
<path d="M43.4844 35.053C43.6835 34.9202 43.8827 34.7874 44.1483 34.7874C44.4138 34.7874 44.613 34.8538 44.8121 35.053C44.8121 34.8538 44.5466 34.5219 44.1483 34.5219C43.7499 34.4555 43.4844 34.7874 43.4844 35.053Z" fill="#F6A24A"/>
<path d="M39.7 36.0489C39.8992 35.9161 40.0984 35.7833 40.3639 35.7833C40.6295 35.7833 40.8286 35.8497 41.0278 36.0489C41.0278 35.8497 40.7622 35.5178 40.3639 35.5178C39.8992 35.4514 39.6336 35.8497 39.7 36.0489Z" fill="#F6A24A"/>
<path d="M43.8164 36.248C44.0156 36.1152 44.2147 35.9825 44.4803 35.9825C44.7458 35.9825 44.945 36.0489 45.1442 36.248C45.1442 36.0489 44.8786 35.7169 44.4803 35.7169C44.082 35.7169 43.8164 36.0489 43.8164 36.248Z" fill="#F6A24A"/>
<path d="M44.7456 36.9118C44.9448 36.7791 45.1439 36.6463 45.4095 36.6463C45.675 36.6463 45.8742 36.7127 46.0734 36.9118C46.0734 36.7127 45.8078 36.3807 45.4095 36.3807C45.0112 36.3807 44.7456 36.7127 44.7456 36.9118Z" fill="#F6A24A"/>
<path d="M44.9448 34.2563C45.144 34.0571 45.4095 33.8579 45.7415 33.8579C46.007 33.8579 46.2726 33.9907 46.5381 34.1899C46.5381 34.0571 46.4718 33.8579 46.339 33.7251C46.2726 33.6588 46.2062 33.5924 46.0734 33.526C45.9407 33.4596 45.8079 33.4596 45.7415 33.4596C45.4759 33.4596 45.2768 33.5924 45.144 33.7915C44.9448 33.9243 44.9448 34.0571 44.9448 34.2563Z" fill="#FFFBE9"/>
<path d="M36.7126 43.7499C37.0446 44.4138 37.5093 45.2104 38.1068 46.0071C38.2396 46.2062 38.4387 46.4054 38.6379 46.6046C38.7707 46.8037 39.0362 47.0029 39.3018 47.1357C39.5673 47.2685 39.8329 47.4012 40.0985 47.534C40.364 47.6004 40.6959 47.6668 40.9615 47.7996C42.1565 47.9987 43.2851 47.7996 44.2145 47.6004C45.144 47.4012 46.007 47.0693 46.7373 46.8037C45.9406 46.8037 45.0776 46.8701 44.1481 46.9365C43.2187 47.0029 42.1565 47.0693 41.1607 46.9365C40.8951 46.8701 40.6959 46.8037 40.4304 46.7374C40.2312 46.6046 39.9657 46.5382 39.7665 46.4718C39.5673 46.339 39.3682 46.2726 39.2354 46.0735C39.0362 45.9407 38.9035 45.7415 38.7043 45.6087C37.9076 44.8785 37.3101 44.2146 36.7126 43.7499Z" fill="#212121"/>
<path d="M36.7126 42.4221C37.0446 43.1524 37.5093 43.8827 38.1068 44.7457C38.306 44.9449 38.4387 45.144 38.6379 45.3432C38.8371 45.5424 39.1026 45.7415 39.3018 45.8743C39.6337 46.0735 39.9657 46.1399 40.2976 46.2726C40.6296 46.339 41.0279 46.4054 41.3598 46.4054C42.422 46.5382 43.4179 46.339 44.2809 46.1399C45.2767 45.8743 46.0734 45.6088 46.8037 45.2768C46.007 45.2768 45.144 45.3432 44.1481 45.476C43.2851 45.5424 42.3557 45.6088 41.4262 45.476C41.0943 45.476 40.8287 45.4096 40.4968 45.3432C40.2312 45.2768 39.8993 45.2104 39.7001 45.0777C39.501 44.9449 39.3018 44.8785 39.169 44.6793C38.9698 44.5465 38.8371 44.3474 38.6379 44.2146C37.974 43.5507 37.3101 42.9532 36.7126 42.4221Z" fill="#212121"/>
<path d="M36.7126 41.0944C37.0446 41.8246 37.5093 42.6213 38.1068 43.418C38.306 43.6171 38.4387 43.8163 38.6379 44.0154C38.8371 44.2146 39.1026 44.4138 39.3682 44.5466C39.7665 44.7457 40.1648 44.8121 40.5632 44.9449C40.9615 45.0113 41.4262 45.0113 41.8245 45.0113C42.754 45.0777 43.617 44.9449 44.4137 44.6793C45.4095 44.4138 46.2726 44.0818 46.9364 43.7499C46.1398 43.7499 45.2104 43.8827 44.2809 43.9491C43.4843 44.0154 42.6876 44.0818 41.8909 44.0154C41.4926 44.0154 41.2271 43.9491 40.8287 43.9491C40.4968 43.8827 40.0985 43.8163 39.8329 43.6835C39.6337 43.5507 39.4346 43.4843 39.3018 43.3516C39.1026 43.2188 38.9699 43.0196 38.7707 42.8868C37.974 42.2893 37.3101 41.6255 36.7126 41.0944Z" fill="#212121"/>
<path d="M36.7126 39.833C37.0446 40.5633 37.5093 41.3599 38.1068 42.223C38.306 42.4222 38.4387 42.6213 38.6379 42.8869C38.8371 43.086 39.1026 43.2852 39.4346 43.418C39.8993 43.6171 40.4304 43.6835 40.8951 43.7499C41.3598 43.8163 41.8909 43.8163 42.3557 43.7499C43.1523 43.7499 43.949 43.6171 44.6129 43.418C45.6087 43.1524 46.4717 42.7541 47.1356 42.4222C46.339 42.4222 45.4095 42.5549 44.4137 42.6213C43.7498 42.6877 43.0195 42.7541 42.2893 42.6877C41.8909 42.6877 41.4926 42.6877 41.0279 42.6213C40.6296 42.5549 40.1648 42.5549 39.8329 42.4222C39.6337 42.3558 39.4346 42.223 39.2354 42.0902C39.0362 41.9574 38.9035 41.7583 38.7043 41.6255C38.0404 40.9616 37.3101 40.2977 36.7126 39.833Z" fill="#212121"/>
<path d="M36.7126 38.5052C37.0446 39.2355 37.5093 40.0986 38.1068 40.8952C38.306 41.0944 38.4387 41.3599 38.6379 41.5591C38.8371 41.7583 39.169 41.9574 39.4346 42.0902C39.9657 42.2894 40.5632 42.3558 41.0943 42.4222C41.6254 42.4222 42.2229 42.4222 42.754 42.3558C43.4179 42.2894 44.0818 42.1566 44.6792 41.9574C45.6751 41.6255 46.5381 41.2936 47.2684 40.8952C46.4717 40.9616 45.5423 41.028 44.4801 41.1608C43.8826 41.2272 43.2851 41.2936 42.6212 41.2936C42.1565 41.3599 41.6918 41.3599 41.1607 41.2936C40.6959 41.2272 40.1648 41.2272 39.8329 41.0944C39.6337 41.028 39.4346 40.9616 39.2354 40.8288C39.0362 40.6961 38.9035 40.4969 38.7043 40.3641C38.0404 39.7002 37.3765 39.0364 36.7126 38.5052Z" fill="#212121"/>
<path d="M36.7126 37.1775C37.0446 37.9078 37.5093 38.7708 38.1068 39.6339C38.306 39.833 38.4387 40.0986 38.6379 40.2977C38.9035 40.4969 39.169 40.6961 39.501 40.8288C40.1648 41.0944 40.7623 41.0944 41.3598 41.1608C41.9573 41.1608 42.6212 41.1608 43.1523 41.028C43.7498 40.8952 44.2809 40.7625 44.7456 40.5633C45.7415 40.2314 46.6045 39.833 47.3348 39.4347C46.5381 39.5011 45.5423 39.5675 44.5465 39.7002C44.0154 39.7666 43.4843 39.833 42.9531 39.8994C42.422 39.9658 41.9573 39.9658 41.3598 39.9658C40.8287 39.9658 40.2312 39.8994 39.8329 39.833C39.6337 39.7666 39.4346 39.7002 39.2354 39.5675C39.0362 39.4347 38.8371 39.2355 38.7043 39.1028C38.0404 38.3725 37.3765 37.7086 36.7126 37.1775Z" fill="#212121"/>
<path d="M24.4974 59.152C24.4974 59.152 24.431 59.152 24.4974 59.152C24.1655 59.152 23.8999 58.8865 23.9663 58.5545L24.2319 55.6334C24.2319 55.3015 24.4974 55.1023 24.8293 55.1687C25.0949 55.1687 25.3605 55.4343 25.2941 55.7662L25.0285 58.6873C25.0285 58.9529 24.763 59.152 24.4974 59.152Z" fill="#C2C2C2"/>
<path d="M22.7713 32.7295L28.4807 52.646C28.6799 53.3762 28.2816 54.1729 27.4849 54.4385C26.7546 54.6376 25.958 54.2393 25.6924 53.4426C25.6924 53.3762 25.6924 53.3762 25.6924 53.3099L21.9083 32.9286C21.8419 32.7295 22.0411 32.4639 22.2402 32.4639C22.5058 32.3975 22.7049 32.5303 22.7713 32.7295Z" fill="#9D9D9C"/>
<path d="M19.5845 32.3312L35.053 52.1149C35.4513 52.646 35.385 53.4427 34.8539 53.841C34.3227 54.2393 33.5261 54.1729 33.1278 53.6418L33.0614 53.5754L18.987 32.7295C18.8543 32.5303 18.9207 32.3312 19.1198 32.1984C19.2526 32.132 19.4518 32.1984 19.5845 32.3312Z" fill="#9D9D9C"/>
<path d="M21.1778 24.2317L31.8664 61.8738C32.0655 62.6041 31.6672 63.3344 30.9369 63.5336C30.2066 63.7327 29.4764 63.3344 29.2772 62.6041V62.5377L20.3812 24.4308C20.3148 24.2317 20.4476 23.9661 20.7131 23.9661C20.9123 23.8997 21.1114 24.0325 21.1778 24.2317Z" fill="#7B410B"/>
<path d="M20.8459 24.2981L30.2067 61.5419C30.2731 61.6747 30.1403 61.8739 30.0075 61.8739C29.8747 61.9403 29.6756 61.8075 29.6756 61.6747L20.7131 24.3645C20.7131 24.2981 20.7131 24.2981 20.7795 24.2317L20.8459 24.2981Z" fill="#BB8E53"/>
<path d="M14.6719 25.4267L43.5509 57.2267C44.082 57.8242 44.0156 58.6873 43.4845 59.2184C42.9534 59.7495 42.0239 59.6831 41.4928 59.152C41.4928 59.152 41.4928 59.0856 41.4264 59.0856L14.0081 25.9578C13.8753 25.7587 13.8753 25.4931 14.0745 25.3603C14.2072 25.2276 14.4728 25.2939 14.6719 25.4267Z" fill="#7B410B"/>
<path d="M14.4064 25.6259L41.9576 57.6914C42.0904 57.8242 42.024 58.0234 41.8912 58.1561C41.7584 58.2889 41.5593 58.2225 41.4265 58.1561L14.2073 25.825C14.2073 25.7586 14.2073 25.7586 14.2073 25.6922C14.3401 25.6259 14.3401 25.6259 14.4064 25.6259Z" fill="#BB8E53"/>
<defs>
<linearGradient id="paint0_linear" x1="8.39591" y1="43.7796" x2="53.5041" y2="4.00441" gradientUnits="userSpaceOnUse">
<stop stop-color="#DADADA"/>
<stop offset="0.3224" stop-color="#E0E0E0"/>
<stop offset="1" stop-color="#EBEBEB"/>
</linearGradient>
<linearGradient id="paint1_linear" x1="55.7902" y1="30.6396" x2="41.4708" y2="30.3349" gradientUnits="userSpaceOnUse">
<stop stop-color="#4D4D4C"/>
<stop offset="1" stop-color="#706F6F"/>
</linearGradient>
<linearGradient id="paint2_linear" x1="43.7222" y1="33.7448" x2="28.0556" y2="33.4114" gradientUnits="userSpaceOnUse">
<stop stop-color="#4D4D4C"/>
<stop offset="1" stop-color="#706F6F"/>
</linearGradient>
<linearGradient id="paint3_linear" x1="62.6126" y1="38.585" x2="47.9017" y2="38.272" gradientUnits="userSpaceOnUse">
<stop stop-color="#4D4D4C"/>
<stop offset="1" stop-color="#706F6F"/>
</linearGradient>
<linearGradient id="paint4_linear" x1="50.1762" y1="40.6409" x2="34.3132" y2="40.3034" gradientUnits="userSpaceOnUse">
<stop stop-color="#4D4D4C"/>
<stop offset="1" stop-color="#706F6F"/>
</linearGradient>
</defs>
</svg>
