<svg width="100" height="130" viewBox="0 0 100 130" fill="none" xmlns="http://www.w3.org/2000/svg">
<rect width="100" height="130" rx="10" fill="white"/>
<g clip-path="url(#clip0)">
<path d="M49.5 50.8122C66.4712 50.8122 81.6447 53.2572 92 57.0685C89.8426 33.4814 71.6489 15 49.5 15C27.3511 15 9.15736 33.4814 7 57.0685C17.3553 53.1853 32.5288 50.8122 49.5 50.8122Z" fill="#8EC044"/>
<path d="M19.0812 71.379L19.5127 73.1049L37.2749 81.9501L64.4577 64.835L64.242 63.9001L46.192 61.1675L19.0812 71.379Z" fill="#D2D2D2"/>
<path d="M71.3613 60.6641C71.3613 62.3181 67.6218 63.6844 63.0914 63.6844C58.489 63.6844 54.8215 62.3181 54.8215 60.6641C54.8215 59.0101 58.5609 57.6438 63.0914 57.6438C67.6937 57.7157 71.3613 59.0101 71.3613 60.6641Z" fill="#D2D2D2"/>
<path d="M69.6354 74.1835C69.6354 75.5499 66.9746 76.6285 63.7386 76.6285C60.5025 76.6285 57.8418 75.5499 57.8418 74.1835C57.8418 72.8172 60.5025 71.7385 63.7386 71.7385C66.9746 71.7385 69.6354 72.8172 69.6354 74.1835Z" fill="#D2D2D2"/>
<path d="M76.1794 81.3029C76.1794 82.7412 73.3029 83.8918 69.7073 83.8918C66.1117 83.8918 63.2352 82.7412 63.2352 81.3029C63.2352 79.8647 66.1117 78.7141 69.7073 78.7141C73.3029 78.7141 76.1794 79.8647 76.1794 81.3029Z" fill="#D2D2D2"/>
<path d="M79.775 47.5042C80.566 46.1378 82.2919 45.7783 83.8739 46.5693C84.665 47.0008 85.0964 47.7199 85.0964 48.5109C85.0964 49.6615 83.2986 50.1649 82.22 50.4526C80.4222 50.9559 72.5838 52.2504 75.5322 55.0549C76.5389 55.9898 78.121 54.6235 77.1861 53.6886C76.9704 54.1201 77.1142 54.192 77.4738 53.9043C77.8333 53.7605 78.2648 53.6167 78.6244 53.4729C79.4873 53.1852 80.4222 52.9695 81.2851 52.7537C82.7234 52.3942 84.3773 52.0346 85.5998 51.2436C87.1819 50.1649 87.8291 48.439 86.9662 46.857C85.1684 43.7647 79.7031 43.4052 77.8333 46.6412C77.1142 47.648 79.1278 48.6548 79.775 47.5042Z" fill="url(#paint0_radial)"/>
<path d="M79.0558 43.2614C79.0558 43.2614 79.9907 54.4797 70.5702 58.0033V59.3697C70.5702 59.3697 70.8579 62.1023 61.2217 61.8866C54.2462 61.6709 54.2462 59.3697 54.2462 59.3697V58.0033C44.8976 54.4797 45.7606 43.2614 45.7606 43.2614L67.3342 43.1176L74.4535 43.3333L79.0558 43.2614Z" fill="url(#paint1_radial)"/>
<path d="M79.0558 43.6928C79.0558 46.5693 71.5051 49.0143 62.3723 49.0143C53.1675 49.0143 45.7606 46.7131 45.7606 43.7647C45.7606 40.8882 53.2394 38.5151 62.3723 38.5151C71.577 38.587 79.0558 40.8163 79.0558 43.6928Z" fill="url(#paint2_linear)"/>
<path d="M78.121 43.7648C78.121 46.4974 71.0736 48.7267 62.3722 48.7267C53.6709 48.7267 46.6235 46.4974 46.6235 43.7648C46.6235 41.0321 53.6709 38.8029 62.3722 38.8029C71.0736 38.8029 78.121 41.0321 78.121 43.7648Z" fill="url(#paint3_linear)"/>
<path d="M73.8063 56.2055C72.4399 57.0684 70.6421 57.5718 68.6286 57.9314C66.6151 58.2909 64.4577 58.4348 62.1565 58.4348C59.8553 58.4348 57.6261 58.219 55.6844 57.8595C53.7428 57.4999 51.945 56.9246 50.6506 55.9178C51.5855 57.2842 53.3833 58.2909 55.3968 58.9382C57.4103 59.5854 59.7834 59.9449 62.1565 59.9449C64.6015 59.9449 66.9027 59.6573 68.9163 59.0101C71.0017 58.4348 72.7995 57.428 73.8063 56.2055Z" fill="#929292"/>
<path d="M62.3723 48.7267C68.9163 48.7267 74.9569 47.5042 77.33 45.3468C74.9569 42.758 68.9163 41.2478 62.3723 41.2478C55.8283 41.2478 49.7877 42.758 47.4146 45.3468C49.7877 47.5042 55.8283 48.7267 62.3723 48.7267Z" fill="#9E6410"/>
<path d="M62.3723 48.7268C68.9163 48.7268 74.5973 47.4323 76.8985 45.7065C74.5254 43.5491 68.9163 42.0389 62.3723 42.0389C55.8283 42.0389 50.1472 43.5491 47.846 45.7065C50.1472 47.4323 55.8283 48.7268 62.3723 48.7268Z" fill="url(#paint4_linear)"/>
<path d="M50.4349 45.8503C53.6709 45.2031 57.9856 44.8435 62.7318 44.8435C63.3071 44.8435 63.8824 44.8435 64.4577 44.8435C65.033 44.8435 65.6083 44.8435 66.1836 44.8435C66.7589 44.8435 67.2623 44.9154 67.8376 44.9873C68.4129 44.9873 68.9163 45.0593 69.4196 45.1312C71.5051 45.3469 73.3748 45.7065 74.813 46.4256C73.5186 45.3469 71.6489 44.5559 69.5635 44.1244C69.0601 43.9806 68.4848 43.9087 67.9814 43.8367C67.4061 43.7648 66.8308 43.621 66.2555 43.621C65.6802 43.621 65.1049 43.5491 64.5296 43.4772C63.9543 43.4053 63.3071 43.4053 62.7318 43.4053C57.8418 43.4053 53.3833 44.3401 50.4349 45.8503Z" fill="#99713D"/>
<path d="M63.4509 31.8993C62.5161 32.2589 61.3655 32.978 60.7183 34.3443C60.3587 34.9915 60.2149 35.9264 60.3587 36.7893C60.3587 37.005 60.4306 37.2208 60.5026 37.4365C60.5745 37.6523 60.6464 37.868 60.7902 38.0837L61.0779 38.659L61.2936 39.0186C61.9408 40.0973 62.2284 41.0321 62.0127 41.967C61.8689 42.9737 61.2217 43.9086 60.5026 44.6996C61.5093 44.5558 62.8037 43.9805 63.5948 42.6142C63.9543 41.967 64.1701 41.0321 64.0982 40.2411C64.0262 39.3781 63.7386 38.5871 63.3071 37.868C63.0914 37.5803 62.9476 37.2927 62.7318 37.005C62.6599 36.9331 62.588 36.7893 62.5161 36.7174C62.4442 36.6455 62.3723 36.5017 62.3723 36.4297C62.2284 35.9983 62.1565 35.4949 62.2284 34.9915C62.4442 33.8409 62.9476 32.7622 63.4509 31.8993Z" fill="#F1E3D1"/>
<path d="M64.242 63.972L37.0592 80.368L19.1532 71.379L20.088 69.1497L46.8393 59.082L63.3071 62.1023L64.242 63.972Z" fill="url(#paint5_linear)"/>
<path d="M63.3071 62.1743L36.5558 76.8443L20.088 69.0779L46.8393 58.0753L63.3071 62.1743Z" fill="url(#paint6_linear)"/>
<path d="M23.6836 71.1633C23.5397 71.1633 23.3959 71.0914 23.324 70.9476C23.2521 70.7319 23.324 70.588 23.4678 70.4442L49.3562 58.7225C49.5 58.6506 49.7157 58.7225 49.8595 58.8664C49.9314 59.0821 49.8595 59.2259 49.7157 59.3698L23.8274 71.0914C23.8274 71.1633 23.7555 71.1633 23.6836 71.1633Z" fill="#5C150B"/>
<path d="M27.8545 73.1768C27.7107 73.1768 27.5668 73.1049 27.5668 72.961C27.4949 72.8172 27.5668 72.6015 27.7107 72.4577L53.2394 59.8731C53.3832 59.8011 53.599 59.8731 53.7428 60.0169C53.8147 60.1607 53.7428 60.3764 53.599 60.5203L27.9983 73.1768C27.9983 73.1768 27.9264 73.1768 27.8545 73.1768Z" fill="#5C150B"/>
<path d="M32.2411 75.3342C32.0973 75.3342 31.9535 75.2623 31.9535 75.1184C31.8815 74.9746 31.9535 74.7589 32.0973 74.6151L58.3452 61.0237C58.489 60.9518 58.7047 61.0237 58.8486 61.1675C58.9205 61.3113 58.8486 61.5271 58.7047 61.6709L32.3849 75.2623C32.3849 75.3342 32.313 75.3342 32.2411 75.3342Z" fill="#5C150B"/>
<path d="M40.9425 74.687C40.8706 74.687 40.8706 74.687 40.7986 74.687L24.9061 67.7834C24.6904 67.7115 24.6184 67.4958 24.6904 67.2801C24.7623 67.0643 24.978 66.9924 25.1937 67.0643L41.0863 73.9679C41.302 74.0398 41.3739 74.2555 41.302 74.4713C41.2301 74.6151 41.0863 74.687 40.9425 74.687Z" fill="#5C150B"/>
<path d="M45.5448 72.1701C45.4729 72.1701 45.4729 72.1701 45.401 72.1701L29.5804 65.8419C29.4365 65.77 29.2927 65.5542 29.3646 65.4104C29.4365 65.2666 29.6523 65.1228 29.7961 65.1947L45.6167 71.5229C45.7606 71.5948 45.9044 71.8106 45.8325 71.9544C45.7606 72.0982 45.6887 72.1701 45.5448 72.1701Z" fill="#5C150B"/>
<path d="M50.1472 69.5812C50.1472 69.5812 50.0753 69.5812 50.0034 69.5812L34.2546 63.9001C34.1108 63.8282 34.0389 63.6844 34.0389 63.4687C34.1108 63.3248 34.2546 63.2529 34.4704 63.2529L50.2191 68.934C50.3629 69.0059 50.4349 69.1497 50.4349 69.3655C50.3629 69.5093 50.2191 69.5812 50.1472 69.5812Z" fill="#5C150B"/>
<path d="M54.6777 67.0644H54.6058L39.0009 61.9586C38.857 61.8867 38.7851 61.7429 38.7851 61.599C38.857 61.4552 39.0009 61.3833 39.1447 61.3833L54.7496 66.4891C54.8934 66.561 54.9653 66.7048 54.9653 66.8486C54.9653 66.9924 54.8215 67.0644 54.6777 67.0644Z" fill="#5C150B"/>
<path d="M59.28 64.5474H59.2081L43.6751 60.0169C43.5313 59.945 43.4594 59.8012 43.4594 59.6574C43.5313 59.5136 43.6751 59.4417 43.819 59.4417L59.352 63.9721C59.4958 64.044 59.5677 64.1878 59.5677 64.3317C59.4958 64.4755 59.4239 64.5474 59.28 64.5474Z" fill="#5C150B"/>
<path d="M63.7386 66.1294C60.7183 66.1294 58.3452 69.4374 58.3452 73.5363C58.3452 73.7521 58.3452 73.9678 58.3452 74.1116C59.7834 74.6869 61.4374 75.0465 63.2352 75.0465C65.4645 75.0465 67.5499 74.5431 69.132 73.6802C69.132 73.6082 69.132 73.6083 69.132 73.5363C69.2039 69.5093 66.7589 66.1294 63.7386 66.1294Z" fill="url(#paint7_radial)"/>
<path d="M63.5948 69.725C61.9408 69.725 60.5025 69.2935 59.7834 68.6463C59.7115 68.5744 59.7115 68.4306 59.7834 68.3587C59.8553 68.2868 59.9992 68.2868 60.0711 68.3587C60.6464 68.934 62.0846 69.2935 63.5948 69.2935C65.5364 69.2935 66.9027 68.7182 67.2623 68.2149C67.3342 68.1429 67.478 68.071 67.5499 68.1429C67.6218 68.2149 67.6937 68.3587 67.6218 68.4306C67.1185 69.2216 65.5364 69.725 63.5948 69.725Z" fill="#53160C"/>
<path d="M63.6667 71.7385C61.5812 71.7385 59.7834 71.307 58.9205 70.5879C58.7767 70.516 58.7767 70.3002 58.9205 70.2283C58.9924 70.0845 59.2081 70.0845 59.2801 70.2283C60.0711 70.8755 61.797 71.307 63.6667 71.307C66.0398 71.307 67.8376 70.6598 68.2691 70.0845C68.341 69.9407 68.5567 69.9407 68.6286 70.0126C68.7724 70.0845 68.7724 70.3002 68.7005 70.3721C68.0533 71.1632 65.9679 71.7385 63.6667 71.7385Z" fill="#53160C"/>
<path d="M63.5947 69.3655C62.0127 69.3655 60.5025 69.0059 59.8553 68.3587C59.8553 68.3587 59.8553 68.2868 59.8553 68.2149C59.8553 68.2149 59.9272 68.2149 59.9991 68.2149C60.6463 68.7902 62.0846 69.1497 63.5947 69.1497C65.3206 69.1497 66.9027 68.6463 67.4061 67.9991C67.4061 67.9991 67.478 67.9272 67.478 67.9991C67.478 67.9991 67.5499 68.071 67.478 68.143C67.0465 68.8621 65.4645 69.3655 63.5947 69.3655Z" fill="#BC6D36"/>
<path d="M63.6667 71.379C61.6532 71.379 59.8554 70.9475 58.9924 70.2284C58.9924 70.2284 58.9205 70.1565 58.9924 70.0846C58.9924 70.0846 59.0643 70.0127 59.1362 70.0846C59.9273 70.7318 61.7251 71.1633 63.6667 71.1633C65.896 71.1633 67.8376 70.588 68.4129 69.8689C68.4129 69.8689 68.4848 69.797 68.5567 69.8689C68.5567 69.8689 68.6286 69.9408 68.5567 70.0127C67.9095 70.8037 65.9679 71.379 63.6667 71.379Z" fill="#BC6D36"/>
<path d="M69.7073 71.6666C66.3274 71.6666 63.5948 75.406 63.5948 80.0803C63.5948 80.2961 63.5948 80.5118 63.5948 80.7994C65.1768 81.4467 67.1185 81.8062 69.132 81.8062C71.6489 81.8062 73.9501 81.2309 75.7479 80.2961C75.7479 80.2242 75.7479 80.1522 75.7479 80.0803C75.8198 75.478 73.0871 71.6666 69.7073 71.6666Z" fill="url(#paint8_radial)"/>
<path d="M69.5635 75.6937C67.6937 75.6937 66.0398 75.2622 65.2487 74.5431C65.1768 74.4712 65.1049 74.2554 65.2487 74.1835C65.3206 74.1116 65.5364 74.0397 65.6083 74.1835C66.3274 74.8307 67.8376 75.2622 69.5635 75.2622C71.7208 75.2622 73.3029 74.615 73.7344 74.0397C73.8063 73.8959 73.9501 73.8959 74.0939 73.9678C74.2377 74.0397 74.2377 74.1835 74.1658 74.3273C73.5186 75.1184 71.6489 75.6937 69.5635 75.6937Z" fill="#53160C"/>
<path d="M69.5635 77.9949C67.2623 77.9949 65.1768 77.4915 64.1701 76.7005C64.0262 76.6286 64.0262 76.4128 64.0982 76.269C64.1701 76.1252 64.3858 76.1252 64.5296 76.1971C65.3926 76.9162 67.3342 77.3477 69.4916 77.3477C72.2242 77.3477 74.1658 76.6286 74.6692 75.9094C74.7411 75.7656 74.9569 75.7656 75.1007 75.8375C75.2445 75.9094 75.2445 76.1252 75.1726 76.269C74.5254 77.3477 72.2242 77.9949 69.5635 77.9949Z" fill="#53160C"/>
<path d="M69.5635 75.3341C67.7657 75.3341 66.1117 74.9026 65.3926 74.1835C65.3926 74.1835 65.3206 74.1116 65.3926 74.0397C65.3926 73.9678 65.4645 73.9678 65.5364 74.0397C66.2555 74.6869 67.8376 75.1184 69.6354 75.1184C71.6489 75.1184 73.3748 74.5431 73.9501 73.824C73.9501 73.752 74.022 73.752 74.0939 73.824C74.1658 73.824 74.1658 73.8959 74.0939 73.9678C73.3748 74.7588 71.6489 75.3341 69.5635 75.3341Z" fill="#BC6D36"/>
<path d="M69.5635 77.6353C67.3342 77.6353 65.2487 77.1319 64.3139 76.3409C64.242 76.3409 64.242 76.269 64.3139 76.1971C64.3139 76.1251 64.3858 76.1251 64.4577 76.1971C65.3207 76.9162 67.3342 77.4196 69.5635 77.4196C72.0804 77.4196 74.2377 76.7723 74.9569 75.9094C74.9569 75.8375 75.0288 75.8375 75.1007 75.9094C75.1726 75.9094 75.1726 75.9813 75.1007 76.0532C74.3816 76.9881 72.1523 77.6353 69.5635 77.6353Z" fill="#BC6D36"/>
<path d="M41.4458 52.1785C42.0931 51.3874 40.5829 48.1514 32.7445 46.1379C31.1624 45.203 29.077 44.5558 27.0634 44.5558C25.8409 44.5558 24.7623 44.8434 23.9712 45.2749C22.3172 44.9153 20.3756 44.9153 18.7936 45.4906C17.1396 46.0659 16.0609 47.1446 15.6294 48.3671C14.4069 48.6548 13.2563 49.2301 12.3934 50.1649C11.0271 51.6032 10.7394 53.6167 11.3147 55.2707C9.58882 63.1091 15.7013 66.417 17.5711 66.5609C21.1667 66.8485 21.2386 63.5406 21.3105 59.0101C22.3172 58.5786 23.1083 58.0033 23.6836 57.2842C24.115 56.7808 24.3308 56.2055 24.4746 55.5583C24.5465 55.4864 24.6184 55.4864 24.6903 55.4145C25.8409 55.4145 26.7758 55.1988 27.6387 54.8392C28.5017 54.4796 29.077 53.9043 29.5084 53.1852C29.7242 53.1133 29.868 53.1133 30.0837 53.0414C30.659 53.1133 31.1624 53.1852 31.6658 53.1133C32.4568 53.0414 33.176 52.8976 33.7513 52.6099C38.7132 51.9627 40.8706 53.2571 41.4458 52.1785Z" fill="url(#paint9_linear)"/>
<path d="M14.4069 62.6057C14.335 61.7428 14.1912 60.736 14.1193 59.6574C14.0474 59.154 14.0474 58.5787 14.0474 58.0034C14.0474 57.7157 14.0474 57.4281 14.0474 57.1404C14.0474 56.9966 14.1193 56.8528 14.1193 56.709C14.1193 56.6371 14.1193 56.5651 14.1912 56.4932L14.2631 56.1337C14.1912 56.0618 14.1193 55.9898 14.0474 55.846L13.9755 55.6303C13.544 54.4797 13.3283 53.2572 13.544 52.2504C13.6878 51.747 13.9035 51.2436 14.1912 50.8841C14.335 50.6684 14.5508 50.5245 14.6946 50.3088C14.9103 50.165 15.0541 50.0211 15.2699 49.8773C15.0541 49.9492 14.8384 50.0931 14.6227 50.165C14.4069 50.3088 14.1912 50.4526 13.9755 50.5964C13.544 50.956 13.1844 51.4594 12.9687 52.0347C12.5372 53.2572 12.681 54.6954 13.1844 55.9898C13.1844 56.0618 13.2563 56.1337 13.2563 56.2056C13.2563 56.2775 13.2563 56.2056 13.2563 56.2775V56.3494C13.2563 56.4213 13.1844 56.5651 13.1844 56.6371C13.1844 56.7809 13.1125 56.9966 13.1125 57.1404C13.1125 57.5 13.1125 57.7876 13.1125 58.0753C13.1844 58.7225 13.2563 59.2978 13.4002 59.8012C13.6878 60.8799 14.0474 61.8147 14.4069 62.6057Z" fill="#FBB800"/>
<path d="M22.1734 46.0659C22.1734 46.0659 21.8139 46.0659 21.3105 46.1378C20.8071 46.1378 20.1599 46.2817 19.4408 46.4255C19.1531 46.5693 18.7936 46.6412 18.5059 46.8569C18.2183 47.0727 17.9306 47.2165 17.7149 47.4322C17.643 47.5042 17.4992 47.648 17.4272 47.7199C17.3553 47.7918 17.2834 47.9356 17.2115 48.0075C17.0677 48.1514 17.0677 48.2233 17.0677 48.2952C16.9958 48.5109 17.2115 48.7267 17.4992 48.7986C17.7868 48.7986 18.0025 48.7986 18.0744 48.7267C18.0744 48.7267 18.0744 48.6548 18.1464 48.5828C18.1464 48.5109 18.2183 48.439 18.2183 48.3671C18.2902 48.2952 18.2902 48.2233 18.3621 48.1514C18.434 47.9356 18.6497 47.7918 18.8655 47.5761C19.0812 47.3603 19.3689 47.2165 19.5846 47.0727C20.1599 46.785 20.7352 46.5693 21.2386 46.4255C21.8858 46.2097 22.1734 46.0659 22.1734 46.0659Z" fill="#FBB800"/>
<path d="M31.0905 46.3535C31.0905 46.3535 30.8748 46.2097 30.5871 45.9221C30.2276 45.7063 29.7961 45.4187 29.2208 45.2749C28.6455 45.131 28.0702 45.131 27.5668 45.2749C27.3511 45.3468 27.1353 45.4187 26.9915 45.4906C26.8477 45.5625 26.7758 45.6344 26.7758 45.6344C26.632 45.7063 26.7039 45.994 26.8477 46.1378C26.9915 46.2816 27.2073 46.3535 27.2792 46.3535C27.2792 46.3535 27.423 46.2097 27.7826 46.0659C28.0702 45.9221 28.5736 45.7782 29.077 45.8502C29.5804 45.9221 30.0837 46.0659 30.4433 46.2097C30.8748 46.2097 31.0905 46.3535 31.0905 46.3535Z" fill="#FBB800"/>
<path d="M11.3866 55.2706C12.8968 54.9111 14.9103 54.7673 16.9239 55.5583C17.9306 55.9898 18.7217 56.5651 19.5127 57.1404C19.8722 57.4999 20.2318 57.7876 20.5195 58.0752C20.8071 58.3629 21.0948 58.7224 21.3824 58.9382C21.2386 58.5786 21.0228 58.219 20.8071 57.8595C20.5914 57.4999 20.2318 57.1404 19.9442 56.7089C19.225 55.9898 18.3621 55.2706 17.2834 54.7673C16.2047 54.3358 15.0541 54.192 14.0474 54.3358C12.8968 54.5515 12.0338 54.8392 11.3866 55.2706Z" fill="#864010"/>
<path d="M15.6294 48.3671C16.4924 48.2952 17.4272 48.3671 18.434 48.6548C19.4408 48.9424 20.4475 49.4458 21.3105 50.2369C22.1734 51.0279 22.7487 52.0347 23.324 52.8976C23.5398 53.401 23.8274 53.8325 23.9712 54.2639C24.1151 54.6954 24.3308 55.1269 24.4746 55.5583C24.4027 55.1269 24.3308 54.6954 24.2589 54.192C24.187 53.6886 23.9712 53.1852 23.8274 52.6819C23.3959 51.6751 22.8206 50.5245 21.8858 49.6616C20.9509 48.7986 19.7284 48.2233 18.5778 48.0795C17.4992 47.9357 16.4205 48.0795 15.6294 48.3671Z" fill="#864010"/>
<path d="M23.9712 45.2749C24.6903 45.4187 25.4095 45.7064 26.2005 46.2097C26.9196 46.7131 27.5668 47.3603 28.0702 48.2233C29.077 49.9492 29.2927 51.8189 29.5084 53.2571C29.5804 52.8976 29.5804 52.538 29.6523 52.1065C29.7242 51.6751 29.6523 51.2436 29.6523 50.7402C29.5804 49.8053 29.3646 48.7986 28.7893 47.7918C28.214 46.8569 27.423 46.0659 26.5601 45.7064C25.5533 45.2749 24.6903 45.1311 23.9712 45.2749Z" fill="#864010"/>
<path d="M33.0321 46.5693C33.3198 47.5042 33.6793 48.5829 33.8951 49.6616C34.0389 50.1649 34.0389 50.6683 34.0389 51.1717C34.0389 51.4593 33.967 51.6751 33.967 51.8908C33.8951 52.1066 33.8951 52.3942 33.8232 52.6099C34.0389 52.4661 34.2546 52.3942 34.4704 52.1785C34.6861 51.9627 34.9018 51.747 35.0457 51.4593C35.3333 50.8841 35.4771 50.093 35.3333 49.3739C35.1895 48.6548 34.8299 48.0076 34.3984 47.5761C33.967 47.0727 33.4636 46.7851 33.0321 46.5693Z" fill="#864010"/>
<path d="M34.0389 47.0727C34.0389 47.1446 33.8951 47.2884 33.8232 47.2165C33.7512 47.2165 33.6793 47.0727 33.6793 47.0008C33.6793 46.8569 33.8232 46.785 33.8951 46.8569C33.967 46.8569 34.0389 46.9289 34.0389 47.0727Z" fill="white"/>
<path d="M32.2411 46.7131C32.2411 46.9288 32.0254 47.0727 31.8816 47.0008C31.6658 47.0008 31.5939 46.785 31.5939 46.5693C31.5939 46.3536 31.8097 46.2097 31.9535 46.2816C32.0973 46.3536 32.2411 46.5693 32.2411 46.7131Z" fill="white"/>
<path d="M29.5084 46.3536C29.5084 46.4974 29.3646 46.5693 29.2208 46.5693C29.077 46.5693 29.0051 46.4255 29.0051 46.2817C29.0051 46.1378 29.1489 46.0659 29.2927 46.0659C29.4365 46.1378 29.5804 46.2097 29.5084 46.3536Z" fill="white"/>
<path d="M25.6971 48.6547C25.6971 48.7985 25.6252 48.8704 25.4814 48.8704C25.3376 48.8704 25.2657 48.7985 25.2657 48.6547C25.2657 48.5109 25.3376 48.439 25.4814 48.439C25.5533 48.439 25.6971 48.5109 25.6971 48.6547Z" fill="white"/>
<path d="M22.1015 48.1513C22.1734 48.3671 22.0296 48.6547 21.742 48.7266C21.5262 48.7985 21.2386 48.6547 21.1667 48.3671C21.0947 48.1513 21.2386 47.8637 21.4543 47.7918C21.8139 47.7199 22.1015 47.8637 22.1015 48.1513Z" fill="white"/>
<path d="M23.1083 47.5761C23.1802 47.7199 23.0364 47.8637 22.8926 47.9356C22.7487 48.0076 22.6049 47.8637 22.6049 47.7199C22.6049 47.5761 22.6768 47.4323 22.8207 47.3604C22.9645 47.3604 23.1083 47.4323 23.1083 47.5761Z" fill="white"/>
<path d="M19.1531 49.3738C19.225 49.5176 19.225 49.7334 19.0812 49.8053C18.9374 49.8772 18.7936 49.8772 18.6497 49.7334C18.5778 49.5896 18.5778 49.3738 18.7217 49.3019C18.8655 49.1581 19.0093 49.23 19.1531 49.3738Z" fill="white"/>
<path d="M17.8587 51.6032C18.0745 51.747 18.0745 52.1065 17.9306 52.2504C17.7868 52.4661 17.4992 52.4661 17.2834 52.3223C17.0677 52.1785 17.0677 51.8189 17.2115 51.6751C17.3553 51.4593 17.643 51.3874 17.8587 51.6032Z" fill="white"/>
<path d="M16.4205 53.2572C16.5643 53.401 16.5643 53.6167 16.4205 53.7605C16.2766 53.9044 16.0609 53.9044 15.989 53.7605C15.8452 53.6167 15.8452 53.401 15.989 53.2572C16.0609 53.1133 16.2766 53.1133 16.4205 53.2572Z" fill="white"/>
<path d="M14.4788 55.1268C14.5508 55.1268 14.6227 55.2707 14.5508 55.3426C14.4788 55.4145 14.4069 55.4864 14.335 55.4145C14.2631 55.3426 14.1912 55.2707 14.2631 55.1987C14.2631 55.1268 14.4069 55.0549 14.4788 55.1268Z" fill="white"/>
<path d="M14.7665 57.428C14.8384 57.3561 14.9822 57.428 14.9822 57.4999C15.0542 57.5718 14.9822 57.7156 14.9103 57.7156C14.8384 57.7875 14.6946 57.7156 14.6946 57.6437C14.6946 57.5718 14.6946 57.428 14.7665 57.428Z" fill="white"/>
<path d="M15.989 59.945C16.1328 59.873 16.2767 59.945 16.2767 60.0888C16.3486 60.2326 16.2767 60.3764 16.1328 60.3764C15.989 60.4483 15.8452 60.3764 15.8452 60.2326C15.7733 60.0888 15.8452 59.945 15.989 59.945Z" fill="white"/>
<path d="M24.4027 47.0726C24.4027 47.2884 24.2589 47.5041 24.0431 47.5041C23.8274 47.5041 23.6836 47.3603 23.6117 47.1446C23.6117 46.9288 23.7555 46.7131 23.9712 46.7131C24.2589 46.6412 24.4027 46.8569 24.4027 47.0726Z" fill="white"/>
<path d="M25.1937 47.3604C25.1937 47.5042 25.1218 47.5761 25.0499 47.648C24.9061 47.648 24.8342 47.5761 24.7623 47.5042C24.7623 47.3604 24.8342 47.2885 24.9061 47.2166C25.0499 47.1447 25.1937 47.2166 25.1937 47.3604Z" fill="white"/>
<path d="M22.6768 46.4255C22.7487 46.6412 22.6049 46.9289 22.3173 47.0008C22.1015 47.0727 21.8139 46.9289 21.8139 46.6412C21.742 46.4255 21.8858 46.1378 22.1734 46.0659C22.3892 45.994 22.6049 46.1378 22.6768 46.4255Z" fill="white"/>
<path d="M21.4543 47.0008C21.4543 47.1446 21.3824 47.2884 21.3105 47.2884C21.1667 47.2884 21.0948 47.2165 21.0228 47.1446C21.0228 47.0008 21.0948 46.8569 21.1667 46.8569C21.3105 46.8569 21.4543 46.9288 21.4543 47.0008Z" fill="white"/>
<path d="M18.0744 49.0862C18.1464 49.23 18.0744 49.4458 17.9306 49.5177C17.7868 49.5896 17.5711 49.5177 17.4991 49.3739C17.4272 49.23 17.4991 49.0143 17.643 48.9424C17.7868 48.7986 18.0025 48.8705 18.0744 49.0862Z" fill="white"/>
<path d="M15.6295 50.956C15.8452 51.0998 15.8452 51.3874 15.7014 51.5313C15.5575 51.747 15.2699 51.747 15.1261 51.6032C14.9103 51.4593 14.9103 51.1717 15.0542 51.0279C15.198 50.884 15.4137 50.8121 15.6295 50.956Z" fill="white"/>
<path d="M14.6946 52.8976C14.9103 53.0414 14.9103 53.3291 14.7665 53.5448C14.6227 53.7605 14.335 53.8325 14.1193 53.6167C13.9035 53.4729 13.8316 53.1852 13.9755 52.9695C14.1912 52.7538 14.4788 52.6819 14.6946 52.8976Z" fill="white"/>
<path d="M13.7597 56.4213C13.9755 56.2774 14.1912 56.3493 14.335 56.5651C14.4788 56.7808 14.4069 56.9966 14.1912 57.1404C13.9755 57.2842 13.7597 57.2123 13.6159 56.9966C13.4721 56.8527 13.544 56.5651 13.7597 56.4213Z" fill="white"/>
<path d="M15.7732 56.1337C15.8452 56.0618 15.989 56.1337 16.0609 56.2056C16.1328 56.2775 16.0609 56.4213 15.989 56.4932C15.9171 56.5651 15.7732 56.4932 15.7013 56.4213C15.6294 56.2775 15.6294 56.2056 15.7732 56.1337Z" fill="white"/>
<path d="M17.2115 54.5516C16.9958 54.4796 16.8519 54.2639 16.9239 53.9763C16.9958 53.7605 17.2115 53.6167 17.4992 53.6167C17.7149 53.6886 17.8587 53.9043 17.8587 54.192C17.7149 54.4796 17.4272 54.6235 17.2115 54.5516Z" fill="white"/>
<path d="M19.2969 53.1133C19.225 53.0414 19.225 52.8976 19.3688 52.8257C19.4408 52.7538 19.5846 52.7538 19.6565 52.8976C19.7284 52.9695 19.7284 53.1133 19.5846 53.1852C19.4408 53.2572 19.2969 53.2572 19.2969 53.1133Z" fill="white"/>
<path d="M17.9306 50.956C17.8587 50.8122 17.8587 50.5964 18.0025 50.5245C18.1464 50.4526 18.3621 50.4526 18.434 50.5964C18.5059 50.7403 18.5059 50.956 18.3621 51.0279C18.2183 51.1717 18.0745 51.0998 17.9306 50.956Z" fill="white"/>
<path d="M16.4205 50.7402C16.2767 50.5245 16.3486 50.2368 16.5643 50.093C16.78 49.9492 17.0677 50.0211 17.2115 50.2368C17.3553 50.4526 17.2834 50.7402 17.0677 50.8841C16.852 51.0279 16.5643 50.956 16.4205 50.7402Z" fill="white"/>
<path d="M22.8206 49.9492C22.7487 49.8053 22.8206 49.6615 22.9645 49.6615C23.1083 49.5896 23.1802 49.6615 23.2521 49.8053C23.324 49.9492 23.2521 50.093 23.1083 50.093C22.9645 50.1649 22.8206 50.093 22.8206 49.9492Z" fill="white"/>
<path d="M23.6836 49.9492C23.6117 49.6616 23.7555 49.4458 23.9712 49.3739C24.187 49.302 24.4746 49.4458 24.5465 49.6616C24.6184 49.9492 24.4746 50.165 24.2589 50.3088C24.0431 50.3088 23.7555 50.165 23.6836 49.9492Z" fill="white"/>
<path d="M25.769 50.2369C25.769 50.1649 25.769 50.0211 25.9128 50.0211C25.9847 50.0211 26.1286 50.0211 26.1286 50.1649C26.1286 50.2369 26.1286 50.3807 25.9847 50.3807C25.9128 50.3807 25.769 50.3807 25.769 50.2369Z" fill="white"/>
<path d="M30.5152 48.1514C30.5152 48.0076 30.5871 47.9357 30.731 47.9357C30.8748 47.9357 30.9467 48.0076 30.9467 48.1514C30.9467 48.2952 30.8748 48.3671 30.731 48.3671C30.6591 48.3671 30.5152 48.2233 30.5152 48.1514Z" fill="white"/>
<path d="M30.0118 47.5042C30.0118 47.2885 30.1557 47.1447 30.3714 47.1447C30.5871 47.1447 30.731 47.2885 30.731 47.5042C30.731 47.7199 30.5871 47.8638 30.3714 47.8638C30.2276 47.8638 30.0118 47.7199 30.0118 47.5042Z" fill="white"/>
<path d="M29.0051 47.648C29.0051 47.5042 29.077 47.4323 29.2208 47.4323C29.3646 47.4323 29.4365 47.5042 29.4365 47.648C29.4365 47.7918 29.3646 47.8637 29.2208 47.8637C29.077 47.8637 29.0051 47.7918 29.0051 47.648Z" fill="white"/>
<path d="M29.7961 49.4459C29.7961 49.302 29.868 49.1582 30.0118 49.1582C30.1557 49.1582 30.2276 49.2301 30.2995 49.3739C30.2995 49.5178 30.2276 49.6616 30.0838 49.6616C29.868 49.7335 29.7961 49.5897 29.7961 49.4459Z" fill="white"/>
<path d="M31.3782 48.9425C31.3782 48.7267 31.522 48.511 31.7377 48.511C31.9535 48.511 32.0973 48.6548 32.1692 48.8705C32.1692 49.0863 32.0254 49.302 31.8097 49.302C31.5939 49.302 31.3782 49.1582 31.3782 48.9425Z" fill="white"/>
<path d="M34.0389 49.9491C34.1108 49.7334 34.3985 49.6615 34.5423 49.7334C34.758 49.8053 34.8299 50.0929 34.758 50.3087C34.6861 50.5244 34.3985 50.5963 34.2547 50.5244C34.0389 50.3806 33.967 50.1649 34.0389 49.9491Z" fill="white"/>
<path d="M36.3401 49.5177C36.3401 49.6616 36.1963 49.8054 35.9805 49.7335C35.8367 49.7335 35.6929 49.5896 35.7648 49.3739C35.7648 49.2301 35.9086 49.0863 36.1244 49.1582C36.2682 49.2301 36.3401 49.3739 36.3401 49.5177Z" fill="white"/>
<path d="M35.9805 48.9424C35.9805 49.1581 35.7648 49.3019 35.5491 49.23C35.3333 49.1581 35.1895 49.0143 35.2614 48.7985C35.3333 48.5828 35.4772 48.439 35.6929 48.5109C35.9086 48.5828 35.9805 48.7266 35.9805 48.9424Z" fill="white"/>
<path d="M33.5355 49.6616C33.5355 49.8054 33.3917 49.8773 33.2479 49.8054C33.1041 49.8054 33.0322 49.6616 33.1041 49.5177C33.1041 49.3739 33.2479 49.302 33.3917 49.3739C33.4636 49.4458 33.5355 49.5177 33.5355 49.6616Z" fill="white"/>
<path d="M29.7961 48.3671C29.7961 48.439 29.7242 48.5828 29.6523 48.5828C29.5804 48.5828 29.4366 48.5109 29.4366 48.439C29.4366 48.3671 29.5085 48.2233 29.5804 48.2233C29.7242 48.2233 29.7961 48.2952 29.7961 48.3671Z" fill="white"/>
<path d="M27.2792 48.2952C27.3511 48.5829 27.2073 48.7986 26.9196 48.8705C26.632 48.9425 26.4162 48.7986 26.3443 48.511C26.2724 48.2233 26.4162 48.0076 26.7039 47.9357C26.9196 47.8638 27.2073 48.0076 27.2792 48.2952Z" fill="white"/>
<path d="M26.2724 50.093C26.3443 50.3088 26.2005 50.5964 25.9129 50.5964C25.6971 50.6683 25.4814 50.5245 25.4095 50.2368C25.3376 50.0211 25.4814 49.7335 25.6971 49.7335C25.9848 49.6616 26.2005 49.8773 26.2724 50.093Z" fill="white"/>
<path d="M22.8207 48.9424C22.8926 49.0862 22.8207 49.2301 22.7487 49.2301C22.6049 49.302 22.4611 49.2301 22.4611 49.1582C22.3892 49.0143 22.4611 48.8705 22.533 48.8705C22.6049 48.7267 22.7487 48.7986 22.8207 48.9424Z" fill="white"/>
<path d="M19.6565 51.5313C19.8003 51.6751 19.8003 51.9627 19.5846 52.1066C19.4408 52.2504 19.1531 52.2504 19.0093 52.0347C18.8655 51.8189 18.8655 51.6032 19.0812 51.4594C19.225 51.3155 19.5127 51.3155 19.6565 51.5313Z" fill="white"/>
<path d="M18.0744 53.1853C18.1464 53.2572 18.1464 53.401 18.0744 53.4729C18.0025 53.5448 17.8587 53.5448 17.7868 53.4729C17.7149 53.401 17.7149 53.2572 17.7868 53.1853C17.9306 53.0414 18.0025 53.0414 18.0744 53.1853Z" fill="white"/>
<path d="M15.3418 56.7808C15.5575 56.8527 15.6294 56.9965 15.6294 57.2123C15.5575 57.428 15.4137 57.5718 15.198 57.4999C15.0541 57.428 14.9103 57.2123 14.9103 57.0684C14.9822 56.8527 15.198 56.7089 15.3418 56.7808Z" fill="white"/>
<path d="M15.1979 58.219C15.2699 58.219 15.3418 58.2909 15.3418 58.4347C15.3418 58.5067 15.2699 58.5786 15.126 58.5786C15.0541 58.5786 14.9822 58.5067 14.9822 58.3628C14.9822 58.219 15.0541 58.1471 15.1979 58.219Z" fill="white"/>
</g>
<path d="M26.6971 99.272C26.6971 100.131 26.5611 100.912 26.2891 101.616C26.0171 102.32 25.6331 102.923 25.1371 103.424C24.6411 103.925 24.0465 104.315 23.3531 104.592C22.6598 104.864 21.8918 105 21.0491 105H16.7611V93.536H21.0491C21.8918 93.536 22.6598 93.6747 23.3531 93.952C24.0465 94.224 24.6411 94.6133 25.1371 95.12C25.6331 95.6213 26.0171 96.224 26.2891 96.928C26.5611 97.632 26.6971 98.4133 26.6971 99.272ZM25.1051 99.272C25.1051 98.568 25.0091 97.9387 24.8171 97.384C24.6251 96.8293 24.3531 96.36 24.0011 95.976C23.6491 95.592 23.2225 95.2987 22.7211 95.096C22.2198 94.8933 21.6625 94.792 21.0491 94.792H18.3211V103.744H21.0491C21.6625 103.744 22.2198 103.643 22.7211 103.44C23.2225 103.237 23.6491 102.947 24.0011 102.568C24.3531 102.184 24.6251 101.715 24.8171 101.16C25.0091 100.605 25.1051 99.976 25.1051 99.272ZM31.816 96.768C32.3013 96.768 32.7493 96.8507 33.16 97.016C33.5707 97.176 33.9253 97.4107 34.224 97.72C34.5227 98.024 34.7547 98.4027 34.92 98.856C35.0907 99.304 35.176 99.816 35.176 100.392C35.176 100.616 35.152 100.765 35.104 100.84C35.056 100.915 34.9653 100.952 34.832 100.952H29.44C29.4507 101.464 29.52 101.909 29.648 102.288C29.776 102.667 29.952 102.984 30.176 103.24C30.4 103.491 30.6667 103.68 30.976 103.808C31.2853 103.931 31.632 103.992 32.016 103.992C32.3733 103.992 32.68 103.952 32.936 103.872C33.1973 103.787 33.4213 103.696 33.608 103.6C33.7947 103.504 33.9493 103.416 34.072 103.336C34.2 103.251 34.3093 103.208 34.4 103.208C34.5173 103.208 34.608 103.253 34.672 103.344L35.072 103.864C34.896 104.077 34.6853 104.264 34.44 104.424C34.1947 104.579 33.9307 104.707 33.648 104.808C33.3707 104.909 33.0827 104.984 32.784 105.032C32.4853 105.085 32.1893 105.112 31.896 105.112C31.336 105.112 30.8187 105.019 30.344 104.832C29.8747 104.64 29.4667 104.363 29.12 104C28.7787 103.632 28.512 103.179 28.32 102.64C28.128 102.101 28.032 101.483 28.032 100.784C28.032 100.219 28.1173 99.6907 28.288 99.2C28.464 98.7093 28.7147 98.2853 29.04 97.928C29.3653 97.5653 29.7627 97.2827 30.232 97.08C30.7013 96.872 31.2293 96.768 31.816 96.768ZM31.848 97.816C31.16 97.816 30.6187 98.016 30.224 98.416C29.8293 98.8107 29.584 99.36 29.488 100.064H33.896C33.896 99.7333 33.8507 99.432 33.76 99.16C33.6693 98.8827 33.536 98.6453 33.36 98.448C33.184 98.2453 32.968 98.0907 32.712 97.984C32.4613 97.872 32.1733 97.816 31.848 97.816ZM41.6626 98.232C41.5986 98.3493 41.5 98.408 41.3666 98.408C41.2866 98.408 41.196 98.3787 41.0946 98.32C40.9933 98.2613 40.868 98.1973 40.7186 98.128C40.5746 98.0533 40.4013 97.9867 40.1986 97.928C39.996 97.864 39.756 97.832 39.4786 97.832C39.2386 97.832 39.0226 97.864 38.8306 97.928C38.6386 97.9867 38.4733 98.0693 38.3346 98.176C38.2013 98.2827 38.0973 98.408 38.0226 98.552C37.9533 98.6907 37.9186 98.8427 37.9186 99.008C37.9186 99.216 37.9773 99.3893 38.0946 99.528C38.2173 99.6667 38.3773 99.7867 38.5746 99.888C38.772 99.9893 38.996 100.08 39.2466 100.16C39.4973 100.235 39.7533 100.317 40.0146 100.408C40.2813 100.493 40.54 100.589 40.7906 100.696C41.0413 100.803 41.2653 100.936 41.4626 101.096C41.66 101.256 41.8173 101.453 41.9346 101.688C42.0573 101.917 42.1186 102.195 42.1186 102.52C42.1186 102.893 42.052 103.24 41.9186 103.56C41.7853 103.875 41.588 104.149 41.3266 104.384C41.0653 104.613 40.7453 104.795 40.3666 104.928C39.988 105.061 39.5506 105.128 39.0546 105.128C38.4893 105.128 37.9773 105.037 37.5186 104.856C37.06 104.669 36.6706 104.432 36.3506 104.144L36.6866 103.6C36.7293 103.531 36.78 103.477 36.8386 103.44C36.8973 103.403 36.9746 103.384 37.0706 103.384C37.1666 103.384 37.268 103.421 37.3746 103.496C37.4813 103.571 37.6093 103.653 37.7586 103.744C37.9133 103.835 38.0973 103.917 38.3106 103.992C38.5293 104.067 38.8013 104.104 39.1266 104.104C39.404 104.104 39.6466 104.069 39.8546 104C40.0626 103.925 40.236 103.827 40.3746 103.704C40.5133 103.581 40.6146 103.44 40.6786 103.28C40.748 103.12 40.7826 102.949 40.7826 102.768C40.7826 102.544 40.7213 102.36 40.5986 102.216C40.4813 102.067 40.324 101.941 40.1266 101.84C39.9293 101.733 39.7026 101.643 39.4466 101.568C39.196 101.488 38.9373 101.405 38.6706 101.32C38.4093 101.235 38.1506 101.139 37.8946 101.032C37.644 100.92 37.42 100.781 37.2226 100.616C37.0253 100.451 36.8653 100.248 36.7426 100.008C36.6253 99.7627 36.5666 99.4667 36.5666 99.12C36.5666 98.8107 36.6306 98.5147 36.7586 98.232C36.8866 97.944 37.0733 97.6933 37.3186 97.48C37.564 97.2613 37.8653 97.088 38.2226 96.96C38.58 96.832 38.988 96.768 39.4466 96.768C39.98 96.768 40.4573 96.8533 40.8786 97.024C41.3053 97.1893 41.6733 97.4187 41.9826 97.712L41.6626 98.232ZM49.9361 105H49.3041C49.1655 105 49.0535 104.979 48.9681 104.936C48.8828 104.893 48.8268 104.803 48.8001 104.664L48.6401 103.912C48.4268 104.104 48.2188 104.277 48.0161 104.432C47.8135 104.581 47.6001 104.709 47.3761 104.816C47.1521 104.917 46.9121 104.995 46.6561 105.048C46.4055 105.101 46.1255 105.128 45.8161 105.128C45.5015 105.128 45.2055 105.085 44.9281 105C44.6561 104.909 44.4188 104.776 44.2161 104.6C44.0135 104.424 43.8508 104.203 43.7281 103.936C43.6108 103.664 43.5521 103.344 43.5521 102.976C43.5521 102.656 43.6401 102.349 43.8161 102.056C43.9921 101.757 44.2748 101.493 44.6641 101.264C45.0588 101.035 45.5735 100.848 46.2081 100.704C46.8428 100.555 47.6188 100.469 48.5361 100.448V99.816C48.5361 99.1867 48.4001 98.712 48.1281 98.392C47.8615 98.0667 47.4641 97.904 46.9361 97.904C46.5895 97.904 46.2961 97.9493 46.0561 98.04C45.8215 98.1253 45.6161 98.224 45.4401 98.336C45.2695 98.4427 45.1201 98.5413 44.9921 98.632C44.8695 98.7173 44.7468 98.76 44.6241 98.76C44.5281 98.76 44.4428 98.736 44.3681 98.688C44.2988 98.6347 44.2428 98.5707 44.2001 98.496L43.9441 98.04C44.3921 97.608 44.8748 97.2853 45.3921 97.072C45.9095 96.8587 46.4828 96.752 47.1121 96.752C47.5655 96.752 47.9681 96.8267 48.3201 96.976C48.6721 97.1253 48.9681 97.3333 49.2081 97.6C49.4481 97.8667 49.6295 98.1893 49.7521 98.568C49.8748 98.9467 49.9361 99.3627 49.9361 99.816V105ZM46.2401 104.128C46.4908 104.128 46.7201 104.104 46.9281 104.056C47.1361 104.003 47.3308 103.931 47.5121 103.84C47.6988 103.744 47.8748 103.629 48.0401 103.496C48.2108 103.363 48.3761 103.211 48.5361 103.04V101.352C47.8801 101.373 47.3228 101.427 46.8641 101.512C46.4055 101.592 46.0321 101.699 45.7441 101.832C45.4561 101.965 45.2455 102.123 45.1121 102.304C44.9841 102.485 44.9201 102.688 44.9201 102.912C44.9201 103.125 44.9548 103.309 45.0241 103.464C45.0935 103.619 45.1868 103.747 45.3041 103.848C45.4215 103.944 45.5601 104.016 45.7201 104.064C45.8801 104.107 46.0535 104.128 46.2401 104.128ZM54.2435 107.392C54.1955 107.499 54.1342 107.584 54.0595 107.648C53.9902 107.712 53.8808 107.744 53.7315 107.744H52.6755L54.1555 104.528L50.8115 96.896H52.0435C52.1662 96.896 52.2622 96.928 52.3315 96.992C52.4008 97.0507 52.4515 97.1173 52.4835 97.192L54.6515 102.296C54.6995 102.413 54.7395 102.531 54.7715 102.648C54.8088 102.765 54.8408 102.885 54.8675 103.008C54.9048 102.885 54.9422 102.765 54.9795 102.648C55.0168 102.531 55.0595 102.411 55.1075 102.288L57.2115 97.192C57.2435 97.1067 57.2968 97.0373 57.3715 96.984C57.4515 96.9253 57.5368 96.896 57.6275 96.896H58.7635L54.2435 107.392ZM61.311 96.896V102.064C61.311 102.677 61.4523 103.152 61.735 103.488C62.0177 103.824 62.4443 103.992 63.015 103.992C63.431 103.992 63.823 103.893 64.191 103.696C64.559 103.499 64.8977 103.224 65.207 102.872V96.896H66.631V105H65.783C65.5803 105 65.4523 104.901 65.399 104.704L65.287 103.832C64.935 104.221 64.5403 104.536 64.103 104.776C63.6657 105.011 63.1643 105.128 62.599 105.128C62.1563 105.128 61.7643 105.056 61.423 104.912C61.087 104.763 60.8043 104.555 60.575 104.288C60.3457 104.021 60.1723 103.699 60.055 103.32C59.943 102.941 59.887 102.523 59.887 102.064V96.896H61.311ZM68.9936 105V96.896H69.8416C70.0443 96.896 70.1723 96.9947 70.2256 97.192L70.3376 98.072C70.6896 97.6827 71.0816 97.368 71.5136 97.128C71.951 96.888 72.455 96.768 73.0256 96.768C73.4683 96.768 73.8576 96.8427 74.1936 96.992C74.535 97.136 74.8176 97.344 75.0416 97.616C75.271 97.8827 75.4443 98.2053 75.5616 98.584C75.679 98.9627 75.7376 99.3813 75.7376 99.84V105H74.3136V99.84C74.3136 99.2267 74.1723 98.752 73.8896 98.416C73.6123 98.0747 73.1856 97.904 72.6096 97.904C72.1883 97.904 71.7936 98.0053 71.4256 98.208C71.063 98.4107 70.727 98.6853 70.4176 99.032V105H68.9936ZM81.1883 96.768C81.7803 96.768 82.3136 96.8667 82.7882 97.064C83.2682 97.2613 83.6736 97.5413 84.0043 97.904C84.3403 98.2667 84.5963 98.7067 84.7723 99.224C84.9536 99.736 85.0443 100.309 85.0443 100.944C85.0443 101.584 84.9536 102.16 84.7723 102.672C84.5963 103.184 84.3403 103.621 84.0043 103.984C83.6736 104.347 83.2682 104.627 82.7882 104.824C82.3136 105.016 81.7803 105.112 81.1883 105.112C80.5962 105.112 80.0602 105.016 79.5802 104.824C79.1056 104.627 78.7002 104.347 78.3642 103.984C78.0282 103.621 77.7696 103.184 77.5882 102.672C77.4069 102.16 77.3162 101.584 77.3162 100.944C77.3162 100.309 77.4069 99.736 77.5882 99.224C77.7696 98.7067 78.0282 98.2667 78.3642 97.904C78.7002 97.5413 79.1056 97.2613 79.5802 97.064C80.0602 96.8667 80.5962 96.768 81.1883 96.768ZM81.1883 104C81.9882 104 82.5856 103.733 82.9802 103.2C83.3749 102.661 83.5722 101.912 83.5722 100.952C83.5722 99.9867 83.3749 99.2347 82.9802 98.696C82.5856 98.1573 81.9882 97.888 81.1883 97.888C80.7829 97.888 80.4309 97.9573 80.1322 98.096C79.8336 98.2347 79.5829 98.4347 79.3802 98.696C79.1829 98.9573 79.0336 99.28 78.9322 99.664C78.8362 100.043 78.7882 100.472 78.7882 100.952C78.7882 101.432 78.8362 101.861 78.9322 102.24C79.0336 102.619 79.1829 102.939 79.3802 103.2C79.5829 103.456 79.8336 103.653 80.1322 103.792C80.4309 103.931 80.7829 104 81.1883 104Z" fill="black"/>
<defs>
<radialGradient id="paint0_radial" cx="0" cy="0" r="1" gradientUnits="userSpaceOnUse" gradientTransform="translate(78.5075 53.2049) scale(10.7362 8.96471)">
<stop stop-color="#6D6D6C"/>
<stop offset="0.1673" stop-color="#7B7B7A"/>
<stop offset="0.486" stop-color="#9C9C9B"/>
<stop offset="0.9196" stop-color="#CDCDCC"/>
<stop offset="1" stop-color="#D6D6D6"/>
</radialGradient>
<radialGradient id="paint1_radial" cx="0" cy="0" r="1" gradientUnits="userSpaceOnUse" gradientTransform="translate(53.7013 49.5787) scale(24.9599 20.8415)">
<stop stop-color="white"/>
<stop offset="0.1884" stop-color="#E8E8E7"/>
<stop offset="0.5709" stop-color="#BAB9B9"/>
<stop offset="0.8523" stop-color="#9A9A9A"/>
<stop offset="1" stop-color="#8E8E8D"/>
</radialGradient>
<linearGradient id="paint2_linear" x1="57.0342" y1="50.6343" x2="68.879" y2="35.391" gradientUnits="userSpaceOnUse">
<stop stop-color="white"/>
<stop offset="0.1843" stop-color="#F5F5F5"/>
<stop offset="0.5352" stop-color="#D9D9D9"/>
<stop offset="1" stop-color="#ABABAA"/>
</linearGradient>
<linearGradient id="paint3_linear" x1="62.1692" y1="38.2042" x2="62.5819" y2="50.1778" gradientUnits="userSpaceOnUse">
<stop stop-color="#ACACAC"/>
<stop offset="0.2509" stop-color="#B8B8B7"/>
<stop offset="0.7265" stop-color="#D5D5D5"/>
<stop offset="1" stop-color="#E7E7E7"/>
</linearGradient>
<linearGradient id="paint4_linear" x1="62.362" y1="42.5492" x2="62.362" y2="49.4862" gradientUnits="userSpaceOnUse">
<stop offset="0.3335" stop-color="#572B09"/>
<stop offset="0.5478" stop-color="#64320F"/>
<stop offset="0.9973" stop-color="#82421A"/>
<stop offset="1" stop-color="#82421A"/>
</linearGradient>
<linearGradient id="paint5_linear" x1="28.4844" y1="74.7648" x2="63.6615" y2="61.6073" gradientUnits="userSpaceOnUse">
<stop stop-color="#5C150B"/>
<stop offset="0.0358697" stop-color="#61180D"/>
<stop offset="0.2094" stop-color="#742713"/>
<stop offset="0.3891" stop-color="#843317"/>
<stop offset="0.5756" stop-color="#903C1A"/>
<stop offset="0.7731" stop-color="#97431B"/>
<stop offset="1" stop-color="#99451C"/>
</linearGradient>
<linearGradient id="paint6_linear" x1="28.9292" y1="72.2039" x2="62.6091" y2="59.6064" gradientUnits="userSpaceOnUse">
<stop stop-color="#99451C"/>
<stop offset="0.2269" stop-color="#97431B"/>
<stop offset="0.4244" stop-color="#903C1A"/>
<stop offset="0.6109" stop-color="#843317"/>
<stop offset="0.7906" stop-color="#742713"/>
<stop offset="0.9641" stop-color="#61180D"/>
<stop offset="1" stop-color="#5C150B"/>
</linearGradient>
<radialGradient id="paint7_radial" cx="0" cy="0" r="1" gradientUnits="userSpaceOnUse" gradientTransform="translate(62.4952 69.0034) scale(5.17285)">
<stop stop-color="#C85809"/>
<stop offset="0.1147" stop-color="#C5560B"/>
<stop offset="0.2146" stop-color="#BD500E"/>
<stop offset="0.3089" stop-color="#AF4713"/>
<stop offset="0.3992" stop-color="#9D3B16"/>
<stop offset="0.4624" stop-color="#8D3218"/>
<stop offset="0.5824" stop-color="#8A3018"/>
<stop offset="0.7072" stop-color="#822B16"/>
<stop offset="0.8342" stop-color="#752313"/>
<stop offset="0.962" stop-color="#62180D"/>
<stop offset="1" stop-color="#5C150B"/>
</radialGradient>
<radialGradient id="paint8_radial" cx="0" cy="0" r="1" gradientUnits="userSpaceOnUse" gradientTransform="translate(68.2818 74.9053) scale(5.83228)">
<stop stop-color="#C85809"/>
<stop offset="0.1147" stop-color="#C5560B"/>
<stop offset="0.2146" stop-color="#BD500E"/>
<stop offset="0.3089" stop-color="#AF4713"/>
<stop offset="0.3992" stop-color="#9D3B16"/>
<stop offset="0.4624" stop-color="#8D3218"/>
<stop offset="0.5824" stop-color="#8A3018"/>
<stop offset="0.7072" stop-color="#822B16"/>
<stop offset="0.8342" stop-color="#752313"/>
<stop offset="0.962" stop-color="#62180D"/>
<stop offset="1" stop-color="#5C150B"/>
</radialGradient>
<linearGradient id="paint9_linear" x1="27.2963" y1="57.3379" x2="20.3951" y2="44.0951" gradientUnits="userSpaceOnUse">
<stop stop-color="#AC4C14"/>
<stop offset="0.1229" stop-color="#B45313"/>
<stop offset="1" stop-color="#F18D00"/>
</linearGradient>
<clipPath id="clip0">
<rect width="85" height="68.8917" fill="white" transform="translate(7 15)"/>
</clipPath>
</defs>
</svg>
