<svg width="50" height="50" viewBox="0 0 50 50" fill="none" xmlns="http://www.w3.org/2000/svg">
<circle cx="25" cy="25" r="25" fill="#8DC63F"/>
<g filter="url(#filter0_d)">
<path d="M25.6763 25.5478C25.451 25.5478 25.2256 25.5478 25.2256 25.344C22.0707 23.7134 17.789 21.0637 16.8876 16.172C16.4369 14.5414 16.8875 11.6879 18.6904 9.64966C19.8171 8.42673 21.8453 7 25.2256 7C30.4087 7 32.8876 10.0573 33.5637 12.9108C34.4651 16.3758 32.6623 20.8599 27.9299 22.6943C27.2538 22.8981 26.8031 22.6943 26.3524 22.0828C26.127 21.4713 26.3524 21.0637 27.0284 20.6561C30.634 19.2293 31.9862 15.7643 31.3101 13.1147C30.6341 10.465 28.3805 8.83438 25.2256 8.83438C23.1975 8.83438 21.62 9.44584 20.4933 10.6688C19.1412 12.0955 18.9157 14.1338 19.1411 15.5605C19.8171 18.6178 22.0707 21.0637 26.3524 23.3057C26.8031 23.5096 27.0285 24.121 26.8031 24.7325C26.3524 25.344 26.1271 25.5478 25.6763 25.5478Z" fill="white"/>
<path d="M39.8732 38.9999H10.1268C9.4507 38.9999 9 38.5923 9 37.9808C9 34.7197 9 30.0318 10.1268 27.7897C11.4789 24.5286 17.338 22.4904 18.0141 22.2866C18.4648 22.0827 19.1409 22.2865 19.3663 22.898C20.493 25.3439 22.7466 26.7706 25.0001 26.7706C27.2536 26.7706 29.2818 25.3439 30.6339 22.898C30.8592 22.4903 31.5352 22.0827 31.9859 22.2866C32.662 22.4904 38.5211 24.5286 39.8732 27.7897C40.7746 29.8279 40.7746 32.07 40.5493 33.9044V34.9235C40.5493 35.535 40.0986 35.9426 39.4225 35.9426C38.7465 35.9426 38.2958 35.535 38.2958 34.9235V33.9044C38.2958 32.07 38.2958 30.2356 37.6197 28.605C36.9437 26.9744 33.7887 25.3439 31.9859 24.5286C30.4085 27.1783 27.7042 28.8088 24.7746 28.8088C21.8451 28.8088 19.3662 27.1783 17.5633 24.5286C15.7605 25.3439 12.6056 26.7706 11.9295 28.605C11.4788 29.8279 11.0282 32.6815 11.0282 36.9617H39.8732C40.5493 36.9617 41 37.3694 41 37.9808C41 38.5923 40.5493 38.9999 39.8732 38.9999Z" fill="white"/>
</g>
<defs>
<filter id="filter0_d" x="6" y="4" width="38" height="38" filterUnits="userSpaceOnUse" color-interpolation-filters="sRGB">
<feFlood flood-opacity="0" result="BackgroundImageFix"/>
<feColorMatrix in="SourceAlpha" type="matrix" values="0 0 0 0 0 0 0 0 0 0 0 0 0 0 0 0 0 0 127 0"/>
<feOffset/>
<feGaussianBlur stdDeviation="1.5"/>
<feColorMatrix type="matrix" values="0 0 0 0 0.545098 0 0 0 0 0.772549 0 0 0 0 0.247059 0 0 0 0.5 0"/>
<feBlend mode="normal" in2="BackgroundImageFix" result="effect1_dropShadow"/>
<feBlend mode="normal" in="SourceGraphic" in2="effect1_dropShadow" result="shape"/>
</filter>
</defs>
</svg>
