<svg width="24" height="26" viewBox="0 0 24 26" fill="none" xmlns="http://www.w3.org/2000/svg">
<path d="M12.0764 25.8303C5.50313 25.8303 0.152832 20.0734 0.152832 13.0005C0.152832 5.92766 5.50313 0.170654 12.0764 0.170654C18.6496 0.170654 23.9999 5.92766 23.9999 13.0005C23.9999 20.0734 18.6496 25.8303 12.0764 25.8303ZM12.0764 1.65106C6.26746 1.65106 1.68149 6.75007 1.68149 12.836C1.68149 19.0864 6.42032 24.021 12.0764 24.021C17.7324 24.021 22.4713 18.922 22.4713 12.836C22.4713 6.75007 17.7324 1.65106 12.0764 1.65106Z" fill="#8DC63F"/>
<path d="M16.0508 18.1005C15.898 18.1005 15.5923 18.1005 15.4394 17.936L11.4648 13.6593C11.312 13.4949 11.312 13.3304 11.312 13.0014V5.92851C11.312 5.43505 11.6177 5.10608 12.0763 5.10608C12.5349 5.10608 12.8407 5.43505 12.8407 5.92851V12.5079L16.6623 16.6201C16.9681 16.949 16.9681 17.4425 16.6623 17.7715C16.3566 17.936 16.2037 18.1005 16.0508 18.1005Z" fill="#8DC63F"/>
<path d="M23.2355 13.6594H21.2482C20.7896 13.6594 20.4839 13.3304 20.4839 12.8369C20.4839 12.3435 20.7896 12.0145 21.2482 12.0145H23.2355C23.6941 12.0145 23.9998 12.3435 23.9998 12.8369C23.9998 13.3304 23.6941 13.6594 23.2355 13.6594Z" fill="#8DC63F"/>
<path d="M2.75166 13.6594H0.764331C0.305732 13.6594 0 13.3304 0 12.8369C0 12.3435 0.305732 12.0145 0.764331 12.0145H2.75166C3.21026 12.0145 3.516 12.3435 3.516 12.8369C3.516 13.3304 3.21026 13.6594 2.75166 13.6594Z" fill="#8DC63F"/>
<path d="M12.0763 25.8313C11.6177 25.8313 11.312 25.5024 11.312 25.0089V22.8706C11.312 22.3772 11.6177 22.0482 12.0763 22.0482C12.5349 22.0482 12.8407 22.3772 12.8407 22.8706V25.0089C12.8407 25.5024 12.3821 25.8313 12.0763 25.8313Z" fill="#8DC63F"/>
<path d="M12.0763 3.79025C11.6177 3.79025 11.312 3.46128 11.312 2.96782V0.829513C11.312 0.336053 11.6177 0.00708008 12.0763 0.00708008C12.5349 0.00708008 12.8407 0.336053 12.8407 0.829513V2.96782C12.8407 3.46128 12.3821 3.79025 12.0763 3.79025Z" fill="#8DC63F"/>
</svg>
