<svg width="87" height="68" viewBox="0 0 87 68" fill="none" xmlns="http://www.w3.org/2000/svg">
<path d="M43.5766 32C37.0034 32 31.6531 26.6497 31.6531 20.0764C31.6531 13.5032 37.0034 8.15283 43.5766 8.15283C50.1499 8.15283 55.5002 13.5032 55.5002 20.0764C55.5002 26.6497 50.1499 32 43.5766 32ZM43.5766 9.52866C37.7677 9.52866 33.1817 14.2675 33.1817 19.9235C33.1817 25.7325 37.9206 30.3184 43.5766 30.3184C49.2327 30.3184 53.9715 25.5796 53.9715 19.9235C53.9715 14.2675 49.2327 9.52866 43.5766 9.52866Z" fill="#8DC63F"/>
<path d="M47.5508 24.8153C47.398 24.8153 47.0923 24.8153 46.9394 24.6624L42.9648 20.6879C42.812 20.535 42.812 20.3822 42.812 20.0764V13.5032C42.812 13.0446 43.1177 12.7388 43.5763 12.7388C44.0349 12.7388 44.3407 13.0446 44.3407 13.5032V19.6178L48.1623 23.4395C48.4681 23.7452 48.4681 24.2038 48.1623 24.5095C47.8566 24.6624 47.7037 24.8153 47.5508 24.8153Z" fill="#8DC63F"/>
<path d="M54.7355 20.6878H52.7482C52.2896 20.6878 51.9839 20.3821 51.9839 19.9235C51.9839 19.4649 52.2896 19.1592 52.7482 19.1592H54.7355C55.1941 19.1592 55.4998 19.4649 55.4998 19.9235C55.4998 20.3821 55.1941 20.6878 54.7355 20.6878Z" fill="#8DC63F"/>
<path d="M34.2517 20.6878H32.2643C31.8057 20.6878 31.5 20.3821 31.5 19.9235C31.5 19.4649 31.8057 19.1592 32.2643 19.1592H34.2517C34.7103 19.1592 35.016 19.4649 35.016 19.9235C35.016 20.3821 34.7103 20.6878 34.2517 20.6878Z" fill="#8DC63F"/>
<path d="M43.5763 32C43.1177 32 42.812 31.6942 42.812 31.2356V29.2484C42.812 28.7898 43.1177 28.4841 43.5763 28.4841C44.0349 28.4841 44.3407 28.7898 44.3407 29.2484V31.2356C44.3407 31.6942 43.8821 32 43.5763 32Z" fill="#8DC63F"/>
<path d="M43.5763 11.5159C43.1177 11.5159 42.812 11.2102 42.812 10.7516V8.76433C42.812 8.30573 43.1177 8 43.5763 8C44.0349 8 44.3407 8.30573 44.3407 8.76433V10.7516C44.3407 11.2102 43.8821 11.5159 43.5763 11.5159Z" fill="#8DC63F"/>
<path d="M10.5039 52.0479H12.6599V45.2089C12.6599 45.0036 12.6669 44.7959 12.6809 44.5859L10.8889 46.1189C10.8423 46.1563 10.7956 46.1843 10.7489 46.2029C10.7023 46.2169 10.6579 46.2239 10.6159 46.2239C10.5459 46.2239 10.4829 46.2099 10.4269 46.1819C10.3709 46.1493 10.3289 46.1119 10.3009 46.0699L9.90892 45.5309L12.8909 42.9479H13.9059V52.0479H15.8799V52.9999H10.5039V52.0479ZM24.466 47.9879C24.466 48.8653 24.3703 49.6259 24.179 50.2699C23.9923 50.9093 23.7357 51.4389 23.409 51.8589C23.0823 52.2789 22.695 52.5916 22.247 52.7969C21.8037 53.0023 21.3277 53.1049 20.819 53.1049C20.3057 53.1049 19.8273 53.0023 19.384 52.7969C18.9453 52.5916 18.5627 52.2789 18.236 51.8589C17.9093 51.4389 17.6527 50.9093 17.466 50.2699C17.2793 49.6259 17.186 48.8653 17.186 47.9879C17.186 47.1106 17.2793 46.3499 17.466 45.7059C17.6527 45.0619 17.9093 44.5299 18.236 44.1099C18.5627 43.6853 18.9453 43.3703 19.384 43.1649C19.8273 42.9596 20.3057 42.8569 20.819 42.8569C21.3277 42.8569 21.8037 42.9596 22.247 43.1649C22.695 43.3703 23.0823 43.6853 23.409 44.1099C23.7357 44.5299 23.9923 45.0619 24.179 45.7059C24.3703 46.3499 24.466 47.1106 24.466 47.9879ZM23.171 47.9879C23.171 47.2226 23.1057 46.5809 22.975 46.0629C22.849 45.5403 22.6763 45.1203 22.457 44.8029C22.2423 44.4856 21.9927 44.2593 21.708 44.1239C21.4233 43.9839 21.127 43.9139 20.819 43.9139C20.511 43.9139 20.2147 43.9839 19.93 44.1239C19.6453 44.2593 19.3957 44.4856 19.181 44.8029C18.9663 45.1203 18.7937 45.5403 18.663 46.0629C18.537 46.5809 18.474 47.2226 18.474 47.9879C18.474 48.7533 18.537 49.3949 18.663 49.9129C18.7937 50.4309 18.9663 50.8486 19.181 51.1659C19.3957 51.4833 19.6453 51.7119 19.93 51.8519C20.2147 51.9873 20.511 52.0549 20.819 52.0549C21.127 52.0549 21.4233 51.9873 21.708 51.8519C21.9927 51.7119 22.2423 51.4833 22.457 51.1659C22.6763 50.8486 22.849 50.4309 22.975 49.9129C23.1057 49.3949 23.171 48.7533 23.171 47.9879ZM28.9161 52.9999V45.9089H29.6581C29.8355 45.9089 29.9475 45.9953 29.9941 46.1679L30.0851 46.8959C30.3465 46.5739 30.6381 46.3103 30.9601 46.1049C31.2868 45.8996 31.6648 45.7969 32.0941 45.7969C32.5748 45.7969 32.9621 45.9299 33.2561 46.1959C33.5548 46.4619 33.7695 46.8213 33.9001 47.2739C33.9981 47.0173 34.1265 46.7956 34.2851 46.6089C34.4485 46.4223 34.6305 46.2683 34.8311 46.1469C35.0318 46.0256 35.2441 45.9369 35.4681 45.8809C35.6968 45.8249 35.9278 45.7969 36.1611 45.7969C36.5345 45.7969 36.8658 45.8576 37.1551 45.9789C37.4491 46.0956 37.6965 46.2683 37.8971 46.4969C38.1025 46.7256 38.2588 47.0079 38.3661 47.3439C38.4735 47.6753 38.5271 48.0556 38.5271 48.4849V52.9999H37.2811V48.4849C37.2811 47.9296 37.1598 47.5096 36.9171 47.2249C36.6745 46.9356 36.3221 46.7909 35.8601 46.7909C35.6548 46.7909 35.4588 46.8283 35.2721 46.9029C35.0901 46.9729 34.9291 47.0779 34.7891 47.2179C34.6491 47.3579 34.5371 47.5353 34.4531 47.7499C34.3738 47.9599 34.3341 48.2049 34.3341 48.4849V52.9999H33.0881V48.4849C33.0881 47.9156 32.9738 47.4909 32.7451 47.2109C32.5165 46.9309 32.1828 46.7909 31.7441 46.7909C31.4361 46.7909 31.1491 46.8749 30.8831 47.0429C30.6218 47.2063 30.3815 47.4303 30.1621 47.7149V52.9999H28.9161ZM41.9502 45.9089V52.9999H40.7042V45.9089H41.9502ZM42.2302 43.6829C42.2302 43.8043 42.2045 43.9186 42.1532 44.0259C42.1065 44.1286 42.0412 44.2219 41.9572 44.3059C41.8779 44.3853 41.7845 44.4483 41.6772 44.4949C41.5699 44.5416 41.4555 44.5649 41.3342 44.5649C41.2129 44.5649 41.0985 44.5416 40.9912 44.4949C40.8885 44.4483 40.7952 44.3853 40.7112 44.3059C40.6319 44.2219 40.5689 44.1286 40.5222 44.0259C40.4755 43.9186 40.4522 43.8043 40.4522 43.6829C40.4522 43.5616 40.4755 43.4473 40.5222 43.3399C40.5689 43.2279 40.6319 43.1323 40.7112 43.0529C40.7952 42.9689 40.8885 42.9036 40.9912 42.8569C41.0985 42.8103 41.2129 42.7869 41.3342 42.7869C41.4555 42.7869 41.5699 42.8103 41.6772 42.8569C41.7845 42.9036 41.8779 42.9689 41.9572 43.0529C42.0412 43.1323 42.1065 43.2279 42.1532 43.3399C42.2045 43.4473 42.2302 43.5616 42.2302 43.6829ZM44.2962 52.9999V45.9089H45.0382C45.2156 45.9089 45.3276 45.9953 45.3742 46.1679L45.4722 46.9379C45.7802 46.5973 46.1232 46.3219 46.5012 46.1119C46.8839 45.9019 47.3249 45.7969 47.8242 45.7969C48.2116 45.7969 48.5522 45.8623 48.8462 45.9929C49.1449 46.1189 49.3922 46.3009 49.5882 46.5389C49.7889 46.7723 49.9406 47.0546 50.0432 47.3859C50.1459 47.7173 50.1972 48.0836 50.1972 48.4849V52.9999H48.9512V48.4849C48.9512 47.9483 48.8276 47.5329 48.5802 47.2389C48.3376 46.9403 47.9642 46.7909 47.4602 46.7909C47.0916 46.7909 46.7462 46.8796 46.4242 47.0569C46.1069 47.2343 45.8129 47.4746 45.5422 47.7779V52.9999H44.2962ZM53.3035 45.9089V50.4309C53.3035 50.9676 53.4272 51.3829 53.6745 51.6769C53.9219 51.9709 54.2952 52.1179 54.7945 52.1179C55.1585 52.1179 55.5015 52.0316 55.8235 51.8589C56.1455 51.6863 56.4419 51.4459 56.7125 51.1379V45.9089H57.9585V52.9999H57.2165C57.0392 52.9999 56.9272 52.9136 56.8805 52.7409L56.7825 51.9779C56.4745 52.3186 56.1292 52.5939 55.7465 52.8039C55.3639 53.0093 54.9252 53.1119 54.4305 53.1119C54.0432 53.1119 53.7002 53.0489 53.4015 52.9229C53.1075 52.7923 52.8602 52.6103 52.6595 52.3769C52.4589 52.1436 52.3072 51.8613 52.2045 51.5299C52.1065 51.1986 52.0575 50.8323 52.0575 50.4309V45.9089H53.3035ZM62.3038 53.1119C61.7438 53.1119 61.3121 52.9556 61.0088 52.6429C60.7101 52.3303 60.5608 51.8799 60.5608 51.2919V46.9519H59.7068C59.6321 46.9519 59.5691 46.9309 59.5178 46.8889C59.4665 46.8423 59.4408 46.7723 59.4408 46.6789V46.1819L60.6028 46.0349L60.8898 43.8439C60.8991 43.7739 60.9295 43.7179 60.9808 43.6759C61.0321 43.6293 61.0975 43.6059 61.1768 43.6059H61.8068V46.0489H63.8368V46.9519H61.8068V51.2079C61.8068 51.5066 61.8791 51.7283 62.0238 51.8729C62.1685 52.0176 62.3551 52.0899 62.5838 52.0899C62.7145 52.0899 62.8265 52.0736 62.9198 52.0409C63.0178 52.0036 63.1018 51.9639 63.1718 51.9219C63.2418 51.8799 63.3001 51.8426 63.3468 51.8099C63.3981 51.7726 63.4425 51.7539 63.4798 51.7539C63.5451 51.7539 63.6035 51.7936 63.6548 51.8729L64.0188 52.4679C63.8041 52.6686 63.5451 52.8273 63.2418 52.9439C62.9385 53.0559 62.6258 53.1119 62.3038 53.1119ZM68.3975 45.7969C68.9155 45.7969 69.3821 45.8833 69.7975 46.0559C70.2175 46.2286 70.5721 46.4736 70.8615 46.7909C71.1555 47.1083 71.3795 47.4933 71.5335 47.9459C71.6921 48.3939 71.7715 48.8956 71.7715 49.4509C71.7715 50.0109 71.6921 50.5149 71.5335 50.9629C71.3795 51.4109 71.1555 51.7936 70.8615 52.1109C70.5721 52.4283 70.2175 52.6733 69.7975 52.8459C69.3821 53.0139 68.9155 53.0979 68.3975 53.0979C67.8795 53.0979 67.4105 53.0139 66.9905 52.8459C66.5751 52.6733 66.2205 52.4283 65.9265 52.1109C65.6325 51.7936 65.4061 51.4109 65.2475 50.9629C65.0888 50.5149 65.0095 50.0109 65.0095 49.4509C65.0095 48.8956 65.0888 48.3939 65.2475 47.9459C65.4061 47.4933 65.6325 47.1083 65.9265 46.7909C66.2205 46.4736 66.5751 46.2286 66.9905 46.0559C67.4105 45.8833 67.8795 45.7969 68.3975 45.7969ZM68.3975 52.1249C69.0975 52.1249 69.6201 51.8916 69.9655 51.4249C70.3108 50.9536 70.4835 50.2979 70.4835 49.4579C70.4835 48.6133 70.3108 47.9553 69.9655 47.4839C69.6201 47.0126 69.0975 46.7769 68.3975 46.7769C68.0428 46.7769 67.7348 46.8376 67.4735 46.9589C67.2121 47.0803 66.9928 47.2553 66.8155 47.4839C66.6428 47.7126 66.5121 47.9949 66.4235 48.3309C66.3395 48.6623 66.2975 49.0379 66.2975 49.4579C66.2975 49.8779 66.3395 50.2536 66.4235 50.5849C66.5121 50.9163 66.6428 51.1963 66.8155 51.4249C66.9928 51.6489 67.2121 51.8216 67.4735 51.9429C67.7348 52.0643 68.0428 52.1249 68.3975 52.1249ZM77.5168 47.0779C77.4608 47.1806 77.3744 47.2319 77.2578 47.2319C77.1878 47.2319 77.1084 47.2063 77.0198 47.1549C76.9311 47.1036 76.8214 47.0476 76.6908 46.9869C76.5648 46.9216 76.4131 46.8633 76.2358 46.8119C76.0584 46.7559 75.8484 46.7279 75.6058 46.7279C75.3958 46.7279 75.2068 46.7559 75.0388 46.8119C74.8708 46.8633 74.7261 46.9356 74.6048 47.0289C74.4881 47.1223 74.3971 47.2319 74.3318 47.3579C74.2711 47.4793 74.2408 47.6123 74.2408 47.7569C74.2408 47.9389 74.2921 48.0906 74.3948 48.2119C74.5021 48.3333 74.6421 48.4383 74.8148 48.5269C74.9874 48.6156 75.1834 48.6949 75.4028 48.7649C75.6221 48.8303 75.8461 48.9026 76.0748 48.9819C76.3081 49.0566 76.5344 49.1406 76.7538 49.2339C76.9731 49.3273 77.1691 49.4439 77.3418 49.5839C77.5144 49.7239 77.6521 49.8966 77.7548 50.1019C77.8621 50.3026 77.9158 50.5453 77.9158 50.8299C77.9158 51.1566 77.8574 51.4599 77.7408 51.7399C77.6241 52.0153 77.4514 52.2556 77.2228 52.4609C76.9941 52.6616 76.7141 52.8203 76.3828 52.9369C76.0514 53.0536 75.6688 53.1119 75.2348 53.1119C74.7401 53.1119 74.2921 53.0326 73.8908 52.8739C73.4894 52.7106 73.1488 52.5029 72.8688 52.2509L73.1628 51.7749C73.2001 51.7143 73.2444 51.6676 73.2958 51.6349C73.3471 51.6023 73.4148 51.5859 73.4988 51.5859C73.5828 51.5859 73.6714 51.6186 73.7648 51.6839C73.8581 51.7493 73.9701 51.8216 74.1008 51.9009C74.2361 51.9803 74.3971 52.0526 74.5838 52.1179C74.7751 52.1833 75.0131 52.2159 75.2978 52.2159C75.5404 52.2159 75.7528 52.1856 75.9348 52.1249C76.1168 52.0596 76.2684 51.9733 76.3898 51.8659C76.5111 51.7586 76.5998 51.6349 76.6558 51.4949C76.7164 51.3549 76.7468 51.2056 76.7468 51.0469C76.7468 50.8509 76.6931 50.6899 76.5858 50.5639C76.4831 50.4333 76.3454 50.3236 76.1728 50.2349C76.0001 50.1416 75.8018 50.0623 75.5778 49.9969C75.3584 49.9269 75.1321 49.8546 74.8988 49.7799C74.6701 49.7053 74.4438 49.6213 74.2198 49.5279C74.0004 49.4299 73.8044 49.3086 73.6318 49.1639C73.4591 49.0193 73.3191 48.8419 73.2118 48.6319C73.1091 48.4173 73.0578 48.1583 73.0578 47.8549C73.0578 47.5843 73.1138 47.3253 73.2258 47.0779C73.3378 46.8259 73.5011 46.6066 73.7158 46.4199C73.9304 46.2286 74.1941 46.0769 74.5068 45.9649C74.8194 45.8529 75.1764 45.7969 75.5778 45.7969C76.0444 45.7969 76.4621 45.8716 76.8308 46.0209C77.2041 46.1656 77.5261 46.3663 77.7968 46.6229L77.5168 47.0779Z" fill="black"/>
</svg>
