<svg width="100" height="130" viewBox="0 0 100 130" fill="none" xmlns="http://www.w3.org/2000/svg">
<rect width="100" height="130" rx="10" fill="white"/>
<path d="M25.7485 100.066L25.7405 101.33H18.6765V89.8659H25.7405V91.1299H20.2285V94.9379H24.6925V96.1539H20.2285V100.066H25.7485Z" fill="black"/>
<path d="M28.8501 94.4019C29.0261 94.2046 29.2128 94.0259 29.4101 93.8659C29.6075 93.7059 29.8155 93.5699 30.0341 93.4579C30.2581 93.3406 30.4928 93.2526 30.7381 93.1939C30.9888 93.1299 31.2581 93.0979 31.5461 93.0979C31.9888 93.0979 32.3781 93.1726 32.7141 93.3219C33.0555 93.4659 33.3381 93.6739 33.5621 93.9459C33.7915 94.2126 33.9648 94.5352 34.0821 94.9139C34.1995 95.2926 34.2581 95.7112 34.2581 96.1699V101.33H32.8261V96.1699C32.8261 95.5566 32.6848 95.0819 32.4021 94.7459C32.1248 94.4046 31.7008 94.2339 31.1301 94.2339C30.7088 94.2339 30.3141 94.3352 29.9461 94.5379C29.5835 94.7406 29.2475 95.0152 28.9381 95.3619V101.33H27.5061V93.2259H28.3621C28.5648 93.2259 28.6901 93.3246 28.7381 93.5219L28.8501 94.4019Z" fill="black"/>
<path d="M41.298 94.5619C41.234 94.6792 41.1353 94.7379 41.002 94.7379C40.922 94.7379 40.8313 94.7086 40.73 94.6499C40.6287 94.5912 40.5033 94.5272 40.354 94.4579C40.21 94.3832 40.0367 94.3166 39.834 94.2579C39.6313 94.1939 39.3913 94.1619 39.114 94.1619C38.874 94.1619 38.658 94.1939 38.466 94.2579C38.274 94.3166 38.1087 94.3992 37.97 94.5059C37.8367 94.6126 37.7327 94.7379 37.658 94.8819C37.5887 95.0206 37.554 95.1726 37.554 95.3379C37.554 95.5459 37.6127 95.7192 37.73 95.8579C37.8527 95.9966 38.0127 96.1166 38.21 96.2179C38.4073 96.3192 38.6313 96.4099 38.882 96.4899C39.1327 96.5646 39.3887 96.6472 39.65 96.7379C39.9167 96.8232 40.1753 96.9192 40.426 97.0259C40.6767 97.1326 40.9007 97.2659 41.098 97.4259C41.2953 97.5859 41.4527 97.7832 41.57 98.0179C41.6927 98.2472 41.754 98.5246 41.754 98.8499C41.754 99.2232 41.6873 99.5699 41.554 99.8899C41.4207 100.205 41.2233 100.479 40.962 100.714C40.7007 100.943 40.3807 101.125 40.002 101.258C39.6233 101.391 39.186 101.458 38.69 101.458C38.1247 101.458 37.6127 101.367 37.154 101.186C36.6953 100.999 36.306 100.762 35.986 100.474L36.322 99.9299C36.3647 99.8606 36.4153 99.8072 36.474 99.7699C36.5327 99.7326 36.6073 99.7139 36.698 99.7139C36.794 99.7139 36.8953 99.7512 37.002 99.8259C37.1087 99.9006 37.2367 99.9832 37.386 100.074C37.5407 100.165 37.7273 100.247 37.946 100.322C38.1647 100.397 38.4367 100.434 38.762 100.434C39.0393 100.434 39.282 100.399 39.49 100.33C39.698 100.255 39.8713 100.157 40.01 100.034C40.1487 99.9112 40.25 99.7699 40.314 99.6099C40.3833 99.4499 40.418 99.2792 40.418 99.0979C40.418 98.8739 40.3567 98.6899 40.234 98.5459C40.1167 98.3966 39.9593 98.2712 39.762 98.1699C39.5647 98.0632 39.338 97.9726 39.082 97.8979C38.8313 97.8179 38.5727 97.7352 38.306 97.6499C38.0447 97.5646 37.786 97.4686 37.53 97.3619C37.2793 97.2499 37.0553 97.1112 36.858 96.9459C36.6607 96.7806 36.5007 96.5779 36.378 96.3379C36.2607 96.0926 36.202 95.7966 36.202 95.4499C36.202 95.1406 36.266 94.8446 36.394 94.5619C36.522 94.2739 36.7087 94.0232 36.954 93.8099C37.1993 93.5912 37.5007 93.4179 37.858 93.2899C38.2153 93.1619 38.6233 93.0979 39.082 93.0979C39.6153 93.0979 40.0927 93.1832 40.514 93.3539C40.9407 93.5192 41.3087 93.7486 41.618 94.0419L41.298 94.5619Z" fill="black"/>
<path d="M48.0419 97.6819C47.3859 97.7032 46.8259 97.7566 46.3619 97.8419C45.9032 97.9219 45.5272 98.0286 45.2339 98.1619C44.9459 98.2952 44.7352 98.4526 44.6019 98.6339C44.4739 98.8152 44.4099 99.0179 44.4099 99.2419C44.4099 99.4552 44.4446 99.6392 44.5139 99.7939C44.5832 99.9486 44.6766 100.077 44.7939 100.178C44.9166 100.274 45.0579 100.346 45.2179 100.394C45.3832 100.437 45.5592 100.458 45.7459 100.458C45.9966 100.458 46.2259 100.434 46.4339 100.386C46.6419 100.333 46.8366 100.258 47.0179 100.162C47.2046 100.066 47.3806 99.9512 47.5459 99.8179C47.7166 99.6846 47.8819 99.5326 48.0419 99.3619V97.6819ZM43.4419 94.3699C43.8899 93.9379 44.3726 93.6152 44.8899 93.4019C45.4072 93.1886 45.9806 93.0819 46.6099 93.0819C47.0632 93.0819 47.4659 93.1566 47.8179 93.3059C48.1699 93.4552 48.4659 93.6632 48.7059 93.9299C48.9459 94.1966 49.1272 94.5192 49.2499 94.8979C49.3726 95.2766 49.4339 95.6926 49.4339 96.1459V101.33H48.8019C48.6632 101.33 48.5566 101.309 48.4819 101.266C48.4072 101.218 48.3486 101.127 48.3059 100.994L48.1459 100.226C47.9326 100.423 47.7246 100.599 47.5219 100.754C47.3192 100.903 47.1059 101.031 46.8819 101.138C46.6579 101.239 46.4179 101.317 46.1619 101.37C45.9112 101.429 45.6312 101.458 45.3219 101.458C45.0072 101.458 44.7112 101.415 44.4339 101.33C44.1566 101.239 43.9139 101.106 43.7059 100.93C43.5032 100.754 43.3406 100.533 43.2179 100.266C43.1006 99.9939 43.0419 99.6739 43.0419 99.3059C43.0419 98.9859 43.1299 98.6792 43.3059 98.3859C43.4819 98.0872 43.7672 97.8232 44.1619 97.5939C44.5566 97.3646 45.0712 97.1779 45.7059 97.0339C46.3406 96.8846 47.1192 96.7992 48.0419 96.7779V96.1459C48.0419 95.5166 47.9059 95.0419 47.6339 94.7219C47.3619 94.3966 46.9646 94.2339 46.4419 94.2339C46.0899 94.2339 45.7939 94.2792 45.5539 94.3699C45.3192 94.4552 45.1139 94.5539 44.9379 94.6659C44.7672 94.7726 44.6179 94.8712 44.4899 94.9619C44.3672 95.0472 44.2446 95.0899 44.1219 95.0899C44.0259 95.0899 43.9432 95.0659 43.8739 95.0179C43.8046 94.9646 43.7459 94.9006 43.6979 94.8259L43.4419 94.3699Z" fill="black"/>
<path d="M53.225 89.5459V101.33H51.801V89.5459H53.225Z" fill="black"/>
<path d="M60.0763 97.6819C59.4203 97.7032 58.8603 97.7566 58.3963 97.8419C57.9376 97.9219 57.5616 98.0286 57.2683 98.1619C56.9803 98.2952 56.7696 98.4526 56.6363 98.6339C56.5083 98.8152 56.4443 99.0179 56.4443 99.2419C56.4443 99.4552 56.4789 99.6392 56.5483 99.7939C56.6176 99.9486 56.7109 100.077 56.8283 100.178C56.9509 100.274 57.0923 100.346 57.2523 100.394C57.4176 100.437 57.5936 100.458 57.7803 100.458C58.0309 100.458 58.2603 100.434 58.4683 100.386C58.6763 100.333 58.8709 100.258 59.0523 100.162C59.2389 100.066 59.4149 99.9512 59.5803 99.8179C59.7509 99.6846 59.9163 99.5326 60.0763 99.3619V97.6819ZM55.4763 94.3699C55.9243 93.9379 56.4069 93.6152 56.9243 93.4019C57.4416 93.1886 58.0149 93.0819 58.6443 93.0819C59.0976 93.0819 59.5003 93.1566 59.8523 93.3059C60.2043 93.4552 60.5003 93.6632 60.7403 93.9299C60.9803 94.1966 61.1616 94.5192 61.2843 94.8979C61.4069 95.2766 61.4683 95.6926 61.4683 96.1459V101.33H60.8363C60.6976 101.33 60.5909 101.309 60.5163 101.266C60.4416 101.218 60.3829 101.127 60.3403 100.994L60.1803 100.226C59.9669 100.423 59.7589 100.599 59.5563 100.754C59.3536 100.903 59.1403 101.031 58.9163 101.138C58.6923 101.239 58.4523 101.317 58.1963 101.37C57.9456 101.429 57.6656 101.458 57.3563 101.458C57.0416 101.458 56.7456 101.415 56.4683 101.33C56.1909 101.239 55.9483 101.106 55.7403 100.93C55.5376 100.754 55.3749 100.533 55.2523 100.266C55.1349 99.9939 55.0763 99.6739 55.0763 99.3059C55.0763 98.9859 55.1643 98.6792 55.3403 98.3859C55.5163 98.0872 55.8016 97.8232 56.1963 97.5939C56.5909 97.3646 57.1056 97.1779 57.7403 97.0339C58.3749 96.8846 59.1536 96.7992 60.0763 96.7779V96.1459C60.0763 95.5166 59.9403 95.0419 59.6683 94.7219C59.3963 94.3966 58.9989 94.2339 58.4763 94.2339C58.1243 94.2339 57.8283 94.2792 57.5883 94.3699C57.3536 94.4552 57.1483 94.5539 56.9723 94.6659C56.8016 94.7726 56.6523 94.8712 56.5243 94.9619C56.4016 95.0472 56.2789 95.0899 56.1563 95.0899C56.0603 95.0899 55.9776 95.0659 55.9083 95.0179C55.8389 94.9646 55.7803 94.9006 55.7323 94.8259L55.4763 94.3699Z" fill="black"/>
<path d="M69.0674 95.1539C68.8007 94.7966 68.5127 94.5486 68.2034 94.4099C67.8941 94.2659 67.5474 94.1939 67.1634 94.1939C66.4114 94.1939 65.8327 94.4632 65.4274 95.0019C65.0221 95.5406 64.8194 96.3086 64.8194 97.3059C64.8194 97.8339 64.8647 98.2872 64.9554 98.6659C65.0461 99.0392 65.1794 99.3486 65.3554 99.5939C65.5314 99.8339 65.7474 100.01 66.0034 100.122C66.2594 100.234 66.5501 100.29 66.8754 100.29C67.3447 100.29 67.7527 100.183 68.0994 99.9699C68.4514 99.7566 68.7741 99.4552 69.0674 99.0659V95.1539ZM70.4914 89.5459V101.33H69.6434C69.4407 101.33 69.3127 101.231 69.2594 101.034L69.1314 100.05C68.7847 100.466 68.3901 100.802 67.9474 101.058C67.5047 101.314 66.9927 101.442 66.4114 101.442C65.9474 101.442 65.5261 101.354 65.1474 101.178C64.7687 100.997 64.4461 100.733 64.1794 100.386C63.9127 100.039 63.7074 99.6072 63.5634 99.0899C63.4194 98.5726 63.3474 97.9779 63.3474 97.3059C63.3474 96.7086 63.4274 96.1539 63.5874 95.6419C63.7474 95.1246 63.9767 94.6766 64.2754 94.2979C64.5741 93.9192 64.9394 93.6232 65.3714 93.4099C65.8087 93.1912 66.2994 93.0819 66.8434 93.0819C67.3394 93.0819 67.7634 93.1672 68.1154 93.3379C68.4727 93.5032 68.7901 93.7352 69.0674 94.0339V89.5459H70.4914Z" fill="black"/>
<path d="M77.2825 97.6819C76.6265 97.7032 76.0665 97.7566 75.6025 97.8419C75.1438 97.9219 74.7678 98.0286 74.4745 98.1619C74.1865 98.2952 73.9758 98.4526 73.8425 98.6339C73.7145 98.8152 73.6505 99.0179 73.6505 99.2419C73.6505 99.4552 73.6852 99.6392 73.7545 99.7939C73.8238 99.9486 73.9172 100.077 74.0345 100.178C74.1572 100.274 74.2985 100.346 74.4585 100.394C74.6238 100.437 74.7998 100.458 74.9865 100.458C75.2372 100.458 75.4665 100.434 75.6745 100.386C75.8825 100.333 76.0772 100.258 76.2585 100.162C76.4452 100.066 76.6212 99.9512 76.7865 99.8179C76.9572 99.6846 77.1225 99.5326 77.2825 99.3619V97.6819ZM72.6825 94.3699C73.1305 93.9379 73.6132 93.6152 74.1305 93.4019C74.6478 93.1886 75.2212 93.0819 75.8505 93.0819C76.3038 93.0819 76.7065 93.1566 77.0585 93.3059C77.4105 93.4552 77.7065 93.6632 77.9465 93.9299C78.1865 94.1966 78.3678 94.5192 78.4905 94.8979C78.6132 95.2766 78.6745 95.6926 78.6745 96.1459V101.33H78.0425C77.9038 101.33 77.7972 101.309 77.7225 101.266C77.6478 101.218 77.5892 101.127 77.5465 100.994L77.3865 100.226C77.1732 100.423 76.9652 100.599 76.7625 100.754C76.5598 100.903 76.3465 101.031 76.1225 101.138C75.8985 101.239 75.6585 101.317 75.4025 101.37C75.1518 101.429 74.8718 101.458 74.5625 101.458C74.2478 101.458 73.9518 101.415 73.6745 101.33C73.3972 101.239 73.1545 101.106 72.9465 100.93C72.7438 100.754 72.5812 100.533 72.4585 100.266C72.3412 99.9939 72.2825 99.6739 72.2825 99.3059C72.2825 98.9859 72.3705 98.6792 72.5465 98.3859C72.7225 98.0872 73.0078 97.8232 73.4025 97.5939C73.7972 97.3646 74.3118 97.1779 74.9465 97.0339C75.5812 96.8846 76.3598 96.7992 77.2825 96.7779V96.1459C77.2825 95.5166 77.1465 95.0419 76.8745 94.7219C76.6025 94.3966 76.2052 94.2339 75.6825 94.2339C75.3305 94.2339 75.0345 94.2792 74.7945 94.3699C74.5598 94.4552 74.3545 94.5539 74.1785 94.6659C74.0078 94.7726 73.8585 94.8712 73.7305 94.9619C73.6078 95.0472 73.4852 95.0899 73.3625 95.0899C73.2665 95.0899 73.1838 95.0659 73.1145 95.0179C73.0452 94.9646 72.9865 94.9006 72.9385 94.8259L72.6825 94.3699Z" fill="black"/>
<path d="M85.7136 94.5619C85.6496 94.6792 85.551 94.7379 85.4176 94.7379C85.3376 94.7379 85.247 94.7086 85.1456 94.6499C85.0443 94.5912 84.919 94.5272 84.7696 94.4579C84.6256 94.3832 84.4523 94.3166 84.2496 94.2579C84.047 94.1939 83.807 94.1619 83.5296 94.1619C83.2896 94.1619 83.0736 94.1939 82.8816 94.2579C82.6896 94.3166 82.5243 94.3992 82.3856 94.5059C82.2523 94.6126 82.1483 94.7379 82.0736 94.8819C82.0043 95.0206 81.9696 95.1726 81.9696 95.3379C81.9696 95.5459 82.0283 95.7192 82.1456 95.8579C82.2683 95.9966 82.4283 96.1166 82.6256 96.2179C82.823 96.3192 83.047 96.4099 83.2976 96.4899C83.5483 96.5646 83.8043 96.6472 84.0656 96.7379C84.3323 96.8232 84.591 96.9192 84.8416 97.0259C85.0923 97.1326 85.3163 97.2659 85.5136 97.4259C85.711 97.5859 85.8683 97.7832 85.9856 98.0179C86.1083 98.2472 86.1696 98.5246 86.1696 98.8499C86.1696 99.2232 86.103 99.5699 85.9696 99.8899C85.8363 100.205 85.639 100.479 85.3776 100.714C85.1163 100.943 84.7963 101.125 84.4176 101.258C84.039 101.391 83.6016 101.458 83.1056 101.458C82.5403 101.458 82.0283 101.367 81.5696 101.186C81.111 100.999 80.7216 100.762 80.4016 100.474L80.7376 99.9299C80.7803 99.8606 80.831 99.8072 80.8896 99.7699C80.9483 99.7326 81.023 99.7139 81.1136 99.7139C81.2096 99.7139 81.311 99.7512 81.4176 99.8259C81.5243 99.9006 81.6523 99.9832 81.8016 100.074C81.9563 100.165 82.143 100.247 82.3616 100.322C82.5803 100.397 82.8523 100.434 83.1776 100.434C83.455 100.434 83.6976 100.399 83.9056 100.33C84.1136 100.255 84.287 100.157 84.4256 100.034C84.5643 99.9112 84.6656 99.7699 84.7296 99.6099C84.799 99.4499 84.8336 99.2792 84.8336 99.0979C84.8336 98.8739 84.7723 98.6899 84.6496 98.5459C84.5323 98.3966 84.375 98.2712 84.1776 98.1699C83.9803 98.0632 83.7536 97.9726 83.4976 97.8979C83.247 97.8179 82.9883 97.7352 82.7216 97.6499C82.4603 97.5646 82.2016 97.4686 81.9456 97.3619C81.695 97.2499 81.471 97.1112 81.2736 96.9459C81.0763 96.7806 80.9163 96.5779 80.7936 96.3379C80.6763 96.0926 80.6176 95.7966 80.6176 95.4499C80.6176 95.1406 80.6816 94.8446 80.8096 94.5619C80.9376 94.2739 81.1243 94.0232 81.3696 93.8099C81.615 93.5912 81.9163 93.4179 82.2736 93.2899C82.631 93.1619 83.039 93.0979 83.4976 93.0979C84.031 93.0979 84.5083 93.1832 84.9296 93.3539C85.3563 93.5192 85.7243 93.7486 86.0336 94.0419L85.7136 94.5619Z" fill="black"/>
<path d="M49.5 47.8122C66.4712 47.8122 81.6447 50.2572 92 54.0685C89.8426 30.4814 71.6489 12 49.5 12C27.3511 12 9.15736 30.4814 7 54.0685C17.3553 50.1853 32.5288 47.8122 49.5 47.8122Z" fill="#8EC044"/>
<path d="M85.3689 60.8066C85.3689 69.2053 69.4798 75.9409 49.8295 75.9409C30.1792 75.9409 14.29 69.2053 14.29 60.8066C14.29 52.4078 30.1792 45.6722 49.8295 45.6722C69.4798 45.6722 85.3689 52.4078 85.3689 60.8066Z" fill="#646363"/>
<path d="M93.6588 53.4057C93.6588 64.5486 74.7761 73.1968 50.0596 73.1968C25.3432 73.1968 6.15344 64.5486 6.15344 53.4057C6.15344 42.2629 25.3432 32.8663 50.0596 32.8663C74.7761 32.7831 93.6588 42.2629 93.6588 53.4057Z" fill="url(#paint0_linear)"/>
<path d="M49.5992 74.5272C25.113 74.5272 6 64.9643 6 53.4057C6 41.8471 25.113 32.7 49.5992 32.7C74.0853 32.7 93.9659 42.0965 93.9659 53.6552C93.8891 65.1307 74.0085 74.5272 49.5992 74.5272ZM50.0597 33.5315C26.2644 33.5315 6.92111 42.2628 6.92111 52.9899C6.92111 63.717 26.2644 72.4484 50.0597 72.4484C73.855 72.4484 93.1983 63.717 93.1983 52.9899C93.1983 42.2628 73.855 33.5315 50.0597 33.5315Z" fill="url(#paint1_linear)"/>
<path d="M79.305 53.4058C79.305 60.7235 66.1792 66.6276 50.0598 66.6276C33.9404 66.6276 20.8146 60.7235 20.8146 53.4058C20.8146 46.0881 33.9404 40.1841 50.0598 40.1841C66.1792 40.2672 79.305 46.1713 79.305 53.4058Z" fill="url(#paint2_linear)"/>
<path d="M50.0597 67.5422C32.8657 67.5422 18.8955 61.2223 18.8955 53.4889C18.8955 45.7554 32.8657 39.4355 50.0597 39.4355C67.2537 39.4355 81.2239 45.7554 81.2239 53.4889C81.2239 61.2223 67.2537 67.5422 50.0597 67.5422ZM50.0597 41.0987C35.0149 41.0987 22.7335 46.6701 22.7335 53.4057C22.7335 60.2245 35.0149 65.7127 50.0597 65.7127C65.1045 65.7959 77.3859 60.2245 77.3859 53.4057C77.3859 46.6701 65.1045 41.0987 50.0597 41.0987Z" fill="url(#paint3_linear)"/>
<path d="M25.0363 37.3565C25.9574 35.1945 25.1899 30.7041 28.7208 31.203C29.4116 34.8619 31.1771 37.4397 33.1728 34.2798C34.7847 31.7851 35.7058 28.4589 39.3903 29.1241C40.3881 31.4525 41.8466 34.6956 45.0704 33.0325C47.2197 31.8683 47.1429 28.2926 50.7506 29.1241C52.209 31.9514 47.1429 33.0325 49.1387 35.1945C50.5203 36.6913 52.7464 33.6145 53.8977 32.3672C54.8956 31.2862 58.8871 28.7915 59.0406 31.8683C59.1941 34.0303 55.2026 35.2777 59.8849 36.7745C63.1856 37.7723 63.5694 34.2798 66.4095 33.1988C67.7144 32.6998 73.8551 31.4525 72.3199 34.945C71.3988 36.9408 67.0235 35.1945 66.4095 38.687C65.7186 42.7617 69.0193 41.0154 70.9383 39.9344C73.241 38.687 77.079 35.8597 79.9958 37.7723C84.6781 40.8491 77.8466 41.6806 76.6184 43.0111C72.3967 47.5847 86.0598 44.5079 82.6056 50.9941C80.6867 54.5698 78.6142 51.2435 76.6184 50.9941C75.3135 50.8278 74.7762 50.8278 73.7783 51.9088C72.3967 53.4056 74.9297 54.4035 75.8508 55.8171C77.1557 57.896 75.8508 61.1391 73.241 60.4738C70.4009 59.8086 71.3988 55.4845 69.1728 54.4035C68.5587 54.154 68.2517 53.9877 67.5609 54.0708C67.1771 56.1497 68.3284 57.896 68.3284 59.8086C67.5609 64.1327 65.9489 59.476 64.4137 58.6444C61.5736 57.1476 63.5694 64.4653 58.1962 63.8832C52.5161 63.218 46.8359 56.815 41.2325 56.815C37.0875 56.815 33.0193 56.4824 29.2581 54.4866C25.4969 52.4077 22.4265 48.9983 18.7421 46.7531C16.7464 45.5058 13.2154 42.0133 16.1323 39.6017C18.7421 37.2734 23.1941 41.847 25.0363 37.3565Z" fill="url(#paint4_linear)"/>
<path d="M47.3733 33.1157C46.0684 33.6978 44.8403 35.2778 44.1495 37.1072C43.3819 38.9366 42.9981 41.1818 43.0748 43.427C43.0748 45.6722 43.5354 47.9174 44.3797 49.7469C45.2241 51.5763 46.6057 52.9899 47.9874 53.4057C46.9895 52.3247 46.2987 50.8279 45.9149 49.1648C45.5311 47.4185 45.3008 45.5059 45.3008 43.427C45.3008 41.3481 45.4544 39.4356 45.7614 37.6893C45.9917 35.8599 46.4522 34.2799 47.3733 33.1157Z" fill="#2C6B2E"/>
<path d="M37.7784 32.7831C37.0876 33.6978 36.4735 35.0283 36.32 36.6082C36.0897 38.1882 36.32 39.9345 36.9341 41.5976C38.1622 45.007 40.5418 47.169 42.6143 48.0837C41.4629 46.0048 40.0812 43.5933 39.0833 40.6829C37.932 37.9387 37.6249 35.1946 37.7784 32.7831Z" fill="#2C6B2E"/>
<path d="M28.4137 34.9451C27.9532 36.0261 27.6461 37.4397 27.9532 39.1029C28.2602 40.6828 29.1813 42.3459 30.6397 43.5101C32.0982 44.5911 33.7101 45.0901 35.1685 45.1732C36.627 45.1732 37.9319 44.7574 38.853 44.1753C36.7037 43.9259 34.0939 43.2606 31.9447 41.5975C30.87 40.766 30.1024 39.6849 29.4884 38.6039C28.951 37.3566 28.644 36.1092 28.4137 34.9451Z" fill="#2C6B2E"/>
<path d="M17.8978 42.5953C19.433 42.928 20.9682 43.51 22.5801 44.5079C24.1921 45.5058 25.7273 46.8363 27.5695 48.1668C29.4117 49.4973 31.5609 50.5783 33.7102 50.6614C35.7827 50.8277 37.5482 50.0793 38.9298 49.3309C37.3946 49.3309 35.7059 49.4141 33.9405 48.9152C32.2518 48.4162 30.5631 47.4184 28.7976 46.171C27.0322 44.9237 25.1899 43.5932 23.271 42.928C21.2752 42.1796 19.3562 42.1796 17.8978 42.5953Z" fill="#2C6B2E"/>
<path d="M49.062 47.169C49.5226 47.3353 50.1366 47.169 50.5972 46.7532C51.1345 46.3374 51.4415 45.7553 51.7486 45.0901C52.2859 43.8427 52.5162 42.4291 52.6697 41.0986C53.0535 38.4376 53.2838 36.3587 54.7422 34.8619C54.2816 34.9451 53.7443 35.0282 53.207 35.3609C52.6697 35.6935 52.2091 36.1093 51.8253 36.6914C51.0577 37.8555 50.5972 39.2692 50.4437 40.6828C50.2134 42.0965 50.2134 43.427 50.1366 44.508C50.0599 45.7553 49.9064 46.67 49.062 47.169Z" fill="#29662C"/>
<path d="M53.0535 49.0815C54.5886 49.331 56.5844 48.7489 58.2731 47.4184C59.9618 46.0879 61.4202 44.1753 62.6484 42.1796C63.8765 40.267 65.0279 38.4376 66.3328 37.0239C67.6377 35.6103 69.0961 34.5293 70.3243 33.4482C68.7891 33.7809 67.0236 34.363 65.2582 35.6103C65.0279 35.7766 64.7976 35.9429 64.6441 36.1092C64.4138 36.2755 64.2603 36.525 64.03 36.6913C63.5695 37.1071 63.2624 37.5229 62.8786 37.9386C62.111 38.8534 61.497 39.7681 60.8061 40.7659C60.1921 41.7638 59.6547 42.7617 59.0407 43.5932C58.4266 44.5079 57.8893 45.2563 57.1985 46.0047C55.8936 47.5015 54.5119 48.5826 53.0535 49.0815Z" fill="#29662C"/>
<path d="M55.5865 48.6657C57.1985 49.2478 59.0407 49.8299 61.2667 49.9131C62.3413 49.9962 63.5695 49.8299 64.7976 49.4141C66.0258 48.9984 67.1772 48.3331 68.175 47.5015C70.2475 45.8384 71.706 44.009 73.2411 42.5122C74.0087 41.7638 74.6996 41.1817 75.5439 40.5996C76.3115 40.1007 77.1558 39.7681 77.9234 39.5186C77.0791 39.4354 76.158 39.4355 75.1601 39.6849C74.1622 39.9344 73.2411 40.4333 72.2433 41.0986C70.4011 42.3459 68.7124 44.0922 66.8701 45.5058C63.416 48.6657 58.9639 48.25 55.5865 48.6657Z" fill="#1F5322"/>
<path d="M66.8701 51.493C68.5588 50.6615 70.6313 49.4973 73.0876 48.7489C75.5439 48.0005 77.8467 47.8342 79.6121 48.4163C78.9213 47.8342 77.8467 47.3352 76.6185 47.2521C75.3904 47.0858 74.0855 47.2521 72.7806 47.6679C70.1708 48.4163 68.175 50.0794 66.8701 51.493Z" fill="#1B4D1F"/>
<path d="M74.2388 51.8257C73.548 51.8257 73.0874 51.9088 73.0874 51.992C73.0874 52.0751 73.548 52.0751 74.2388 52.1583C74.9296 52.1583 75.3902 52.0751 75.3902 51.992C75.3902 51.9088 74.9296 51.8257 74.2388 51.8257Z" fill="#1F5322"/>
<path d="M14.9042 50.3288C14.9042 50.3288 14.9042 51.493 16.5929 52.4908C18.2816 53.4887 18.2816 53.4887 18.2816 53.4887C18.2816 53.4887 16.9767 55.7339 18.0513 57.8128C19.1259 59.8917 19.8168 60.2243 22.8871 61.8043L23.8082 61.8874C23.8082 61.8874 25.3434 64.881 28.7976 65.6294C32.2517 66.3778 32.6355 65.8789 32.6355 65.8789C32.6355 65.8789 34.8615 67.542 37.8551 68.1241C40.8487 68.7062 40.8487 68.1241 40.8487 68.1241C40.8487 68.1241 41.3093 69.122 44.5332 69.2883C47.7571 69.5377 49.369 69.5377 51.2112 68.7893C51.2112 68.7893 53.4372 69.9535 56.8914 69.2883C60.3456 68.5399 62.9554 66.6273 62.9554 66.6273C62.9554 66.6273 63.8765 67.4588 65.1814 67.7915C66.4863 68.1241 68.7123 67.7083 69.7102 67.4588C69.7102 67.4588 73.4713 67.7915 75.2368 67.3757C77.0023 66.8768 83.0662 65.4631 80.0726 59.7254L79.305 58.3117C79.305 58.3117 84.3711 58.6443 86.7507 57.1475C89.0534 55.5676 90.7421 50.6614 86.2134 48.0004C81.6846 45.3394 30.9468 46.0878 30.9468 46.0878C30.9468 46.0878 14.9809 49.8298 14.9042 50.3288Z" fill="#B2B2B2"/>
<path d="M64.0299 53.3224C66.2559 53.8213 70.1706 58.8938 69.6333 62.1369C66.6397 61.8043 66.4094 56.1497 64.8743 53.9045L64.0299 53.3224Z" fill="#1B4D1F"/>
<path d="M60.8828 38.0218C55.9702 37.5229 56.1237 39.8512 54.6653 41.348C52.6695 43.3438 50.9041 41.1817 50.5203 44.2585C50.0597 47.751 52.5928 50.8278 57.8892 53.1561C61.4968 54.7361 64.7207 52.9898 66.9467 52.9067C68.4052 51.1604 71.322 49.4141 69.7868 45.589C68.0214 41.0154 65.4115 38.5207 60.8828 38.0218Z" fill="#BE1622"/>
<path d="M60.9595 38.2712C56.8145 38.188 56.8145 39.9343 55.5096 41.0985C53.6674 42.7616 51.6717 41.6806 51.1343 44.0089C50.5203 46.6699 53.8209 50.0793 58.1962 51.5761C61.8806 52.8234 64.951 51.2435 67.3305 50.994C68.7122 49.5803 70.6312 47.6678 69.5565 44.9236C68.3284 41.5142 64.7975 38.3543 60.9595 38.2712Z" fill="url(#paint5_radial)"/>
<path d="M65.1814 49.9129C65.1814 49.9129 63.416 50.7445 60.9597 50.5782C57.4287 50.3287 53.6676 47.6677 53.0535 45.4225C52.4394 43.1773 56.4309 42.0131 57.1217 44.4247C57.4287 45.672 56.4309 45.2562 57.659 46.5867C58.8104 47.9172 60.4991 48.333 63.3392 47.834C66.1793 47.3351 65.8722 49.4972 65.1814 49.9129Z" fill="url(#paint6_linear)"/>
<path d="M54.7422 44.591C55.2795 44.6742 55.8168 44.9236 55.8936 45.1731C55.9703 45.4226 55.5865 45.5889 55.0492 45.5889C54.5119 45.5889 53.9746 45.2563 53.8978 45.0068C53.8211 44.6742 54.2049 44.5079 54.7422 44.591Z" fill="#F6AA00"/>
<path d="M55.6633 46.0047C56.1238 45.9215 56.6612 46.0878 56.8914 46.3373C57.045 46.5868 56.8147 46.8362 56.3541 47.0025C55.8936 47.0857 55.3563 46.9194 55.126 46.6699C54.9725 46.3373 55.2027 46.0878 55.6633 46.0047Z" fill="#F6AA00"/>
<path d="M57.5822 47.6678C57.8892 47.4183 58.3498 47.4183 58.6568 47.5847C58.9639 47.8341 58.9639 48.1668 58.6568 48.4162C58.3498 48.6657 57.8892 48.6657 57.5822 48.4994C57.2752 48.3331 57.2752 47.9173 57.5822 47.6678Z" fill="#F6AA00"/>
<path d="M59.3476 48.5824C59.5011 48.2498 59.8849 48.0835 60.2687 48.2498C60.5757 48.4161 60.7292 48.8319 60.5757 49.1645C60.4222 49.4972 60.0384 49.6635 59.6546 49.4972C59.3476 49.3308 59.1941 48.9151 59.3476 48.5824Z" fill="#F6AA00"/>
<path d="M60.9596 49.1646C60.9596 48.832 61.2666 48.5825 61.5737 48.6657C61.8807 48.7488 62.1877 49.0814 62.1877 49.4972C62.1877 49.8298 61.8807 50.0793 61.5737 49.9961C61.1899 49.8298 60.9596 49.4972 60.9596 49.1646Z" fill="#F6AA00"/>
<path d="M63.0321 49.0814C62.8786 48.6656 62.9553 48.4161 63.2624 48.4161C63.5694 48.4161 63.9532 48.7488 64.1067 49.0814C64.2602 49.4972 64.1835 49.7466 63.8764 49.7466C63.5694 49.8298 63.1856 49.4972 63.0321 49.0814Z" fill="#F6AA00"/>
<path d="M56.354 47.252C56.7378 47.0857 57.1984 47.1689 57.3519 47.3352C57.5054 47.5015 57.3519 47.751 56.9681 47.9173C56.5843 48.0836 56.1237 48.0004 55.9702 47.8341C55.8167 47.5847 55.9702 47.3352 56.354 47.252Z" fill="#F6AA00"/>
<path d="M68.3284 47.5014C68.3284 47.5014 68.6355 46.2541 68.4052 44.591C68.0982 42.0963 64.7208 39.6016 61.8807 39.269C59.0406 39.0196 57.5822 42.0132 60.6525 42.2626C62.1877 42.4289 61.6504 41.6805 63.3391 42.4289C65.0278 43.1773 65.1046 44.1752 64.951 46.4204C64.7975 47.5846 65.9489 48.6656 68.3284 47.5014Z" fill="url(#paint7_linear)"/>
<path d="M60.806 40.5996C60.8827 41.0153 61.1898 41.348 61.4968 41.348C61.8038 41.348 62.0341 41.0985 62.0341 40.6827C61.9574 40.267 61.6503 39.9343 61.3433 39.9343C60.9595 39.9343 60.7292 40.1838 60.806 40.5996Z" fill="#F6AA00"/>
<path d="M62.5714 41.0985C62.4947 41.4311 62.6482 41.8469 62.9552 41.93C63.2623 42.0132 63.6461 41.8469 63.7228 41.5143C63.7996 41.1816 63.6461 40.7659 63.339 40.6827C63.032 40.5164 62.725 40.7659 62.5714 41.0985Z" fill="#F6AA00"/>
<path d="M64.7208 42.3458C64.4138 42.5953 64.337 42.9279 64.6441 43.1774C64.8743 43.3437 65.4117 43.3437 65.7187 43.0942C66.0257 42.8447 66.1025 42.5121 65.7955 42.2626C65.4884 42.0963 65.0279 42.0963 64.7208 42.3458Z" fill="#F6AA00"/>
<path d="M65.8722 43.5099C65.4117 43.6762 65.2582 43.9257 65.4117 44.1752C65.642 44.4246 66.1025 44.5078 66.5631 44.3415C67.0236 44.1752 67.1772 43.9257 67.0236 43.6762C66.7934 43.5099 66.256 43.4268 65.8722 43.5099Z" fill="#F6AA00"/>
<path d="M66.5629 44.6741C66.1024 44.6741 65.8721 44.9236 65.9489 45.173C66.0256 45.4225 66.4862 45.5888 66.9467 45.5057C67.4073 45.5057 67.6376 45.2562 67.5608 45.0067C67.4073 44.7573 67.0235 44.5909 66.5629 44.6741Z" fill="#F6AA00"/>
<path d="M66.4862 46.171C66.0256 46.0878 65.5651 46.171 65.5651 46.4204C65.5651 46.6699 65.9489 46.9194 66.4094 47.0025C66.87 47.0857 67.3305 47.0025 67.3305 46.8362C67.4073 46.5036 66.9467 46.2541 66.4862 46.171Z" fill="#F6AA00"/>
<path d="M64.1067 41.5142C63.9532 41.7637 63.9532 42.0963 64.1835 42.1795C64.4138 42.2626 64.7208 42.1795 64.9511 41.8468C65.1046 41.5974 65.1046 41.2648 64.8743 41.1816C64.6441 41.0984 64.337 41.1816 64.1067 41.5142Z" fill="#F6AA00"/>
<path d="M68.0215 52.4078C72.0129 51.9088 77.7699 57.3139 77.0023 61.8875C74.7763 62.9685 71.0918 52.0751 66.3328 52.4078H68.0215Z" fill="#1B4D1F"/>
<path d="M50.904 39.1029C46.2985 36.1925 44.226 38.5208 41.2324 39.2692C37.1642 40.2671 36.1663 37.523 32.7121 40.184C28.7207 43.2607 28.2601 49.9963 31.4072 54.8193C34.0938 58.894 39.6205 58.8108 42.5373 59.975C45.7612 59.0603 50.3667 57.813 52.5927 53.4057C55.2025 48.1669 55.1258 41.7639 50.904 39.1029Z" fill="#BE1622"/>
<path d="M50.0597 39.6018C45.838 37.0239 43.8422 39.1028 41.0789 39.7681C37.3177 40.6828 36.3966 38.1881 33.1727 40.5996C29.4883 43.3438 29.0277 49.331 31.9446 53.5719C34.4009 57.2308 39.5437 57.0644 42.2303 58.1455C45.2239 57.3139 49.5224 56.2329 51.5949 52.2414C54.128 47.6679 54.0512 41.9301 50.0597 39.6018Z" fill="url(#paint8_radial)"/>
<path d="M41.1556 55.8173C41.1556 55.8173 38.3155 55.8173 35.936 54.1541C32.5586 51.8258 31.6375 46.4207 33.4797 43.4271C35.3987 40.4335 40.9253 41.3482 38.8528 44.5912C37.7782 46.2544 37.2409 45.1733 36.9338 47.4185C36.6268 49.6637 37.9317 51.1605 41.5394 52.2416C45.1471 53.3226 42.3837 55.7341 41.1556 55.8173Z" fill="url(#paint9_linear)"/>
<path d="M36.3197 43.4272C36.857 43.7598 37.0873 44.4251 36.857 44.7577C36.6268 45.0903 36.0127 45.0903 35.5521 44.7577C35.0148 44.4251 34.7845 43.843 35.0148 43.4272C35.1683 43.0114 35.7824 43.0114 36.3197 43.4272Z" fill="#F6AA00"/>
<path d="M35.5523 45.5892C36.1664 45.7555 36.5502 46.2544 36.4734 46.6702C36.3967 47.086 35.7826 47.2523 35.1685 47.086C34.5544 46.9197 34.1706 46.4207 34.2474 46.005C34.4009 45.6723 35.015 45.4229 35.5523 45.5892Z" fill="#F6AA00"/>
<path d="M35.7058 48.7491C36.3199 48.6659 36.8572 48.9154 36.934 49.3312C37.0107 49.747 36.5502 50.1627 35.9361 50.329C35.322 50.4122 34.7847 50.1627 34.708 49.747C34.6312 49.3312 35.0917 48.8322 35.7058 48.7491Z" fill="#F6AA00"/>
<path d="M36.5501 50.828C37.0874 50.4954 37.7014 50.5786 37.855 50.9944C38.0085 51.4101 37.7014 51.9091 37.1641 52.2417C36.6268 52.5743 36.0127 52.4912 35.8592 52.0754C35.7057 51.6596 36.0127 51.1607 36.5501 50.828Z" fill="#F6AA00"/>
<path d="M37.548 52.4079C37.9318 51.9921 38.4692 51.9089 38.7762 52.1584C39.0065 52.4079 38.9297 52.9899 38.4692 53.4057C38.0854 53.8215 37.548 53.9047 37.241 53.6552C37.0107 53.4057 37.1642 52.8236 37.548 52.4079Z" fill="#F6AA00"/>
<path d="M39.8506 53.572C40.0809 52.99 40.5414 52.6573 40.8485 52.9068C41.1555 53.0731 41.2323 53.6552 40.9252 54.2373C40.695 54.8194 40.2344 55.0688 39.9274 54.9025C39.6203 54.7362 39.5436 54.1541 39.8506 53.572Z" fill="#F6AA00"/>
<path d="M34.9382 47.5018C35.4755 47.5849 35.936 47.8344 35.936 48.167C35.936 48.4997 35.4755 48.666 34.8614 48.5828C34.3241 48.4996 33.8635 48.2502 33.8635 47.9176C33.9403 47.5849 34.4008 47.4186 34.9382 47.5018Z" fill="#F6AA00"/>
<path d="M47.2195 54.7363C47.2195 54.7363 48.9082 53.4889 50.6736 51.3269C53.2067 48.167 52.5159 43.2608 49.8293 41.265C47.1427 39.2693 42.1534 41.9303 45.0702 44.0923C46.5287 45.1734 46.7589 44.0092 47.68 45.8386C48.6012 47.668 47.5265 48.9154 44.7632 51.4932C43.4583 52.8237 43.4583 54.8194 47.2195 54.7363Z" fill="url(#paint10_linear)"/>
<path d="M47.2194 42.1799C46.8356 42.6788 46.7589 43.2609 47.0659 43.5103C47.373 43.7598 47.9103 43.5104 48.2941 43.0946C48.6779 42.5956 48.7546 42.0135 48.4476 41.7641C48.1405 41.5146 47.6032 41.7641 47.2194 42.1799Z" fill="#F6AA00"/>
<path d="M48.5244 43.926C47.9871 44.2586 47.7568 44.8407 47.9871 45.1733C48.2174 45.5059 48.8315 45.5059 49.292 45.1733C49.8293 44.8407 50.0596 44.2586 49.8293 43.926C49.6758 43.5102 49.0617 43.5102 48.5244 43.926Z" fill="#F6AA00"/>
<path d="M49.2919 46.587C48.6778 46.6702 48.2173 47.086 48.294 47.5018C48.3708 47.9175 48.9081 48.0838 49.5222 48.0007C50.1362 47.9175 50.5968 47.5018 50.52 47.086C50.52 46.7533 49.906 46.5039 49.2919 46.587Z" fill="#F6AA00"/>
<path d="M49.1384 48.666C48.5243 48.5828 47.987 48.8323 47.9102 49.248C47.8335 49.6638 48.294 49.9964 48.9081 50.0796C49.5222 50.1628 50.0595 49.9133 50.1362 49.4975C50.213 49.1649 49.7524 48.7491 49.1384 48.666Z" fill="#F6AA00"/>
<path d="M48.6781 50.4123C48.1408 50.1628 47.6034 50.246 47.4499 50.5786C47.2964 50.9112 47.6034 51.327 48.1408 51.5764C48.6781 51.8259 49.2154 51.7428 49.3689 51.4101C49.4457 51.0775 49.1386 50.5786 48.6781 50.4123Z" fill="#F6AA00"/>
<path d="M46.8357 52.0753C46.4519 51.6596 45.9146 51.5764 45.6843 51.8259C45.4541 52.0753 45.5308 52.5743 45.9914 52.99C46.3752 53.4058 46.9125 53.489 47.1428 53.2395C47.373 53.0732 47.2963 52.4911 46.8357 52.0753Z" fill="#F6AA00"/>
<path d="M49.6759 45.2566C49.1386 45.5061 48.8316 45.8387 48.9851 46.0881C49.0618 46.3376 49.5991 46.3376 50.1365 46.1713C50.6738 45.9218 50.9808 45.5892 50.8273 45.3397C50.6738 45.0903 50.2132 45.0071 49.6759 45.2566Z" fill="#F6AA00"/>
<path d="M38.3923 39.7683C38.3923 39.7683 41.9232 44.0092 41.7697 45.7555C41.7697 45.7555 40.9254 41.1819 43.2282 38.7704C43.3049 38.7704 40.7719 41.0156 38.3923 39.7683Z" fill="#FAC188"/>
<path d="M40.5416 44.7576C39.9275 44.8407 39.2367 45.0902 38.6226 45.7554C38.3156 46.0881 38.0853 46.5038 37.855 47.0859C37.7015 47.668 37.7015 48.2501 37.9318 48.8322C38.3156 49.9132 39.0832 50.5785 39.774 50.9942C40.4648 51.41 41.1557 51.5763 41.7698 51.6595C41.386 51.0774 40.9254 50.5785 40.5416 49.9964C40.0811 49.4143 39.6973 48.8322 39.467 48.2501C39.0064 47.1691 39.8508 45.8386 40.5416 44.7576Z" fill="#FCCFA3"/>
<path d="M44.3795 44.2585C44.7633 45.2564 45.3774 46.4206 45.3774 47.4185C45.3774 47.9174 45.3006 48.3332 45.1471 48.9153C45.0703 49.1647 44.9168 49.4142 44.8401 49.6637C44.6866 49.9131 44.6098 50.1626 44.533 50.4121C44.7633 50.3289 45.0703 50.2457 45.3006 50.1626C45.6077 49.9963 45.8379 49.83 46.145 49.5805C46.6823 49.0816 47.0661 48.1669 47.0661 47.2521C46.9893 46.2543 46.5288 45.5059 45.9915 45.0069C45.5309 44.5912 44.9168 44.3417 44.3795 44.2585Z" fill="#FCCFA3"/>
<path d="M75.4669 32.6998C69.8635 32.1177 70.0938 34.6956 68.4819 36.4418C66.2559 38.7702 64.2601 36.2755 63.7996 39.6849C63.2622 43.6764 66.1791 47.0857 72.1663 49.7467C76.2345 51.5761 79.8422 49.5804 82.3753 49.4973C84.064 47.5847 87.3646 45.5058 85.5991 41.1817C83.6034 36.026 80.6098 33.2819 75.4669 32.6998Z" fill="#BE1622"/>
<path d="M75.6206 32.9492C70.9383 32.7829 70.9383 34.7786 69.4798 36.1923C67.4074 38.0217 65.1813 36.8575 64.5673 39.4354C63.8764 42.429 67.5609 46.3373 72.5502 48.0004C76.772 49.414 80.2261 47.5846 82.8359 47.3351C84.3711 45.7552 86.5971 43.5931 85.369 40.4332C83.9106 36.6081 79.9191 33.0324 75.6206 32.9492Z" fill="url(#paint11_radial)"/>
<path d="M80.3795 46.171C80.3795 46.171 78.3838 47.1689 75.6205 46.9194C71.629 46.5868 67.4073 43.5932 66.6397 41.0154C65.9488 38.5207 70.4776 37.1902 71.2452 39.9343C71.629 41.348 70.4776 40.849 71.7825 42.3458C73.0874 43.8426 75.0064 44.3416 78.2303 43.7595C81.4542 43.2606 81.2239 45.6721 80.3795 46.171Z" fill="url(#paint12_linear)"/>
<path d="M68.5586 40.1007C69.1727 40.1838 69.71 40.4333 69.8636 40.7659C69.9403 41.0985 69.5565 41.2648 68.9424 41.1817C68.3284 41.0985 67.7911 40.8491 67.6375 40.5164C67.5608 40.267 67.9446 40.0175 68.5586 40.1007Z" fill="#F6AA00"/>
<path d="M69.5565 41.6806C70.0938 41.5974 70.7079 41.7637 70.9382 42.0132C71.1685 42.3458 70.8614 42.5953 70.3241 42.7616C69.7868 42.8447 69.1727 42.6784 68.9424 42.429C68.7889 42.0963 69.0192 41.8469 69.5565 41.6806Z" fill="#F6AA00"/>
<path d="M71.7826 43.5932C72.1664 43.3437 72.7037 43.2605 73.0107 43.51C73.3177 43.7595 73.3177 44.1753 73.0107 44.4247C72.6269 44.6742 72.0896 44.7573 71.7826 44.5079C71.3988 44.3416 71.4755 43.9258 71.7826 43.5932Z" fill="#F6AA00"/>
<path d="M73.7782 44.5911C73.9317 44.1753 74.3923 44.009 74.7761 44.2584C75.1598 44.4248 75.3134 44.9237 75.1598 45.2563C75.0063 45.6721 74.5458 45.8384 74.162 45.6721C73.7782 45.5058 73.6247 45.0068 73.7782 44.5911Z" fill="#F6AA00"/>
<path d="M75.5437 45.2562C75.5437 44.8404 75.8507 44.591 76.2345 44.6741C76.6183 44.7573 76.9254 45.1731 76.9254 45.5888C76.9254 46.0046 76.6183 46.2541 76.2345 46.1709C75.8507 46.0878 75.5437 45.672 75.5437 45.2562Z" fill="#F6AA00"/>
<path d="M77.9233 45.2562C77.693 44.8405 77.8465 44.4247 78.1535 44.4247C78.4606 44.4247 78.9211 44.7573 79.1514 45.1731C79.3817 45.5889 79.2282 45.9215 78.9211 46.0046C78.5373 46.0046 78.1535 45.672 77.9233 45.2562Z" fill="#F6AA00"/>
<path d="M70.4009 43.0943C70.8614 42.928 71.322 42.928 71.4755 43.1775C71.629 43.3438 71.4755 43.6764 71.015 43.8427C70.5544 44.009 70.0939 44.009 69.8636 43.7595C69.7868 43.5101 69.9403 43.2606 70.4009 43.0943Z" fill="#F6AA00"/>
<path d="M83.9105 43.4269C83.9105 43.4269 84.2943 42.0133 83.9872 40.1007C83.6034 37.2734 79.7655 34.4461 76.6183 34.1135C73.3945 33.7809 71.7058 37.1903 75.1599 37.5229C76.9254 37.6892 76.3113 36.9408 78.2303 37.7724C80.1493 38.6039 80.226 39.7681 79.9957 42.3459C79.919 43.5101 81.3006 44.7574 83.9105 43.4269Z" fill="url(#paint13_linear)"/>
<path d="M75.3901 35.5271C75.4669 35.9429 75.7739 36.3586 76.1577 36.3586C76.5415 36.3586 76.7718 36.1092 76.695 35.6102C76.6182 35.1945 76.3112 34.7787 75.9274 34.7787C75.6204 34.7787 75.3133 35.1113 75.3901 35.5271Z" fill="#F6AA00"/>
<path d="M77.4626 36.1924C77.3091 36.6082 77.5394 37.0239 77.9232 37.1071C78.307 37.2734 78.6908 37.0239 78.8443 36.6082C78.9978 36.1924 78.7675 35.7766 78.3837 35.6935C78 35.5271 77.5394 35.7766 77.4626 36.1924Z" fill="#F6AA00"/>
<path d="M79.8421 37.606C79.4583 37.8554 79.4583 38.2712 79.7653 38.5207C80.0723 38.7701 80.6097 38.687 80.9935 38.4375C81.3773 38.188 81.3773 37.7723 81.0702 37.5228C80.7632 37.2733 80.2259 37.2733 79.8421 37.606Z" fill="#F6AA00"/>
<path d="M81.0703 38.9365C80.6098 39.1028 80.3795 39.4354 80.6097 39.6849C80.84 39.9344 81.3773 40.0175 81.9147 39.8512C82.3752 39.6849 82.6055 39.3523 82.3752 39.1028C82.1449 38.8533 81.6076 38.7702 81.0703 38.9365Z" fill="#F6AA00"/>
<path d="M81.9147 40.1839C81.3774 40.1839 81.0703 40.4334 81.2238 40.6828C81.3774 40.9323 81.8379 41.0986 82.3752 41.0986C82.9125 41.0986 83.2196 40.8492 83.0661 40.5997C82.9125 40.3502 82.452 40.1008 81.9147 40.1839Z" fill="#F6AA00"/>
<path d="M81.838 41.847C81.3006 41.7638 80.8401 41.847 80.8401 42.0964C80.8401 42.3459 81.3006 42.5954 81.838 42.7617C82.3753 42.8448 82.8358 42.7617 82.8358 42.5122C82.8358 42.2628 82.3753 42.0133 81.838 41.847Z" fill="#F6AA00"/>
<path d="M79.1512 36.6081C78.921 36.9407 78.9977 37.2733 79.228 37.4396C79.4583 37.5228 79.8421 37.3565 80.0724 37.107C80.3026 36.7744 80.2259 36.4418 79.9956 36.2754C79.7653 36.1091 79.3815 36.2755 79.1512 36.6081Z" fill="#F6AA00"/>
<path d="M67.6375 37.107C67.6375 37.107 72.9338 38.5207 74.0852 39.6849C74.0852 39.6849 70.324 37.107 70.4008 34.7787C70.324 34.7787 70.017 37.0239 67.6375 37.107Z" fill="#FAC188"/>
<path d="M72.4735 39.4354C72.0897 39.8512 71.8594 40.6828 72.0897 41.5143C72.3967 42.3459 73.1643 43.0111 73.8551 43.2606C75.3903 43.8427 76.8487 43.6764 77.8466 43.2606C76.8487 42.7617 75.5438 42.429 74.3157 41.9301C73.7016 41.6806 73.2411 41.348 72.8573 41.0154C72.627 40.5996 72.4735 40.0175 72.4735 39.4354Z" fill="#FCCFA3"/>
<path d="M74.853 37.8555C75.6206 38.4376 76.6185 38.9365 77.4628 39.5186C77.9234 39.8513 78.2304 40.1007 78.5375 40.4333C78.8445 40.766 78.998 41.2649 79.1515 41.7638C79.3818 41.3481 79.6121 40.766 79.4586 40.0176C79.3051 39.3523 78.7677 38.6871 78.1537 38.2713C76.9255 37.4397 75.6974 37.5229 74.853 37.8555Z" fill="#FCCFA3"/>
<path d="M79.2282 39.5185C73.8551 38.8533 74.0854 41.5143 72.4734 43.1774C70.3242 45.4226 68.4052 43.0111 67.9446 46.4205C67.3306 50.3288 70.0939 53.8213 75.8508 56.5654C79.7655 58.3949 83.2197 56.4823 85.676 56.3991C87.2879 54.4866 90.5118 52.4908 88.8231 48.0836C86.9809 42.9279 84.1408 40.1006 79.2282 39.5185Z" fill="#BE1622"/>
<path d="M79.3051 39.6848C74.7763 39.5185 74.7763 41.5142 73.3178 42.8447C71.3221 44.6742 69.1729 43.4268 68.5588 46.0878C67.868 49.0814 71.3989 52.9897 76.1579 54.736C80.1494 56.1496 83.5268 54.4034 86.0599 54.1539C87.595 52.5739 89.6675 50.4119 88.5929 47.252C87.288 43.51 83.5268 39.8511 79.3051 39.6848Z" fill="url(#paint14_radial)"/>
<path d="M83.8337 52.9898C83.8337 52.9898 81.9148 53.9045 79.2282 53.7382C75.3902 53.4055 71.322 50.3288 70.6312 47.751C69.9403 45.1731 74.3156 43.9258 75.0832 46.6699C75.467 48.0836 74.3156 47.5846 75.6205 49.0815C76.8487 50.5783 78.6909 51.0772 81.838 50.5783C84.9084 50.0793 84.6013 52.574 83.8337 52.9898Z" fill="url(#paint15_linear)"/>
<path d="M72.4734 46.8363C73.0874 46.9194 73.6247 47.1689 73.7015 47.5015C73.7783 47.8341 73.3945 48.0004 72.7804 47.9173C72.1663 47.8341 71.629 47.5847 71.5522 47.252C71.5522 47.0026 71.936 46.7531 72.4734 46.8363Z" fill="#F6AA00"/>
<path d="M73.4714 48.4162C74.0088 48.333 74.5461 48.4993 74.7764 48.7488C75.0066 49.0814 74.6996 49.3309 74.239 49.414C73.7017 49.4972 73.1644 49.3309 72.9341 49.0814C72.7039 48.8319 72.9341 48.5825 73.4714 48.4162Z" fill="#F6AA00"/>
<path d="M75.5439 50.4119C75.8509 50.1624 76.3882 50.0793 76.772 50.3287C77.0791 50.5782 77.0791 50.994 76.6953 51.2434C76.3882 51.4929 75.8509 51.5761 75.4671 51.3266C75.2368 51.0771 75.2368 50.6613 75.5439 50.4119Z" fill="#F6AA00"/>
<path d="M77.4629 51.4098C77.6164 50.994 78.077 50.8277 78.4608 51.0772C78.8445 51.2435 78.9981 51.7424 78.8445 52.075C78.691 52.4908 78.2305 52.6571 77.8467 52.4077C77.4629 52.2413 77.3094 51.8256 77.4629 51.4098Z" fill="#F6AA00"/>
<path d="M79.2283 52.0751C79.2283 51.6593 79.5353 51.4098 79.9191 51.493C80.3029 51.5761 80.5332 51.9919 80.5332 52.4077C80.5332 52.8235 80.2261 53.0729 79.8423 52.9898C79.4585 52.9066 79.1515 52.4908 79.2283 52.0751Z" fill="#F6AA00"/>
<path d="M81.4542 52.075C81.3007 51.6592 81.3774 51.2434 81.6845 51.2434C81.9915 51.2434 82.4521 51.576 82.6056 52.075C82.7591 52.4907 82.6823 52.9065 82.3753 52.9065C82.0683 52.8234 81.6845 52.4907 81.4542 52.075Z" fill="#F6AA00"/>
<path d="M74.2389 49.8299C74.6227 49.6636 75.16 49.7468 75.3135 49.9131C75.467 50.0794 75.3135 50.412 74.9297 50.5783C74.5459 50.7446 74.0086 50.6615 73.8551 50.4952C73.6248 50.2457 73.8551 49.9962 74.2389 49.8299Z" fill="#F6AA00"/>
<path d="M87.2111 50.3287C87.2111 50.3287 87.5949 48.9983 87.3646 47.0025C87.0576 44.1752 83.3731 41.2648 80.3028 40.9322C77.2324 40.5995 75.5437 43.9258 78.9211 44.3415C80.6098 44.5078 79.9957 43.7594 81.838 44.591C83.6802 45.4226 83.7569 46.5867 83.5267 49.1646C83.3731 50.3287 84.678 51.5761 87.2111 50.3287Z" fill="url(#paint16_linear)"/>
<path d="M79.0745 42.3458C79.1512 42.7616 79.4583 43.1774 79.8421 43.2605C80.2258 43.3437 80.4561 43.0111 80.3794 42.5121C80.3026 42.0963 79.9956 41.6806 79.6118 41.5974C79.3047 41.5974 79.0745 41.93 79.0745 42.3458Z" fill="#F6AA00"/>
<path d="M81.0702 43.0111C80.9167 43.4269 81.147 43.8427 81.454 43.9258C81.8378 44.0921 82.2216 43.8427 82.2984 43.4269C82.4519 43.0111 82.2216 42.5953 81.9146 42.5122C81.6075 42.3459 81.2237 42.5953 81.0702 43.0111Z" fill="#F6AA00"/>
<path d="M83.3731 44.4247C83.066 44.6742 82.9893 45.0899 83.2963 45.3394C83.6033 45.5889 84.0639 45.5057 84.4477 45.2563C84.8315 45.0068 84.8315 44.591 84.5244 44.3415C84.2174 44.0921 83.6801 44.1752 83.3731 44.4247Z" fill="#F6AA00"/>
<path d="M84.6012 45.7552C84.1406 45.9215 83.9104 46.2541 84.1406 46.5036C84.3709 46.753 84.9082 46.8362 85.3688 46.6699C85.8293 46.5036 86.0596 46.1709 85.8293 45.9215C85.5991 45.7552 85.0617 45.672 84.6012 45.7552Z" fill="#F6AA00"/>
<path d="M85.3688 47.0026C84.9083 47.0026 84.6013 47.252 84.678 47.5015C84.7548 47.751 85.2921 47.9173 85.7526 47.9173C86.2132 47.9173 86.5202 47.6678 86.4435 47.4183C86.29 47.1689 85.8294 47.0026 85.3688 47.0026Z" fill="#F6AA00"/>
<path d="M85.2921 48.7488C84.7547 48.6657 84.2942 48.7488 84.2942 48.9983C84.2942 49.2478 84.678 49.4972 85.2153 49.6635C85.7526 49.7467 86.2132 49.6635 86.2132 49.4141C86.2132 49.1646 85.8294 48.832 85.2921 48.7488Z" fill="#F6AA00"/>
<path d="M82.7589 43.4269C82.5286 43.7595 82.6054 44.0921 82.8357 44.2584C83.066 44.3416 83.4497 44.2584 83.6033 43.9258C83.8335 43.5932 83.7568 43.2606 83.5265 43.0943C83.2962 43.0111 82.9124 43.1774 82.7589 43.4269Z" fill="#F6AA00"/>
<path d="M71.629 43.8426C71.629 43.8426 76.6951 45.3394 77.7698 46.5035C77.7698 46.5035 74.1621 43.8425 74.2388 41.5973C74.2388 41.5142 73.9318 43.7594 71.629 43.8426Z" fill="#FAC188"/>
<path d="M76.2346 46.2542C75.8508 46.6699 75.6205 47.4183 75.8508 48.2499C76.0811 49.0814 76.7719 49.7467 77.5395 50.0793C79.0747 50.7446 80.4563 50.4951 81.4542 50.1625C80.4563 49.6635 79.2282 49.3309 78.0768 48.832C77.5395 48.5825 77.0022 48.2499 76.7719 47.8341C76.3881 47.4183 76.2346 46.8362 76.2346 46.2542Z" fill="#FCCFA3"/>
<path d="M78.5374 44.591C79.3049 45.1731 80.2261 45.672 81.0704 46.2541C81.531 46.5867 81.838 46.8362 82.0683 47.1688C82.3753 47.5015 82.4521 48.0004 82.6056 48.4162C82.8359 48.0004 83.0661 47.4183 82.9126 46.7531C82.7591 46.0878 82.2985 45.4226 81.7612 45.0068C80.6098 44.3415 79.3817 44.3415 78.5374 44.591Z" fill="#FCCFA3"/>
<path d="M71.0916 47.5848C65.1044 46.3374 65.1044 49.1647 63.1854 50.8278C60.5756 53.073 58.6567 50.1626 57.8123 53.8214C56.8144 58.0624 59.6545 62.0539 65.872 65.6296C70.0938 68.0411 74.162 66.2948 76.9253 66.4611C78.9211 64.5485 82.6822 62.7191 81.2238 57.8129C79.5351 52.0752 76.6183 48.749 71.0916 47.5848Z" fill="#BE1622"/>
<path d="M71.2453 47.751C66.1792 47.0858 66.0257 49.2478 64.2602 50.4952C61.8807 52.2415 59.5011 50.7447 58.6568 53.4888C57.6589 56.7319 61.2666 61.3054 66.4862 63.6338C70.8615 65.6295 74.7762 64.0496 77.693 64.0496C79.5352 62.5528 82.0683 60.4739 81.0704 56.8982C79.8423 52.6572 75.9276 48.4163 71.2453 47.751Z" fill="url(#paint17_radial)"/>
<path d="M75.1599 62.6359C75.1599 62.6359 72.8571 63.4675 69.9403 62.9686C65.7185 62.2202 61.3433 58.4782 60.806 55.6509C60.2686 52.8236 65.3347 51.9089 65.8721 54.9856C66.1791 56.4824 64.9509 55.9003 66.2558 57.6466C67.5608 59.3929 69.5565 60.1413 73.0874 59.8918C76.6183 59.5592 76.081 62.2202 75.1599 62.6359Z" fill="url(#paint18_linear)"/>
<path d="M62.9552 54.7362C63.6461 54.8194 64.1834 55.2351 64.2602 55.5678C64.3369 55.9004 63.8764 56.0667 63.1855 55.9835C62.4947 55.9004 61.9574 55.4846 61.8806 55.152C61.8039 54.7362 62.3412 54.5699 62.9552 54.7362Z" fill="#F6AA00"/>
<path d="M63.8763 56.5656C64.4904 56.4824 65.1045 56.7319 65.3348 57.0645C65.5651 57.3971 65.258 57.7297 64.6439 57.7297C64.0299 57.8129 63.4158 57.5634 63.1855 57.2308C63.032 56.9813 63.339 56.6487 63.8763 56.5656Z" fill="#F6AA00"/>
<path d="M66.1024 58.8939C66.4862 58.6444 67.1002 58.6444 67.4073 58.977C67.7143 59.3097 67.7143 59.7254 67.2538 59.9749C66.87 60.2244 66.2559 60.2244 65.8721 59.8917C65.6418 59.6423 65.7186 59.1434 66.1024 58.8939Z" fill="#F6AA00"/>
<path d="M68.1748 60.2245C68.4051 59.8087 68.9424 59.7255 69.3262 59.8918C69.71 60.1413 69.8635 60.6402 69.6332 61.056C69.403 61.4718 68.8657 61.555 68.4819 61.3886C68.0213 61.1392 67.9445 60.5571 68.1748 60.2245Z" fill="#F6AA00"/>
<path d="M70.017 61.0559C70.0937 60.6401 70.4008 60.3907 70.7846 60.557C71.1684 60.7233 71.4754 61.1391 71.3986 61.638C71.3219 62.0538 71.0148 62.3033 70.631 62.1369C70.2472 61.9706 69.9402 61.5548 70.017 61.0559Z" fill="#F6AA00"/>
<path d="M72.5501 61.3054C72.3966 60.8065 72.5501 60.4739 72.8571 60.4739C73.2409 60.4739 73.6247 60.9728 73.855 61.4717C74.0085 61.9707 73.855 62.3033 73.548 62.3033C73.1642 62.2202 72.7804 61.8044 72.5501 61.3054Z" fill="#F6AA00"/>
<path d="M64.644 58.1455C65.1046 58.0624 65.6419 58.1455 65.8722 58.3118C66.0257 58.5613 65.7954 58.8108 65.3348 58.9771C64.8743 59.1434 64.337 58.9771 64.1067 58.8108C63.9532 58.5613 64.1835 58.3118 64.644 58.1455Z" fill="#F6AA00"/>
<path d="M79.2282 59.9749C79.2282 59.9749 79.7655 58.5613 79.6888 56.3992C79.5352 53.3225 75.6973 49.8299 72.3199 49.0815C68.8657 48.4163 66.7165 51.8257 70.4777 52.5741C72.3199 52.9067 71.7826 52.0751 73.7016 53.1562C75.6973 54.2372 75.6205 55.5677 75.2367 58.2287C74.9297 59.6423 76.2346 61.1391 79.2282 59.9749Z" fill="url(#paint19_linear)"/>
<path d="M70.7847 50.5784C70.7847 51.0773 71.1685 51.4931 71.5523 51.5762C71.9361 51.6594 72.2431 51.3268 72.2431 50.8278C72.2431 50.3289 71.8593 49.9131 71.4755 49.83C71.015 49.83 70.7079 50.0794 70.7847 50.5784Z" fill="#F6AA00"/>
<path d="M72.9338 51.4931C72.7803 51.9089 72.9338 52.4078 73.3176 52.5741C73.7014 52.7404 74.162 52.5741 74.3155 52.1583C74.469 51.7426 74.3155 51.2436 73.9317 51.0773C73.5479 50.8278 73.0873 51.0773 72.9338 51.4931Z" fill="#F6AA00"/>
<path d="M75.3902 53.2393C75.0064 53.4888 74.8529 53.9046 75.2367 54.2372C75.5438 54.4867 76.1578 54.4867 76.5416 54.2372C76.9254 53.9877 77.0789 53.572 76.7719 53.2393C76.3881 52.9899 75.774 52.9899 75.3902 53.2393Z" fill="#F6AA00"/>
<path d="M76.6183 54.9024C76.081 54.9856 75.8507 55.4013 76.0042 55.6508C76.2345 55.9834 76.8486 56.1497 77.3859 55.9834C77.9232 55.9003 78.1535 55.4845 77.9999 55.235C77.7697 54.9024 77.1556 54.7361 76.6183 54.9024Z" fill="#F6AA00"/>
<path d="M77.3859 56.316C76.8486 56.316 76.4648 56.5655 76.5415 56.815C76.6183 57.1476 77.1556 57.3139 77.6929 57.3971C78.2302 57.3971 78.614 57.1476 78.5373 56.8981C78.4605 56.5655 77.9232 56.316 77.3859 56.316Z" fill="#F6AA00"/>
<path d="M77.1557 58.1455C76.5416 57.9792 76.0811 58.0623 76.0811 58.3118C76.0811 58.5613 76.4648 58.8939 77.0789 59.1434C77.693 59.3097 78.1535 59.2265 78.2303 58.977C78.1535 58.6444 77.693 58.3118 77.1557 58.1455Z" fill="#F6AA00"/>
<path d="M74.6994 52.1584C74.4692 52.491 74.4692 52.9068 74.6994 52.9899C74.9297 53.1562 75.3903 52.9899 75.6205 52.6573C75.8508 52.3247 75.8508 51.9089 75.6205 51.8257C75.3903 51.6594 75.0065 51.8257 74.6994 52.1584Z" fill="#F6AA00"/>
<path d="M62.1876 51.4099C62.1876 51.4099 67.791 53.5719 68.8657 54.9024C68.8657 54.9024 65.1045 51.6593 65.3347 49.2478C65.3347 49.1647 64.7974 51.5762 62.1876 51.4099Z" fill="#FAC188"/>
<path d="M67.2538 54.4867C66.7933 54.9025 66.4862 55.734 66.7165 56.6487C66.9468 57.5635 67.7144 58.3119 68.482 58.8108C70.0939 59.6423 71.7058 59.5592 72.7805 59.2266C71.7826 58.5613 70.4009 58.0624 69.096 57.3971C68.482 57.0645 67.9446 56.6487 67.6376 56.233C67.3306 55.734 67.1771 55.1519 67.2538 54.4867Z" fill="#FCCFA3"/>
<path d="M69.9403 52.9899C70.7079 53.6551 71.7058 54.3203 72.6269 55.0687C73.0874 55.4014 73.4712 55.8171 73.7015 56.1498C74.0085 56.5655 74.0853 57.0645 74.2388 57.6466C74.5459 57.2308 74.8529 56.5655 74.6994 55.8171C74.5459 55.0687 74.0853 54.3203 73.4712 53.8214C72.2431 52.8235 70.9382 52.7404 69.9403 52.9899Z" fill="#FCCFA3"/>
<path d="M22.1961 48.9152C21.9659 50.8278 19.8934 51.9919 17.5906 51.6593C15.2878 51.3267 13.6759 49.4973 13.9062 47.5847C14.1364 45.6721 16.2089 44.5079 18.5117 44.8406C20.8145 45.1732 22.5032 47.0026 22.1961 48.9152Z" fill="url(#paint20_radial)"/>
<path d="M16.8229 47.3352C17.2067 47.9173 17.0532 48.7489 16.5159 49.1646C15.9786 49.5804 15.211 49.3309 14.8272 48.7489C14.4434 48.1668 14.5969 47.3352 15.1342 46.9194C15.7483 46.5036 16.5159 46.67 16.8229 47.3352Z" fill="black"/>
<path d="M30.179 45.7552C28.9509 47.1689 26.6481 46.9194 24.9594 45.2563C23.2707 43.5932 22.8869 41.0985 24.0383 39.6849C25.2664 38.2712 27.5692 38.5207 29.2579 40.1838C31.0233 41.8469 31.4071 44.3416 30.179 45.7552Z" fill="url(#paint21_radial)"/>
<path d="M26.5713 41.1817C26.5713 41.9301 26.034 42.5122 25.4199 42.5122C24.8059 42.5122 24.2686 41.9301 24.2686 41.1817C24.2686 40.4333 24.8059 39.8512 25.4199 39.8512C26.1108 39.8512 26.6481 40.5164 26.5713 41.1817Z" fill="black"/>
<path d="M51.3646 51.1604C50.7505 49.331 51.9787 47.2521 54.2047 46.3374C56.3539 45.5058 58.5799 46.2542 59.194 48.0005C59.8081 49.8299 58.5799 51.9088 56.3539 52.8235C54.2047 53.7382 51.9787 52.9898 51.3646 51.1604Z" fill="url(#paint22_radial)"/>
<path d="M56.7379 49.83C56.1238 49.4974 55.8936 48.6658 56.2006 48.0837C56.5076 47.5016 57.1985 47.2522 57.8125 47.5848C58.4266 47.9174 58.6569 48.749 58.3498 49.331C58.1196 49.9131 57.352 50.1626 56.7379 49.83Z" fill="black"/>
<path d="M62.6482 62.2201C63.2623 60.3907 65.4883 59.6423 67.6375 60.4738C69.7868 61.3054 71.0917 63.4674 70.4776 65.2137C69.8636 67.0431 67.6375 67.7915 65.4883 66.96C63.339 66.1284 62.0341 63.9664 62.6482 62.2201Z" fill="url(#paint23_radial)"/>
<path d="M67.6374 64.8811C67.4071 64.2159 67.6374 63.3843 68.2515 63.1348C68.8655 62.8854 69.5564 63.218 69.7867 63.8832C70.0169 64.5485 69.7867 65.2969 69.1726 65.6295C68.5585 65.879 67.8677 65.5463 67.6374 64.8811Z" fill="black"/>
<path d="M32.8656 48.3331C32.712 47.0026 31.4839 45.8384 30.2557 45.2563C27.3389 43.8427 27.7995 44.4248 25.9572 44.5911C25.0361 44.6742 24.5756 44.5079 23.6545 44.4248C22.0425 44.2585 21.582 44.5911 20.2003 45.8384C18.6651 47.1689 18.2046 48.1668 18.2046 50.0794C18.2046 50.7446 17.9743 53.4887 17.744 54.4866C17.5137 55.4845 18.4348 57.3139 18.9722 58.2286C20.3538 60.6401 22.5798 60.6401 24.4988 60.6401C25.4967 60.6401 26.1875 60.8896 27.1086 60.4738C28.7973 59.6423 29.1044 60.9728 31.4071 58.3949C32.3282 57.3971 33.0191 56.316 32.7888 54.6529C32.6353 53.9045 32.5585 53.5719 32.6353 52.8235C32.712 52.3246 33.1726 51.7425 33.2493 51.1604C33.4796 50.1625 33.0191 49.4141 32.8656 48.3331Z" fill="#2D7C36"/>
<path d="M32.0981 48.25C31.9446 47.0027 30.87 46.0048 29.7954 45.4227C27.2623 44.1754 27.6461 44.6743 26.0342 44.7575C25.1898 44.7575 24.806 44.6743 23.9617 44.5911C22.5033 44.4248 22.1195 44.7575 20.9681 45.8385C19.5864 47.0027 19.2026 47.9174 19.2026 49.6636C19.2026 50.2457 19.0491 52.7404 18.8188 53.6551C18.5885 54.5698 19.4329 56.2329 19.8934 57.0645C21.1216 59.2265 23.0406 59.2265 24.806 59.2265C25.6504 59.2265 26.3412 59.476 27.1088 59.0602C28.5672 58.3118 28.8743 59.476 30.87 57.1476C31.6376 56.2329 32.3284 55.2351 32.0981 53.7383C32.0214 53.073 31.8679 52.7404 31.9446 52.1583C32.0214 51.6594 32.4052 51.1604 32.4819 50.6615C32.6355 49.83 32.2517 49.1647 32.0981 48.25Z" fill="url(#paint24_radial)"/>
<path d="M27.953 46.67C29.6417 46.0047 30.6396 47.8342 31.1002 49.1646C31.6375 50.9109 31.8678 52.1582 29.7185 51.9919C28.8742 51.9088 26.3411 51.8256 26.0341 50.7446C25.727 49.8299 27.1087 47.0026 27.953 46.67Z" fill="#9DC150"/>
<path d="M30.3325 54.1541C30.9465 55.8172 29.2578 56.8151 27.9529 57.2309C26.341 57.7298 25.1129 57.8961 25.3431 55.8172C25.4199 54.9857 25.5734 52.491 26.5713 52.1584C27.4156 51.9089 30.0254 53.3225 30.3325 54.1541Z" fill="#9DC150"/>
<path d="M23.6544 57.1476C22.196 57.9792 21.1213 56.2329 20.584 54.9024C19.97 53.2393 19.6629 51.992 21.5819 51.9088C22.3495 51.9088 24.6523 51.8256 25.0361 52.8235C25.4199 53.7382 24.3452 56.7318 23.6544 57.1476Z" fill="#9DC150"/>
<path d="M20.8912 50.4953C19.8934 48.9153 21.275 47.4185 22.4264 46.5869C23.8081 45.5891 24.9595 45.0901 25.3433 47.3353C25.4968 48.25 25.8806 50.911 25.0362 51.4931C24.2686 52.1584 21.4285 51.3268 20.8912 50.4953Z" fill="#9DC150"/>
<path d="M23.9617 49.3308C23.9617 49.5803 23.4244 49.8298 22.8103 49.8298C22.1962 49.8298 21.6589 49.5803 21.6589 49.3308C21.6589 49.0814 22.1962 48.8319 22.8103 48.8319C23.4244 48.8319 23.9617 48.9982 23.9617 49.3308Z" fill="#EAF0D4"/>
<path d="M25.0364 50.6614C24.8061 50.6614 24.5758 50.0793 24.5758 49.4141C24.5758 48.7488 24.8061 48.1667 25.0364 48.1667C25.2666 48.1667 25.4969 48.7488 25.4969 49.4141C25.4969 50.0793 25.3434 50.6614 25.0364 50.6614Z" fill="#EAF0D4"/>
<path d="M23.1942 48.4994C22.9639 48.5826 22.6569 48.3331 22.5034 47.9173C22.3498 47.5016 22.3498 47.0858 22.5801 47.0026C22.8104 46.9195 23.1174 47.1689 23.2709 47.5847C23.4245 48.0005 23.4245 48.4163 23.1942 48.4994Z" fill="#EAF0D4"/>
<path d="M23.9618 48.7488C23.7315 48.6657 23.6547 48.2499 23.8083 47.8341C23.9618 47.4183 24.2688 47.1689 24.4991 47.252C24.7294 47.3352 24.7294 47.751 24.5759 48.1667C24.4223 48.5825 24.1153 48.832 23.9618 48.7488Z" fill="#EAF0D4"/>
<path d="M28.3367 49.8301C28.1064 49.9964 27.6458 49.6638 27.3388 49.0817C26.955 48.4996 26.8783 47.9175 27.1085 47.7512C27.3388 47.5849 27.7994 47.9175 28.1064 48.4996C28.4902 49.0817 28.567 49.7469 28.3367 49.8301Z" fill="#EAF0D4"/>
<path d="M27.953 51.5763C27.7995 51.3268 28.1065 50.8279 28.6438 50.4953C29.1811 50.0795 29.7184 49.9963 29.8719 50.2458C30.0255 50.4953 29.7184 50.9942 29.1811 51.3268C28.6438 51.6594 28.0297 51.8257 27.953 51.5763Z" fill="#EAF0D4"/>
<path d="M28.5671 48.6658C28.4136 48.4995 28.4136 48.0837 28.6438 47.7511C28.8741 47.3353 29.1811 47.169 29.4114 47.3353C29.5649 47.5016 29.5649 47.9174 29.3347 48.2501C29.1044 48.6658 28.7206 48.8321 28.5671 48.6658Z" fill="#EAF0D4"/>
<path d="M28.7974 49.4974C28.7206 49.248 29.0277 48.9985 29.4882 48.9153C29.872 48.8322 30.2558 48.9153 30.3326 49.1648C30.4093 49.4143 30.1023 49.6637 29.6417 49.7469C29.1812 49.8301 28.7974 49.7469 28.7974 49.4974Z" fill="#EAF0D4"/>
<path d="M27.1853 54.653C27.0318 54.4035 27.4156 53.9046 28.0297 53.6551C28.567 53.3225 29.1811 53.3225 29.2578 53.572C29.4114 53.8215 29.0276 54.3204 28.4135 54.5699C27.8762 54.8193 27.3389 54.9025 27.1853 54.653Z" fill="#EAF0D4"/>
<path d="M25.7269 53.9878C25.9572 53.8215 26.4177 54.2373 26.648 54.9026C26.955 55.4846 26.955 56.1499 26.7248 56.233C26.4945 56.3994 26.0339 55.9836 25.8036 55.3183C25.4966 54.6531 25.4966 54.071 25.7269 53.9878Z" fill="#EAF0D4"/>
<path d="M28.2599 54.9857C28.4135 54.8194 28.7972 54.9025 29.1043 55.152C29.4113 55.4015 29.5648 55.8172 29.4113 55.9836C29.2578 56.1499 28.874 56.0667 28.567 55.8172C28.2599 55.5678 28.1064 55.152 28.2599 54.9857Z" fill="#EAF0D4"/>
<path d="M27.4924 55.152C27.7227 55.152 27.953 55.4846 27.953 55.9004C27.953 56.3161 27.8762 56.7319 27.6459 56.7319C27.4157 56.7319 27.1854 56.3993 27.1854 55.9835C27.1086 55.4846 27.2621 55.152 27.4924 55.152Z" fill="#EAF0D4"/>
<path d="M22.9638 54.2371C23.1941 54.0708 23.6547 54.3203 24.0385 54.9023C24.4223 55.4013 24.5758 55.9834 24.4223 56.2328C24.192 56.3991 23.7314 56.1497 23.3476 55.5676C22.8871 54.9855 22.7336 54.4034 22.9638 54.2371Z" fill="#EAF0D4"/>
<path d="M23.1942 52.4909C23.3477 52.7403 23.1174 53.2393 22.5801 53.655C22.1196 54.0708 21.5823 54.2371 21.352 53.9877C21.1985 53.7382 21.4287 53.2393 21.9661 52.8235C22.5034 52.4077 23.0407 52.2414 23.1942 52.4909Z" fill="#EAF0D4"/>
<path d="M22.8103 55.4013C23.0406 55.4844 23.0406 55.9002 22.8103 56.316C22.6568 56.7318 22.273 56.9812 22.1195 56.8149C21.8892 56.7318 21.8892 56.316 22.1195 55.9002C22.3498 55.4844 22.6568 55.3181 22.8103 55.4013Z" fill="#EAF0D4"/>
<path d="M22.5801 54.5698C22.6569 54.8192 22.3498 55.0687 21.9661 55.235C21.5823 55.4013 21.1985 55.3182 21.1217 55.0687C21.0449 54.8192 21.352 54.5698 21.7358 54.4035C22.1196 54.3203 22.5034 54.4035 22.5801 54.5698Z" fill="#EAF0D4"/>
<path d="M22.1193 50.9111C22.0425 50.6616 22.4263 50.329 22.9636 50.1627C23.5009 49.9963 23.9615 49.9964 24.0383 50.2458C24.115 50.4953 23.7312 50.8279 23.1939 50.9942C22.6566 51.1605 22.196 51.1605 22.1193 50.9111Z" fill="#EAF0D4"/>
<path d="M39.3901 55.3182C39.6971 53.9877 38.9296 52.4077 38.0084 51.4099C35.7824 48.9152 36.0127 49.6636 34.324 49.0815C33.4029 48.7489 33.0959 48.4163 32.2515 48.0005C30.7931 47.1689 30.2558 47.3353 28.5671 47.9173C26.6481 48.5826 25.8805 49.2478 25.2664 51.0773C25.0362 51.6593 23.8848 54.154 23.3475 54.9856C22.7334 55.8171 23.0404 57.9792 23.1939 58.977C23.6545 61.8043 25.6502 62.719 27.4925 63.4674C28.4136 63.8832 29.0276 64.3822 29.9487 64.3822C31.791 64.299 31.6374 65.6295 34.7078 64.1327C35.8592 63.5506 36.9338 62.8022 37.3176 61.1391C37.4711 60.3907 37.4711 60.0581 37.7782 59.3928C38.0084 58.8939 38.6225 58.5613 38.9296 58.1455C39.3134 57.2308 39.1598 56.3992 39.3901 55.3182Z" fill="#2D7C36"/>
<path d="M38.3921 54.6529C38.6224 53.4056 38.0083 52.0751 37.164 51.1604C35.245 48.9983 35.3985 49.6636 33.8633 49.0815C33.0957 48.7489 32.7887 48.4994 32.0211 48.0836C30.7162 47.4184 30.2556 47.5015 28.7972 48.0005C27.1085 48.5825 26.4177 49.2478 25.8804 50.8278C25.6501 51.3267 24.6522 53.655 24.1149 54.3203C23.5776 55.0687 23.8079 56.9813 23.9614 57.896C24.3452 60.3907 26.1107 61.2222 27.7226 61.8875C28.5669 62.2201 29.0275 62.719 29.9486 62.6359C31.5606 62.5527 31.407 63.7169 34.0936 62.3864C35.0915 61.8875 36.0893 61.2222 36.3964 59.7254C36.5499 59.0602 36.5499 58.7275 36.8569 58.1455C37.0872 57.7297 37.6245 57.3971 37.8548 56.9813C38.3154 56.316 38.1618 55.5676 38.3921 54.6529Z" fill="url(#paint25_radial)"/>
<path d="M35.0916 51.493C36.8571 51.493 37.2409 53.6551 37.1641 55.0687C37.0874 56.8982 36.8571 58.1455 34.9381 57.2308C34.1705 56.815 31.8677 55.734 31.9445 54.5698C31.9445 53.5719 34.1705 51.493 35.0916 51.493Z" fill="#9DC150"/>
<path d="M34.7077 59.3929C34.7077 61.1392 32.7887 61.3887 31.4838 61.3055C29.7951 61.1392 28.6437 60.8066 29.4881 58.9772C29.8719 58.2287 30.8698 55.9835 31.8676 56.0667C32.7887 56.1499 34.7077 58.5614 34.7077 59.3929Z" fill="#9DC150"/>
<path d="M27.4923 59.5591C25.8804 59.7254 25.4198 57.7297 25.4198 56.316C25.3431 54.4866 25.5733 53.1561 27.3388 53.9045C28.1064 54.2371 30.1789 55.0687 30.2557 56.1497C30.2557 57.1476 28.3367 59.4759 27.4923 59.5591Z" fill="#9DC150"/>
<path d="M27.1853 52.2414C26.8016 50.3288 28.6438 49.4973 29.9487 49.2478C31.5606 48.9152 32.7888 48.9152 32.3282 51.1604C32.1747 52.0751 31.6374 54.7361 30.6395 54.9856C29.7952 55.1519 27.4156 53.2393 27.1853 52.2414Z" fill="#9DC150"/>
<path d="M30.4858 52.4077C30.409 52.6572 29.7949 52.6572 29.2576 52.4077C28.6436 52.1583 28.2598 51.7425 28.3365 51.493C28.4133 51.2435 29.0273 51.2435 29.5647 51.493C30.1787 51.6593 30.5625 52.1583 30.4858 52.4077Z" fill="#EAF0D4"/>
<path d="M31.023 54.0708C30.7928 53.9877 30.7928 53.3224 31.023 52.7403C31.2533 52.0751 31.6371 51.6593 31.8674 51.7425C32.0977 51.8256 32.0977 52.4909 31.8674 53.073C31.6371 53.7382 31.2533 54.154 31.023 54.0708Z" fill="#EAF0D4"/>
<path d="M30.0252 51.3267C29.795 51.3267 29.6415 50.9941 29.5647 50.4951C29.5647 50.0794 29.7182 49.6636 29.9485 49.6636C30.1788 49.6636 30.3323 49.9962 30.409 50.4951C30.409 50.9109 30.2555 51.3267 30.0252 51.3267Z" fill="#EAF0D4"/>
<path d="M30.6393 51.8255C30.4857 51.6592 30.5625 51.2434 30.8695 50.9108C31.1766 50.5782 31.4836 50.4119 31.7139 50.5782C31.8674 50.7445 31.7906 51.1603 31.4836 51.4929C31.1766 51.8255 30.7928 51.9918 30.6393 51.8255Z" fill="#EAF0D4"/>
<path d="M34.3239 54.653C34.0936 54.7361 33.7866 54.2372 33.6331 53.5719C33.4796 52.9067 33.6331 52.3246 33.8634 52.2415C34.0936 52.1583 34.4007 52.6572 34.5542 53.4056C34.7077 53.9877 34.631 54.5698 34.3239 54.653Z" fill="#EAF0D4"/>
<path d="M33.3261 56.0667C33.2493 55.8172 33.7099 55.4846 34.4007 55.3183C35.0148 55.152 35.5521 55.3183 35.6289 55.5678C35.7056 55.8172 35.2451 56.1498 34.5542 56.3161C33.9402 56.4825 33.4028 56.3162 33.3261 56.0667Z" fill="#EAF0D4"/>
<path d="M34.938 53.6551C34.7845 53.4887 35.0148 53.073 35.3218 52.8235C35.6289 52.574 36.0127 52.4909 36.1662 52.7403C36.3197 52.9067 36.0894 53.3224 35.7824 53.5719C35.4753 53.8214 35.0915 53.8214 34.938 53.6551Z" fill="#EAF0D4"/>
<path d="M34.8613 54.4867C34.9381 54.2372 35.2451 54.1541 35.7057 54.2372C36.0895 54.3204 36.3965 54.5699 36.3965 54.8193C36.3198 55.0688 36.0127 55.152 35.5522 55.0688C35.0916 54.9856 34.8613 54.7362 34.8613 54.4867Z" fill="#EAF0D4"/>
<path d="M31.6375 58.6444C31.6375 58.395 32.098 58.0624 32.7121 57.9792C33.3261 57.896 33.8635 58.0624 33.9402 58.395C33.9402 58.6444 33.4797 58.9771 32.8656 59.0602C32.2515 59.0602 31.7142 58.8939 31.6375 58.6444Z" fill="#EAF0D4"/>
<path d="M30.4859 57.3971C30.7162 57.3971 31.0232 57.896 31.1 58.5613C31.1767 59.2265 31.0232 59.8086 30.7162 59.8918C30.4859 59.8918 30.1789 59.3928 30.1789 58.7276C30.0253 57.9792 30.2556 57.3971 30.4859 57.3971Z" fill="#EAF0D4"/>
<path d="M32.5584 59.3929C32.7887 59.3097 33.0958 59.476 33.2493 59.8918C33.4796 60.3076 33.4796 60.7233 33.2493 60.8065C33.019 60.8897 32.712 60.7233 32.5584 60.3076C32.3282 59.8918 32.3282 59.476 32.5584 59.3929Z" fill="#EAF0D4"/>
<path d="M31.791 59.2266C32.0213 59.3097 32.098 59.7255 31.9445 60.1413C31.791 60.5571 31.5607 60.8897 31.3304 60.8065C31.1002 60.7234 31.0234 60.3076 31.1769 59.8918C31.2537 59.3929 31.5607 59.1434 31.791 59.2266Z" fill="#EAF0D4"/>
<path d="M27.7993 56.5656C28.0296 56.4824 28.4134 56.9814 28.5669 57.6466C28.7204 58.3119 28.7204 58.8939 28.4134 58.9771C28.1831 59.0602 27.7993 58.5613 27.6458 57.8961C27.4923 57.2308 27.569 56.6487 27.7993 56.5656Z" fill="#EAF0D4"/>
<path d="M28.7205 54.9856C28.7972 55.2351 28.3367 55.6509 27.7226 55.8172C27.1085 55.9835 26.5712 55.9835 26.4945 55.6509C26.4177 55.4014 26.8782 54.9856 27.4923 54.8193C28.0296 54.653 28.6437 54.7362 28.7205 54.9856Z" fill="#EAF0D4"/>
<path d="M27.3388 57.5636C27.4923 57.7299 27.3388 58.1457 27.0318 58.3951C26.7247 58.7278 26.3409 58.8109 26.1874 58.5614C26.0339 58.3951 26.1874 57.9794 26.4945 57.7299C26.8015 57.4804 27.1853 57.3973 27.3388 57.5636Z" fill="#EAF0D4"/>
<path d="M27.3388 56.732C27.3388 56.9815 26.955 57.1478 26.5712 57.0646C26.1874 57.0646 25.8036 56.8151 25.8804 56.5657C25.8804 56.3162 26.2642 56.1499 26.648 56.2331C27.0317 56.2331 27.3388 56.4825 27.3388 56.732Z" fill="#EAF0D4"/>
<path d="M28.1832 53.1563C28.1832 52.9068 28.6438 52.7405 29.1811 52.8236C29.7184 52.9068 30.179 53.0731 30.179 53.3226C30.179 53.572 29.7184 53.7383 29.1811 53.6552C28.6438 53.572 28.1832 53.4057 28.1832 53.1563Z" fill="#EAF0D4"/>
<path d="M47.1429 55.9002C47.1429 54.4866 46.1451 53.0729 44.9937 52.2414C42.3071 50.2456 42.6909 50.994 40.8487 50.6614C39.9276 50.4951 39.467 50.2456 38.5459 49.9962C36.934 49.4972 36.3967 49.8299 34.8615 50.7446C33.096 51.8256 32.482 52.6571 32.0982 54.6529C32.0214 55.3181 31.3306 58.0623 30.87 58.977C30.4095 59.9748 31.1003 61.9706 31.4841 62.9684C32.482 65.7126 34.708 66.1284 36.7037 66.5441C37.7016 66.7105 38.3924 67.1262 39.3903 66.8768C41.2325 66.3778 41.3093 67.7915 44.0726 65.6294C45.1472 64.7979 46.0683 63.8 46.0683 62.1369C46.0683 61.3885 45.9916 60.9727 46.2218 60.3075C46.3754 59.8085 46.9127 59.3096 47.1429 58.8107C47.45 57.8128 47.0662 56.9812 47.1429 55.9002Z" fill="#2D7C36"/>
<path d="M46.1452 55.4844C46.1452 54.2371 45.3008 52.9897 44.303 52.2413C42.0002 50.4951 42.3072 51.0772 40.6185 50.8277C39.7742 50.7445 39.3904 50.4951 38.6228 50.2456C37.2411 49.8298 36.7806 50.0793 35.3989 50.9109C33.8637 51.8256 33.2497 52.6571 33.0194 54.4034C32.9426 54.9855 32.3286 57.4801 31.9448 58.3117C31.561 59.2264 32.175 61.0558 32.4821 61.8874C33.3264 64.3821 35.3222 64.7147 37.0109 65.0473C37.932 65.2136 38.4693 65.6294 39.3904 65.3799C41.0023 64.9642 41.0791 66.1283 43.5354 64.2158C44.4565 63.4674 45.3008 62.5526 45.3008 61.0558C45.3008 60.3906 45.2241 60.058 45.4544 59.3927C45.6079 58.8938 46.0684 58.478 46.222 58.0622C46.3755 57.2307 46.0684 56.4823 46.1452 55.4844Z" fill="url(#paint26_radial)"/>
<path d="M42.2305 53.0729C43.996 52.7403 44.7636 54.736 44.9939 56.1497C45.3009 57.9791 45.3009 59.3096 43.1516 58.8106C42.3073 58.5612 39.851 57.9791 39.6207 56.8149C39.4672 55.817 41.3094 53.2392 42.2305 53.0729Z" fill="#9DC150"/>
<path d="M43.3819 61.0557C43.689 62.8852 41.8468 63.4673 40.4651 63.6336C38.7764 63.883 37.5483 63.7999 38.0856 61.721C38.3158 60.8894 38.9299 58.4779 39.9278 58.3116C40.7721 58.2284 43.1517 60.2242 43.3819 61.0557Z" fill="#9DC150"/>
<path d="M36.0896 62.8021C34.4777 63.3842 33.6334 61.3885 33.4031 59.9749C33.0193 58.1454 32.9425 56.8149 34.9383 57.1476C35.7058 57.3139 38.0086 57.6465 38.3157 58.7275C38.4692 59.7254 36.934 62.5527 36.0896 62.8021Z" fill="#9DC150"/>
<path d="M34.4777 55.5676C33.7869 53.7381 35.3989 52.4908 36.7038 51.9919C38.3157 51.3266 39.5438 50.994 39.4671 53.3224C39.4671 54.2371 39.3903 57.0644 38.4692 57.4801C37.6249 57.8959 34.8615 56.4823 34.4777 55.5676Z" fill="#9DC150"/>
<path d="M37.7785 54.9855C37.7017 55.235 37.1644 55.4013 36.5503 55.235C35.9363 55.1518 35.399 54.736 35.4757 54.4866C35.5525 54.2371 36.0898 54.0708 36.7039 54.154C37.3179 54.3203 37.7785 54.6529 37.7785 54.9855Z" fill="#EAF0D4"/>
<path d="M38.6229 56.4823C38.3926 56.3992 38.2391 55.8171 38.3926 55.1519C38.5461 54.4866 38.8532 53.9045 39.0834 53.9877C39.3137 54.0708 39.4672 54.6529 39.3905 55.3182C39.1602 56.0666 38.8532 56.5655 38.6229 56.4823Z" fill="#EAF0D4"/>
<path d="M37.0877 53.9876C36.8574 54.0708 36.6271 53.7381 36.4736 53.2392C36.3968 52.8234 36.4736 52.4077 36.7039 52.3245C36.9342 52.2413 37.1644 52.574 37.318 53.0729C37.3947 53.4887 37.318 53.9045 37.0877 53.9876Z" fill="#EAF0D4"/>
<path d="M37.7784 54.4034C37.5482 54.2371 37.6249 53.8213 37.8552 53.4887C38.0855 53.0729 38.3925 52.9066 38.6228 52.9898C38.8531 53.1561 38.7763 53.5719 38.546 53.9045C38.3158 54.3203 38.0087 54.4866 37.7784 54.4034Z" fill="#EAF0D4"/>
<path d="M42.0771 56.3991C41.8468 56.4823 41.3863 56.0665 41.156 55.4012C40.9257 54.736 40.9257 54.1539 41.156 53.9876C41.3863 53.9044 41.7701 54.3202 42.0771 54.9855C42.3074 55.6507 42.3074 56.2328 42.0771 56.3991Z" fill="#EAF0D4"/>
<path d="M41.3861 57.979C41.3093 57.7296 41.6931 57.2306 42.3072 56.9812C42.9213 56.7317 43.4586 56.7317 43.6121 56.9812C43.6888 57.2306 43.3051 57.6464 42.691 57.979C42.0001 58.3117 41.4628 58.3117 41.3861 57.979Z" fill="#EAF0D4"/>
<path d="M42.4608 55.2349C42.3073 55.0686 42.384 54.6529 42.6911 54.3202C42.9981 53.9876 43.3819 53.8213 43.5354 53.9876C43.6889 54.1539 43.6122 54.5697 43.3051 54.9023C42.9981 55.3181 42.6143 55.4013 42.4608 55.2349Z" fill="#EAF0D4"/>
<path d="M42.5375 56.0666C42.5375 55.8171 42.8445 55.6508 43.3051 55.5676C43.7656 55.5676 44.0727 55.7339 44.0727 55.9834C44.0727 56.2329 43.7656 56.3992 43.3051 56.4823C42.9213 56.5655 42.5375 56.316 42.5375 56.0666Z" fill="#EAF0D4"/>
<path d="M40.158 60.9727C40.0813 60.7232 40.5418 60.3074 41.1559 60.1411C41.77 59.9748 42.384 59.9748 42.4608 60.3074C42.5376 60.5569 42.077 60.9727 41.4629 61.139C40.7721 61.3053 40.2348 61.2221 40.158 60.9727Z" fill="#EAF0D4"/>
<path d="M38.6995 59.9748C38.9297 59.8916 39.3135 60.3905 39.467 61.0558C39.6206 61.721 39.6206 62.3863 39.3135 62.4694C39.0832 62.5526 38.6995 62.0537 38.5459 61.3884C38.3924 60.7232 38.4692 60.0579 38.6995 59.9748Z" fill="#EAF0D4"/>
<path d="M41.1559 61.4715C41.3094 61.3052 41.6932 61.4715 42.0002 61.8041C42.3073 62.1367 42.384 62.5525 42.1537 62.7188C42.0002 62.8851 41.6164 62.7188 41.3094 62.3862C41.0023 62.0536 40.9256 61.6378 41.1559 61.4715Z" fill="#EAF0D4"/>
<path d="M40.3116 61.4716C40.5419 61.4716 40.6954 61.8873 40.6186 62.3863C40.6186 62.8852 40.3883 63.2178 40.1581 63.2178C39.9278 63.2178 39.7743 62.802 39.851 62.3031C39.851 61.8042 40.0813 61.4716 40.3116 61.4716Z" fill="#EAF0D4"/>
<path d="M35.8595 59.7253C36.0898 59.559 36.5503 59.9747 36.8573 60.64C37.1644 61.2221 37.2411 61.8873 37.0109 62.0536C36.7806 62.2199 36.32 61.8042 36.013 61.1389C35.706 60.4737 35.6292 59.8084 35.8595 59.7253Z" fill="#EAF0D4"/>
<path d="M36.4735 57.979C36.627 58.2285 36.2432 58.7274 35.6292 59.0601C35.0918 59.3927 34.4778 59.4758 34.3243 59.2264C34.1707 58.9769 34.5545 58.478 35.1686 58.1453C35.7827 57.8127 36.32 57.7296 36.4735 57.979Z" fill="#EAF0D4"/>
<path d="M35.5525 60.8894C35.706 61.0557 35.6292 61.4715 35.399 61.8041C35.1687 62.1368 34.7849 62.3862 34.6314 62.2199C34.4779 62.0536 34.5546 61.6378 34.7849 61.3052C35.0152 60.8894 35.399 60.7231 35.5525 60.8894Z" fill="#EAF0D4"/>
<path d="M35.3988 60.0579C35.3988 60.3073 35.0918 60.5568 34.708 60.5568C34.2474 60.64 33.9404 60.4736 33.8636 60.2242C33.8636 59.9747 34.1707 59.7252 34.5545 59.7252C35.015 59.6421 35.3988 59.8084 35.3988 60.0579Z" fill="#EAF0D4"/>
<path d="M35.6292 56.2329C35.6292 55.9834 36.0129 55.7339 36.627 55.6508C37.1643 55.5676 37.6249 55.7339 37.7016 55.9834C37.7016 56.2329 37.3179 56.4823 36.7038 56.5655C36.1665 56.5655 35.6292 56.4823 35.6292 56.2329Z" fill="#EAF0D4"/>
<path d="M54.8956 55.4845C54.6653 54.0708 53.4372 52.8235 52.1323 52.1583C49.0619 50.6615 49.5992 51.3267 47.6802 51.4099C46.6824 51.493 46.2218 51.3267 45.2239 51.2435C43.5352 51.0772 43.0747 51.493 41.6163 52.7404C40.0043 54.154 39.5438 55.1519 39.5438 57.2308C39.5438 57.896 39.3135 60.8896 39.0832 61.8875C38.7762 62.9685 39.8508 64.8811 40.3881 65.8789C41.8465 68.4568 44.1493 68.4568 46.2218 68.4568C47.2964 68.4568 47.9873 68.7062 48.9851 68.2905C50.7506 67.4589 51.0576 68.7894 53.5139 66.0453C54.435 64.9642 55.2026 63.8001 54.9724 62.0538C54.8188 61.2222 54.7421 60.8896 54.8188 60.1412C54.8956 59.5591 55.3561 58.977 55.4329 58.3949C55.5097 57.3139 55.0491 56.5655 54.8956 55.4845Z" fill="#2D7C36"/>
<path d="M53.8979 55.4014C53.7443 54.0709 52.593 53.0731 51.4416 52.491C48.755 51.1605 49.2156 51.7426 47.5269 51.8257C46.6825 51.8257 46.222 51.7426 45.3776 51.6594C43.8424 51.4931 43.4586 51.8257 42.2305 52.9899C40.8488 54.2372 40.3883 55.152 40.3883 56.9814C40.3883 57.5635 40.2347 60.2245 39.9277 61.1392C39.6974 62.137 40.6185 63.8002 41.0791 64.7149C42.384 67.0432 44.3797 67.0432 46.222 67.0432C47.1431 67.0432 47.8339 67.2927 48.6782 66.8769C50.2134 66.1285 50.5205 67.3758 52.6697 64.8812C53.5141 63.9665 54.2049 62.8854 53.9746 61.3055C53.8979 60.5571 53.7443 60.3076 53.8211 59.6424C53.8979 59.1434 54.3584 58.6445 54.3584 58.0624C54.5119 57.1477 54.0514 56.4824 53.8979 55.4014Z" fill="url(#paint27_radial)"/>
<path d="M49.5994 53.8213C51.3648 53.0729 52.4394 54.9855 52.9 56.3991C53.5141 58.2286 53.7443 59.559 51.5183 59.3927C50.5972 59.3096 47.9874 59.1433 47.6036 58.0622C47.2198 57.1475 48.6782 54.1539 49.5994 53.8213Z" fill="#9DC150"/>
<path d="M52.0556 61.7212C52.6696 63.4675 50.9042 64.4653 49.5993 64.9643C47.9106 65.5464 46.6824 65.7127 46.836 63.4675C46.9127 62.5528 47.143 59.9749 48.1409 59.6423C48.9852 59.3097 51.7485 60.8065 52.0556 61.7212Z" fill="#9DC150"/>
<path d="M45.0706 64.8811C43.5354 65.7127 42.384 63.9664 41.8467 62.5527C41.1558 60.8065 40.8488 59.476 42.9213 59.3928C43.7656 59.3928 46.1452 59.3097 46.6057 60.3907C46.9128 61.3054 45.8381 64.3822 45.0706 64.8811Z" fill="#9DC150"/>
<path d="M42.1536 57.8129C41.1557 56.1498 42.6141 54.5698 43.7655 53.7382C45.2239 52.7404 46.4521 52.1583 46.7591 54.5698C46.9126 55.5677 47.3732 58.3118 46.4521 58.9771C45.6845 59.5591 42.6909 58.7276 42.1536 57.8129Z" fill="#9DC150"/>
<path d="M45.3774 56.5655C45.3774 56.8981 44.8401 57.0644 44.1493 57.0644C43.4585 57.0644 42.9211 56.815 42.9211 56.5655C42.9211 56.2329 43.4585 55.9834 44.1493 55.9834C44.8401 56.0666 45.3774 56.316 45.3774 56.5655Z" fill="#EAF0D4"/>
<path d="M46.5289 57.9792C46.2219 57.9792 46.0684 57.3971 46.0684 56.6487C46.0684 55.9003 46.2986 55.3182 46.6057 55.3182C46.9127 55.3182 47.143 55.9003 47.143 56.6487C46.9895 57.3971 46.7592 57.9792 46.5289 57.9792Z" fill="#EAF0D4"/>
<path d="M44.5331 55.734C44.3028 55.8171 43.9957 55.5676 43.8422 55.1519C43.6887 54.7361 43.6887 54.3203 43.919 54.154C44.1493 54.0708 44.4563 54.3203 44.6098 54.7361C44.7633 55.1519 44.7633 55.6508 44.5331 55.734Z" fill="#EAF0D4"/>
<path d="M45.3007 55.9834C45.0704 55.9003 45.0704 55.4845 45.2239 54.9856C45.3775 54.5698 45.6845 54.2372 45.9148 54.3203C46.145 54.4035 46.145 54.8193 45.9915 55.3182C45.838 55.8171 45.531 56.0666 45.3007 55.9834Z" fill="#EAF0D4"/>
<path d="M49.983 57.1474C49.7527 57.3138 49.2922 56.9811 48.9084 56.3159C48.5246 55.7338 48.4478 55.0686 48.6781 54.9022C48.9084 54.7359 49.3689 55.0686 49.7527 55.7338C50.1365 56.399 50.2133 56.9811 49.983 57.1474Z" fill="#EAF0D4"/>
<path d="M49.5225 58.9769C49.369 58.7275 49.676 58.2285 50.2901 57.8128C50.8274 57.397 51.4415 57.3138 51.595 57.5633C51.7485 57.8128 51.4415 58.3117 50.8274 58.7275C50.2901 59.0601 49.676 59.2264 49.5225 58.9769Z" fill="#EAF0D4"/>
<path d="M50.2133 55.9834C49.983 55.8171 50.0597 55.4013 50.29 54.9855C50.5203 54.5698 50.9041 54.4035 51.0576 54.4866C51.2879 54.6529 51.2111 55.0687 50.9808 55.4845C50.7506 55.9003 50.4435 56.0666 50.2133 55.9834Z" fill="#EAF0D4"/>
<path d="M50.4435 56.8149C50.3668 56.5655 50.6738 56.316 51.1343 56.2328C51.5949 56.1497 51.9787 56.2328 51.9787 56.4823C52.0555 56.7318 51.7484 56.9812 51.2879 57.0644C50.9041 57.1476 50.5203 57.0644 50.4435 56.8149Z" fill="#EAF0D4"/>
<path d="M48.8316 62.137C48.6781 61.8876 49.0619 61.3886 49.6759 61.056C50.29 60.7234 50.8273 60.6402 50.9808 60.9729C51.1344 61.2223 50.7506 61.7213 50.1365 62.0539C49.5224 62.3865 48.9083 62.4697 48.8316 62.137Z" fill="#EAF0D4"/>
<path d="M47.2196 61.4719C47.4499 61.3055 47.9105 61.7213 48.2175 62.3866C48.5245 63.0518 48.6013 63.6339 48.2943 63.8002C48.064 63.9665 47.6034 63.5507 47.2964 62.8855C46.9894 62.2203 46.9126 61.6382 47.2196 61.4719Z" fill="#EAF0D4"/>
<path d="M49.9062 62.5528C50.0598 62.3865 50.4436 62.4697 50.8274 62.7191C51.1344 63.0518 51.2879 63.3844 51.2111 63.6339C51.0576 63.8002 50.6738 63.717 50.29 63.4676C49.9062 63.1349 49.7527 62.7191 49.9062 62.5528Z" fill="#EAF0D4"/>
<path d="M49.0618 62.7191C49.2921 62.7191 49.5223 63.0517 49.5223 63.5507C49.5223 64.0496 49.3688 64.4654 49.1385 64.4654C48.9083 64.4654 48.678 64.1328 48.678 63.6338C48.678 63.1349 48.8315 62.7191 49.0618 62.7191Z" fill="#EAF0D4"/>
<path d="M44.3028 61.7212C44.5331 61.5549 44.9937 61.8044 45.4542 62.3865C45.838 62.9686 46.0683 63.5507 45.838 63.717C45.6077 63.8833 45.1472 63.6338 44.6866 63.0517C44.2261 62.5528 44.0725 61.9707 44.3028 61.7212Z" fill="#EAF0D4"/>
<path d="M44.6097 59.8918C44.7633 60.1412 44.533 60.7233 43.9957 61.1391C43.4583 61.5549 42.921 61.8043 42.7675 61.5549C42.614 61.3054 42.8443 60.7233 43.3816 60.3075C43.8421 59.8918 44.4562 59.6423 44.6097 59.8918Z" fill="#EAF0D4"/>
<path d="M44.1493 62.9684C44.3796 63.0516 44.3796 63.5505 44.1493 63.9663C43.919 64.3821 43.612 64.6316 43.3817 64.5484C43.1514 64.4653 43.1514 63.9663 43.3817 63.5505C43.612 63.1348 43.9958 62.8853 44.1493 62.9684Z" fill="#EAF0D4"/>
<path d="M43.919 62.1369C43.9958 62.3863 43.6887 62.719 43.3049 62.8021C42.9211 62.9684 42.4606 62.8853 42.4606 62.6358C42.3838 62.3863 42.6908 62.0537 43.0746 61.9706C43.4584 61.8042 43.8422 61.8874 43.919 62.1369Z" fill="#EAF0D4"/>
<path d="M43.4585 58.3118C43.3818 58.0624 43.7655 57.7297 44.3029 57.5634C44.8402 57.3971 45.3775 57.3971 45.4543 57.6466C45.531 57.896 45.1472 58.2287 44.6099 58.395C43.9958 58.5613 43.5353 58.5613 43.4585 58.3118Z" fill="#EAF0D4"/>
<path d="M63.3391 54.8192C63.1088 53.3224 61.8039 52.1582 60.499 51.493C57.3519 49.9962 57.8892 50.6614 55.8167 50.7446C54.8188 50.8277 54.2815 50.6614 53.2837 50.5783C51.5182 50.412 51.0576 50.8277 49.5225 52.0751C47.8338 53.4887 47.3732 54.5697 47.3732 56.6486C47.3732 57.3139 47.1429 60.3075 46.8359 61.3885C46.5289 62.4695 47.6035 64.4653 48.2176 65.38C49.7527 68.041 52.1323 68.041 54.2815 68.041C55.3562 68.041 56.1237 68.3736 57.1216 67.8746C58.9638 66.9599 59.2709 68.3736 61.8039 65.6294C62.8018 64.5484 63.5694 63.3842 63.3391 61.638C63.1856 60.8064 63.1088 60.4738 63.1856 59.7254C63.2623 59.1433 63.7997 58.5612 63.8764 57.9791C64.0299 56.8149 63.5694 55.9834 63.3391 54.8192Z" fill="#2D7C36"/>
<path d="M61.8808 54.8193C61.7273 53.4888 60.5759 52.4909 59.4245 51.9088C56.7379 50.5783 57.1985 51.1604 55.5098 51.2436C54.6654 51.2436 54.2049 51.1604 53.3605 51.0773C51.8253 50.911 51.4415 51.2436 50.2134 52.4078C48.8317 53.6551 48.3712 54.5698 48.3712 56.3992C48.3712 56.9813 48.2177 59.6423 47.9106 60.557C47.6803 61.5549 48.6015 63.218 49.062 64.1327C50.3669 66.4611 52.3626 66.4611 54.2049 66.4611C55.126 66.4611 55.8168 66.7105 56.6612 66.2947C58.1963 65.5463 58.5034 66.7937 60.6526 64.299C61.497 63.3843 62.1878 62.3033 61.9575 60.7233C61.8808 59.9749 61.7273 59.7254 61.804 59.0602C61.8808 58.5613 62.3413 58.0623 62.3413 57.4802C62.4181 56.4824 61.9575 55.8171 61.8808 54.8193Z" fill="url(#paint28_radial)"/>
<path d="M57.5054 53.1561C59.2709 52.4077 60.3455 54.3203 60.8061 55.734C61.4202 57.5634 61.6504 58.8939 59.4244 58.7276C58.5033 58.6444 55.8935 58.4781 55.5097 57.3971C55.1259 56.4824 56.6611 53.4888 57.5054 53.1561Z" fill="#9DC150"/>
<path d="M59.9618 61.056C60.5759 62.8022 58.8104 63.8833 57.5055 64.299C55.8168 64.8811 54.5887 65.0474 54.7422 62.8022C54.819 61.8875 55.0492 59.3097 56.0471 58.9771C56.9682 58.6445 59.6548 60.2244 59.9618 61.056Z" fill="#9DC150"/>
<path d="M52.9767 64.2158C51.4415 65.0474 50.2901 63.3011 49.7528 61.8875C49.062 60.1412 48.7549 58.8107 50.8274 58.7276C51.6718 58.7276 54.0513 58.6444 54.5119 59.7254C54.8189 60.6401 53.7443 63.8 52.9767 64.2158Z" fill="#9DC150"/>
<path d="M50.06 57.2307C49.0621 55.5676 50.5205 53.9876 51.6719 53.1561C53.1303 52.1582 54.3585 51.5761 54.6655 53.9876C54.819 54.9855 55.2796 57.7296 54.3585 58.3949C53.6676 58.977 50.5973 58.0623 50.06 57.2307Z" fill="#9DC150"/>
<path d="M53.2838 55.9834C53.2838 56.3161 52.7465 56.5655 52.0557 56.5655C51.3648 56.5655 50.8275 56.3161 50.8275 55.9834C50.8275 55.6508 51.3648 55.4845 52.0557 55.4845C52.7465 55.4013 53.2838 55.6508 53.2838 55.9834Z" fill="#EAF0D4"/>
<path d="M54.4353 57.3971C54.1282 57.3971 53.9747 56.815 53.9747 56.0666C53.9747 55.3182 54.205 54.7361 54.512 54.7361C54.8191 54.7361 54.9726 55.3182 54.9726 56.0666C54.9726 56.815 54.7423 57.3971 54.4353 57.3971Z" fill="#EAF0D4"/>
<path d="M52.5162 55.0687C52.2859 55.1518 51.9789 54.9024 51.8254 54.4866C51.6719 54.0708 51.6719 53.655 51.9021 53.4887C52.1324 53.4056 52.4394 53.655 52.593 54.0708C52.7465 54.5697 52.6697 54.9855 52.5162 55.0687Z" fill="#EAF0D4"/>
<path d="M53.2838 55.3182C53.0536 55.235 53.0536 54.8192 53.2071 54.3203C53.3606 53.9045 53.6676 53.5719 53.8979 53.655C54.1282 53.7382 54.1282 54.154 53.9747 54.6529C53.8212 55.1518 53.5141 55.4845 53.2838 55.3182Z" fill="#EAF0D4"/>
<path d="M57.8894 56.5655C57.6591 56.7318 57.1986 56.3992 56.8148 55.734C56.431 55.1519 56.3542 54.4866 56.5845 54.3203C56.8148 54.154 57.2753 54.4866 57.6591 55.1519C58.0429 55.734 58.1197 56.3992 57.8894 56.5655Z" fill="#EAF0D4"/>
<path d="M57.4288 58.3118C57.2753 58.0623 57.5823 57.5634 58.1964 57.1476C58.7337 56.7318 59.3477 56.6487 59.5013 56.8981C59.6548 57.1476 59.3477 57.6465 58.7337 58.0623C58.1964 58.4781 57.5823 58.5613 57.4288 58.3118Z" fill="#EAF0D4"/>
<path d="M58.1195 55.3181C57.8892 55.1518 57.966 54.736 58.1963 54.3203C58.4265 53.9045 58.8103 53.7382 58.9639 53.8213C59.1941 53.9876 59.1174 54.4034 58.8871 54.8192C58.6568 55.235 58.3498 55.4844 58.1195 55.3181Z" fill="#EAF0D4"/>
<path d="M58.3499 56.1496C58.2731 55.9002 58.5802 55.6507 59.0407 55.5676C59.5013 55.4844 59.8851 55.5676 59.8851 55.817C59.9618 56.0665 59.6548 56.316 59.1942 56.3991C58.8104 56.5654 58.4266 56.3991 58.3499 56.1496Z" fill="#EAF0D4"/>
<path d="M56.7378 61.5549C56.5843 61.3054 56.9681 60.8065 57.5822 60.4739C58.1963 60.1412 58.7336 60.0581 58.8871 60.3907C59.0406 60.6402 58.6568 61.1391 58.0427 61.4717C57.4287 61.7212 56.8146 61.8044 56.7378 61.5549Z" fill="#EAF0D4"/>
<path d="M55.1259 60.8897C55.3562 60.7234 55.8168 61.1392 56.1238 61.8044C56.4308 62.4697 56.5076 63.0517 56.2006 63.2181C55.9703 63.3844 55.5097 62.9686 55.2027 62.3033C54.8957 61.6381 54.8957 60.9729 55.1259 60.8897Z" fill="#EAF0D4"/>
<path d="M57.8125 61.8876C57.9661 61.7212 58.3499 61.8044 58.6569 62.0539C58.9639 62.3865 59.1175 62.7191 59.0407 62.9686C58.8872 63.1349 58.5034 63.0517 58.1196 62.8023C57.8125 62.4696 57.659 62.137 57.8125 61.8876Z" fill="#EAF0D4"/>
<path d="M57.045 62.0538C57.2752 62.0538 57.5055 62.3865 57.5055 62.8854C57.5055 63.3843 57.352 63.7169 57.1217 63.8001C56.8914 63.8001 56.6612 63.4675 56.6612 62.9685C56.5844 62.4696 56.7379 62.0538 57.045 62.0538Z" fill="#EAF0D4"/>
<path d="M52.2093 61.1391C52.4396 60.9728 52.9769 61.2222 53.3607 61.8043C53.7445 62.3864 53.9748 62.9685 53.7445 63.1348C53.5142 63.3011 52.9769 63.0517 52.5931 62.4696C52.1326 61.8875 51.979 61.3054 52.2093 61.1391Z" fill="#EAF0D4"/>
<path d="M52.5162 59.3097C52.6697 59.5591 52.4395 60.0581 51.9022 60.557C51.3648 60.9728 50.8275 61.2223 50.674 60.9728C50.5205 60.7233 50.7508 60.2244 51.2881 59.7255C51.7486 59.2265 52.3627 59.0602 52.5162 59.3097Z" fill="#EAF0D4"/>
<path d="M52.1324 62.3864C52.3627 62.4695 52.3627 62.9685 52.1324 63.3843C51.9022 63.8 51.5951 64.0495 51.3648 63.9664C51.1346 63.8832 51.1346 63.3843 51.3648 62.9685C51.5951 62.4695 51.9022 62.2201 52.1324 62.3864Z" fill="#EAF0D4"/>
<path d="M51.8255 61.555C51.9022 61.8044 51.5952 62.137 51.2114 62.2202C50.8276 62.3865 50.367 62.3034 50.2903 62.0539C50.2135 61.8044 50.5206 61.4718 50.9044 61.3886C51.3649 61.2223 51.7487 61.3055 51.8255 61.555Z" fill="#EAF0D4"/>
<path d="M51.3649 57.6465C51.2881 57.3971 51.6719 57.0644 52.2092 56.8981C52.7465 56.7318 53.2839 56.7318 53.3606 56.9813C53.4374 57.2308 53.0536 57.5634 52.5163 57.7297C51.9022 57.9792 51.4416 57.896 51.3649 57.6465Z" fill="#EAF0D4"/>
<defs>
<linearGradient id="paint0_linear" x1="49.8912" y1="33.4777" x2="49.8912" y2="70.66" gradientUnits="userSpaceOnUse">
<stop stop-color="#CECECE"/>
<stop offset="0.1045" stop-color="#D4D4D4"/>
<stop offset="0.6908" stop-color="#F0F0F0"/>
<stop offset="1" stop-color="#FAFAFA"/>
</linearGradient>
<linearGradient id="paint1_linear" x1="49.9551" y1="32.6653" x2="49.9551" y2="74.5464" gradientUnits="userSpaceOnUse">
<stop stop-color="#F9F8F8"/>
<stop offset="0.1487" stop-color="#F5F5F5"/>
<stop offset="0.3202" stop-color="#EBEBEB"/>
<stop offset="0.5032" stop-color="#DADADA"/>
<stop offset="0.6941" stop-color="#C1C1C1"/>
<stop offset="0.8892" stop-color="#9F9F9F"/>
<stop offset="1" stop-color="#898988"/>
</linearGradient>
<linearGradient id="paint2_linear" x1="50.0481" y1="40.663" x2="50.0481" y2="64.9639" gradientUnits="userSpaceOnUse">
<stop stop-color="#D2D2D2"/>
<stop offset="0.379" stop-color="#DBDBDB"/>
<stop offset="1" stop-color="#E5E5E5"/>
</linearGradient>
<linearGradient id="paint3_linear" x1="49.8269" y1="42.3768" x2="50.5761" y2="74.3032" gradientUnits="userSpaceOnUse">
<stop offset="0.00537634" stop-color="#949494"/>
<stop offset="0.0990117" stop-color="#A7A7A7"/>
<stop offset="0.2968" stop-color="#C8C8C8"/>
<stop offset="0.4902" stop-color="#E1E1E1"/>
<stop offset="0.6756" stop-color="#F2F2F1"/>
<stop offset="0.8494" stop-color="#FCFCFC"/>
<stop offset="1" stop-color="white"/>
</linearGradient>
<linearGradient id="paint4_linear" x1="14.9213" y1="46.4129" x2="83.0572" y2="46.4129" gradientUnits="userSpaceOnUse">
<stop offset="0.00537634" stop-color="#549C2E"/>
<stop offset="0.0354345" stop-color="#519A2E"/>
<stop offset="0.6886" stop-color="#266A29"/>
<stop offset="1" stop-color="#165926"/>
</linearGradient>
<radialGradient id="paint5_radial" cx="0" cy="0" r="1" gradientUnits="userSpaceOnUse" gradientTransform="translate(61.1593 45.6622) rotate(-30.5993) scale(6.9757 8.83599)">
<stop offset="0.00537634" stop-color="#F18B61"/>
<stop offset="0.2172" stop-color="#F0875D"/>
<stop offset="0.4423" stop-color="#EB7B50"/>
<stop offset="0.6737" stop-color="#E3673C"/>
<stop offset="0.908" stop-color="#D74B23"/>
<stop offset="1" stop-color="#D23E19"/>
</radialGradient>
<linearGradient id="paint6_linear" x1="55.9105" y1="48.7544" x2="59.5515" y2="43.8613" gradientUnits="userSpaceOnUse">
<stop stop-color="#B91619"/>
<stop offset="0.2088" stop-color="#C5281F"/>
<stop offset="0.7176" stop-color="#E04931"/>
<stop offset="1" stop-color="#EA573A"/>
</linearGradient>
<linearGradient id="paint7_linear" x1="66.5421" y1="41.164" x2="63.5658" y2="46.6995" gradientUnits="userSpaceOnUse">
<stop stop-color="#B91619"/>
<stop offset="0.2088" stop-color="#C5281F"/>
<stop offset="0.7176" stop-color="#E04931"/>
<stop offset="1" stop-color="#EA573A"/>
</linearGradient>
<radialGradient id="paint8_radial" cx="0" cy="0" r="1" gradientUnits="userSpaceOnUse" gradientTransform="translate(41.7901 48.4318) rotate(-3.72568) scale(10.4211 11.2825)">
<stop offset="0.00537634" stop-color="#F7B696"/>
<stop offset="0.1825" stop-color="#F7B292"/>
<stop offset="0.3707" stop-color="#F5A885"/>
<stop offset="0.5643" stop-color="#F39870"/>
<stop offset="0.7613" stop-color="#F07F54"/>
<stop offset="0.9593" stop-color="#EB5E33"/>
<stop offset="1" stop-color="#EA562C"/>
</radialGradient>
<linearGradient id="paint9_linear" x1="32.6373" y1="49.1441" x2="43.0354" y2="48.5672" gradientUnits="userSpaceOnUse">
<stop stop-color="#B91619"/>
<stop offset="0.2088" stop-color="#C5281F"/>
<stop offset="0.7176" stop-color="#E04931"/>
<stop offset="1" stop-color="#EA573A"/>
</linearGradient>
<linearGradient id="paint10_linear" x1="52.3733" y1="46.1163" x2="42.771" y2="48.5711" gradientUnits="userSpaceOnUse">
<stop stop-color="#B91619"/>
<stop offset="0.2088" stop-color="#C5281F"/>
<stop offset="0.7176" stop-color="#E04931"/>
<stop offset="1" stop-color="#EA573A"/>
</linearGradient>
<radialGradient id="paint11_radial" cx="0" cy="0" r="1" gradientUnits="userSpaceOnUse" gradientTransform="translate(75.8155 41.3246) rotate(-30.5993) scale(7.89192 9.99654)">
<stop offset="0.00537634" stop-color="#F7B696"/>
<stop offset="0.1825" stop-color="#F7B292"/>
<stop offset="0.3707" stop-color="#F5A885"/>
<stop offset="0.5643" stop-color="#F39870"/>
<stop offset="0.7613" stop-color="#F07F54"/>
<stop offset="0.9593" stop-color="#EB5E33"/>
<stop offset="1" stop-color="#EA562C"/>
</radialGradient>
<linearGradient id="paint12_linear" x1="69.8778" y1="44.8229" x2="73.9966" y2="39.2876" gradientUnits="userSpaceOnUse">
<stop stop-color="#B91619"/>
<stop offset="0.2088" stop-color="#C5281F"/>
<stop offset="0.7176" stop-color="#E04931"/>
<stop offset="1" stop-color="#EA573A"/>
</linearGradient>
<linearGradient id="paint13_linear" x1="81.906" y1="36.2349" x2="78.5383" y2="42.4983" gradientUnits="userSpaceOnUse">
<stop stop-color="#B91619"/>
<stop offset="0.2088" stop-color="#C5281F"/>
<stop offset="0.7176" stop-color="#E04931"/>
<stop offset="1" stop-color="#EA573A"/>
</linearGradient>
<radialGradient id="paint14_radial" cx="0" cy="0" r="1" gradientUnits="userSpaceOnUse" gradientTransform="translate(79.4659 48.1285) rotate(-31.0365) scale(7.6639 9.90266)">
<stop offset="0.00537634" stop-color="#F7B696"/>
<stop offset="0.1825" stop-color="#F7B292"/>
<stop offset="0.3707" stop-color="#F5A885"/>
<stop offset="0.5643" stop-color="#F39870"/>
<stop offset="0.7613" stop-color="#F07F54"/>
<stop offset="0.9593" stop-color="#EB5E33"/>
<stop offset="1" stop-color="#EA562C"/>
</radialGradient>
<linearGradient id="paint15_linear" x1="73.6677" y1="51.5157" x2="77.6828" y2="46.2215" gradientUnits="userSpaceOnUse">
<stop stop-color="#B91619"/>
<stop offset="0.2088" stop-color="#C5281F"/>
<stop offset="0.7176" stop-color="#E04931"/>
<stop offset="1" stop-color="#EA573A"/>
</linearGradient>
<linearGradient id="paint16_linear" x1="85.4667" y1="43.11" x2="82.0338" y2="49.3547" gradientUnits="userSpaceOnUse">
<stop stop-color="#B91619"/>
<stop offset="0.2088" stop-color="#C5281F"/>
<stop offset="0.7176" stop-color="#E04931"/>
<stop offset="1" stop-color="#EA573A"/>
</linearGradient>
<radialGradient id="paint17_radial" cx="0" cy="0" r="1" gradientUnits="userSpaceOnUse" gradientTransform="translate(70.6633 56.866) rotate(-24.9077) scale(8.50571 10.9092)">
<stop offset="0.00537634" stop-color="#F7B696"/>
<stop offset="0.1825" stop-color="#F7B292"/>
<stop offset="0.3707" stop-color="#F5A885"/>
<stop offset="0.5643" stop-color="#F39870"/>
<stop offset="0.7613" stop-color="#F07F54"/>
<stop offset="0.9593" stop-color="#EB5E33"/>
<stop offset="1" stop-color="#EA562C"/>
</radialGradient>
<linearGradient id="paint18_linear" x1="63.9212" y1="59.9834" x2="68.9088" y2="54.4793" gradientUnits="userSpaceOnUse">
<stop stop-color="#B91619"/>
<stop offset="0.2088" stop-color="#C5281F"/>
<stop offset="0.7176" stop-color="#E04931"/>
<stop offset="1" stop-color="#EA573A"/>
</linearGradient>
<linearGradient id="paint19_linear" x1="77.7219" y1="52.0479" x2="73.4479" y2="58.4063" gradientUnits="userSpaceOnUse">
<stop stop-color="#B91619"/>
<stop offset="0.2088" stop-color="#C5281F"/>
<stop offset="0.7176" stop-color="#E04931"/>
<stop offset="1" stop-color="#EA573A"/>
</linearGradient>
<radialGradient id="paint20_radial" cx="0" cy="0" r="1" gradientUnits="userSpaceOnUse" gradientTransform="translate(16.8434 46.7541) rotate(9.21459) scale(4.82477 5.20701)">
<stop stop-color="#8CA1B7"/>
<stop offset="0.4805" stop-color="#5E5C6A"/>
<stop offset="0.8329" stop-color="#302830"/>
<stop offset="1"/>
</radialGradient>
<radialGradient id="paint21_radial" cx="0" cy="0" r="1" gradientUnits="userSpaceOnUse" gradientTransform="translate(26.8836 40.7341) rotate(44.883) scale(5.00333 5.021)">
<stop stop-color="#8CA1B7"/>
<stop offset="0.4805" stop-color="#5E5C6A"/>
<stop offset="0.8329" stop-color="#302830"/>
<stop offset="1"/>
</radialGradient>
<radialGradient id="paint22_radial" cx="0" cy="0" r="1" gradientUnits="userSpaceOnUse" gradientTransform="translate(55.3667 47.3122) rotate(158.23) scale(4.86436 5.16249)">
<stop stop-color="#8CA1B7"/>
<stop offset="0.4805" stop-color="#5E5C6A"/>
<stop offset="0.8329" stop-color="#302830"/>
<stop offset="1"/>
</radialGradient>
<radialGradient id="paint23_radial" cx="0" cy="0" r="1" gradientUnits="userSpaceOnUse" gradientTransform="translate(67.9994 61.9786) rotate(-158.948) scale(4.86115 5.16572)">
<stop stop-color="#8CA1B7"/>
<stop offset="0.4805" stop-color="#5E5C6A"/>
<stop offset="0.8329" stop-color="#302830"/>
<stop offset="1"/>
</radialGradient>
<radialGradient id="paint24_radial" cx="0" cy="0" r="1" gradientUnits="userSpaceOnUse" gradientTransform="translate(25.6563 51.9451) scale(8.5386 9.25015)">
<stop offset="0.1828" stop-color="#EAF0D4"/>
<stop offset="0.4396" stop-color="#EAF0D2"/>
<stop offset="0.5684" stop-color="#E7EECC"/>
<stop offset="0.6688" stop-color="#E2EBC1"/>
<stop offset="0.7544" stop-color="#DBE6B1"/>
<stop offset="0.8306" stop-color="#D3E09C"/>
<stop offset="0.9001" stop-color="#C7D881"/>
<stop offset="0.9633" stop-color="#B9CF60"/>
<stop offset="1" stop-color="#AEC948"/>
</radialGradient>
<radialGradient id="paint25_radial" cx="0" cy="0" r="1" gradientUnits="userSpaceOnUse" gradientTransform="translate(31.1309 55.5014) rotate(23.2733) scale(8.65478 9.15948)">
<stop offset="0.1828" stop-color="#EAF0D4"/>
<stop offset="0.4396" stop-color="#EAF0D2"/>
<stop offset="0.5684" stop-color="#E7EECC"/>
<stop offset="0.6688" stop-color="#E2EBC1"/>
<stop offset="0.7544" stop-color="#DBE6B1"/>
<stop offset="0.8306" stop-color="#D3E09C"/>
<stop offset="0.9001" stop-color="#C7D881"/>
<stop offset="0.9633" stop-color="#B9CF60"/>
<stop offset="1" stop-color="#AEC948"/>
</radialGradient>
<radialGradient id="paint26_radial" cx="0" cy="0" r="1" gradientUnits="userSpaceOnUse" gradientTransform="translate(39.009 57.9441) rotate(11.0501) scale(8.76969 9.44886)">
<stop offset="0.1828" stop-color="#EAF0D4"/>
<stop offset="0.4396" stop-color="#EAF0D2"/>
<stop offset="0.5684" stop-color="#E7EECC"/>
<stop offset="0.6688" stop-color="#E2EBC1"/>
<stop offset="0.7544" stop-color="#DBE6B1"/>
<stop offset="0.8306" stop-color="#D3E09C"/>
<stop offset="0.9001" stop-color="#C7D881"/>
<stop offset="0.9633" stop-color="#B9CF60"/>
<stop offset="1" stop-color="#AEC948"/>
</radialGradient>
<radialGradient id="paint27_radial" cx="0" cy="0" r="1" gradientUnits="userSpaceOnUse" gradientTransform="translate(47.1538 59.3622) scale(8.98711 9.73604)">
<stop offset="0.1828" stop-color="#EAF0D4"/>
<stop offset="0.4396" stop-color="#EAF0D2"/>
<stop offset="0.5684" stop-color="#E7EECC"/>
<stop offset="0.6688" stop-color="#E2EBC1"/>
<stop offset="0.7544" stop-color="#DBE6B1"/>
<stop offset="0.8306" stop-color="#D3E09C"/>
<stop offset="0.9001" stop-color="#C7D881"/>
<stop offset="0.9633" stop-color="#B9CF60"/>
<stop offset="1" stop-color="#AEC948"/>
</radialGradient>
<radialGradient id="paint28_radial" cx="0" cy="0" r="1" gradientUnits="userSpaceOnUse" gradientTransform="translate(55.0761 58.7303) scale(8.98688 9.73578)">
<stop offset="0.1828" stop-color="#EAF0D4"/>
<stop offset="0.4396" stop-color="#EAF0D2"/>
<stop offset="0.5684" stop-color="#E7EECC"/>
<stop offset="0.6688" stop-color="#E2EBC1"/>
<stop offset="0.7544" stop-color="#DBE6B1"/>
<stop offset="0.8306" stop-color="#D3E09C"/>
<stop offset="0.9001" stop-color="#C7D881"/>
<stop offset="0.9633" stop-color="#B9CF60"/>
<stop offset="1" stop-color="#AEC948"/>
</radialGradient>
</defs>
</svg>
