<svg width="100" height="130" viewBox="0 0 100 130" fill="none" xmlns="http://www.w3.org/2000/svg">
<rect width="100" height="130" rx="10" fill="white"/>
<path d="M30.4733 92.328C30.4253 92.408 30.3747 92.4693 30.3213 92.512C30.268 92.5493 30.1987 92.568 30.1133 92.568C30.0227 92.568 29.916 92.5226 29.7933 92.432C29.676 92.3413 29.524 92.2426 29.3373 92.136C29.156 92.024 28.9347 91.9226 28.6733 91.832C28.4173 91.7413 28.1053 91.696 27.7373 91.696C27.3907 91.696 27.084 91.744 26.8173 91.84C26.5507 91.9306 26.3267 92.056 26.1453 92.216C25.9693 92.376 25.836 92.5653 25.7453 92.784C25.6547 92.9973 25.6093 93.2293 25.6093 93.48C25.6093 93.8 25.6867 94.0666 25.8413 94.28C26.0013 94.488 26.2093 94.6666 26.4653 94.816C26.7267 94.9653 27.02 95.096 27.3453 95.208C27.676 95.3146 28.012 95.4266 28.3533 95.544C28.7 95.6613 29.036 95.7946 29.3613 95.944C29.692 96.088 29.9853 96.272 30.2413 96.496C30.5027 96.72 30.7107 96.9946 30.8653 97.32C31.0253 97.6453 31.1053 98.0453 31.1053 98.52C31.1053 99.0213 31.02 99.4933 30.8493 99.936C30.6787 100.373 30.428 100.755 30.0973 101.08C29.772 101.405 29.3693 101.661 28.8893 101.848C28.4147 102.035 27.8733 102.128 27.2653 102.128C26.524 102.128 25.8467 101.995 25.2333 101.728C24.6253 101.456 24.1053 101.091 23.6733 100.632L24.1213 99.896C24.164 99.8373 24.2147 99.7893 24.2733 99.752C24.3373 99.7093 24.4067 99.688 24.4813 99.688C24.5933 99.688 24.7213 99.7493 24.8653 99.872C25.0093 99.9893 25.188 100.12 25.4013 100.264C25.62 100.408 25.8813 100.541 26.1853 100.664C26.4947 100.781 26.8707 100.84 27.3133 100.84C27.6813 100.84 28.0093 100.789 28.2973 100.688C28.5853 100.587 28.828 100.445 29.0253 100.264C29.228 100.077 29.3827 99.856 29.4893 99.6C29.596 99.344 29.6493 99.0586 29.6493 98.744C29.6493 98.3973 29.5693 98.1146 29.4093 97.896C29.2547 97.672 29.0493 97.4853 28.7933 97.336C28.5373 97.1866 28.244 97.0613 27.9133 96.96C27.588 96.8533 27.252 96.7466 26.9053 96.64C26.564 96.528 26.228 96.4 25.8973 96.256C25.572 96.112 25.2813 95.9253 25.0253 95.696C24.7693 95.4666 24.5613 95.1813 24.4013 94.84C24.2467 94.4933 24.1693 94.0666 24.1693 93.56C24.1693 93.1546 24.2467 92.7626 24.4013 92.384C24.5613 92.0053 24.7907 91.6693 25.0893 91.376C25.388 91.0826 25.756 90.848 26.1933 90.672C26.636 90.496 27.1427 90.408 27.7133 90.408C28.3533 90.408 28.9373 90.5093 29.4653 90.712C29.9933 90.9146 30.4547 91.208 30.8493 91.592L30.4733 92.328Z" fill="black"/>
<path d="M36.2917 93.768C36.8837 93.768 37.417 93.8666 37.8917 94.064C38.3717 94.2613 38.777 94.5413 39.1077 94.904C39.4437 95.2666 39.6997 95.7066 39.8757 96.224C40.057 96.736 40.1477 97.3093 40.1477 97.944C40.1477 98.584 40.057 99.16 39.8757 99.672C39.6997 100.184 39.4437 100.621 39.1077 100.984C38.777 101.347 38.3717 101.627 37.8917 101.824C37.417 102.016 36.8837 102.112 36.2917 102.112C35.6997 102.112 35.1637 102.016 34.6837 101.824C34.209 101.627 33.8037 101.347 33.4677 100.984C33.1317 100.621 32.873 100.184 32.6917 99.672C32.5104 99.16 32.4197 98.584 32.4197 97.944C32.4197 97.3093 32.5104 96.736 32.6917 96.224C32.873 95.7066 33.1317 95.2666 33.4677 94.904C33.8037 94.5413 34.209 94.2613 34.6837 94.064C35.1637 93.8666 35.6997 93.768 36.2917 93.768ZM36.2917 101C37.0917 101 37.689 100.733 38.0837 100.2C38.4784 99.6613 38.6757 98.912 38.6757 97.952C38.6757 96.9866 38.4784 96.2346 38.0837 95.696C37.689 95.1573 37.0917 94.888 36.2917 94.888C35.8864 94.888 35.5344 94.9573 35.2357 95.096C34.937 95.2346 34.6864 95.4346 34.4837 95.696C34.2864 95.9573 34.137 96.28 34.0357 96.664C33.9397 97.0426 33.8917 97.472 33.8917 97.952C33.8917 98.432 33.9397 98.8613 34.0357 99.24C34.137 99.6186 34.2864 99.9386 34.4837 100.2C34.6864 100.456 34.937 100.653 35.2357 100.792C35.5344 100.931 35.8864 101 36.2917 101Z" fill="black"/>
<path d="M42.0523 104.744V93.896H42.9003C43.103 93.896 43.231 93.9946 43.2843 94.192L43.4043 95.152C43.751 94.7306 44.1457 94.392 44.5883 94.136C45.0363 93.88 45.551 93.752 46.1323 93.752C46.5963 93.752 47.0177 93.8426 47.3963 94.024C47.775 94.2 48.0977 94.464 48.3643 94.816C48.631 95.1626 48.8363 95.5946 48.9803 96.112C49.1243 96.6293 49.1963 97.224 49.1963 97.896C49.1963 98.4933 49.1163 99.0506 48.9563 99.568C48.7963 100.08 48.567 100.525 48.2683 100.904C47.9697 101.277 47.6017 101.573 47.1643 101.792C46.7323 102.005 46.2443 102.112 45.7003 102.112C45.199 102.112 44.7697 102.029 44.4123 101.864C44.0603 101.699 43.7483 101.464 43.4763 101.16V104.744H42.0523ZM45.6603 94.904C45.1963 94.904 44.7883 95.0106 44.4363 95.224C44.0897 95.4373 43.7697 95.7386 43.4763 96.128V100.048C43.7377 100.4 44.023 100.648 44.3323 100.792C44.647 100.936 44.9963 101.008 45.3803 101.008C46.1323 101.008 46.711 100.739 47.1163 100.2C47.5217 99.6613 47.7243 98.8933 47.7243 97.896C47.7243 97.368 47.6763 96.9146 47.5803 96.536C47.4897 96.1573 47.3563 95.848 47.1803 95.608C47.0043 95.3626 46.7883 95.184 46.5323 95.072C46.2763 94.96 45.9857 94.904 45.6603 94.904Z" fill="black"/>
<path d="M56.9825 102H56.3505C56.2118 102 56.0998 101.979 56.0145 101.936C55.9291 101.893 55.8731 101.803 55.8465 101.664L55.6865 100.912C55.4731 101.104 55.2651 101.277 55.0625 101.432C54.8598 101.581 54.6465 101.709 54.4225 101.816C54.1985 101.917 53.9585 101.995 53.7025 102.048C53.4518 102.101 53.1718 102.128 52.8625 102.128C52.5478 102.128 52.2518 102.085 51.9745 102C51.7025 101.909 51.4651 101.776 51.2625 101.6C51.0598 101.424 50.8971 101.203 50.7745 100.936C50.6571 100.664 50.5985 100.344 50.5985 99.976C50.5985 99.656 50.6865 99.3493 50.8625 99.056C51.0385 98.7573 51.3211 98.4933 51.7105 98.264C52.1051 98.0346 52.6198 97.848 53.2545 97.704C53.8891 97.5546 54.6651 97.4693 55.5825 97.448V96.816C55.5825 96.1866 55.4465 95.712 55.1745 95.392C54.9078 95.0666 54.5105 94.904 53.9825 94.904C53.6358 94.904 53.3425 94.9493 53.1025 95.04C52.8678 95.1253 52.6625 95.224 52.4865 95.336C52.3158 95.4426 52.1665 95.5413 52.0385 95.632C51.9158 95.7173 51.7931 95.76 51.6705 95.76C51.5745 95.76 51.4891 95.736 51.4145 95.688C51.3451 95.6346 51.2891 95.5706 51.2465 95.496L50.9905 95.04C51.4385 94.608 51.9211 94.2853 52.4385 94.072C52.9558 93.8586 53.5291 93.752 54.1585 93.752C54.6118 93.752 55.0145 93.8266 55.3665 93.976C55.7185 94.1253 56.0145 94.3333 56.2545 94.6C56.4945 94.8666 56.6758 95.1893 56.7985 95.568C56.9211 95.9466 56.9825 96.3626 56.9825 96.816V102ZM53.2865 101.128C53.5371 101.128 53.7665 101.104 53.9745 101.056C54.1825 101.003 54.3771 100.931 54.5585 100.84C54.7451 100.744 54.9211 100.629 55.0865 100.496C55.2571 100.363 55.4225 100.211 55.5825 100.04V98.352C54.9265 98.3733 54.3691 98.4266 53.9105 98.512C53.4518 98.592 53.0785 98.6986 52.7905 98.832C52.5025 98.9653 52.2918 99.1226 52.1585 99.304C52.0305 99.4853 51.9665 99.688 51.9665 99.912C51.9665 100.125 52.0011 100.309 52.0705 100.464C52.1398 100.619 52.2331 100.747 52.3505 100.848C52.4678 100.944 52.6065 101.016 52.7665 101.064C52.9265 101.107 53.0998 101.128 53.2865 101.128Z" fill="black"/>
<path d="M63.9298 95.232C63.8658 95.3493 63.7672 95.408 63.6338 95.408C63.5538 95.408 63.4632 95.3786 63.3618 95.32C63.2605 95.2613 63.1352 95.1973 62.9858 95.128C62.8418 95.0533 62.6685 94.9866 62.4658 94.928C62.2632 94.864 62.0232 94.832 61.7458 94.832C61.5058 94.832 61.2898 94.864 61.0978 94.928C60.9058 94.9866 60.7405 95.0693 60.6018 95.176C60.4685 95.2826 60.3645 95.408 60.2898 95.552C60.2205 95.6906 60.1858 95.8426 60.1858 96.008C60.1858 96.216 60.2445 96.3893 60.3618 96.528C60.4845 96.6666 60.6445 96.7866 60.8418 96.888C61.0392 96.9893 61.2632 97.08 61.5138 97.16C61.7645 97.2346 62.0205 97.3173 62.2818 97.408C62.5485 97.4933 62.8072 97.5893 63.0578 97.696C63.3085 97.8026 63.5325 97.936 63.7298 98.096C63.9272 98.256 64.0845 98.4533 64.2018 98.688C64.3245 98.9173 64.3858 99.1946 64.3858 99.52C64.3858 99.8933 64.3192 100.24 64.1858 100.56C64.0525 100.875 63.8552 101.149 63.5938 101.384C63.3325 101.613 63.0125 101.795 62.6338 101.928C62.2552 102.061 61.8178 102.128 61.3218 102.128C60.7565 102.128 60.2445 102.037 59.7858 101.856C59.3272 101.669 58.9378 101.432 58.6178 101.144L58.9538 100.6C58.9965 100.531 59.0472 100.477 59.1058 100.44C59.1645 100.403 59.2418 100.384 59.3378 100.384C59.4338 100.384 59.5352 100.421 59.6418 100.496C59.7485 100.571 59.8765 100.653 60.0258 100.744C60.1805 100.835 60.3645 100.917 60.5778 100.992C60.7965 101.067 61.0685 101.104 61.3938 101.104C61.6712 101.104 61.9138 101.069 62.1218 101C62.3298 100.925 62.5032 100.827 62.6418 100.704C62.7805 100.581 62.8818 100.44 62.9458 100.28C63.0152 100.12 63.0498 99.9493 63.0498 99.768C63.0498 99.544 62.9885 99.36 62.8658 99.216C62.7485 99.0666 62.5912 98.9413 62.3938 98.84C62.1965 98.7333 61.9698 98.6426 61.7138 98.568C61.4632 98.488 61.2045 98.4053 60.9378 98.32C60.6765 98.2346 60.4178 98.1386 60.1618 98.032C59.9112 97.92 59.6872 97.7813 59.4898 97.616C59.2925 97.4506 59.1325 97.248 59.0098 97.008C58.8925 96.7626 58.8338 96.4666 58.8338 96.12C58.8338 95.8106 58.8978 95.5146 59.0258 95.232C59.1538 94.944 59.3405 94.6933 59.5858 94.48C59.8312 94.2613 60.1325 94.088 60.4898 93.96C60.8472 93.832 61.2552 93.768 61.7138 93.768C62.2472 93.768 62.7245 93.8533 63.1458 94.024C63.5725 94.1893 63.9405 94.4186 64.2498 94.712L63.9298 95.232Z" fill="black"/>
<path d="M71.9971 104.392C71.9491 104.499 71.8878 104.584 71.8131 104.648C71.7438 104.712 71.6344 104.744 71.4851 104.744H70.4291L71.9091 101.528L68.5651 93.896H69.7971C69.9198 93.896 70.0158 93.928 70.0851 93.992C70.1544 94.0506 70.2051 94.1173 70.2371 94.192L72.4051 99.296C72.4531 99.4133 72.4931 99.5306 72.5251 99.648C72.5624 99.7653 72.5944 99.8853 72.6211 100.008C72.6584 99.8853 72.6958 99.7653 72.7331 99.648C72.7704 99.5306 72.8131 99.4106 72.8611 99.288L74.9651 94.192C74.9971 94.1066 75.0504 94.0373 75.1251 93.984C75.2051 93.9253 75.2904 93.896 75.3811 93.896H76.5171L71.9971 104.392Z" fill="black"/>
<path d="M31.071 111.336C31.0283 111.395 30.9856 111.44 30.943 111.472C30.9003 111.504 30.839 111.52 30.759 111.52C30.679 111.52 30.591 111.488 30.495 111.424C30.4043 111.355 30.287 111.28 30.143 111.2C29.999 111.12 29.823 111.048 29.615 110.984C29.4123 110.915 29.1616 110.88 28.863 110.88C28.4683 110.88 28.119 110.952 27.815 111.096C27.511 111.235 27.255 111.437 27.047 111.704C26.8443 111.971 26.6896 112.293 26.583 112.672C26.4816 113.051 26.431 113.475 26.431 113.944C26.431 114.435 26.487 114.872 26.599 115.256C26.711 115.635 26.8683 115.955 27.071 116.216C27.2736 116.472 27.519 116.669 27.807 116.808C28.1003 116.941 28.4283 117.008 28.791 117.008C29.1376 117.008 29.423 116.968 29.647 116.888C29.871 116.803 30.0576 116.709 30.207 116.608C30.3563 116.507 30.479 116.416 30.575 116.336C30.671 116.251 30.767 116.208 30.863 116.208C30.9856 116.208 31.0763 116.253 31.135 116.344L31.535 116.864C31.183 117.296 30.743 117.613 30.215 117.816C29.687 118.013 29.1296 118.112 28.543 118.112C28.0363 118.112 27.5643 118.019 27.127 117.832C26.695 117.645 26.319 117.376 25.999 117.024C25.679 116.667 25.4256 116.229 25.239 115.712C25.0576 115.195 24.967 114.605 24.967 113.944C24.967 113.341 25.0496 112.784 25.215 112.272C25.3856 111.76 25.631 111.32 25.951 110.952C26.2763 110.579 26.6763 110.288 27.151 110.08C27.6256 109.872 28.1696 109.768 28.783 109.768C29.3483 109.768 29.8496 109.861 30.287 110.048C30.7243 110.229 31.111 110.488 31.447 110.824L31.071 111.336Z" fill="black"/>
<path d="M33.1617 118V109.896H33.9777C34.1324 109.896 34.239 109.925 34.2977 109.984C34.3564 110.043 34.3964 110.144 34.4177 110.288L34.5137 111.552C34.791 110.987 35.1324 110.547 35.5377 110.232C35.9484 109.912 36.4284 109.752 36.9777 109.752C37.2017 109.752 37.4044 109.779 37.5857 109.832C37.767 109.88 37.935 109.949 38.0897 110.04L37.9057 111.104C37.8684 111.237 37.7857 111.304 37.6577 111.304C37.583 111.304 37.4684 111.28 37.3137 111.232C37.159 111.179 36.943 111.152 36.6657 111.152C36.1697 111.152 35.7537 111.296 35.4177 111.584C35.087 111.872 34.8097 112.291 34.5857 112.84V118H33.1617Z" fill="black"/>
<path d="M42.9728 109.768C43.4582 109.768 43.9062 109.851 44.3168 110.016C44.7275 110.176 45.0822 110.411 45.3808 110.72C45.6795 111.024 45.9115 111.403 46.0768 111.856C46.2475 112.304 46.3328 112.816 46.3328 113.392C46.3328 113.616 46.3088 113.765 46.2608 113.84C46.2128 113.915 46.1222 113.952 45.9888 113.952H40.5968C40.6075 114.464 40.6768 114.909 40.8048 115.288C40.9328 115.667 41.1088 115.984 41.3328 116.24C41.5568 116.491 41.8235 116.68 42.1328 116.808C42.4422 116.931 42.7888 116.992 43.1728 116.992C43.5302 116.992 43.8368 116.952 44.0928 116.872C44.3542 116.787 44.5782 116.696 44.7648 116.6C44.9515 116.504 45.1062 116.416 45.2288 116.336C45.3568 116.251 45.4662 116.208 45.5568 116.208C45.6742 116.208 45.7648 116.253 45.8288 116.344L46.2288 116.864C46.0528 117.077 45.8422 117.264 45.5968 117.424C45.3515 117.579 45.0875 117.707 44.8048 117.808C44.5275 117.909 44.2395 117.984 43.9408 118.032C43.6422 118.085 43.3462 118.112 43.0528 118.112C42.4928 118.112 41.9755 118.019 41.5008 117.832C41.0315 117.64 40.6235 117.363 40.2768 117C39.9355 116.632 39.6688 116.179 39.4768 115.64C39.2848 115.101 39.1888 114.483 39.1888 113.784C39.1888 113.219 39.2742 112.691 39.4448 112.2C39.6208 111.709 39.8715 111.285 40.1968 110.928C40.5222 110.565 40.9195 110.283 41.3888 110.08C41.8582 109.872 42.3862 109.768 42.9728 109.768ZM43.0048 110.816C42.3168 110.816 41.7755 111.016 41.3808 111.416C40.9862 111.811 40.7408 112.36 40.6448 113.064H45.0528C45.0528 112.733 45.0075 112.432 44.9168 112.16C44.8262 111.883 44.6928 111.645 44.5168 111.448C44.3408 111.245 44.1248 111.091 43.8688 110.984C43.6182 110.872 43.3302 110.816 43.0048 110.816Z" fill="black"/>
<path d="M48.3055 118V109.896H49.1535C49.3561 109.896 49.4841 109.995 49.5375 110.192L49.6415 111.024C49.9401 110.656 50.2735 110.355 50.6415 110.12C51.0148 109.885 51.4468 109.768 51.9375 109.768C52.4868 109.768 52.9295 109.92 53.2655 110.224C53.6068 110.528 53.8521 110.939 54.0015 111.456C54.1135 111.163 54.2601 110.909 54.4415 110.696C54.6281 110.483 54.8361 110.307 55.0655 110.168C55.2948 110.029 55.5375 109.928 55.7935 109.864C56.0548 109.8 56.3188 109.768 56.5855 109.768C57.0121 109.768 57.3908 109.837 57.7215 109.976C58.0575 110.109 58.3401 110.307 58.5695 110.568C58.8041 110.829 58.9828 111.152 59.1055 111.536C59.2281 111.915 59.2895 112.349 59.2895 112.84V118H57.8655V112.84C57.8655 112.205 57.7268 111.725 57.4495 111.4C57.1721 111.069 56.7695 110.904 56.2415 110.904C56.0068 110.904 55.7828 110.947 55.5695 111.032C55.3615 111.112 55.1775 111.232 55.0175 111.392C54.8575 111.552 54.7295 111.755 54.6335 112C54.5428 112.24 54.4975 112.52 54.4975 112.84V118H53.0735V112.84C53.0735 112.189 52.9428 111.704 52.6815 111.384C52.4201 111.064 52.0388 110.904 51.5375 110.904C51.1855 110.904 50.8575 111 50.5535 111.192C50.2548 111.379 49.9801 111.635 49.7295 111.96V118H48.3055Z" fill="black"/>
<path d="M67.5481 118H66.9161C66.7774 118 66.6654 117.979 66.5801 117.936C66.4948 117.893 66.4388 117.803 66.4121 117.664L66.2521 116.912C66.0388 117.104 65.8308 117.277 65.6281 117.432C65.4254 117.581 65.2121 117.709 64.9881 117.816C64.7641 117.917 64.5241 117.995 64.2681 118.048C64.0174 118.101 63.7374 118.128 63.4281 118.128C63.1134 118.128 62.8174 118.085 62.5401 118C62.2681 117.909 62.0308 117.776 61.8281 117.6C61.6254 117.424 61.4628 117.203 61.3401 116.936C61.2228 116.664 61.1641 116.344 61.1641 115.976C61.1641 115.656 61.2521 115.349 61.4281 115.056C61.6041 114.757 61.8868 114.493 62.2761 114.264C62.6708 114.035 63.1854 113.848 63.8201 113.704C64.4548 113.555 65.2308 113.469 66.1481 113.448V112.816C66.1481 112.187 66.0121 111.712 65.7401 111.392C65.4734 111.067 65.0761 110.904 64.5481 110.904C64.2014 110.904 63.9081 110.949 63.6681 111.04C63.4334 111.125 63.2281 111.224 63.0521 111.336C62.8814 111.443 62.7321 111.541 62.6041 111.632C62.4814 111.717 62.3587 111.76 62.2361 111.76C62.1401 111.76 62.0548 111.736 61.9801 111.688C61.9108 111.635 61.8548 111.571 61.8121 111.496L61.5561 111.04C62.0041 110.608 62.4868 110.285 63.0041 110.072C63.5214 109.859 64.0948 109.752 64.7241 109.752C65.1774 109.752 65.5801 109.827 65.9321 109.976C66.2841 110.125 66.5801 110.333 66.8201 110.6C67.0601 110.867 67.2414 111.189 67.3641 111.568C67.4868 111.947 67.5481 112.363 67.5481 112.816V118ZM63.8521 117.128C64.1028 117.128 64.3321 117.104 64.5401 117.056C64.7481 117.003 64.9428 116.931 65.1241 116.84C65.3108 116.744 65.4868 116.629 65.6521 116.496C65.8228 116.363 65.9881 116.211 66.1481 116.04V114.352C65.4921 114.373 64.9348 114.427 64.4761 114.512C64.0174 114.592 63.6441 114.699 63.3561 114.832C63.0681 114.965 62.8574 115.123 62.7241 115.304C62.5961 115.485 62.5321 115.688 62.5321 115.912C62.5321 116.125 62.5668 116.309 62.6361 116.464C62.7054 116.619 62.7988 116.747 62.9161 116.848C63.0334 116.944 63.1721 117.016 63.3321 117.064C63.4921 117.107 63.6654 117.128 63.8521 117.128Z" fill="black"/>
<path d="M74.4955 111.232C74.4315 111.349 74.3328 111.408 74.1995 111.408C74.1195 111.408 74.0288 111.379 73.9275 111.32C73.8261 111.261 73.7008 111.197 73.5515 111.128C73.4075 111.053 73.2341 110.987 73.0315 110.928C72.8288 110.864 72.5888 110.832 72.3115 110.832C72.0715 110.832 71.8555 110.864 71.6635 110.928C71.4715 110.987 71.3061 111.069 71.1675 111.176C71.0341 111.283 70.9301 111.408 70.8555 111.552C70.7861 111.691 70.7515 111.843 70.7515 112.008C70.7515 112.216 70.8101 112.389 70.9275 112.528C71.0501 112.667 71.2101 112.787 71.4075 112.888C71.6048 112.989 71.8288 113.08 72.0795 113.16C72.3301 113.235 72.5861 113.317 72.8475 113.408C73.1141 113.493 73.3728 113.589 73.6235 113.696C73.8741 113.803 74.0981 113.936 74.2955 114.096C74.4928 114.256 74.6501 114.453 74.7675 114.688C74.8901 114.917 74.9515 115.195 74.9515 115.52C74.9515 115.893 74.8848 116.24 74.7515 116.56C74.6181 116.875 74.4208 117.149 74.1595 117.384C73.8981 117.613 73.5781 117.795 73.1995 117.928C72.8208 118.061 72.3835 118.128 71.8875 118.128C71.3221 118.128 70.8101 118.037 70.3515 117.856C69.8928 117.669 69.5035 117.432 69.1835 117.144L69.5195 116.6C69.5621 116.531 69.6128 116.477 69.6715 116.44C69.7301 116.403 69.8075 116.384 69.9035 116.384C69.9995 116.384 70.1008 116.421 70.2075 116.496C70.3141 116.571 70.4421 116.653 70.5915 116.744C70.7461 116.835 70.9301 116.917 71.1435 116.992C71.3621 117.067 71.6341 117.104 71.9595 117.104C72.2368 117.104 72.4795 117.069 72.6875 117C72.8955 116.925 73.0688 116.827 73.2075 116.704C73.3461 116.581 73.4475 116.44 73.5115 116.28C73.5808 116.12 73.6155 115.949 73.6155 115.768C73.6155 115.544 73.5541 115.36 73.4315 115.216C73.3141 115.067 73.1568 114.941 72.9595 114.84C72.7621 114.733 72.5355 114.643 72.2795 114.568C72.0288 114.488 71.7701 114.405 71.5035 114.32C71.2421 114.235 70.9835 114.139 70.7275 114.032C70.4768 113.92 70.2528 113.781 70.0555 113.616C69.8581 113.451 69.6981 113.248 69.5755 113.008C69.4581 112.763 69.3995 112.467 69.3995 112.12C69.3995 111.811 69.4635 111.515 69.5915 111.232C69.7195 110.944 69.9061 110.693 70.1515 110.48C70.3968 110.261 70.6981 110.088 71.0555 109.96C71.4128 109.832 71.8208 109.768 72.2795 109.768C72.8128 109.768 73.2901 109.853 73.7115 110.024C74.1381 110.189 74.5061 110.419 74.8155 110.712L74.4955 111.232Z" fill="black"/>
<path d="M48.5 47.8122C65.4712 47.8122 80.6447 50.2572 91 54.0685C88.8426 30.4814 70.6489 12 48.5 12C26.3511 12 8.15736 30.4814 6 54.0685C16.3553 50.1853 31.5288 47.8122 48.5 47.8122Z" fill="#8EC044"/>
<path d="M19.0163 35.5626C18.8724 36.6413 18.8005 37.72 18.8005 38.7987C18.8005 48.2191 24.2659 56.489 32.6076 61.3071V64.687H32.6796C32.8234 67.4916 40.3741 69.7927 49.6508 69.7927C58.9274 69.7927 66.4782 67.4916 66.622 64.687V61.3071C74.9638 56.489 80.4291 48.1472 80.4291 38.7987C80.4291 37.72 80.3572 36.6413 80.2134 35.5626H19.0163Z" fill="url(#paint0_linear)"/>
<path d="M20.8859 41.8188C20.6702 43.329 21.0297 45.2706 21.7489 47.1403C22.468 49.01 23.6186 50.8798 25.0568 52.6776C26.495 54.4754 28.0771 55.9136 29.7311 57.1361C31.3851 58.2867 33.039 59.1496 34.5492 59.4373C33.2548 58.5743 31.9604 57.4238 30.6659 56.0574C29.2996 54.6911 27.9333 53.1809 26.567 51.4551C23.9062 48.0752 21.7489 44.8392 20.8859 41.8188Z" fill="#E7E7E7"/>
<path d="M33.9021 62.0981C37.4258 64.687 43.2507 66.6286 49.6508 66.5567C52.8869 66.5567 55.9791 66.1252 58.6398 65.2623C61.3006 64.3993 63.6737 63.1049 65.1838 61.5228C63.2422 62.4577 60.8691 63.033 58.2084 63.3925C55.6195 63.7521 52.743 63.9678 49.6508 63.9678C43.6102 63.9678 38.073 63.1768 33.9021 62.0981Z" fill="#949494"/>
<path d="M79.9257 35.9221C79.9257 40.4526 66.3343 44.1201 49.5788 44.1201C32.8233 44.1201 19.2319 40.4526 19.2319 35.9221C19.2319 31.3917 32.8233 27.7242 49.5788 27.7242C66.3343 27.6523 79.9257 31.3917 79.9257 35.9221Z" fill="url(#paint1_linear)"/>
<path d="M21.2455 38.8705C25.7759 42.9695 36.7785 45.8459 49.5788 45.8459C62.3792 45.8459 73.3817 42.9695 77.9122 38.8705C73.3817 34.7715 62.3792 31.895 49.5788 31.895C36.7785 31.9669 25.7759 34.8434 21.2455 38.8705Z" fill="url(#paint2_linear)"/>
<path d="M41.2369 37.5761C41.2369 37.8638 40.6616 38.0076 39.8706 38.0076C39.1515 38.0076 38.5043 37.7919 38.5043 37.5761C38.5043 37.2885 39.0796 37.1447 39.8706 37.1447C40.5897 37.0728 41.2369 37.2885 41.2369 37.5761Z" fill="#F6C643"/>
<path d="M33.183 39.5178C33.183 39.8054 32.6077 39.9493 31.8166 39.9493C31.0975 39.9493 30.4503 39.7335 30.4503 39.5178C30.4503 39.2301 31.0256 39.0863 31.8166 39.0863C32.5358 39.0144 33.183 39.2301 33.183 39.5178Z" fill="#F6C643"/>
<path d="M47.2056 40.4526C47.2056 40.7403 46.6303 40.8841 45.8392 40.8841C45.1201 40.8841 44.4729 40.6683 44.4729 40.4526C44.4729 40.165 45.0482 40.0211 45.8392 40.0211C46.6303 39.9492 47.2056 40.165 47.2056 40.4526Z" fill="#F6C643"/>
<path d="M43.4663 40.0211C43.4663 40.3087 42.891 40.4525 42.1 40.4525C41.3089 40.4525 40.7336 40.2368 40.7336 40.0211C40.7336 39.7334 41.3089 39.5896 42.1 39.5896C42.891 39.5896 43.4663 39.8053 43.4663 40.0211Z" fill="#F6C643"/>
<path d="M50.9452 37.5761C50.9452 37.8638 50.3699 38.0076 49.5789 38.0076C48.8597 38.0076 48.2125 37.7919 48.2125 37.5761C48.2125 37.2885 48.7878 37.1447 49.5789 37.1447C50.3699 37.0728 50.9452 37.2885 50.9452 37.5761Z" fill="#F6C643"/>
<path d="M50.0104 41.8189C50.0104 42.1066 49.4351 42.2504 48.644 42.2504C47.9249 42.2504 47.2777 42.0347 47.2777 41.8189C47.2777 41.5313 47.853 41.3875 48.644 41.3875C49.4351 41.3875 50.0104 41.6032 50.0104 41.8189Z" fill="#F6C643"/>
<path d="M44.8326 42.7538C44.8326 43.0414 44.2573 43.1852 43.4663 43.1852C42.7472 43.1852 42.1 42.9695 42.1 42.7538C42.1 42.4661 42.6753 42.3223 43.4663 42.3223C44.2573 42.2504 44.8326 42.4661 44.8326 42.7538Z" fill="#F6C643"/>
<path d="M49.2195 39.2301C49.2195 39.5177 48.6442 39.6616 47.8531 39.6616C47.134 39.6616 46.4868 39.4458 46.4868 39.2301C46.4868 38.9424 47.0621 38.7986 47.8531 38.7986C48.6442 38.7267 49.2195 38.9424 49.2195 39.2301Z" fill="#F6C643"/>
<path d="M54.397 37.7918C54.397 38.0795 53.8217 38.2233 53.0306 38.2233C52.3115 38.2233 51.6643 38.0076 51.6643 37.7918C51.6643 37.5042 52.2396 37.3604 53.0306 37.3604C53.8217 37.2885 54.397 37.5042 54.397 37.7918Z" fill="#F6C643"/>
<path d="M59.2869 43.1134C59.2869 43.401 58.7116 43.5448 57.9205 43.5448C57.2014 43.5448 56.5542 43.3291 56.5542 43.1134C56.5542 42.8257 57.1295 42.6819 57.9205 42.6819C58.7116 42.61 59.2869 42.8257 59.2869 43.1134Z" fill="#F6C643"/>
<path d="M71.5121 41.5313C71.5121 41.819 70.9368 41.9628 70.1457 41.9628C69.4266 41.9628 68.7794 41.7471 68.7794 41.5313C68.7794 41.2437 69.3547 41.0999 70.1457 41.0999C70.9368 41.0999 71.5121 41.3156 71.5121 41.5313Z" fill="#F6C643"/>
<path d="M40.446 43.4729C40.446 43.7605 39.8707 43.9043 39.0797 43.9043C38.3606 43.9043 37.7134 43.6886 37.7134 43.4729C37.7134 43.1852 38.2887 43.0414 39.0797 43.0414C39.8707 42.9695 40.446 43.1852 40.446 43.4729Z" fill="#F6C643"/>
<path d="M31.8884 41.0998C31.8884 41.3875 31.3131 41.5313 30.5221 41.5313C29.803 41.5313 29.1558 41.3156 29.1558 41.0998C29.1558 40.8122 29.7311 40.6684 30.5221 40.6684C31.3131 40.5964 31.8884 40.8122 31.8884 41.0998Z" fill="#F6C643"/>
<path d="M57.4892 39.5897C57.4892 39.8773 56.9139 40.0212 56.1229 40.0212C55.4038 40.0212 54.7566 39.8054 54.7566 39.5897C54.7566 39.302 55.3319 39.1582 56.1229 39.1582C56.842 39.0863 57.4892 39.302 57.4892 39.5897Z" fill="#F6C643"/>
<path d="M62.595 41.0279C62.595 41.3156 62.0197 41.4594 61.2286 41.4594C60.5095 41.4594 59.8623 41.2437 59.8623 41.0279C59.8623 40.7403 60.4376 40.5965 61.2286 40.5965C61.9478 40.5245 62.595 40.7403 62.595 41.0279Z" fill="#F6C643"/>
<path d="M51.233 39.9492C51.233 40.2368 50.6577 40.3807 49.8667 40.3807C49.1476 40.3807 48.5004 40.1649 48.5004 39.9492C48.5004 39.6615 49.0757 39.5177 49.8667 39.5177C50.5858 39.4458 51.233 39.6615 51.233 39.9492Z" fill="#F6C643"/>
<path d="M60.0061 36.3536C60.0061 36.6413 59.4308 36.7851 58.6398 36.7851C57.9206 36.7851 57.2734 36.5693 57.2734 36.3536C57.2734 36.066 57.8487 35.9221 58.6398 35.9221C59.3589 35.8502 60.0061 36.066 60.0061 36.3536Z" fill="#F6C643"/>
<path d="M57.1297 41.0279C57.1297 41.3156 56.5545 41.4594 55.7634 41.4594C55.0443 41.4594 54.3971 41.2437 54.3971 41.0279C54.3971 40.7403 54.9724 40.5965 55.7634 40.5965C56.4825 40.5245 57.1297 40.7403 57.1297 41.0279Z" fill="#F6C643"/>
<path d="M53.4622 39.3738C53.4622 39.5896 53.0308 39.7334 52.5274 39.7334C52.024 39.7334 51.5925 39.5896 51.5925 39.3738C51.5925 39.23 52.024 39.0143 52.5274 39.0143C53.0308 39.0862 53.4622 39.23 53.4622 39.3738Z" fill="#F6C643"/>
<path d="M39.4394 40.8122C39.4394 41.0279 39.0079 41.1718 38.5046 41.1718C38.0012 41.1718 37.5697 41.0279 37.5697 40.8122C37.5697 40.6684 38.0012 40.4526 38.5046 40.4526C39.0079 40.4526 39.4394 40.5965 39.4394 40.8122Z" fill="#F6C643"/>
<path d="M56.5543 37.0728C56.5543 37.2166 56.1228 37.4324 55.6194 37.4324C55.116 37.4324 54.6846 37.2886 54.6846 37.0728C54.6846 36.8571 55.116 36.7133 55.6194 36.7133C56.1228 36.7852 56.5543 36.929 56.5543 37.0728Z" fill="#F6C643"/>
<path d="M63.8895 38.9424C63.8895 39.0863 63.458 39.302 62.9546 39.302C62.4512 39.302 62.0198 39.1582 62.0198 38.9424C62.0198 38.7986 62.4512 38.5829 62.9546 38.5829C63.458 38.6548 63.8895 38.7986 63.8895 38.9424Z" fill="#F6C643"/>
<path d="M60.5814 38.7267C60.5814 38.8706 60.1499 39.0863 59.6465 39.0863C59.1431 39.0863 58.7117 38.9425 58.7117 38.7267C58.7117 38.5829 59.1431 38.3672 59.6465 38.3672C60.1499 38.4391 60.5814 38.5829 60.5814 38.7267Z" fill="#F6C643"/>
<path d="M61.5162 42.7538C61.5162 42.8977 61.0847 43.1134 60.5813 43.1134C60.078 43.1134 59.6465 42.9696 59.6465 42.7538C59.6465 42.61 60.078 42.3943 60.5813 42.3943C61.0847 42.3943 61.5162 42.5381 61.5162 42.7538Z" fill="#F6C643"/>
<path d="M61.732 37.4323C61.732 37.5761 61.3005 37.7919 60.7972 37.7919C60.2938 37.7919 59.8623 37.6481 59.8623 37.4323C59.8623 37.2885 60.2938 37.0728 60.7972 37.0728C61.3005 37.0728 61.732 37.2166 61.732 37.4323Z" fill="#F6C643"/>
<path d="M45.4798 38.0076C45.4798 38.1515 45.0483 38.3672 44.545 38.3672C44.0416 38.3672 43.6101 38.2234 43.6101 38.0076C43.6101 37.8638 44.0416 37.6481 44.545 37.6481C45.0483 37.72 45.4798 37.8638 45.4798 38.0076Z" fill="#F6C643"/>
<path d="M34.1178 37.1446C34.1178 37.2884 33.6863 37.5042 33.1829 37.5042C32.6795 37.5042 32.248 37.3603 32.248 37.1446C32.248 36.9289 32.6795 36.785 33.1829 36.785C33.6863 36.785 34.1178 36.9289 34.1178 37.1446Z" fill="#F6C643"/>
<path d="M71.9434 38.9424C71.9434 39.0863 71.512 39.302 71.0086 39.302C70.5052 39.302 70.0737 39.1582 70.0737 38.9424C70.0737 38.7986 70.5052 38.5829 71.0086 38.5829C71.512 38.6548 71.9434 38.7986 71.9434 38.9424Z" fill="#F6C643"/>
<path d="M66.622 36.7851C66.622 36.9289 66.1906 37.1447 65.6872 37.1447C65.1838 37.1447 64.7523 37.0008 64.7523 36.7851C64.7523 36.5694 65.1838 36.4255 65.6872 36.4255C66.1906 36.4255 66.622 36.6413 66.622 36.7851Z" fill="#F6C643"/>
<path d="M49.4351 44.192C49.4351 44.4796 48.8598 44.6235 48.0687 44.6235C47.3496 44.6235 46.7024 44.4077 46.7024 44.192C46.7024 43.9043 47.2777 43.7605 48.0687 43.7605C48.8598 43.6886 49.4351 43.9043 49.4351 44.192Z" fill="#F6C643"/>
<path d="M54.8284 43.5449C54.8284 43.8325 54.2531 43.9763 53.462 43.9763C52.671 43.9763 52.0957 43.7606 52.0957 43.5449C52.0957 43.2572 52.671 43.1134 53.462 43.1134C54.2531 43.1134 54.8284 43.3291 54.8284 43.5449Z" fill="#F6C643"/>
<path d="M57.4172 38.5109C57.4172 38.6547 57.1296 38.7266 56.77 38.7266C56.4105 38.7266 56.1228 38.6547 56.1228 38.5109C56.1228 38.3671 56.4105 38.2952 56.77 38.2952C57.1296 38.2952 57.4172 38.439 57.4172 38.5109Z" fill="#F6C643"/>
<path d="M65.1119 42.0346C65.1119 42.1784 64.8243 42.2503 64.4647 42.2503C64.1052 42.2503 63.8175 42.1784 63.8175 42.0346C63.8175 41.8908 64.1052 41.8188 64.4647 41.8188C64.8243 41.8188 65.1119 41.8908 65.1119 42.0346Z" fill="#F6C643"/>
<path d="M45.9112 35.5625C45.9112 35.7064 45.6236 35.7783 45.264 35.7783C44.9045 35.7783 44.6168 35.7064 44.6168 35.5625C44.6168 35.4187 44.9045 35.3468 45.264 35.3468C45.6236 35.3468 45.9112 35.4187 45.9112 35.5625Z" fill="#F6C643"/>
<path d="M49.5788 34.6997C49.5788 34.8436 49.2912 34.9155 48.9316 34.9155C48.5721 34.9155 48.2844 34.8436 48.2844 34.6997C48.2844 34.5559 48.5721 34.484 48.9316 34.484C49.2912 34.484 49.5788 34.5559 49.5788 34.6997Z" fill="#F6C643"/>
<path d="M37.7135 34.5558C37.7135 34.6996 37.4258 34.7716 37.0663 34.7716C36.7067 34.7716 36.4191 34.6996 36.4191 34.5558C36.4191 34.412 36.7067 34.3401 37.0663 34.3401C37.4258 34.3401 37.7135 34.412 37.7135 34.5558Z" fill="#F6C643"/>
<path d="M43.0349 35.1311C43.0349 35.2749 42.7472 35.3468 42.3877 35.3468C42.0281 35.3468 41.7405 35.2749 41.7405 35.1311C41.7405 34.9873 42.0281 34.9154 42.3877 34.9154C42.7472 34.8435 43.0349 34.9873 43.0349 35.1311Z" fill="#F6C643"/>
<path d="M36.4189 36.2816C36.4189 36.4254 36.1313 36.4974 35.7717 36.4974C35.4122 36.4974 35.1245 36.4254 35.1245 36.2816C35.1245 36.1378 35.4122 36.0659 35.7717 36.0659C36.1313 35.994 36.4189 36.1378 36.4189 36.2816Z" fill="#F6C643"/>
<path d="M35.4841 41.0998C35.4841 41.2436 35.1965 41.3155 34.8369 41.3155C34.4773 41.3155 34.1897 41.2436 34.1897 41.0998C34.1897 40.9559 34.4773 40.884 34.8369 40.884C35.1965 40.884 35.4841 40.9559 35.4841 41.0998Z" fill="#F6C643"/>
<path d="M36.0594 38.5829C36.0594 38.7267 35.7718 38.7987 35.4122 38.7987C35.0527 38.7987 34.765 38.7267 34.765 38.5829C34.765 38.4391 35.0527 38.3672 35.4122 38.3672C35.7718 38.3672 36.0594 38.4391 36.0594 38.5829Z" fill="#F6C643"/>
<path d="M50.5857 36.1379C50.5857 36.2817 50.298 36.3536 49.9385 36.3536C49.5789 36.3536 49.2913 36.2817 49.2913 36.1379C49.2913 35.994 49.5789 35.9221 49.9385 35.9221C50.298 35.9221 50.5857 35.994 50.5857 36.1379Z" fill="#F6C643"/>
<path d="M46.3428 36.4256C46.3428 36.5694 46.0551 36.6413 45.6955 36.6413C45.336 36.6413 45.0483 36.5694 45.0483 36.4256C45.0483 36.2818 45.336 36.2098 45.6955 36.2098C46.0551 36.2098 46.3428 36.3537 46.3428 36.4256Z" fill="#F6C643"/>
<path d="M28.5805 37.2885C28.5805 37.4323 28.2929 37.5042 27.9333 37.5042C27.5738 37.5042 27.2861 37.4323 27.2861 37.2885C27.2861 37.1447 27.5738 37.0728 27.9333 37.0728C28.2929 37.0728 28.5805 37.2166 28.5805 37.2885Z" fill="#F6C643"/>
<path d="M25.5603 38.1514C25.5603 38.2952 25.2726 38.3671 24.9131 38.3671C24.5535 38.3671 24.2659 38.2952 24.2659 38.1514C24.2659 38.0076 24.5535 37.9357 24.9131 37.9357C25.2726 37.9357 25.5603 38.0795 25.5603 38.1514Z" fill="#F6C643"/>
<path d="M68.4198 35.8503C68.4198 35.9941 68.1321 36.066 67.7726 36.066C67.413 36.066 67.1254 35.9941 67.1254 35.8503C67.1254 35.7064 67.413 35.6345 67.7726 35.6345C68.1321 35.6345 68.4198 35.7064 68.4198 35.8503Z" fill="#F6C643"/>
<path d="M70.7208 37.7918C70.7208 37.9356 70.4332 38.0075 70.0736 38.0075C69.714 38.0075 69.4264 37.9356 69.4264 37.7918C69.4264 37.648 69.714 37.576 70.0736 37.576C70.4332 37.576 70.7208 37.648 70.7208 37.7918Z" fill="#F6C643"/>
<path d="M74.3884 37.8638C74.3884 38.0076 74.1008 38.0795 73.7412 38.0795C73.3816 38.0795 73.094 38.0076 73.094 37.8638C73.094 37.72 73.3816 37.6481 73.7412 37.6481C74.1008 37.6481 74.3884 37.7919 74.3884 37.8638Z" fill="#F6C643"/>
<path d="M29.0119 38.9425C29.0119 39.0864 28.7243 39.1583 28.3647 39.1583C28.0052 39.1583 27.7175 39.0864 27.7175 38.9425C27.7175 38.7987 28.0052 38.7268 28.3647 38.7268C28.7243 38.7268 29.0119 38.7987 29.0119 38.9425Z" fill="#F6C643"/>
<path d="M67.9884 38.2952C67.9884 38.439 67.7007 38.5109 67.3412 38.5109C66.9816 38.5109 66.694 38.439 66.694 38.2952C66.694 38.1514 66.9816 38.0795 67.3412 38.0795C67.7007 38.0795 67.9884 38.1514 67.9884 38.2952Z" fill="#F6C643"/>
<path d="M65.3994 40.8841C65.3994 41.0279 65.1117 41.0998 64.7522 41.0998C64.3926 41.0998 64.105 41.0279 64.105 40.8841C64.105 40.7402 64.3926 40.6683 64.7522 40.6683C65.0398 40.6683 65.3994 40.7402 65.3994 40.8841Z" fill="#F6C643"/>
<path d="M71.2961 36.7852C71.2961 36.929 71.0085 37.0009 70.6489 37.0009C70.2894 37.0009 70.0017 36.929 70.0017 36.7852C70.0017 36.6414 70.2894 36.5695 70.6489 36.5695C71.0085 36.5695 71.2961 36.6414 71.2961 36.7852Z" fill="#F6C643"/>
<path d="M30.2346 38.3672C29.1559 38.3672 28.221 38.6548 27.7896 39.0863C28.1491 39.5178 29.084 39.8054 30.2346 39.8054C31.3132 39.8054 32.2481 39.5178 32.6796 39.0863C32.2481 38.6548 31.3132 38.3672 30.2346 38.3672Z" fill="#3F8834"/>
<path d="M32.32 37.2884C31.9604 36.5693 31.3851 36.1378 30.8817 36.0659C30.666 36.4974 30.7379 37.2165 31.0975 37.8637C31.457 38.5828 32.0323 39.0143 32.5357 39.0862C32.7514 38.7267 32.6795 38.0075 32.32 37.2884Z" fill="#3F8834"/>
<path d="M33.9739 38.2233C34.4053 37.5761 34.5492 36.857 34.4053 36.4255C33.902 36.4255 33.3267 36.7851 32.8952 37.4323C32.4637 38.0795 32.3199 38.7986 32.4637 39.2301C32.8952 39.2301 33.4705 38.7986 33.9739 38.2233Z" fill="#3F8834"/>
<path d="M57.8486 36.929C56.9137 36.4256 55.9069 36.2099 55.4036 36.3537C55.5474 36.929 56.2665 37.5762 57.2014 38.1515C58.1362 38.6549 59.143 38.8706 59.6464 38.7268C59.5026 38.1515 58.8553 37.4324 57.8486 36.929Z" fill="#3F8834"/>
<path d="M60.2217 37.0009C60.2217 36.2099 59.934 35.5627 59.5745 35.275C59.2149 35.5627 58.9273 36.2099 58.8553 37.0009C58.8553 37.7919 59.143 38.4392 59.5026 38.7268C59.934 38.4392 60.2217 37.7919 60.2217 37.0009Z" fill="#3F8834"/>
<path d="M61.2285 38.5829C61.9476 38.2233 62.3791 37.72 62.451 37.2166C62.0195 37.0008 61.3004 37.0008 60.5813 37.3604C59.8622 37.72 59.4307 38.2233 59.3588 38.7267C59.7902 38.9425 60.5094 38.8705 61.2285 38.5829Z" fill="#3F8834"/>
<path d="M37.7854 42.2504H49.0756C49.0756 42.2504 47.4216 44.1201 43.826 44.192C39.5113 44.3358 37.7854 42.2504 37.7854 42.2504Z" fill="#C55B03"/>
<path d="M49.0037 41.9628C48.8599 41.6751 48.7161 41.4594 48.5003 41.1717C48.3565 40.8841 48.2846 40.5245 48.0689 40.3088C47.8531 40.0931 47.7093 39.8054 47.4936 39.5897C47.2778 39.3739 47.0621 39.1582 46.7744 38.9425C46.4868 38.7986 46.1272 38.8706 45.9115 38.7267C45.6238 38.5829 45.48 38.1514 45.1924 38.0076C44.9047 37.9357 44.5452 37.9357 44.2575 37.8638C43.9699 37.7919 43.6103 37.7919 43.3227 37.7919C43.035 37.7919 42.7474 37.9357 42.3878 38.0076C42.1002 38.0795 41.7406 37.9357 41.4529 38.0076C41.1653 38.0795 40.9496 38.3672 40.6619 38.511C40.3743 38.6548 40.2304 38.9425 39.9428 39.1582C39.6551 39.302 39.2237 39.2301 39.0079 39.4458C38.7922 39.6616 38.5765 39.9492 38.3607 40.2369C38.145 40.4526 38.0731 40.8122 37.8573 41.0998C37.7135 41.3875 37.7854 41.8189 37.7135 42.1066C37.7135 42.1785 37.6416 42.2504 37.5697 42.3223H49.1475C49.0756 42.1785 49.0756 42.1066 49.0037 41.9628Z" fill="url(#paint3_radial)"/>
<path d="M41.8844 39.8054C41.8844 40.093 41.5967 40.3088 41.3091 40.3088C40.9495 40.3088 40.7338 40.093 40.7338 39.8054C40.7338 39.5177 41.0214 39.302 41.3091 39.302C41.5967 39.302 41.8844 39.5897 41.8844 39.8054Z" fill="#50270E"/>
<path d="M40.59 40.8121C40.59 41.0997 40.3024 41.3155 40.0147 41.3155C39.6552 41.3155 39.4395 41.0997 39.4395 40.8121C39.4395 40.5245 39.7271 40.3087 40.0147 40.3087C40.3024 40.3087 40.59 40.5245 40.59 40.8121Z" fill="#50270E"/>
<path d="M44.2574 40.2368C44.2574 40.5244 43.9698 40.7402 43.6821 40.7402C43.3225 40.7402 43.1068 40.5244 43.1068 40.2368C43.1068 39.9491 43.3945 39.7334 43.6821 39.7334C43.9698 39.7334 44.2574 40.021 44.2574 40.2368Z" fill="#50270E"/>
<path d="M44.0416 38.5829C44.0416 38.8705 43.7539 39.0862 43.4663 39.0862C43.1067 39.0862 42.891 38.8705 42.891 38.5829C42.891 38.2952 43.1786 38.0795 43.4663 38.0795C43.7539 38.0795 44.0416 38.3671 44.0416 38.5829Z" fill="#50270E"/>
<path d="M46.1991 40.165C46.1991 40.4527 45.9114 40.6684 45.6238 40.6684C45.2642 40.6684 45.0485 40.4527 45.0485 40.165C45.0485 39.8774 45.3361 39.6616 45.6238 39.6616C45.9114 39.6616 46.1991 39.8774 46.1991 40.165Z" fill="#50270E"/>
<path d="M42.7473 39.6616C42.7473 39.8054 42.6035 39.9492 42.4596 39.9492C42.3158 39.9492 42.172 39.8054 42.172 39.6616C42.172 39.5177 42.3158 39.3739 42.4596 39.3739C42.6035 39.3739 42.7473 39.5177 42.7473 39.6616Z" fill="#50270E"/>
<path d="M45.0487 39.0145C45.0487 39.1583 44.9049 39.3021 44.761 39.3021C44.6172 39.3021 44.4734 39.1583 44.4734 39.0145C44.4734 38.8706 44.6172 38.7268 44.761 38.7268C44.9049 38.7268 45.0487 38.8706 45.0487 39.0145Z" fill="#50270E"/>
<path d="M45.1922 41.2437C45.1922 41.3875 45.0484 41.5314 44.9046 41.5314C44.7608 41.5314 44.6169 41.3875 44.6169 41.2437C44.6169 41.0999 44.7608 40.9561 44.9046 40.9561C45.0484 40.9561 45.1922 41.0999 45.1922 41.2437Z" fill="#50270E"/>
<path d="M41.9564 38.7987C41.9564 38.9425 41.8126 39.0863 41.6687 39.0863C41.5249 39.0863 41.3811 38.9425 41.3811 38.7987C41.3811 38.6548 41.5249 38.511 41.6687 38.511C41.8126 38.4391 41.9564 38.5829 41.9564 38.7987Z" fill="#50270E"/>
<path d="M42.2439 41.3155C42.2439 41.4593 42.1001 41.6031 41.9562 41.6031C41.8124 41.6031 41.6686 41.4593 41.6686 41.3155C41.6686 41.1717 41.8124 41.0278 41.9562 41.0278C42.1001 41.0278 42.2439 41.1717 42.2439 41.3155Z" fill="#50270E"/>
<path d="M48.2126 40.8841C48.2126 41.1718 47.925 41.3875 47.6373 41.3875C47.2777 41.3875 47.062 41.1718 47.062 40.8841C47.062 40.5965 47.3497 40.3807 47.6373 40.3807C47.925 40.3807 48.2126 40.6684 48.2126 40.8841Z" fill="#50270E"/>
<path d="M47.5652 35.4188H54.7564C54.7564 35.4188 53.6777 36.5694 51.3765 36.6413C48.7158 36.6413 47.5652 35.4188 47.5652 35.4188Z" fill="#C55B03"/>
<path d="M54.7562 35.275C54.6843 35.0592 54.5405 34.9154 54.4686 34.7716C54.3967 34.6278 54.3248 34.412 54.1809 34.2682C54.0371 34.1244 53.9652 33.9806 53.8214 33.8367C53.6776 33.6929 53.5337 33.5491 53.3899 33.4772C53.2461 33.4053 52.9584 33.4053 52.8146 33.3334C52.6708 33.2614 52.527 32.9738 52.3831 32.9019C52.1674 32.83 52.0236 32.83 51.8078 32.83C51.5921 32.83 51.4483 32.7581 51.2326 32.7581C51.0168 32.7581 50.873 32.83 50.6573 32.9019C50.4415 32.9019 50.2258 32.83 50.082 32.9019C49.8662 32.9738 49.7224 33.1176 49.5786 33.1895C49.4347 33.2614 49.2909 33.4772 49.1471 33.5491C49.0033 33.621 48.7156 33.621 48.5718 33.6929C48.428 33.8367 48.2842 33.9806 48.2122 34.1963C48.0684 34.3401 47.9965 34.5559 47.9246 34.6997C47.8527 34.8435 47.8527 35.1312 47.7808 35.3469C47.7808 35.4188 47.7089 35.4188 47.7089 35.4907H54.972C54.8282 35.3469 54.7562 35.275 54.7562 35.275Z" fill="url(#paint4_radial)"/>
<path d="M50.1541 33.9086C50.1541 34.0524 50.0102 34.1963 49.7945 34.1963C49.5788 34.1963 49.4349 34.0524 49.4349 33.9086C49.4349 33.7648 49.5788 33.621 49.7945 33.621C50.0102 33.621 50.1541 33.7648 50.1541 33.9086Z" fill="#50270E"/>
<path d="M49.363 34.5559C49.363 34.6997 49.2192 34.8435 49.0035 34.8435C48.7877 34.8435 48.6439 34.6997 48.6439 34.5559C48.6439 34.412 48.7877 34.2682 49.0035 34.2682C49.2192 34.1963 49.363 34.3401 49.363 34.5559Z" fill="#50270E"/>
<path d="M51.7361 34.1962C51.7361 34.3401 51.5923 34.4839 51.3765 34.4839C51.1608 34.4839 51.017 34.3401 51.017 34.1962C51.017 34.0524 51.1608 33.9086 51.3765 33.9086C51.5204 33.8367 51.7361 33.9805 51.7361 34.1962Z" fill="#50270E"/>
<path d="M51.5922 33.1894C51.5922 33.3332 51.4483 33.4771 51.2326 33.4771C51.0169 33.4771 50.873 33.3332 50.873 33.1894C50.873 33.0456 51.0169 32.9018 51.2326 32.9018C51.3764 32.8299 51.5922 32.9737 51.5922 33.1894Z" fill="#50270E"/>
<path d="M52.9585 34.1243C52.9585 34.2681 52.8147 34.412 52.5989 34.412C52.3832 34.412 52.2394 34.2681 52.2394 34.1243C52.2394 33.9805 52.3832 33.8367 52.5989 33.8367C52.8147 33.8367 52.9585 33.9805 52.9585 34.1243Z" fill="#50270E"/>
<path d="M50.7292 33.8367C50.7292 33.9086 50.6573 34.0524 50.5135 34.0524C50.4416 34.0524 50.2977 33.9805 50.2977 33.8367C50.2977 33.6929 50.3696 33.621 50.5135 33.621C50.6573 33.621 50.7292 33.6929 50.7292 33.8367Z" fill="#50270E"/>
<path d="M52.2393 33.4052C52.2393 33.549 52.1674 33.6209 52.0236 33.6209C51.9517 33.6209 51.8079 33.549 51.8079 33.4052C51.8079 33.3333 51.8798 33.1895 52.0236 33.1895C52.1674 33.1895 52.2393 33.3333 52.2393 33.4052Z" fill="#50270E"/>
<path d="M52.3114 34.7715C52.3114 34.9153 52.2394 34.9873 52.0956 34.9873C52.0237 34.9873 51.8799 34.9153 51.8799 34.7715C51.8799 34.6277 51.9518 34.5558 52.0956 34.5558C52.2394 34.5558 52.3114 34.6996 52.3114 34.7715Z" fill="#50270E"/>
<path d="M50.2259 33.2615C50.2259 33.3334 50.154 33.4772 50.0102 33.4772C49.8663 33.4772 49.8663 33.3334 49.8663 33.2615C49.8663 33.1177 49.9382 33.0458 50.0821 33.0458C50.2259 33.0458 50.2259 33.1896 50.2259 33.2615Z" fill="#50270E"/>
<path d="M50.4417 34.8434C50.4417 34.9153 50.3698 35.0592 50.226 35.0592C50.1541 35.0592 50.0103 34.9872 50.0103 34.8434C50.0103 34.6996 50.0822 34.6277 50.226 34.6277C50.3698 34.6277 50.4417 34.6996 50.4417 34.8434Z" fill="#50270E"/>
<path d="M54.2531 34.5557C54.2531 34.6995 54.1092 34.8434 53.8935 34.8434C53.6778 34.8434 53.5339 34.6995 53.5339 34.5557C53.5339 34.4119 53.6778 34.2681 53.8935 34.2681C54.1092 34.2681 54.2531 34.4119 54.2531 34.5557Z" fill="#50270E"/>
<path d="M57.2736 41.0278H66.7659C66.7659 41.0278 65.3996 42.2503 62.3793 42.3223C58.7118 42.3223 57.2736 41.0278 57.2736 41.0278Z" fill="#C55B03"/>
<path d="M66.6222 40.884C66.5503 40.6683 66.3345 40.5245 66.1907 40.3806C66.0469 40.2368 65.975 39.9492 65.8311 39.8053C65.6873 39.6615 65.5435 39.4458 65.3278 39.302C65.112 39.1581 64.9682 39.0143 64.7525 38.8705C64.5367 38.7267 64.2491 38.7986 63.9614 38.7267C63.7457 38.6548 63.6019 38.3671 63.3142 38.2952C63.0985 38.2233 62.8108 38.2233 62.5232 38.2233C62.3074 38.2233 62.0198 38.1514 61.7322 38.1514C61.4445 38.1514 61.2288 38.2233 60.9411 38.2952C60.6535 38.2952 60.3658 38.2233 60.1501 38.2952C59.9344 38.3671 59.7186 38.5109 59.5029 38.6548C59.2871 38.7267 59.1433 38.9424 58.9276 39.0862C58.7118 39.23 58.3523 39.1581 58.1366 39.23C57.9208 39.3739 57.777 39.5896 57.6332 39.7334C57.4893 39.8773 57.3455 40.093 57.2017 40.3087C57.0579 40.5245 57.1298 40.7402 57.0579 40.9559C57.0579 41.0278 56.986 41.0278 56.986 41.0998H66.6222C66.6941 40.9559 66.6941 40.9559 66.6222 40.884Z" fill="url(#paint5_radial)"/>
<path d="M60.6536 39.4459C60.6536 39.5897 60.4379 39.8054 60.1502 39.8054C59.8626 39.8054 59.6469 39.6616 59.6469 39.4459C59.6469 39.2301 59.8626 39.0863 60.1502 39.0863C60.4379 39.1582 60.6536 39.302 60.6536 39.4459Z" fill="#50270E"/>
<path d="M59.5749 40.093C59.5749 40.3087 59.3592 40.4525 59.0715 40.4525C58.7839 40.4525 58.5681 40.3087 58.5681 40.093C58.5681 39.8772 58.7839 39.7334 59.0715 39.7334C59.3592 39.8053 59.5749 39.9491 59.5749 40.093Z" fill="#50270E"/>
<path d="M62.6672 39.7335C62.6672 39.9492 62.4514 40.093 62.1638 40.093C61.8761 40.093 61.6604 39.9492 61.6604 39.7335C61.6604 39.5177 61.8761 39.3739 62.1638 39.3739C62.4514 39.4458 62.6672 39.5896 62.6672 39.7335Z" fill="#50270E"/>
<path d="M62.4513 38.6547C62.4513 38.8705 62.2356 39.0143 61.948 39.0143C61.6603 39.0143 61.4446 38.8705 61.4446 38.6547C61.4446 38.439 61.6603 38.2952 61.948 38.2952C62.2356 38.3671 62.4513 38.5109 62.4513 38.6547Z" fill="#50270E"/>
<path d="M64.3212 39.6616C64.3212 39.8773 64.1055 40.0211 63.8178 40.0211C63.5302 40.0211 63.3145 39.8773 63.3145 39.6616C63.3145 39.4458 63.5302 39.302 63.8178 39.302C64.1055 39.3739 64.3212 39.5177 64.3212 39.6616Z" fill="#50270E"/>
<path d="M61.4445 39.3739C61.4445 39.5178 61.3007 39.5897 61.2288 39.5897C61.085 39.5897 60.9412 39.5178 60.9412 39.3739C60.9412 39.2301 61.085 39.1582 61.2288 39.1582C61.3007 39.1582 61.4445 39.2301 61.4445 39.3739Z" fill="#50270E"/>
<path d="M63.3862 38.9425C63.3862 39.0864 63.2424 39.1583 63.0986 39.1583C62.9547 39.1583 62.8828 39.0864 62.8828 38.9425C62.8828 38.7987 63.0266 38.7268 63.0986 38.7268C63.2424 38.7268 63.3862 38.7987 63.3862 38.9425Z" fill="#50270E"/>
<path d="M63.4581 40.3807C63.4581 40.5245 63.3143 40.5964 63.1705 40.5964C63.0266 40.5964 62.9547 40.5245 62.9547 40.3807C62.9547 40.2368 63.0985 40.1649 63.1705 40.1649C63.3143 40.1649 63.4581 40.2368 63.4581 40.3807Z" fill="#50270E"/>
<path d="M60.7255 38.7986C60.7255 38.9424 60.5817 39.0144 60.5098 39.0144C60.366 39.0144 60.2222 38.9424 60.2222 38.7986C60.2222 38.6548 60.366 38.5829 60.5098 38.5829C60.5817 38.5829 60.7255 38.6548 60.7255 38.7986Z" fill="#50270E"/>
<path d="M60.9413 40.4527C60.9413 40.5965 60.7974 40.6684 60.6536 40.6684C60.5098 40.6684 60.4379 40.5965 60.4379 40.4527C60.4379 40.3088 60.5817 40.2369 60.6536 40.2369C60.8693 40.2369 60.9413 40.3088 60.9413 40.4527Z" fill="#50270E"/>
<path d="M65.975 40.1651C65.975 40.3808 65.7593 40.5247 65.4716 40.5247C65.184 40.5247 64.9683 40.3808 64.9683 40.1651C64.9683 39.9494 65.184 39.8055 65.4716 39.8055C65.7593 39.8055 65.975 39.9494 65.975 40.1651Z" fill="#50270E"/>
<path d="M49.579 46.8528C34.4775 46.8528 18.9445 42.9696 18.9445 36.5694C18.9445 30.0973 34.5494 26.286 49.579 26.286C64.6805 26.286 80.2135 30.1693 80.2135 36.5694C80.2854 43.0415 64.6805 46.8528 49.579 46.8528ZM49.579 27.8681C32.1763 27.8681 20.5265 32.3985 20.5265 36.5694C20.5265 40.7403 32.1763 45.2708 49.579 45.2708C66.9817 45.2708 78.6314 40.7403 78.6314 36.5694C78.6314 32.3985 66.9817 27.8681 49.579 27.8681Z" fill="url(#paint6_linear)"/>
<path d="M81.292 17.0093C80.2853 16.7217 79.1347 17.0093 78.7032 17.5846C78.7032 17.6565 76.4739 21.1083 73.957 25.2073C71.5839 29.0186 68.8512 33.4053 67.1973 36.066L68.7793 36.4975C70.8648 33.9806 73.7413 29.5939 76.6897 25.8545C79.7819 21.9713 82.3707 18.6633 82.3707 18.5914C82.8022 18.0161 82.2988 17.297 81.292 17.0093Z" fill="#504F4E"/>
<path d="M80.7887 16.7935C79.782 16.5059 78.6314 16.7935 78.1999 17.3688C78.1999 17.4407 75.9706 20.8925 73.4537 24.9915C71.0806 28.8028 68.3479 33.1894 66.694 35.8502L68.276 36.2817C70.3615 33.7647 73.238 29.3781 76.1864 25.6387C79.2786 21.7554 81.8674 18.4475 81.8674 18.3756C82.2989 17.8003 81.7955 17.0812 80.7887 16.7935Z" fill="url(#paint7_linear)"/>
<path d="M44.6886 23.434C43.538 25.1599 42.8189 26.8139 43.2503 28.1802C43.6099 29.5465 45.192 30.6971 46.8459 31.4162C45.4796 27.9645 48.428 25.2318 49.219 23.5059C50.0101 21.78 50.3696 20.126 49.8663 18.7597C49.4348 17.3934 48.1404 16.2428 46.9898 15.5237C47.3493 16.2428 47.7089 17.3215 47.3493 18.6878C46.9898 20.0541 45.8392 21.6362 44.6886 23.434Z" fill="#FFF2CC"/>
<path d="M52.455 27.1735C51.7359 28.2522 51.3044 29.2589 51.5921 30.1219C51.8078 30.9848 52.8146 31.7039 53.8213 32.1354C52.9584 29.978 54.7562 28.2522 55.2596 27.1735C55.7629 26.0948 55.9787 25.088 55.691 24.2251C55.4034 23.3621 54.6124 22.643 53.8932 22.2115C54.109 22.643 54.3247 23.3621 54.109 24.2251C53.8932 25.088 53.1741 26.0948 52.455 27.1735Z" fill="#FFF2CC"/>
<defs>
<linearGradient id="paint0_linear" x1="49.5879" y1="36.1145" x2="49.5879" y2="67.5888" gradientUnits="userSpaceOnUse">
<stop stop-color="#E2E1E1"/>
<stop offset="0.2917" stop-color="#D7D7D7"/>
<stop offset="0.8448" stop-color="#BABAB9"/>
<stop offset="1" stop-color="#B0B0B0"/>
</linearGradient>
<linearGradient id="paint1_linear" x1="49.6089" y1="27.94" x2="49.6089" y2="43.0885" gradientUnits="userSpaceOnUse">
<stop stop-color="#9B9B9A"/>
<stop offset="0.5989" stop-color="#B3B3B3"/>
<stop offset="1" stop-color="#BEBEBE"/>
</linearGradient>
<linearGradient id="paint2_linear" x1="49.6097" y1="32.1719" x2="49.6097" y2="44.9524" gradientUnits="userSpaceOnUse">
<stop stop-color="#C55B03"/>
<stop offset="1" stop-color="#F3A400"/>
</linearGradient>
<radialGradient id="paint3_radial" cx="0" cy="0" r="1" gradientUnits="userSpaceOnUse" gradientTransform="translate(42.7411 39.2653) scale(5.68093 6.23221)">
<stop stop-color="#C57C00"/>
<stop offset="0.0298101" stop-color="#C07700"/>
<stop offset="0.3414" stop-color="#945101"/>
<stop offset="0.6181" stop-color="#773902"/>
<stop offset="0.8471" stop-color="#652C00"/>
<stop offset="1" stop-color="#5F2700"/>
</radialGradient>
<radialGradient id="paint4_radial" cx="0" cy="0" r="1" gradientUnits="userSpaceOnUse" gradientTransform="translate(50.7498 33.5614) scale(3.6269 3.85057)">
<stop stop-color="#C57C00"/>
<stop offset="0.0298101" stop-color="#C07700"/>
<stop offset="0.3414" stop-color="#945101"/>
<stop offset="0.6181" stop-color="#773902"/>
<stop offset="0.8471" stop-color="#652C00"/>
<stop offset="1" stop-color="#5F2700"/>
</radialGradient>
<radialGradient id="paint5_radial" cx="0" cy="0" r="1" gradientUnits="userSpaceOnUse" gradientTransform="translate(61.3937 39.0957) scale(4.77579 4.03807)">
<stop stop-color="#C57C00"/>
<stop offset="0.0298101" stop-color="#C07700"/>
<stop offset="0.3414" stop-color="#945101"/>
<stop offset="0.6181" stop-color="#773902"/>
<stop offset="0.8471" stop-color="#652C00"/>
<stop offset="1" stop-color="#5F2700"/>
</radialGradient>
<linearGradient id="paint6_linear" x1="49.5954" y1="46.8866" x2="49.5954" y2="26.2976" gradientUnits="userSpaceOnUse">
<stop stop-color="white"/>
<stop offset="0.5739" stop-color="#F5F5F5"/>
<stop offset="1" stop-color="#EBEBEB"/>
</linearGradient>
<linearGradient id="paint7_linear" x1="73.0499" y1="25.7592" x2="74.609" y2="26.8731" gradientUnits="userSpaceOnUse">
<stop offset="0.00537634" stop-color="#DDDDDD"/>
<stop offset="0.9946" stop-color="#B0B0B0"/>
</linearGradient>
</defs>
</svg>
