<svg width="43" height="52" viewBox="0 0 43 52" fill="none" xmlns="http://www.w3.org/2000/svg">
<g clip-path="url(#clip0)">
<path d="M21.5 24C18.2945 24 15.281 22.7517 13.0147 20.4852C10.7482 18.2188 9.5 15.2054 9.5 12C9.5 8.79454 10.7482 5.78118 13.0147 3.5147C15.2812 1.24823 18.2945 0 21.5 0C24.7054 0 27.7188 1.24823 29.9852 3.5147C32.2517 5.78118 33.5 8.79454 33.5 12C33.5 15.2054 32.2517 18.219 29.9852 20.4854C27.7188 22.7517 24.7054 24 21.5 24ZM21.5 0.937498C15.4 0.937498 10.4375 5.9002 10.4375 12C10.4375 18.0999 15.4 23.0625 21.5 23.0625C27.5999 23.0625 32.5625 18.0999 32.5625 12C32.5625 5.9002 27.5999 0.937498 21.5 0.937498Z" fill="#8DC63F"/>
<path d="M21.5116 20.8093C20.0531 20.8093 18.5991 20.4491 17.3188 19.7594C17.091 19.6365 17.0057 19.3523 17.1286 19.1244C17.2512 18.8964 17.5356 18.8113 17.7636 18.9341C20.7996 20.5702 24.6253 20.0077 27.0664 17.5663C28.554 16.079 29.3732 14.1011 29.3732 11.9975C29.3732 9.89385 28.554 7.91612 27.0664 6.42857C23.9959 3.35808 18.9993 3.35789 15.9287 6.42876C13.4875 8.86992 12.925 12.6954 14.5609 15.7314C14.6837 15.9594 14.5986 16.2436 14.3706 16.3664C14.1428 16.4891 13.8583 16.404 13.7356 16.1762C12.8551 14.5422 12.5119 12.6245 12.769 10.7766C13.0349 8.86607 13.8982 7.13316 15.2658 5.76573C18.702 2.32939 24.2931 2.32939 27.7295 5.76573C29.3941 7.43034 30.3107 9.64336 30.3107 11.9975C30.3107 14.3515 29.3939 16.5647 27.7295 18.2294C26.3618 19.597 24.6291 20.4603 22.7186 20.7262C22.3183 20.7818 21.9148 20.8093 21.5116 20.8093Z" fill="#8DC63F"/>
<path d="M15.5923 18.3714C15.4729 18.3714 15.3537 18.3261 15.2622 18.2355C15.0783 18.0531 15.0772 17.7563 15.2594 17.5725L15.2647 17.5672C15.4471 17.3833 15.7439 17.3821 15.9278 17.5644C16.1116 17.7466 16.1127 18.0434 15.9305 18.2273L15.9252 18.2326C15.8335 18.325 15.713 18.3714 15.5923 18.3714Z" fill="#8DC63F"/>
<path d="M23.4247 15.4127C22.9661 15.6857 22.4726 15.8241 21.9579 15.8241C20.6349 15.8241 19.4944 14.8921 18.985 13.5582H21.4175C21.6765 13.5582 21.8863 13.3483 21.8863 13.0894C21.8863 12.8305 21.6765 12.6207 21.4175 12.6207H18.7446C18.7162 12.4178 18.7008 12.21 18.7008 11.9979C18.7008 11.8337 18.7105 11.6722 18.7277 11.5132H22.1285C22.3874 11.5132 22.5975 11.3034 22.5975 11.0445C22.5975 10.7856 22.3874 10.5757 22.1285 10.5757H18.935C19.4166 9.1684 20.5897 8.17175 21.9579 8.17175C22.4726 8.17175 22.9661 8.31018 23.4247 8.58319C23.6472 8.71558 23.9349 8.64252 24.0673 8.42004C24.1996 8.19757 24.1268 7.90991 23.9043 7.77753C23.307 7.42212 22.6341 7.23425 21.9579 7.23425C20.0809 7.23425 18.488 8.64142 17.9541 10.5757H17.0657C16.8069 10.5757 16.5969 10.7856 16.5969 11.0445C16.5969 11.3034 16.8069 11.5132 17.0657 11.5132H17.7847C17.7704 11.6725 17.7631 11.8342 17.7631 11.9979C17.7631 12.2089 17.7754 12.4167 17.799 12.6207H17.0657C16.8069 12.6207 16.5969 12.8305 16.5969 13.0894C16.5969 13.3483 16.8069 13.5582 17.0657 13.5582H17.9944C18.5648 15.4207 20.1259 16.7614 21.9579 16.7614C22.6339 16.7614 23.307 16.5735 23.9041 16.2181C24.1266 16.0858 24.1996 15.7981 24.0673 15.5756C23.9349 15.3531 23.6472 15.2801 23.4247 15.4127Z" fill="#8DC63F"/>
</g>
<path d="M1.52073 45V34.969H4.71973C5.33573 34.969 5.8654 35.0297 6.30873 35.151C6.75673 35.2723 7.12307 35.445 7.40774 35.669C7.69707 35.893 7.9094 36.1683 8.04473 36.495C8.18473 36.817 8.25473 37.181 8.25473 37.587C8.25473 37.8343 8.21507 38.0723 8.13573 38.301C8.06107 38.5297 7.9444 38.742 7.78573 38.938C7.63173 39.134 7.43573 39.309 7.19773 39.463C6.9644 39.617 6.68907 39.743 6.37173 39.841C7.1044 39.9857 7.6574 40.2493 8.03074 40.632C8.40407 41.0147 8.59073 41.5187 8.59073 42.144C8.59073 42.5687 8.5114 42.956 8.35274 43.306C8.19874 43.656 7.97007 43.957 7.66673 44.209C7.36807 44.461 6.9994 44.657 6.56073 44.797C6.12673 44.9323 5.62973 45 5.06973 45H1.52073ZM2.87873 40.429V43.922H5.04873C5.43607 43.922 5.7674 43.8777 6.04273 43.789C6.32273 43.7003 6.5514 43.5767 6.72873 43.418C6.91073 43.2547 7.04373 43.0633 7.12773 42.844C7.21173 42.62 7.25373 42.375 7.25373 42.109C7.25373 41.591 7.0694 41.1827 6.70073 40.884C6.33673 40.5807 5.78373 40.429 5.04173 40.429H2.87873ZM2.87873 39.463H4.67073C5.0534 39.463 5.38473 39.421 5.66473 39.337C5.94473 39.253 6.17573 39.1363 6.35773 38.987C6.5444 38.8377 6.68207 38.658 6.77073 38.448C6.8594 38.2333 6.90373 38 6.90373 37.748C6.90373 37.16 6.7264 36.7283 6.37173 36.453C6.01707 36.1777 5.4664 36.04 4.71973 36.04H2.87873V39.463ZM15.7472 45H15.1942C15.0729 45 14.9749 44.9813 14.9002 44.944C14.8255 44.9067 14.7765 44.8273 14.7532 44.706L14.6132 44.048C14.4265 44.216 14.2445 44.3677 14.0672 44.503C13.8899 44.6337 13.7032 44.7457 13.5072 44.839C13.3112 44.9277 13.1012 44.9953 12.8772 45.042C12.6579 45.0887 12.4129 45.112 12.1422 45.112C11.8669 45.112 11.6079 45.0747 11.3652 45C11.1272 44.9207 10.9195 44.804 10.7422 44.65C10.5649 44.496 10.4225 44.3023 10.3152 44.069C10.2125 43.831 10.1612 43.551 10.1612 43.229C10.1612 42.949 10.2382 42.6807 10.3922 42.424C10.5462 42.1627 10.7935 41.9317 11.1342 41.731C11.4795 41.5303 11.9299 41.367 12.4852 41.241C13.0405 41.1103 13.7195 41.0357 14.5222 41.017V40.464C14.5222 39.9133 14.4032 39.498 14.1652 39.218C13.9319 38.9333 13.5842 38.791 13.1222 38.791C12.8189 38.791 12.5622 38.8307 12.3522 38.91C12.1469 38.9847 11.9672 39.071 11.8132 39.169C11.6639 39.2623 11.5332 39.3487 11.4212 39.428C11.3139 39.5027 11.2065 39.54 11.0992 39.54C11.0152 39.54 10.9405 39.519 10.8752 39.477C10.8145 39.4303 10.7655 39.3743 10.7282 39.309L10.5042 38.91C10.8962 38.532 11.3185 38.2497 11.7712 38.063C12.2239 37.8763 12.7255 37.783 13.2762 37.783C13.6729 37.783 14.0252 37.8483 14.3332 37.979C14.6412 38.1097 14.9002 38.2917 15.1102 38.525C15.3202 38.7583 15.4789 39.0407 15.5862 39.372C15.6935 39.7033 15.7472 40.0673 15.7472 40.464V45ZM12.5132 44.237C12.7325 44.237 12.9332 44.216 13.1152 44.174C13.2972 44.1273 13.4675 44.0643 13.6262 43.985C13.7895 43.901 13.9435 43.8007 14.0882 43.684C14.2375 43.5673 14.3822 43.4343 14.5222 43.285V41.808C13.9482 41.8267 13.4605 41.8733 13.0592 41.948C12.6579 42.018 12.3312 42.1113 12.0792 42.228C11.8272 42.3447 11.6429 42.4823 11.5262 42.641C11.4142 42.7997 11.3582 42.977 11.3582 43.173C11.3582 43.3597 11.3885 43.5207 11.4492 43.656C11.5099 43.7913 11.5915 43.9033 11.6942 43.992C11.7969 44.076 11.9182 44.139 12.0582 44.181C12.1982 44.2183 12.3499 44.237 12.5132 44.237ZM17.7849 45V37.909H18.4989C18.6342 37.909 18.7276 37.9347 18.7789 37.986C18.8302 38.0373 18.8652 38.126 18.8839 38.252L18.9679 39.358C19.2106 38.8633 19.5092 38.4783 19.8639 38.203C20.2232 37.923 20.6432 37.783 21.1239 37.783C21.3199 37.783 21.4972 37.8063 21.6559 37.853C21.8146 37.895 21.9616 37.9557 22.0969 38.035L21.9359 38.966C21.9032 39.0827 21.8309 39.141 21.7189 39.141C21.6536 39.141 21.5532 39.12 21.4179 39.078C21.2826 39.0313 21.0936 39.008 20.8509 39.008C20.4169 39.008 20.0529 39.134 19.7589 39.386C19.4696 39.638 19.2269 40.0043 19.0309 40.485V45H17.7849ZM28.5296 45H27.9766C27.8553 45 27.7573 44.9813 27.6826 44.944C27.6079 44.9067 27.5589 44.8273 27.5356 44.706L27.3956 44.048C27.2089 44.216 27.0269 44.3677 26.8496 44.503C26.6723 44.6337 26.4856 44.7457 26.2896 44.839C26.0936 44.9277 25.8836 44.9953 25.6596 45.042C25.4403 45.0887 25.1953 45.112 24.9246 45.112C24.6493 45.112 24.3903 45.0747 24.1476 45C23.9096 44.9207 23.7019 44.804 23.5246 44.65C23.3473 44.496 23.2049 44.3023 23.0976 44.069C22.9949 43.831 22.9436 43.551 22.9436 43.229C22.9436 42.949 23.0206 42.6807 23.1746 42.424C23.3286 42.1627 23.5759 41.9317 23.9166 41.731C24.2619 41.5303 24.7123 41.367 25.2676 41.241C25.8229 41.1103 26.5019 41.0357 27.3046 41.017V40.464C27.3046 39.9133 27.1856 39.498 26.9476 39.218C26.7143 38.9333 26.3666 38.791 25.9046 38.791C25.6013 38.791 25.3446 38.8307 25.1346 38.91C24.9293 38.9847 24.7496 39.071 24.5956 39.169C24.4463 39.2623 24.3156 39.3487 24.2036 39.428C24.0963 39.5027 23.9889 39.54 23.8816 39.54C23.7976 39.54 23.7229 39.519 23.6576 39.477C23.5969 39.4303 23.5479 39.3743 23.5106 39.309L23.2866 38.91C23.6786 38.532 24.1009 38.2497 24.5536 38.063C25.0063 37.8763 25.5079 37.783 26.0586 37.783C26.4553 37.783 26.8076 37.8483 27.1156 37.979C27.4236 38.1097 27.6826 38.2917 27.8926 38.525C28.1026 38.7583 28.2613 39.0407 28.3686 39.372C28.4759 39.7033 28.5296 40.0673 28.5296 40.464V45ZM25.2956 44.237C25.5149 44.237 25.7156 44.216 25.8976 44.174C26.0796 44.1273 26.2499 44.0643 26.4086 43.985C26.5719 43.901 26.7259 43.8007 26.8706 43.684C27.0199 43.5673 27.1646 43.4343 27.3046 43.285V41.808C26.7306 41.8267 26.2429 41.8733 25.8416 41.948C25.4403 42.018 25.1136 42.1113 24.8616 42.228C24.6096 42.3447 24.4253 42.4823 24.3086 42.641C24.1966 42.7997 24.1406 42.977 24.1406 43.173C24.1406 43.3597 24.1709 43.5207 24.2316 43.656C24.2923 43.7913 24.3739 43.9033 24.4766 43.992C24.5793 44.076 24.7006 44.139 24.8406 44.181C24.9806 44.2183 25.1323 44.237 25.2956 44.237ZM32.7163 45.112C32.1563 45.112 31.7246 44.9557 31.4213 44.643C31.1226 44.3303 30.9733 43.88 30.9733 43.292V38.952H30.1193C30.0446 38.952 29.9816 38.931 29.9303 38.889C29.879 38.8423 29.8533 38.7723 29.8533 38.679V38.182L31.0153 38.035L31.3023 35.844C31.3116 35.774 31.342 35.718 31.3933 35.676C31.4446 35.6293 31.51 35.606 31.5893 35.606H32.2193V38.049H34.2493V38.952H32.2193V43.208C32.2193 43.5067 32.2916 43.7283 32.4363 43.873C32.581 44.0177 32.7676 44.09 32.9963 44.09C33.127 44.09 33.239 44.0737 33.3323 44.041C33.4303 44.0037 33.5143 43.964 33.5843 43.922C33.6543 43.88 33.7126 43.8427 33.7593 43.81C33.8106 43.7727 33.855 43.754 33.8923 43.754C33.9576 43.754 34.016 43.7937 34.0673 43.873L34.4313 44.468C34.2166 44.6687 33.9576 44.8273 33.6543 44.944C33.351 45.056 33.0383 45.112 32.7163 45.112ZM38.81 37.797C39.328 37.797 39.7946 37.8833 40.21 38.056C40.63 38.2287 40.9846 38.4737 41.274 38.791C41.568 39.1083 41.792 39.4933 41.946 39.946C42.1046 40.394 42.184 40.8957 42.184 41.451C42.184 42.011 42.1046 42.515 41.946 42.963C41.792 43.411 41.568 43.7937 41.274 44.111C40.9846 44.4283 40.63 44.6733 40.21 44.846C39.7946 45.014 39.328 45.098 38.81 45.098C38.292 45.098 37.823 45.014 37.403 44.846C36.9876 44.6733 36.633 44.4283 36.339 44.111C36.045 43.7937 35.8186 43.411 35.66 42.963C35.5013 42.515 35.422 42.011 35.422 41.451C35.422 40.8957 35.5013 40.394 35.66 39.946C35.8186 39.4933 36.045 39.1083 36.339 38.791C36.633 38.4737 36.9876 38.2287 37.403 38.056C37.823 37.8833 38.292 37.797 38.81 37.797ZM38.81 44.125C39.51 44.125 40.0326 43.8917 40.378 43.425C40.7233 42.9537 40.896 42.298 40.896 41.458C40.896 40.6133 40.7233 39.9553 40.378 39.484C40.0326 39.0127 39.51 38.777 38.81 38.777C38.4553 38.777 38.1473 38.8377 37.886 38.959C37.6246 39.0803 37.4053 39.2553 37.228 39.484C37.0553 39.7127 36.9246 39.995 36.836 40.331C36.752 40.6623 36.71 41.038 36.71 41.458C36.71 41.878 36.752 42.2537 36.836 42.585C36.9246 42.9163 37.0553 43.1963 37.228 43.425C37.4053 43.649 37.6246 43.8217 37.886 43.943C38.1473 44.0643 38.4553 44.125 38.81 44.125Z" fill="black"/>
<defs>
<clipPath id="clip0">
<rect width="24" height="24" fill="white" transform="translate(9.5)"/>
</clipPath>
</defs>
</svg>
