<svg width="100" height="130" viewBox="0 0 100 130" fill="none" xmlns="http://www.w3.org/2000/svg">
<rect width="100" height="130" rx="10" fill="white"/>
<path d="M33.5967 99.272C33.5967 100.131 33.4607 100.912 33.1887 101.616C32.9167 102.32 32.5327 102.923 32.0367 103.424C31.5407 103.925 30.9461 104.315 30.2527 104.592C29.5594 104.864 28.7914 105 27.9487 105H23.6607V93.536H27.9487C28.7914 93.536 29.5594 93.6746 30.2527 93.952C30.9461 94.224 31.5407 94.6133 32.0367 95.12C32.5327 95.6213 32.9167 96.224 33.1887 96.928C33.4607 97.632 33.5967 98.4133 33.5967 99.272ZM32.0047 99.272C32.0047 98.568 31.9087 97.9386 31.7167 97.384C31.5247 96.8293 31.2527 96.36 30.9007 95.976C30.5487 95.592 30.1221 95.2986 29.6207 95.096C29.1194 94.8933 28.5621 94.792 27.9487 94.792H25.2207V103.744H27.9487C28.5621 103.744 29.1194 103.643 29.6207 103.44C30.1221 103.237 30.5487 102.947 30.9007 102.568C31.2527 102.184 31.5247 101.715 31.7167 101.16C31.9087 100.605 32.0047 99.976 32.0047 99.272Z" fill="black"/>
<path d="M38.8416 96.768C39.3269 96.768 39.7749 96.8506 40.1856 97.016C40.5963 97.176 40.9509 97.4106 41.2496 97.72C41.5483 98.024 41.7803 98.4026 41.9456 98.856C42.1163 99.304 42.2016 99.816 42.2016 100.392C42.2016 100.616 42.1776 100.765 42.1296 100.84C42.0816 100.915 41.9909 100.952 41.8576 100.952H36.4656C36.4763 101.464 36.5456 101.909 36.6736 102.288C36.8016 102.667 36.9776 102.984 37.2016 103.24C37.4256 103.491 37.6923 103.68 38.0016 103.808C38.3109 103.931 38.6576 103.992 39.0416 103.992C39.3989 103.992 39.7056 103.952 39.9616 103.872C40.2229 103.787 40.4469 103.696 40.6336 103.6C40.8203 103.504 40.9749 103.416 41.0976 103.336C41.2256 103.251 41.3349 103.208 41.4256 103.208C41.5429 103.208 41.6336 103.253 41.6976 103.344L42.0976 103.864C41.9216 104.077 41.7109 104.264 41.4656 104.424C41.2203 104.579 40.9563 104.707 40.6736 104.808C40.3963 104.909 40.1083 104.984 39.8096 105.032C39.5109 105.085 39.2149 105.112 38.9216 105.112C38.3616 105.112 37.8443 105.019 37.3696 104.832C36.9003 104.64 36.4923 104.363 36.1456 104C35.8043 103.632 35.5376 103.179 35.3456 102.64C35.1536 102.101 35.0576 101.483 35.0576 100.784C35.0576 100.219 35.1429 99.6906 35.3136 99.2C35.4896 98.7093 35.7403 98.2853 36.0656 97.928C36.3909 97.5653 36.7883 97.2826 37.2576 97.08C37.7269 96.872 38.2549 96.768 38.8416 96.768ZM38.8736 97.816C38.1856 97.816 37.6443 98.016 37.2496 98.416C36.8549 98.8106 36.6096 99.36 36.5136 100.064H40.9216C40.9216 99.7333 40.8763 99.432 40.7856 99.16C40.6949 98.8826 40.5616 98.6453 40.3856 98.448C40.2096 98.2453 39.9936 98.0906 39.7376 97.984C39.4869 97.872 39.1989 97.816 38.8736 97.816Z" fill="black"/>
<path d="M53.37 105H52.738C52.5993 105 52.4873 104.979 52.402 104.936C52.3167 104.893 52.2607 104.803 52.234 104.664L52.074 103.912C51.8607 104.104 51.6527 104.277 51.45 104.432C51.2473 104.581 51.034 104.709 50.81 104.816C50.586 104.917 50.346 104.995 50.09 105.048C49.8393 105.101 49.5593 105.128 49.25 105.128C48.9353 105.128 48.6393 105.085 48.362 105C48.09 104.909 47.8527 104.776 47.65 104.6C47.4473 104.424 47.2847 104.203 47.162 103.936C47.0447 103.664 46.986 103.344 46.986 102.976C46.986 102.656 47.074 102.349 47.25 102.056C47.426 101.757 47.7087 101.493 48.098 101.264C48.4927 101.035 49.0073 100.848 49.642 100.704C50.2767 100.555 51.0527 100.469 51.97 100.448V99.816C51.97 99.1866 51.834 98.712 51.562 98.392C51.2953 98.0666 50.898 97.904 50.37 97.904C50.0233 97.904 49.73 97.9493 49.49 98.04C49.2553 98.1253 49.05 98.224 48.874 98.336C48.7033 98.4426 48.554 98.5413 48.426 98.632C48.3033 98.7173 48.1807 98.76 48.058 98.76C47.962 98.76 47.8767 98.736 47.802 98.688C47.7327 98.6346 47.6767 98.5706 47.634 98.496L47.378 98.04C47.826 97.608 48.3087 97.2853 48.826 97.072C49.3433 96.8586 49.9167 96.752 50.546 96.752C50.9993 96.752 51.402 96.8266 51.754 96.976C52.106 97.1253 52.402 97.3333 52.642 97.6C52.882 97.8666 53.0633 98.1893 53.186 98.568C53.3087 98.9466 53.37 99.3626 53.37 99.816V105ZM49.674 104.128C49.9247 104.128 50.154 104.104 50.362 104.056C50.57 104.003 50.7647 103.931 50.946 103.84C51.1327 103.744 51.3087 103.629 51.474 103.496C51.6447 103.363 51.81 103.211 51.97 103.04V101.352C51.314 101.373 50.7567 101.427 50.298 101.512C49.8393 101.592 49.466 101.699 49.178 101.832C48.89 101.965 48.6793 102.123 48.546 102.304C48.418 102.485 48.354 102.688 48.354 102.912C48.354 103.125 48.3887 103.309 48.458 103.464C48.5273 103.619 48.6207 103.747 48.738 103.848C48.8553 103.944 48.994 104.016 49.154 104.064C49.314 104.107 49.4873 104.128 49.674 104.128Z" fill="black"/>
<path d="M62.2294 96.896V107.744H60.8054V103.8C60.464 104.195 60.0747 104.512 59.6374 104.752C59.2054 104.992 58.7094 105.112 58.1494 105.112C57.6854 105.112 57.264 105.024 56.8854 104.848C56.5067 104.667 56.184 104.403 55.9174 104.056C55.6507 103.709 55.4454 103.277 55.3014 102.76C55.1574 102.243 55.0854 101.648 55.0854 100.976C55.0854 100.379 55.1654 99.824 55.3254 99.312C55.4854 98.7946 55.7147 98.3466 56.0134 97.968C56.3174 97.5893 56.6854 97.2933 57.1174 97.08C57.5494 96.8613 58.04 96.752 58.5894 96.752C59.112 96.752 59.5547 96.8453 59.9174 97.032C60.2854 97.2186 60.6134 97.4826 60.9014 97.824L60.9974 97.192C61.0507 96.9946 61.1787 96.896 61.3814 96.896H62.2294ZM58.6214 103.96C59.0854 103.96 59.4907 103.853 59.8374 103.64C60.1894 103.427 60.512 103.125 60.8054 102.736V98.816C60.5494 98.4746 60.264 98.232 59.9494 98.088C59.6347 97.9386 59.288 97.864 58.9094 97.864C58.152 97.864 57.5707 98.1333 57.1654 98.672C56.76 99.2106 56.5574 99.9786 56.5574 100.976C56.5574 101.504 56.6027 101.957 56.6934 102.336C56.784 102.709 56.9174 103.019 57.0934 103.264C57.2694 103.504 57.4854 103.68 57.7414 103.792C57.9974 103.904 58.2907 103.96 58.6214 103.96Z" fill="black"/>
<path d="M65.9969 96.896V102.064C65.9969 102.677 66.1382 103.152 66.4209 103.488C66.7035 103.824 67.1302 103.992 67.7009 103.992C68.1169 103.992 68.5089 103.893 68.8769 103.696C69.2449 103.499 69.5835 103.224 69.8929 102.872V96.896H71.3169V105H70.4689C70.2662 105 70.1382 104.901 70.0849 104.704L69.9729 103.832C69.6209 104.221 69.2262 104.536 68.7889 104.776C68.3515 105.011 67.8502 105.128 67.2849 105.128C66.8422 105.128 66.4502 105.056 66.1089 104.912C65.7729 104.763 65.4902 104.555 65.2609 104.288C65.0315 104.021 64.8582 103.699 64.7409 103.32C64.6289 102.941 64.5729 102.523 64.5729 102.064V96.896H65.9969Z" fill="black"/>
<path d="M75.3895 96.896V105H73.9655V96.896H75.3895ZM77.0535 93.408L75.1895 95.472C75.1148 95.552 75.0402 95.6106 74.9655 95.648C74.8962 95.68 74.8055 95.696 74.6935 95.696H73.8455L75.0295 93.76C75.1042 93.6373 75.1842 93.5493 75.2695 93.496C75.3602 93.4373 75.4908 93.408 75.6615 93.408H77.0535Z" fill="black"/>
<g clip-path="url(#clip0)">
<path d="M49.5 50.8122C66.4712 50.8122 81.6447 53.2572 92 57.0685C89.8426 33.4814 71.6489 15 49.5 15C27.3511 15 9.15736 33.4814 7 57.0685C17.3553 53.1853 32.5288 50.8122 49.5 50.8122Z" fill="#8EC044"/>
<path d="M50.4348 85.6176C67.4333 85.6176 81.2132 80.0799 81.2132 73.2487C81.2132 66.4176 67.4333 60.8799 50.4348 60.8799C33.4364 60.8799 19.6565 66.4176 19.6565 73.2487C19.6565 80.0799 33.4364 85.6176 50.4348 85.6176Z" fill="#D2D2D2"/>
<path d="M35.6208 54.8392C35.6208 56.637 31.8814 58.1472 27.279 58.1472C22.6767 58.1472 18.9373 56.7089 18.9373 54.8392C18.9373 53.0414 22.6767 51.5312 27.279 51.5312C31.8814 51.6032 35.6208 53.0414 35.6208 54.8392Z" fill="#B7B6B6"/>
<path d="M16.7082 44.1243C16.6363 44.4838 16.6363 44.8434 16.6363 45.2029C16.6363 48.2952 16.2768 50.6683 19.6566 52.3942V53.6167C19.7285 54.6234 22.7488 55.9178 26.5602 55.9178C30.3715 55.9178 33.5356 54.6234 33.5356 53.6167V52.3942C36.9155 50.6683 36.5559 48.2952 36.5559 45.2029C36.5559 44.8434 36.5559 44.4838 36.484 44.1243H16.7082Z" fill="url(#paint0_linear)"/>
<path d="M20.0162 52.0347C21.5264 53.1133 23.9714 53.9763 26.704 54.0482C29.4367 54.1201 32.0255 53.401 33.3199 52.1066C31.666 52.8257 29.2929 53.0414 26.704 52.9695C24.1152 52.8976 21.814 52.5381 20.0162 52.0347Z" fill="#909090"/>
<path d="M36.5559 44.34C36.5559 45.7783 32.1693 46.9289 26.704 46.9289C21.2387 46.9289 16.8521 45.7783 16.8521 44.34C16.8521 42.9018 21.2387 41.7512 26.704 41.7512C32.1693 41.6793 36.5559 42.9018 36.5559 44.34Z" fill="url(#paint1_linear)"/>
<path d="M26.704 47.7918C21.8139 47.7918 16.7082 46.5693 16.7082 44.4839C16.7082 42.3984 21.8139 41.1759 26.704 41.1759C31.594 41.1759 36.6997 42.3984 36.6997 44.4839C36.6278 46.4974 31.594 47.7918 26.704 47.7918ZM26.704 41.6074C21.0229 41.6074 17.2116 43.0456 17.2116 44.4839C17.2116 45.9221 21.0229 47.3603 26.704 47.3603C32.385 47.3603 36.1963 45.9221 36.1963 44.4839C36.1963 43.0456 32.3131 41.6074 26.704 41.6074Z" fill="url(#paint2_linear)"/>
<path d="M39.4325 35.0634C38.9291 34.9196 38.3538 35.0634 38.21 35.351C38.21 35.351 37.1313 37.005 35.9088 38.9466C34.7582 40.7444 33.4638 42.8299 32.6728 44.1243L33.4638 44.34C34.4706 43.1175 35.8369 41.0321 37.2751 39.3062C38.7134 37.4365 40.0078 35.8544 40.0078 35.8544C40.1516 35.5668 39.864 35.2072 39.4325 35.0634Z" fill="#504F4E"/>
<path d="M39.1448 34.9915C38.6414 34.8477 38.0661 34.9915 37.9223 35.2791C37.9223 35.2791 36.8436 36.9331 35.6211 38.8747C34.4705 40.6725 33.1761 42.758 32.3851 44.0524L33.1761 44.2681C34.1829 43.0456 35.5492 40.9602 36.9874 39.2343C38.4257 37.3646 39.7201 35.7825 39.7201 35.7825C39.8639 35.4949 39.6482 35.1353 39.1448 34.9915Z" fill="url(#paint3_linear)"/>
<path d="M35.5492 44.9153C35.5492 46.1378 31.594 47.2165 26.6321 47.2165C21.7421 47.2165 17.715 46.2097 17.715 44.9153C17.715 43.6209 21.6702 42.6141 26.6321 42.6141C31.594 42.6141 35.5492 43.6928 35.5492 44.9153Z" fill="url(#paint4_linear)"/>
<path d="M19.5128 42.758C19.8724 42.3985 20.3757 42.1108 20.8791 41.8951C21.5263 41.6074 22.1016 42.0389 22.5331 41.3198C23.6837 39.7377 28.4299 39.4501 30.4434 41.104C31.8097 41.3917 32.457 41.6074 33.3918 42.3985C34.039 42.9738 34.5424 43.621 34.3267 44.6277C33.9671 45.9941 32.2412 45.9221 31.0906 45.9941C29.3647 46.1379 27.6388 46.2098 25.9849 46.3536C24.1152 46.5694 21.8859 46.3536 20.0881 45.7783C18.5779 45.3468 18.4341 43.8367 19.5128 42.758Z" fill="url(#paint5_linear)"/>
<path d="M25.9129 44.5558C25.9129 44.5558 25.5534 44.4838 25.05 44.4119C24.5466 44.34 23.8994 44.1243 23.3241 43.8366C23.0365 43.6928 22.7488 43.549 22.5331 43.4052C22.3173 43.1894 22.1016 43.1175 21.9578 42.9018C21.8859 42.8299 21.8139 42.758 21.742 42.686C21.6701 42.6141 21.6701 42.5422 21.5982 42.5422C21.5263 42.4703 21.5263 42.3984 21.5263 42.3984C21.4544 42.3265 21.1667 42.4703 20.8791 42.6141C20.5195 42.758 20.3757 43.1175 20.5195 43.2613C20.5195 43.2613 20.5914 43.3333 20.7353 43.4771C20.8072 43.549 20.8791 43.6209 20.951 43.6928C21.0229 43.7647 21.1667 43.8366 21.3106 43.9086C21.5263 44.0524 21.8859 44.1962 22.1735 44.34C22.4612 44.4838 22.8207 44.4838 23.1803 44.6277C23.8994 44.6996 24.5466 44.7715 25.05 44.7715C25.5534 44.5558 25.9129 44.5558 25.9129 44.5558Z" fill="#F07F4E"/>
<path d="M23.468 45.9941C23.468 45.9941 23.1803 45.9222 22.7489 45.8503C22.5331 45.7783 22.2455 45.7783 22.0297 45.7064C21.7421 45.6345 21.4544 45.5626 21.2387 45.4188C20.7353 45.203 20.2319 44.8435 19.9443 44.5558C19.6566 44.2682 19.5128 44.0525 19.5128 44.0525C19.4409 43.9805 19.2252 44.1244 18.9375 44.2682C18.6499 44.412 18.578 44.7716 18.6499 44.8435C18.6499 44.8435 18.7218 44.9154 18.8656 44.9873C19.0094 45.0592 19.1533 45.203 19.369 45.3469C19.8005 45.6345 20.4477 45.8503 21.023 45.9222C21.3106 45.9941 21.6702 45.9941 21.9578 45.9941C22.2455 45.9941 22.5331 45.9941 22.7489 45.9941C23.1084 45.9941 23.468 45.9941 23.468 45.9941Z" fill="#EB5D46"/>
<path d="M26.1287 40.6725C26.1287 40.6725 25.913 40.6725 25.6253 40.6725C25.4815 40.6725 25.2658 40.6725 25.122 40.7444C24.9062 40.7444 24.6905 40.8163 24.5467 40.8882C24.3309 40.9601 24.1152 41.032 23.9714 41.1759C23.7556 41.2478 23.6118 41.3916 23.5399 41.5354C23.2522 41.7512 23.1084 41.9669 23.1084 41.9669C23.0365 42.0388 23.1084 42.2546 23.3242 42.2546C23.468 42.3265 23.6837 42.3265 23.6837 42.2546C23.6837 42.2546 23.7556 42.1107 23.8995 41.895C23.9714 41.8231 24.1152 41.6793 24.1871 41.5354C24.3309 41.3916 24.4747 41.3197 24.6186 41.2478C24.7624 41.104 24.9781 41.104 25.122 41.032C25.2658 40.9601 25.4096 40.8882 25.5534 40.8882C25.9849 40.7444 26.1287 40.6725 26.1287 40.6725Z" fill="#F07F4E"/>
<path d="M26.0568 42.9737C26.0568 42.9737 26.4163 42.9737 26.8478 43.0456C27.0635 43.0456 27.3512 43.1175 27.7107 43.1175C27.9984 43.1175 28.3579 43.1175 28.7175 43.1175C29.0771 43.1175 29.3647 43.0456 29.7243 42.9737C30.0119 42.9018 30.3715 42.8299 30.5872 42.6861C30.803 42.5422 31.0187 42.4703 31.1625 42.3265C31.3063 42.2546 31.3783 42.1827 31.3783 42.1827C31.5221 42.0388 31.5221 41.8231 31.3063 41.7512C31.1625 41.6793 30.9468 41.6793 30.8749 41.7512C30.8749 41.7512 30.803 41.8231 30.731 41.895C30.6591 41.9669 30.5153 42.1108 30.2996 42.1827C30.0838 42.3265 29.8681 42.3984 29.5805 42.5422C29.2928 42.6141 29.0052 42.6861 28.6456 42.758C28.3579 42.8299 27.9984 42.8299 27.7107 42.9018C27.4231 42.9737 27.1354 42.9018 26.8478 42.9737C26.3444 42.9018 26.0568 42.9737 26.0568 42.9737Z" fill="#D75322"/>
<path d="M29.149 45.3468C29.149 45.3468 29.5086 45.3468 29.9401 45.4187C30.1558 45.4187 30.4435 45.4906 30.803 45.4906C31.0907 45.4906 31.4502 45.4906 31.8098 45.4906C32.1694 45.4906 32.457 45.4187 32.8166 45.3468C33.1042 45.2748 33.4638 45.2029 33.6795 45.0591C33.8952 44.9153 34.111 44.8434 34.2548 44.6995C34.3986 44.6276 34.4705 44.5557 34.4705 44.5557C34.6144 44.4119 34.5424 44.1962 34.3986 44.1242C34.2548 44.0523 34.0391 44.0523 33.9672 44.1242C33.9672 44.1242 33.8952 44.1962 33.8233 44.2681C33.7514 44.34 33.6076 44.4838 33.3919 44.5557C33.1761 44.6995 32.9604 44.7715 32.6727 44.9153C32.3851 44.9872 32.0974 45.0591 31.7379 45.131C31.4502 45.2029 31.0907 45.2029 30.803 45.2748C30.5154 45.3467 30.2277 45.2748 29.9401 45.3468C29.4367 45.3468 29.149 45.3468 29.149 45.3468Z" fill="#D75322"/>
<path d="M80.8537 70.8757C80.8537 77.2039 67.4062 82.3816 50.7226 82.3816C34.039 82.3816 20.5914 77.2039 20.5914 70.8757C20.5914 64.5474 34.1109 59.3698 50.7226 59.3698C67.3342 59.3698 80.8537 64.5474 80.8537 70.8757Z" fill="#646363"/>
<path d="M87.9011 65.2665C87.9011 73.7522 71.8647 80.3681 50.9383 80.3681C30.0119 80.3681 13.6879 73.7522 13.6879 65.2665C13.6879 56.7809 29.94 49.5897 50.9383 49.5897C71.8647 49.6616 87.9011 56.7809 87.9011 65.2665Z" fill="url(#paint6_linear)"/>
<path d="M50.5068 81.3748C29.7962 81.3748 13.616 74.1117 13.616 65.2666C13.616 56.4933 29.7962 49.5178 50.5068 49.5178C71.2175 49.5178 88.1168 56.6371 88.1168 65.4104C88.1168 74.1836 71.2175 81.3748 50.5068 81.3748ZM50.9383 50.165C30.8029 50.165 14.407 56.7809 14.407 64.9789C14.407 73.1769 30.8029 79.7928 50.9383 79.7928C71.0737 79.7928 87.4696 73.1769 87.4696 64.9789C87.4696 56.8528 71.0737 50.165 50.9383 50.165Z" fill="url(#paint7_linear)"/>
<path d="M75.6761 65.3384C75.6761 70.8757 64.6016 75.4061 50.8664 75.4061C37.2032 75.4061 26.0568 70.9476 26.0568 65.3384C26.0568 59.8012 37.1312 55.2708 50.8664 55.2708C64.6016 55.2708 75.6761 59.7293 75.6761 65.3384Z" fill="url(#paint8_linear)"/>
<path d="M50.9383 76.9882C35.693 76.9882 23.2522 71.7387 23.2522 65.2666C23.2522 58.7945 35.693 53.5449 50.9383 53.5449C66.1837 53.5449 78.6244 58.7945 78.6244 65.2666C78.5525 71.7387 66.1837 76.9882 50.9383 76.9882ZM50.9383 55.918C38.2099 55.918 27.7827 60.0889 27.7827 65.2666C27.7827 70.4442 38.138 74.6151 50.9383 74.6151C63.6667 74.6151 74.094 70.4442 74.094 65.2666C74.0221 60.1608 63.6667 55.918 50.9383 55.918Z" fill="url(#paint9_linear)"/>
<path d="M68.9163 48.583C68.9163 47.6481 68.1253 47.6481 67.4781 47.6481C67.2623 47.6481 66.9028 47.6481 67.2623 47.6481C67.9095 46.7852 67.1904 46.066 66.5432 46.066C65.2488 46.138 64.8173 47.72 64.8173 47.72C62.8038 48.4391 61.006 48.9425 57.1946 48.7268L59.6396 52.5381C62.1566 51.3156 65.896 49.8055 65.896 49.8055C66.687 50.2369 68.9163 50.0212 68.9163 48.583Z" fill="#823B05"/>
<path d="M29.7242 63.9001C29.7242 63.9001 22.8207 58.3629 24.4747 56.637C26.2005 54.9111 32.1692 52.3942 33.2479 52.1066C34.3266 51.8189 35.6929 52.2504 35.4053 52.8976C35.4053 52.8976 32.4569 54.3358 31.0906 55.1269C29.7242 55.9179 28.286 56.4213 28.6456 56.9966C28.9332 57.5 32.3131 59.8012 33.7513 60.9517C35.1176 62.1742 35.621 66.1294 29.7242 63.9001Z" fill="url(#paint10_linear)"/>
<path d="M27.7107 64.9788C27.8545 64.1878 28.286 63.4687 28.286 62.6777C27.9264 62.6058 27.5669 62.9653 27.4231 63.253C26.9197 62.8934 27.0635 62.0305 26.4163 61.6709C26.1286 61.8866 25.9848 62.39 25.9129 62.7496C25.6972 62.6777 25.1219 62.3181 24.978 62.6058C24.8342 62.8215 25.1938 63.181 25.3376 63.253C25.1219 63.181 24.9061 63.181 24.6904 63.181C24.5466 63.6844 25.6972 64.4036 26.0567 64.7631C25.4095 64.6912 24.4027 64.1159 23.8275 64.3316C23.6836 64.6193 23.8275 64.9069 24.1151 65.1227C23.5398 65.0508 21.8139 64.835 23.0364 65.6261C22.7488 65.6261 22.533 65.698 22.2454 65.698C22.1016 65.7699 22.1016 65.9856 22.1016 66.1294C22.3892 66.1294 22.6769 66.2014 22.8926 66.3452C22.1735 67.1362 23.1802 66.9205 23.6836 66.7047C23.6117 66.8486 23.6836 67.0643 23.6117 67.2081C23.8994 67.2081 24.2589 67.0643 24.4027 66.8486C24.4027 67.4958 25.05 66.9205 25.2657 66.6328C25.4095 66.5609 25.5533 66.5609 25.6972 66.489C25.5533 66.9924 25.05 67.2081 25.1219 67.7834C25.3376 67.7834 25.4814 67.8553 25.6253 67.7115C25.3376 68.143 25.1219 68.6464 25.2657 69.1497C25.7691 69.2936 26.4882 68.7183 26.632 68.2868C26.8478 68.5744 27.2073 69.0778 27.6388 69.0778C27.9983 68.6464 27.5669 68.3587 27.495 67.9992C27.3511 67.5677 27.4231 66.9924 27.2073 66.5609C27.3511 67.1362 28.5017 67.4958 29.077 67.4958C29.0051 67.4239 29.0051 67.28 28.9332 67.2081C29.2209 67.28 29.5085 67.1362 29.5085 66.8486C28.9332 66.5609 28.4298 66.3452 27.8545 66.0575C28.2141 65.4822 29.94 65.1227 29.94 64.5474C29.5804 64.4036 29.1489 64.5474 28.7894 64.4755C29.0051 64.3316 29.077 64.1159 29.077 63.8283C28.4298 63.6125 27.9264 64.835 27.7107 65.1946V64.9788Z" fill="url(#paint11_linear)"/>
<path d="M77.4738 64.4755C79.0559 61.3832 84.2336 60.0169 87.11 59.4416C86.8943 59.4416 85.5999 58.4349 85.3122 58.8663C85.2403 59.0101 85.1684 59.154 85.1684 59.2259C85.0965 59.2259 85.0965 59.2978 85.0965 59.2978C85.1684 59.2259 85.1684 59.0821 85.0246 59.0101C84.8808 58.9382 84.665 59.0821 84.3774 59.3697C84.0178 59.8731 83.5144 60.0169 83.083 60.0888C83.6583 59.8012 83.7302 59.2259 83.4425 59.0821C83.083 58.8663 82.7234 59.0821 82.6515 59.2978C82.5796 59.0821 82.3638 59.0821 82.22 59.0821C82.0043 59.0821 81.8605 59.154 81.7885 59.5854C81.7885 60.3046 81.5009 60.3765 81.3571 60.5922C81.2133 60.736 81.0694 60.5922 81.2132 60.5203C81.6447 60.0169 81.5009 59.8012 81.3571 59.6574C81.2133 59.5135 80.9256 59.5135 80.7818 59.6574C80.7099 59.2978 80.4941 59.154 80.1346 59.154C79.7031 59.154 79.6312 59.5135 79.8469 59.945C79.5593 59.7293 79.2716 60.0169 79.4874 60.3765C79.775 60.9518 79.7031 61.0237 79.6312 61.2394C79.6312 61.3113 79.5593 61.3832 79.4874 61.3832C79.7031 61.0956 79.5593 60.736 79.3435 60.6641C79.2716 60.5203 79.1278 60.4484 79.0559 60.4484C78.7682 60.4484 78.6963 60.5203 78.6244 60.8079C78.4087 60.6641 78.121 60.6641 78.121 60.8799C78.0491 60.9518 77.9772 61.0237 77.9772 61.3113C77.9772 61.3832 78.0491 61.4552 78.0491 61.5271C77.9772 61.5271 77.9772 61.5271 77.9053 61.5271L77.8334 61.4552C77.7615 61.4552 77.7615 61.4552 77.6896 61.4552H77.6176C77.6176 61.4552 77.5457 61.4552 77.4738 61.4552C77.5457 61.3832 77.5457 61.3832 77.6896 61.3113C77.8334 61.2394 77.8334 61.1675 77.8334 61.0956C77.9053 61.0237 77.8334 60.8079 77.6896 60.8079C77.7615 60.6641 77.7615 60.5203 77.6176 60.4484C77.6176 60.3046 77.5457 60.3046 77.4738 60.3046C77.33 60.2327 77.1862 60.3046 77.1143 60.5922C77.1143 60.5922 77.1143 60.5203 77.1143 60.4484C77.1862 60.3046 77.1862 60.2327 77.5457 60.0888C77.8334 60.0169 77.7615 59.7293 77.5457 59.7293C77.8334 59.5854 77.9772 59.4416 77.7615 59.2259C77.6177 59.0821 77.4738 59.0821 77.2581 59.2259C77.2581 59.0821 77.1143 58.9382 76.9704 58.9382C76.8266 58.9382 76.6828 59.0101 76.6828 59.4416C76.6828 59.5854 76.539 59.5854 76.539 59.4416C76.539 59.2978 76.4671 59.154 76.7547 58.7944C76.8985 58.5787 76.8266 58.4349 76.7547 58.3629C76.8985 58.1472 76.7547 58.0753 76.6828 58.1472C76.7547 58.0034 76.6828 57.7876 76.3951 57.7157C76.1794 57.6438 75.9637 58.0034 76.1075 58.3629C75.9637 58.1472 75.8199 57.8596 75.8918 57.4281C75.8918 57.1404 75.8918 56.9966 75.7479 56.9247C75.676 56.9247 75.6041 56.9966 75.6041 56.9966V56.9247C75.676 56.8528 75.676 56.7809 75.676 56.6371C75.7479 56.2775 74.7412 56.2056 74.6693 56.1337C75.3884 57.2123 76.3951 58.9382 76.7547 60.5922H76.6828C76.7547 60.3765 76.6828 60.3046 76.3951 60.2327C76.3232 60.2327 76.1794 60.2327 76.1075 60.3046C75.8918 60.3046 75.676 60.5203 75.7479 60.8079C75.7479 60.8079 75.676 60.736 75.676 60.6641C75.676 60.5203 75.6041 60.3765 76.1075 60.0169C76.3951 59.7293 76.2513 59.5135 75.9637 59.5854C76.2513 59.2978 76.3951 59.0821 75.9637 58.9382C75.676 58.8663 75.4603 58.9382 75.2446 59.154C75.1726 59.0101 74.885 58.9382 74.7412 59.0101C74.5973 59.0821 74.3816 59.2978 74.5973 59.7293C74.6693 59.8731 74.5254 59.945 74.4535 59.7293C74.3816 59.5854 74.2378 59.4416 74.3816 58.8663C74.4535 58.5787 74.3097 58.4349 74.1659 58.4349C74.0221 58.3629 73.8782 58.3629 73.7344 58.5068C73.7344 58.3629 73.5187 58.1472 73.1591 58.2191C72.8715 58.291 72.7276 58.7225 73.0872 59.0821C72.7276 58.9382 72.3681 58.7225 72.2242 58.2191C72.0804 57.9315 71.9366 57.7876 71.7928 57.7876C71.7928 58.0034 71.7209 58.1472 71.7209 58.1472C71.7209 58.1472 71.7209 58.0753 71.649 58.0753C71.649 58.0034 71.7209 57.8596 71.649 57.7876C71.5051 57.4281 70.1388 57.8596 69.9231 57.8596C73.6625 59.7293 75.3884 62.0305 76.2513 63.7563C76.0356 63.6125 76.8985 64.1159 77.4738 64.4755Z" fill="url(#paint12_linear)"/>
<path d="M70.7141 57.2124C71.3613 58.4349 72.7996 59.7293 75.4603 60.2327C78.1211 60.808 77.7615 64.4036 74.3097 67.2801C70.0669 70.8037 48.781 80.1523 29.94 68.7183C18.8656 62.0305 40.1515 38.5153 60.5745 48.4391C65.3207 50.7403 68.341 53.1134 70.7141 57.2124Z" fill="url(#paint13_radial)"/>
<path d="M49.1405 73.8241C44.7539 72.4577 40.583 66.2014 42.237 61.9586C43.9629 57.7877 45.6887 56.0618 55.7564 55.6303C65.896 55.2707 68.341 53.9044 71.4332 52.0347C71.4332 52.0347 71.4332 49.7335 72.9434 49.7335C72.9434 49.7335 74.885 50.0931 73.8782 51.4594C72.9434 52.8257 73.3029 51.4594 73.3029 51.4594C73.3029 51.4594 75.8199 50.3088 76.1794 52.0347C76.539 53.7606 74.094 54.5516 73.1591 54.1202C73.1591 54.1202 66.1117 58.5787 64.9612 60.4484C63.2353 63.1811 62.8757 63.1811 61.5094 64.6193C61.5094 64.6193 63.5948 63.3968 66.687 66.0576C69.7073 68.7183 64.3139 78.4264 49.1405 73.8241Z" fill="url(#paint14_radial)"/>
<path d="M61.0779 55.6304C61.006 55.6304 60.9341 55.7023 60.9341 55.7023C61.006 55.7023 61.006 55.6304 61.0779 55.6304Z" fill="url(#paint15_radial)"/>
<path d="M49.7158 47.3605C49.7158 47.3605 49.4281 47.4324 48.8528 47.5043C48.5652 47.5762 48.2775 47.5762 47.918 47.72C47.5584 47.8639 47.1269 48.0077 46.6955 48.1515C44.8977 48.7987 42.6684 50.165 40.6549 51.819C38.6413 53.473 36.9154 55.4865 35.621 56.9967C34.9738 57.7877 34.4704 58.4349 34.1828 58.9383C33.8232 59.4417 33.6075 59.7293 33.6075 59.7293C33.3198 60.3046 33.4637 61.0238 34.0389 61.3114C34.6142 61.5991 35.2615 61.4552 35.5491 60.9518C35.5491 60.9518 35.6929 60.6642 35.9806 60.1608C36.2682 59.6574 36.6278 59.0102 37.2031 58.2192C38.2098 56.6371 39.72 54.5517 41.4459 52.7539C43.1718 50.9561 45.1853 49.374 46.8393 48.583C47.2708 48.3672 47.6303 48.2234 47.9899 48.0077C48.3494 47.8639 48.6371 47.7919 48.9247 47.72C49.4281 47.4324 49.7158 47.3605 49.7158 47.3605Z" fill="#FAB750"/>
<path d="M26.632 59.8012C26.2725 59.2978 25.841 58.7225 25.6253 58.1472C25.4095 57.5 25.6253 57.2123 26.4163 56.7089C26.7759 56.4932 27.0635 56.2056 27.4231 55.9898C27.7826 55.7741 28.0703 55.5584 28.4298 55.3426C29.077 54.9111 29.5804 54.4797 30.0838 54.1201C29.5085 54.192 28.7894 54.4078 28.0703 54.6954C27.7107 54.8392 27.3512 54.9831 26.9916 55.1988C26.632 55.4145 26.2725 55.6303 25.841 55.9179C25.6253 56.0617 25.4814 56.1337 25.2657 56.3494C25.05 56.4932 24.9062 56.7809 24.7623 56.9966C24.5466 57.5719 24.6904 58.1472 24.9062 58.5068C25.4814 59.154 26.1287 59.5135 26.632 59.8012Z" fill="#FBC27E"/>
<path d="M27.7107 64.2597C27.7826 62.39 28.4298 60.3046 29.6523 58.363C29.7962 58.1472 29.94 57.8596 30.1557 57.6438C30.2996 57.3562 30.5153 57.2124 30.731 56.9247C31.1625 56.4933 31.4501 55.9899 31.9535 55.5584C32.385 55.1269 32.8884 54.6235 33.3199 54.1921C33.7513 53.7606 34.3266 53.3291 34.7581 52.8977C36.7716 51.1718 39.0009 49.9493 41.1583 49.0863C43.3156 48.2234 45.4011 47.5762 47.127 46.929C45.3292 47.2885 43.1718 47.6481 40.8706 48.3672C38.5694 49.0863 36.1963 50.3088 34.039 52.1066C33.5356 52.5381 32.9603 52.9696 32.5288 53.4729C32.0974 53.9763 31.594 54.4078 31.1625 54.9112C30.731 55.3427 30.3715 55.918 29.94 56.4213C29.7243 56.709 29.5085 56.9247 29.3647 57.2124C29.2209 57.5 29.0771 57.7877 28.9332 58.0034C27.7826 60.0889 27.4231 62.39 27.7107 64.2597Z" fill="#FAB750"/>
<path d="M36.5559 72.3859C36.5559 72.3859 27.9984 64.4036 30.0838 61.8867C32.1693 59.4417 39.5762 55.7742 40.9426 55.4146C42.3089 55.0551 43.9629 55.6304 43.6033 56.5652C43.6033 56.5652 40.0077 58.6507 38.2818 59.8013C36.5559 60.9518 34.83 61.7429 35.2615 62.462C35.6211 63.253 39.8639 66.4891 41.5179 68.215C43.2437 69.8689 43.819 75.6219 36.5559 72.3859Z" fill="url(#paint16_linear)"/>
<path d="M41.0863 56.0618C41.0863 56.0618 40.2953 56.3494 39.1447 56.8528C38.5694 57.0685 37.9222 57.4281 37.2031 57.7877C36.484 58.1472 35.7649 58.5068 34.9738 58.9382C34.2547 59.3697 33.4637 59.7293 32.8165 60.1608C32.4569 60.3765 32.1693 60.5203 31.8097 60.736C31.5221 60.8799 31.1625 61.1675 30.8748 61.4552C30.5872 61.7428 30.4434 62.1743 30.3715 62.5338C30.3715 62.8934 30.3715 63.253 30.4434 63.4687C30.5872 63.9721 30.731 64.1878 30.731 64.1878C31.0187 64.6193 31.5221 64.6912 31.7378 64.4036C31.9535 64.1159 32.0254 63.7564 31.8097 63.4687C31.8097 63.4687 31.6659 63.3249 31.594 63.1091C31.5221 62.8934 31.4501 62.6058 31.6659 62.2462C31.8816 61.9585 32.6007 61.4552 33.2479 61.0237C33.8951 60.5203 34.6143 60.0888 35.2615 59.5855C35.9806 59.0821 36.6278 58.6506 37.3469 58.2191C37.9941 57.7877 38.6413 57.3562 39.2166 57.0685C40.3672 56.4932 41.0863 56.0618 41.0863 56.0618Z" fill="#FAB750"/>
<path d="M71.7928 52.7538C71.7928 52.7538 71.5051 53.2572 70.786 53.6886C70.4264 53.9763 69.995 54.192 69.4916 54.4078C68.9882 54.6235 68.4129 54.8392 67.6938 54.9831C66.3994 55.3426 64.8173 55.4864 63.0914 55.6303C62.2285 55.7022 61.3655 55.7741 60.5026 55.846C60.0711 55.9179 59.6396 55.9179 59.2082 55.9898C58.7767 55.9898 58.3452 55.9898 57.8418 56.0617C56.044 56.1336 54.2463 56.1336 52.5923 56.2056C52.1608 56.2056 51.8012 56.2056 51.2979 56.2775C50.8664 56.2775 50.4349 56.3494 50.0034 56.4213C49.7877 56.4213 49.572 56.4932 49.3562 56.4932C49.1405 56.5651 48.9967 56.5651 48.7809 56.637C48.4214 56.7089 48.0618 56.8528 47.7023 56.9966C46.3359 57.5719 45.3292 58.4348 44.682 59.0101C44.0347 59.6573 43.7471 60.0888 43.7471 60.1607C43.1718 60.9518 43.3875 61.9585 43.9628 62.1743C44.5381 62.39 45.2572 62.0304 45.6168 61.4551C45.6168 61.4551 45.6887 61.3832 45.7606 61.1675C45.9045 61.0237 46.0483 60.8079 46.264 60.5203C46.6955 60.0169 47.4146 59.2978 48.4933 58.7225C48.9967 58.4348 49.6439 58.2191 50.2911 58.0753C50.6507 58.0034 51.0102 57.9314 51.3698 57.8595C51.7293 57.7876 52.1608 57.7876 52.5923 57.7157C54.3182 57.5 56.116 57.3562 57.9138 57.1404C58.3452 57.0685 58.8486 57.0685 59.2801 56.9966C59.7116 56.9247 60.143 56.8528 60.5745 56.7809C61.4375 56.637 62.3004 56.4932 63.1633 56.3494C64.8173 56.0617 66.3994 55.7741 67.7657 55.2707C68.4129 55.055 68.9882 54.7673 69.5635 54.4797C70.0669 54.192 70.4984 53.9044 70.786 53.6167C71.5051 53.2572 71.7928 52.7538 71.7928 52.7538Z" fill="#ED923B"/>
<path d="M72.0085 51.6032C72.1523 51.2437 72.3681 50.8841 72.5838 50.7403C72.7995 50.5964 73.1591 50.5245 73.5187 50.4526C73.3748 50.3088 73.231 50.165 73.0153 50.0931C72.7995 50.0211 72.44 50.0211 72.2242 50.2369C71.9366 50.4526 71.8647 50.7403 71.8647 50.956C71.8647 51.2436 71.9366 51.4594 72.0085 51.6032Z" fill="#FAB750"/>
<path d="M74.1659 52.3223C74.4535 52.1785 74.7412 51.9628 74.885 51.9628C75.0288 51.8909 75.3165 51.8909 75.676 51.9628C75.676 51.819 75.6041 51.6032 75.3884 51.4594C75.2445 51.3156 74.9569 51.2437 74.6692 51.3156C74.1659 51.6032 74.0939 52.0347 74.1659 52.3223Z" fill="#FAB750"/>
<path d="M43.3876 56.7809C43.3876 56.7809 42.3089 57.5 40.6549 58.5068C39.8639 59.0102 38.929 59.6574 37.8503 60.3046C37.3469 60.5922 36.8436 60.9518 36.2683 61.3113C35.693 61.6709 35.2615 61.9585 34.4705 62.4619C34.6143 62.8215 34.9019 63.253 35.1177 63.4687C35.3334 63.7564 35.5491 63.9721 35.7649 64.1878C36.1963 64.6193 36.6278 65.0508 37.0593 65.4822C37.8503 66.3452 38.5694 67.2081 39.1447 67.9992C39.72 68.7902 40.0796 69.4374 40.2953 69.9408C40.5111 70.4442 40.583 70.7318 40.6549 70.7318C40.8706 71.2352 41.1583 71.5948 41.5897 71.5948C41.9493 71.5948 42.237 70.9476 41.9493 70.3003C41.9493 70.3003 41.8774 70.2284 41.8055 70.0127C41.7336 69.8689 41.6617 69.6531 41.4459 69.3655C41.1583 68.8621 40.6549 68.143 40.0077 67.352C39.3605 66.5609 38.5694 65.7699 37.6346 64.9069C37.2031 64.4755 36.6997 64.044 36.1963 63.6844C35.9806 63.4687 35.7649 63.3249 35.5491 63.1091L35.3334 62.8934C35.3334 62.8215 35.2615 62.8215 35.2615 62.7496C39.4324 59.6574 43.3876 56.7809 43.3876 56.7809Z" fill="#893012"/>
<path d="M76.0356 51.9628C76.0356 51.9628 76.0356 52.0347 76.0356 52.1785C76.0356 52.2504 76.0356 52.3223 76.0356 52.4662C76.0356 52.61 75.9637 52.7538 75.8918 52.8976C75.5322 53.5448 74.4535 53.9763 72.9434 54.1201C71.649 54.8392 67.8376 56.637 64.9611 59.2259C63.5229 60.5203 62.3723 61.9585 61.5813 63.0372C61.1498 63.5406 60.8622 64.044 60.6464 64.3316C60.4307 64.6193 60.2869 64.7631 60.2869 64.835C60.143 65.0508 59.9992 65.2665 59.9992 65.4103C59.9992 65.5541 59.9992 65.698 59.9992 65.9137C59.9992 66.1294 60.2149 66.2733 60.5745 66.2013C60.8622 66.1294 61.1498 65.9137 61.3655 65.626C61.3655 65.626 61.4374 65.5541 61.4374 65.4822C61.5094 65.4103 61.5813 65.2665 61.7251 65.1227C61.9408 64.835 62.2285 64.3316 62.588 63.7563C63.3072 62.6777 64.3139 61.1675 65.6083 59.8731C66.8309 58.5068 68.4129 57.3562 69.7792 56.3494C70.4984 55.846 71.1456 55.4145 71.649 55.055C71.9366 54.8392 72.1523 54.6954 72.44 54.5516C72.6557 54.4078 72.7995 54.264 72.9434 54.192C74.4535 53.9763 75.5322 53.5448 75.8918 52.8976C75.9637 52.7538 76.0356 52.61 76.0356 52.4662C76.0356 52.3223 76.0356 52.2504 76.0356 52.1785C76.1075 52.0347 76.0356 51.9628 76.0356 51.9628Z" fill="#6F270A"/>
<path d="M43.0999 68.5745C42.165 66.4891 42.5965 66.6329 43.5313 68.6464C44.1785 69.5813 44.8977 70.8038 46.1921 71.7386C47.4146 72.6735 48.9247 73.4645 50.6506 73.8241C52.3765 74.2556 54.2462 74.3994 56.1159 74.2556C57.9856 74.1117 59.8554 73.8241 61.5093 73.2488C63.1633 72.6735 64.6735 71.8106 65.5364 70.66C65.9679 70.0847 66.1836 69.4375 66.2555 68.8622C66.3274 68.2869 66.1836 67.6397 66.0398 67.2082C65.6802 66.2733 64.8892 65.7699 64.3139 65.4823C63.7386 65.1946 63.379 65.1227 63.379 65.1227C62.3723 64.8351 61.5812 64.5474 61.5812 64.116C61.5812 63.7564 62.588 63.4688 63.8105 63.8283C63.8105 63.8283 64.242 63.9721 64.9611 64.3317C65.3207 64.4755 65.7521 64.7632 66.1836 65.1947C66.6151 65.6261 67.0466 66.1295 67.2623 66.8486C67.478 67.5677 67.6218 68.2869 67.478 69.1498C67.3342 70.0128 66.9746 70.8038 66.3993 71.5229C65.2488 72.8892 63.5229 73.7522 61.7251 74.3275C59.9273 74.9028 57.9137 75.1185 55.9721 75.1904C54.0305 75.1904 52.0889 75.0466 50.2911 74.4713C48.4933 73.9679 46.9112 73.0331 45.6887 72.0263C45.0415 71.5229 44.61 70.8757 44.1066 70.3723C43.8909 70.0847 43.7471 69.797 43.5313 69.5094C43.3875 69.1498 43.1718 68.8622 43.0999 68.5745Z" fill="#6F270A"/>
<path d="M66.9027 46.4256C66.687 46.3536 66.4713 46.2817 66.1836 46.3536C65.896 46.3536 65.6083 46.5694 65.3926 46.857C65.033 47.4323 65.1769 48.0076 65.3207 48.3672C65.3926 48.0076 65.4645 47.4323 65.7522 47.0728C65.9679 46.6413 66.4713 46.4975 66.9027 46.4256Z" fill="#D69932"/>
<path d="M51.0102 47.72C51.0821 48.0077 50.8664 48.2234 50.5788 48.2953C50.2911 48.3673 50.0754 48.1515 50.0035 47.8639C49.9316 47.5762 50.1473 47.3605 50.4349 47.2886C50.7226 47.2886 50.9383 47.4324 51.0102 47.72Z" fill="#732F0C"/>
<path d="M48.7091 48.9426C48.7091 49.0864 48.6372 49.3021 48.4214 49.3021C48.2776 49.3021 48.0619 49.2302 48.0619 49.0145C48.0619 48.8706 48.1338 48.6549 48.3495 48.6549C48.4933 48.6549 48.6372 48.7987 48.7091 48.9426Z" fill="#732F0C"/>
<path d="M42.3808 52.7538C42.3808 52.8976 42.3089 53.0415 42.1651 53.0415C42.0213 53.0415 41.8774 52.9696 41.8774 52.8257C41.8774 52.6819 41.9494 52.5381 42.0932 52.5381C42.237 52.5381 42.3808 52.61 42.3808 52.7538Z" fill="#732F0C"/>
<path d="M45.1854 48.4391C45.2573 48.5829 45.1854 48.7268 45.0415 48.7268C44.8977 48.7987 44.7539 48.7268 44.7539 48.5829C44.682 48.4391 44.7539 48.2953 44.8977 48.2953C44.9696 48.2953 45.1134 48.2953 45.1854 48.4391Z" fill="#732F0C"/>
<path d="M43.028 49.3022C43.0999 49.446 43.028 49.5898 42.8842 49.6617C42.7404 49.7336 42.5966 49.6617 42.5246 49.5179C42.4527 49.3741 42.5246 49.2303 42.6685 49.1583C42.8123 49.0864 43.028 49.1583 43.028 49.3022Z" fill="#732F0C"/>
<path d="M41.9493 49.8055C42.0212 50.0212 41.9493 50.3089 41.6617 50.3808C41.446 50.4527 41.1583 50.3808 41.0864 50.0931C41.0145 49.8774 41.0864 49.5898 41.374 49.5179C41.5898 49.4459 41.8774 49.5898 41.9493 49.8055Z" fill="#732F0C"/>
<path d="M38.7852 51.8909C38.8571 52.1067 38.7852 52.3224 38.5695 52.3943C38.3537 52.4662 38.138 52.3943 38.0661 52.1786C37.9942 51.9629 38.0661 51.7471 38.2818 51.6752C38.4257 51.5314 38.6414 51.6752 38.7852 51.8909Z" fill="#732F0C"/>
<path d="M36.1245 54.6235C36.1964 54.7674 36.1964 54.9112 36.0525 55.055C35.9087 55.1269 35.7649 55.1269 35.693 54.9831C35.6211 54.8393 35.6211 54.6955 35.7649 54.5516C35.8368 54.4797 35.9806 54.4797 36.1245 54.6235Z" fill="#732F0C"/>
<path d="M34.902 55.4865C35.0458 55.6303 35.0458 55.918 34.83 56.0618C34.6862 56.2056 34.3986 56.2056 34.2547 55.9899C34.1109 55.846 34.1109 55.5584 34.3267 55.4146C34.4705 55.2708 34.7581 55.3427 34.902 55.4865Z" fill="#732F0C"/>
<path d="M32.8165 56.0618C32.9603 56.2056 32.8884 56.4214 32.7446 56.4933C32.6008 56.6371 32.385 56.5652 32.3131 56.4214C32.1693 56.2775 32.2412 56.0618 32.385 55.9899C32.457 55.8461 32.6727 55.918 32.8165 56.0618Z" fill="#732F0C"/>
<path d="M32.457 57.2843C32.6727 57.2843 32.7446 57.5 32.7446 57.7158C32.7446 57.9315 32.5289 58.0034 32.3131 58.0034C32.0974 58.0034 32.0255 57.7877 32.0255 57.572C32.0974 57.4281 32.2412 57.2843 32.457 57.2843Z" fill="#732F0C"/>
<path d="M32.0974 57.8596C32.1693 57.8596 32.2412 57.9315 32.2412 58.0754C32.2412 58.1473 32.1693 58.2192 32.0255 58.2192C31.9536 58.2192 31.8817 58.0754 31.8817 58.0035C31.9536 57.8596 32.0255 57.7877 32.0974 57.8596Z" fill="#732F0C"/>
<path d="M30.9468 59.0822C31.2344 59.1541 31.3783 59.3698 31.3064 59.6574C31.2344 59.9451 31.0187 60.0889 30.7311 60.017C30.4434 59.9451 30.2996 59.7294 30.3715 59.4417C30.4434 59.226 30.6592 59.0822 30.9468 59.0822Z" fill="#732F0C"/>
<path d="M31.2344 63.325C31.3064 63.325 31.3783 63.4688 31.3783 63.5407C31.3783 63.6126 31.2344 63.6845 31.1625 63.6845C31.0906 63.6845 31.0187 63.5407 31.0187 63.4688C31.0187 63.3969 31.0906 63.325 31.2344 63.325Z" fill="#732F0C"/>
<path d="M64.5297 51.747C64.4578 51.8908 64.3139 51.8908 64.242 51.8908C64.0982 51.8189 64.0982 51.6751 64.0982 51.6032C64.1701 51.4594 64.3139 51.3875 64.3859 51.4594C64.4578 51.4594 64.5297 51.6032 64.5297 51.747Z" fill="#732F0C"/>
<path d="M61.006 51.3875C60.9341 51.6032 60.6464 51.747 60.3588 51.6751C60.143 51.6032 59.9992 51.3156 60.0711 51.0279C60.143 50.8122 60.4307 50.6684 60.7183 50.7403C60.9341 50.8122 61.0779 51.0998 61.006 51.3875Z" fill="#732F0C"/>
<path d="M60.4307 51.1718C60.4307 51.2437 60.2868 51.3156 60.2149 51.2437C60.143 51.2437 60.0711 51.0999 60.143 51.028C60.143 50.9561 60.2868 50.8841 60.3587 50.9561C60.4307 50.9561 60.4307 51.028 60.4307 51.1718Z" fill="#732F0C"/>
<path d="M56.6193 49.5178C56.6193 49.6616 56.5474 49.8055 56.4036 49.8055C56.2598 49.8055 56.1159 49.7336 56.1159 49.5897C56.1159 49.4459 56.1878 49.3021 56.3317 49.3021C56.4755 49.2302 56.6193 49.374 56.6193 49.5178Z" fill="#732F0C"/>
<path d="M56.4036 49.6616C56.4036 49.9492 56.2598 50.165 55.9721 50.2369C55.6845 50.2369 55.4687 50.0931 55.3968 49.8054C55.3968 49.5178 55.5406 49.302 55.8283 49.2301C56.1159 49.2301 56.3317 49.4458 56.4036 49.6616Z" fill="#732F0C"/>
<path d="M54.6777 50.3808C54.6777 50.5246 54.6058 50.5965 54.462 50.5965C54.3182 50.5965 54.2462 50.5246 54.2462 50.3808C54.2462 50.237 54.3182 50.165 54.462 50.165C54.6058 50.165 54.6777 50.237 54.6777 50.3808Z" fill="#732F0C"/>
<path d="M53.2394 49.302C53.2394 49.374 53.1675 49.5178 53.0956 49.5178C53.0237 49.5178 52.8799 49.4459 52.8799 49.374C52.8799 49.302 52.9518 49.1582 53.0237 49.1582C53.0956 49.0863 53.2394 49.1582 53.2394 49.302Z" fill="#732F0C"/>
<path d="M52.8799 50.956C52.8799 51.2437 52.7361 51.4594 52.4484 51.4594C52.1608 51.4594 51.945 51.3156 51.945 51.0279C51.945 50.7403 52.0889 50.5246 52.3765 50.5246C52.6642 50.4526 52.8799 50.6684 52.8799 50.956Z" fill="#732F0C"/>
<path d="M49.3562 51.028C49.4281 51.0999 49.3562 51.2437 49.2843 51.3156C49.2124 51.3875 49.0686 51.3156 48.9966 51.2437C48.9247 51.1718 48.9966 51.028 49.0686 50.9561C49.1405 50.9561 49.2843 50.9561 49.3562 51.028Z" fill="#732F0C"/>
<path d="M45.6887 52.4662C45.7606 52.5381 45.6887 52.6819 45.6168 52.7539C45.5449 52.8258 45.4011 52.7539 45.3292 52.6819C45.2573 52.61 45.3292 52.4662 45.4011 52.3943C45.473 52.3224 45.6168 52.3943 45.6887 52.4662Z" fill="#732F0C"/>
<path d="M45.8325 52.8976C45.9764 53.1133 45.9044 53.401 45.6887 53.5448C45.473 53.6886 45.1853 53.6167 45.0415 53.401C44.8977 53.1853 44.9696 52.8976 45.1853 52.7538C45.4011 52.61 45.6887 52.6819 45.8325 52.8976Z" fill="#732F0C"/>
<path d="M42.8841 54.9831C43.0279 55.1988 42.956 55.4864 42.7403 55.6303C42.5245 55.7741 42.2369 55.7022 42.0931 55.4864C41.9493 55.2707 42.0212 54.9831 42.2369 54.8392C42.4526 54.6954 42.8122 54.7673 42.8841 54.9831Z" fill="#732F0C"/>
<path d="M40.0076 57.2843C40.2953 57.3562 40.4391 57.6439 40.2953 57.9315C40.2234 58.2192 39.9357 58.363 39.6481 58.2192C39.3604 58.1473 39.2166 57.8596 39.3604 57.572C39.4324 57.3562 39.72 57.2124 40.0076 57.2843Z" fill="#732F0C"/>
<path d="M39.1448 59.8732C39.2886 59.9451 39.3605 60.0889 39.2886 60.2327C39.2167 60.3766 39.0728 60.4485 38.929 60.3766C38.7852 60.3046 38.7133 60.1608 38.7852 60.017C38.8571 59.9451 39.0009 59.8732 39.1448 59.8732Z" fill="#732F0C"/>
<path d="M38.7852 61.2394C38.8571 61.3113 38.929 61.3832 38.929 61.4551C38.8571 61.527 38.7852 61.599 38.7133 61.599C38.6414 61.527 38.5695 61.4551 38.5695 61.3832C38.5695 61.2394 38.6414 61.1675 38.7852 61.2394Z" fill="#732F0C"/>
<path d="M37.5626 63.9721C37.7784 64.044 37.9222 64.3316 37.8503 64.5474C37.7784 64.7631 37.4907 64.9069 37.275 64.835C37.0592 64.7631 36.9154 64.4755 36.9873 64.2597C37.0592 64.044 37.3469 63.9002 37.5626 63.9721Z" fill="#732F0C"/>
<path d="M36.9874 65.2665C37.275 65.3385 37.3469 65.6261 37.275 65.9138C37.2031 66.2014 36.9154 66.2733 36.6278 66.2014C36.3401 66.1295 36.2682 65.8418 36.3401 65.5542C36.484 65.2665 36.7716 65.1946 36.9874 65.2665Z" fill="#732F0C"/>
<path d="M61.797 57.5001C61.8689 57.7158 61.7251 57.8596 61.5093 57.9315C61.2936 58.0035 61.1498 57.8596 61.0778 57.6439C61.0059 57.4282 61.1498 57.2843 61.3655 57.2124C61.5093 57.1405 61.7251 57.2843 61.797 57.5001Z" fill="#732F0C"/>
<path d="M61.7251 58.4349C61.797 58.7225 61.5812 59.0102 61.3655 59.0821C61.0779 59.154 60.7902 58.9383 60.7183 58.7225C60.6464 58.4349 60.8621 58.1472 61.0779 58.0753C61.3655 57.9315 61.6532 58.1472 61.7251 58.4349Z" fill="#732F0C"/>
<path d="M59.0643 58.0753C59.1362 58.2191 58.9924 58.363 58.8486 58.4349C58.7047 58.5068 58.5609 58.363 58.489 58.2191C58.489 58.0753 58.5609 57.8596 58.7048 57.8596C58.8486 57.7877 58.9924 57.9315 59.0643 58.0753Z" fill="#732F0C"/>
<path d="M58.2733 58.6506C58.2733 58.7945 58.2014 58.9383 58.0576 59.0102C57.9138 59.0821 57.7699 58.9383 57.698 58.7945C57.698 58.6506 57.7699 58.4349 57.9138 58.4349C58.1295 58.363 58.2733 58.5068 58.2733 58.6506Z" fill="#732F0C"/>
<path d="M57.6261 59.9451C57.698 60.017 57.6261 60.1608 57.5542 60.2327C57.4823 60.3046 57.3385 60.2327 57.2665 60.1608C57.1946 60.0889 57.2665 59.9451 57.3385 59.8732C57.4823 59.8013 57.6261 59.8732 57.6261 59.9451Z" fill="#732F0C"/>
<path d="M54.8934 60.8081C55.0373 61.0238 54.8934 61.3834 54.6777 61.4553C54.462 61.5991 54.1024 61.4553 54.0305 61.2395C53.8867 61.0238 54.0305 60.6642 54.2462 60.5923C54.462 60.4485 54.7496 60.5923 54.8934 60.8081Z" fill="#732F0C"/>
<path d="M53.599 60.3766C53.6709 60.5924 53.599 60.8081 53.4552 60.88C53.2394 60.9519 53.0237 60.88 52.9518 60.7362C52.8799 60.5204 52.9518 60.3047 53.0956 60.2328C53.3114 60.1609 53.5271 60.2328 53.599 60.3766Z" fill="#732F0C"/>
<path d="M52.017 62.8216C52.2327 62.8935 52.3765 63.1811 52.3046 63.3969C52.2327 63.6126 51.9451 63.7564 51.7293 63.6845C51.5136 63.6126 51.3698 63.3249 51.4417 63.1092C51.5136 62.8935 51.8012 62.7497 52.017 62.8216Z" fill="#732F0C"/>
<path d="M50.7226 64.1161C50.9383 64.188 51.0102 64.4037 50.9383 64.6194C50.8664 64.8352 50.6506 64.9071 50.4349 64.8352C50.2192 64.7633 50.1473 64.5475 50.2192 64.3318C50.2911 64.188 50.5068 64.0441 50.7226 64.1161Z" fill="#732F0C"/>
<path d="M51.7293 65.4823C51.9451 65.5542 52.0889 65.8419 52.017 66.0576C51.945 66.2734 51.6574 66.4172 51.4417 66.3453C51.2259 66.2734 51.0821 65.9857 51.154 65.77C51.2259 65.4823 51.5136 65.3385 51.7293 65.4823Z" fill="#732F0C"/>
<path d="M52.5923 68.6464C52.7361 68.5026 52.9518 68.5026 53.0957 68.6464C53.2395 68.7903 53.2395 69.006 53.0957 69.1498C52.9518 69.2937 52.7361 69.2937 52.5923 69.1498C52.4484 69.006 52.4484 68.7903 52.5923 68.6464Z" fill="#732F0C"/>
<path d="M54.8215 71.4511C54.8215 71.3792 54.9654 71.3073 55.0373 71.3073C55.1092 71.3073 55.1811 71.4511 55.1811 71.523C55.1811 71.5949 55.0373 71.6668 54.9654 71.6668C54.8215 71.6668 54.7496 71.523 54.8215 71.4511Z" fill="#732F0C"/>
<path d="M58.3452 72.9612C58.4171 72.7455 58.5609 72.6736 58.7767 72.7455C58.9924 72.8174 59.0643 72.9612 58.9924 73.1769C58.9205 73.3927 58.7767 73.4646 58.5609 73.3927C58.3452 73.3927 58.2733 73.1769 58.3452 72.9612Z" fill="#732F0C"/>
<path d="M59.1363 72.1701C59.2082 71.9544 59.4239 71.8106 59.7116 71.8825C59.9273 71.9544 60.0711 72.1701 59.9992 72.4578C59.9273 72.6735 59.7116 72.8173 59.4239 72.8173C59.2082 72.6735 59.0644 72.4578 59.1363 72.1701Z" fill="#732F0C"/>
<path d="M50.4349 66.9204C50.2911 66.9924 50.0754 66.9924 49.9316 66.7766C49.8596 66.6328 49.8596 66.4171 50.0754 66.2732C50.2192 66.2013 50.4349 66.2013 50.5788 66.4171C50.6507 66.6328 50.5788 66.8485 50.4349 66.9204Z" fill="#732F0C"/>
<path d="M50.3631 64.4036C50.1473 64.4036 50.0035 64.2597 50.0035 64.044C50.0035 63.8283 50.1473 63.6844 50.3631 63.6844C50.5788 63.6844 50.7226 63.8283 50.7226 64.044C50.7226 64.1878 50.5788 64.3317 50.3631 64.4036Z" fill="#732F0C"/>
<path d="M49.572 63.1811C49.4282 63.1811 49.3563 63.1092 49.3563 62.9654C49.3563 62.8215 49.4282 62.7496 49.572 62.7496C49.7158 62.7496 49.7877 62.8215 49.7877 62.9654C49.7877 63.1092 49.7158 63.1811 49.572 63.1811Z" fill="#732F0C"/>
<path d="M50.363 63.6844C50.2911 63.5406 50.363 63.4687 50.5068 63.3967C50.6507 63.3248 50.7226 63.3967 50.7945 63.5406C50.8664 63.6844 50.7945 63.7563 50.6507 63.8282C50.5068 63.9001 50.363 63.8282 50.363 63.6844Z" fill="#732F0C"/>
<path d="M50.0754 62.7496C50.0035 62.6058 50.0754 62.39 50.2192 62.3181C50.363 62.2462 50.5788 62.3181 50.6507 62.4619C50.7226 62.6058 50.6507 62.8215 50.5069 62.8934C50.363 62.9653 50.1473 62.8934 50.0754 62.7496Z" fill="#732F0C"/>
<path d="M51.8732 61.9586C51.8013 61.8866 51.8732 61.7428 51.9451 61.6709C52.017 61.599 52.1608 61.6709 52.2328 61.7428C52.3047 61.8147 52.2328 61.9586 52.1608 62.0305C52.0889 62.1024 51.9451 62.1024 51.8732 61.9586Z" fill="#732F0C"/>
<path d="M52.017 71.8105C51.945 71.9543 51.8012 71.9543 51.7293 71.9543C51.5855 71.8824 51.5855 71.7386 51.5855 71.6667C51.6574 71.5228 51.8012 71.5228 51.8731 71.5228C52.017 71.5228 52.0889 71.6667 52.017 71.8105Z" fill="#732F0C"/>
<path d="M51.0102 69.9408C50.8663 70.2285 50.5787 70.3004 50.363 70.2285C50.0753 70.0846 50.0034 69.797 50.0753 69.5813C50.2191 69.2936 50.5068 69.1498 50.7225 69.2936C51.0102 69.3655 51.154 69.6532 51.0102 69.9408Z" fill="#732F0C"/>
<path d="M49.0685 68.7183C48.9247 68.934 48.6371 68.934 48.4933 68.7902C48.2775 68.6463 48.2775 68.3587 48.4213 68.2149C48.5652 67.9991 48.8528 67.9991 48.9966 68.143C49.2124 68.2149 49.2124 68.5025 49.0685 68.7183Z" fill="#732F0C"/>
<path d="M46.1202 67.0643C45.9764 67.2081 45.7606 67.2801 45.6168 67.1362C45.473 66.9924 45.4011 66.7767 45.5449 66.6329C45.6887 66.489 45.9044 66.4171 46.0483 66.5609C46.1921 66.7048 46.264 66.9205 46.1202 67.0643Z" fill="#732F0C"/>
<path d="M45.6168 67.0643C45.473 67.0643 45.4011 66.9205 45.4011 66.8485C45.4011 66.7047 45.5449 66.6328 45.6168 66.6328C45.7607 66.6328 45.8326 66.7766 45.8326 66.8485C45.8326 66.9205 45.6887 67.0643 45.6168 67.0643Z" fill="#732F0C"/>
<path d="M44.8977 63.1092C44.8258 63.1092 44.7538 63.0373 44.7538 62.9654C44.7538 62.8934 44.8258 62.8215 44.8977 62.8215C44.9696 62.8215 45.0415 62.8934 45.0415 62.9654C45.1134 63.0373 45.0415 63.1092 44.8977 63.1092Z" fill="#732F0C"/>
<path d="M48.0618 62.8934C47.9899 62.6777 48.0618 62.4619 48.2056 62.39C48.4213 62.3181 48.6371 62.39 48.709 62.5339C48.7809 62.7496 48.709 62.9653 48.5652 63.0372C48.3494 63.1811 48.1337 63.1091 48.0618 62.8934Z" fill="#732F0C"/>
<path d="M47.4146 61.4552C47.2707 61.2395 47.3427 60.8799 47.6303 60.808C47.846 60.6642 48.2056 60.7361 48.2775 61.0237C48.4213 61.2395 48.3494 61.599 48.0618 61.6709C47.846 61.8148 47.5584 61.7429 47.4146 61.4552Z" fill="#732F0C"/>
<path d="M50.0034 60.4484C49.9315 60.3765 50.0034 60.2327 50.0753 60.2327C50.1472 60.1608 50.2911 60.2327 50.2911 60.3046C50.363 60.3765 50.2911 60.5203 50.2192 60.5203C50.1472 60.5922 50.0034 60.5922 50.0034 60.4484Z" fill="#732F0C"/>
<path d="M73.5186 62.2463C73.4467 62.3901 73.3029 62.3901 73.1591 62.3182C73.0152 62.2463 73.0152 62.1025 73.0872 61.9586C73.1591 61.8148 73.3029 61.8148 73.4467 61.8867C73.5905 61.9586 73.5905 62.1025 73.5186 62.2463Z" fill="#732F0C"/>
<path d="M71.1456 61.0956C71.0018 61.3113 70.7141 61.3113 70.5703 61.1675C70.3545 61.0237 70.3545 60.736 70.4984 60.5922C70.6422 60.3765 70.9298 60.3765 71.0737 60.5203C71.2894 60.6641 71.2894 60.9518 71.1456 61.0956Z" fill="#732F0C"/>
<path d="M71.0017 60.8799C70.8579 61.0956 70.5702 61.0956 70.4264 60.9518C70.2107 60.808 70.2107 60.5203 70.3545 60.3765C70.4983 60.1608 70.786 60.1608 70.9298 60.3046C71.1455 60.4484 71.1455 60.6641 71.0017 60.8799Z" fill="#732F0C"/>
<path d="M67.7657 59.082C67.7657 59.2259 67.6219 59.3697 67.4781 59.2978C67.3342 59.2978 67.1904 59.154 67.2623 59.0101C67.2623 58.8663 67.4061 58.7225 67.55 58.7944C67.6938 58.7944 67.7657 58.9382 67.7657 59.082Z" fill="#732F0C"/>
<path d="M63.379 60.7361C63.5948 60.8799 63.5948 61.2395 63.451 61.4552C63.3071 61.6709 62.9476 61.6709 62.7318 61.5271C62.5161 61.3833 62.5161 61.0237 62.6599 60.808C62.8757 60.5923 63.1633 60.5204 63.379 60.7361Z" fill="#732F0C"/>
<path d="M62.1565 64.1879C62.3723 64.1159 62.588 64.1879 62.7318 64.4036C62.8038 64.6193 62.7318 64.8351 62.5161 64.9789C62.3004 65.0508 62.0846 64.9789 61.9408 64.7631C61.8689 64.5474 61.9408 64.3317 62.1565 64.1879Z" fill="#732F0C"/>
<path d="M64.8173 67.1363C64.8892 66.8487 65.105 66.7048 65.3926 66.7767C65.6803 66.8487 65.8241 67.0644 65.7522 67.3521C65.6803 67.6397 65.4645 67.7835 65.1769 67.7116C64.8892 67.6397 64.7454 67.424 64.8173 67.1363Z" fill="#732F0C"/>
<path d="M66.9028 67.2801C66.9747 67.0644 67.1904 66.9205 67.4062 66.9925C67.6219 67.0644 67.7657 67.2801 67.6938 67.4958C67.6219 67.7116 67.4062 67.8554 67.1904 67.7835C66.9747 67.7116 66.8309 67.4958 66.9028 67.2801Z" fill="#732F0C"/>
<path d="M68.2691 66.8486C68.1253 66.7047 68.1253 66.4171 68.2691 66.2733C68.4129 66.1294 68.7006 66.1294 68.8444 66.2733C68.9882 66.4171 68.9882 66.7047 68.8444 66.8486C68.7006 66.9924 68.4129 66.9924 68.2691 66.8486Z" fill="#732F0C"/>
<path d="M70.714 63.6844C70.5702 63.7564 70.3545 63.6844 70.2826 63.5406C70.2107 63.3968 70.2826 63.1811 70.4264 63.1091C70.5702 63.0372 70.786 63.1091 70.8579 63.253C70.9298 63.3968 70.8579 63.6125 70.714 63.6844Z" fill="#732F0C"/>
<path d="M69.5635 63.1091C69.4197 63.181 69.2039 63.1091 69.132 62.9653C69.0601 62.8215 69.132 62.6057 69.2759 62.5338C69.4197 62.4619 69.6354 62.5338 69.7073 62.6777C69.7792 62.8215 69.7073 63.0372 69.5635 63.1091Z" fill="#732F0C"/>
<path d="M68.8443 59.5855C68.7724 59.6574 68.6286 59.6574 68.5567 59.5136C68.4848 59.4417 68.4848 59.2979 68.6286 59.2259C68.7005 59.154 68.8443 59.154 68.9163 59.2979C68.9882 59.3698 68.9163 59.5136 68.8443 59.5855Z" fill="#732F0C"/>
<path d="M65.2487 57.1404C65.1768 57.2123 65.033 57.2123 64.9611 57.1404C64.8892 57.0685 64.8892 56.9247 64.9611 56.8528C65.033 56.7809 65.1768 56.7809 65.2487 56.8528C65.3926 56.9247 65.3926 57.0685 65.2487 57.1404Z" fill="#732F0C"/>
<path d="M63.0195 55.7022C62.9476 55.918 62.66 55.9899 62.4442 55.918C62.2285 55.8461 62.1566 55.5584 62.2285 55.3427C62.3004 55.1269 62.5881 55.055 62.8038 55.1269C63.0195 55.2708 63.0915 55.4865 63.0195 55.7022Z" fill="#732F0C"/>
<path d="M60.2868 54.1202C60.2149 54.264 60.0711 54.264 59.9992 54.1921C59.8554 54.1202 59.8554 53.9763 59.9273 53.9044C59.9992 53.7606 60.143 53.7606 60.2149 53.8325C60.2868 53.9044 60.3587 54.0482 60.2868 54.1202Z" fill="#732F0C"/>
<path d="M59.352 53.401C59.2801 53.5449 59.1363 53.5449 59.0643 53.473C58.9205 53.401 58.9205 53.2572 58.9924 53.1853C59.0643 53.0415 59.2082 53.0415 59.2801 53.1134C59.352 53.1134 59.4239 53.2572 59.352 53.401Z" fill="#732F0C"/>
<path d="M56.116 54.9112C56.116 55.127 55.9002 55.3427 55.6126 55.3427C55.3969 55.3427 55.1811 55.127 55.1811 54.8393C55.1811 54.6236 55.3969 54.4078 55.6845 54.4078C55.9722 54.4797 56.116 54.6955 56.116 54.9112Z" fill="#732F0C"/>
<path d="M54.8934 53.6168C54.8934 53.9044 54.6777 54.0483 54.3901 54.0483C54.1024 54.0483 53.9586 53.8325 53.9586 53.5449C53.9586 53.2572 54.1743 53.1134 54.462 53.1134C54.7496 53.1134 54.9653 53.3291 54.8934 53.6168Z" fill="#732F0C"/>
<path d="M53.4553 54.1202C53.4553 54.1921 53.3834 54.264 53.2395 54.264C53.1676 54.264 53.0957 54.1921 53.0957 54.0482C53.0957 53.9763 53.1676 53.9044 53.3114 53.9044C53.3834 53.9763 53.4553 54.0482 53.4553 54.1202Z" fill="#732F0C"/>
<path d="M51.226 54.6955C51.226 54.7674 51.226 54.9112 51.0821 54.9112C51.0102 54.9112 50.8664 54.9112 50.8664 54.7674C50.8664 54.6955 50.8664 54.5516 51.0102 54.5516C51.0821 54.5516 51.226 54.5516 51.226 54.6955Z" fill="#732F0C"/>
<path d="M50.7945 54.9831C50.8664 55.2708 50.7226 55.4865 50.4349 55.5584C50.1473 55.6303 49.9315 55.4865 49.8596 55.1988C49.7877 54.9112 49.9315 54.6955 50.2192 54.6236C50.4349 54.5516 50.7226 54.6955 50.7945 54.9831Z" fill="#732F0C"/>
<path d="M47.5584 55.4146C47.5584 55.5584 47.4865 55.6303 47.4146 55.7022C47.2708 55.7022 47.1989 55.6303 47.127 55.5584C47.127 55.4146 47.1989 55.3427 47.2708 55.2708C47.4146 55.2708 47.5584 55.3427 47.5584 55.4146Z" fill="#732F0C"/>
<path d="M44.61 57.6439C44.8258 57.8596 44.8258 58.1472 44.61 58.363C44.3943 58.5787 44.1067 58.5787 43.9628 58.363C43.7471 58.1472 43.7471 57.8596 43.9628 57.6439C44.1067 57.4281 44.3943 57.4281 44.61 57.6439Z" fill="#732F0C"/>
<path d="M43.3156 58.1473C43.5314 58.363 43.5314 58.6507 43.3156 58.8664C43.0999 59.0821 42.8123 59.0821 42.5965 58.8664C42.3808 58.6507 42.3808 58.363 42.5965 58.1473C42.8123 57.9315 43.0999 57.9315 43.3156 58.1473Z" fill="#732F0C"/>
<path d="M40.0796 60.5923C40.3672 60.6642 40.583 60.8799 40.5111 61.1676C40.4391 61.4552 40.2234 61.671 39.9358 61.5991C39.6481 61.5271 39.4324 61.3114 39.5043 61.0238C39.5762 60.7361 39.7919 60.5923 40.0796 60.5923Z" fill="#732F0C"/>
<path d="M39.4324 64.3317C39.5043 64.3317 39.5762 64.4036 39.5762 64.5474C39.5762 64.6193 39.5043 64.6912 39.3604 64.6912C39.2885 64.6912 39.2166 64.6193 39.2166 64.4755C39.2166 64.4036 39.2885 64.3317 39.4324 64.3317Z" fill="#732F0C"/>
<path d="M39.3605 67.1362C39.6481 67.1362 39.792 67.4239 39.72 67.6396C39.72 67.9273 39.4324 68.0711 39.2167 67.9992C38.929 67.9992 38.7852 67.7115 38.7852 67.4958C38.8571 67.2801 39.0728 67.1362 39.3605 67.1362Z" fill="#732F0C"/>
<path d="M54.8215 48.7987C54.8215 49.0863 54.6777 49.302 54.3901 49.302C54.1024 49.302 53.8867 49.1582 53.8867 48.8706C53.8867 48.5829 54.0305 48.3672 54.3182 48.3672C54.5339 48.3672 54.8215 48.511 54.8215 48.7987Z" fill="#8E3A14"/>
<path d="M52.6642 48.4391C52.6642 48.6548 52.5204 48.8706 52.3046 48.8706C52.0889 48.8706 51.8732 48.7267 51.8732 48.511C51.8732 48.2953 52.017 48.0795 52.2327 48.0795C52.4485 48.0076 52.6642 48.2234 52.6642 48.4391Z" fill="#8E3A14"/>
<path d="M48.8528 49.5897C48.9247 49.7336 48.8528 49.8774 48.7809 49.9493C48.6371 50.0212 48.4933 49.9493 48.4214 49.8774C48.3494 49.7336 48.4214 49.5897 48.4933 49.5178C48.6371 49.4459 48.7809 49.5178 48.8528 49.5897Z" fill="#8E3A14"/>
<path d="M46.4797 50.5965C46.5517 50.8122 46.5516 51.0279 46.3359 51.0998C46.1202 51.1718 45.9044 51.1718 45.8325 50.956C45.7606 50.7403 45.7606 50.5245 45.9764 50.4526C46.1202 50.3088 46.3359 50.3807 46.4797 50.5965Z" fill="#8E3A14"/>
<path d="M46.6955 51.7471C46.8393 51.9628 46.7674 52.1786 46.5516 52.3224C46.3359 52.4662 46.1202 52.3943 45.9763 52.1786C45.8325 51.9628 45.9044 51.7471 46.1202 51.6033C46.3359 51.4594 46.6236 51.5314 46.6955 51.7471Z" fill="#8E3A14"/>
<path d="M49.2124 49.9493C49.2843 50.0931 49.2124 50.3088 49.0686 50.3807C48.9247 50.4526 48.709 50.3807 48.6371 50.2369C48.5652 50.0931 48.6371 49.8773 48.7809 49.8054C48.9247 49.7335 49.1405 49.8054 49.2124 49.9493Z" fill="#FBBA00"/>
<path d="M45.4011 50.8121C45.473 50.8841 45.4011 51.0279 45.3292 51.0279C45.2573 51.0998 45.1134 51.0279 45.1134 50.956C45.0415 50.8841 45.1134 50.7402 45.1853 50.7402C45.2573 50.6683 45.4011 50.7402 45.4011 50.8121Z" fill="#FBBA00"/>
<path d="M45.9763 51.9628C46.0482 52.1785 45.9763 52.3943 45.7606 52.4662C45.5449 52.5381 45.3291 52.4662 45.2572 52.2504C45.1853 52.0347 45.2572 51.819 45.401 51.7471C45.6168 51.6751 45.8325 51.7471 45.9763 51.9628Z" fill="#FBBA00"/>
<path d="M42.165 53.1854C42.3088 53.3292 42.2369 53.6168 42.0931 53.7607C41.9493 53.8326 41.6616 53.8326 41.5178 53.6168C41.374 53.473 41.4459 53.1854 41.5897 53.0415C41.8054 52.9696 42.0212 52.9696 42.165 53.1854Z" fill="#FBBA00"/>
<path d="M40.583 54.7673C40.6549 54.8392 40.6549 54.983 40.583 54.983C40.5111 55.055 40.3672 55.055 40.3672 54.983C40.2953 54.9111 40.2953 54.7673 40.3672 54.7673C40.3672 54.6954 40.5111 54.6954 40.583 54.7673Z" fill="#FBBA00"/>
<path d="M40.1515 54.7673C40.2953 54.9112 40.2234 55.1269 40.0796 55.1988C39.9357 55.3426 39.72 55.2707 39.6481 55.1269C39.5043 54.9831 39.5762 54.7673 39.72 54.6954C39.8638 54.6235 40.0796 54.6235 40.1515 54.7673Z" fill="#FBBA00"/>
<path d="M37.7065 56.7809C37.7784 56.9247 37.7784 57.0686 37.6346 57.2124C37.4907 57.2843 37.3469 57.2843 37.2031 57.1405C37.1312 56.9967 37.1312 56.7809 37.275 56.709C37.4188 56.5652 37.6346 56.6371 37.7065 56.7809Z" fill="#FBBA00"/>
<path d="M63.5948 57.4281C63.6667 57.572 63.6667 57.7158 63.5229 57.7877C63.3791 57.8596 63.2353 57.8596 63.1634 57.7158C63.0914 57.572 63.0914 57.4281 63.2353 57.3562C63.3072 57.2124 63.5229 57.2843 63.5948 57.4281Z" fill="#FBBA00"/>
<path d="M59.9992 58.5068C60.0711 58.6507 60.0711 58.8664 59.9272 58.9383C59.7834 59.0102 59.5677 59.0102 59.4958 58.8664C59.4239 58.7226 59.4239 58.5068 59.5677 58.4349C59.7115 58.363 59.9272 58.363 59.9992 58.5068Z" fill="#FBBA00"/>
<path d="M56.8351 61.3114C56.907 61.3833 56.907 61.5271 56.8351 61.599C56.7632 61.6709 56.6193 61.6709 56.5474 61.599C56.4755 61.5271 56.4755 61.3833 56.5474 61.3114C56.5474 61.2395 56.6913 61.2395 56.8351 61.3114Z" fill="#FBBA00"/>
<path d="M55.7564 61.6709C55.9003 61.8147 55.9003 61.9585 55.7564 62.1023C55.6126 62.2462 55.4688 62.2462 55.325 62.1023C55.1811 61.9585 55.1811 61.8147 55.325 61.6709C55.3969 61.599 55.6126 61.599 55.7564 61.6709Z" fill="#FBBA00"/>
<path d="M53.8867 65.1947C54.0305 65.3385 54.0305 65.5542 53.8867 65.698C53.7429 65.8419 53.5271 65.8419 53.3833 65.698C53.2395 65.5542 53.2395 65.3385 53.3114 65.1947C53.4552 65.0508 53.7429 65.0508 53.8867 65.1947Z" fill="#FBBA00"/>
<path d="M39.0009 70.0127C38.7852 70.1565 38.5694 70.0846 38.4256 69.9408C38.2818 69.7251 38.3537 69.5093 38.4975 69.3655C38.7133 69.2217 38.929 69.2936 39.0728 69.4374C39.2167 69.6532 39.1447 69.9408 39.0009 70.0127Z" fill="#FBBA00"/>
<path d="M37.0593 68.2868C36.9874 68.3587 36.8435 68.3587 36.7716 68.2149C36.6997 68.143 36.6997 67.9992 36.8435 67.9272C36.9155 67.8553 37.0593 67.8553 37.1312 67.9992C37.2031 68.0711 37.2031 68.2149 37.0593 68.2868Z" fill="#FBBA00"/>
<path d="M36.8436 66.2733C36.7716 66.3452 36.6278 66.3452 36.5559 66.2013C36.484 66.1294 36.484 65.9856 36.6278 65.9137C36.6997 65.8418 36.8436 65.8418 36.9155 65.9856C36.9155 66.0575 36.9155 66.2013 36.8436 66.2733Z" fill="#FBBA00"/>
<path d="M35.1177 65.2664C34.9739 65.3384 34.7582 65.3384 34.6862 65.1945C34.6143 65.0507 34.6143 64.835 34.7582 64.7631C34.902 64.6911 35.1177 64.6911 35.1896 64.835C35.2615 64.9788 35.2615 65.1945 35.1177 65.2664Z" fill="#FBBA00"/>
<path d="M35.621 64.4754C35.5491 64.5473 35.4053 64.5473 35.3334 64.4035C35.2615 64.3316 35.2615 64.1878 35.4053 64.1158C35.4772 64.0439 35.621 64.0439 35.693 64.1878C35.7649 64.2597 35.7649 64.4035 35.621 64.4754Z" fill="#FBBA00"/>
<path d="M33.9671 63.4687C33.8952 63.5406 33.7513 63.5406 33.6794 63.3968C33.6075 63.3249 33.6075 63.181 33.7514 63.1091C33.8233 63.0372 33.9671 63.0372 34.039 63.181C34.1109 63.3249 34.1109 63.3968 33.9671 63.4687Z" fill="#FBBA00"/>
<path d="M36.8436 69.3655C36.7717 69.4374 36.6278 69.4374 36.484 69.3655C36.4121 69.2936 36.4121 69.1498 36.484 69.006C36.5559 68.934 36.6998 68.934 36.8436 69.006C36.9155 69.0779 36.9155 69.2217 36.8436 69.3655Z" fill="#E27100"/>
<path d="M33.7514 67.8554C33.5356 67.9992 33.1761 67.9273 33.0323 67.7116C32.8884 67.4958 32.9603 67.1363 33.1761 66.9924C33.3918 66.8486 33.7514 66.9205 33.8952 67.1363C34.039 67.4239 33.9671 67.7115 33.7514 67.8554Z" fill="#E27100"/>
<path d="M33.0322 64.9789C32.8884 65.1227 32.6727 65.0508 32.5288 64.907C32.385 64.7632 32.4569 64.5474 32.6007 64.4036C32.7446 64.2598 32.9603 64.3317 33.1041 64.4755C33.248 64.6912 33.176 64.907 33.0322 64.9789Z" fill="#E27100"/>
<path d="M31.5221 64.6912C31.3783 64.7631 31.2344 64.6193 31.1625 64.4755C31.0906 64.3317 31.2344 64.1878 31.3783 64.1159C31.5221 64.044 31.6659 64.1878 31.7378 64.3317C31.8097 64.4755 31.6659 64.6912 31.5221 64.6912Z" fill="#E27100"/>
<path d="M32.8884 61.2395C32.7446 61.2395 32.6008 61.0957 32.6008 60.8799C32.6008 60.7361 32.7446 60.5923 32.8884 60.5923C33.0322 60.5923 33.1761 60.7361 33.1761 60.8799C33.248 61.1676 33.1042 61.2395 32.8884 61.2395Z" fill="#E27100"/>
<path d="M28.4299 70.4442C28.4299 71.1633 28.0703 71.7386 28.1422 72.3858C28.5018 72.3858 28.8613 72.0982 29.0052 71.8105C29.5805 72.0982 29.5085 72.8173 30.2277 73.1049C30.5153 72.8892 30.5872 72.4577 30.5872 72.1701C30.803 72.242 31.3783 72.4577 31.594 72.242C31.7378 72.0982 31.3063 71.8105 31.1625 71.7386C31.3783 71.7386 31.594 71.7386 31.8097 71.7386C31.8816 71.3071 30.6591 70.8038 30.2277 70.5161C30.8749 70.5161 31.9536 70.8757 32.5289 70.6599C32.6727 70.3723 32.4569 70.1565 32.1693 70.0127C32.7446 70.0127 34.5424 70.0846 33.1761 69.5093C33.4637 69.4374 33.6794 69.4374 33.9671 69.3655C34.039 69.2936 34.039 69.0779 33.9671 69.006C33.6794 69.006 33.3918 69.006 33.1761 68.934C33.8233 68.2149 32.8165 68.4307 32.385 68.6464C32.4569 68.5026 32.385 68.3587 32.385 68.2149C32.0255 68.2149 31.7378 68.4307 31.594 68.5745C31.5221 67.9992 30.8749 68.5745 30.7311 68.7902C30.5872 68.8621 30.4434 68.8621 30.2996 69.006C30.3715 68.5745 30.8749 68.3587 30.7311 67.8554C30.5153 67.9273 30.3715 67.8554 30.2277 67.9273C30.4434 67.5677 30.6591 67.0643 30.3715 66.6329C29.8681 66.5609 29.149 67.1362 29.0771 67.4958C28.8613 67.2801 28.4299 66.8486 27.9265 66.9205C27.5669 67.2801 28.0703 67.4958 28.2141 67.8554C28.4299 68.2149 28.4299 68.7183 28.6456 69.0779C28.4299 68.6464 27.2793 68.3587 26.704 68.4307C26.7759 68.5026 26.7759 68.6464 26.8478 68.7183C26.4882 68.7183 26.2725 68.7902 26.3444 69.0779C26.9197 69.2936 27.495 69.3655 28.1422 69.6532C27.8546 70.1565 26.1287 70.6599 26.2725 71.0914C26.6321 71.1633 27.0635 71.0195 27.4231 71.0195C27.2074 71.1633 27.1354 71.379 27.2074 71.5948C27.8546 71.7386 28.286 70.6599 28.358 70.3004L28.4299 70.4442Z" fill="url(#paint17_linear)"/>
<path d="M75.5322 60.8079C75.1007 60.6641 74.885 60.5922 74.885 60.4484C74.9569 60.3765 75.2446 60.3046 75.7479 60.5203C76.0356 60.6641 76.3232 60.8799 76.4671 61.2394C76.6109 61.599 76.6109 61.9585 76.6109 62.3181C76.6109 62.6777 76.539 63.1091 76.4671 63.4687C76.3951 63.6844 76.3951 63.8282 76.3232 64.044C76.2513 64.2597 76.1794 64.4755 76.1075 64.6912C75.676 65.4822 75.1007 66.2013 74.4535 66.7766C73.8063 67.3519 73.0872 67.8553 72.3681 68.2868C70.9298 69.1497 69.5635 69.7969 68.5567 70.3003C68.0534 70.5161 67.6219 70.7318 67.3342 70.8037C67.0466 70.9475 66.8309 71.0194 66.8309 71.0194C66.3275 71.1633 65.8241 71.0194 65.7522 70.6599C65.6083 70.3003 65.896 69.8689 66.3994 69.725C66.3994 69.725 66.5432 69.6531 66.9028 69.5812C67.1904 69.5093 67.6219 69.3655 68.1253 69.1497C69.132 68.7902 70.4984 68.2149 71.9366 67.4238C72.6557 67.0643 73.3748 66.6328 73.9501 66.0575C74.5973 65.5541 75.1726 64.9788 75.5322 64.3316C75.6041 64.1878 75.676 63.9721 75.7479 63.8282C75.8198 63.6125 75.8918 63.4687 75.8918 63.2529C75.9637 62.8934 76.0356 62.5338 76.1075 62.2462C76.1075 61.8866 76.1075 61.599 75.9637 61.3832C75.9637 61.0956 75.8199 60.8798 75.5322 60.8079Z" fill="#6F270A"/>
<path d="M54.0305 70.8037C54.1024 70.6599 54.2462 70.6599 54.3181 70.6599C54.4619 70.7318 54.4619 70.8757 54.4619 70.9476C54.39 71.0914 54.2462 71.0914 54.1743 71.0914C54.0305 71.0914 53.9586 70.9476 54.0305 70.8037Z" fill="#732F0C"/>
<path d="M54.6058 71.1633C54.7496 70.9475 54.9653 70.8037 55.253 70.9475C55.4687 71.0914 55.6125 71.3071 55.4687 71.5947C55.3249 71.8105 55.1091 71.9543 54.8215 71.8105C54.6058 71.6667 54.5339 71.379 54.6058 71.1633Z" fill="#732F0C"/>
<path d="M55.9721 71.6667C56.044 71.5228 56.1879 71.4509 56.3317 71.5228C56.4755 71.5948 56.5474 71.7386 56.4755 71.8824C56.4036 72.0262 56.2598 72.0981 56.1159 72.0262C55.9721 71.9543 55.9002 71.8105 55.9721 71.6667Z" fill="#732F0C"/>
<path d="M59.5677 72.6016C59.4239 72.3858 59.4958 72.0982 59.7834 71.9544C59.9992 71.8105 60.2868 71.8824 60.4306 72.1701C60.5745 72.3858 60.5026 72.6735 60.2868 72.8173C59.9992 72.8892 59.7115 72.8173 59.5677 72.6016Z" fill="#732F0C"/>
<path d="M62.588 71.451C62.5161 71.3072 62.588 71.1633 62.66 71.0914C62.8038 71.0195 62.9476 71.0914 63.0195 71.1633C63.0914 71.3072 63.0195 71.451 62.9476 71.5229C62.8038 71.5948 62.66 71.5948 62.588 71.451Z" fill="#732F0C"/>
<path d="M62.3003 68.0711C62.2284 68.0711 62.0846 67.9992 62.0846 67.9273C62.0846 67.8554 62.1565 67.7115 62.2284 67.7115C62.3003 67.7115 62.4442 67.7835 62.4442 67.8554C62.5161 67.9273 62.4442 67.9992 62.3003 68.0711Z" fill="#732F0C"/>
<path d="M62.5161 67.7115C62.3723 67.7115 62.3004 67.6396 62.2285 67.5677C62.2285 67.4239 62.3004 67.3519 62.3723 67.28C62.5161 67.28 62.588 67.3519 62.6599 67.4239C62.6599 67.4958 62.588 67.6396 62.5161 67.7115Z" fill="#732F0C"/>
<path d="M61.7251 66.4891C61.7251 66.7048 61.5094 66.7767 61.3655 66.7767C61.1498 66.7767 61.0779 66.561 61.0779 66.4172C61.0779 66.2733 61.2936 66.1295 61.4374 66.1295C61.6532 66.1295 61.7251 66.3453 61.7251 66.4891Z" fill="#732F0C"/>
<path d="M60.6464 65.6262C60.6464 65.77 60.5025 65.8419 60.3587 65.8419C60.2149 65.8419 60.143 65.6981 60.143 65.5542C60.143 65.4104 60.2868 65.3385 60.4306 65.3385C60.5744 65.3385 60.6464 65.4823 60.6464 65.6262Z" fill="#732F0C"/>
<path d="M59.0644 66.7767C59.0644 66.9205 58.9205 66.9924 58.7767 66.9924C58.6329 66.9924 58.561 66.8486 58.561 66.7048C58.561 66.5609 58.7048 66.489 58.8486 66.489C58.9924 66.5609 59.0644 66.6328 59.0644 66.7767Z" fill="#732F0C"/>
<path d="M56.3317 66.6328C56.1159 66.489 56.044 66.2014 56.1879 65.9856C56.3317 65.7699 56.6193 65.698 56.8351 65.8418C57.0508 65.9856 57.1227 66.2733 56.9789 66.489C56.8351 66.7047 56.5474 66.7767 56.3317 66.6328Z" fill="#732F0C"/>
<path d="M57.7699 65.4104C57.5542 65.2666 57.4823 64.9789 57.6261 64.7632C57.7699 64.5475 58.0576 64.4756 58.2733 64.6194C58.489 64.7632 58.5609 65.0509 58.4171 65.2666C58.2733 65.4823 57.9857 65.5542 57.7699 65.4104Z" fill="#732F0C"/>
<path d="M58.4891 63.6845C58.2733 63.5406 58.2014 63.253 58.3452 62.9654C58.4891 62.7496 58.7767 62.6777 59.0644 62.8215C59.2801 62.9654 59.352 63.253 59.2082 63.5406C59.0644 63.7564 58.7767 63.8283 58.4891 63.6845Z" fill="#732F0C"/>
<path d="M61.1497 60.7361C61.0059 60.5923 61.0778 60.3765 61.2217 60.2327C61.3655 60.0889 61.5812 60.1608 61.725 60.3046C61.8689 60.4484 61.7969 60.6642 61.6531 60.808C61.5093 60.9518 61.2936 60.8799 61.1497 60.7361Z" fill="#732F0C"/>
<path d="M62.588 61.0956C62.5161 60.9518 62.5161 60.808 62.6599 60.6642C62.8037 60.5923 62.9476 60.5923 63.0914 60.7361C63.1633 60.8799 63.1633 61.0237 63.0195 61.1676C62.8757 61.3114 62.7318 61.2395 62.588 61.0956Z" fill="#732F0C"/>
<path d="M59.4239 68.0712C59.2801 68.2869 58.9924 68.2869 58.8486 68.1431C58.6329 67.9993 58.6329 67.7116 58.7767 67.5678C58.9205 67.352 59.2082 67.352 59.352 67.4959C59.4958 67.6397 59.5677 67.8554 59.4239 68.0712Z" fill="#732F0C"/>
<path d="M46.1202 68.4307C46.264 68.3588 46.4798 68.4307 46.5517 68.5745C46.6236 68.7183 46.5517 68.9341 46.4079 69.006C46.264 69.0779 46.0483 69.006 45.9764 68.8621C45.9045 68.7183 45.9764 68.5026 46.1202 68.4307Z" fill="#732F0C"/>
<path d="M48.5652 72.0983C48.6372 72.0264 48.781 71.9545 48.8529 72.0264C48.9248 72.0983 48.9967 72.2421 48.9248 72.314C48.8529 72.3859 48.7091 72.4578 48.6372 72.3859C48.4933 72.314 48.4933 72.1702 48.5652 72.0983Z" fill="#732F0C"/>
<path d="M51.2979 72.0982C51.3698 71.9543 51.5136 71.9543 51.5855 71.9543C51.7294 72.0263 51.7294 72.1701 51.7294 72.242C51.6575 72.3858 51.5136 72.3858 51.4417 72.3858C51.2979 72.3858 51.226 72.242 51.2979 72.0982Z" fill="#732F0C"/>
<path d="M52.0889 72.8892C52.0889 72.7454 52.2327 72.6016 52.3765 72.6016C52.5204 72.6016 52.6642 72.7454 52.6642 72.8892C52.6642 73.033 52.5204 73.1769 52.3765 73.1769C52.2327 73.2488 52.0889 73.1049 52.0889 72.8892Z" fill="#732F0C"/>
<path d="M52.808 73.2488C52.808 73.105 52.9518 72.9612 53.0957 72.9612C53.2395 72.9612 53.3833 73.105 53.3833 73.2488C53.3833 73.3927 53.2395 73.5365 53.0957 73.5365C52.9518 73.4646 52.808 73.3927 52.808 73.2488Z" fill="#732F0C"/>
<path d="M53.3114 72.9611C53.3114 72.8173 53.3833 72.7454 53.5271 72.7454C53.671 72.7454 53.7429 72.8173 53.7429 72.9611C53.7429 73.1049 53.671 73.1768 53.5271 73.1768C53.4552 73.1768 53.3114 73.1049 53.3114 72.9611Z" fill="#732F0C"/>
<path d="M53.5271 72.6735C53.5271 72.3859 53.7429 72.2421 53.9586 72.1702C54.2463 72.1702 54.3901 72.3859 54.462 72.6016C54.462 72.8893 54.2463 73.105 54.0305 73.105C53.7429 73.1769 53.5271 72.9612 53.5271 72.6735Z" fill="#732F0C"/>
<path d="M55.3969 72.3859C55.3969 72.2421 55.4688 72.1702 55.5407 72.1702C55.6845 72.1702 55.7564 72.2421 55.7564 72.314C55.7564 72.4578 55.6845 72.5297 55.6126 72.5297C55.5407 72.5297 55.3969 72.4578 55.3969 72.3859Z" fill="#732F0C"/>
<path d="M58.561 73.0331C58.4172 72.8173 58.4891 72.5297 58.7767 72.3859C58.9925 72.2421 59.2801 72.314 59.4239 72.6016C59.5678 72.8173 59.4958 73.105 59.2082 73.2488C58.9925 73.3926 58.7048 73.2488 58.561 73.0331Z" fill="#732F0C"/>
<path d="M60.0712 69.4375C59.9992 69.5094 59.8554 69.5094 59.8554 69.4375C59.7835 69.3656 59.7835 69.2218 59.8554 69.2218C59.9273 69.2218 60.0712 69.1499 60.0712 69.2218C60.1431 69.2218 60.1431 69.3656 60.0712 69.4375Z" fill="#732F0C"/>
<path d="M56.8351 68.5026C56.8351 68.7184 56.6913 68.8622 56.5475 68.9341C56.3317 68.9341 56.1879 68.7903 56.116 68.6464C56.116 68.4307 56.2598 68.2869 56.4036 68.215C56.6194 68.215 56.7632 68.3588 56.8351 68.5026Z" fill="#732F0C"/>
<path d="M62.5881 69.5093C62.7319 69.6531 62.7319 69.8689 62.66 70.0846C62.5162 70.2284 62.3004 70.3003 62.0847 70.1565C61.9409 70.0127 61.869 69.7969 62.0128 69.5812C62.1566 69.3655 62.3723 69.3655 62.5881 69.5093Z" fill="#732F0C"/>
<path d="M62.0847 70.4442C62.1566 70.6599 61.9408 70.9476 61.7251 70.9476C61.5094 71.0195 61.2217 70.8756 61.2217 70.588C61.1498 70.3723 61.2936 70.0846 61.5813 70.0127C61.797 70.0127 62.0128 70.1565 62.0847 70.4442Z" fill="#732F0C"/>
<path d="M58.2014 70.66C58.2014 70.7319 58.1295 70.8757 58.0576 70.8757C57.9857 70.8757 57.8419 70.8038 57.8419 70.7319C57.8419 70.66 57.9138 70.5161 57.9857 70.5161C58.1295 70.4442 58.2014 70.5161 58.2014 70.66Z" fill="#732F0C"/>
<path d="M67.8377 61.2394C67.7657 61.1675 67.7657 61.0237 67.8377 60.9518C67.9096 60.8798 68.0534 60.8798 68.1253 60.9518C68.1972 61.0237 68.1972 61.1675 68.1253 61.2394C67.9815 61.3832 67.9096 61.3113 67.8377 61.2394Z" fill="#732F0C"/>
<path d="M70.6422 63.7563C70.4265 63.8282 70.2107 63.6844 70.1388 63.4686C70.0669 63.2529 70.2107 63.0372 70.4265 62.9652C70.6422 62.8933 70.8579 63.0372 70.9298 63.2529C71.0018 63.5405 70.8579 63.7563 70.6422 63.7563Z" fill="#732F0C"/>
<path d="M70.4265 63.2529C70.1388 63.3248 69.8512 63.181 69.7793 62.8933C69.7074 62.6057 69.8512 62.318 70.1388 62.2461C70.4265 62.1742 70.7141 62.318 70.786 62.6057C70.9299 62.8933 70.7141 63.181 70.4265 63.2529Z" fill="#732F0C"/>
<path d="M69.995 62.8215C69.9231 62.8215 69.7792 62.8215 69.7792 62.6777C69.7792 62.6057 69.7792 62.4619 69.9231 62.4619C69.995 62.4619 70.1388 62.4619 70.1388 62.6057C70.1388 62.6776 70.0669 62.7496 69.995 62.8215Z" fill="#732F0C"/>
<path d="M69.4197 59.8012C69.2759 59.945 68.9882 59.945 68.8444 59.7292C68.7006 59.5854 68.7006 59.2978 68.9163 59.1539C69.0601 59.0101 69.3478 59.0101 69.4916 59.2259C69.6354 59.4416 69.6354 59.6573 69.4197 59.8012Z" fill="#732F0C"/>
<path d="M66.0399 59.4416C66.1118 59.6573 66.0399 59.945 65.7522 60.0888C65.4646 60.2326 65.2488 60.0888 65.105 59.8731C65.0331 59.6573 65.105 59.3697 65.3207 59.2259C65.6803 59.082 65.9679 59.2259 66.0399 59.4416Z" fill="#732F0C"/>
<path d="M62.8757 62.4619C62.9476 62.5338 62.9476 62.6057 62.8757 62.6777C62.8038 62.7496 62.7319 62.7496 62.66 62.6777C62.5881 62.6057 62.5881 62.5338 62.66 62.39C62.7319 62.39 62.8038 62.39 62.8757 62.4619Z" fill="#732F0C"/>
<path d="M69.2759 64.5475C69.1321 64.7632 68.8445 64.8351 68.6287 64.6913C68.413 64.5475 68.3411 64.2598 68.4849 64.0441C68.6287 63.8284 68.9164 63.7564 69.1321 63.9003C69.2759 64.0441 69.3478 64.3317 69.2759 64.5475Z" fill="#732F0C"/>
<path d="M67.4781 62.3181C67.3343 62.5339 66.9747 62.5339 66.8309 62.39C66.6152 62.2462 66.6152 61.8867 66.759 61.7428C66.9028 61.5271 67.2624 61.5271 67.4062 61.6709C67.6219 61.8147 67.6938 62.1024 67.4781 62.3181Z" fill="#732F0C"/>
<path d="M67.1186 62.0305C66.9747 62.2463 66.6871 62.2463 66.4713 62.1024C66.2556 61.9586 66.2556 61.671 66.3994 61.4552C66.5433 61.2395 66.8309 61.2395 67.0466 61.3833C67.2624 61.5271 67.2624 61.8148 67.1186 62.0305Z" fill="#732F0C"/>
<path d="M42.1651 66.0576C42.0931 66.1295 41.9493 66.0576 41.8774 65.9856C41.8055 65.9137 41.8774 65.7699 41.9493 65.698C42.0212 65.6261 42.1651 65.6261 42.237 65.7699C42.237 65.9137 42.237 65.9856 42.1651 66.0576Z" fill="#732F0C"/>
<path d="M42.237 65.5542C42.0212 65.698 41.7336 65.6261 41.5897 65.4104C41.4459 65.1947 41.5178 64.907 41.7336 64.7632C41.9493 64.6194 42.237 64.6913 42.3808 64.907C42.4527 65.1227 42.3808 65.4104 42.237 65.5542Z" fill="#732F0C"/>
<path d="M40.7987 63.3968C40.5829 63.5406 40.2953 63.4687 40.0796 63.2529C39.9357 63.0372 40.0076 62.7495 40.2234 62.5338C40.4391 62.39 40.7268 62.4619 40.9425 62.6776C41.0863 62.9653 41.0144 63.2529 40.7987 63.3968Z" fill="#732F0C"/>
<path d="M40.2953 62.1024C40.1515 62.1743 39.9358 62.1743 39.8639 62.0305C39.7919 61.8866 39.7919 61.6709 39.9358 61.599C40.0796 61.5271 40.2953 61.5271 40.3672 61.6709C40.5111 61.8147 40.4392 62.0305 40.2953 62.1024Z" fill="#732F0C"/>
<path d="M48.709 74.9747C48.709 76.2691 46.5516 77.3478 43.9628 77.3478C41.3021 77.3478 39.2166 76.2691 39.2166 74.9747C39.2166 73.6802 41.374 72.6016 43.9628 72.6016C46.6236 72.6016 48.709 73.6083 48.709 74.9747Z" fill="#C6C6C6"/>
<path d="M48.0618 72.8892C48.0618 74.9747 45.9763 76.7006 43.4594 76.7006C40.9425 76.7006 38.8571 74.9747 38.8571 72.8892C38.8571 71.5948 39.6481 70.3723 40.8706 69.7251C41.5897 69.2936 42.5246 69.5094 43.4594 69.5094C44.4662 69.5094 45.4011 69.3656 46.1921 69.797C47.3427 70.5161 48.0618 71.6667 48.0618 72.8892Z" fill="url(#paint18_radial)"/>
<path d="M42.3808 70.3004C42.5246 70.5881 42.9561 70.8757 43.3875 70.8757C43.6033 70.8757 43.819 70.8038 44.0347 70.66C44.1786 70.5162 44.3224 70.3723 44.3943 70.3004C44.2505 70.3004 44.0347 70.3004 43.8909 70.3723C43.7471 70.3723 43.5314 70.4442 43.3875 70.3723C43.028 70.3723 42.7403 70.3723 42.3808 70.3004Z" fill="#F1C687"/>
<path d="M40.0077 73.4646C39.9358 72.9612 39.8638 72.2421 40.1515 71.5949C40.3672 70.9476 40.9425 70.5162 41.374 70.1566C40.8706 70.2285 40.0796 70.5881 39.72 71.3791C39.3605 72.2421 39.6481 73.105 40.0077 73.4646Z" fill="#F9BE8F"/>
<path d="M54.7495 24.78C53.4551 25.4272 52.0169 26.5778 51.2258 28.4475C50.7944 29.3824 50.5786 30.6049 50.7944 31.7555C50.7944 32.0431 50.9382 32.3308 51.0101 32.6184C51.082 32.9061 51.1539 33.1937 51.2977 33.4814C51.4416 33.769 51.5854 34.0567 51.6573 34.2724L51.9449 34.8477C52.736 36.4298 53.1674 37.868 52.9517 39.3063C52.8079 40.7445 52.0169 42.1108 51.1539 43.2614C52.5202 42.9019 54.2461 41.967 55.181 39.9535C55.6125 39.0186 55.8282 37.7961 55.7563 36.6455C55.6844 35.4949 55.3248 34.3443 54.7495 33.3376C54.5338 32.9061 54.2461 32.4746 54.0304 32.0431C53.8866 31.8993 53.8866 31.6836 53.8147 31.5398C53.7427 31.3959 53.6708 31.1802 53.5989 31.0364C53.3832 30.3892 53.3113 29.67 53.3832 28.879C53.527 27.5846 54.1023 26.0744 54.7495 24.78Z" fill="#DADADA"/>
<path d="M60.2148 28.5913C59.2081 29.0947 58.0575 30.0295 57.4103 31.5397C57.0507 32.2588 56.9069 33.1937 57.1226 34.1285C57.1226 34.3443 57.1945 34.56 57.2664 34.8477C57.3383 35.0634 57.4103 35.2791 57.5541 35.4949L57.9136 36.0702L58.2013 36.5735C58.9204 37.868 59.2081 39.0905 58.9923 40.2411C58.7047 41.3916 57.9136 42.4703 57.1226 43.3333C58.2013 43.0456 59.5676 42.3265 60.2867 40.8164C60.6463 40.0972 60.862 39.1624 60.7182 38.2275C60.6463 37.2927 60.2867 36.4297 59.8553 35.6387C59.6395 35.2791 59.4238 34.9915 59.2081 34.6319C59.1361 34.4881 59.0642 34.3443 58.9923 34.2004C58.9204 34.0566 58.8485 33.9128 58.8485 33.769C58.7047 33.1937 58.6328 32.6184 58.7766 31.9712C58.9923 30.7487 59.6395 29.5981 60.2148 28.5913Z" fill="#DADADA"/>
</g>
<defs>
<linearGradient id="paint0_linear" x1="16.6318" y1="49.9812" x2="36.7134" y2="49.9812" gradientUnits="userSpaceOnUse">
<stop stop-color="#DCDCDC"/>
<stop offset="0.1619" stop-color="#D1D1D1"/>
<stop offset="0.4702" stop-color="#B3B3B3"/>
<stop offset="0.8897" stop-color="#80807F"/>
<stop offset="1" stop-color="#706F6F"/>
</linearGradient>
<linearGradient id="paint1_linear" x1="26.6796" y1="41.797" x2="26.6796" y2="46.5671" gradientUnits="userSpaceOnUse">
<stop stop-color="#9B9B9A"/>
<stop offset="0.5989" stop-color="#B3B3B3"/>
<stop offset="1" stop-color="#BEBEBE"/>
</linearGradient>
<linearGradient id="paint2_linear" x1="26.6748" y1="47.7733" x2="26.6748" y2="41.087" gradientUnits="userSpaceOnUse">
<stop stop-color="white"/>
<stop offset="0.5739" stop-color="#F5F5F5"/>
<stop offset="1" stop-color="#EBEBEB"/>
</linearGradient>
<linearGradient id="paint3_linear" x1="35.4709" y1="39.277" x2="36.2153" y2="39.8089" gradientUnits="userSpaceOnUse">
<stop offset="0.00537634" stop-color="#DDDDDD"/>
<stop offset="0.9946" stop-color="#B0B0B0"/>
</linearGradient>
<linearGradient id="paint4_linear" x1="17.7356" y1="44.9186" x2="35.5598" y2="44.9186" gradientUnits="userSpaceOnUse">
<stop stop-color="#D52610"/>
<stop offset="0.1935" stop-color="#CA2310"/>
<stop offset="0.5434" stop-color="#AE1D10"/>
<stop offset="1" stop-color="#84130C"/>
</linearGradient>
<linearGradient id="paint5_linear" x1="18.8179" y1="43.2313" x2="34.3043" y2="43.2313" gradientUnits="userSpaceOnUse">
<stop stop-color="#D52610"/>
<stop offset="0.1935" stop-color="#CA2310"/>
<stop offset="0.5434" stop-color="#AE1D10"/>
<stop offset="1" stop-color="#84130C"/>
</linearGradient>
<linearGradient id="paint6_linear" x1="50.7779" y1="50.1373" x2="50.7779" y2="78.4022" gradientUnits="userSpaceOnUse">
<stop stop-color="#CECECE"/>
<stop offset="0.1045" stop-color="#D4D4D4"/>
<stop offset="0.6908" stop-color="#F0F0F0"/>
<stop offset="1" stop-color="#FAFAFA"/>
</linearGradient>
<linearGradient id="paint7_linear" x1="50.8319" y1="49.5171" x2="50.8319" y2="81.3551" gradientUnits="userSpaceOnUse">
<stop stop-color="#F9F8F8"/>
<stop offset="0.1487" stop-color="#F5F5F5"/>
<stop offset="0.3202" stop-color="#EBEBEB"/>
<stop offset="0.5032" stop-color="#DADADA"/>
<stop offset="0.6941" stop-color="#C1C1C1"/>
<stop offset="0.8892" stop-color="#9F9F9F"/>
<stop offset="1" stop-color="#898988"/>
</linearGradient>
<linearGradient id="paint8_linear" x1="50.9099" y1="55.5959" x2="50.9099" y2="74.0719" gradientUnits="userSpaceOnUse">
<stop stop-color="#D2D2D2"/>
<stop offset="0.379" stop-color="#DBDBDB"/>
<stop offset="1" stop-color="#E5E5E5"/>
</linearGradient>
<linearGradient id="paint9_linear" x1="50.7106" y1="56.11" x2="51.1303" y2="75.4821" gradientUnits="userSpaceOnUse">
<stop offset="0.00537636" stop-color="#949494"/>
<stop offset="0.0990118" stop-color="#A7A7A7"/>
<stop offset="0.2968" stop-color="#C8C8C8"/>
<stop offset="0.4902" stop-color="#E1E1E1"/>
<stop offset="0.6756" stop-color="#F2F2F1"/>
<stop offset="0.8494" stop-color="#FCFCFC"/>
<stop offset="1" stop-color="white"/>
</linearGradient>
<linearGradient id="paint10_linear" x1="35.9229" y1="55.2168" x2="27.3485" y2="61.8858" gradientUnits="userSpaceOnUse">
<stop stop-color="#F3B15A"/>
<stop offset="0.1809" stop-color="#EBA34E"/>
<stop offset="0.5081" stop-color="#D68031"/>
<stop offset="0.9415" stop-color="#B44D0A"/>
<stop offset="0.9946" stop-color="#B04704"/>
</linearGradient>
<linearGradient id="paint11_linear" x1="29.7392" y1="65.8598" x2="22.2012" y2="64.9927" gradientUnits="userSpaceOnUse">
<stop stop-color="#0B441A"/>
<stop offset="0.21" stop-color="#175120"/>
<stop offset="0.6494" stop-color="#316F2B"/>
<stop offset="0.9946" stop-color="#468A32"/>
</linearGradient>
<linearGradient id="paint12_linear" x1="69.8716" y1="60.1193" x2="87.1013" y2="60.771" gradientUnits="userSpaceOnUse">
<stop stop-color="#0B441A"/>
<stop offset="0.21" stop-color="#175120"/>
<stop offset="0.6494" stop-color="#316F2B"/>
<stop offset="0.9946" stop-color="#468A32"/>
</linearGradient>
<radialGradient id="paint13_radial" cx="0" cy="0" r="1" gradientUnits="userSpaceOnUse" gradientTransform="translate(42.8247 54.1338) scale(17.1061)">
<stop stop-color="#F09934"/>
<stop offset="0.1903" stop-color="#E58C2D"/>
<stop offset="0.5346" stop-color="#CB6C1B"/>
<stop offset="0.9839" stop-color="#A14003"/>
</radialGradient>
<radialGradient id="paint14_radial" cx="0" cy="0" r="1" gradientUnits="userSpaceOnUse" gradientTransform="translate(49.525 61.0708) scale(15.0941)">
<stop offset="0.00537634" stop-color="#BC580F"/>
<stop offset="0.2257" stop-color="#B6510D"/>
<stop offset="0.6225" stop-color="#A43F07"/>
<stop offset="0.9946" stop-color="#8E2D01"/>
</radialGradient>
<radialGradient id="paint15_radial" cx="0" cy="0" r="1" gradientUnits="userSpaceOnUse" gradientTransform="translate(60.9846 55.6445) scale(0.0459045)">
<stop stop-color="#F3B15A"/>
<stop offset="0.1809" stop-color="#EBA34E"/>
<stop offset="0.5081" stop-color="#D68031"/>
<stop offset="0.9415" stop-color="#B44D0A"/>
<stop offset="0.9946" stop-color="#B04704"/>
</radialGradient>
<linearGradient id="paint16_linear" x1="41.812" y1="55.5218" x2="34.9521" y2="69.6228" gradientUnits="userSpaceOnUse">
<stop offset="0.00537634" stop-color="#BC580F"/>
<stop offset="0.4742" stop-color="#BA550B"/>
<stop offset="0.9946" stop-color="#B54F03"/>
</linearGradient>
<linearGradient id="paint17_linear" x1="26.2517" y1="69.8828" x2="33.9493" y2="69.8828" gradientUnits="userSpaceOnUse">
<stop stop-color="#0B441A"/>
<stop offset="0.21" stop-color="#175120"/>
<stop offset="0.6494" stop-color="#316F2B"/>
<stop offset="0.9946" stop-color="#468A32"/>
</linearGradient>
<radialGradient id="paint18_radial" cx="0" cy="0" r="1" gradientUnits="userSpaceOnUse" gradientTransform="translate(41.8436 71.7783) scale(4.12725)">
<stop stop-color="#E84B0F"/>
<stop offset="0.3287" stop-color="#E13E13"/>
<stop offset="0.9213" stop-color="#CE1917"/>
<stop offset="1" stop-color="#CC1018"/>
</radialGradient>
<clipPath id="clip0">
<rect width="85" height="70.6176" fill="white" transform="translate(7 15)"/>
</clipPath>
</defs>
</svg>
