<svg width="100" height="68" viewBox="0 0 100 68" fill="none" xmlns="http://www.w3.org/2000/svg">
<rect width="100" height="68" rx="10" fill="white"/>
<path d="M20.0766 37C13.5033 37 8.15302 31.6497 8.15302 25.0764C8.15302 18.5032 13.5033 13.1528 20.0766 13.1528C26.6498 13.1528 32.0001 18.5032 32.0001 25.0764C32.0001 31.6497 26.6498 37 20.0766 37ZM20.0766 14.5287C14.2676 14.5287 9.68168 19.2675 9.68168 24.9235C9.68168 30.7325 14.4205 35.3184 20.0766 35.3184C25.7326 35.3184 30.4714 30.5796 30.4714 24.9235C30.4714 19.2675 25.7326 14.5287 20.0766 14.5287Z" fill="#8DC63F"/>
<path d="M24.0508 29.8152C23.8979 29.8152 23.5922 29.8152 23.4394 29.6624L19.4648 25.6878C19.3119 25.535 19.312 25.3821 19.312 25.0764V18.5031C19.312 18.0445 19.6177 17.7388 20.0763 17.7388C20.5349 17.7388 20.8406 18.0445 20.8406 18.5031V24.6177L24.6623 28.4394C24.968 28.7451 24.968 29.2037 24.6623 29.5095C24.3565 29.6623 24.2036 29.8152 24.0508 29.8152Z" fill="#8DC63F"/>
<path d="M31.2355 25.6878H29.2482C28.7896 25.6878 28.4839 25.3821 28.4839 24.9235C28.4839 24.4649 28.7896 24.1592 29.2482 24.1592H31.2355C31.6941 24.1592 31.9998 24.4649 31.9998 24.9235C31.9998 25.3821 31.6941 25.6878 31.2355 25.6878Z" fill="#8DC63F"/>
<path d="M10.7517 25.6878H8.76433C8.30573 25.6878 8 25.3821 8 24.9235C8 24.4649 8.30573 24.1592 8.76433 24.1592H10.7517C11.2103 24.1592 11.516 24.4649 11.516 24.9235C11.516 25.3821 11.2103 25.6878 10.7517 25.6878Z" fill="#8DC63F"/>
<path d="M20.0763 37C19.6177 37 19.312 36.6943 19.312 36.2357V34.2485C19.312 33.7899 19.6177 33.4841 20.0763 33.4841C20.5349 33.4841 20.8406 33.7899 20.8406 34.2485V36.2357C20.8406 36.6943 20.382 37 20.0763 37Z" fill="#8DC63F"/>
<path d="M20.0763 16.5159C19.6177 16.5159 19.312 16.2102 19.312 15.7516V13.7643C19.312 13.3057 19.6177 13 20.0763 13C20.5349 13 20.8406 13.3057 20.8406 13.7643V15.7516C20.8406 16.2102 20.382 16.5159 20.0763 16.5159Z" fill="#8DC63F"/>
<path d="M50.0766 37C43.5033 37 38.153 31.6497 38.153 25.0764C38.153 18.5032 43.5033 13.1528 50.0766 13.1528C56.6498 13.1528 62.0001 18.5032 62.0001 25.0764C62.0001 31.6497 56.6498 37 50.0766 37ZM50.0766 14.5287C44.2676 14.5287 39.6817 19.2675 39.6817 24.9235C39.6817 30.7325 44.4205 35.3184 50.0766 35.3184C55.7326 35.3184 60.4714 30.5796 60.4714 24.9235C60.4714 19.2675 55.7326 14.5287 50.0766 14.5287Z" fill="#8DC63F"/>
<path d="M54.0508 29.8152C53.8979 29.8152 53.5922 29.8152 53.4394 29.6624L49.4648 25.6878C49.3119 25.535 49.312 25.3821 49.312 25.0764V18.5031C49.312 18.0445 49.6177 17.7388 50.0763 17.7388C50.5349 17.7388 50.8406 18.0445 50.8406 18.5031V24.6177L54.6623 28.4394C54.968 28.7451 54.968 29.2037 54.6623 29.5095C54.3565 29.6623 54.2036 29.8152 54.0508 29.8152Z" fill="#8DC63F"/>
<path d="M61.2355 25.6878H59.2482C58.7896 25.6878 58.4839 25.3821 58.4839 24.9235C58.4839 24.4649 58.7896 24.1592 59.2482 24.1592H61.2355C61.6941 24.1592 61.9998 24.4649 61.9998 24.9235C61.9998 25.3821 61.6941 25.6878 61.2355 25.6878Z" fill="#8DC63F"/>
<path d="M40.7517 25.6878H38.7643C38.3057 25.6878 38 25.3821 38 24.9235C38 24.4649 38.3057 24.1592 38.7643 24.1592H40.7517C41.2103 24.1592 41.516 24.4649 41.516 24.9235C41.516 25.3821 41.2103 25.6878 40.7517 25.6878Z" fill="#8DC63F"/>
<path d="M50.0763 37C49.6177 37 49.312 36.6943 49.312 36.2357V34.2485C49.312 33.7899 49.6177 33.4841 50.0763 33.4841C50.5349 33.4841 50.8406 33.7899 50.8406 34.2485V36.2357C50.8406 36.6943 50.382 37 50.0763 37Z" fill="#8DC63F"/>
<path d="M50.0763 16.5159C49.6177 16.5159 49.312 16.2102 49.312 15.7516V13.7643C49.312 13.3057 49.6177 13 50.0763 13C50.5349 13 50.8406 13.3057 50.8406 13.7643V15.7516C50.8406 16.2102 50.382 16.5159 50.0763 16.5159Z" fill="#8DC63F"/>
<path d="M80.0766 37C73.5033 37 68.153 31.6497 68.153 25.0764C68.153 18.5032 73.5033 13.1528 80.0766 13.1528C86.6498 13.1528 92.0001 18.5032 92.0001 25.0764C92.0001 31.6497 86.6498 37 80.0766 37ZM80.0766 14.5287C74.2676 14.5287 69.6817 19.2675 69.6817 24.9235C69.6817 30.7325 74.4205 35.3184 80.0766 35.3184C85.7326 35.3184 90.4714 30.5796 90.4714 24.9235C90.4714 19.2675 85.7326 14.5287 80.0766 14.5287Z" fill="#8DC63F"/>
<path d="M84.0508 29.8152C83.8979 29.8152 83.5922 29.8152 83.4394 29.6624L79.4648 25.6878C79.3119 25.535 79.312 25.3821 79.312 25.0764V18.5031C79.312 18.0445 79.6177 17.7388 80.0763 17.7388C80.5349 17.7388 80.8406 18.0445 80.8406 18.5031V24.6177L84.6623 28.4394C84.968 28.7451 84.968 29.2037 84.6623 29.5095C84.3565 29.6623 84.2036 29.8152 84.0508 29.8152Z" fill="#8DC63F"/>
<path d="M91.2355 25.6878H89.2482C88.7896 25.6878 88.4839 25.3821 88.4839 24.9235C88.4839 24.4649 88.7896 24.1592 89.2482 24.1592H91.2355C91.6941 24.1592 91.9998 24.4649 91.9998 24.9235C91.9998 25.3821 91.6941 25.6878 91.2355 25.6878Z" fill="#8DC63F"/>
<path d="M70.7517 25.6878H68.7643C68.3057 25.6878 68 25.3821 68 24.9235C68 24.4649 68.3057 24.1592 68.7643 24.1592H70.7517C71.2103 24.1592 71.516 24.4649 71.516 24.9235C71.516 25.3821 71.2103 25.6878 70.7517 25.6878Z" fill="#8DC63F"/>
<path d="M80.0763 37C79.6177 37 79.312 36.6943 79.312 36.2357V34.2485C79.312 33.7899 79.6177 33.4841 80.0763 33.4841C80.5349 33.4841 80.8406 33.7899 80.8406 34.2485V36.2357C80.8406 36.6943 80.382 37 80.0763 37Z" fill="#8DC63F"/>
<path d="M80.0763 16.5159C79.6177 16.5159 79.312 16.2102 79.312 15.7516V13.7643C79.312 13.3057 79.6177 13 80.0763 13C80.5349 13 80.8406 13.3057 80.8406 13.7643V15.7516C80.8406 16.2102 80.382 16.5159 80.0763 16.5159Z" fill="#8DC63F"/>
<path d="M19.2516 45.07C19.6762 45.07 20.0682 45.1307 20.4276 45.252C20.7869 45.3733 21.0949 45.546 21.3516 45.77C21.6129 45.994 21.8159 46.2647 21.9606 46.582C22.1052 46.8993 22.1776 47.2517 22.1776 47.639C22.1776 47.9563 22.1356 48.241 22.0516 48.493C21.9722 48.7403 21.8556 48.9597 21.7016 49.151C21.5522 49.3377 21.3702 49.4963 21.1556 49.627C20.9409 49.7577 20.7006 49.8627 20.4346 49.942C21.0879 50.1147 21.5779 50.404 21.9046 50.81C22.2359 51.216 22.4016 51.7247 22.4016 52.336C22.4016 52.798 22.3129 53.2133 22.1356 53.582C21.9629 53.9507 21.7249 54.2657 21.4216 54.527C21.1182 54.7837 20.7636 54.982 20.3576 55.122C19.9562 55.2573 19.5246 55.325 19.0626 55.325C18.5306 55.325 18.0756 55.2597 17.6976 55.129C17.3196 54.9937 16.9999 54.8093 16.7386 54.576C16.4772 54.3427 16.2626 54.0673 16.0946 53.75C15.9266 53.428 15.7842 53.0803 15.6676 52.707L16.1996 52.483C16.2976 52.441 16.3956 52.42 16.4936 52.42C16.5869 52.42 16.6686 52.441 16.7386 52.483C16.8132 52.5203 16.8692 52.581 16.9066 52.665C16.9159 52.6837 16.9252 52.7047 16.9346 52.728C16.9439 52.7467 16.9532 52.7677 16.9626 52.791C17.0279 52.9263 17.1072 53.0803 17.2006 53.253C17.2939 53.421 17.4199 53.5797 17.5786 53.729C17.7372 53.8783 17.9332 54.0043 18.1666 54.107C18.4046 54.2097 18.6986 54.261 19.0486 54.261C19.3986 54.261 19.7042 54.205 19.9656 54.093C20.2316 53.9763 20.4509 53.827 20.6236 53.645C20.8009 53.463 20.9339 53.26 21.0226 53.036C21.1112 52.812 21.1556 52.5903 21.1556 52.371C21.1556 52.1003 21.1182 51.853 21.0436 51.629C20.9736 51.405 20.8429 51.2113 20.6516 51.048C20.4649 50.8847 20.2036 50.7563 19.8676 50.663C19.5362 50.5697 19.1092 50.523 18.5866 50.523V49.62C19.0112 49.6153 19.3729 49.5687 19.6716 49.48C19.9749 49.3913 20.2222 49.27 20.4136 49.116C20.6049 48.962 20.7426 48.7777 20.8266 48.563C20.9152 48.3483 20.9596 48.1103 20.9596 47.849C20.9596 47.5597 20.9129 47.3077 20.8196 47.093C20.7309 46.8783 20.6072 46.701 20.4486 46.561C20.2899 46.421 20.1009 46.316 19.8816 46.246C19.6669 46.176 19.4336 46.141 19.1816 46.141C18.9296 46.141 18.6962 46.1783 18.4816 46.253C18.2669 46.3277 18.0756 46.4327 17.9076 46.568C17.7442 46.6987 17.6066 46.8573 17.4946 47.044C17.3826 47.226 17.2986 47.4243 17.2426 47.639C17.2052 47.7743 17.1492 47.8723 17.0746 47.933C16.9999 47.9937 16.9042 48.024 16.7876 48.024C16.7642 48.024 16.7386 48.024 16.7106 48.024C16.6872 48.0193 16.6592 48.0147 16.6266 48.01L15.9756 47.898C16.0409 47.4407 16.1669 47.037 16.3536 46.687C16.5402 46.3323 16.7759 46.036 17.0606 45.798C17.3499 45.56 17.6789 45.3803 18.0476 45.259C18.4209 45.133 18.8222 45.07 19.2516 45.07Z" fill="black"/>
<path d="M30.8827 50.201C30.8827 51.0783 30.787 51.839 30.5957 52.483C30.409 53.1223 30.1523 53.652 29.8257 54.072C29.499 54.492 29.1117 54.8047 28.6637 55.01C28.2203 55.2153 27.7443 55.318 27.2357 55.318C26.7223 55.318 26.244 55.2153 25.8007 55.01C25.362 54.8047 24.9793 54.492 24.6527 54.072C24.326 53.652 24.0693 53.1223 23.8827 52.483C23.696 51.839 23.6027 51.0783 23.6027 50.201C23.6027 49.3237 23.696 48.563 23.8827 47.919C24.0693 47.275 24.326 46.743 24.6527 46.323C24.9793 45.8983 25.362 45.5833 25.8007 45.378C26.244 45.1727 26.7223 45.07 27.2357 45.07C27.7443 45.07 28.2203 45.1727 28.6637 45.378C29.1117 45.5833 29.499 45.8983 29.8257 46.323C30.1523 46.743 30.409 47.275 30.5957 47.919C30.787 48.563 30.8827 49.3237 30.8827 50.201ZM29.5877 50.201C29.5877 49.4357 29.5223 48.794 29.3917 48.276C29.2657 47.7533 29.093 47.3333 28.8737 47.016C28.659 46.6987 28.4093 46.4723 28.1247 46.337C27.84 46.197 27.5437 46.127 27.2357 46.127C26.9277 46.127 26.6313 46.197 26.3467 46.337C26.062 46.4723 25.8123 46.6987 25.5977 47.016C25.383 47.3333 25.2103 47.7533 25.0797 48.276C24.9537 48.794 24.8907 49.4357 24.8907 50.201C24.8907 50.9663 24.9537 51.608 25.0797 52.126C25.2103 52.644 25.383 53.0617 25.5977 53.379C25.8123 53.6963 26.062 53.925 26.3467 54.065C26.6313 54.2003 26.9277 54.268 27.2357 54.268C27.5437 54.268 27.84 54.2003 28.1247 54.065C28.4093 53.925 28.659 53.6963 28.8737 53.379C29.093 53.0617 29.2657 52.644 29.3917 52.126C29.5223 51.608 29.5877 50.9663 29.5877 50.201Z" fill="black"/>
<path d="M35.3328 55.213V48.122H36.0748C36.2521 48.122 36.3641 48.2083 36.4108 48.381L36.5018 49.109C36.7631 48.787 37.0548 48.5233 37.3768 48.318C37.7035 48.1127 38.0815 48.01 38.5108 48.01C38.9915 48.01 39.3788 48.143 39.6728 48.409C39.9715 48.675 40.1861 49.0343 40.3168 49.487C40.4148 49.2303 40.5431 49.0087 40.7018 48.822C40.8651 48.6353 41.0471 48.4813 41.2478 48.36C41.4485 48.2387 41.6608 48.15 41.8848 48.094C42.1135 48.038 42.3445 48.01 42.5778 48.01C42.9511 48.01 43.2825 48.0707 43.5718 48.192C43.8658 48.3087 44.1131 48.4813 44.3138 48.71C44.5191 48.9387 44.6755 49.221 44.7828 49.557C44.8901 49.8883 44.9438 50.2687 44.9438 50.698V55.213H43.6978V50.698C43.6978 50.1427 43.5765 49.7227 43.3338 49.438C43.0911 49.1487 42.7388 49.004 42.2768 49.004C42.0715 49.004 41.8755 49.0413 41.6888 49.116C41.5068 49.186 41.3458 49.291 41.2058 49.431C41.0658 49.571 40.9538 49.7483 40.8698 49.963C40.7905 50.173 40.7508 50.418 40.7508 50.698V55.213H39.5048V50.698C39.5048 50.1287 39.3905 49.704 39.1618 49.424C38.9331 49.144 38.5995 49.004 38.1608 49.004C37.8528 49.004 37.5658 49.088 37.2998 49.256C37.0385 49.4193 36.7981 49.6433 36.5788 49.928V55.213H35.3328Z" fill="black"/>
<path d="M48.3668 48.122V55.213H47.1208V48.122H48.3668ZM48.6468 45.896C48.6468 46.0173 48.6212 46.1317 48.5698 46.239C48.5232 46.3417 48.4578 46.435 48.3738 46.519C48.2945 46.5983 48.2012 46.6613 48.0938 46.708C47.9865 46.7547 47.8722 46.778 47.7508 46.778C47.6295 46.778 47.5152 46.7547 47.4078 46.708C47.3052 46.6613 47.2118 46.5983 47.1278 46.519C47.0485 46.435 46.9855 46.3417 46.9388 46.239C46.8922 46.1317 46.8688 46.0173 46.8688 45.896C46.8688 45.7747 46.8922 45.6603 46.9388 45.553C46.9855 45.441 47.0485 45.3453 47.1278 45.266C47.2118 45.182 47.3052 45.1167 47.4078 45.07C47.5152 45.0233 47.6295 45 47.7508 45C47.8722 45 47.9865 45.0233 48.0938 45.07C48.2012 45.1167 48.2945 45.182 48.3738 45.266C48.4578 45.3453 48.5232 45.441 48.5698 45.553C48.6212 45.6603 48.6468 45.7747 48.6468 45.896Z" fill="black"/>
<path d="M50.7129 55.213V48.122H51.4549C51.6322 48.122 51.7442 48.2083 51.7909 48.381L51.8889 49.151C52.1969 48.8103 52.5399 48.535 52.9179 48.325C53.3005 48.115 53.7415 48.01 54.2409 48.01C54.6282 48.01 54.9689 48.0753 55.2629 48.206C55.5615 48.332 55.8089 48.514 56.0049 48.752C56.2055 48.9853 56.3572 49.2677 56.4599 49.599C56.5625 49.9303 56.6139 50.2967 56.6139 50.698V55.213H55.3679V50.698C55.3679 50.1613 55.2442 49.746 54.9969 49.452C54.7542 49.1533 54.3809 49.004 53.8769 49.004C53.5082 49.004 53.1629 49.0927 52.8409 49.27C52.5235 49.4473 52.2295 49.6877 51.9589 49.991V55.213H50.7129Z" fill="black"/>
<path d="M59.7202 48.122V52.644C59.7202 53.1807 59.8438 53.596 60.0912 53.89C60.3385 54.184 60.7118 54.331 61.2112 54.331C61.5752 54.331 61.9182 54.2447 62.2402 54.072C62.5622 53.8993 62.8585 53.659 63.1292 53.351V48.122H64.3752V55.213H63.6332C63.4558 55.213 63.3438 55.1267 63.2972 54.954L63.1992 54.191C62.8912 54.5317 62.5458 54.807 62.1632 55.017C61.7805 55.2223 61.3418 55.325 60.8472 55.325C60.4598 55.325 60.1168 55.262 59.8182 55.136C59.5242 55.0053 59.2768 54.8233 59.0762 54.59C58.8755 54.3567 58.7238 54.0743 58.6212 53.743C58.5232 53.4117 58.4742 53.0453 58.4742 52.644V48.122H59.7202Z" fill="black"/>
<path d="M68.7205 55.325C68.1605 55.325 67.7288 55.1687 67.4255 54.856C67.1268 54.5433 66.9775 54.093 66.9775 53.505V49.165H66.1235C66.0488 49.165 65.9858 49.144 65.9345 49.102C65.8831 49.0553 65.8575 48.9853 65.8575 48.892V48.395L67.0195 48.248L67.3065 46.057C67.3158 45.987 67.3461 45.931 67.3975 45.889C67.4488 45.8423 67.5141 45.819 67.5935 45.819H68.2235V48.262H70.2535V49.165H68.2235V53.421C68.2235 53.7197 68.2958 53.9413 68.4405 54.086C68.5851 54.2307 68.7718 54.303 69.0005 54.303C69.1311 54.303 69.2431 54.2867 69.3365 54.254C69.4345 54.2167 69.5185 54.177 69.5885 54.135C69.6585 54.093 69.7168 54.0557 69.7635 54.023C69.8148 53.9857 69.8591 53.967 69.8965 53.967C69.9618 53.967 70.0201 54.0067 70.0715 54.086L70.4355 54.681C70.2208 54.8817 69.9618 55.0403 69.6585 55.157C69.3551 55.269 69.0425 55.325 68.7205 55.325Z" fill="black"/>
<path d="M74.8141 48.01C75.3321 48.01 75.7988 48.0963 76.2141 48.269C76.6341 48.4417 76.9888 48.6867 77.2781 49.004C77.5721 49.3213 77.7961 49.7063 77.9501 50.159C78.1088 50.607 78.1881 51.1087 78.1881 51.664C78.1881 52.224 78.1088 52.728 77.9501 53.176C77.7961 53.624 77.5721 54.0067 77.2781 54.324C76.9888 54.6413 76.6341 54.8863 76.2141 55.059C75.7988 55.227 75.3321 55.311 74.8141 55.311C74.2961 55.311 73.8271 55.227 73.4071 55.059C72.9918 54.8863 72.6371 54.6413 72.3431 54.324C72.0491 54.0067 71.8228 53.624 71.6641 53.176C71.5055 52.728 71.4261 52.224 71.4261 51.664C71.4261 51.1087 71.5055 50.607 71.6641 50.159C71.8228 49.7063 72.0491 49.3213 72.3431 49.004C72.6371 48.6867 72.9918 48.4417 73.4071 48.269C73.8271 48.0963 74.2961 48.01 74.8141 48.01ZM74.8141 54.338C75.5141 54.338 76.0368 54.1047 76.3821 53.638C76.7275 53.1667 76.9001 52.511 76.9001 51.671C76.9001 50.8263 76.7275 50.1683 76.3821 49.697C76.0368 49.2257 75.5141 48.99 74.8141 48.99C74.4595 48.99 74.1515 49.0507 73.8901 49.172C73.6288 49.2933 73.4095 49.4683 73.2321 49.697C73.0595 49.9257 72.9288 50.208 72.8401 50.544C72.7561 50.8753 72.7141 51.251 72.7141 51.671C72.7141 52.091 72.7561 52.4667 72.8401 52.798C72.9288 53.1293 73.0595 53.4093 73.2321 53.638C73.4095 53.862 73.6288 54.0347 73.8901 54.156C74.1515 54.2773 74.4595 54.338 74.8141 54.338Z" fill="black"/>
<path d="M83.9334 49.291C83.8774 49.3937 83.7911 49.445 83.6744 49.445C83.6044 49.445 83.5251 49.4193 83.4364 49.368C83.3477 49.3167 83.2381 49.2607 83.1074 49.2C82.9814 49.1347 82.8298 49.0763 82.6524 49.025C82.4751 48.969 82.2651 48.941 82.0224 48.941C81.8124 48.941 81.6234 48.969 81.4554 49.025C81.2874 49.0763 81.1427 49.1487 81.0214 49.242C80.9047 49.3353 80.8138 49.445 80.7484 49.571C80.6878 49.6923 80.6574 49.8253 80.6574 49.97C80.6574 50.152 80.7087 50.3037 80.8114 50.425C80.9187 50.5463 81.0587 50.6513 81.2314 50.74C81.4041 50.8287 81.6001 50.908 81.8194 50.978C82.0387 51.0433 82.2627 51.1157 82.4914 51.195C82.7247 51.2697 82.9511 51.3537 83.1704 51.447C83.3897 51.5403 83.5857 51.657 83.7584 51.797C83.9311 51.937 84.0687 52.1097 84.1714 52.315C84.2787 52.5157 84.3324 52.7583 84.3324 53.043C84.3324 53.3697 84.2741 53.673 84.1574 53.953C84.0407 54.2283 83.8681 54.4687 83.6394 54.674C83.4108 54.8747 83.1308 55.0333 82.7994 55.15C82.4681 55.2667 82.0854 55.325 81.6514 55.325C81.1568 55.325 80.7088 55.2457 80.3074 55.087C79.9061 54.9237 79.5654 54.716 79.2854 54.464L79.5794 53.988C79.6167 53.9273 79.6611 53.8807 79.7124 53.848C79.7637 53.8153 79.8314 53.799 79.9154 53.799C79.9994 53.799 80.0881 53.8317 80.1814 53.897C80.2747 53.9623 80.3867 54.0347 80.5174 54.114C80.6527 54.1933 80.8138 54.2657 81.0004 54.331C81.1917 54.3963 81.4297 54.429 81.7144 54.429C81.9571 54.429 82.1694 54.3987 82.3514 54.338C82.5334 54.2727 82.6851 54.1863 82.8064 54.079C82.9277 53.9717 83.0164 53.848 83.0724 53.708C83.1331 53.568 83.1634 53.4187 83.1634 53.26C83.1634 53.064 83.1097 52.903 83.0024 52.777C82.8997 52.6463 82.7621 52.5367 82.5894 52.448C82.4167 52.3547 82.2184 52.2753 81.9944 52.21C81.7751 52.14 81.5487 52.0677 81.3154 51.993C81.0867 51.9183 80.8604 51.8343 80.6364 51.741C80.4171 51.643 80.2211 51.5217 80.0484 51.377C79.8757 51.2323 79.7357 51.055 79.6284 50.845C79.5258 50.6303 79.4744 50.3713 79.4744 50.068C79.4744 49.7973 79.5304 49.5383 79.6424 49.291C79.7544 49.039 79.9177 48.8197 80.1324 48.633C80.3471 48.4417 80.6107 48.29 80.9234 48.178C81.2361 48.066 81.5931 48.01 81.9944 48.01C82.4611 48.01 82.8788 48.0847 83.2474 48.234C83.6208 48.3787 83.9427 48.5793 84.2134 48.836L83.9334 49.291Z" fill="black"/>
</svg>
