<svg width="85" height="56" viewBox="0 0 85 56" fill="none" xmlns="http://www.w3.org/2000/svg">
<path d="M40.7091 35.0608C56.9652 35.0608 71.4993 37.4028 81.4182 41.0535C79.3518 18.4603 61.9247 0.75769 40.7091 0.75769C19.4935 0.826572 2.06645 18.4603 0 41.1224C9.91897 37.4028 24.453 35.0608 40.7091 35.0608Z" fill="#8EC044"/>
<path d="M28.7236 12.4676C27.4148 14.3274 26.6572 16.0495 27.1393 17.496C27.5526 18.9425 29.3435 20.1135 31.2033 20.8712C29.6191 17.2893 32.9254 14.3274 33.8208 12.5365C34.7163 10.6767 35.1296 8.95466 34.5786 7.50814C34.0964 6.06162 32.6499 4.89063 31.3411 4.13293C31.7544 4.89063 32.1677 6.06162 31.6855 7.50814C31.3411 8.88578 30.1012 10.6078 28.7236 12.4676Z" fill="#EDEDED"/>
<path d="M48.9748 5.30389C48.1482 6.47488 47.6661 7.57699 47.9416 8.47246C48.1482 9.4368 49.1815 10.1945 50.2836 10.7456C49.457 8.40357 51.4546 6.61265 52.0056 5.44166C52.5567 4.27067 52.8322 3.16856 52.5567 2.20422C52.35 1.30875 51.5235 0.482172 50.7658 0C50.9724 0.482172 51.2479 1.23987 50.9035 2.20422C50.628 3.09968 49.8014 4.13291 48.9748 5.30389Z" fill="#EDEDED"/>
<path d="M35.474 12.1921C34.7852 13.0875 34.4408 13.9141 34.5785 14.6718C34.7163 15.4295 35.474 16.1183 36.2317 16.5316C35.6806 14.6718 37.2649 13.2942 37.7471 12.3298C38.2293 11.4344 38.4359 10.5389 38.2293 9.78119C38.0915 9.02349 37.4716 8.40356 36.9205 7.92139C37.0583 8.33468 37.196 8.95461 36.9894 9.64343C36.7827 10.47 36.1628 11.2966 35.474 12.1921Z" fill="#EDEDED"/>
<path d="M55.1054 23.6264C54.4854 24.3841 54.0721 25.073 54.141 25.7618C54.2099 26.4506 54.761 27.0705 55.3809 27.5527C55.1054 25.8307 56.5519 24.7285 57.0341 23.902C57.5162 23.1443 57.7918 22.3866 57.7229 21.6978C57.654 21.0089 57.2407 20.389 56.7585 19.9757C56.8274 20.3201 56.8963 20.8712 56.6208 21.56C56.4141 22.1799 55.7942 22.8687 55.1054 23.6264Z" fill="#EDEDED"/>
<path d="M30.1012 37.2651C29.8257 37.9539 29.7568 38.505 29.9634 38.9183C30.1701 39.3316 30.6522 39.676 31.2033 39.8137C30.5833 38.7116 31.2722 37.6095 31.4099 36.9896C31.5477 36.3696 31.5477 35.8186 31.341 35.3364C31.1344 34.9231 30.6522 34.5787 30.3078 34.3721C30.4456 34.5787 30.6522 34.9231 30.5834 35.4053C30.5834 36.0252 30.3078 36.6452 30.1012 37.2651Z" fill="#EDEDED"/>
<path d="M20.0445 19.9068C19.3557 20.8711 18.9424 21.6977 19.2179 22.5243C19.4245 23.282 20.2511 23.9019 21.1466 24.3841C20.4578 22.4554 22.1109 21.0089 22.5931 20.0445C23.0753 19.0802 23.2819 18.1847 23.0064 17.427C22.7997 16.6693 22.1109 16.0494 21.491 15.6361C21.6976 16.0494 21.8354 16.6693 21.6288 17.427C21.3532 18.1159 20.6644 18.9424 20.0445 19.9068Z" fill="#EDEDED"/>
<path d="M10.1945 36.9206L10.5389 37.885C11.2966 39.9514 10.7456 41.329 8.748 42.3623C7.30148 43.12 5.44168 42.5689 4.68398 41.1224C3.92628 39.6759 4.47733 37.8161 5.92385 37.0584L4.89062 35.0608C2.342 36.3696 1.30877 39.607 2.68641 42.1556C4.06404 44.7042 7.2326 45.7375 9.78123 44.4287C12.4676 43.0511 13.5697 40.778 12.9498 38.0916L22.0422 33.3388L21.009 31.3412L10.1945 36.9206Z" fill="#AEAEAE"/>
<path d="M12.6742 37.8161L12.7431 38.1605C13.2942 40.5025 12.2609 42.5 9.71231 43.8088C7.37033 45.0487 4.4773 44.2221 3.37519 42.0179C2.27308 39.8825 3.09966 37.1273 5.37276 35.8874L4.89059 35.0608C2.2042 36.5762 1.17097 39.8136 2.54861 42.4311C3.92624 45.1175 7.37033 46.0819 10.1256 44.6354C12.8809 43.1889 14.1207 40.9846 13.7074 38.3671L22.3177 33.8898L21.9044 33.0632L12.6742 37.8161Z" fill="#797979"/>
<path d="M26.175 32.5811C26.175 32.5811 24.1774 38.2983 18.4603 38.8493C18.4603 38.8493 13.9829 34.8542 15.2917 28.0349L21.1466 26.3129C21.1466 26.3129 23.2131 31.5479 26.175 32.5811Z" fill="url(#paint0_linear)"/>
<path d="M15.2917 28.1726H17.5648C17.5648 28.1726 16.9448 33.6831 22.7998 37.4716C22.7998 37.4716 20.32 39.3314 18.3225 38.7804C18.3913 38.7115 14.2584 34.0964 15.2917 28.1726Z" fill="#8D1003"/>
<path d="M15.7049 28.5861C15.7049 28.5861 15.636 29.2749 15.7049 30.2392C15.7049 30.5147 15.7049 30.7903 15.7737 31.0658C15.7737 31.3413 15.8426 31.6857 15.9115 31.9613C15.9804 32.3057 16.0493 32.5812 16.1182 32.9256C16.187 33.27 16.3248 33.5455 16.3937 33.89C16.5314 34.1655 16.6003 34.5099 16.807 34.7854C16.9447 35.0609 17.0825 35.3365 17.2891 35.612C17.4269 35.8875 17.6336 36.0942 17.7713 36.3008C17.978 36.5075 18.1157 36.7141 18.3224 36.8519C18.529 36.9896 18.6668 37.1274 18.8045 37.2652C18.9423 37.334 19.0801 37.4718 19.2178 37.5407C19.4245 37.6784 19.5622 37.7473 19.5622 37.7473L18.8734 38.9183C18.8734 38.9183 18.7357 38.7806 18.4601 38.5739C18.3224 38.4361 18.1846 38.3673 17.978 38.2295C17.8402 38.0917 17.6336 37.8851 17.4269 37.6785C17.2203 37.4718 17.0825 37.1963 16.8759 36.9896C16.6692 36.7141 16.5314 36.4386 16.3248 36.1631C16.1182 35.8875 16.0493 35.5431 15.9115 35.1987C15.7737 34.8543 15.7049 34.5099 15.5671 34.1655C15.4982 33.8211 15.4293 33.4767 15.3605 33.1323C15.2916 32.7878 15.2227 32.4434 15.2227 32.099C15.2227 31.7546 15.1538 31.4791 15.1538 31.1347C15.1538 30.8592 15.1538 30.5836 15.1538 30.3081C15.2227 29.2749 15.2916 28.5861 15.2916 28.5861H15.7049Z" fill="#6B0F09"/>
<path d="M20.9398 26.864C20.9398 26.864 20.9398 26.864 20.9398 26.9329C20.9398 27.0018 20.9398 27.0707 20.9398 27.2084C20.9398 27.4151 21.0087 27.7595 21.1465 28.1039C21.2154 28.3105 21.2842 28.4483 21.3531 28.6549C21.422 28.8616 21.5598 29.0682 21.6287 29.2749C21.7664 29.4815 21.9042 29.6882 22.0419 29.8948C22.1797 30.1015 22.3175 30.3081 22.5241 30.4459C22.7308 30.6525 22.8685 30.7903 23.0752 30.9969C23.2818 31.1347 23.4196 31.3413 23.6262 31.4791C23.8329 31.6169 23.9706 31.7546 24.1773 31.8924C24.3839 32.0301 24.5217 32.099 24.7283 32.1679C25.0727 32.3746 25.3483 32.4434 25.5549 32.5812C25.7616 32.6501 25.8993 32.719 25.8993 32.719L25.3483 33.9588C25.3483 33.9588 25.2105 33.89 25.0039 33.7522C24.7972 33.6144 24.5217 33.4767 24.1773 33.2011C24.0395 33.0634 23.8329 32.9256 23.6262 32.7878C23.4196 32.6501 23.2818 32.4434 23.0752 32.3057C22.8685 32.099 22.7308 31.8924 22.5241 31.7546C22.3175 31.548 22.1797 31.3413 21.9731 31.1347C21.8353 30.928 21.6287 30.6525 21.5598 30.4459C21.422 30.2392 21.2842 29.9637 21.2154 29.757C21.0776 29.5504 21.0087 29.2749 20.9398 29.0682C20.871 28.8616 20.8021 28.6549 20.8021 28.4483C20.7332 28.035 20.7332 27.6906 20.6643 27.484C20.6643 27.3462 20.6643 27.2773 20.6643 27.2084C20.6643 27.1395 20.6643 27.1395 20.6643 27.1395L20.9398 26.864Z" fill="#981418"/>
<path d="M19.0112 28.6549C19.0112 28.6549 19.0112 28.6549 19.0112 28.7238C19.0112 28.7927 19.0112 28.8616 19.0112 28.9993C19.0112 29.206 19.0801 29.5504 19.2178 29.8948C19.2867 30.1014 19.3556 30.2392 19.4245 30.4458C19.4934 30.6525 19.6311 30.8591 19.7 31.0658C19.8378 31.2724 19.9755 31.4791 20.1133 31.6857C20.2511 31.8924 20.3888 32.099 20.5955 32.2368C20.8021 32.4434 20.9399 32.5812 21.1465 32.7878C21.3532 32.9256 21.4909 33.1322 21.6976 33.27C21.9042 33.4077 22.042 33.5455 22.2486 33.6833C22.4553 33.821 22.593 33.8899 22.7997 33.9588C23.1441 34.1654 23.4196 34.2343 23.6263 34.3721C23.8329 34.441 23.9018 34.5099 23.9018 34.5099L23.3507 35.7497C23.3507 35.7497 23.213 35.6808 23.0063 35.5431C22.7308 35.2676 22.3864 35.1298 22.042 34.8543C21.9042 34.7165 21.6976 34.5787 21.4909 34.441C21.2843 34.3032 21.1465 34.0966 20.9399 33.9588C20.7332 33.7522 20.5955 33.5455 20.3888 33.4077C20.1822 33.2011 20.0444 32.9945 19.9067 32.7878C19.7689 32.5812 19.5622 32.3056 19.4934 32.099C19.3556 31.8235 19.2178 31.6168 19.149 31.4102C19.0112 31.2035 18.9423 30.928 18.8734 30.7214C18.8045 30.5147 18.7357 30.3081 18.7357 30.1014C18.5979 29.5504 18.5979 29.206 18.5979 28.9993C18.5979 28.8616 18.5979 28.7927 18.5979 28.7238C18.5979 28.6549 18.5979 28.6549 18.5979 28.6549H19.0112Z" fill="#981418"/>
<path d="M16.876 27.966L20.4578 26.6572L20.5267 27.0705L16.9449 28.1726L16.876 27.966Z" fill="#F1A284"/>
<path d="M20.9399 31.2723L22.042 33.3387L50.7657 18.3225L50.5591 15.8428L20.9399 31.2723Z" fill="#CECECE"/>
<path d="M21.9043 32.9944L22.3176 33.821L50.8346 18.9425L50.7657 17.9093L21.9043 32.9944Z" fill="#797979"/>
<path d="M27.6216 22.3866C27.5527 22.4555 27.415 22.5244 27.3461 22.6621C25.0041 24.9352 25.0041 28.7237 27.3461 31.1346C29.6881 33.5454 33.4766 33.6832 35.8185 31.3412C35.8185 31.3412 35.8185 31.3412 35.8874 31.2723L27.6216 22.3866Z" fill="url(#paint1_linear)"/>
<path d="M31.7545 33.4077C29.9636 33.4077 28.3104 32.7189 27.0705 31.4101C24.5908 28.8615 24.5908 24.7975 27.1394 22.3866C27.2083 22.3177 27.2772 22.2488 27.4149 22.1799L27.7593 21.9044L36.4384 31.4101L36.1629 31.6856C34.923 32.7877 33.4076 33.4077 31.7545 33.4077ZM27.6216 22.9376C25.4174 25.073 25.4174 28.6548 27.6216 30.9279C28.7237 32.0989 30.1702 32.7189 31.7545 32.7189C33.0632 32.7189 34.372 32.2367 35.3363 31.4101L27.6216 22.9376Z" fill="#91140C"/>
<path d="M32.3055 29.4125C30.9279 30.3768 29.8947 29.7569 29.137 28.6548C28.3793 27.6216 29.137 27.1394 29.2058 26.4506C29.2058 24.9352 27.6904 24.3841 27.2083 24.8663C26.4506 25.624 26.2439 28.3793 28.1037 30.2391C29.9635 32.1678 31.5478 32.1678 33.4765 31.3412C34.3031 31.1345 32.9943 28.9992 32.3055 29.4125Z" fill="#A3151B"/>
<path d="M27.6905 26.6572C27.415 26.5195 27.2084 26.5884 27.1395 26.795C27.0706 27.0017 27.2773 27.2083 27.4839 27.3461C27.7594 27.4838 28.4482 27.4149 28.4482 27.4149C28.5171 27.4149 27.9661 26.795 27.6905 26.6572Z" fill="#E94E1B"/>
<path d="M27.7592 28.1726C27.4837 28.1726 27.3459 28.3793 27.4148 28.5859C27.4837 28.7925 27.6903 28.9992 27.9658 28.9303C28.2414 28.9303 28.7924 28.517 28.7924 28.517C28.7924 28.517 28.0347 28.1726 27.7592 28.1726Z" fill="#E94E1B"/>
<path d="M28.5857 29.6881C28.3791 29.8259 28.3102 30.1014 28.5169 30.2391C28.6546 30.4458 28.9302 30.4458 29.1368 30.308C29.3434 30.1703 29.5501 29.5503 29.5501 29.4814C29.5501 29.5503 28.7924 29.5503 28.5857 29.6881Z" fill="#E94E1B"/>
<path d="M29.9636 30.7213C29.8947 30.9279 29.9636 31.2035 30.1702 31.3412C30.3769 31.479 30.5835 31.3412 30.7213 31.1346C30.7902 30.928 30.7213 30.1703 30.6524 30.1703C30.5835 30.1014 30.0325 30.5147 29.9636 30.7213Z" fill="#E94E1B"/>
<path d="M31.479 31.1346C31.5479 31.4102 31.7545 31.6168 31.9612 31.6168C32.1678 31.6168 32.3056 31.4102 32.3056 31.1346C32.2367 30.8591 31.8234 30.1703 31.8234 30.1703C31.7545 30.1703 31.479 30.8591 31.479 31.1346Z" fill="#E94E1B"/>
<path d="M53.3834 20.4578C52.1435 22.2487 48.3551 22.9376 46.4952 20.94C44.6354 18.8735 44.5666 15.2917 46.1508 13.2941C47.5285 11.5721 50.697 11.5032 52.5568 13.5696C54.4166 15.5672 54.6233 18.6669 53.3834 20.4578Z" fill="url(#paint2_linear)"/>
<path d="M49.5948 22.4554C48.2172 22.4554 47.0462 21.9732 46.2885 21.0778C44.4287 19.0113 44.222 15.2228 45.9441 13.0875C46.6329 12.192 47.8039 11.7098 49.0437 11.7098C50.4214 11.7098 51.799 12.3298 52.7634 13.363C54.6232 15.4295 54.9676 18.598 53.6588 20.6645C52.9011 21.6977 51.248 22.4554 49.5948 22.4554ZM49.0437 12.2609C47.9416 12.2609 46.9084 12.6742 46.3574 13.4319C44.7731 15.4295 44.9797 18.8047 46.7018 20.7333C47.3906 21.491 48.4238 21.9043 49.5948 21.9043C51.1102 21.9043 52.4878 21.2844 53.1078 20.3201C54.2099 18.7358 54.2099 15.7739 52.2812 13.7074C51.5235 12.7431 50.2836 12.2609 49.0437 12.2609Z" fill="#91140C"/>
<path d="M53.1076 18.5981C52.9699 19.3558 51.3856 18.1848 51.6611 17.6337C52.2122 16.3939 51.73 15.4984 50.9034 14.8096C50.0768 14.1208 49.8702 14.8785 49.388 14.8785C48.3548 14.9473 47.8037 13.5008 48.1482 13.0875C48.6303 12.3987 50.559 12.1921 52.0055 13.8452C53.3832 15.4295 53.5898 16.8071 53.1076 18.5981Z" fill="#A3151B"/>
<path d="M49.3192 13.5008C49.1815 13.2942 49.2504 13.0187 49.3881 13.0187C49.5259 12.9498 49.7325 13.0875 49.8014 13.3631C49.8703 13.5697 49.9392 14.2585 49.9392 14.2585C49.8703 14.1896 49.3881 13.7075 49.3192 13.5008Z" fill="#E94E1B"/>
<path d="M50.4211 13.5009C50.4211 13.2942 50.49 13.0876 50.6967 13.1565C50.8344 13.2253 50.9722 13.432 51.0411 13.6386C51.0411 13.8453 50.8344 14.3963 50.8344 14.3963C50.6967 14.3963 50.4211 13.7764 50.4211 13.5009Z" fill="#E94E1B"/>
<path d="M51.5233 14.2585C51.5922 14.0519 51.7989 14.0519 51.9366 14.1896C52.0744 14.3274 52.1433 14.534 52.0744 14.7407C52.0055 14.9473 51.5922 15.154 51.5233 15.154C51.4545 15.0851 51.4545 14.3963 51.5233 14.2585Z" fill="#E94E1B"/>
<path d="M52.3501 15.4295C52.4878 15.3606 52.6945 15.4295 52.7633 15.6362C52.8322 15.8428 52.8322 16.0495 52.6256 16.1183C52.4878 16.1872 51.9368 16.1183 51.9368 16.1183C52.0056 16.0495 52.2123 15.4984 52.3501 15.4295Z" fill="#E94E1B"/>
<path d="M52.7632 16.8071C52.9698 16.8071 53.1076 17.0138 53.1765 17.2204C53.1765 17.4271 53.0387 17.5648 52.9009 17.4959C52.6943 17.4959 52.2121 17.0827 52.2121 17.0827C52.0743 17.0138 52.5565 16.8071 52.7632 16.8071Z" fill="#E94E1B"/>
<path d="M51.8679 20.3891C52.35 20.1824 51.1791 18.3915 50.8346 18.7359C50.0769 19.4936 49.3192 18.9425 48.6993 18.0471C48.0794 17.1516 48.4927 16.8072 48.4238 16.2562C48.2171 15.0163 47.115 14.5341 46.9084 14.8785C46.4951 15.4296 46.7706 17.7716 48.286 19.3558C49.6637 21.009 50.6969 21.0779 51.8679 20.3891Z" fill="#A3151B"/>
<path d="M47.3906 16.325C47.1839 16.1872 47.0461 16.2561 47.0461 16.3939C47.0461 16.5316 47.1839 16.7383 47.3906 16.876C47.5972 17.0138 48.0105 16.9449 48.0794 16.9449C48.0105 16.9449 47.5972 16.4627 47.3906 16.325Z" fill="#E94E1B"/>
<path d="M47.6661 17.6337C47.5284 17.6337 47.3906 17.7714 47.4595 17.9781C47.5284 18.1847 47.735 18.3225 47.8728 18.3225C48.0105 18.3225 48.3549 18.047 48.3549 17.9781C48.3549 17.9092 47.8728 17.6337 47.6661 17.6337Z" fill="#E94E1B"/>
<path d="M48.4238 18.8736C48.286 19.0114 48.3549 19.2181 48.4238 19.3558C48.5615 19.4936 48.6993 19.5625 48.8371 19.4247C48.9748 19.2869 49.0437 18.8048 49.0437 18.8048C49.0437 18.7359 48.5615 18.7359 48.4238 18.8736Z" fill="#E94E1B"/>
<path d="M49.457 19.769C49.457 19.9757 49.5259 20.1823 49.6637 20.2512C49.8014 20.3201 49.9392 20.2512 50.0081 20.1134C50.0081 19.9068 49.8703 19.2869 49.8703 19.2869C49.8014 19.2869 49.457 19.6313 49.457 19.769Z" fill="#E94E1B"/>
<path d="M50.5592 20.1134C50.6281 20.3201 50.7658 20.5267 50.9036 20.5267C51.0414 20.5267 51.1102 20.3889 51.0413 20.1823C50.9725 19.9756 50.5592 19.4246 50.5592 19.3557C50.5592 19.3557 50.4903 19.9068 50.5592 20.1134Z" fill="#E94E1B"/>
<path d="M49.8013 16.3939C49.939 16.1872 50.3523 15.7051 50.559 15.6362C51.0411 15.5673 51.3167 16.3939 51.3855 16.876C51.4544 17.496 51.2478 17.7715 51.73 18.4603C52.0055 18.8736 53.1076 19.6313 52.6943 20.1135C52.2121 19.6313 51.7988 19.0803 51.3167 18.5292C51.1789 18.3914 50.559 17.5649 50.4212 17.5649C49.939 17.496 49.939 18.7359 49.3191 17.9093C48.9747 17.4271 48.9747 16.7383 48.768 16.1872C48.4925 15.6362 48.1481 15.154 47.7348 14.7407C47.5282 14.5341 47.1149 14.1897 47.2526 13.8453C47.597 13.2942 49.6635 16.6005 49.8013 16.3939Z" fill="url(#paint3_linear)"/>
<path d="M32.8564 24.3841C32.8564 24.3841 33.2009 17.7026 38.7803 16.8071C38.7803 16.8071 44.0842 19.6313 44.4286 26.5883L39.0558 29.5503C39.0558 29.4814 35.9561 24.6596 32.8564 24.3841Z" fill="url(#paint4_linear)"/>
<path d="M44.3597 26.4506L42.1555 27.0017C42.1555 27.0017 41.4667 21.4912 34.854 19.2181C34.854 19.2181 36.7827 16.8072 38.918 16.8761C38.918 16.8761 44.0153 20.4579 44.3597 26.4506Z" fill="#8D1003"/>
<path d="M43.8776 26.1751C43.8776 26.1751 43.8087 25.4862 43.5332 24.5219C43.4643 24.3153 43.3954 24.0397 43.2577 23.7642C43.1888 23.4887 43.051 23.2132 42.9133 22.9376C42.7755 22.6621 42.6377 22.3866 42.5 22.111C42.3622 21.8355 42.1556 21.56 42.0178 21.2845C41.8112 21.0089 41.6734 20.7334 41.4667 20.5268C41.2601 20.3201 41.0535 20.0446 40.8468 19.8379C40.6402 19.6313 40.4335 19.4247 40.158 19.2869C39.9513 19.1491 39.7447 18.9425 39.5381 18.8736C39.3314 18.7358 39.1248 18.667 38.987 18.5981C38.7804 18.5292 38.6426 18.4603 38.5048 18.4603C38.2293 18.3914 37.1272 17.7715 37.1272 17.7715L38.5048 17.0138C38.5048 17.0138 38.6426 17.0827 38.987 17.2204C39.1248 17.2893 39.3314 17.3582 39.5381 17.496C39.7447 17.6337 39.9513 17.7715 40.158 17.9093C40.4335 18.047 40.6402 18.2537 40.8468 18.4603C41.1223 18.667 41.329 18.8736 41.5356 19.1491C41.8112 19.4247 41.9489 19.7002 42.1556 19.9757C42.3622 20.2512 42.5 20.5956 42.7066 20.8712C42.8444 21.2156 43.051 21.4911 43.1888 21.8355C43.3266 22.1799 43.4643 22.4555 43.5332 22.7999C43.671 23.0754 43.7398 23.4198 43.8087 23.6953C43.8776 23.9709 43.9465 24.2464 44.0154 24.5219C44.222 25.5551 44.222 26.2439 44.222 26.2439L43.8776 26.1751Z" fill="#6B0F09"/>
<path d="M34.1653 22.5933C34.1653 22.5933 34.3031 22.5933 34.5098 22.6621C34.7164 22.731 35.0608 22.731 35.4052 22.8688C35.6119 22.9377 35.8185 23.0066 36.0252 23.0754C36.2318 23.1443 36.4384 23.2821 36.714 23.351C36.9206 23.4887 37.1961 23.5576 37.4028 23.6954C37.6094 23.8331 37.885 23.9709 38.0916 24.1087C38.2983 24.2464 38.5049 24.4531 38.7115 24.6597C38.9182 24.8664 39.1248 25.0041 39.2626 25.2108C39.4692 25.4174 39.607 25.6241 39.7448 25.7618C39.8825 25.9685 40.0203 26.1751 40.0892 26.3129C40.2958 26.6573 40.4336 27.0017 40.5025 27.2083C40.5714 27.3461 40.5714 27.415 40.5714 27.4839C40.5714 27.5527 40.5714 27.6216 40.5714 27.6216L39.8137 27.7594C39.8137 27.7594 39.8137 27.6905 39.7448 27.4839C39.6759 27.2772 39.607 27.0017 39.4004 26.6573C39.3315 26.5195 39.1937 26.3129 39.1248 26.1062C38.9871 25.8996 38.9182 25.7618 38.7115 25.5552C38.5738 25.3485 38.436 25.2108 38.2294 25.0041C38.0916 24.7975 37.885 24.6597 37.6783 24.4531C37.4717 24.3153 37.265 24.1087 37.0584 23.9709C36.8517 23.8331 36.6451 23.6954 36.4384 23.5576C36.2318 23.4198 36.0252 23.351 35.8185 23.2821C35.6119 23.2132 35.4052 23.1443 35.2675 23.0754C35.0608 23.0066 34.923 22.9377 34.7853 22.9377C34.6475 22.8688 34.5098 22.8688 34.372 22.7999C34.1654 22.731 34.0276 22.731 34.0276 22.731L34.1653 22.5933Z" fill="#981418"/>
<path d="M44.2221 26.3817L38.9871 29.4125L38.9182 28.7237L42.3623 26.795L44.2221 26.3817Z" fill="#AF0E1B"/>
<path d="M45.6686 14.4652C45.6686 14.4652 44.9798 20.0446 50.1459 22.1111C50.1459 22.1111 47.0462 22.5244 45.8064 19.838C44.6354 17.2205 45.1176 14.3963 45.6686 14.4652Z" fill="#91140C"/>
<path d="M60.5469 10.6766L50.5591 15.8428L50.7657 18.3225L61.5802 12.6742L60.5469 10.6766Z" fill="#CECECE"/>
<path d="M61.3737 12.3298L50.7659 17.9093L50.8348 18.9425L61.8558 13.1564L61.3737 12.3298Z" fill="#797979"/>
<path d="M66.4708 11.6411C66.4708 11.6411 64.2665 17.5649 58.5494 18.1848C58.5494 18.1848 54.0721 14.1897 55.3808 7.37041L61.2358 5.78613C61.2358 5.78613 63.5089 10.6767 66.4708 11.6411Z" fill="url(#paint5_linear)"/>
<path d="M55.381 7.43921H57.6541C57.6541 7.43921 57.0342 12.9497 62.8891 16.7382C62.8891 16.7382 60.4094 18.5981 58.4118 18.1159C58.4807 18.047 54.3478 13.4319 55.381 7.43921Z" fill="#8D1003"/>
<path d="M59.0317 7.71484C59.0317 7.71484 59.0317 7.71484 59.0317 7.78373C59.0317 7.85261 59.0317 7.92149 59.0317 8.05925C59.0317 8.2659 59.1005 8.61031 59.2383 8.95472C59.3072 9.16136 59.3761 9.29912 59.445 9.50577C59.5138 9.71241 59.6516 9.91906 59.7205 10.1257C59.8582 10.3324 59.996 10.539 60.1338 10.7456C60.2715 10.9523 60.4093 11.1589 60.6159 11.2967C60.8226 11.5033 60.9604 11.6411 61.167 11.8477C61.3736 11.9855 61.5114 12.1922 61.7181 12.3299C61.9247 12.4677 62.0625 12.6054 62.2691 12.7432C62.4758 12.881 62.6135 12.9499 62.8202 13.0187C63.1646 13.2254 64.3356 13.5698 64.5422 13.7076C64.7488 13.7764 64.4733 13.9831 64.4733 13.9831L63.6467 15.0163C63.6467 15.0163 63.2335 14.7408 63.0268 14.603C62.8202 14.4653 62.5446 14.3275 62.2002 14.052C62.0625 13.9142 61.8558 13.7764 61.6492 13.6387C61.4425 13.5009 61.3048 13.2943 61.0981 13.1565C60.8915 12.9499 60.7537 12.7432 60.5471 12.6054C60.3404 12.3988 60.2027 12.1922 59.996 11.9855C59.8582 11.7789 59.7205 11.5033 59.5827 11.2967C59.445 11.0212 59.3072 10.8145 59.2383 10.539C59.1005 10.3324 59.0317 10.0568 58.9628 9.85018C58.8939 9.64353 58.825 9.43689 58.825 9.23024C58.7561 8.81695 58.7561 8.47254 58.6873 8.2659C58.6873 8.12813 58.6873 8.05925 58.6873 7.99037C58.6873 7.92149 58.6873 7.92149 58.6873 7.92149L59.0317 7.71484Z" fill="#A3151B"/>
<path d="M55.7942 7.85254C55.7942 7.85254 55.7253 8.54136 55.7942 9.5057C55.7942 9.78123 55.7942 10.0568 55.8631 10.3323C55.8631 10.6078 55.9319 10.9522 56.0008 11.2277C56.0697 11.5033 56.1386 11.8477 56.2075 12.1921C56.2764 12.5365 56.4141 12.812 56.483 13.1564C56.6208 13.432 56.6896 13.7764 56.8963 14.0519C57.0341 14.3274 57.1718 14.603 57.3785 14.8785C57.5162 15.154 57.7229 15.3606 57.8606 15.5673C58.0673 15.7739 58.205 15.9806 58.4117 16.1183C58.6183 16.2561 58.7561 16.3939 58.8939 16.5316C59.0316 16.6694 59.1694 16.7383 59.3071 16.8072C59.5138 16.9449 60.7537 17.7026 60.7537 17.7026L58.9627 18.1848C58.9627 18.1848 58.825 18.047 58.5495 17.8404C58.4117 17.7715 58.2739 17.6337 58.0673 17.496C57.9295 17.3582 57.7229 17.1516 57.5162 16.9449C57.3096 16.7383 57.1718 16.4628 56.9652 16.2561C56.7585 15.9806 56.6208 15.7051 56.483 15.4295C56.2764 15.154 56.2075 14.8096 56.0697 14.4652C55.9319 14.1208 55.8631 13.7764 55.7253 13.432C55.6564 13.0876 55.5875 12.7431 55.5187 12.3987C55.4498 12.0543 55.3809 11.7099 55.3809 11.3655C55.3809 11.0211 55.312 10.7456 55.312 10.4012C55.312 10.1256 55.312 9.85011 55.312 9.57458C55.3809 8.54136 55.4498 7.85254 55.4498 7.85254H55.7942Z" fill="#6B0F09"/>
<path d="M61.0293 6.19934C61.0293 6.19934 61.0293 6.19934 61.0293 6.26822C61.0293 6.3371 61.0293 6.40599 61.0293 6.54375C61.0981 6.75039 61.0981 7.0948 61.2359 7.43921C61.3048 7.64586 61.3737 7.78362 61.4425 7.99027C61.5114 8.19691 61.6492 8.40356 61.7181 8.6102C61.8558 8.81685 61.9936 9.02349 62.1314 9.23014C62.2691 9.43678 62.4069 9.64343 62.6135 9.78119C62.8202 9.98784 62.9579 10.1256 63.1646 10.3322C63.3712 10.47 63.509 10.6767 63.7156 10.8144C63.9223 10.9522 64.0601 11.0899 64.2667 11.2277C64.4733 11.3655 64.6111 11.4344 64.8178 11.5032C65.1622 11.7099 65.4377 11.7788 65.6443 11.9165C65.851 11.9854 65.9887 12.0543 65.9887 12.0543L65.4377 13.2942C65.4377 13.2942 65.2999 13.2253 65.0933 13.0875C64.8866 12.9498 64.6111 12.812 64.2667 12.5365C64.1289 12.3987 63.9223 12.2609 63.7156 12.1232C63.509 11.9854 63.3712 11.7788 63.1646 11.641C62.9579 11.4344 62.8202 11.2277 62.6135 11.0899C62.4069 10.8833 62.2691 10.6767 62.1314 10.47C61.9936 10.2634 61.787 9.98784 61.7181 9.78119C61.5803 9.57455 61.4425 9.29902 61.3737 9.09237C61.2359 8.88573 61.167 8.6102 61.0981 8.40356C61.0293 8.19691 60.9604 7.99027 60.9604 7.78362C60.6848 7.0948 60.616 6.81928 60.616 6.54375C60.616 6.40599 60.616 6.3371 60.616 6.26822C60.616 6.19934 60.616 6.19934 60.616 6.19934H61.0293Z" fill="#A3151B"/>
<path d="M55.5876 7.3015L61.236 5.85498L60.616 6.40603L57.0342 7.43926L55.5876 7.3015Z" fill="#F1A284"/>
<path d="M69.5015 5.92383L60.5469 10.6767L61.5801 12.6742L74.1166 6.13047L69.5015 5.92383Z" fill="#CECECE"/>
<path d="M73.359 6.06165L61.3735 12.3299L61.8557 13.1565L75.2188 6.19941L73.359 6.06165Z" fill="#797979"/>
<path d="M17.6337 47.735L17.9092 48.6994C18.5292 50.8347 17.8403 52.1435 15.7739 52.9701C14.2585 53.59 12.4676 52.9012 11.8476 51.3858C11.2277 49.8704 11.9165 48.0795 13.4319 47.4595L12.5365 45.3242C9.85007 46.4263 8.61019 49.526 9.7123 52.2124C10.8144 54.8987 13.9141 56.1386 16.6005 55.0365C19.4246 53.8655 20.7334 51.7302 20.3201 48.9749L71.4303 27.5527L70.6038 25.4174L17.6337 47.735Z" fill="#B2B2B2"/>
<path d="M20.0446 48.8372L20.1135 49.1816C20.4579 51.5924 19.2181 53.4522 16.6006 54.5544C14.1208 55.5876 11.3655 54.5544 10.4012 52.2124C9.43685 49.9393 10.539 47.3218 12.8809 46.2197L12.4676 45.3931C9.71238 46.7018 8.40362 49.8015 9.50573 52.5568C10.6767 55.3121 13.983 56.6208 16.8761 55.3809C19.7691 54.21 21.1467 52.0746 20.9401 49.3882L71.6371 28.2415L71.2927 27.3461L20.0446 48.8372Z" fill="#797979"/>
<path d="M33.201 45.3932C33.201 45.3932 30.3768 50.9037 24.6596 51.0415C24.6596 51.0415 20.5267 46.7019 22.3865 40.0204L28.3793 38.7805C28.3793 38.7805 30.3079 44.1533 33.201 45.3932Z" fill="url(#paint6_linear)"/>
<path d="M22.3864 40.0892L24.6595 40.2959C24.6595 40.2959 23.5574 45.7375 29.1368 50.0082C29.1368 50.0082 26.5193 51.6614 24.5906 50.9725C24.5906 50.9725 20.871 45.9442 22.3864 40.0892Z" fill="#8D1003"/>
<path d="M22.7999 40.5713C22.7999 40.5713 22.6621 41.2601 22.6621 42.2245C22.6621 42.5 22.6621 42.7755 22.6621 43.0511C22.6621 43.3266 22.6621 43.671 22.731 43.9465C22.731 44.2909 22.7999 44.5665 22.8687 44.9109C22.9376 45.2553 23.0065 45.5308 23.0754 45.8752C23.2132 46.1507 23.282 46.4952 23.4198 46.7707C23.5576 47.0462 23.6264 47.3906 23.8331 47.5973C23.9709 47.8728 24.1086 48.1483 24.3153 48.355C24.453 48.5616 24.5908 48.7683 24.7974 48.9749C24.9352 49.1127 25.073 49.3193 25.2107 49.4571C25.3485 49.5948 25.4863 49.6637 25.624 49.7326C25.8307 49.8704 25.9684 50.0081 25.9684 50.0081L25.1418 51.1102C25.1418 51.1102 25.0041 50.9725 24.7974 50.7658C24.6597 50.6281 24.5219 50.4903 24.3841 50.3525C24.2464 50.1459 24.1086 50.0081 23.902 49.7326C23.6953 49.5259 23.5576 49.2504 23.4198 48.9749C23.2132 48.6994 23.1443 48.4238 23.0065 48.0794C22.8687 47.8039 22.731 47.4595 22.6621 47.1151C22.5243 46.7707 22.5243 46.4263 22.3866 46.0819C22.3177 45.7375 22.2488 45.393 22.2488 45.0486C22.2488 44.7042 22.1799 44.3598 22.1799 44.0154C22.1799 43.671 22.1799 43.3955 22.1799 43.0511C22.1799 42.7755 22.2488 42.5 22.2488 42.2245C22.3866 41.1913 22.5932 40.5024 22.5932 40.5024L22.7999 40.5713Z" fill="#6B0F09"/>
<path d="M28.1725 39.3315C28.1725 39.3315 28.1725 39.3315 28.1725 39.4004C28.1725 39.4693 28.1725 39.5382 28.1725 39.676C28.1725 39.8826 28.2414 40.227 28.3103 40.5714C28.3791 40.7781 28.3791 40.9847 28.448 41.1914C28.5169 41.398 28.5858 41.6046 28.7236 41.8113C28.7924 42.0179 28.9302 42.2246 29.068 42.4312C29.2057 42.6379 29.3435 42.8445 29.4813 43.0512C29.619 43.2578 29.8257 43.4644 29.9634 43.6022C30.1701 43.74 30.3078 43.9466 30.4456 44.0844C30.6522 44.2221 30.79 44.3599 30.9278 44.4977C31.0655 44.6354 31.2722 44.7043 31.4099 44.8421C31.6855 45.0487 32.0299 45.1865 32.1676 45.3243C32.3743 45.462 32.4432 45.462 32.4432 45.462L31.7544 46.633C31.7544 46.633 31.6166 46.5641 31.4099 46.4264C31.2033 46.2886 30.9278 46.082 30.5834 45.8064C30.4456 45.6687 30.239 45.5309 30.1012 45.3931C29.9634 45.2554 29.7568 45.0487 29.5501 44.8421C29.3435 44.6354 29.2057 44.4288 29.068 44.2221C28.9302 44.0155 28.7924 43.74 28.5858 43.5333C28.448 43.2578 28.3103 43.0512 28.2414 42.7756C28.1036 42.5001 28.0347 42.2935 27.9659 42.0179C27.897 41.7424 27.8281 41.5358 27.7592 41.3291C27.6903 41.1225 27.6903 40.8469 27.6903 40.6403C27.6215 40.227 27.6215 39.8826 27.6903 39.676C27.6903 39.5382 27.6903 39.4693 27.6903 39.4004C27.6903 39.3315 27.6903 39.3315 27.6903 39.3315H28.1725Z" fill="#981418"/>
<path d="M30.0323 47.804C30.0323 47.804 29.8945 47.7351 29.6879 47.5973C29.4812 47.4596 29.2057 47.3218 28.8613 47.1152C28.7235 46.9774 28.5169 46.8396 28.3102 46.7019C28.1725 46.5641 27.9658 46.3575 27.7592 46.2197C27.5525 46.0819 27.4148 45.8753 27.2081 45.6686C27.0015 45.462 26.8637 45.2554 26.726 45.0487C26.5882 44.8421 26.4504 44.5665 26.3127 44.3599C26.1749 44.1532 26.0371 43.8777 25.9683 43.6711C25.8305 43.4644 25.7616 43.1889 25.6927 42.9823C25.6238 42.7756 25.555 42.569 25.555 42.3623C25.4861 41.8802 25.4861 41.5357 25.4861 41.2602C25.4861 41.1225 25.4861 41.0536 25.4861 40.9847C25.4861 40.9158 25.4861 40.8469 25.4861 40.8469L26.2438 40.9847C26.2438 40.9847 26.2438 41.0536 26.2438 41.3291C26.2438 41.5357 26.2438 41.8801 26.3127 42.2246C26.3127 42.4312 26.3815 42.6379 26.3815 42.8445C26.4504 43.0511 26.5193 43.2578 26.5882 43.4644C26.6571 43.6711 26.726 43.8777 26.8637 44.1532C26.9326 44.3599 27.0704 44.5665 27.2081 44.8421C27.3459 45.0487 27.4837 45.2554 27.6214 45.462C27.7592 45.6686 27.9658 45.8753 28.1036 46.0131C28.2414 46.1508 28.448 46.3575 28.5858 46.4952C28.7235 46.633 28.9302 46.7708 29.0679 46.9085C29.2057 47.0463 29.3435 47.1152 29.4812 47.2529C29.619 47.3218 29.7568 47.3907 29.8256 47.4596C30.0323 47.5973 30.1012 47.6662 30.1012 47.6662L30.0323 47.804Z" fill="#981418"/>
<path d="M23.9707 40.0204L27.6903 39.056V39.4693L24.0396 40.227L23.9707 40.0204Z" fill="#F1A284"/>
<path d="M56.0696 30.859C56.0696 30.859 57.2406 25.8307 61.7868 24.6597C61.7868 24.6597 65.9197 27.3461 65.713 33.1321L61.1668 35.2675C61.1668 35.2675 58.6182 31.2723 56.0696 30.859Z" fill="url(#paint7_linear)"/>
<path d="M65.7131 32.9944L63.8533 33.2699C63.8533 33.2699 63.7155 28.6548 58.4116 26.3129C58.4116 26.3129 60.2025 24.4531 61.9246 24.6597C61.9246 24.7286 65.8508 28.0349 65.7131 32.9944Z" fill="#8D1003"/>
<path d="M65.2997 32.7188C65.2997 32.7188 65.2997 32.1677 65.093 31.3412C65.0241 31.1345 65.0241 30.9279 64.9552 30.7212C64.8864 30.5146 64.8175 30.2391 64.7486 30.0324C64.6797 29.7569 64.542 29.5502 64.4731 29.2747C64.3353 28.9992 64.2664 28.7925 64.1287 28.517C63.9909 28.3104 63.8531 28.0348 63.7154 27.8282C63.5776 27.6215 63.4398 27.4149 63.2332 27.2083C63.0954 27.0016 62.8888 26.8638 62.751 26.7261C62.5444 26.5883 62.4066 26.4506 62.2689 26.3128C62.1311 26.2439 61.9244 26.1061 61.8556 26.0373C61.7178 25.9684 61.58 25.8995 61.5112 25.8995C61.3045 25.8306 61.1667 25.7617 61.1667 25.7617L61.6489 24.7285C61.6489 24.7285 61.7867 24.7974 61.9933 24.9352C62.1311 25.004 62.2689 25.0729 62.4066 25.2107C62.5444 25.3484 62.751 25.4862 62.8888 25.624C63.0954 25.7617 63.2332 25.9684 63.4398 26.1062C63.6465 26.3128 63.7843 26.5194 63.9909 26.7261C64.1975 26.9327 64.3353 27.2083 64.4731 27.4149C64.6108 27.6904 64.7486 27.966 64.8864 28.1726C65.0241 28.4481 65.093 28.7237 65.1619 28.9992C65.2308 29.2747 65.3685 29.5502 65.3685 29.8258C65.4374 30.1013 65.5063 30.3768 65.5063 30.5835C65.5752 30.859 65.5752 31.0656 65.5752 31.2723C65.6441 32.0989 65.6441 32.7188 65.6441 32.7188H65.2997Z" fill="#6B0F09"/>
<path d="M61.2359 34.7853C61.2359 34.7853 61.2359 34.7853 61.2359 34.7164C61.2359 34.6475 61.2359 34.5787 61.167 34.5098C61.0982 34.3031 61.0293 34.0965 60.8915 33.821C60.8226 33.6832 60.7538 33.5454 60.6849 33.4077C60.616 33.2699 60.4782 33.1321 60.3405 32.9255C60.2027 32.7877 60.0649 32.65 59.9272 32.4433C59.7894 32.3056 59.6516 32.1678 59.5139 32.03C59.3761 31.8923 59.1695 31.7545 59.0317 31.6856C58.8939 31.6167 58.6873 31.479 58.5495 31.4101C58.4118 31.3412 58.2051 31.2723 58.0674 31.1346C57.9296 31.0657 57.723 30.9968 57.5852 30.9279C57.3097 30.7902 57.0341 30.7902 56.8964 30.7213C56.7586 30.6524 56.6208 30.6524 56.6208 30.6524L56.9653 29.5503C56.9653 29.5503 57.103 29.6192 57.2408 29.6881C57.4474 29.7569 57.723 29.8258 57.9985 30.0325C58.1362 30.1013 58.3429 30.1702 58.4807 30.308C58.6184 30.4458 58.8251 30.5146 59.0317 30.6524C59.2384 30.7902 59.3761 30.9279 59.5828 31.0657C59.7894 31.2035 59.9272 31.4101 60.0649 31.5479C60.2027 31.7545 60.3405 31.8923 60.4782 32.0989C60.616 32.3056 60.7538 32.4433 60.8226 32.65C60.9604 32.8566 61.0293 32.9944 61.0982 33.201C61.167 33.4077 61.2359 33.5454 61.3048 33.6832C61.4426 34.0276 61.4426 34.3031 61.5115 34.4409C61.5115 34.5098 61.5115 34.6475 61.5115 34.6475C61.5115 34.7164 61.5115 34.7164 61.5115 34.7164L61.2359 34.7853Z" fill="#9A1418"/>
<path d="M57.5852 29.0681C57.5852 29.0681 57.723 29.0681 57.8608 29.137C58.0674 29.2059 58.2741 29.2748 58.6185 29.4125C58.7562 29.4814 58.9629 29.5503 59.1006 29.6192C59.2384 29.6881 59.445 29.8258 59.6517 29.8947C59.8583 30.0325 59.9961 30.1013 60.2027 30.2391C60.4094 30.3769 60.5472 30.5146 60.7538 30.6524C60.8916 30.7902 61.0982 30.9279 61.236 31.1346C61.3737 31.2723 61.5115 31.479 61.6493 31.6167C61.787 31.7545 61.8559 31.9611 61.9937 32.0989C62.0626 32.2367 62.2003 32.4433 62.2692 32.5811C62.407 32.9255 62.4758 33.201 62.5447 33.3388C62.5447 33.4077 62.6136 33.5454 62.6136 33.5454C62.6136 33.6143 62.6136 33.6143 62.6136 33.6143L61.9937 33.6832C61.9937 33.6832 61.9937 33.6143 61.9248 33.4077C61.8559 33.2699 61.8559 32.9944 61.7181 32.7188C61.6493 32.5811 61.5804 32.4433 61.5115 32.2367C61.4426 32.0989 61.3737 31.8923 61.236 31.7545C61.1671 31.6167 61.0293 31.4101 60.8916 31.2723C60.7538 31.1346 60.616 30.9279 60.4783 30.7902C60.3405 30.6524 60.2027 30.5146 59.9961 30.3769C59.8583 30.2391 59.6517 30.1013 59.5139 30.0325C59.3762 29.9636 59.1695 29.8258 59.0318 29.7569C58.894 29.6881 58.6873 29.6192 58.5496 29.5503C58.4118 29.4814 58.2741 29.4125 58.1363 29.3436C57.9985 29.2748 57.9296 29.2748 57.7919 29.2059C57.5852 29.137 57.5164 29.0681 57.5164 29.0681H57.5852Z" fill="#9A1418"/>
<path d="M58.4805 27.6216C58.4805 27.6216 58.5494 27.6216 58.756 27.6905C58.9627 27.7593 59.1693 27.8282 59.5137 27.966C59.6515 28.0349 59.8581 28.1038 59.9959 28.1726C60.1337 28.2415 60.3403 28.3793 60.547 28.4482C60.7536 28.5859 60.8914 28.6548 61.098 28.7926C61.3047 28.9303 61.4424 29.0681 61.6491 29.2059C61.7868 29.3436 61.9935 29.4814 62.1312 29.688C62.269 29.8258 62.4068 30.0324 62.5445 30.1702C62.6823 30.308 62.7512 30.5146 62.8889 30.7213C62.9578 30.859 63.0956 31.0657 63.1645 31.2034C63.3022 31.5478 63.3711 31.8234 63.44 31.9611C63.44 32.03 63.5089 32.1678 63.5089 32.1678C63.5089 32.2367 63.9222 33.1321 63.9222 33.1321L63.3022 33.4765C63.3022 33.4765 62.82 32.2367 62.82 32.0989C62.82 31.9611 62.7512 31.6856 62.6134 31.4101C62.5445 31.2723 62.4756 31.1346 62.4068 30.9279C62.3379 30.7901 62.269 30.5835 62.1312 30.4457C62.0623 30.308 61.9246 30.1013 61.7868 29.9636C61.6491 29.8258 61.5113 29.6192 61.3735 29.4814C61.2358 29.3436 61.098 29.2059 60.8914 29.0681C60.7536 28.9303 60.547 28.7926 60.4092 28.7237C60.2714 28.6548 60.0648 28.517 59.927 28.4482C59.7893 28.3793 59.5826 28.3104 59.4448 28.2415C59.3071 28.1726 59.1693 28.1038 59.0316 28.0349C58.8938 27.966 58.8249 27.966 58.6871 27.8971C58.4805 27.8282 58.4116 27.7593 58.4116 27.7593L58.4805 27.6216Z" fill="#9A1418"/>
<path d="M64.4045 33.4076L61.6492 34.8541L61.5803 34.5097L64.3356 33.2009L64.4045 33.4076Z" fill="#F1A284"/>
<path d="M76.9409 26.9327C76.9409 26.9327 74.2545 32.6499 68.5373 32.7877C68.5373 32.7877 64.4044 28.4481 66.2642 21.7666L72.2569 20.6645C72.2569 20.5956 74.0479 25.6929 76.9409 26.9327Z" fill="url(#paint8_linear)"/>
<path d="M66.2643 21.8356L68.5374 22.0422C68.5374 22.0422 67.4353 27.4839 73.0148 31.7545C73.0148 31.7545 70.3973 33.4077 68.4686 32.7189C68.4686 32.65 64.7489 27.6905 66.2643 21.8356Z" fill="#8D1003"/>
<path d="M69.9151 22.3177C69.9151 22.3177 69.9151 22.3177 69.9151 22.3866C69.9151 22.4555 69.9151 22.5243 69.9151 22.6621C69.9151 22.8687 69.984 23.2132 70.0529 23.5576C70.1217 23.7642 70.1217 23.9709 70.1906 24.1086C70.2595 24.3153 70.3284 24.5219 70.4662 24.7286C70.535 24.9352 70.6728 25.1418 70.8106 25.3485C70.9483 25.5551 71.0861 25.7618 71.2238 25.9684C71.3616 26.1751 71.4994 26.3817 71.706 26.5195C71.9127 26.6572 72.0504 26.8639 72.1882 27.0017C72.3948 27.1394 72.5326 27.2772 72.6704 27.4149C72.8081 27.5527 73.0148 27.6216 73.1525 27.7594C73.4281 27.966 74.6679 28.4482 74.8057 28.5859C75.0123 28.6548 74.7368 28.7926 74.7368 28.7926L73.8414 29.7569C73.8414 29.7569 73.4281 29.4125 73.2214 29.2748C73.0148 29.137 72.7392 28.9303 72.3948 28.6548C72.2571 28.5171 72.0504 28.3793 71.9127 28.2415C71.7749 28.0349 71.5683 27.8971 71.3616 27.6905C71.2238 27.4838 71.0172 27.2772 70.8794 27.0705C70.7417 26.8639 70.6039 26.5884 70.3973 26.3817C70.2595 26.1062 70.1217 25.8995 70.0529 25.624C69.9151 25.3485 69.8462 25.1418 69.7773 24.8663C69.7085 24.5908 69.6396 24.3841 69.5707 24.1775C69.5018 23.9709 69.5018 23.6953 69.5018 23.4887C69.4329 23.0754 69.5018 22.731 69.5018 22.5243C69.5018 22.3866 69.5018 22.3177 69.5018 22.2488C69.5018 22.1799 69.5018 22.1799 69.5018 22.1799L69.9151 22.3177Z" fill="#981418"/>
<path d="M66.6774 22.2488C66.6774 22.2488 66.5396 22.9376 66.5396 23.902C66.5396 24.1775 66.5396 24.453 66.5396 24.7286C66.5396 25.0041 66.5396 25.3485 66.6085 25.624C66.6085 25.9684 66.6774 26.244 66.7463 26.5884C66.8151 26.9328 66.884 27.2083 66.9529 27.5527C67.0907 27.8282 67.1596 28.1726 67.2284 28.4482C67.3662 28.7237 67.4351 29.0681 67.6417 29.2748C67.7795 29.5503 67.9173 29.8258 68.055 30.0324C68.1928 30.2391 68.3305 30.4457 68.5372 30.6524C68.6749 30.7901 68.8127 30.9968 68.9505 31.1346C69.0882 31.2723 69.226 31.3412 69.3638 31.4101C69.5704 31.5478 70.7414 32.4433 70.7414 32.4433L68.8816 32.7877C68.8816 32.7877 68.7438 32.65 68.5372 32.4433C68.3994 32.3055 68.2617 32.1678 68.1239 32.03C67.9861 31.8234 67.8484 31.6167 67.6417 31.4101C67.4351 31.2034 67.2973 30.9279 67.1596 30.6524C66.9529 30.3769 66.884 30.1013 66.7463 29.7569C66.6085 29.4814 66.4707 29.137 66.4019 28.7926C66.2641 28.4482 66.2641 28.1038 66.1263 27.7594C66.0574 27.4149 65.9886 27.0705 65.9886 26.7261C65.9886 26.3817 65.9197 26.0373 65.9197 25.6929C65.9197 25.3485 65.9197 25.073 65.9197 24.7286C65.9197 24.453 65.9886 24.1775 65.9886 23.902C66.1263 22.8687 66.333 22.1799 66.333 22.1799L66.6774 22.2488Z" fill="#6B0F09"/>
<path d="M72.0504 21.0089C72.0504 21.0089 72.0504 21.0089 72.0504 21.0778C72.0504 21.1467 72.0504 21.2156 72.0504 21.3533C72.0504 21.56 72.1193 21.9044 72.1881 22.2488C72.257 22.4554 72.257 22.6621 72.3259 22.8687C72.3948 23.0754 72.4637 23.282 72.6014 23.4887C72.6703 23.6953 72.8081 23.9019 72.9458 24.1086C73.0836 24.3152 73.2214 24.5219 73.3591 24.7285C73.4969 24.9352 73.7035 25.1418 73.8413 25.2796C74.048 25.4173 74.1857 25.624 74.3235 25.7618C74.5301 25.8995 74.6679 26.0373 74.8057 26.175C74.9434 26.3128 75.1501 26.3817 75.2878 26.5195C75.5634 26.7261 75.8389 26.8639 76.0455 27.0016C76.2522 27.1394 76.3211 27.1394 76.3211 27.1394L75.6322 28.3104C75.6322 28.3104 75.4945 28.2415 75.2878 28.1037C75.0812 27.966 74.8057 27.7593 74.4612 27.4838C74.3235 27.346 74.1168 27.2083 73.9791 27.0705C73.8413 26.9327 73.6347 26.7261 73.428 26.5195C73.2903 26.3128 73.0836 26.1062 72.9458 25.8995C72.8081 25.6929 72.6703 25.4173 72.4637 25.2107C72.3259 24.9352 72.1881 24.7285 72.1193 24.453C72.0504 24.1775 71.9126 23.9708 71.8437 23.6953C71.7749 23.4198 71.706 23.2131 71.6371 23.0065C71.5682 22.7998 71.5682 22.5243 71.5682 22.3177C71.4993 21.9044 71.5682 21.56 71.5682 21.3533C71.5682 21.2156 71.5682 21.1467 71.5682 21.0778C71.5682 21.0089 71.5682 21.0089 71.5682 21.0089H72.0504Z" fill="#981418"/>
<path d="M66.4709 21.6289L72.257 20.7334L71.5682 21.2156L67.9175 21.9733L66.4709 21.6289Z" fill="#F1A284"/>
<path d="M38.0227 36.3697C38.0227 36.3697 40.3647 31.1346 46.0819 31.1346C46.0819 31.1346 50.2148 35.4742 48.2861 42.1557L42.2934 43.1889C42.2934 43.2578 40.8469 37.6784 38.0227 36.3697Z" fill="url(#paint9_linear)"/>
<path d="M48.286 42.0868L46.0129 41.8801C46.0129 41.8801 47.115 36.4385 41.6045 32.1678C41.6045 32.1678 44.222 30.5146 46.2196 31.2723C46.1507 31.2723 49.8703 36.2318 48.286 42.0868Z" fill="#8D1003"/>
<path d="M47.8728 41.6047C47.8728 41.6047 48.0105 40.9159 48.0105 39.9515C48.0105 39.676 48.0105 39.4005 48.0105 39.1249C48.0105 38.8494 48.0105 38.505 47.9416 38.2295C47.9416 37.9539 47.8728 37.6095 47.8039 37.2651C47.735 36.9207 47.6661 36.6452 47.5972 36.3008C47.5283 35.9564 47.4595 35.6808 47.3217 35.4053C47.1839 35.1298 47.1151 34.7854 46.9084 34.5787C46.7706 34.3032 46.6329 34.0277 46.4262 33.821C46.2885 33.6144 46.1507 33.4077 45.9441 33.2011C45.8063 33.0633 45.6685 32.8567 45.5308 32.7189C45.393 32.5812 45.2553 32.5123 45.1175 32.4434C44.9108 32.3056 44.0154 31.4102 44.0154 31.4102L45.5997 31.1346C45.5997 31.1346 45.7374 31.2724 45.9441 31.4791C46.0818 31.6168 46.2196 31.7546 46.3574 31.8923C46.4951 32.099 46.6329 32.2368 46.8395 32.5123C47.0462 32.7189 47.1839 32.9944 47.3217 33.27C47.5283 33.5455 47.5972 33.821 47.735 34.1654C47.8728 34.441 47.9416 34.7854 48.0794 35.1298C48.2172 35.4742 48.2172 35.8186 48.3549 36.163C48.4238 36.5074 48.4238 36.8518 48.4927 37.1962C48.4927 37.5406 48.5616 37.8851 48.4927 38.2295C48.4927 38.5739 48.4927 38.8494 48.4927 39.1938C48.4927 39.4693 48.4238 39.7449 48.4238 40.0204C48.2861 41.0536 48.0794 41.7424 48.0794 41.7424L47.8728 41.6047Z" fill="#6B0F09"/>
<path d="M39.8824 35.1298C39.8824 35.1298 40.0202 35.1986 40.2268 35.3364C40.4334 35.4742 40.709 35.6119 41.0534 35.8875C41.1911 36.0252 41.3978 36.163 41.6044 36.3008C41.7422 36.4385 41.9488 36.6452 42.1555 36.7829C42.3621 36.9896 42.4999 37.1273 42.7065 37.334C42.8443 37.5406 43.051 37.7473 43.1887 37.9539C43.3265 38.1606 43.4642 38.4361 43.602 38.6427C43.7398 38.8494 43.8775 39.1249 43.9464 39.3315C44.0842 39.5382 44.1531 39.8137 44.2219 40.0204C44.2908 40.227 44.3597 40.4337 44.3597 40.6403C44.4286 41.0536 44.4286 41.398 44.4286 41.6735C44.4286 41.8113 44.4286 41.8802 44.4286 41.9491C44.4286 42.0179 44.4286 42.0868 44.4286 42.0868L43.6709 41.9491C43.6709 41.9491 43.6709 41.8802 43.6709 41.6735C43.6709 41.4669 43.6709 41.1914 43.6709 40.7781C43.6709 40.5714 43.602 40.3648 43.602 40.1581C43.3954 39.9515 43.3954 39.7448 43.2576 39.4693C43.1887 39.2627 43.1198 39.056 42.9821 38.7805C42.9132 38.5738 42.7754 38.3672 42.6377 38.0917C42.4999 37.885 42.3621 37.6784 42.2244 37.4717C42.0866 37.2651 41.88 37.0584 41.7422 36.9207C41.6044 36.714 41.3978 36.5763 41.26 36.4385C41.1223 36.3008 40.9156 36.163 40.7779 36.0252C40.6401 35.8875 40.5023 35.8186 40.3646 35.6808C40.2268 35.6119 40.089 35.5431 40.0202 35.4742C39.8135 35.3364 39.7446 35.2675 39.7446 35.2675L39.8824 35.1298Z" fill="#981418"/>
<path d="M48.1484 41.9491L42.2246 43.1201L42.3624 42.4312L46.2886 41.7424L48.1484 41.9491Z" fill="#AF0E1B"/>
<path d="M79.4206 21.8356L70.6038 25.5552L71.4303 27.6905L83.8979 22.4555L79.4206 21.8356Z" fill="#CECECE"/>
<path d="M83.2093 22.3177L71.2927 27.3461L71.6371 28.2416L85.0002 22.5933L83.2093 22.3177Z" fill="#797979"/>
<path d="M35.7497 35.4053C35.6119 35.4742 35.543 35.4742 35.4053 35.543C32.7877 36.9207 31.8234 40.227 33.2699 42.9134C34.7164 45.5998 37.9539 46.633 40.5714 45.1865C40.5714 45.1865 40.5714 45.1865 40.6403 45.1865L35.7497 35.4053Z" fill="url(#paint10_linear)"/>
<path d="M38.0917 46.1507C35.9563 46.1507 34.0276 44.9797 32.9944 43.0511C31.479 40.2269 32.5122 36.7139 35.2675 35.1985C35.3364 35.1297 35.4053 35.1297 35.4742 35.0608L35.8874 34.8541L41.1225 45.2553L40.7781 45.4619C39.9515 45.9441 39.056 46.1507 38.0917 46.1507ZM35.543 35.8185C33.1322 37.1272 32.2367 40.2269 33.5455 42.7066C34.4409 44.4287 36.163 45.4619 38.0917 45.4619C38.8494 45.4619 39.5382 45.3242 40.1581 44.9797L35.543 35.8185Z" fill="#91140C"/>
<path d="M38.0227 42.6379C36.5762 43.12 35.8874 42.3623 35.4741 41.2602C35.0608 40.1581 35.8874 39.9515 36.0251 39.3315C36.4384 38.0228 35.1986 37.1273 34.6475 37.4717C33.8209 37.885 32.9255 40.2959 34.0964 42.3623C35.1986 44.4977 36.5762 44.9109 38.5049 44.6354C39.3315 44.6354 38.7115 42.4312 38.0227 42.6379Z" fill="#A3151B"/>
<path d="M34.7163 39.1248C34.5096 38.987 34.303 38.9182 34.1652 39.1248C34.0964 39.2626 34.1652 39.5381 34.3719 39.6759C34.5785 39.8136 35.1985 40.0203 35.1985 40.0203C35.2673 39.9514 34.9229 39.2626 34.7163 39.1248Z" fill="#E94E1B"/>
<path d="M34.3718 40.5024C34.1651 40.4335 33.9585 40.5713 33.9585 40.7779C33.9585 40.9846 34.0963 41.1912 34.3718 41.2601C34.5784 41.329 35.1984 41.1224 35.1984 41.1224C35.1984 40.9846 34.5784 40.5024 34.3718 40.5024Z" fill="#E94E1B"/>
<path d="M34.7164 41.9489C34.5097 42.0178 34.4408 42.2244 34.5097 42.431C34.5786 42.6377 34.7852 42.7066 34.9919 42.6377C35.1985 42.5688 35.5429 42.0866 35.5429 42.0866C35.6118 42.0866 34.923 41.88 34.7164 41.9489Z" fill="#E94E1B"/>
<path d="M35.6807 43.1888C35.543 43.3954 35.543 43.6021 35.6807 43.8087C35.8185 43.9465 36.0251 43.9465 36.1629 43.7398C36.3007 43.5332 36.3695 42.9132 36.3695 42.8444C36.3695 42.8444 35.8185 43.051 35.6807 43.1888Z" fill="#E94E1B"/>
<path d="M36.9204 43.9465C36.9204 44.2221 36.9893 44.4287 37.1959 44.4976C37.4026 44.5665 37.5403 44.4287 37.6092 44.1532C37.6092 43.9465 37.4026 43.1888 37.4026 43.1888C37.3337 43.1888 36.9893 43.671 36.9204 43.9465Z" fill="#E94E1B"/>
<path d="M39.6758 43.1888L40.0891 44.0154C40.0202 43.7399 39.8135 43.4644 39.6758 43.1888Z" fill="url(#paint11_linear)"/>
<path d="M54.9677 38.5738C55.0366 38.5049 55.1743 38.4361 55.2432 38.3672C57.4474 36.3696 57.5163 32.9255 55.4499 30.7213C53.3834 28.5171 49.9393 28.3104 47.804 30.308C47.804 30.308 47.804 30.308 47.7351 30.3769L54.9677 38.5738Z" fill="url(#paint12_linear)"/>
<path d="M54.9677 38.9871L47.3218 30.2391L47.5973 30.0325C48.6305 29.0681 50.0082 28.5171 51.4547 28.5171C53.1078 28.5171 54.6232 29.2059 55.7942 30.4458C57.9985 32.7878 57.8607 36.4385 55.5187 38.5738C55.4498 38.6427 55.3809 38.7116 55.3121 38.7805L54.9677 38.9871ZM48.2172 30.308L54.9677 38.0917C57.0341 36.2318 57.103 32.9944 55.1743 30.928C54.21 29.8258 52.7634 29.2059 51.3169 29.2059C50.2148 29.2059 49.1127 29.6192 48.2172 30.308Z" fill="#91140C"/>
<path d="M50.9726 32.0989C52.2813 31.2724 53.1768 31.8234 53.7967 32.8566C54.4855 33.821 53.7278 34.2343 53.7278 34.8542C53.6589 36.2318 55.1055 36.7829 55.5187 36.3007C56.2764 35.6808 56.4831 33.1322 54.8299 31.4101C53.2456 29.6192 51.7991 29.5503 50.0082 30.308C49.1816 30.5147 50.3526 32.4433 50.9726 32.0989Z" fill="#A3151B"/>
<path d="M55.0365 34.7164C55.2432 34.8542 55.5187 34.7853 55.5187 34.5786C55.5876 34.4409 55.4498 34.1653 55.1743 34.0276C54.9676 33.8898 54.2788 33.8898 54.2788 33.9587C54.3477 34.0276 54.8299 34.5786 55.0365 34.7164Z" fill="#E94E1B"/>
<path d="M55.0363 33.2699C55.243 33.2699 55.4496 33.1321 55.3807 32.9255C55.3119 32.7188 55.1052 32.5811 54.8986 32.5811C54.6919 32.5811 54.1409 32.9255 54.1409 32.9255C54.1409 32.9943 54.7608 33.2699 55.0363 33.2699Z" fill="#E94E1B"/>
<path d="M54.3476 31.9611C54.5543 31.8234 54.5543 31.6167 54.4165 31.4101C54.2787 31.2723 54.0721 31.2034 53.8654 31.3412C53.6588 31.479 53.4521 32.03 53.4521 32.03C53.4521 32.03 54.141 32.03 54.3476 31.9611Z" fill="#E94E1B"/>
<path d="M53.1078 30.9279C53.1767 30.7213 53.1078 30.4458 52.9701 30.3769C52.7634 30.2391 52.5568 30.3769 52.4879 30.5147C52.419 30.7213 52.4879 31.4101 52.4879 31.4101C52.4879 31.479 53.0389 31.1346 53.1078 30.9279Z" fill="#E94E1B"/>
<path d="M51.7302 30.5835C51.7302 30.308 51.5235 30.1013 51.3169 30.1013C51.1102 30.1013 50.9725 30.2391 51.0414 30.5146C51.0414 30.7901 51.4546 31.3412 51.4546 31.4101C51.5235 31.4101 51.7302 30.7901 51.7302 30.5835Z" fill="#E94E1B"/>
<path d="M49.2503 31.9612L48.6304 31.2723C48.7681 31.479 49.0437 31.7545 49.2503 31.9612Z" fill="url(#paint13_linear)"/>
<defs>
<linearGradient id="paint0_linear" x1="18.0957" y1="38.706" x2="22.1227" y2="26.6146" gradientUnits="userSpaceOnUse">
<stop stop-color="#BD3529"/>
<stop offset="0.4672" stop-color="#CE3E24"/>
<stop offset="1" stop-color="#DE491D"/>
</linearGradient>
<linearGradient id="paint1_linear" x1="30.4373" y1="22.7603" x2="30.8507" y2="31.8482" gradientUnits="userSpaceOnUse">
<stop stop-color="#BD1D1D"/>
<stop offset="0.4398" stop-color="#D2371B"/>
<stop offset="1" stop-color="#EA5619"/>
</linearGradient>
<linearGradient id="paint2_linear" x1="52.3288" y1="13.7795" x2="46.977" y2="19.8292" gradientUnits="userSpaceOnUse">
<stop stop-color="#BD1D1D"/>
<stop offset="0.4398" stop-color="#D2371B"/>
<stop offset="1" stop-color="#EA5619"/>
</linearGradient>
<linearGradient id="paint3_linear" x1="50.8577" y1="15.8393" x2="49.3755" y2="17.5148" gradientUnits="userSpaceOnUse">
<stop stop-color="#EA5539"/>
<stop offset="0.3552" stop-color="#ED6C45"/>
<stop offset="1" stop-color="#F2905B"/>
</linearGradient>
<linearGradient id="paint4_linear" x1="39.428" y1="16.9131" x2="38.3649" y2="29.4937" gradientUnits="userSpaceOnUse">
<stop stop-color="#BD3529"/>
<stop offset="0.4672" stop-color="#CE3E24"/>
<stop offset="1" stop-color="#DE491D"/>
</linearGradient>
<linearGradient id="paint5_linear" x1="58.2352" y1="18.0524" x2="62.2253" y2="6.07198" gradientUnits="userSpaceOnUse">
<stop stop-color="#BD3529"/>
<stop offset="0.4672" stop-color="#CE3E24"/>
<stop offset="1" stop-color="#DE491D"/>
</linearGradient>
<linearGradient id="paint6_linear" x1="24.1846" y1="50.9137" x2="29.2148" y2="39.2041" gradientUnits="userSpaceOnUse">
<stop stop-color="#BD3529"/>
<stop offset="0.4672" stop-color="#CE3E24"/>
<stop offset="1" stop-color="#DE491D"/>
</linearGradient>
<linearGradient id="paint7_linear" x1="62.304" y1="24.5943" x2="60.4828" y2="34.9747" gradientUnits="userSpaceOnUse">
<stop stop-color="#BD3529"/>
<stop offset="0.4672" stop-color="#CE3E24"/>
<stop offset="1" stop-color="#DE491D"/>
</linearGradient>
<linearGradient id="paint8_linear" x1="67.9756" y1="32.5792" x2="72.9597" y2="20.977" gradientUnits="userSpaceOnUse">
<stop stop-color="#BD3529"/>
<stop offset="0.4672" stop-color="#CE3E24"/>
<stop offset="1" stop-color="#DE491D"/>
</linearGradient>
<linearGradient id="paint9_linear" x1="46.4493" y1="31.3564" x2="41.3796" y2="42.92" gradientUnits="userSpaceOnUse">
<stop stop-color="#BD3529"/>
<stop offset="0.4672" stop-color="#CE3E24"/>
<stop offset="1" stop-color="#DE491D"/>
</linearGradient>
<linearGradient id="paint10_linear" x1="38.0396" y1="36.3935" x2="36.1662" y2="44.393" gradientUnits="userSpaceOnUse">
<stop stop-color="#BD1D1D"/>
<stop offset="0.4398" stop-color="#D2371B"/>
<stop offset="1" stop-color="#EA5619"/>
</linearGradient>
<linearGradient id="paint11_linear" x1="39.9326" y1="43.2837" x2="39.7912" y2="43.8872" gradientUnits="userSpaceOnUse">
<stop stop-color="#EA5539"/>
<stop offset="0.3552" stop-color="#ED6C45"/>
<stop offset="1" stop-color="#F2905B"/>
</linearGradient>
<linearGradient id="paint12_linear" x1="52.449" y1="38.1802" x2="52.2831" y2="29.9661" gradientUnits="userSpaceOnUse">
<stop stop-color="#BD1D1D"/>
<stop offset="0.4398" stop-color="#D2371B"/>
<stop offset="1" stop-color="#EA5619"/>
</linearGradient>
<linearGradient id="paint13_linear" x1="48.9076" y1="31.9735" x2="48.8951" y2="31.3543" gradientUnits="userSpaceOnUse">
<stop stop-color="#EA5539"/>
<stop offset="0.3552" stop-color="#ED6C45"/>
<stop offset="1" stop-color="#F2905B"/>
</linearGradient>
</defs>
</svg>
