<svg width="51" height="51" viewBox="0 0 51 51" fill="none" xmlns="http://www.w3.org/2000/svg">
<circle cx="25.5001" cy="25.7605" r="25" fill="#8DC63F"/>
<g filter="url(#filter0_d)">
<path d="M26.1764 26.3083C25.9511 26.3083 25.7257 26.3083 25.7257 26.1045C22.5708 24.4739 18.2891 21.8242 17.3877 16.9325C16.937 15.3019 17.3876 12.4484 19.1904 10.4102C20.3172 9.18723 22.3454 7.7605 25.7257 7.7605C30.9088 7.7605 33.3877 10.8178 34.0638 13.6713C34.9652 17.1363 33.1624 21.6204 28.43 23.4548C27.7539 23.6586 27.3032 23.4548 26.8525 22.8433C26.6271 22.2318 26.8524 21.8242 27.5285 21.4165C31.1341 19.9898 32.4863 16.5248 31.8102 13.8752C31.1342 11.2255 28.8806 9.59488 25.7257 9.59488C23.6975 9.59488 22.1201 10.2063 20.9934 11.4293C19.6413 12.856 19.4158 14.8943 19.6412 16.321C20.3172 19.3783 22.5708 21.8242 26.8525 24.0662C27.3032 24.2701 27.5286 24.8815 27.3032 25.493C26.8525 26.1045 26.6271 26.3083 26.1764 26.3083Z" fill="white"/>
<path d="M40.3733 39.7604H10.6268C9.95076 39.7604 9.50006 39.3528 9.50006 38.7413C9.50006 35.4801 9.50006 30.7922 10.6268 28.5502C11.9789 25.2891 17.8381 23.2508 18.5141 23.047C18.9648 22.8432 19.641 23.047 19.8663 23.6585C20.9931 26.1043 23.2466 27.5311 25.5001 27.5311C27.7537 27.5311 29.7818 26.1043 31.1339 23.6585C31.3593 23.2508 32.0353 22.8432 32.486 23.047C33.162 23.2508 39.0212 25.2891 40.3733 28.5502C41.2747 30.5884 41.2747 32.8305 41.0493 34.6649V35.684C41.0493 36.2954 40.5986 36.7031 39.9226 36.7031C39.2465 36.7031 38.7958 36.2954 38.7958 35.684V34.6649C38.7958 32.8305 38.7958 30.996 38.1198 29.3655C37.4437 27.7349 34.2888 26.1043 32.486 25.289C30.9085 27.9387 28.2043 29.5693 25.2747 29.5693C22.3451 29.5693 19.8662 27.9387 18.0634 25.289C16.2606 26.1043 13.1057 27.5311 12.4296 29.3655C11.9789 30.5884 11.5283 33.4419 11.5283 37.7222H40.3733C41.0494 37.7222 41.5001 38.1298 41.5001 38.7413C41.5001 39.3528 41.0494 39.7604 40.3733 39.7604Z" fill="white"/>
</g>
<defs>
<filter id="filter0_d" x="6.50006" y="4.7605" width="38" height="38" filterUnits="userSpaceOnUse" color-interpolation-filters="sRGB">
<feFlood flood-opacity="0" result="BackgroundImageFix"/>
<feColorMatrix in="SourceAlpha" type="matrix" values="0 0 0 0 0 0 0 0 0 0 0 0 0 0 0 0 0 0 127 0"/>
<feOffset/>
<feGaussianBlur stdDeviation="1.5"/>
<feColorMatrix type="matrix" values="0 0 0 0 0.545098 0 0 0 0 0.772549 0 0 0 0 0.247059 0 0 0 0.5 0"/>
<feBlend mode="normal" in2="BackgroundImageFix" result="effect1_dropShadow"/>
<feBlend mode="normal" in="SourceGraphic" in2="effect1_dropShadow" result="shape"/>
</filter>
</defs>
</svg>
