<svg width="38" height="38" viewBox="0 0 38 38" fill="none" xmlns="http://www.w3.org/2000/svg">
<g filter="url(#filter0_d)">
<path d="M19.6764 21.5478C19.451 21.5478 19.2256 21.5478 19.2256 21.344C16.0707 19.7134 11.789 17.0637 10.8876 12.172C10.4369 10.5414 10.8875 7.68788 12.6904 5.64966C13.8171 4.42673 15.8453 3 19.2256 3C24.4087 3 26.8876 6.05731 27.5637 8.91082C28.4651 12.3758 26.6623 16.8599 21.9299 18.6943C21.2538 18.8981 20.8031 18.6943 20.3524 18.0828C20.127 17.4713 20.3524 17.0637 21.0284 16.6561C24.634 15.2293 25.9862 11.7643 25.3102 9.11465C24.6341 6.46497 22.3806 4.83438 19.2256 4.83438C17.1975 4.83438 15.6201 5.44584 14.4933 6.66877C13.1412 8.09552 12.9157 10.1338 13.1411 11.5605C13.8172 14.6178 16.0707 17.0637 20.3524 19.3057C20.8031 19.5096 21.0285 20.121 20.8031 20.7325C20.3524 21.344 20.1271 21.5478 19.6764 21.5478Z" fill="#24241C"/>
<path d="M33.8732 34.9999H4.12676C3.4507 34.9999 3 34.5923 3 33.9808C3 30.7197 3 26.0318 4.12676 23.7897C5.47887 20.5286 11.338 18.4904 12.0141 18.2866C12.4648 18.0827 13.1409 18.2865 13.3663 18.898C14.493 21.3439 16.7466 22.7706 19.0001 22.7706C21.2536 22.7706 23.2818 21.3439 24.6339 18.898C24.8592 18.4904 25.5352 18.0827 25.9859 18.2866C26.662 18.4904 32.5211 20.5286 33.8732 23.7897C34.7746 25.828 34.7746 28.07 34.5493 29.9044V30.9235C34.5493 31.535 34.0986 31.9426 33.4225 31.9426C32.7465 31.9426 32.2958 31.535 32.2958 30.9235V29.9044C32.2958 28.07 32.2958 26.2356 31.6197 24.605C30.9437 22.9744 27.7887 21.3439 25.9859 20.5286C24.4085 23.1783 21.7042 24.8089 18.7746 24.8089C15.8451 24.8089 13.3662 23.1783 11.5633 20.5286C9.76053 21.3439 6.6056 22.7706 5.92955 24.605C5.47884 25.8279 5.02822 28.6815 5.02822 32.9617H33.8732C34.5493 32.9617 35 33.3694 35 33.9808C35 34.5923 34.5493 34.9999 33.8732 34.9999Z" fill="#24241C"/>
</g>
<defs>
<filter id="filter0_d" x="0" y="0" width="38" height="38" filterUnits="userSpaceOnUse" color-interpolation-filters="sRGB">
<feFlood flood-opacity="0" result="BackgroundImageFix"/>
<feColorMatrix in="SourceAlpha" type="matrix" values="0 0 0 0 0 0 0 0 0 0 0 0 0 0 0 0 0 0 127 0"/>
<feOffset/>
<feGaussianBlur stdDeviation="1.5"/>
<feColorMatrix type="matrix" values="0 0 0 0 0.545098 0 0 0 0 0.772549 0 0 0 0 0.247059 0 0 0 0.5 0"/>
<feBlend mode="normal" in2="BackgroundImageFix" result="effect1_dropShadow"/>
<feBlend mode="normal" in="SourceGraphic" in2="effect1_dropShadow" result="shape"/>
</filter>
</defs>
</svg>
