<svg width="51" height="50" viewBox="0 0 51 50" fill="none" xmlns="http://www.w3.org/2000/svg">
<circle cx="25.5" cy="25" r="25" fill="#8DC63F"/>
<g filter="url(#filter0_d)">
<path d="M30.3633 33.4503C27.1022 33.4503 23.841 32.2274 21.3951 29.7816C16.5034 24.8898 16.5034 16.9407 21.3951 12.049C23.841 9.60316 26.8984 8.38025 30.3633 8.38025C33.6245 8.38025 36.8856 9.60316 39.3314 12.049C44.2232 16.9407 44.2232 24.8898 39.3314 29.7816C36.8856 32.2274 33.6245 33.4503 30.3633 33.4503ZM30.3633 10.4185C27.5098 10.4185 24.8601 11.4376 23.0257 13.4758C18.9492 17.5522 18.9492 24.2783 23.0257 28.3548C25.0639 30.393 27.7136 31.4121 30.3633 31.4121C33.2168 31.4121 35.8665 30.393 37.7009 28.3548C41.7773 24.2783 41.7773 17.5522 37.7009 13.4758C35.8665 11.4376 33.2168 10.4185 30.3633 10.4185Z" fill="white"/>
<path d="M37.2928 22.0364C36.6813 22.0364 36.2737 21.6287 36.2737 21.0173C36.2737 17.7561 33.6241 15.1064 30.3629 15.1064C27.1018 15.1064 24.452 17.7561 24.452 21.0173C24.452 21.6287 24.0444 22.0364 23.4329 22.0364C22.8215 22.0364 22.4138 21.6287 22.4138 21.0173C22.4138 16.5332 26.0826 12.8644 30.5667 12.8644C35.0508 12.8644 38.7196 16.5332 38.7196 21.0173C38.3119 21.4249 37.9043 22.0364 37.2928 22.0364Z" fill="white"/>
<path d="M14.8725 40.3804C13.8534 40.3804 12.8343 39.9727 12.2229 39.1574C11.4076 38.3421 11 37.3231 11 36.3039C11 35.2848 11.4076 34.2657 12.2229 33.6543L17.5222 28.3549C17.9298 27.9472 18.5413 27.9472 18.949 28.3549C19.3566 28.7625 19.3566 29.374 18.949 29.7816L13.6497 35.081C13.242 35.4886 13.0382 35.8963 13.0382 36.3039C13.0382 36.7116 13.242 37.323 13.6497 37.5269C14.4649 38.3421 15.6879 38.3421 16.2993 37.5269L21.5986 32.2275C22.0063 31.8199 22.6178 31.8199 23.0254 32.2275C23.4331 32.6351 23.4331 33.2466 23.0254 33.6543L17.7261 38.9536C16.9108 39.9727 15.8917 40.3804 14.8725 40.3804Z" fill="white"/>
</g>
<defs>
<filter id="filter0_d" x="8" y="5.38025" width="38.0002" height="38.0001" filterUnits="userSpaceOnUse" color-interpolation-filters="sRGB">
<feFlood flood-opacity="0" result="BackgroundImageFix"/>
<feColorMatrix in="SourceAlpha" type="matrix" values="0 0 0 0 0 0 0 0 0 0 0 0 0 0 0 0 0 0 127 0"/>
<feOffset/>
<feGaussianBlur stdDeviation="1.5"/>
<feColorMatrix type="matrix" values="0 0 0 0 0.545098 0 0 0 0 0.772549 0 0 0 0 0.247059 0 0 0 0.5 0"/>
<feBlend mode="normal" in2="BackgroundImageFix" result="effect1_dropShadow"/>
<feBlend mode="normal" in="SourceGraphic" in2="effect1_dropShadow" result="shape"/>
</filter>
</defs>
</svg>
