<svg width="39" height="38" viewBox="0 0 39 38" fill="none" xmlns="http://www.w3.org/2000/svg">
<g filter="url(#filter0_d)">
<path d="M19.6033 35.0001C19.3985 35.0001 19.1936 35.0001 19.1936 34.7462C10.3848 29.4128 4.64894 22.0477 3.62467 14.9365C3.21496 11.635 3.8295 8.58734 5.26348 6.30162C6.90232 4.01591 9.15572 3.00006 11.4091 3.00006C14.6868 3.00006 17.5547 5.28576 19.3984 7.82545C21.2421 5.53973 24.1101 3.25403 27.3878 3.00006C29.6412 3.00006 31.8946 4.01591 33.5334 6.30162C35.1722 8.58734 35.7869 11.381 35.3772 14.6826C34.5577 21.0318 29.8461 27.635 22.6761 32.7144C22.2664 32.9683 21.6518 32.9684 21.2421 32.2065C21.0373 31.6985 21.2421 30.9366 21.6519 30.4287C28.4121 25.6032 32.714 19.762 33.3286 14.1747C33.7383 11.635 33.1237 9.34926 31.8946 7.82545C30.6655 6.04767 29.0266 5.28576 27.3878 5.28576C24.9295 5.28576 22.0615 7.3175 20.2179 10.1112C19.8081 10.6191 18.9887 10.6191 18.579 10.1112C16.5305 7.3175 13.8674 5.28576 11.4091 5.28576C9.56543 5.28576 8.13142 6.04767 6.90229 7.82545C5.67316 9.34926 5.2635 11.635 5.67321 14.1747C6.49263 20.5239 12.0237 27.1271 20.013 32.2065C20.4228 32.4604 20.6275 33.2223 20.4227 33.9842C20.4227 34.7461 20.013 35.0001 19.6033 35.0001Z" fill="#24241C"/>
</g>
<defs>
<filter id="filter0_d" x="0.500061" y="6.10352e-05" width="38" height="38" filterUnits="userSpaceOnUse" color-interpolation-filters="sRGB">
<feFlood flood-opacity="0" result="BackgroundImageFix"/>
<feColorMatrix in="SourceAlpha" type="matrix" values="0 0 0 0 0 0 0 0 0 0 0 0 0 0 0 0 0 0 127 0"/>
<feOffset/>
<feGaussianBlur stdDeviation="1.5"/>
<feColorMatrix type="matrix" values="0 0 0 0 0.545098 0 0 0 0 0.772549 0 0 0 0 0.247059 0 0 0 0.5 0"/>
<feBlend mode="normal" in2="BackgroundImageFix" result="effect1_dropShadow"/>
<feBlend mode="normal" in="SourceGraphic" in2="effect1_dropShadow" result="shape"/>
</filter>
</defs>
</svg>
