<svg width="100" height="68" viewBox="0 0 100 68" fill="none" xmlns="http://www.w3.org/2000/svg">
<path d="M20.0766 32C13.5034 32 8.15308 26.6497 8.15308 20.0764C8.15308 13.5032 13.5034 8.15283 20.0766 8.15283C26.6499 8.15283 32.0002 13.5032 32.0002 20.0764C32.0002 26.6497 26.6499 32 20.0766 32ZM20.0766 9.52866C14.2677 9.52866 9.68174 14.2675 9.68174 19.9235C9.68174 25.7325 14.4206 30.3184 20.0766 30.3184C25.7327 30.3184 30.4715 25.5796 30.4715 19.9235C30.4715 14.2675 25.7327 9.52866 20.0766 9.52866Z" fill="#8DC63F"/>
<path d="M24.0508 24.8153C23.898 24.8153 23.5923 24.8153 23.4394 24.6624L19.4648 20.6879C19.312 20.535 19.312 20.3822 19.312 20.0764V13.5032C19.312 13.0446 19.6177 12.7388 20.0763 12.7388C20.5349 12.7388 20.8407 13.0446 20.8407 13.5032V19.6178L24.6623 23.4395C24.9681 23.7452 24.9681 24.2038 24.6623 24.5095C24.3566 24.6624 24.2037 24.8153 24.0508 24.8153Z" fill="#8DC63F"/>
<path d="M31.2355 20.6878H29.2482C28.7896 20.6878 28.4839 20.3821 28.4839 19.9235C28.4839 19.4649 28.7896 19.1592 29.2482 19.1592H31.2355C31.6941 19.1592 31.9998 19.4649 31.9998 19.9235C31.9998 20.3821 31.6941 20.6878 31.2355 20.6878Z" fill="#8DC63F"/>
<path d="M10.7517 20.6878H8.76433C8.30573 20.6878 8 20.3821 8 19.9235C8 19.4649 8.30573 19.1592 8.76433 19.1592H10.7517C11.2103 19.1592 11.516 19.4649 11.516 19.9235C11.516 20.3821 11.2103 20.6878 10.7517 20.6878Z" fill="#8DC63F"/>
<path d="M20.0763 32C19.6177 32 19.312 31.6942 19.312 31.2356V29.2484C19.312 28.7898 19.6177 28.4841 20.0763 28.4841C20.5349 28.4841 20.8407 28.7898 20.8407 29.2484V31.2356C20.8407 31.6942 20.3821 32 20.0763 32Z" fill="#8DC63F"/>
<path d="M20.0763 11.5159C19.6177 11.5159 19.312 11.2102 19.312 10.7516V8.76433C19.312 8.30573 19.6177 8 20.0763 8C20.5349 8 20.8407 8.30573 20.8407 8.76433V10.7516C20.8407 11.2102 20.3821 11.5159 20.0763 11.5159Z" fill="#8DC63F"/>
<path d="M50.0766 32C43.5034 32 38.1531 26.6497 38.1531 20.0764C38.1531 13.5032 43.5034 8.15283 50.0766 8.15283C56.6499 8.15283 62.0002 13.5032 62.0002 20.0764C62.0002 26.6497 56.6499 32 50.0766 32ZM50.0766 9.52866C44.2677 9.52866 39.6817 14.2675 39.6817 19.9235C39.6817 25.7325 44.4206 30.3184 50.0766 30.3184C55.7327 30.3184 60.4715 25.5796 60.4715 19.9235C60.4715 14.2675 55.7327 9.52866 50.0766 9.52866Z" fill="#8DC63F"/>
<path d="M54.0508 24.8153C53.898 24.8153 53.5923 24.8153 53.4394 24.6624L49.4648 20.6879C49.312 20.535 49.312 20.3822 49.312 20.0764V13.5032C49.312 13.0446 49.6177 12.7388 50.0763 12.7388C50.5349 12.7388 50.8407 13.0446 50.8407 13.5032V19.6178L54.6623 23.4395C54.9681 23.7452 54.9681 24.2038 54.6623 24.5095C54.3566 24.6624 54.2037 24.8153 54.0508 24.8153Z" fill="#8DC63F"/>
<path d="M61.2355 20.6878H59.2482C58.7896 20.6878 58.4839 20.3821 58.4839 19.9235C58.4839 19.4649 58.7896 19.1592 59.2482 19.1592H61.2355C61.6941 19.1592 61.9998 19.4649 61.9998 19.9235C61.9998 20.3821 61.6941 20.6878 61.2355 20.6878Z" fill="#8DC63F"/>
<path d="M40.7517 20.6878H38.7643C38.3057 20.6878 38 20.3821 38 19.9235C38 19.4649 38.3057 19.1592 38.7643 19.1592H40.7517C41.2103 19.1592 41.516 19.4649 41.516 19.9235C41.516 20.3821 41.2103 20.6878 40.7517 20.6878Z" fill="#8DC63F"/>
<path d="M50.0763 32C49.6177 32 49.312 31.6942 49.312 31.2356V29.2484C49.312 28.7898 49.6177 28.4841 50.0763 28.4841C50.5349 28.4841 50.8407 28.7898 50.8407 29.2484V31.2356C50.8407 31.6942 50.3821 32 50.0763 32Z" fill="#8DC63F"/>
<path d="M50.0763 11.5159C49.6177 11.5159 49.312 11.2102 49.312 10.7516V8.76433C49.312 8.30573 49.6177 8 50.0763 8C50.5349 8 50.8407 8.30573 50.8407 8.76433V10.7516C50.8407 11.2102 50.3821 11.5159 50.0763 11.5159Z" fill="#8DC63F"/>
<path d="M80.0766 32C73.5034 32 68.1531 26.6497 68.1531 20.0764C68.1531 13.5032 73.5034 8.15283 80.0766 8.15283C86.6499 8.15283 92.0002 13.5032 92.0002 20.0764C92.0002 26.6497 86.6499 32 80.0766 32ZM80.0766 9.52866C74.2677 9.52866 69.6817 14.2675 69.6817 19.9235C69.6817 25.7325 74.4206 30.3184 80.0766 30.3184C85.7327 30.3184 90.4715 25.5796 90.4715 19.9235C90.4715 14.2675 85.7327 9.52866 80.0766 9.52866Z" fill="#8DC63F"/>
<path d="M84.0508 24.8153C83.898 24.8153 83.5923 24.8153 83.4394 24.6624L79.4648 20.6879C79.312 20.535 79.312 20.3822 79.312 20.0764V13.5032C79.312 13.0446 79.6177 12.7388 80.0763 12.7388C80.5349 12.7388 80.8407 13.0446 80.8407 13.5032V19.6178L84.6623 23.4395C84.9681 23.7452 84.9681 24.2038 84.6623 24.5095C84.3566 24.6624 84.2037 24.8153 84.0508 24.8153Z" fill="#8DC63F"/>
<path d="M91.2355 20.6878H89.2482C88.7896 20.6878 88.4839 20.3821 88.4839 19.9235C88.4839 19.4649 88.7896 19.1592 89.2482 19.1592H91.2355C91.6941 19.1592 91.9998 19.4649 91.9998 19.9235C91.9998 20.3821 91.6941 20.6878 91.2355 20.6878Z" fill="#8DC63F"/>
<path d="M70.7517 20.6878H68.7643C68.3057 20.6878 68 20.3821 68 19.9235C68 19.4649 68.3057 19.1592 68.7643 19.1592H70.7517C71.2103 19.1592 71.516 19.4649 71.516 19.9235C71.516 20.3821 71.2103 20.6878 70.7517 20.6878Z" fill="#8DC63F"/>
<path d="M80.0763 32C79.6177 32 79.312 31.6942 79.312 31.2356V29.2484C79.312 28.7898 79.6177 28.4841 80.0763 28.4841C80.5349 28.4841 80.8407 28.7898 80.8407 29.2484V31.2356C80.8407 31.6942 80.3821 32 80.0763 32Z" fill="#8DC63F"/>
<path d="M80.0763 11.5159C79.6177 11.5159 79.312 11.2102 79.312 10.7516V8.76433C79.312 8.30573 79.6177 8 80.0763 8C80.5349 8 80.8407 8.30573 80.8407 8.76433V10.7516C80.8407 11.2102 80.3821 11.5159 80.0763 11.5159Z" fill="#8DC63F"/>
<path d="M19.3349 42.8569C19.7596 42.8569 20.1516 42.9176 20.5109 43.0389C20.8703 43.1603 21.1783 43.3329 21.4349 43.5569C21.6963 43.7809 21.8993 44.0516 22.0439 44.3689C22.1886 44.6863 22.2609 45.0386 22.2609 45.4259C22.2609 45.7433 22.2189 46.0279 22.1349 46.2799C22.0556 46.5273 21.9389 46.7466 21.7849 46.9379C21.6356 47.1246 21.4536 47.2833 21.2389 47.4139C21.0243 47.5446 20.7839 47.6496 20.5179 47.7289C21.1713 47.9016 21.6613 48.1909 21.9879 48.5969C22.3193 49.0029 22.4849 49.5116 22.4849 50.1229C22.4849 50.5849 22.3963 51.0003 22.2189 51.3689C22.0463 51.7376 21.8083 52.0526 21.5049 52.3139C21.2016 52.5706 20.8469 52.7689 20.4409 52.9089C20.0396 53.0443 19.6079 53.1119 19.1459 53.1119C18.6139 53.1119 18.1589 53.0466 17.7809 52.9159C17.4029 52.7806 17.0833 52.5963 16.8219 52.3629C16.5606 52.1296 16.3459 51.8543 16.1779 51.5369C16.0099 51.2149 15.8676 50.8673 15.7509 50.4939L16.2829 50.2699C16.3809 50.2279 16.4789 50.2069 16.5769 50.2069C16.6703 50.2069 16.7519 50.2279 16.8219 50.2699C16.8966 50.3073 16.9526 50.3679 16.9899 50.4519C16.9993 50.4706 17.0086 50.4916 17.0179 50.5149C17.0273 50.5336 17.0366 50.5546 17.0459 50.5779C17.1113 50.7133 17.1906 50.8673 17.2839 51.0399C17.3773 51.2079 17.5033 51.3666 17.6619 51.5159C17.8206 51.6653 18.0166 51.7913 18.2499 51.8939C18.4879 51.9966 18.7819 52.0479 19.1319 52.0479C19.4819 52.0479 19.7876 51.9919 20.0489 51.8799C20.3149 51.7633 20.5343 51.6139 20.7069 51.4319C20.8843 51.2499 21.0173 51.0469 21.1059 50.8229C21.1946 50.5989 21.2389 50.3773 21.2389 50.1579C21.2389 49.8873 21.2016 49.6399 21.1269 49.4159C21.0569 49.1919 20.9263 48.9983 20.7349 48.8349C20.5483 48.6716 20.2869 48.5433 19.9509 48.4499C19.6196 48.3566 19.1926 48.3099 18.6699 48.3099V47.4069C19.0946 47.4023 19.4563 47.3556 19.7549 47.2669C20.0583 47.1783 20.3056 47.0569 20.4969 46.9029C20.6883 46.7489 20.8259 46.5646 20.9099 46.3499C20.9986 46.1353 21.0429 45.8973 21.0429 45.6359C21.0429 45.3466 20.9963 45.0946 20.9029 44.8799C20.8143 44.6653 20.6906 44.4879 20.5319 44.3479C20.3733 44.2079 20.1843 44.1029 19.9649 44.0329C19.7503 43.9629 19.5169 43.9279 19.2649 43.9279C19.0129 43.9279 18.7796 43.9653 18.5649 44.0399C18.3503 44.1146 18.1589 44.2196 17.9909 44.3549C17.8276 44.4856 17.6899 44.6443 17.5779 44.8309C17.4659 45.0129 17.3819 45.2113 17.3259 45.4259C17.2886 45.5613 17.2326 45.6593 17.1579 45.7199C17.0833 45.7806 16.9876 45.8109 16.8709 45.8109C16.8476 45.8109 16.8219 45.8109 16.7939 45.8109C16.7706 45.8063 16.7426 45.8016 16.7099 45.7969L16.0589 45.6849C16.1243 45.2276 16.2503 44.8239 16.4369 44.4739C16.6236 44.1193 16.8593 43.8229 17.1439 43.5849C17.4333 43.3469 17.7623 43.1673 18.1309 43.0459C18.5043 42.9199 18.9056 42.8569 19.3349 42.8569ZM30.966 47.9879C30.966 48.8653 30.8703 49.6259 30.679 50.2699C30.4923 50.9093 30.2357 51.4389 29.909 51.8589C29.5823 52.2789 29.195 52.5916 28.747 52.7969C28.3037 53.0023 27.8277 53.1049 27.319 53.1049C26.8057 53.1049 26.3273 53.0023 25.884 52.7969C25.4453 52.5916 25.0627 52.2789 24.736 51.8589C24.4093 51.4389 24.1527 50.9093 23.966 50.2699C23.7793 49.6259 23.686 48.8653 23.686 47.9879C23.686 47.1106 23.7793 46.3499 23.966 45.7059C24.1527 45.0619 24.4093 44.5299 24.736 44.1099C25.0627 43.6853 25.4453 43.3703 25.884 43.1649C26.3273 42.9596 26.8057 42.8569 27.319 42.8569C27.8277 42.8569 28.3037 42.9596 28.747 43.1649C29.195 43.3703 29.5823 43.6853 29.909 44.1099C30.2357 44.5299 30.4923 45.0619 30.679 45.7059C30.8703 46.3499 30.966 47.1106 30.966 47.9879ZM29.671 47.9879C29.671 47.2226 29.6057 46.5809 29.475 46.0629C29.349 45.5403 29.1763 45.1203 28.957 44.8029C28.7423 44.4856 28.4927 44.2593 28.208 44.1239C27.9233 43.9839 27.627 43.9139 27.319 43.9139C27.011 43.9139 26.7147 43.9839 26.43 44.1239C26.1453 44.2593 25.8957 44.4856 25.681 44.8029C25.4663 45.1203 25.2937 45.5403 25.163 46.0629C25.037 46.5809 24.974 47.2226 24.974 47.9879C24.974 48.7533 25.037 49.3949 25.163 49.9129C25.2937 50.4309 25.4663 50.8486 25.681 51.1659C25.8957 51.4833 26.1453 51.7119 26.43 51.8519C26.7147 51.9873 27.011 52.0549 27.319 52.0549C27.627 52.0549 27.9233 51.9873 28.208 51.8519C28.4927 51.7119 28.7423 51.4833 28.957 51.1659C29.1763 50.8486 29.349 50.4309 29.475 49.9129C29.6057 49.3949 29.671 48.7533 29.671 47.9879ZM35.4161 52.9999V45.9089H36.1581C36.3355 45.9089 36.4475 45.9953 36.4941 46.1679L36.5851 46.8959C36.8465 46.5739 37.1381 46.3103 37.4601 46.1049C37.7868 45.8996 38.1648 45.7969 38.5941 45.7969C39.0748 45.7969 39.4621 45.9299 39.7561 46.1959C40.0548 46.4619 40.2695 46.8213 40.4001 47.2739C40.4981 47.0173 40.6265 46.7956 40.7851 46.6089C40.9485 46.4223 41.1305 46.2683 41.3311 46.1469C41.5318 46.0256 41.7441 45.9369 41.9681 45.8809C42.1968 45.8249 42.4278 45.7969 42.6611 45.7969C43.0345 45.7969 43.3658 45.8576 43.6551 45.9789C43.9491 46.0956 44.1965 46.2683 44.3971 46.4969C44.6025 46.7256 44.7588 47.0079 44.8661 47.3439C44.9735 47.6753 45.0271 48.0556 45.0271 48.4849V52.9999H43.7811V48.4849C43.7811 47.9296 43.6598 47.5096 43.4171 47.2249C43.1745 46.9356 42.8221 46.7909 42.3601 46.7909C42.1548 46.7909 41.9588 46.8283 41.7721 46.9029C41.5901 46.9729 41.4291 47.0779 41.2891 47.2179C41.1491 47.3579 41.0371 47.5353 40.9531 47.7499C40.8738 47.9599 40.8341 48.2049 40.8341 48.4849V52.9999H39.5881V48.4849C39.5881 47.9156 39.4738 47.4909 39.2451 47.2109C39.0165 46.9309 38.6828 46.7909 38.2441 46.7909C37.9361 46.7909 37.6491 46.8749 37.3831 47.0429C37.1218 47.2063 36.8815 47.4303 36.6621 47.7149V52.9999H35.4161ZM48.4502 45.9089V52.9999H47.2042V45.9089H48.4502ZM48.7302 43.6829C48.7302 43.8043 48.7045 43.9186 48.6532 44.0259C48.6065 44.1286 48.5412 44.2219 48.4572 44.3059C48.3779 44.3853 48.2845 44.4483 48.1772 44.4949C48.0699 44.5416 47.9555 44.5649 47.8342 44.5649C47.7129 44.5649 47.5985 44.5416 47.4912 44.4949C47.3885 44.4483 47.2952 44.3853 47.2112 44.3059C47.1319 44.2219 47.0689 44.1286 47.0222 44.0259C46.9755 43.9186 46.9522 43.8043 46.9522 43.6829C46.9522 43.5616 46.9755 43.4473 47.0222 43.3399C47.0689 43.2279 47.1319 43.1323 47.2112 43.0529C47.2952 42.9689 47.3885 42.9036 47.4912 42.8569C47.5985 42.8103 47.7129 42.7869 47.8342 42.7869C47.9555 42.7869 48.0699 42.8103 48.1772 42.8569C48.2845 42.9036 48.3779 42.9689 48.4572 43.0529C48.5412 43.1323 48.6065 43.2279 48.6532 43.3399C48.7045 43.4473 48.7302 43.5616 48.7302 43.6829ZM50.7962 52.9999V45.9089H51.5382C51.7156 45.9089 51.8276 45.9953 51.8742 46.1679L51.9722 46.9379C52.2802 46.5973 52.6232 46.3219 53.0012 46.1119C53.3839 45.9019 53.8249 45.7969 54.3242 45.7969C54.7116 45.7969 55.0522 45.8623 55.3462 45.9929C55.6449 46.1189 55.8922 46.3009 56.0882 46.5389C56.2889 46.7723 56.4406 47.0546 56.5432 47.3859C56.6459 47.7173 56.6972 48.0836 56.6972 48.4849V52.9999H55.4512V48.4849C55.4512 47.9483 55.3276 47.5329 55.0802 47.2389C54.8376 46.9403 54.4642 46.7909 53.9602 46.7909C53.5916 46.7909 53.2462 46.8796 52.9242 47.0569C52.6069 47.2343 52.3129 47.4746 52.0422 47.7779V52.9999H50.7962ZM59.8035 45.9089V50.4309C59.8035 50.9676 59.9272 51.3829 60.1745 51.6769C60.4219 51.9709 60.7952 52.1179 61.2945 52.1179C61.6585 52.1179 62.0015 52.0316 62.3235 51.8589C62.6455 51.6863 62.9419 51.4459 63.2125 51.1379V45.9089H64.4585V52.9999H63.7165C63.5392 52.9999 63.4272 52.9136 63.3805 52.7409L63.2825 51.9779C62.9745 52.3186 62.6292 52.5939 62.2465 52.8039C61.8639 53.0093 61.4252 53.1119 60.9305 53.1119C60.5432 53.1119 60.2002 53.0489 59.9015 52.9229C59.6075 52.7923 59.3602 52.6103 59.1595 52.3769C58.9589 52.1436 58.8072 51.8613 58.7045 51.5299C58.6065 51.1986 58.5575 50.8323 58.5575 50.4309V45.9089H59.8035ZM68.8038 53.1119C68.2438 53.1119 67.8121 52.9556 67.5088 52.6429C67.2101 52.3303 67.0608 51.8799 67.0608 51.2919V46.9519H66.2068C66.1321 46.9519 66.0691 46.9309 66.0178 46.8889C65.9665 46.8423 65.9408 46.7723 65.9408 46.6789V46.1819L67.1028 46.0349L67.3898 43.8439C67.3991 43.7739 67.4295 43.7179 67.4808 43.6759C67.5321 43.6293 67.5975 43.6059 67.6768 43.6059H68.3068V46.0489H70.3368V46.9519H68.3068V51.2079C68.3068 51.5066 68.3791 51.7283 68.5238 51.8729C68.6685 52.0176 68.8551 52.0899 69.0838 52.0899C69.2145 52.0899 69.3265 52.0736 69.4198 52.0409C69.5178 52.0036 69.6018 51.9639 69.6718 51.9219C69.7418 51.8799 69.8001 51.8426 69.8468 51.8099C69.8981 51.7726 69.9425 51.7539 69.9798 51.7539C70.0451 51.7539 70.1035 51.7936 70.1548 51.8729L70.5188 52.4679C70.3041 52.6686 70.0451 52.8273 69.7418 52.9439C69.4385 53.0559 69.1258 53.1119 68.8038 53.1119ZM74.8975 45.7969C75.4155 45.7969 75.8821 45.8833 76.2975 46.0559C76.7175 46.2286 77.0721 46.4736 77.3615 46.7909C77.6555 47.1083 77.8795 47.4933 78.0335 47.9459C78.1921 48.3939 78.2715 48.8956 78.2715 49.4509C78.2715 50.0109 78.1921 50.5149 78.0335 50.9629C77.8795 51.4109 77.6555 51.7936 77.3615 52.1109C77.0721 52.4283 76.7175 52.6733 76.2975 52.8459C75.8821 53.0139 75.4155 53.0979 74.8975 53.0979C74.3795 53.0979 73.9105 53.0139 73.4905 52.8459C73.0751 52.6733 72.7205 52.4283 72.4265 52.1109C72.1325 51.7936 71.9061 51.4109 71.7475 50.9629C71.5888 50.5149 71.5095 50.0109 71.5095 49.4509C71.5095 48.8956 71.5888 48.3939 71.7475 47.9459C71.9061 47.4933 72.1325 47.1083 72.4265 46.7909C72.7205 46.4736 73.0751 46.2286 73.4905 46.0559C73.9105 45.8833 74.3795 45.7969 74.8975 45.7969ZM74.8975 52.1249C75.5975 52.1249 76.1201 51.8916 76.4655 51.4249C76.8108 50.9536 76.9835 50.2979 76.9835 49.4579C76.9835 48.6133 76.8108 47.9553 76.4655 47.4839C76.1201 47.0126 75.5975 46.7769 74.8975 46.7769C74.5428 46.7769 74.2348 46.8376 73.9735 46.9589C73.7121 47.0803 73.4928 47.2553 73.3155 47.4839C73.1428 47.7126 73.0121 47.9949 72.9235 48.3309C72.8395 48.6623 72.7975 49.0379 72.7975 49.4579C72.7975 49.8779 72.8395 50.2536 72.9235 50.5849C73.0121 50.9163 73.1428 51.1963 73.3155 51.4249C73.4928 51.6489 73.7121 51.8216 73.9735 51.9429C74.2348 52.0643 74.5428 52.1249 74.8975 52.1249ZM84.0168 47.0779C83.9608 47.1806 83.8744 47.2319 83.7578 47.2319C83.6878 47.2319 83.6084 47.2063 83.5198 47.1549C83.4311 47.1036 83.3214 47.0476 83.1908 46.9869C83.0648 46.9216 82.9131 46.8633 82.7358 46.8119C82.5584 46.7559 82.3484 46.7279 82.1058 46.7279C81.8958 46.7279 81.7068 46.7559 81.5388 46.8119C81.3708 46.8633 81.2261 46.9356 81.1048 47.0289C80.9881 47.1223 80.8971 47.2319 80.8318 47.3579C80.7711 47.4793 80.7408 47.6123 80.7408 47.7569C80.7408 47.9389 80.7921 48.0906 80.8948 48.2119C81.0021 48.3333 81.1421 48.4383 81.3148 48.5269C81.4874 48.6156 81.6834 48.6949 81.9028 48.7649C82.1221 48.8303 82.3461 48.9026 82.5748 48.9819C82.8081 49.0566 83.0344 49.1406 83.2538 49.2339C83.4731 49.3273 83.6691 49.4439 83.8418 49.5839C84.0144 49.7239 84.1521 49.8966 84.2548 50.1019C84.3621 50.3026 84.4158 50.5453 84.4158 50.8299C84.4158 51.1566 84.3574 51.4599 84.2408 51.7399C84.1241 52.0153 83.9514 52.2556 83.7228 52.4609C83.4941 52.6616 83.2141 52.8203 82.8828 52.9369C82.5514 53.0536 82.1688 53.1119 81.7348 53.1119C81.2401 53.1119 80.7921 53.0326 80.3908 52.8739C79.9894 52.7106 79.6488 52.5029 79.3688 52.2509L79.6628 51.7749C79.7001 51.7143 79.7444 51.6676 79.7958 51.6349C79.8471 51.6023 79.9148 51.5859 79.9988 51.5859C80.0828 51.5859 80.1714 51.6186 80.2648 51.6839C80.3581 51.7493 80.4701 51.8216 80.6008 51.9009C80.7361 51.9803 80.8971 52.0526 81.0838 52.1179C81.2751 52.1833 81.5131 52.2159 81.7978 52.2159C82.0404 52.2159 82.2528 52.1856 82.4348 52.1249C82.6168 52.0596 82.7684 51.9733 82.8898 51.8659C83.0111 51.7586 83.0998 51.6349 83.1558 51.4949C83.2164 51.3549 83.2468 51.2056 83.2468 51.0469C83.2468 50.8509 83.1931 50.6899 83.0858 50.5639C82.9831 50.4333 82.8454 50.3236 82.6728 50.2349C82.5001 50.1416 82.3018 50.0623 82.0778 49.9969C81.8584 49.9269 81.6321 49.8546 81.3988 49.7799C81.1701 49.7053 80.9438 49.6213 80.7198 49.5279C80.5004 49.4299 80.3044 49.3086 80.1318 49.1639C79.9591 49.0193 79.8191 48.8419 79.7118 48.6319C79.6091 48.4173 79.5578 48.1583 79.5578 47.8549C79.5578 47.5843 79.6138 47.3253 79.7258 47.0779C79.8378 46.8259 80.0011 46.6066 80.2158 46.4199C80.4304 46.2286 80.6941 46.0769 81.0068 45.9649C81.3194 45.8529 81.6764 45.7969 82.0778 45.7969C82.5444 45.7969 82.9621 45.8716 83.3308 46.0209C83.7041 46.1656 84.0261 46.3663 84.2968 46.6229L84.0168 47.0779Z" fill="black"/>
</svg>
