<svg width="38" height="38" viewBox="0 0 38 38" fill="none" xmlns="http://www.w3.org/2000/svg">
<g filter="url(#filter0_d)">
<path d="M19.1033 35C18.8984 35 18.6935 35.0001 18.6935 34.7461C9.88476 29.4127 4.14888 22.0476 3.12461 14.9365C2.7149 11.6349 3.32944 8.58728 4.76342 6.30156C6.40226 4.01584 8.65566 3 10.9091 3C14.1867 3 17.0546 5.2857 18.8983 7.82539C20.742 5.53967 23.61 3.25397 26.8877 3C29.1411 3 31.3945 4.01584 33.0333 6.30156C34.6722 8.58728 35.2868 11.3809 34.8771 14.6825C34.0577 21.0317 29.346 27.6349 22.1761 32.7143C21.7664 32.9683 21.1518 32.9683 20.7421 32.2064C20.5372 31.6985 20.7421 30.9365 21.1518 30.4286C27.912 25.6032 32.214 19.7619 32.8285 14.1746C33.2383 11.6349 32.6237 9.3492 31.3945 7.82539C30.1654 6.04761 28.5265 5.2857 26.8877 5.2857C24.4294 5.2857 21.5615 7.31744 19.7178 10.1111C19.3081 10.619 18.4887 10.619 18.079 10.1111C16.0304 7.31744 13.3673 5.2857 10.9091 5.2857C9.06537 5.2857 7.63136 6.04761 6.40223 7.82539C5.1731 9.3492 4.76344 11.6349 5.17315 14.1746C5.99257 20.5238 11.5237 27.127 19.513 32.2064C19.9227 32.4604 20.1274 33.2222 19.9226 33.9841C19.9226 34.746 19.513 35 19.1033 35Z" fill="#24241C"/>
</g>
<defs>
<filter id="filter0_d" x="0" y="0" width="38" height="38" filterUnits="userSpaceOnUse" color-interpolation-filters="sRGB">
<feFlood flood-opacity="0" result="BackgroundImageFix"/>
<feColorMatrix in="SourceAlpha" type="matrix" values="0 0 0 0 0 0 0 0 0 0 0 0 0 0 0 0 0 0 127 0"/>
<feOffset/>
<feGaussianBlur stdDeviation="1.5"/>
<feColorMatrix type="matrix" values="0 0 0 0 0.545098 0 0 0 0 0.772549 0 0 0 0 0.247059 0 0 0 0.5 0"/>
<feBlend mode="normal" in2="BackgroundImageFix" result="effect1_dropShadow"/>
<feBlend mode="normal" in="SourceGraphic" in2="effect1_dropShadow" result="shape"/>
</filter>
</defs>
</svg>
