<svg width="98" height="106" viewBox="0 0 98 106" fill="none" xmlns="http://www.w3.org/2000/svg">
<g clip-path="url(#clip0)">
<path d="M49 41.2893C68.5668 41.2893 86.0609 44.1083 98 48.5025C95.5127 21.308 74.5364 0 49 0C23.4636 0 2.48731 21.308 0 48.5025C11.9391 44.0254 29.4332 41.2893 49 41.2893Z" fill="#8EC044"/>
<path d="M13.929 65.0017L14.4264 66.9915L34.9053 77.1895L66.2454 57.4568L65.9966 56.379L45.1862 53.2284L13.929 65.0017Z" fill="#D2D2D2"/>
<path d="M74.2046 52.648C74.2046 54.5549 69.8933 56.1302 64.6699 56.1302C59.3637 56.1302 55.1353 54.5549 55.1353 52.648C55.1353 50.7411 59.4466 49.1658 64.6699 49.1658C69.9762 49.2487 74.2046 50.7411 74.2046 52.648Z" fill="#D2D2D2"/>
<path d="M72.215 68.2352C72.215 69.8105 69.1473 71.0542 65.4163 71.0542C61.6854 71.0542 58.6177 69.8105 58.6177 68.2352C58.6177 66.6599 61.6854 65.4163 65.4163 65.4163C69.1473 65.4163 72.215 66.6599 72.215 68.2352Z" fill="#D2D2D2"/>
<path d="M79.7598 76.4433C79.7598 78.1015 76.4434 79.428 72.2979 79.428C68.1524 79.428 64.8359 78.1015 64.8359 76.4433C64.8359 74.7851 68.1524 73.4585 72.2979 73.4585C76.4434 73.4585 79.7598 74.7851 79.7598 76.4433Z" fill="#D2D2D2"/>
<path d="M83.9054 37.4754C84.8174 35.9001 86.8072 35.4856 88.6312 36.3976C89.5433 36.895 90.0407 37.7241 90.0407 38.6361C90.0407 39.9627 87.968 40.5431 86.7243 40.8747C84.6516 41.4551 75.6143 42.9475 79.0137 46.181C80.1744 47.2588 81.9984 45.6835 80.9206 44.6057C80.6719 45.1032 80.8377 45.1861 81.2522 44.8544C81.6668 44.6886 82.1642 44.5228 82.5788 44.357C83.5737 44.0253 84.6516 43.7766 85.6465 43.5279C87.3047 43.1133 89.2116 42.6988 90.6211 41.7867C92.4451 40.5431 93.1913 38.5532 92.1964 36.7292C90.1236 33.1641 83.8224 32.7495 81.6668 36.4805C80.8377 37.6412 83.1592 38.802 83.9054 37.4754Z" fill="url(#paint0_radial)"/>
<path d="M83.0762 32.5837C83.0762 32.5837 84.154 45.5177 73.2928 49.5803V51.1556C73.2928 51.1556 73.6244 54.3062 62.5144 54.0574C54.4721 53.8087 54.4721 51.1556 54.4721 51.1556V49.5803C43.6938 45.5177 44.6887 32.5837 44.6887 32.5837L69.5618 32.4178L77.7699 32.6666L83.0762 32.5837Z" fill="url(#paint1_radial)"/>
<path d="M83.0762 33.0812C83.0762 36.3977 74.3706 39.2166 63.841 39.2166C53.2285 39.2166 44.6887 36.5635 44.6887 33.1641C44.6887 29.8477 53.3114 27.1117 63.841 27.1117C74.4535 27.1946 83.0762 29.7648 83.0762 33.0812Z" fill="url(#paint2_linear)"/>
<path d="M81.9983 33.1641C81.9983 36.3146 73.8731 38.8849 63.841 38.8849C53.8088 38.8849 45.6836 36.3146 45.6836 33.1641C45.6836 30.0135 53.8088 27.4432 63.841 27.4432C73.8731 27.4432 81.9983 30.0135 81.9983 33.1641Z" fill="url(#paint3_linear)"/>
<path d="M77.0238 47.5075C75.4485 48.5025 73.3757 49.0828 71.0542 49.4974C68.7328 49.9119 66.2454 50.0778 63.5923 50.0778C60.9392 50.0778 58.369 49.829 56.1304 49.4145C53.8918 48.9999 51.819 48.3366 50.3267 47.1759C51.4045 48.7512 53.4773 49.9119 55.7987 50.6581C58.1202 51.4043 60.8563 51.8189 63.5923 51.8189C66.4113 51.8189 69.0644 51.4872 71.3859 50.7411C73.7903 50.0778 75.863 48.917 77.0238 47.5075Z" fill="#929292"/>
<path d="M63.841 38.8849C71.3859 38.8849 78.3504 37.4754 81.0864 34.9881C78.3504 32.0033 71.3859 30.2622 63.841 30.2622C56.2962 30.2622 49.3317 32.0033 46.5957 34.9881C49.3317 37.4754 56.2962 38.8849 63.841 38.8849Z" fill="#9E6410"/>
<path d="M63.8409 38.8849C71.3857 38.8849 77.9357 37.3925 80.5888 35.4026C77.8528 32.9153 71.3857 31.1742 63.8409 31.1742C56.2961 31.1742 49.7461 32.9153 47.093 35.4026C49.7461 37.3925 56.2961 38.8849 63.8409 38.8849Z" fill="url(#paint4_linear)"/>
<path d="M50.0779 35.5685C53.8088 34.8223 58.7835 34.4077 64.2555 34.4077C64.9188 34.4077 65.5821 34.4077 66.2454 34.4077C66.9087 34.4077 67.572 34.4077 68.2352 34.4077C68.8985 34.4077 69.4789 34.4906 70.1422 34.5735C70.8055 34.5735 71.3858 34.6565 71.9662 34.7394C74.3706 34.9881 76.5263 35.4026 78.1845 36.2317C76.6921 34.9881 74.5364 34.0761 72.132 33.5786C71.5517 33.4128 70.8884 33.3299 70.308 33.247C69.6447 33.1641 68.9814 32.9982 68.3182 32.9982C67.6549 32.9982 66.9916 32.9153 66.3283 32.8324C65.665 32.7495 64.9188 32.7495 64.2555 32.7495C58.6176 32.7495 53.4772 33.8273 50.0779 35.5685Z" fill="#99713D"/>
<path d="M65.0847 19.4839C64.0069 19.8984 62.6803 20.7275 61.9341 22.3028C61.5196 23.049 61.3538 24.1269 61.5196 25.1218C61.5196 25.3705 61.6025 25.6193 61.6854 25.868C61.7683 26.1167 61.8512 26.3654 62.0171 26.6142L62.3487 27.2775L62.5974 27.692C63.3436 28.9357 63.6753 30.0135 63.4265 31.0913C63.2607 32.2521 62.5145 33.3299 61.6854 34.2419C62.8462 34.0761 64.3385 33.4128 65.2506 31.8375C65.6651 31.0913 65.9138 30.0135 65.8309 29.1015C65.748 28.1066 65.4164 27.1945 64.9189 26.3654C64.6702 26.0338 64.5044 25.7022 64.2556 25.3705C64.1727 25.2876 64.0898 25.1218 64.0069 25.0389C63.924 24.956 63.8411 24.7901 63.8411 24.7072C63.6753 24.2098 63.5924 23.6294 63.6753 23.049C63.924 21.7225 64.5044 20.4788 65.0847 19.4839Z" fill="#F1E3D1"/>
<path d="M65.9967 56.4619L34.6566 75.3654L14.012 65.0016L15.0898 62.4314L45.9324 50.824L64.9189 54.3062L65.9967 56.4619Z" fill="url(#paint5_linear)"/>
<path d="M64.9187 54.3892L34.0761 71.3029L15.0896 62.3486L45.9322 49.6633L64.9187 54.3892Z" fill="url(#paint6_linear)"/>
<path d="M19.2352 64.753C19.0693 64.753 18.9035 64.6701 18.8206 64.5042C18.7377 64.2555 18.8206 64.0897 18.9864 63.9239L48.8342 50.4095C49 50.3266 49.2487 50.4095 49.4145 50.5753C49.4974 50.824 49.4145 50.9899 49.2487 51.1557L19.401 64.6701C19.401 64.753 19.3181 64.753 19.2352 64.753Z" fill="#5C150B"/>
<path d="M24.0441 67.0744C23.8783 67.0744 23.7125 66.9915 23.7125 66.8257C23.6295 66.6599 23.7125 66.4111 23.8783 66.2453L53.3114 51.736C53.4773 51.6531 53.726 51.736 53.8918 51.9018C53.9747 52.0677 53.8918 52.3164 53.726 52.4822L24.2099 67.0744C24.2099 67.0744 24.127 67.0744 24.0441 67.0744Z" fill="#5C150B"/>
<path d="M29.1015 69.5617C28.9356 69.5617 28.7698 69.4788 28.7698 69.313C28.6869 69.1472 28.7698 68.8984 28.9357 68.7326L59.1979 53.0626C59.3637 52.9796 59.6125 53.0626 59.7783 53.2284C59.8612 53.3942 59.7783 53.6429 59.6125 53.8087L29.2673 69.4788C29.2673 69.5617 29.1844 69.5617 29.1015 69.5617Z" fill="#5C150B"/>
<path d="M39.1336 68.8156C39.0507 68.8156 39.0507 68.8156 38.9677 68.8156L20.6446 60.8562C20.3958 60.7733 20.3129 60.5245 20.3958 60.2758C20.4787 60.0271 20.7275 59.9442 20.9762 60.0271L39.2994 67.9865C39.5481 68.0694 39.631 68.3181 39.5481 68.5668C39.4652 68.7326 39.2994 68.8156 39.1336 68.8156Z" fill="#5C150B"/>
<path d="M44.4398 65.9137C44.3569 65.9137 44.3569 65.9137 44.274 65.9137L26.0337 58.6176C25.8679 58.5347 25.7021 58.286 25.785 58.1201C25.8679 57.9543 26.1166 57.7885 26.2825 57.8714L44.5227 65.1675C44.6885 65.2504 44.8544 65.4992 44.7715 65.665C44.6885 65.8308 44.6056 65.9137 44.4398 65.9137Z" fill="#5C150B"/>
<path d="M49.746 62.9289C49.746 62.9289 49.6631 62.9289 49.5802 62.9289L31.4228 56.379C31.257 56.2961 31.1741 56.1303 31.1741 55.8815C31.257 55.7157 31.4228 55.6328 31.6715 55.6328L49.8289 62.1827C49.9947 62.2656 50.0776 62.4315 50.0776 62.6802C49.9947 62.846 49.8289 62.9289 49.746 62.9289Z" fill="#5C150B"/>
<path d="M54.9694 60.027H54.8865L36.895 54.1403C36.7291 54.0574 36.6462 53.8916 36.6462 53.7258C36.7292 53.56 36.895 53.4771 37.0608 53.4771L55.0523 59.3637C55.2181 59.4466 55.3011 59.6124 55.3011 59.7782C55.3011 59.9441 55.1352 60.027 54.9694 60.027Z" fill="#5C150B"/>
<path d="M60.2757 57.1252H60.1928L42.2841 51.9018C42.1183 51.8189 42.0354 51.6531 42.0354 51.4873C42.1183 51.3214 42.2841 51.2385 42.45 51.2385L60.3586 56.4619C60.5244 56.5448 60.6073 56.7106 60.6073 56.8764C60.5244 57.0423 60.4415 57.1252 60.2757 57.1252Z" fill="#5C150B"/>
<path d="M65.4163 58.9492C61.934 58.9492 59.198 62.7631 59.198 67.489C59.198 67.7377 59.198 67.9864 59.198 68.1523C60.8562 68.8155 62.7631 69.2301 64.8359 69.2301C67.4061 69.2301 69.8105 68.6497 71.6345 67.6548C71.6345 67.5719 71.6345 67.5719 71.6345 67.489C71.7175 62.846 68.8985 58.9492 65.4163 58.9492Z" fill="url(#paint7_radial)"/>
<path d="M65.2504 63.0947C63.3434 63.0947 61.6852 62.5972 60.8561 61.851C60.7732 61.7681 60.7732 61.6023 60.8561 61.5194C60.939 61.4365 61.1049 61.4365 61.1878 61.5194C61.8511 62.1827 63.5093 62.5972 65.2504 62.5972C67.4889 62.5972 69.0642 61.934 69.4788 61.3536C69.5617 61.2707 69.7275 61.1878 69.8104 61.2707C69.8933 61.3536 69.9763 61.5194 69.8934 61.6023C69.313 62.5143 67.4889 63.0947 65.2504 63.0947Z" fill="#53160C"/>
<path d="M65.3333 65.4163C62.9289 65.4163 60.8561 64.9188 59.8612 64.0897C59.6954 64.0068 59.6954 63.7581 59.8612 63.6751C59.9441 63.5093 60.1928 63.5093 60.2757 63.6751C61.1877 64.4213 63.1776 64.9188 65.3333 64.9188C68.0693 64.9188 70.1421 64.1726 70.6395 63.5093C70.7224 63.3435 70.9712 63.3435 71.0541 63.4264C71.2199 63.5093 71.2199 63.7581 71.137 63.841C70.3908 64.753 67.9864 65.4163 65.3333 65.4163Z" fill="#53160C"/>
<path d="M65.2505 62.6801C63.4265 62.6801 61.6854 62.2656 60.9392 61.5194C60.9392 61.5194 60.9392 61.4365 60.9392 61.3536C60.9392 61.3536 61.0221 61.3536 61.105 61.3536C61.8512 62.0169 63.5094 62.4314 65.2505 62.4314C67.2404 62.4314 69.0644 61.851 69.6448 61.1048C69.6448 61.1048 69.7277 61.0219 69.7277 61.1048C69.7277 61.1048 69.8106 61.1878 69.7277 61.2707C69.2302 62.0998 67.4062 62.6801 65.2505 62.6801Z" fill="#BC6D36"/>
<path d="M65.3335 65.0017C63.012 65.0017 60.9392 64.5043 59.9443 63.6752C59.9443 63.6752 59.8614 63.5922 59.9443 63.5093C59.9443 63.5093 60.0272 63.4264 60.1101 63.5093C61.0222 64.2555 63.0949 64.753 65.3335 64.753C67.9037 64.753 70.1423 64.0897 70.8056 63.2606C70.8056 63.2606 70.8885 63.1777 70.9714 63.2606C70.9714 63.2606 71.0543 63.3435 70.9714 63.4264C70.2252 64.3384 67.9866 65.0017 65.3335 65.0017Z" fill="#BC6D36"/>
<path d="M72.2979 65.3334C68.4011 65.3334 65.2505 69.6447 65.2505 75.0339C65.2505 75.2826 65.2505 75.5313 65.2505 75.863C67.0745 76.6092 69.3131 77.0237 71.6346 77.0237C74.5365 77.0237 77.1896 76.3604 79.2623 75.2826C79.2623 75.1997 79.2623 75.1168 79.2623 75.0339C79.3452 69.7276 76.1947 65.3334 72.2979 65.3334Z" fill="url(#paint8_radial)"/>
<path d="M72.1321 69.9763C69.9765 69.9763 68.0695 69.4789 67.1575 68.6498C67.0746 68.5668 66.9917 68.3181 67.1575 68.2352C67.2404 68.1523 67.4891 68.0694 67.5721 68.2352C68.4012 68.9814 70.1423 69.4789 72.1321 69.4789C74.6194 69.4789 76.4435 68.7327 76.9409 68.0694C77.0238 67.9036 77.1897 67.9036 77.3555 67.9865C77.5213 68.0694 77.5213 68.2352 77.4384 68.401C76.6922 69.313 74.5365 69.9763 72.1321 69.9763Z" fill="#53160C"/>
<path d="M72.132 72.6295C69.4789 72.6295 67.0745 72.0492 65.9137 71.1372C65.7479 71.0542 65.7479 70.8055 65.8308 70.6397C65.9137 70.4739 66.1625 70.4739 66.3283 70.5568C67.3232 71.3859 69.5618 71.8833 72.0491 71.8833C75.1997 71.8833 77.4383 71.0542 78.0186 70.2251C78.1015 70.0593 78.3503 70.0593 78.5161 70.1422C78.6819 70.2251 78.6819 70.4739 78.599 70.6397C77.8528 71.8833 75.1997 72.6295 72.132 72.6295Z" fill="#53160C"/>
<path d="M72.132 69.5618C70.0593 69.5618 68.1523 69.0644 67.3232 68.2353C67.3232 68.2353 67.2403 68.1524 67.3232 68.0695C67.3232 67.9865 67.4061 67.9865 67.4891 68.0695C68.3182 68.8156 70.1422 69.3131 72.2149 69.3131C74.5364 69.3131 76.5263 68.6498 77.1896 67.8207C77.1896 67.7378 77.2725 67.7378 77.3554 67.8207C77.4383 67.8207 77.4383 67.9036 77.3554 67.9865C76.5263 68.8986 74.5364 69.5618 72.132 69.5618Z" fill="#BC6D36"/>
<path d="M72.132 72.215C69.5618 72.215 67.1574 71.6346 66.0795 70.7226C65.9966 70.7226 65.9966 70.6397 66.0795 70.5568C66.0795 70.4739 66.1624 70.4739 66.2453 70.5568C67.2403 71.3859 69.5618 71.9663 72.132 71.9663C75.0338 71.9663 77.5211 71.2201 78.3502 70.2251C78.3502 70.1422 78.4332 70.1422 78.5161 70.2251C78.599 70.2251 78.599 70.3081 78.5161 70.391C77.687 71.4688 75.1167 72.215 72.132 72.215Z" fill="#BC6D36"/>
<path d="M39.714 42.8647C40.4602 41.9527 38.7191 38.2217 29.6818 35.9002C27.8578 34.8224 25.4534 34.0762 23.1319 34.0762C21.7225 34.0762 20.4788 34.4078 19.5668 34.9053C17.6598 34.4907 15.4213 34.4907 13.5972 35.154C11.6903 35.8173 10.4466 37.0609 9.94918 38.4704C8.53971 38.8021 7.21314 39.4653 6.21822 40.5432C4.64292 42.2014 4.31128 44.5229 4.97457 46.4298C2.98472 55.467 10.0321 59.2809 12.1878 59.4467C16.3333 59.7784 16.4162 55.9645 16.4991 50.7411C17.6598 50.2437 18.5719 49.5804 19.2351 48.7513C19.7326 48.1709 19.9813 47.5076 20.1472 46.7615C20.2301 46.6785 20.313 46.6785 20.3959 46.5956C21.7225 46.5956 22.8003 46.3469 23.7952 45.9324C24.7901 45.5178 25.4534 44.8545 25.9509 44.0254C26.1996 43.9425 26.3654 43.9425 26.6142 43.8596C27.2774 43.9425 27.8578 44.0254 28.4382 43.9425C29.3502 43.8596 30.1793 43.6938 30.8426 43.3621C36.5634 42.6159 39.0507 44.1083 39.714 42.8647Z" fill="url(#paint9_linear)"/>
<path d="M8.53968 54.8867C8.45677 53.8918 8.29094 52.731 8.20803 51.4874C8.12512 50.907 8.12512 50.2437 8.12512 49.5804C8.12512 49.2488 8.12512 48.9171 8.12512 48.5855C8.12512 48.4197 8.20803 48.2539 8.20803 48.088C8.20803 48.0051 8.20803 47.9222 8.29095 47.8393L8.37386 47.4247C8.29095 47.3418 8.20803 47.2589 8.12512 47.0931L8.04221 46.8444C7.54475 45.5178 7.29602 44.1083 7.54475 42.9476C7.71057 42.3672 7.9593 41.7868 8.29095 41.3723C8.45677 41.1236 8.7055 40.9577 8.87132 40.709C9.12005 40.5432 9.28587 40.3774 9.5346 40.2115C9.28587 40.2945 9.03714 40.4603 8.78841 40.5432C8.53968 40.709 8.29095 40.8748 8.04221 41.0407C7.54475 41.4552 7.1302 42.0356 6.88147 42.6989C6.38401 44.1083 6.54983 45.7665 7.1302 47.2589C7.1302 47.3418 7.21311 47.4247 7.21311 47.5077C7.21311 47.5906 7.21311 47.5077 7.21311 47.5906V47.6735C7.21311 47.7564 7.1302 47.9222 7.1302 48.0051C7.1302 48.1709 7.04729 48.4197 7.04729 48.5855C7.04729 49 7.04729 49.3317 7.04729 49.6633C7.1302 50.4095 7.21311 51.0728 7.37893 51.6532C7.71057 52.8968 8.12512 53.9747 8.53968 54.8867Z" fill="#FBB800"/>
<path d="M17.494 35.8173C17.494 35.8173 17.0795 35.8173 16.4991 35.9002C15.9187 35.9002 15.1725 36.066 14.3434 36.2318C14.0118 36.3976 13.5972 36.4805 13.2656 36.7293C12.9339 36.978 12.6023 37.1438 12.3536 37.3926C12.2707 37.4755 12.1048 37.6413 12.0219 37.7242C11.939 37.8071 11.8561 37.9729 11.7732 38.0558C11.6074 38.2217 11.6074 38.3046 11.6074 38.3875C11.5245 38.6362 11.7732 38.8849 12.1048 38.9679C12.4365 38.9679 12.6852 38.9679 12.7681 38.8849C12.7681 38.8849 12.7681 38.802 12.851 38.7191C12.851 38.6362 12.9339 38.5533 12.9339 38.4704C13.0169 38.3875 13.0169 38.3046 13.0998 38.2217C13.1827 37.9729 13.4314 37.8071 13.6801 37.5584C13.9289 37.3096 14.2605 37.1438 14.5092 36.978C15.1725 36.6464 15.8358 36.3976 16.4162 36.2318C17.1624 35.9831 17.494 35.8173 17.494 35.8173Z" fill="#FBB800"/>
<path d="M27.775 36.1489C27.775 36.1489 27.5262 35.9831 27.1946 35.6514C26.78 35.4027 26.2826 35.0711 25.6193 34.9052C24.956 34.7394 24.2927 34.7394 23.7124 34.9052C23.4636 34.9882 23.2149 35.0711 23.0491 35.154C22.8833 35.2369 22.8003 35.3198 22.8003 35.3198C22.6345 35.4027 22.7174 35.7344 22.8833 35.9002C23.0491 36.066 23.2978 36.1489 23.3807 36.1489C23.3807 36.1489 23.5465 35.9831 23.9611 35.8173C24.2927 35.6514 24.8731 35.4856 25.4535 35.5685C26.0338 35.6514 26.6142 35.8173 27.0288 35.9831C27.5262 35.9831 27.775 36.1489 27.775 36.1489Z" fill="#FBB800"/>
<path d="M5.05737 46.4298C6.79849 46.0153 9.11998 45.8494 11.4415 46.7615C12.6022 47.2589 13.5142 47.9222 14.4262 48.5855C14.8408 49 15.2553 49.3317 15.587 49.6633C15.9186 49.995 16.2503 50.4095 16.5819 50.6582C16.4161 50.2437 16.1674 49.8291 15.9186 49.4146C15.6699 49 15.2553 48.5855 14.9237 48.088C14.0946 47.2589 13.0997 46.4298 11.856 45.8494C10.6124 45.352 9.2858 45.1862 8.12506 45.352C6.79849 45.6007 5.80357 45.9323 5.05737 46.4298Z" fill="#864010"/>
<path d="M9.94922 38.4704C10.9441 38.3875 12.022 38.4704 13.1827 38.8021C14.3435 39.1337 15.5042 39.7141 16.4991 40.6261C17.4941 41.5381 18.1573 42.6988 18.8206 43.6938C19.0694 44.2741 19.401 44.7716 19.5668 45.2691C19.7326 45.7665 19.9814 46.264 20.1472 46.7615C20.0643 46.264 19.9814 45.7665 19.8985 45.1862C19.8155 44.6058 19.5668 44.0254 19.401 43.445C18.9035 42.2843 18.2403 40.9577 17.1624 39.9628C16.0846 38.9679 14.6751 38.3046 13.3485 38.1388C12.1049 37.973 10.8612 38.1388 9.94922 38.4704Z" fill="#864010"/>
<path d="M19.5669 34.9053C20.396 35.0711 21.2251 35.4028 22.1371 35.9832C22.9662 36.5635 23.7124 37.3097 24.2928 38.3046C25.4535 40.2945 25.7023 42.4502 25.951 44.1084C26.0339 43.6938 26.0339 43.2793 26.1168 42.7818C26.1997 42.2843 26.1168 41.7869 26.1168 41.2065C26.0339 40.1287 25.7852 38.9679 25.1219 37.8072C24.4586 36.7293 23.5466 35.8173 22.5517 35.4028C21.3909 34.9053 20.396 34.7395 19.5669 34.9053Z" fill="#864010"/>
<path d="M30.0134 36.3977C30.3451 37.4755 30.7596 38.7192 31.0084 39.9628C31.1742 40.5432 31.1742 41.1236 31.1742 41.704C31.1742 42.0356 31.0913 42.2843 31.0913 42.5331C31.0084 42.7818 31.0084 43.1134 30.9254 43.3622C31.1742 43.1963 31.4229 43.1134 31.6716 42.8647C31.9204 42.616 32.1691 42.3672 32.3349 42.0356C32.6666 41.3723 32.8324 40.4603 32.6666 39.6312C32.5007 38.8021 32.0862 38.0559 31.5887 37.5584C31.0913 36.9781 30.5109 36.6464 30.0134 36.3977Z" fill="#864010"/>
<path d="M31.1743 36.978C31.1743 37.0609 31.0085 37.2268 30.9256 37.1439C30.8427 37.1439 30.7598 36.978 30.7598 36.8951C30.7598 36.7293 30.9256 36.6464 31.0085 36.7293C31.0914 36.7293 31.1743 36.8122 31.1743 36.978Z" fill="white"/>
<path d="M29.1014 36.5635C29.1014 36.8122 28.8527 36.978 28.6869 36.8951C28.4381 36.8951 28.3552 36.6464 28.3552 36.3976C28.3552 36.1489 28.604 35.9831 28.7698 36.066C28.9356 36.1489 29.1014 36.3976 29.1014 36.5635Z" fill="white"/>
<path d="M25.951 36.1489C25.951 36.3147 25.7852 36.3976 25.6193 36.3976C25.4535 36.3976 25.3706 36.2318 25.3706 36.066C25.3706 35.9002 25.5364 35.8173 25.7022 35.8173C25.8681 35.9002 26.0339 35.9831 25.951 36.1489Z" fill="white"/>
<path d="M21.5568 38.8021C21.5568 38.9679 21.4739 39.0508 21.3081 39.0508C21.1422 39.0508 21.0593 38.9679 21.0593 38.8021C21.0593 38.6363 21.1422 38.5533 21.3081 38.5533C21.391 38.5533 21.5568 38.6363 21.5568 38.8021Z" fill="white"/>
<path d="M17.4112 38.2217C17.4941 38.4704 17.3283 38.8021 16.9966 38.885C16.7479 38.9679 16.4162 38.8021 16.3333 38.4704C16.2504 38.2217 16.4162 37.89 16.665 37.8071C17.0795 37.7242 17.4112 37.89 17.4112 38.2217Z" fill="white"/>
<path d="M18.5718 37.5584C18.6547 37.7242 18.4889 37.8901 18.3231 37.973C18.1573 38.0559 17.9915 37.8901 17.9915 37.7242C17.9915 37.5584 18.0744 37.3926 18.2402 37.3097C18.406 37.3097 18.5718 37.3926 18.5718 37.5584Z" fill="white"/>
<path d="M14.0118 39.6312C14.0947 39.797 14.0947 40.0457 13.9289 40.1286C13.7631 40.2116 13.5972 40.2116 13.4314 40.0457C13.3485 39.8799 13.3485 39.6312 13.5143 39.5483C13.6801 39.3825 13.846 39.4654 14.0118 39.6312Z" fill="white"/>
<path d="M12.5195 42.2013C12.7682 42.3672 12.7682 42.7817 12.6024 42.9475C12.4366 43.1963 12.1049 43.1963 11.8562 43.0304C11.6075 42.8646 11.6075 42.4501 11.7733 42.2842C11.9391 42.0355 12.2707 41.9526 12.5195 42.2013Z" fill="white"/>
<path d="M10.8613 44.1083C11.0271 44.2741 11.0271 44.5228 10.8613 44.6886C10.6955 44.8544 10.4468 44.8544 10.3639 44.6886C10.198 44.5228 10.198 44.2741 10.3639 44.1083C10.4468 43.9424 10.6955 43.9424 10.8613 44.1083Z" fill="white"/>
<path d="M8.62267 46.264C8.70558 46.264 8.78849 46.4298 8.70558 46.5127C8.62267 46.5956 8.53976 46.6785 8.45685 46.5956C8.37394 46.5127 8.29103 46.4298 8.37394 46.3469C8.37394 46.264 8.53976 46.181 8.62267 46.264Z" fill="white"/>
<path d="M8.95425 48.9172C9.03716 48.8342 9.20298 48.9172 9.20298 49.0001C9.28589 49.083 9.20298 49.2488 9.12007 49.2488C9.03716 49.3317 8.87134 49.2488 8.87134 49.1659C8.87134 49.083 8.87134 48.9172 8.95425 48.9172Z" fill="white"/>
<path d="M10.3639 51.8189C10.5297 51.736 10.6955 51.8189 10.6955 51.9847C10.7784 52.1505 10.6955 52.3164 10.5297 52.3164C10.3639 52.3993 10.1981 52.3164 10.1981 52.1505C10.1151 51.9847 10.1981 51.8189 10.3639 51.8189Z" fill="white"/>
<path d="M20.0644 36.9781C20.0644 37.2268 19.8985 37.4755 19.6498 37.4755C19.4011 37.4755 19.2353 37.3097 19.1523 37.061C19.1523 36.8122 19.3182 36.5635 19.5669 36.5635C19.8985 36.4806 20.0644 36.7293 20.0644 36.9781Z" fill="white"/>
<path d="M20.9765 37.3097C20.9765 37.4755 20.8936 37.5584 20.8106 37.6413C20.6448 37.6413 20.5619 37.5584 20.479 37.4755C20.479 37.3097 20.5619 37.2268 20.6448 37.1439C20.8106 37.0609 20.9765 37.1439 20.9765 37.3097Z" fill="white"/>
<path d="M18.0744 36.2318C18.1573 36.4806 17.9915 36.8122 17.6598 36.8951C17.4111 36.978 17.0795 36.8122 17.0795 36.4806C16.9966 36.2318 17.1624 35.9002 17.494 35.8173C17.7428 35.7344 17.9915 35.9002 18.0744 36.2318Z" fill="white"/>
<path d="M16.6649 36.8951C16.6649 37.0609 16.582 37.2267 16.4991 37.2267C16.3333 37.2267 16.2504 37.1438 16.1675 37.0609C16.1675 36.8951 16.2504 36.7292 16.3333 36.7292C16.4991 36.7292 16.6649 36.8122 16.6649 36.8951Z" fill="white"/>
<path d="M12.7683 39.2995C12.8512 39.4653 12.7683 39.714 12.6025 39.7969C12.4367 39.8798 12.1879 39.7969 12.105 39.6311C12.0221 39.4653 12.105 39.2165 12.2709 39.1336C12.4367 38.9678 12.6854 39.0507 12.7683 39.2995Z" fill="white"/>
<path d="M9.94926 41.4551C10.198 41.621 10.198 41.9526 10.0322 42.1184C9.86635 42.3671 9.53471 42.3671 9.36889 42.2013C9.12016 42.0355 9.12016 41.7039 9.28598 41.538C9.4518 41.3722 9.70053 41.2893 9.94926 41.4551Z" fill="white"/>
<path d="M8.87143 43.6938C9.12016 43.8596 9.12016 44.1912 8.95434 44.44C8.78852 44.6887 8.45688 44.7716 8.20814 44.5229C7.95941 44.357 7.8765 44.0254 8.04232 43.7767C8.29106 43.5279 8.6227 43.445 8.87143 43.6938Z" fill="white"/>
<path d="M7.79359 47.7563C8.04233 47.5905 8.29106 47.6734 8.45688 47.9221C8.6227 48.1709 8.53979 48.4196 8.29106 48.5854C8.04233 48.7512 7.79359 48.6683 7.62777 48.4196C7.46195 48.2538 7.54486 47.9221 7.79359 47.7563Z" fill="white"/>
<path d="M10.1152 47.4247C10.1981 47.3418 10.3639 47.4247 10.4468 47.5076C10.5297 47.5905 10.4468 47.7564 10.3639 47.8393C10.281 47.9222 10.1152 47.8393 10.0322 47.7564C9.94933 47.5905 9.94933 47.5076 10.1152 47.4247Z" fill="white"/>
<path d="M11.7734 45.6007C11.5246 45.5177 11.3588 45.269 11.4417 44.9374C11.5246 44.6886 11.7734 44.5228 12.105 44.5228C12.3537 44.6057 12.5196 44.8545 12.5196 45.1861C12.3537 45.5177 12.0221 45.6836 11.7734 45.6007Z" fill="white"/>
<path d="M14.1778 43.9425C14.0948 43.8596 14.0948 43.6938 14.2607 43.6109C14.3436 43.5279 14.5094 43.5279 14.5923 43.6938C14.6752 43.7767 14.6752 43.9425 14.5094 44.0254C14.3436 44.1083 14.1778 44.1083 14.1778 43.9425Z" fill="white"/>
<path d="M12.6023 41.4551C12.5194 41.2893 12.5194 41.0406 12.6852 40.9577C12.851 40.8747 13.0998 40.8747 13.1827 41.0406C13.2656 41.2064 13.2656 41.4551 13.0998 41.538C12.934 41.7038 12.7681 41.6209 12.6023 41.4551Z" fill="white"/>
<path d="M10.8612 41.2065C10.6954 40.9578 10.7783 40.6261 11.027 40.4603C11.2757 40.2945 11.6074 40.3774 11.7732 40.6261C11.939 40.8748 11.8561 41.2065 11.6074 41.3723C11.3586 41.5381 11.027 41.4552 10.8612 41.2065Z" fill="white"/>
<path d="M18.2403 40.2945C18.1574 40.1286 18.2403 39.9628 18.4061 39.9628C18.5719 39.8799 18.6548 39.9628 18.7378 40.1286C18.8207 40.2945 18.7378 40.4603 18.5719 40.4603C18.4061 40.5432 18.2403 40.4603 18.2403 40.2945Z" fill="white"/>
<path d="M19.2352 40.2945C19.1523 39.9628 19.3181 39.7141 19.5668 39.6312C19.8156 39.5483 20.1472 39.7141 20.2301 39.9628C20.313 40.2945 20.1472 40.5432 19.8985 40.709C19.6497 40.709 19.3181 40.5432 19.2352 40.2945Z" fill="white"/>
<path d="M21.6396 40.6261C21.6396 40.5431 21.6396 40.3773 21.8055 40.3773C21.8884 40.3773 22.0542 40.3773 22.0542 40.5431C22.0542 40.6261 22.0542 40.7919 21.8884 40.7919C21.8055 40.7919 21.6396 40.7919 21.6396 40.6261Z" fill="white"/>
<path d="M27.1118 38.2216C27.1118 38.0558 27.1947 37.9729 27.3605 37.9729C27.5264 37.9729 27.6093 38.0558 27.6093 38.2216C27.6093 38.3875 27.5264 38.4704 27.3605 38.4704C27.2776 38.4704 27.1118 38.3045 27.1118 38.2216Z" fill="white"/>
<path d="M26.5312 37.4755C26.5312 37.2267 26.6971 37.0609 26.9458 37.0609C27.1945 37.0609 27.3604 37.2267 27.3604 37.4755C27.3604 37.7242 27.1945 37.89 26.9458 37.89C26.78 37.89 26.5312 37.7242 26.5312 37.4755Z" fill="white"/>
<path d="M25.3706 37.6413C25.3706 37.4755 25.4535 37.3926 25.6193 37.3926C25.7852 37.3926 25.8681 37.4755 25.8681 37.6413C25.8681 37.8071 25.7852 37.89 25.6193 37.89C25.4535 37.89 25.3706 37.8071 25.3706 37.6413Z" fill="white"/>
<path d="M26.2827 39.7141C26.2827 39.5483 26.3656 39.3824 26.5314 39.3824C26.6973 39.3824 26.7802 39.4654 26.8631 39.6312C26.8631 39.797 26.7802 39.9628 26.6144 39.9628C26.3656 40.0457 26.2827 39.8799 26.2827 39.7141Z" fill="white"/>
<path d="M28.1067 39.1337C28.1067 38.885 28.2725 38.6362 28.5212 38.6362C28.77 38.6362 28.9358 38.8021 29.0187 39.0508C29.0187 39.2995 28.8529 39.5482 28.6041 39.5482C28.3554 39.5482 28.1067 39.3824 28.1067 39.1337Z" fill="white"/>
<path d="M31.1744 40.2945C31.2573 40.0457 31.589 39.9628 31.7548 40.0457C32.0035 40.1286 32.0864 40.4603 32.0035 40.709C31.9206 40.9577 31.589 41.0407 31.4231 40.9578C31.1744 40.7919 31.0915 40.5432 31.1744 40.2945Z" fill="white"/>
<path d="M33.8274 39.797C33.8274 39.9628 33.6616 40.1286 33.4129 40.0457C33.2471 40.0457 33.0812 39.8799 33.1641 39.6311C33.1641 39.4653 33.33 39.2995 33.5787 39.3824C33.7445 39.4653 33.8274 39.6311 33.8274 39.797Z" fill="white"/>
<path d="M33.4129 39.1337C33.4129 39.3824 33.1642 39.5482 32.9155 39.4653C32.6667 39.3824 32.5009 39.2166 32.5838 38.9678C32.6667 38.7191 32.8326 38.5533 33.0813 38.6362C33.33 38.7191 33.4129 38.8849 33.4129 39.1337Z" fill="white"/>
<path d="M30.594 39.9628C30.594 40.1286 30.4281 40.2115 30.2623 40.1286C30.0965 40.1286 30.0136 39.9628 30.0965 39.797C30.0965 39.6312 30.2623 39.5482 30.4281 39.6312C30.511 39.7141 30.594 39.797 30.594 39.9628Z" fill="white"/>
<path d="M26.2827 38.4704C26.2827 38.5533 26.1998 38.7191 26.1169 38.7191C26.034 38.7191 25.8682 38.6362 25.8682 38.5533C25.8682 38.4704 25.9511 38.3046 26.034 38.3046C26.1998 38.3046 26.2827 38.3875 26.2827 38.4704Z" fill="white"/>
<path d="M23.3807 38.3875C23.4636 38.7191 23.2978 38.9678 22.9662 39.0507C22.6345 39.1337 22.3858 38.9678 22.3029 38.6362C22.22 38.3046 22.3858 38.0558 22.7174 37.9729C22.9661 37.89 23.2978 38.0558 23.3807 38.3875Z" fill="white"/>
<path d="M22.2201 40.4602C22.303 40.709 22.1372 41.0406 21.8056 41.0406C21.5568 41.1235 21.3081 40.9577 21.2252 40.6261C21.1423 40.3773 21.3081 40.0457 21.5568 40.0457C21.8885 39.9628 22.1372 40.2115 22.2201 40.4602Z" fill="white"/>
<path d="M18.2404 39.1337C18.3233 39.2996 18.2404 39.4654 18.1575 39.4654C17.9917 39.5483 17.8258 39.4654 17.8258 39.3825C17.7429 39.2167 17.8258 39.0508 17.9088 39.0508C17.9917 38.885 18.1575 38.9679 18.2404 39.1337Z" fill="white"/>
<path d="M14.5922 42.1184C14.7581 42.2842 14.758 42.6159 14.5093 42.7817C14.3435 42.9475 14.0119 42.9475 13.846 42.6988C13.6802 42.45 13.6802 42.2013 13.9289 42.0355C14.0948 41.8697 14.4264 41.8697 14.5922 42.1184Z" fill="white"/>
<path d="M12.7681 44.0254C12.851 44.1083 12.851 44.2741 12.7681 44.357C12.6852 44.4399 12.5194 44.4399 12.4365 44.357C12.3535 44.2741 12.3535 44.1083 12.4365 44.0254C12.6023 43.8595 12.6852 43.8595 12.7681 44.0254Z" fill="white"/>
<path d="M9.61758 48.1709C9.86631 48.2538 9.94922 48.4196 9.94922 48.6683C9.86631 48.9171 9.70049 49.0829 9.45176 49C9.28594 48.9171 9.12012 48.6683 9.12012 48.5025C9.20303 48.2538 9.45176 48.0879 9.61758 48.1709Z" fill="white"/>
<path d="M9.45186 49.8292C9.53477 49.8292 9.61768 49.9121 9.61768 50.0779C9.61768 50.1608 9.53477 50.2437 9.36895 50.2437C9.28604 50.2437 9.20312 50.1608 9.20312 49.995C9.20312 49.8292 9.28603 49.7462 9.45186 49.8292Z" fill="white"/>
</g>
<path d="M17.6285 97.272C17.6285 98.1307 17.4925 98.912 17.2205 99.616C16.9485 100.32 16.5645 100.923 16.0685 101.424C15.5725 101.925 14.9752 102.315 14.2765 102.592C13.5832 102.864 12.8152 103 11.9725 103H7.6925V91.536H11.9725C12.8152 91.536 13.5832 91.6747 14.2765 91.952C14.9752 92.224 15.5725 92.6133 16.0685 93.12C16.5645 93.6213 16.9485 94.224 17.2205 94.928C17.4925 95.632 17.6285 96.4133 17.6285 97.272ZM16.0365 97.272C16.0365 96.568 15.9405 95.9387 15.7485 95.384C15.5565 94.8293 15.2845 94.36 14.9325 93.976C14.5805 93.592 14.1538 93.2987 13.6525 93.096C13.1512 92.8933 12.5912 92.792 11.9725 92.792H9.2445V101.744H11.9725C12.5912 101.744 13.1512 101.643 13.6525 101.44C14.1538 101.237 14.5805 100.947 14.9325 100.568C15.2845 100.184 15.5565 99.7147 15.7485 99.16C15.9405 98.6053 16.0365 97.976 16.0365 97.272ZM26.9604 101.736L26.9524 103H19.8884V91.536H26.9524V92.8H21.4404V96.608H25.9044V97.824H21.4404V101.736H26.9604ZM35.0108 93.328C34.9628 93.408 34.9094 93.4693 34.8508 93.512C34.7974 93.5493 34.7308 93.568 34.6508 93.568C34.5601 93.568 34.4534 93.5227 34.3308 93.432C34.2081 93.3413 34.0534 93.2427 33.8668 93.136C33.6854 93.024 33.4641 92.9227 33.2028 92.832C32.9468 92.7413 32.6348 92.696 32.2668 92.696C31.9201 92.696 31.6134 92.744 31.3468 92.84C31.0854 92.9307 30.8641 93.056 30.6828 93.216C30.5068 93.376 30.3734 93.5653 30.2828 93.784C30.1921 93.9973 30.1468 94.2293 30.1468 94.48C30.1468 94.8 30.2241 95.0667 30.3788 95.28C30.5388 95.488 30.7468 95.6667 31.0028 95.816C31.2641 95.9653 31.5574 96.096 31.8828 96.208C32.2134 96.3147 32.5494 96.4267 32.8908 96.544C33.2374 96.6613 33.5734 96.7947 33.8988 96.944C34.2294 97.088 34.5228 97.272 34.7788 97.496C35.0401 97.72 35.2481 97.9947 35.4028 98.32C35.5628 98.6453 35.6428 99.0453 35.6428 99.52C35.6428 100.021 35.5574 100.493 35.3868 100.936C35.2161 101.373 34.9654 101.755 34.6348 102.08C34.3094 102.405 33.9068 102.661 33.4268 102.848C32.9521 103.035 32.4108 103.128 31.8028 103.128C31.0561 103.128 30.3788 102.995 29.7708 102.728C29.1628 102.456 28.6428 102.091 28.2108 101.632L28.6588 100.896C28.7014 100.837 28.7521 100.789 28.8108 100.752C28.8748 100.709 28.9441 100.688 29.0188 100.688C29.0881 100.688 29.1654 100.717 29.2508 100.776C29.3414 100.829 29.4428 100.899 29.5548 100.984C29.6668 101.069 29.7948 101.163 29.9388 101.264C30.0828 101.365 30.2454 101.459 30.4268 101.544C30.6134 101.629 30.8241 101.701 31.0588 101.76C31.2934 101.813 31.5574 101.84 31.8508 101.84C32.2188 101.84 32.5468 101.789 32.8348 101.688C33.1228 101.587 33.3654 101.445 33.5628 101.264C33.7654 101.077 33.9201 100.856 34.0268 100.6C34.1334 100.344 34.1868 100.059 34.1868 99.744C34.1868 99.3973 34.1068 99.1147 33.9468 98.896C33.7921 98.672 33.5868 98.4853 33.3308 98.336C33.0748 98.1867 32.7814 98.0613 32.4508 97.96C32.1201 97.8533 31.7841 97.7467 31.4428 97.64C31.1014 97.528 30.7654 97.4 30.4348 97.256C30.1041 97.112 29.8108 96.9253 29.5548 96.696C29.2988 96.4667 29.0908 96.1813 28.9308 95.84C28.7761 95.4933 28.6988 95.0667 28.6988 94.56C28.6988 94.1547 28.7761 93.7627 28.9308 93.384C29.0908 93.0053 29.3201 92.6693 29.6188 92.376C29.9228 92.0827 30.2934 91.848 30.7308 91.672C31.1734 91.496 31.6801 91.408 32.2508 91.408C32.8908 91.408 33.4721 91.5093 33.9948 91.712C34.5228 91.9147 34.9868 92.208 35.3868 92.592L35.0108 93.328ZM43.7431 98.744L41.9431 94.08C41.8898 93.9413 41.8338 93.7813 41.7751 93.6C41.7165 93.4133 41.6605 93.216 41.6071 93.008C41.4951 93.44 41.3805 93.8 41.2631 94.088L39.4631 98.744H43.7431ZM46.9751 103H45.7751C45.6365 103 45.5245 102.965 45.4391 102.896C45.3538 102.827 45.2898 102.739 45.2471 102.632L44.1751 99.864H39.0311L37.9591 102.632C37.9271 102.728 37.8658 102.813 37.7751 102.888C37.6845 102.963 37.5725 103 37.4391 103H36.2391L40.8231 91.536H42.3911L46.9751 103ZM51.6863 98.432V103H50.1343V98.432L45.9343 91.536H47.2943C47.4329 91.536 47.5423 91.5707 47.6223 91.64C47.7023 91.704 47.7716 91.7893 47.8303 91.896L50.4543 96.352C50.5503 96.5387 50.6383 96.7147 50.7183 96.88C50.7983 97.04 50.8676 97.2027 50.9263 97.368C50.9849 97.2027 51.0516 97.04 51.1263 96.88C51.2009 96.7147 51.2836 96.5387 51.3743 96.352L53.9903 91.896C54.0383 91.8053 54.1049 91.7227 54.1903 91.648C54.2756 91.5733 54.3849 91.536 54.5183 91.536H55.8863L51.6863 98.432ZM61.8146 101.768C62.2893 101.768 62.7133 101.688 63.0866 101.528C63.46 101.368 63.7746 101.144 64.0306 100.856C64.292 100.568 64.4893 100.224 64.6226 99.824C64.7613 99.424 64.8306 98.984 64.8306 98.504V91.536H66.3746V98.504C66.3746 99.1653 66.268 99.7787 66.0546 100.344C65.8466 100.909 65.5453 101.4 65.1506 101.816C64.7613 102.227 64.284 102.549 63.7186 102.784C63.1533 103.019 62.5186 103.136 61.8146 103.136C61.1106 103.136 60.476 103.019 59.9106 102.784C59.3453 102.549 58.8653 102.227 58.4706 101.816C58.076 101.4 57.772 100.909 57.5586 100.344C57.3506 99.7787 57.2466 99.1653 57.2466 98.504V91.536H58.7906V98.496C58.7906 98.976 58.8573 99.416 58.9906 99.816C59.1293 100.216 59.3266 100.56 59.5826 100.848C59.844 101.136 60.1613 101.363 60.5346 101.528C60.9133 101.688 61.34 101.768 61.8146 101.768ZM78.4683 91.536V103H77.6923C77.5696 103 77.4656 102.979 77.3803 102.936C77.3003 102.893 77.2203 102.821 77.1403 102.72L70.5083 94.08C70.5189 94.2133 70.5269 94.344 70.5323 94.472C70.5376 94.6 70.5403 94.72 70.5403 94.832V103H69.1803V91.536H69.9803C70.0496 91.536 70.1083 91.5413 70.1563 91.552C70.2043 91.5573 70.2469 91.5707 70.2843 91.592C70.3216 91.608 70.3589 91.6347 70.3963 91.672C70.4336 91.704 70.4736 91.7467 70.5163 91.8L77.1483 100.432C77.1376 100.293 77.1269 100.16 77.1163 100.032C77.1109 99.8987 77.1083 99.7733 77.1083 99.656V91.536H78.4683ZM92.015 97.272C92.015 98.1307 91.879 98.92 91.607 99.64C91.335 100.355 90.951 100.971 90.455 101.488C89.959 102.005 89.3617 102.408 88.663 102.696C87.9697 102.979 87.2017 103.12 86.359 103.12C85.5163 103.12 84.7483 102.979 84.055 102.696C83.3617 102.408 82.767 102.005 82.271 101.488C81.775 100.971 81.391 100.355 81.119 99.64C80.847 98.92 80.711 98.1307 80.711 97.272C80.711 96.4133 80.847 95.6267 81.119 94.912C81.391 94.192 81.775 93.5733 82.271 93.056C82.767 92.5333 83.3617 92.128 84.055 91.84C84.7483 91.552 85.5163 91.408 86.359 91.408C87.2017 91.408 87.9697 91.552 88.663 91.84C89.3617 92.128 89.959 92.5333 90.455 93.056C90.951 93.5733 91.335 94.192 91.607 94.912C91.879 95.6267 92.015 96.4133 92.015 97.272ZM90.423 97.272C90.423 96.568 90.327 95.936 90.135 95.376C89.943 94.816 89.671 94.344 89.319 93.96C88.967 93.5707 88.5403 93.272 88.039 93.064C87.5377 92.856 86.9777 92.752 86.359 92.752C85.7457 92.752 85.1883 92.856 84.687 93.064C84.1857 93.272 83.7563 93.5707 83.399 93.96C83.047 94.344 82.775 94.816 82.583 95.376C82.391 95.936 82.295 96.568 82.295 97.272C82.295 97.976 82.391 98.608 82.583 99.168C82.775 99.7227 83.047 100.195 83.399 100.584C83.7563 100.968 84.1857 101.264 84.687 101.472C85.1883 101.675 85.7457 101.776 86.359 101.776C86.9777 101.776 87.5377 101.675 88.039 101.472C88.5403 101.264 88.967 100.968 89.319 100.584C89.671 100.195 89.943 99.7227 90.135 99.168C90.327 98.608 90.423 97.976 90.423 97.272Z" fill="black"/>
<defs>
<radialGradient id="paint0_radial" cx="0" cy="0" r="1" gradientUnits="userSpaceOnUse" gradientTransform="translate(82.4441 44.0481) scale(12.3782 10.3358)">
<stop stop-color="#6D6D6C"/>
<stop offset="0.1673" stop-color="#7B7B7A"/>
<stop offset="0.486" stop-color="#9C9C9B"/>
<stop offset="0.9196" stop-color="#CDCDCC"/>
<stop offset="1" stop-color="#D6D6D6"/>
</radialGradient>
<radialGradient id="paint1_radial" cx="0" cy="0" r="1" gradientUnits="userSpaceOnUse" gradientTransform="translate(53.8439 39.8672) scale(28.7773 24.0291)">
<stop stop-color="white"/>
<stop offset="0.1884" stop-color="#E8E8E7"/>
<stop offset="0.5709" stop-color="#BAB9B9"/>
<stop offset="0.8523" stop-color="#9A9A9A"/>
<stop offset="1" stop-color="#8E8E8D"/>
</radialGradient>
<linearGradient id="paint2_linear" x1="57.6866" y1="41.0844" x2="71.3429" y2="23.5097" gradientUnits="userSpaceOnUse">
<stop stop-color="white"/>
<stop offset="0.1843" stop-color="#F5F5F5"/>
<stop offset="0.5352" stop-color="#D9D9D9"/>
<stop offset="1" stop-color="#ABABAA"/>
</linearGradient>
<linearGradient id="paint3_linear" x1="63.6068" y1="26.753" x2="64.0827" y2="40.5578" gradientUnits="userSpaceOnUse">
<stop stop-color="#ACACAC"/>
<stop offset="0.2509" stop-color="#B8B8B7"/>
<stop offset="0.7265" stop-color="#D5D5D5"/>
<stop offset="1" stop-color="#E7E7E7"/>
</linearGradient>
<linearGradient id="paint4_linear" x1="63.8291" y1="31.7624" x2="63.8291" y2="39.7604" gradientUnits="userSpaceOnUse">
<stop offset="0.3335" stop-color="#572B09"/>
<stop offset="0.5478" stop-color="#64320F"/>
<stop offset="0.9973" stop-color="#82421A"/>
<stop offset="1" stop-color="#82421A"/>
</linearGradient>
<linearGradient id="paint5_linear" x1="24.7703" y1="68.9053" x2="65.3275" y2="53.7355" gradientUnits="userSpaceOnUse">
<stop stop-color="#5C150B"/>
<stop offset="0.0358697" stop-color="#61180D"/>
<stop offset="0.2094" stop-color="#742713"/>
<stop offset="0.3891" stop-color="#843317"/>
<stop offset="0.5756" stop-color="#903C1A"/>
<stop offset="0.7731" stop-color="#97431B"/>
<stop offset="1" stop-color="#99451C"/>
</linearGradient>
<linearGradient id="paint6_linear" x1="25.283" y1="65.9527" x2="64.1139" y2="51.4286" gradientUnits="userSpaceOnUse">
<stop stop-color="#99451C"/>
<stop offset="0.2269" stop-color="#97431B"/>
<stop offset="0.4244" stop-color="#903C1A"/>
<stop offset="0.6109" stop-color="#843317"/>
<stop offset="0.7906" stop-color="#742713"/>
<stop offset="0.9641" stop-color="#61180D"/>
<stop offset="1" stop-color="#5C150B"/>
</linearGradient>
<radialGradient id="paint7_radial" cx="0" cy="0" r="1" gradientUnits="userSpaceOnUse" gradientTransform="translate(63.9827 62.2628) scale(5.96399)">
<stop stop-color="#C85809"/>
<stop offset="0.1147" stop-color="#C5560B"/>
<stop offset="0.2146" stop-color="#BD500E"/>
<stop offset="0.3089" stop-color="#AF4713"/>
<stop offset="0.3992" stop-color="#9D3B16"/>
<stop offset="0.4624" stop-color="#8D3218"/>
<stop offset="0.5824" stop-color="#8A3018"/>
<stop offset="0.7072" stop-color="#822B16"/>
<stop offset="0.8342" stop-color="#752313"/>
<stop offset="0.962" stop-color="#62180D"/>
<stop offset="1" stop-color="#5C150B"/>
</radialGradient>
<radialGradient id="paint8_radial" cx="0" cy="0" r="1" gradientUnits="userSpaceOnUse" gradientTransform="translate(70.6543 69.0674) scale(6.72428)">
<stop stop-color="#C85809"/>
<stop offset="0.1147" stop-color="#C5560B"/>
<stop offset="0.2146" stop-color="#BD500E"/>
<stop offset="0.3089" stop-color="#AF4713"/>
<stop offset="0.3992" stop-color="#9D3B16"/>
<stop offset="0.4624" stop-color="#8D3218"/>
<stop offset="0.5824" stop-color="#8A3018"/>
<stop offset="0.7072" stop-color="#822B16"/>
<stop offset="0.8342" stop-color="#752313"/>
<stop offset="0.962" stop-color="#62180D"/>
<stop offset="1" stop-color="#5C150B"/>
</radialGradient>
<linearGradient id="paint9_linear" x1="23.4004" y1="48.8132" x2="15.4438" y2="33.545" gradientUnits="userSpaceOnUse">
<stop stop-color="#AC4C14"/>
<stop offset="0.1229" stop-color="#B45313"/>
<stop offset="1" stop-color="#F18D00"/>
</linearGradient>
<clipPath id="clip0">
<rect width="98" height="79.4281" fill="white"/>
</clipPath>
</defs>
</svg>
