<svg width="38" height="38" viewBox="0 0 38 38" fill="none" xmlns="http://www.w3.org/2000/svg">
<g filter="url(#filter0_d)">
<path d="M22.3632 28.0701C19.1021 28.0701 15.8409 26.8472 13.395 24.4013C8.50329 19.5096 8.50329 11.5605 13.395 6.66877C15.8409 4.22291 18.8983 3 22.3632 3C25.6244 3 28.8855 4.22291 31.3313 6.66877C36.2231 11.5605 36.2231 19.5096 31.3313 24.4013C28.8855 26.8472 25.6244 28.0701 22.3632 28.0701ZM22.3632 5.03822C19.5097 5.03822 16.86 6.05733 15.0256 8.09555C10.9491 12.172 10.9491 18.8981 15.0256 22.9745C17.0638 25.0127 19.7136 26.0319 22.3632 26.0319C25.2167 26.0319 27.8664 25.0127 29.7008 22.9745C33.7772 18.8981 33.7772 12.172 29.7008 8.09555C27.8664 6.05733 25.2167 5.03822 22.3632 5.03822Z" fill="#24241C"/>
<path d="M29.2927 16.6561C28.6812 16.6561 28.2736 16.2485 28.2736 15.637C28.2736 12.3758 25.624 9.72613 22.3628 9.72613C19.1017 9.72613 16.4519 12.3758 16.4519 15.637C16.4519 16.2485 16.0443 16.6561 15.4328 16.6561C14.8214 16.6561 14.4137 16.2485 14.4137 15.637C14.4137 11.1529 18.0825 7.48411 22.5666 7.48411C27.0507 7.48411 30.7195 11.1529 30.7195 15.637C30.3118 16.0446 29.9042 16.6561 29.2927 16.6561Z" fill="#24241C"/>
<path d="M6.87254 35.0001C5.85343 35.0001 4.83435 34.5925 4.22288 33.7772C3.40759 32.9619 3 31.9428 3 30.9237C3 29.9046 3.40759 28.8855 4.22288 28.274L9.5222 22.9746C9.92985 22.567 10.5413 22.567 10.949 22.9746C11.3566 23.3822 11.3566 23.9937 10.949 24.4014L5.64966 29.7007C5.24202 30.1084 5.03822 30.516 5.03822 30.9237C5.03822 31.3313 5.24202 31.9428 5.64966 32.1466C6.46495 32.9619 7.68786 32.9619 8.29932 32.1466L13.5986 26.8472C14.0063 26.4396 14.6178 26.4396 15.0254 26.8472C15.4331 27.2549 15.4331 27.8663 15.0254 28.274L9.7261 33.5734C8.91081 34.5925 7.89165 35.0001 6.87254 35.0001Z" fill="#24241C"/>
</g>
<defs>
<filter id="filter0_d" x="0" y="0" width="38.0001" height="38.0001" filterUnits="userSpaceOnUse" color-interpolation-filters="sRGB">
<feFlood flood-opacity="0" result="BackgroundImageFix"/>
<feColorMatrix in="SourceAlpha" type="matrix" values="0 0 0 0 0 0 0 0 0 0 0 0 0 0 0 0 0 0 127 0"/>
<feOffset/>
<feGaussianBlur stdDeviation="1.5"/>
<feColorMatrix type="matrix" values="0 0 0 0 0.545098 0 0 0 0 0.772549 0 0 0 0 0.247059 0 0 0 0.5 0"/>
<feBlend mode="normal" in2="BackgroundImageFix" result="effect1_dropShadow"/>
<feBlend mode="normal" in="SourceGraphic" in2="effect1_dropShadow" result="shape"/>
</filter>
</defs>
</svg>
