<svg width="67" height="76" viewBox="0 0 67 76" fill="none" xmlns="http://www.w3.org/2000/svg">
<g filter="url(#filter0_d)">
<rect x="4" width="59" height="68" rx="10" fill="#FCFFF8"/>
<g clip-path="url(#clip0)">
<path d="M33.5 32C30.2945 32 27.281 30.7517 25.0147 28.4852C22.7482 26.2188 21.5 23.2054 21.5 20C21.5 16.7945 22.7482 13.7812 25.0147 11.5147C27.2812 9.24823 30.2945 8 33.5 8C36.7054 8 39.7188 9.24823 41.9852 11.5147C44.2517 13.7812 45.5 16.7945 45.5 20C45.5 23.2054 44.2517 26.219 41.9852 28.4854C39.7188 30.7517 36.7054 32 33.5 32ZM33.5 8.9375C27.4 8.9375 22.4375 13.9002 22.4375 20C22.4375 26.0999 27.4 31.0625 33.5 31.0625C39.5999 31.0625 44.5625 26.0999 44.5625 20C44.5625 13.9002 39.5999 8.9375 33.5 8.9375Z" fill="#8DC63F"/>
<path d="M33.5116 28.8093C32.0531 28.8093 30.5991 28.4491 29.3188 27.7594C29.091 27.6365 29.0057 27.3523 29.1286 27.1244C29.2512 26.8964 29.5356 26.8113 29.7636 26.9341C32.7996 28.5702 36.6253 28.0077 39.0664 25.5663C40.554 24.079 41.3732 22.1011 41.3732 19.9975C41.3732 17.8938 40.554 15.9161 39.0664 14.4286C35.9959 11.3581 30.9993 11.3579 27.9287 14.4288C25.4875 16.8699 24.925 20.6954 26.5609 23.7314C26.6837 23.9594 26.5986 24.2436 26.3706 24.3664C26.1428 24.4891 25.8583 24.404 25.7356 24.1762C24.8551 22.5422 24.5119 20.6245 24.769 18.7766C25.0349 16.8661 25.8982 15.1332 27.2658 13.7657C30.702 10.3294 36.2931 10.3294 39.7295 13.7657C41.3941 15.4303 42.3107 17.6434 42.3107 19.9975C42.3107 22.3515 41.3939 24.5647 39.7295 26.2294C38.3618 27.597 36.6291 28.4603 34.7186 28.7262C34.3183 28.7818 33.9148 28.8093 33.5116 28.8093Z" fill="#8DC63F"/>
<path d="M27.5923 26.3714C27.4729 26.3714 27.3537 26.3261 27.2622 26.2355C27.0783 26.0531 27.0772 25.7563 27.2594 25.5725L27.2647 25.5672C27.4471 25.3833 27.7439 25.3821 27.9278 25.5644C28.1116 25.7466 28.1127 26.0434 27.9305 26.2273L27.9252 26.2326C27.8335 26.325 27.713 26.3714 27.5923 26.3714Z" fill="#8DC63F"/>
<path d="M35.4247 23.4127C34.9661 23.6857 34.4726 23.8241 33.9579 23.8241C32.6349 23.8241 31.4944 22.8921 30.985 21.5582H33.4175C33.6765 21.5582 33.8863 21.3483 33.8863 21.0894C33.8863 20.8305 33.6765 20.6207 33.4175 20.6207H30.7446C30.7162 20.4178 30.7008 20.21 30.7008 19.9979C30.7008 19.8337 30.7105 19.6722 30.7277 19.5132H34.1285C34.3874 19.5132 34.5975 19.3034 34.5975 19.0445C34.5975 18.7856 34.3874 18.5757 34.1285 18.5757H30.935C31.4166 17.1684 32.5897 16.1718 33.9579 16.1718C34.4726 16.1718 34.9661 16.3102 35.4247 16.5832C35.6472 16.7156 35.9349 16.6425 36.0673 16.42C36.1996 16.1976 36.1268 15.9099 35.9043 15.7775C35.307 15.4221 34.6341 15.2343 33.9579 15.2343C32.0809 15.2343 30.488 16.6414 29.9541 18.5757H29.0657C28.8069 18.5757 28.5969 18.7856 28.5969 19.0445C28.5969 19.3034 28.8069 19.5132 29.0657 19.5132H29.7847C29.7704 19.6725 29.7631 19.8342 29.7631 19.9979C29.7631 20.2089 29.7754 20.4167 29.799 20.6207H29.0657C28.8069 20.6207 28.5969 20.8305 28.5969 21.0894C28.5969 21.3483 28.8069 21.5582 29.0657 21.5582H29.9944C30.5648 23.4207 32.1259 24.7614 33.9579 24.7614C34.6339 24.7614 35.307 24.5735 35.9041 24.2181C36.1266 24.0858 36.1996 23.7981 36.0673 23.5756C35.9349 23.3531 35.6472 23.2801 35.4247 23.4127Z" fill="#8DC63F"/>
</g>
<path d="M13.5207 53V42.969H16.7197C17.3357 42.969 17.8654 43.0297 18.3087 43.151C18.7567 43.2723 19.1231 43.445 19.4077 43.669C19.6971 43.893 19.9094 44.1683 20.0447 44.495C20.1847 44.817 20.2547 45.181 20.2547 45.587C20.2547 45.8343 20.2151 46.0723 20.1357 46.301C20.0611 46.5297 19.9444 46.742 19.7857 46.938C19.6317 47.134 19.4357 47.309 19.1977 47.463C18.9644 47.617 18.6891 47.743 18.3717 47.841C19.1044 47.9857 19.6574 48.2493 20.0307 48.632C20.4041 49.0147 20.5907 49.5187 20.5907 50.144C20.5907 50.5687 20.5114 50.956 20.3527 51.306C20.1987 51.656 19.9701 51.957 19.6667 52.209C19.3681 52.461 18.9994 52.657 18.5607 52.797C18.1267 52.9323 17.6297 53 17.0697 53H13.5207ZM14.8787 48.429V51.922H17.0487C17.4361 51.922 17.7674 51.8777 18.0427 51.789C18.3227 51.7003 18.5514 51.5767 18.7287 51.418C18.9107 51.2547 19.0437 51.0633 19.1277 50.844C19.2117 50.62 19.2537 50.375 19.2537 50.109C19.2537 49.591 19.0694 49.1827 18.7007 48.884C18.3367 48.5807 17.7837 48.429 17.0417 48.429H14.8787ZM14.8787 47.463H16.6707C17.0534 47.463 17.3847 47.421 17.6647 47.337C17.9447 47.253 18.1757 47.1363 18.3577 46.987C18.5444 46.8377 18.6821 46.658 18.7707 46.448C18.8594 46.2333 18.9037 46 18.9037 45.748C18.9037 45.16 18.7264 44.7283 18.3717 44.453C18.0171 44.1777 17.4664 44.04 16.7197 44.04H14.8787V47.463ZM27.7472 53H27.1942C27.0729 53 26.9749 52.9813 26.9002 52.944C26.8255 52.9067 26.7765 52.8273 26.7532 52.706L26.6132 52.048C26.4265 52.216 26.2445 52.3677 26.0672 52.503C25.8899 52.6337 25.7032 52.7457 25.5072 52.839C25.3112 52.9277 25.1012 52.9953 24.8772 53.042C24.6579 53.0887 24.4129 53.112 24.1422 53.112C23.8669 53.112 23.6079 53.0747 23.3652 53C23.1272 52.9207 22.9195 52.804 22.7422 52.65C22.5649 52.496 22.4225 52.3023 22.3152 52.069C22.2125 51.831 22.1612 51.551 22.1612 51.229C22.1612 50.949 22.2382 50.6807 22.3922 50.424C22.5462 50.1627 22.7935 49.9317 23.1342 49.731C23.4795 49.5303 23.9299 49.367 24.4852 49.241C25.0405 49.1103 25.7195 49.0357 26.5222 49.017V48.464C26.5222 47.9133 26.4032 47.498 26.1652 47.218C25.9319 46.9333 25.5842 46.791 25.1222 46.791C24.8189 46.791 24.5622 46.8307 24.3522 46.91C24.1469 46.9847 23.9672 47.071 23.8132 47.169C23.6639 47.2623 23.5332 47.3487 23.4212 47.428C23.3139 47.5027 23.2065 47.54 23.0992 47.54C23.0152 47.54 22.9405 47.519 22.8752 47.477C22.8145 47.4303 22.7655 47.3743 22.7282 47.309L22.5042 46.91C22.8962 46.532 23.3185 46.2497 23.7712 46.063C24.2239 45.8763 24.7255 45.783 25.2762 45.783C25.6729 45.783 26.0252 45.8483 26.3332 45.979C26.6412 46.1097 26.9002 46.2917 27.1102 46.525C27.3202 46.7583 27.4789 47.0407 27.5862 47.372C27.6935 47.7033 27.7472 48.0673 27.7472 48.464V53ZM24.5132 52.237C24.7325 52.237 24.9332 52.216 25.1152 52.174C25.2972 52.1273 25.4675 52.0643 25.6262 51.985C25.7895 51.901 25.9435 51.8007 26.0882 51.684C26.2375 51.5673 26.3822 51.4343 26.5222 51.285V49.808C25.9482 49.8267 25.4605 49.8733 25.0592 49.948C24.6579 50.018 24.3312 50.1113 24.0792 50.228C23.8272 50.3447 23.6429 50.4823 23.5262 50.641C23.4142 50.7997 23.3582 50.977 23.3582 51.173C23.3582 51.3597 23.3885 51.5207 23.4492 51.656C23.5099 51.7913 23.5915 51.9033 23.6942 51.992C23.7969 52.076 23.9182 52.139 24.0582 52.181C24.1982 52.2183 24.3499 52.237 24.5132 52.237ZM29.7849 53V45.909H30.4989C30.6342 45.909 30.7276 45.9347 30.7789 45.986C30.8302 46.0373 30.8652 46.126 30.8839 46.252L30.9679 47.358C31.2106 46.8633 31.5092 46.4783 31.8639 46.203C32.2232 45.923 32.6432 45.783 33.1239 45.783C33.3199 45.783 33.4972 45.8063 33.6559 45.853C33.8146 45.895 33.9616 45.9557 34.0969 46.035L33.9359 46.966C33.9032 47.0827 33.8309 47.141 33.7189 47.141C33.6536 47.141 33.5532 47.12 33.4179 47.078C33.2826 47.0313 33.0936 47.008 32.8509 47.008C32.4169 47.008 32.0529 47.134 31.7589 47.386C31.4696 47.638 31.2269 48.0043 31.0309 48.485V53H29.7849ZM40.5296 53H39.9766C39.8553 53 39.7573 52.9813 39.6826 52.944C39.6079 52.9067 39.5589 52.8273 39.5356 52.706L39.3956 52.048C39.2089 52.216 39.0269 52.3677 38.8496 52.503C38.6723 52.6337 38.4856 52.7457 38.2896 52.839C38.0936 52.9277 37.8836 52.9953 37.6596 53.042C37.4403 53.0887 37.1953 53.112 36.9246 53.112C36.6493 53.112 36.3903 53.0747 36.1476 53C35.9096 52.9207 35.7019 52.804 35.5246 52.65C35.3473 52.496 35.2049 52.3023 35.0976 52.069C34.9949 51.831 34.9436 51.551 34.9436 51.229C34.9436 50.949 35.0206 50.6807 35.1746 50.424C35.3286 50.1627 35.5759 49.9317 35.9166 49.731C36.2619 49.5303 36.7123 49.367 37.2676 49.241C37.8229 49.1103 38.5019 49.0357 39.3046 49.017V48.464C39.3046 47.9133 39.1856 47.498 38.9476 47.218C38.7143 46.9333 38.3666 46.791 37.9046 46.791C37.6013 46.791 37.3446 46.8307 37.1346 46.91C36.9293 46.9847 36.7496 47.071 36.5956 47.169C36.4463 47.2623 36.3156 47.3487 36.2036 47.428C36.0963 47.5027 35.9889 47.54 35.8816 47.54C35.7976 47.54 35.7229 47.519 35.6576 47.477C35.5969 47.4303 35.5479 47.3743 35.5106 47.309L35.2866 46.91C35.6786 46.532 36.1009 46.2497 36.5536 46.063C37.0063 45.8763 37.5079 45.783 38.0586 45.783C38.4553 45.783 38.8076 45.8483 39.1156 45.979C39.4236 46.1097 39.6826 46.2917 39.8926 46.525C40.1026 46.7583 40.2613 47.0407 40.3686 47.372C40.4759 47.7033 40.5296 48.0673 40.5296 48.464V53ZM37.2956 52.237C37.5149 52.237 37.7156 52.216 37.8976 52.174C38.0796 52.1273 38.2499 52.0643 38.4086 51.985C38.5719 51.901 38.7259 51.8007 38.8706 51.684C39.0199 51.5673 39.1646 51.4343 39.3046 51.285V49.808C38.7306 49.8267 38.2429 49.8733 37.8416 49.948C37.4403 50.018 37.1136 50.1113 36.8616 50.228C36.6096 50.3447 36.4253 50.4823 36.3086 50.641C36.1966 50.7997 36.1406 50.977 36.1406 51.173C36.1406 51.3597 36.1709 51.5207 36.2316 51.656C36.2923 51.7913 36.3739 51.9033 36.4766 51.992C36.5793 52.076 36.7006 52.139 36.8406 52.181C36.9806 52.2183 37.1323 52.237 37.2956 52.237ZM44.7163 53.112C44.1563 53.112 43.7246 52.9557 43.4213 52.643C43.1226 52.3303 42.9733 51.88 42.9733 51.292V46.952H42.1193C42.0446 46.952 41.9816 46.931 41.9303 46.889C41.879 46.8423 41.8533 46.7723 41.8533 46.679V46.182L43.0153 46.035L43.3023 43.844C43.3116 43.774 43.342 43.718 43.3933 43.676C43.4446 43.6293 43.51 43.606 43.5893 43.606H44.2193V46.049H46.2493V46.952H44.2193V51.208C44.2193 51.5067 44.2916 51.7283 44.4363 51.873C44.581 52.0177 44.7676 52.09 44.9963 52.09C45.127 52.09 45.239 52.0737 45.3323 52.041C45.4303 52.0037 45.5143 51.964 45.5843 51.922C45.6543 51.88 45.7126 51.8427 45.7593 51.81C45.8106 51.7727 45.855 51.754 45.8923 51.754C45.9576 51.754 46.016 51.7937 46.0673 51.873L46.4313 52.468C46.2166 52.6687 45.9576 52.8273 45.6543 52.944C45.351 53.056 45.0383 53.112 44.7163 53.112ZM50.81 45.797C51.328 45.797 51.7946 45.8833 52.21 46.056C52.63 46.2287 52.9846 46.4737 53.274 46.791C53.568 47.1083 53.792 47.4933 53.946 47.946C54.1046 48.394 54.184 48.8957 54.184 49.451C54.184 50.011 54.1046 50.515 53.946 50.963C53.792 51.411 53.568 51.7937 53.274 52.111C52.9846 52.4283 52.63 52.6733 52.21 52.846C51.7946 53.014 51.328 53.098 50.81 53.098C50.292 53.098 49.823 53.014 49.403 52.846C48.9876 52.6733 48.633 52.4283 48.339 52.111C48.045 51.7937 47.8186 51.411 47.66 50.963C47.5013 50.515 47.422 50.011 47.422 49.451C47.422 48.8957 47.5013 48.394 47.66 47.946C47.8186 47.4933 48.045 47.1083 48.339 46.791C48.633 46.4737 48.9876 46.2287 49.403 46.056C49.823 45.8833 50.292 45.797 50.81 45.797ZM50.81 52.125C51.51 52.125 52.0326 51.8917 52.378 51.425C52.7233 50.9537 52.896 50.298 52.896 49.458C52.896 48.6133 52.7233 47.9553 52.378 47.484C52.0326 47.0127 51.51 46.777 50.81 46.777C50.4553 46.777 50.1473 46.8377 49.886 46.959C49.6246 47.0803 49.4053 47.2553 49.228 47.484C49.0553 47.7127 48.9246 47.995 48.836 48.331C48.752 48.6623 48.71 49.038 48.71 49.458C48.71 49.878 48.752 50.2537 48.836 50.585C48.9246 50.9163 49.0553 51.1963 49.228 51.425C49.4053 51.649 49.6246 51.8217 49.886 51.943C50.1473 52.0643 50.4553 52.125 50.81 52.125Z" fill="black"/>
<rect x="4.5" y="0.5" width="58" height="67" rx="9.5" stroke="#8DC63F"/>
</g>
<defs>
<filter id="filter0_d" x="0" y="0" width="67" height="76" filterUnits="userSpaceOnUse" color-interpolation-filters="sRGB">
<feFlood flood-opacity="0" result="BackgroundImageFix"/>
<feColorMatrix in="SourceAlpha" type="matrix" values="0 0 0 0 0 0 0 0 0 0 0 0 0 0 0 0 0 0 127 0"/>
<feOffset dy="4"/>
<feGaussianBlur stdDeviation="2"/>
<feColorMatrix type="matrix" values="0 0 0 0 0 0 0 0 0 0 0 0 0 0 0 0 0 0 0.25 0"/>
<feBlend mode="normal" in2="BackgroundImageFix" result="effect1_dropShadow"/>
<feBlend mode="normal" in="SourceGraphic" in2="effect1_dropShadow" result="shape"/>
</filter>
<clipPath id="clip0">
<rect width="24" height="24" fill="white" transform="translate(21.5 8)"/>
</clipPath>
</defs>
</svg>
