<svg width="100" height="130" viewBox="0 0 100 130" fill="none" xmlns="http://www.w3.org/2000/svg">
<rect width="100" height="130" rx="10" fill="white"/>
<path d="M17.0256 103H15.8256C15.6869 103 15.5749 102.965 15.4896 102.896C15.4042 102.827 15.3402 102.739 15.2976 102.632L14.2256 99.864H9.08156L8.00956 102.632C7.97222 102.728 7.90822 102.813 7.81756 102.888C7.72689 102.963 7.61489 103 7.48156 103H6.28156L10.8656 91.536H12.4416L17.0256 103ZM9.51356 98.744H13.7936L11.9936 94.08C11.8762 93.792 11.7616 93.432 11.6496 93C11.5909 93.2187 11.5322 93.4213 11.4736 93.608C11.4202 93.7893 11.3669 93.9493 11.3136 94.088L9.51356 98.744Z" fill="black"/>
<path d="M18.3946 105.744V94.896H19.2426C19.4452 94.896 19.5732 94.9947 19.6266 95.192L19.7466 96.152C20.0932 95.7307 20.4879 95.392 20.9306 95.136C21.3786 94.88 21.8932 94.752 22.4746 94.752C22.9386 94.752 23.3599 94.8427 23.7386 95.024C24.1172 95.2 24.4399 95.464 24.7066 95.816C24.9732 96.1627 25.1786 96.5947 25.3226 97.112C25.4666 97.6293 25.5386 98.224 25.5386 98.896C25.5386 99.4933 25.4586 100.051 25.2986 100.568C25.1386 101.08 24.9092 101.525 24.6106 101.904C24.3119 102.277 23.9439 102.573 23.5066 102.792C23.0746 103.005 22.5866 103.112 22.0426 103.112C21.5412 103.112 21.1119 103.029 20.7546 102.864C20.4026 102.699 20.0906 102.464 19.8186 102.16V105.744H18.3946ZM22.0026 95.904C21.5386 95.904 21.1306 96.0107 20.7786 96.224C20.4319 96.4373 20.1119 96.7387 19.8186 97.128V101.048C20.0799 101.4 20.3652 101.648 20.6746 101.792C20.9892 101.936 21.3386 102.008 21.7226 102.008C22.4746 102.008 23.0532 101.739 23.4586 101.2C23.8639 100.661 24.0666 99.8933 24.0666 98.896C24.0666 98.368 24.0186 97.9147 23.9226 97.536C23.8319 97.1573 23.6986 96.848 23.5226 96.608C23.3466 96.3627 23.1306 96.184 22.8746 96.072C22.6186 95.96 22.3279 95.904 22.0026 95.904Z" fill="black"/>
<path d="M30.5807 94.768C31.066 94.768 31.514 94.8507 31.9247 95.016C32.3353 95.176 32.69 95.4107 32.9887 95.72C33.2873 96.024 33.5193 96.4027 33.6847 96.856C33.8553 97.304 33.9407 97.816 33.9407 98.392C33.9407 98.616 33.9167 98.7653 33.8687 98.84C33.8207 98.9147 33.73 98.952 33.5967 98.952H28.2047C28.2153 99.464 28.2847 99.9093 28.4127 100.288C28.5407 100.667 28.7167 100.984 28.9407 101.24C29.1647 101.491 29.4313 101.68 29.7407 101.808C30.05 101.931 30.3967 101.992 30.7807 101.992C31.138 101.992 31.4447 101.952 31.7007 101.872C31.962 101.787 32.186 101.696 32.3727 101.6C32.5593 101.504 32.714 101.416 32.8367 101.336C32.9647 101.251 33.074 101.208 33.1647 101.208C33.282 101.208 33.3727 101.253 33.4367 101.344L33.8367 101.864C33.6607 102.077 33.45 102.264 33.2047 102.424C32.9593 102.579 32.6953 102.707 32.4127 102.808C32.1353 102.909 31.8473 102.984 31.5487 103.032C31.25 103.085 30.954 103.112 30.6607 103.112C30.1007 103.112 29.5833 103.019 29.1087 102.832C28.6393 102.64 28.2313 102.363 27.8847 102C27.5433 101.632 27.2767 101.179 27.0847 100.64C26.8927 100.101 26.7967 99.4827 26.7967 98.784C26.7967 98.2187 26.882 97.6907 27.0527 97.2C27.2287 96.7093 27.4793 96.2853 27.8047 95.928C28.13 95.5653 28.5273 95.2827 28.9967 95.08C29.466 94.872 29.994 94.768 30.5807 94.768ZM30.6127 95.816C29.9247 95.816 29.3833 96.016 28.9887 96.416C28.594 96.8107 28.3487 97.36 28.2527 98.064H32.6607C32.6607 97.7333 32.6153 97.432 32.5247 97.16C32.434 96.8827 32.3007 96.6453 32.1247 96.448C31.9487 96.2453 31.7327 96.0907 31.4767 95.984C31.226 95.872 30.938 95.816 30.6127 95.816Z" fill="black"/>
<path d="M35.9133 103V94.896H36.7293C36.884 94.896 36.9906 94.9253 37.0493 94.984C37.108 95.0427 37.148 95.144 37.1693 95.288L37.2653 96.552C37.5426 95.9867 37.884 95.5467 38.2893 95.232C38.7 94.912 39.18 94.752 39.7293 94.752C39.9533 94.752 40.156 94.7787 40.3373 94.832C40.5186 94.88 40.6866 94.9493 40.8413 95.04L40.6573 96.104C40.62 96.2373 40.5373 96.304 40.4093 96.304C40.3346 96.304 40.22 96.28 40.0653 96.232C39.9106 96.1787 39.6946 96.152 39.4173 96.152C38.9213 96.152 38.5053 96.296 38.1693 96.584C37.8386 96.872 37.5613 97.2907 37.3373 97.84V103H35.9133Z" fill="black"/>
<path d="M44.1004 94.896V103H42.6764V94.896H44.1004ZM44.4204 92.352C44.4204 92.4907 44.3911 92.6213 44.3324 92.744C44.2791 92.8613 44.2044 92.968 44.1084 93.064C44.0178 93.1547 43.9111 93.2267 43.7884 93.28C43.6658 93.3333 43.5351 93.36 43.3964 93.36C43.2578 93.36 43.1271 93.3333 43.0044 93.28C42.8871 93.2267 42.7804 93.1547 42.6844 93.064C42.5938 92.968 42.5218 92.8613 42.4684 92.744C42.4151 92.6213 42.3884 92.4907 42.3884 92.352C42.3884 92.2133 42.4151 92.0827 42.4684 91.96C42.5218 91.832 42.5938 91.7227 42.6844 91.632C42.7804 91.536 42.8871 91.4613 43.0044 91.408C43.1271 91.3547 43.2578 91.328 43.3964 91.328C43.5351 91.328 43.6658 91.3547 43.7884 91.408C43.9111 91.4613 44.0178 91.536 44.1084 91.632C44.2044 91.7227 44.2791 91.832 44.3324 91.96C44.3911 92.0827 44.4204 92.2133 44.4204 92.352Z" fill="black"/>
<path d="M49.2162 103.128C48.5762 103.128 48.0828 102.949 47.7362 102.592C47.3948 102.235 47.2242 101.72 47.2242 101.048V96.088H46.2482C46.1628 96.088 46.0908 96.064 46.0322 96.016C45.9735 95.9627 45.9442 95.8827 45.9442 95.776V95.208L47.2722 95.04L47.6002 92.536C47.6108 92.456 47.6455 92.392 47.7042 92.344C47.7628 92.2907 47.8375 92.264 47.9282 92.264H48.6482V95.056H50.9682V96.088H48.6482V100.952C48.6482 101.293 48.7308 101.547 48.8962 101.712C49.0615 101.877 49.2748 101.96 49.5362 101.96C49.6855 101.96 49.8135 101.941 49.9202 101.904C50.0322 101.861 50.1282 101.816 50.2082 101.768C50.2882 101.72 50.3548 101.677 50.4082 101.64C50.4668 101.597 50.5175 101.576 50.5602 101.576C50.6348 101.576 50.7015 101.621 50.7602 101.712L51.1762 102.392C50.9308 102.621 50.6348 102.803 50.2882 102.936C49.9415 103.064 49.5842 103.128 49.2162 103.128Z" fill="black"/>
<path d="M54.4629 94.896V103H53.0389V94.896H54.4629ZM54.7829 92.352C54.7829 92.4907 54.7536 92.6213 54.6949 92.744C54.6416 92.8613 54.5669 92.968 54.4709 93.064C54.3803 93.1547 54.2736 93.2267 54.1509 93.28C54.0283 93.3333 53.8976 93.36 53.7589 93.36C53.6203 93.36 53.4896 93.3333 53.3669 93.28C53.2496 93.2267 53.1429 93.1547 53.0469 93.064C52.9563 92.968 52.8843 92.8613 52.8309 92.744C52.7776 92.6213 52.7509 92.4907 52.7509 92.352C52.7509 92.2133 52.7776 92.0827 52.8309 91.96C52.8843 91.832 52.9563 91.7227 53.0469 91.632C53.1429 91.536 53.2496 91.4613 53.3669 91.408C53.4896 91.3547 53.6203 91.328 53.7589 91.328C53.8976 91.328 54.0283 91.3547 54.1509 91.408C54.2736 91.4613 54.3803 91.536 54.4709 91.632C54.5669 91.7227 54.6416 91.832 54.6949 91.96C54.7536 92.0827 54.7829 92.2133 54.7829 92.352Z" fill="black"/>
<path d="M56.0987 94.896H57.2667C57.3787 94.896 57.472 94.9253 57.5467 94.984C57.6213 95.0427 57.6747 95.112 57.7067 95.192L59.7627 100.408C59.8373 100.6 59.896 100.792 59.9387 100.984C59.9813 101.176 60.0213 101.365 60.0587 101.552C60.1013 101.365 60.1467 101.176 60.1947 100.984C60.2427 100.792 60.304 100.6 60.3787 100.408L62.4587 95.192C62.4907 95.1067 62.5413 95.0373 62.6107 94.984C62.6853 94.9253 62.776 94.896 62.8827 94.896H63.9947L60.6907 103H59.4027L56.0987 94.896Z" fill="black"/>
<path d="M68.5371 94.768C69.1291 94.768 69.6624 94.8667 70.1371 95.064C70.6171 95.2613 71.0224 95.5413 71.3531 95.904C71.6891 96.2667 71.9451 96.7067 72.1211 97.224C72.3024 97.736 72.3931 98.3093 72.3931 98.944C72.3931 99.584 72.3024 100.16 72.1211 100.672C71.9451 101.184 71.6891 101.621 71.3531 101.984C71.0224 102.347 70.6171 102.627 70.1371 102.824C69.6624 103.016 69.1291 103.112 68.5371 103.112C67.9451 103.112 67.4091 103.016 66.9291 102.824C66.4544 102.627 66.0491 102.347 65.7131 101.984C65.3771 101.621 65.1184 101.184 64.9371 100.672C64.7557 100.16 64.6651 99.584 64.6651 98.944C64.6651 98.3093 64.7557 97.736 64.9371 97.224C65.1184 96.7067 65.3771 96.2667 65.7131 95.904C66.0491 95.5413 66.4544 95.2613 66.9291 95.064C67.4091 94.8667 67.9451 94.768 68.5371 94.768ZM68.5371 102C69.3371 102 69.9344 101.733 70.3291 101.2C70.7237 100.661 70.9211 99.912 70.9211 98.952C70.9211 97.9867 70.7237 97.2347 70.3291 96.696C69.9344 96.1573 69.3371 95.888 68.5371 95.888C68.1317 95.888 67.7797 95.9573 67.4811 96.096C67.1824 96.2347 66.9317 96.4347 66.7291 96.696C66.5317 96.9573 66.3824 97.28 66.2811 97.664C66.1851 98.0427 66.1371 98.472 66.1371 98.952C66.1371 99.432 66.1851 99.8613 66.2811 100.24C66.3824 100.619 66.5317 100.939 66.7291 101.2C66.9317 101.456 67.1824 101.653 67.4811 101.792C67.7797 101.931 68.1317 102 68.5371 102Z" fill="black"/>
<path d="M78.9377 96.232C78.8737 96.3493 78.775 96.408 78.6417 96.408C78.5617 96.408 78.471 96.3787 78.3697 96.32C78.2683 96.2613 78.143 96.1973 77.9937 96.128C77.8497 96.0533 77.6763 95.9867 77.4737 95.928C77.271 95.864 77.031 95.832 76.7537 95.832C76.5137 95.832 76.2977 95.864 76.1057 95.928C75.9137 95.9867 75.7483 96.0693 75.6097 96.176C75.4763 96.2827 75.3723 96.408 75.2977 96.552C75.2283 96.6907 75.1937 96.8427 75.1937 97.008C75.1937 97.216 75.2523 97.3893 75.3697 97.528C75.4923 97.6667 75.6523 97.7867 75.8497 97.888C76.047 97.9893 76.271 98.08 76.5217 98.16C76.7723 98.2347 77.0284 98.3173 77.2897 98.408C77.5564 98.4933 77.815 98.5893 78.0657 98.696C78.3163 98.8027 78.5403 98.936 78.7377 99.096C78.935 99.256 79.0923 99.4533 79.2097 99.688C79.3323 99.9173 79.3937 100.195 79.3937 100.52C79.3937 100.893 79.327 101.24 79.1937 101.56C79.0603 101.875 78.863 102.149 78.6017 102.384C78.3403 102.613 78.0203 102.795 77.6417 102.928C77.263 103.061 76.8257 103.128 76.3297 103.128C75.7643 103.128 75.2523 103.037 74.7937 102.856C74.335 102.669 73.9457 102.432 73.6257 102.144L73.9617 101.6C74.0043 101.531 74.055 101.477 74.1137 101.44C74.1723 101.403 74.2497 101.384 74.3457 101.384C74.4417 101.384 74.543 101.421 74.6497 101.496C74.7563 101.571 74.8843 101.653 75.0337 101.744C75.1883 101.835 75.3723 101.917 75.5857 101.992C75.8043 102.067 76.0763 102.104 76.4017 102.104C76.679 102.104 76.9217 102.069 77.1297 102C77.3377 101.925 77.511 101.827 77.6497 101.704C77.7883 101.581 77.8897 101.44 77.9537 101.28C78.023 101.12 78.0577 100.949 78.0577 100.768C78.0577 100.544 77.9963 100.36 77.8737 100.216C77.7563 100.067 77.599 99.9413 77.4017 99.84C77.2043 99.7333 76.9777 99.6427 76.7217 99.568C76.471 99.488 76.2123 99.4053 75.9457 99.32C75.6843 99.2347 75.4257 99.1387 75.1697 99.032C74.919 98.92 74.695 98.7813 74.4977 98.616C74.3003 98.4507 74.1403 98.248 74.0177 98.008C73.9003 97.7627 73.8417 97.4667 73.8417 97.12C73.8417 96.8107 73.9057 96.5147 74.0337 96.232C74.1617 95.944 74.3483 95.6933 74.5937 95.48C74.839 95.2613 75.1403 95.088 75.4977 94.96C75.855 94.832 76.263 94.768 76.7217 94.768C77.255 94.768 77.7323 94.8533 78.1537 95.024C78.5803 95.1893 78.9483 95.4187 79.2577 95.712L78.9377 96.232Z" fill="black"/>
<path d="M87.0049 105.392C86.9569 105.499 86.8956 105.584 86.8209 105.648C86.7516 105.712 86.6423 105.744 86.4929 105.744H85.4369L86.9169 102.528L83.5729 94.896H84.8049C84.9276 94.896 85.0236 94.928 85.0929 94.992C85.1623 95.0507 85.2129 95.1173 85.2449 95.192L87.4129 100.296C87.4609 100.413 87.5009 100.531 87.5329 100.648C87.5703 100.765 87.6023 100.885 87.6289 101.008C87.6663 100.885 87.7036 100.765 87.7409 100.648C87.7783 100.531 87.8209 100.411 87.8689 100.288L89.9729 95.192C90.0049 95.1067 90.0583 95.0373 90.1329 94.984C90.2129 94.9253 90.2983 94.896 90.3889 94.896H91.5249L87.0049 105.392Z" fill="black"/>
<path d="M38.1891 107.536V108.84H34.4851V119H32.9331V108.84H29.2131V107.536H38.1891Z" fill="black"/>
<path d="M43.6966 119H43.0646C42.9259 119 42.8139 118.979 42.7286 118.936C42.6432 118.893 42.5872 118.803 42.5606 118.664L42.4006 117.912C42.1872 118.104 41.9792 118.277 41.7766 118.432C41.5739 118.581 41.3606 118.709 41.1366 118.816C40.9126 118.917 40.6726 118.995 40.4166 119.048C40.1659 119.101 39.8859 119.128 39.5766 119.128C39.2619 119.128 38.9659 119.085 38.6886 119C38.4166 118.909 38.1792 118.776 37.9766 118.6C37.7739 118.424 37.6112 118.203 37.4886 117.936C37.3712 117.664 37.3126 117.344 37.3126 116.976C37.3126 116.656 37.4006 116.349 37.5766 116.056C37.7526 115.757 38.0352 115.493 38.4246 115.264C38.8192 115.035 39.3339 114.848 39.9686 114.704C40.6032 114.555 41.3792 114.469 42.2966 114.448V113.816C42.2966 113.187 42.1606 112.712 41.8886 112.392C41.6219 112.067 41.2246 111.904 40.6966 111.904C40.3499 111.904 40.0566 111.949 39.8166 112.04C39.5819 112.125 39.3766 112.224 39.2006 112.336C39.0299 112.443 38.8806 112.541 38.7526 112.632C38.6299 112.717 38.5072 112.76 38.3846 112.76C38.2886 112.76 38.2032 112.736 38.1286 112.688C38.0592 112.635 38.0032 112.571 37.9606 112.496L37.7046 112.04C38.1526 111.608 38.6352 111.285 39.1526 111.072C39.6699 110.859 40.2432 110.752 40.8726 110.752C41.3259 110.752 41.7286 110.827 42.0806 110.976C42.4326 111.125 42.7286 111.333 42.9686 111.6C43.2086 111.867 43.3899 112.189 43.5126 112.568C43.6352 112.947 43.6966 113.363 43.6966 113.816V119ZM40.0006 118.128C40.2512 118.128 40.4806 118.104 40.6886 118.056C40.8966 118.003 41.0912 117.931 41.2726 117.84C41.4592 117.744 41.6352 117.629 41.8006 117.496C41.9712 117.363 42.1366 117.211 42.2966 117.04V115.352C41.6406 115.373 41.0832 115.427 40.6246 115.512C40.1659 115.592 39.7926 115.699 39.5046 115.832C39.2166 115.965 39.0059 116.123 38.8726 116.304C38.7446 116.485 38.6806 116.688 38.6806 116.912C38.6806 117.125 38.7152 117.309 38.7846 117.464C38.8539 117.619 38.9472 117.747 39.0646 117.848C39.1819 117.944 39.3206 118.016 39.4806 118.064C39.6406 118.107 39.8139 118.128 40.0006 118.128Z" fill="black"/>
<path d="M46.0039 121.744V110.896H46.8519C47.0546 110.896 47.1826 110.995 47.2359 111.192L47.3559 112.152C47.7026 111.731 48.0973 111.392 48.5399 111.136C48.9879 110.88 49.5026 110.752 50.0839 110.752C50.5479 110.752 50.9693 110.843 51.3479 111.024C51.7266 111.2 52.0493 111.464 52.3159 111.816C52.5826 112.163 52.7879 112.595 52.9319 113.112C53.0759 113.629 53.1479 114.224 53.1479 114.896C53.1479 115.493 53.0679 116.051 52.9079 116.568C52.7479 117.08 52.5186 117.525 52.2199 117.904C51.9213 118.277 51.5533 118.573 51.1159 118.792C50.6839 119.005 50.1959 119.112 49.6519 119.112C49.1506 119.112 48.7213 119.029 48.3639 118.864C48.0119 118.699 47.6999 118.464 47.4279 118.16V121.744H46.0039ZM49.6119 111.904C49.1479 111.904 48.7399 112.011 48.3879 112.224C48.0413 112.437 47.7213 112.739 47.4279 113.128V117.048C47.6893 117.4 47.9746 117.648 48.2839 117.792C48.5986 117.936 48.9479 118.008 49.3319 118.008C50.0839 118.008 50.6626 117.739 51.0679 117.2C51.4733 116.661 51.6759 115.893 51.6759 114.896C51.6759 114.368 51.6279 113.915 51.5319 113.536C51.4413 113.157 51.3079 112.848 51.1319 112.608C50.9559 112.363 50.7399 112.184 50.4839 112.072C50.2279 111.96 49.9373 111.904 49.6119 111.904Z" fill="black"/>
<path d="M60.9341 119H60.3021C60.1634 119 60.0514 118.979 59.9661 118.936C59.8807 118.893 59.8247 118.803 59.7981 118.664L59.6381 117.912C59.4247 118.104 59.2167 118.277 59.0141 118.432C58.8114 118.581 58.5981 118.709 58.3741 118.816C58.1501 118.917 57.9101 118.995 57.6541 119.048C57.4034 119.101 57.1234 119.128 56.8141 119.128C56.4994 119.128 56.2034 119.085 55.9261 119C55.6541 118.909 55.4167 118.776 55.2141 118.6C55.0114 118.424 54.8487 118.203 54.7261 117.936C54.6087 117.664 54.5501 117.344 54.5501 116.976C54.5501 116.656 54.6381 116.349 54.8141 116.056C54.9901 115.757 55.2727 115.493 55.6621 115.264C56.0567 115.035 56.5714 114.848 57.2061 114.704C57.8407 114.555 58.6167 114.469 59.5341 114.448V113.816C59.5341 113.187 59.3981 112.712 59.1261 112.392C58.8594 112.067 58.4621 111.904 57.9341 111.904C57.5874 111.904 57.2941 111.949 57.0541 112.04C56.8194 112.125 56.6141 112.224 56.4381 112.336C56.2674 112.443 56.1181 112.541 55.9901 112.632C55.8674 112.717 55.7447 112.76 55.6221 112.76C55.5261 112.76 55.4407 112.736 55.3661 112.688C55.2967 112.635 55.2407 112.571 55.1981 112.496L54.9421 112.04C55.3901 111.608 55.8727 111.285 56.3901 111.072C56.9074 110.859 57.4807 110.752 58.1101 110.752C58.5634 110.752 58.9661 110.827 59.3181 110.976C59.6701 111.125 59.9661 111.333 60.2061 111.6C60.4461 111.867 60.6274 112.189 60.7501 112.568C60.8727 112.947 60.9341 113.363 60.9341 113.816V119ZM57.2381 118.128C57.4887 118.128 57.7181 118.104 57.9261 118.056C58.1341 118.003 58.3287 117.931 58.5101 117.84C58.6967 117.744 58.8727 117.629 59.0381 117.496C59.2087 117.363 59.3741 117.211 59.5341 117.04V115.352C58.8781 115.373 58.3207 115.427 57.8621 115.512C57.4034 115.592 57.0301 115.699 56.7421 115.832C56.4541 115.965 56.2434 116.123 56.1101 116.304C55.9821 116.485 55.9181 116.688 55.9181 116.912C55.9181 117.125 55.9527 117.309 56.0221 117.464C56.0914 117.619 56.1847 117.747 56.3021 117.848C56.4194 117.944 56.5581 118.016 56.7181 118.064C56.8781 118.107 57.0514 118.128 57.2381 118.128Z" fill="black"/>
<path d="M67.8814 112.232C67.8174 112.349 67.7188 112.408 67.5854 112.408C67.5054 112.408 67.4148 112.379 67.3134 112.32C67.2121 112.261 67.0868 112.197 66.9374 112.128C66.7934 112.053 66.6201 111.987 66.4174 111.928C66.2148 111.864 65.9748 111.832 65.6974 111.832C65.4574 111.832 65.2414 111.864 65.0494 111.928C64.8574 111.987 64.6921 112.069 64.5534 112.176C64.4201 112.283 64.3161 112.408 64.2414 112.552C64.1721 112.691 64.1374 112.843 64.1374 113.008C64.1374 113.216 64.1961 113.389 64.3134 113.528C64.4361 113.667 64.5961 113.787 64.7934 113.888C64.9908 113.989 65.2148 114.08 65.4654 114.16C65.7161 114.235 65.9721 114.317 66.2334 114.408C66.5001 114.493 66.7588 114.589 67.0094 114.696C67.2601 114.803 67.4841 114.936 67.6814 115.096C67.8788 115.256 68.0361 115.453 68.1534 115.688C68.2761 115.917 68.3374 116.195 68.3374 116.52C68.3374 116.893 68.2708 117.24 68.1374 117.56C68.0041 117.875 67.8068 118.149 67.5454 118.384C67.2841 118.613 66.9641 118.795 66.5854 118.928C66.2068 119.061 65.7694 119.128 65.2734 119.128C64.7081 119.128 64.1961 119.037 63.7374 118.856C63.2788 118.669 62.8894 118.432 62.5694 118.144L62.9054 117.6C62.9481 117.531 62.9988 117.477 63.0574 117.44C63.1161 117.403 63.1934 117.384 63.2894 117.384C63.3854 117.384 63.4868 117.421 63.5934 117.496C63.7001 117.571 63.8281 117.653 63.9774 117.744C64.1321 117.835 64.3161 117.917 64.5294 117.992C64.7481 118.067 65.0201 118.104 65.3454 118.104C65.6228 118.104 65.8654 118.069 66.0734 118C66.2814 117.925 66.4548 117.827 66.5934 117.704C66.7321 117.581 66.8334 117.44 66.8974 117.28C66.9668 117.12 67.0014 116.949 67.0014 116.768C67.0014 116.544 66.9401 116.36 66.8174 116.216C66.7001 116.067 66.5428 115.941 66.3454 115.84C66.1481 115.733 65.9214 115.643 65.6654 115.568C65.4148 115.488 65.1561 115.405 64.8894 115.32C64.6281 115.235 64.3694 115.139 64.1134 115.032C63.8628 114.92 63.6388 114.781 63.4414 114.616C63.2441 114.451 63.0841 114.248 62.9614 114.008C62.8441 113.763 62.7854 113.467 62.7854 113.12C62.7854 112.811 62.8494 112.515 62.9774 112.232C63.1054 111.944 63.2921 111.693 63.5374 111.48C63.7828 111.261 64.0841 111.088 64.4414 110.96C64.7988 110.832 65.2068 110.768 65.6654 110.768C66.1988 110.768 66.6761 110.853 67.0974 111.024C67.5241 111.189 67.8921 111.419 68.2014 111.712L67.8814 112.232Z" fill="black"/>
<path d="M49.7091 53.1491C65.9652 53.1491 80.4993 55.6863 90.4182 59.6412C88.3518 35.1653 70.9247 15.9874 49.7091 15.9874C28.4935 16.062 11.0665 35.1653 9 59.7159C18.919 55.6863 33.453 53.1491 49.7091 53.1491Z" fill="#8EC044"/>
<path d="M37.7237 28.6732C36.4149 30.688 35.6572 32.5535 36.1394 34.1206C36.5527 35.6876 38.3436 36.9562 40.2034 37.777C38.6191 33.8967 41.9255 30.688 42.8209 28.7478C43.7164 26.733 44.1297 24.8675 43.5786 23.3004C43.0964 21.7333 41.6499 20.4648 40.3412 19.6439C40.7545 20.4648 41.1678 21.7333 40.6856 23.3004C40.3412 24.7928 39.1013 26.6584 37.7237 28.6732Z" fill="#EDEDED"/>
<path d="M57.9748 20.9125C57.1482 22.1811 56.666 23.375 56.9415 24.3451C57.1482 25.3898 58.1814 26.2107 59.2835 26.8076C58.4569 24.2705 60.4545 22.3303 61.0056 21.0618C61.5566 19.7932 61.8321 18.5992 61.5566 17.5545C61.35 16.5844 60.5234 15.689 59.7657 15.1666C59.9723 15.689 60.2479 16.5098 59.9035 17.5545C59.6279 18.5246 58.8013 19.6439 57.9748 20.9125Z" fill="#EDEDED"/>
<path d="M44.474 28.3747C43.7852 29.3448 43.4408 30.2403 43.5786 31.0611C43.7163 31.882 44.474 32.6282 45.2317 33.0759C44.6807 31.0611 46.265 29.5687 46.7471 28.524C47.2293 27.5539 47.436 26.5838 47.2293 25.763C47.0915 24.9421 46.4716 24.2705 45.9206 23.7482C46.0583 24.1959 46.1961 24.8675 45.9894 25.6137C45.7828 26.5092 45.1629 27.4046 44.474 28.3747Z" fill="#EDEDED"/>
<path d="M64.1054 40.762C63.4854 41.5828 63.0721 42.329 63.141 43.0752C63.2099 43.8215 63.761 44.4931 64.3809 45.0154C64.1054 43.1499 65.5519 41.9559 66.0341 41.0605C66.5162 40.2396 66.7918 39.4188 66.7229 38.6726C66.654 37.9263 66.2407 37.2547 65.7585 36.807C65.8274 37.1801 65.8963 37.7771 65.6208 38.5233C65.4141 39.1949 64.7942 39.9411 64.1054 40.762Z" fill="#EDEDED"/>
<path d="M39.1012 55.5371C38.8257 56.2833 38.7568 56.8803 38.9635 57.328C39.1701 57.7757 39.6523 58.1488 40.2033 58.2981C39.5834 57.1041 40.2722 55.9102 40.41 55.2386C40.5478 54.567 40.5478 53.97 40.3411 53.4477C40.1345 52.9999 39.6523 52.6268 39.3079 52.403C39.4456 52.6268 39.6523 52.9999 39.5834 53.5223C39.5834 54.1939 39.3079 54.8655 39.1012 55.5371Z" fill="#EDEDED"/>
<path d="M29.0445 36.7323C28.3557 37.777 27.9424 38.6724 28.218 39.5679C28.4246 40.3887 29.2512 41.0603 30.1466 41.5827C29.4578 39.4933 31.111 37.9262 31.5932 36.8815C32.0753 35.8368 32.282 34.8667 32.0065 34.0459C31.7998 33.225 31.111 32.5534 30.4911 32.1057C30.6977 32.5534 30.8355 33.225 30.6288 34.0459C30.3533 34.7921 29.6645 35.6876 29.0445 36.7323Z" fill="#EDEDED"/>
<path d="M19.1944 55.164L19.5388 56.2087C20.2965 58.4474 19.7454 59.9398 17.7479 61.0591C16.3014 61.88 14.4416 61.283 13.6839 59.7159C12.9262 58.1489 13.4772 56.1341 14.9237 55.3132L13.8905 53.1492C11.3419 54.567 10.3086 58.0743 11.6863 60.8353C13.0639 63.5963 16.2325 64.7156 18.7811 63.2978C21.4675 61.8053 22.5696 59.3428 21.9497 56.4326L31.0421 51.2837L30.0088 49.1196L19.1944 55.164Z" fill="#AEAEAE"/>
<path d="M21.6741 56.134L21.743 56.5071C22.294 59.0443 21.2608 61.2083 18.7122 62.6261C16.3702 63.9693 13.4772 63.0738 12.3751 60.686C11.273 58.3727 12.0995 55.3878 14.3726 54.0446L13.8905 53.1491C11.2041 54.7908 10.1708 58.298 11.5485 61.1337C12.9261 64.0439 16.3702 65.0886 19.1255 63.5216C21.8807 61.9545 23.1206 59.5666 22.7073 56.731L31.3175 51.8806L30.9043 50.9851L21.6741 56.134Z" fill="#797979"/>
<path d="M35.1748 50.4628C35.1748 50.4628 33.1773 56.6565 27.4601 57.2534C27.4601 57.2534 22.9828 52.9254 24.2915 45.5378L30.1465 43.6722C30.1465 43.6722 32.2129 49.3435 35.1748 50.4628Z" fill="url(#paint0_linear)"/>
<path d="M24.2915 45.687H26.5646C26.5646 45.687 25.9446 51.6568 31.7996 55.761C31.7996 55.761 29.3198 57.7758 27.3223 57.1788C27.3911 57.1042 23.2582 52.1045 24.2915 45.687Z" fill="#8D1003"/>
<path d="M24.7047 46.1348C24.7047 46.1348 24.6358 46.881 24.7047 47.9257C24.7047 48.2242 24.7047 48.5227 24.7736 48.8212C24.7736 49.1196 24.8424 49.4928 24.9113 49.7912C24.9802 50.1644 25.0491 50.4628 25.118 50.8359C25.1869 51.2091 25.3246 51.5075 25.3935 51.8807C25.5313 52.1791 25.6001 52.5523 25.8068 52.8507C25.9446 53.1492 26.0823 53.4477 26.289 53.7462C26.4267 54.0447 26.6334 54.2686 26.7711 54.4924C26.9778 54.7163 27.1155 54.9402 27.3222 55.0894C27.5288 55.2386 27.6666 55.3879 27.8044 55.5371C27.9421 55.6118 28.0799 55.761 28.2176 55.8356C28.4243 55.9849 28.5621 56.0595 28.5621 56.0595L27.8732 57.3281C27.8732 57.3281 27.7355 57.1788 27.4599 56.9549C27.3222 56.8057 27.1844 56.7311 26.9778 56.5818C26.84 56.4326 26.6334 56.2087 26.4267 55.9849C26.2201 55.761 26.0823 55.4625 25.8757 55.2386C25.669 54.9402 25.5313 54.6417 25.3246 54.3432C25.118 54.0447 25.0491 53.6716 24.9113 53.2985C24.7736 52.9254 24.7047 52.5523 24.5669 52.1791C24.498 51.806 24.4292 51.4329 24.3603 51.0598C24.2914 50.6867 24.2225 50.3136 24.2225 49.9405C24.2225 49.5674 24.1536 49.2689 24.1536 48.8958C24.1536 48.5973 24.1536 48.2988 24.1536 48.0003C24.2225 46.881 24.2914 46.1348 24.2914 46.1348H24.7047Z" fill="#6B0F09"/>
<path d="M29.9397 44.2693C29.9397 44.2693 29.9397 44.2693 29.9397 44.3439C29.9397 44.4185 29.9397 44.4932 29.9397 44.6424C29.9397 44.8663 30.0086 45.2394 30.1464 45.6125C30.2152 45.8363 30.2841 45.9856 30.353 46.2095C30.4219 46.4333 30.5596 46.6572 30.6285 46.8811C30.7663 47.1049 30.9041 47.3288 31.0418 47.5526C31.1796 47.7765 31.3173 48.0004 31.524 48.1496C31.7306 48.3735 31.8684 48.5227 32.075 48.7466C32.2817 48.8958 32.4195 49.1197 32.6261 49.269C32.8327 49.4182 32.9705 49.5674 33.1772 49.7167C33.3838 49.8659 33.5216 49.9405 33.7282 50.0152C34.0726 50.239 34.3481 50.3137 34.5548 50.4629C34.7614 50.5375 34.8992 50.6121 34.8992 50.6121L34.3481 51.9553C34.3481 51.9553 34.2104 51.8807 34.0037 51.7315C33.7971 51.5822 33.5216 51.433 33.1772 51.1345C33.0394 50.9853 32.8327 50.836 32.6261 50.6868C32.4195 50.5375 32.2817 50.3137 32.075 50.1644C31.8684 49.9405 31.7306 49.7167 31.524 49.5674C31.3173 49.3436 31.1796 49.1197 30.9729 48.8958C30.8352 48.672 30.6285 48.3735 30.5596 48.1496C30.4219 47.9258 30.2841 47.6273 30.2152 47.4034C30.0775 47.1795 30.0086 46.8811 29.9397 46.6572C29.8708 46.4333 29.8019 46.2095 29.8019 45.9856C29.7331 45.5379 29.7331 45.1648 29.6642 44.9409C29.6642 44.7916 29.6642 44.717 29.6642 44.6424C29.6642 44.5678 29.6642 44.5678 29.6642 44.5678L29.9397 44.2693Z" fill="#981418"/>
<path d="M28.011 46.2095C28.011 46.2095 28.011 46.2095 28.011 46.2841C28.011 46.3587 28.011 46.4333 28.011 46.5826C28.011 46.8064 28.0799 47.1796 28.2177 47.5527C28.2865 47.7765 28.3554 47.9258 28.4243 48.1496C28.4932 48.3735 28.6309 48.5974 28.6998 48.8212C28.8376 49.0451 28.9754 49.269 29.1131 49.4928C29.2509 49.7167 29.3886 49.9406 29.5953 50.0898C29.8019 50.3137 29.9397 50.4629 30.1463 50.6868C30.353 50.836 30.4908 51.0599 30.6974 51.2091C30.904 51.3584 31.0418 51.5076 31.2484 51.6569C31.4551 51.8061 31.5929 51.8807 31.7995 51.9554C32.1439 52.1792 32.4194 52.2538 32.6261 52.4031C32.8327 52.4777 32.9016 52.5523 32.9016 52.5523L32.3506 53.8955C32.3506 53.8955 32.2128 53.8209 32.0061 53.6717C31.7306 53.3732 31.3862 53.2239 31.0418 52.9254C30.904 52.7762 30.6974 52.627 30.4908 52.4777C30.2841 52.3285 30.1463 52.1046 29.9397 51.9554C29.7331 51.7315 29.5953 51.5076 29.3886 51.3584C29.182 51.1345 29.0442 50.9107 28.9065 50.6868C28.7687 50.4629 28.5621 50.1644 28.4932 49.9406C28.3554 49.6421 28.2177 49.4182 28.1488 49.1943C28.011 48.9705 27.9421 48.672 27.8732 48.4481C27.8044 48.2243 27.7355 48.0004 27.7355 47.7765C27.5977 47.1796 27.5977 46.8064 27.5977 46.5826C27.5977 46.4333 27.5977 46.3587 27.5977 46.2841C27.5977 46.2095 27.5977 46.2095 27.5977 46.2095H28.011Z" fill="#981418"/>
<path d="M25.8757 45.4632L29.4575 44.0454L29.5264 44.4931L25.9446 45.6871L25.8757 45.4632Z" fill="#F1A284"/>
<path d="M29.9399 49.045L31.042 51.2837L59.7657 35.0161L59.5591 32.3297L29.9399 49.045Z" fill="#CECECE"/>
<path d="M30.9042 50.9106L31.3175 51.806L59.8345 35.6877L59.7656 34.5684L30.9042 50.9106Z" fill="#797979"/>
<path d="M36.6214 39.4188C36.5525 39.4934 36.4147 39.5681 36.3458 39.7173C34.0039 42.1798 34.0039 46.284 36.3458 48.8958C38.6878 51.5076 42.4763 51.6568 44.8183 49.1197C44.8183 49.1197 44.8183 49.1197 44.8872 49.045L36.6214 39.4188Z" fill="url(#paint1_linear)"/>
<path d="M40.7544 51.3583C38.9634 51.3583 37.3103 50.6121 36.0704 49.1943C33.5907 46.4333 33.5907 42.0306 36.1393 39.4188C36.2082 39.3442 36.277 39.2696 36.4148 39.195L36.7592 38.8965L45.4383 49.1943L45.1628 49.4928C43.9229 50.6867 42.4075 51.3583 40.7544 51.3583ZM36.6215 40.0158C34.4172 42.3291 34.4172 46.2094 36.6215 48.672C37.7236 49.9405 39.1701 50.6121 40.7544 50.6121C42.0631 50.6121 43.3719 50.0898 44.3362 49.1943L36.6215 40.0158Z" fill="#91140C"/>
<path d="M41.3055 47.0302C39.9278 48.0749 38.8946 47.4033 38.1369 46.2094C37.3792 45.09 38.1369 44.5677 38.2058 43.8215C38.2058 42.1798 36.6904 41.5828 36.2082 42.1052C35.4505 42.926 35.2439 45.9109 37.1037 47.9257C38.9635 50.0151 40.5478 50.0151 42.4764 49.1196C43.303 48.8958 41.9943 46.5825 41.3055 47.0302Z" fill="#A3151B"/>
<path d="M36.6904 44.0454C36.4148 43.8962 36.2082 43.9708 36.1393 44.1947C36.0704 44.4185 36.2771 44.6424 36.4837 44.7916C36.7592 44.9409 37.4481 44.8663 37.4481 44.8663C37.5169 44.8663 36.9659 44.1947 36.6904 44.0454Z" fill="#E94E1B"/>
<path d="M36.7592 45.687C36.4837 45.687 36.3459 45.9109 36.4148 46.1347C36.4837 46.3586 36.6903 46.5825 36.9658 46.5079C37.2414 46.5079 37.7924 46.0601 37.7924 46.0601C37.7924 46.0601 37.0347 45.687 36.7592 45.687Z" fill="#E94E1B"/>
<path d="M37.5857 47.3287C37.3791 47.478 37.3102 47.7765 37.5169 47.9257C37.6546 48.1496 37.9302 48.1496 38.1368 48.0003C38.3434 47.8511 38.5501 47.1795 38.5501 47.1049C38.5501 47.1795 37.7924 47.1795 37.5857 47.3287Z" fill="#E94E1B"/>
<path d="M38.9634 48.448C38.8945 48.6719 38.9634 48.9704 39.17 49.1196C39.3767 49.2689 39.5833 49.1196 39.7211 48.8958C39.79 48.6719 39.7211 47.8511 39.6522 47.8511C39.5833 47.7764 39.0323 48.2242 38.9634 48.448Z" fill="#E94E1B"/>
<path d="M40.4788 48.8958C40.5477 49.1943 40.7543 49.4181 40.961 49.4181C41.1676 49.4181 41.3054 49.1943 41.3054 48.8958C41.2365 48.5973 40.8232 47.8511 40.8232 47.8511C40.7543 47.8511 40.4788 48.5973 40.4788 48.8958Z" fill="#E94E1B"/>
<path d="M62.3832 37.3293C61.1433 39.2694 57.3548 40.0157 55.495 37.8516C53.6352 35.613 53.5663 31.7326 55.1506 29.5686C56.5282 27.703 59.6968 27.6284 61.5566 29.8671C63.4164 32.0311 63.623 35.3891 62.3832 37.3293Z" fill="url(#paint2_linear)"/>
<path d="M58.5947 39.4933C57.217 39.4933 56.046 38.971 55.2883 38.0009C53.4285 35.7622 53.2219 31.658 54.9439 29.3447C55.6328 28.3746 56.8037 27.8523 58.0436 27.8523C59.4213 27.8523 60.7989 28.5239 61.7632 29.6432C63.623 31.8819 63.9674 35.3145 62.6587 37.5531C61.901 38.6725 60.2478 39.4933 58.5947 39.4933ZM58.0436 28.4493C56.9415 28.4493 55.9083 28.897 55.3572 29.7178C53.773 31.8819 53.9796 35.5383 55.7016 37.6278C56.3905 38.4486 57.4237 38.8963 58.5947 38.8963C60.1101 38.8963 61.4877 38.2247 62.1076 37.18C63.2097 35.4637 63.2097 32.255 61.2811 30.0163C60.5234 28.9716 59.2835 28.4493 58.0436 28.4493Z" fill="#91140C"/>
<path d="M62.1076 35.3145C61.9698 36.1354 60.3855 34.8668 60.6611 34.2698C61.2121 32.9266 60.7299 31.9565 59.9034 31.2103C59.0768 30.4641 58.8701 31.285 58.388 31.285C57.3547 31.3596 56.8037 29.7925 57.1481 29.3448C57.6303 28.5986 59.559 28.3747 61.0055 30.1656C62.3831 31.8819 62.5898 33.3744 62.1076 35.3145Z" fill="#A3151B"/>
<path d="M58.3191 29.7925C58.1813 29.5686 58.2502 29.2701 58.3879 29.2701C58.5257 29.1955 58.7323 29.3447 58.8012 29.6432C58.8701 29.8671 58.939 30.6133 58.939 30.6133C58.8701 30.5387 58.3879 30.0163 58.3191 29.7925Z" fill="#E94E1B"/>
<path d="M59.4211 29.7925C59.4211 29.5687 59.49 29.3448 59.6967 29.4194C59.8344 29.494 59.9722 29.7179 60.0411 29.9418C60.0411 30.1656 59.8344 30.7626 59.8344 30.7626C59.6967 30.7626 59.4211 30.091 59.4211 29.7925Z" fill="#E94E1B"/>
<path d="M60.5233 30.6133C60.5922 30.3895 60.7989 30.3895 60.9366 30.5387C61.0744 30.6879 61.1433 30.9118 61.0744 31.1357C61.0055 31.3595 60.5922 31.5834 60.5233 31.5834C60.4545 31.5088 60.4545 30.7626 60.5233 30.6133Z" fill="#E94E1B"/>
<path d="M61.3499 31.882C61.4877 31.8074 61.6943 31.882 61.7632 32.1059C61.8321 32.3297 61.8321 32.5536 61.6255 32.6282C61.4877 32.7028 60.9366 32.6282 60.9366 32.6282C61.0055 32.5536 61.2122 31.9566 61.3499 31.882Z" fill="#E94E1B"/>
<path d="M61.7632 33.3744C61.9698 33.3744 62.1076 33.5983 62.1765 33.8221C62.1765 34.046 62.0387 34.1952 61.9009 34.1206C61.6943 34.1206 61.2121 33.6729 61.2121 33.6729C61.0743 33.5983 61.5565 33.3744 61.7632 33.3744Z" fill="#E94E1B"/>
<path d="M60.8676 37.2548C61.3498 37.0309 60.1788 35.0907 59.8344 35.4638C59.0767 36.2847 58.319 35.6877 57.6991 34.7176C57.0791 33.7475 57.4924 33.3744 57.4235 32.7774C57.2169 31.4342 56.1148 30.9119 55.9081 31.285C55.4948 31.882 55.7704 34.4191 57.2858 36.1354C58.6634 37.9264 59.6966 38.001 60.8676 37.2548Z" fill="#A3151B"/>
<path d="M56.3904 32.852C56.1837 32.7027 56.046 32.7774 56.046 32.9266C56.046 33.0758 56.1837 33.2997 56.3904 33.449C56.597 33.5982 57.0103 33.5236 57.0792 33.5236C57.0103 33.5236 56.597 33.0012 56.3904 32.852Z" fill="#E94E1B"/>
<path d="M56.6659 34.2698C56.5282 34.2698 56.3904 34.419 56.4593 34.6429C56.5282 34.8667 56.7348 35.016 56.8726 35.016C57.0104 35.016 57.3548 34.7175 57.3548 34.6429C57.3548 34.5683 56.8726 34.2698 56.6659 34.2698Z" fill="#E94E1B"/>
<path d="M57.4236 35.6131C57.2858 35.7624 57.3547 35.9862 57.4236 36.1355C57.5614 36.2847 57.6991 36.3594 57.8369 36.2101C57.9746 36.0609 58.0435 35.5385 58.0435 35.5385C58.0435 35.4639 57.5614 35.4639 57.4236 35.6131Z" fill="#E94E1B"/>
<path d="M58.4568 36.5831C58.4568 36.807 58.5257 37.0309 58.6635 37.1055C58.8013 37.1801 58.939 37.1055 59.0079 36.9563C59.0079 36.7324 58.8701 36.0608 58.8701 36.0608C58.8013 36.0608 58.4568 36.4339 58.4568 36.5831Z" fill="#E94E1B"/>
<path d="M59.559 36.9562C59.6279 37.1801 59.7656 37.4039 59.9034 37.4039C60.0412 37.4039 60.11 37.2547 60.0412 37.0308C59.9723 36.807 59.559 36.21 59.559 36.1354C59.559 36.1354 59.4901 36.7324 59.559 36.9562Z" fill="#E94E1B"/>
<path d="M58.8013 32.9266C58.939 32.7028 59.3523 32.1804 59.559 32.1058C60.0411 32.0312 60.3167 32.9266 60.3855 33.449C60.4544 34.1206 60.2478 34.4191 60.73 35.1653C61.0055 35.613 62.1076 36.4338 61.6943 36.9562C61.2121 36.4338 60.7988 35.8369 60.3167 35.2399C60.1789 35.0907 59.559 34.1952 59.4212 34.1952C58.939 34.1206 58.939 35.4638 58.3191 34.5683C57.9747 34.0459 57.9747 33.2997 57.768 32.7028C57.4925 32.1058 57.1481 31.5834 56.7348 31.1357C56.5282 30.9118 56.1149 30.5387 56.2526 30.1656C56.597 29.5686 58.6635 33.1505 58.8013 32.9266Z" fill="url(#paint3_linear)"/>
<path d="M41.8565 41.5828C41.8565 41.5828 42.2009 34.3445 47.7803 33.3744C47.7803 33.3744 53.0842 36.4339 53.4286 43.9707L48.0559 47.1794C48.0559 47.1048 44.9562 41.8813 41.8565 41.5828Z" fill="url(#paint4_linear)"/>
<path d="M53.3598 43.8215L51.1556 44.4185C51.1556 44.4185 50.4668 38.4487 43.8541 35.9862C43.8541 35.9862 45.7828 33.3745 47.9182 33.4491C47.9182 33.4491 53.0154 37.3294 53.3598 43.8215Z" fill="#8D1003"/>
<path d="M52.8777 43.523C52.8777 43.523 52.8088 42.7768 52.5333 41.7321C52.4644 41.5082 52.3955 41.2097 52.2577 40.9112C52.1889 40.6127 52.0511 40.3142 51.9133 40.0157C51.7756 39.7173 51.6378 39.4188 51.5 39.1203C51.3623 38.8218 51.1556 38.5233 51.0179 38.2248C50.8112 37.9263 50.6735 37.6278 50.4668 37.404C50.2602 37.1801 50.0535 36.8816 49.8469 36.6578C49.6402 36.4339 49.4336 36.21 49.1581 36.0608C48.9514 35.9115 48.7448 35.6877 48.5381 35.6131C48.3315 35.4638 48.1248 35.3892 47.9871 35.3146C47.7804 35.2399 47.6427 35.1653 47.5049 35.1653C47.2294 35.0907 46.1273 34.4191 46.1273 34.4191L47.5049 33.5983C47.5049 33.5983 47.6427 33.6729 47.9871 33.8221C48.1248 33.8968 48.3315 33.9714 48.5381 34.1206C48.7448 34.2699 48.9514 34.4191 49.1581 34.5684C49.4336 34.7176 49.6402 34.9415 49.8469 35.1653C50.1224 35.3892 50.329 35.6131 50.5357 35.9115C50.8112 36.21 50.949 36.5085 51.1556 36.807C51.3623 37.1055 51.5 37.4786 51.7067 37.7771C51.8444 38.1502 52.0511 38.4487 52.1889 38.8218C52.3266 39.1949 52.4644 39.4934 52.5333 39.8665C52.671 40.165 52.7399 40.5381 52.8088 40.8366C52.8777 41.1351 52.9466 41.4336 53.0154 41.7321C53.2221 42.8514 53.2221 43.5976 53.2221 43.5976L52.8777 43.523Z" fill="#6B0F09"/>
<path d="M43.1653 39.6427C43.1653 39.6427 43.3031 39.6427 43.5098 39.7173C43.7164 39.7919 44.0608 39.7919 44.4052 39.9412C44.6119 40.0158 44.8185 40.0904 45.0252 40.1651C45.2318 40.2397 45.4384 40.3889 45.714 40.4635C45.9206 40.6128 46.1961 40.6874 46.4028 40.8367C46.6094 40.9859 46.885 41.1351 47.0916 41.2844C47.2983 41.4336 47.5049 41.6575 47.7115 41.8814C47.9182 42.1052 48.1248 42.2545 48.2626 42.4783C48.4692 42.7022 48.607 42.9261 48.7448 43.0753C48.8825 43.2992 49.0203 43.523 49.0892 43.6723C49.2958 44.0454 49.4336 44.4185 49.5025 44.6424C49.5714 44.7916 49.5714 44.8662 49.5714 44.9409C49.5714 45.0155 49.5714 45.0901 49.5714 45.0901L48.8137 45.2393C48.8137 45.2393 48.8137 45.1647 48.7448 44.9409C48.6759 44.717 48.607 44.4185 48.4004 44.0454C48.3315 43.8962 48.1937 43.6723 48.1248 43.4484C47.9871 43.2246 47.9182 43.0753 47.7115 42.8514C47.5738 42.6276 47.436 42.4783 47.2294 42.2545C47.0916 42.0306 46.885 41.8814 46.6783 41.6575C46.4717 41.5082 46.265 41.2844 46.0584 41.1351C45.8517 40.9859 45.6451 40.8367 45.4384 40.6874C45.2318 40.5382 45.0252 40.4635 44.8185 40.3889C44.6119 40.3143 44.4052 40.2397 44.2675 40.1651C44.0608 40.0904 43.923 40.0158 43.7853 40.0158C43.6475 39.9412 43.5098 39.9412 43.372 39.8666C43.1654 39.7919 43.0276 39.7919 43.0276 39.7919L43.1653 39.6427Z" fill="#981418"/>
<path d="M53.2222 43.7468L47.9872 47.0302L47.9183 46.284L51.3624 44.1946L53.2222 43.7468Z" fill="#AF0E1B"/>
<path d="M54.6685 30.8373C54.6685 30.8373 53.9797 36.8816 59.1459 39.1203C59.1459 39.1203 56.0462 39.568 54.8063 36.6578C53.6353 33.8222 54.1175 30.7627 54.6685 30.8373Z" fill="#91140C"/>
<path d="M69.5469 26.733L59.5591 32.3297L59.7657 35.0161L70.5802 28.8971L69.5469 26.733Z" fill="#CECECE"/>
<path d="M70.3735 28.5239L59.7657 34.5683L59.8346 35.6876L70.8557 29.4194L70.3735 28.5239Z" fill="#797979"/>
<path d="M75.4708 27.7778C75.4708 27.7778 73.2666 34.1953 67.5494 34.8669C67.5494 34.8669 63.0721 30.5388 64.3809 23.1512L70.2358 21.4349C70.2358 21.4349 72.5089 26.7331 75.4708 27.7778Z" fill="url(#paint5_linear)"/>
<path d="M64.381 23.2258H66.6541C66.6541 23.2258 66.0342 29.1956 71.8891 33.2998C71.8891 33.2998 69.4094 35.3146 67.4118 34.7922C67.4807 34.7176 63.3478 29.7179 64.381 23.2258Z" fill="#8D1003"/>
<path d="M68.0317 23.5243C68.0317 23.5243 68.0317 23.5243 68.0317 23.5989C68.0317 23.6735 68.0317 23.7482 68.0317 23.8974C68.0317 24.1213 68.1005 24.4944 68.2383 24.8675C68.3072 25.0914 68.3761 25.2406 68.445 25.4645C68.5138 25.6883 68.6516 25.9122 68.7205 26.1361C68.8582 26.3599 68.996 26.5838 69.1338 26.8077C69.2715 27.0315 69.4093 27.2554 69.6159 27.4046C69.8226 27.6285 69.9604 27.7777 70.167 28.0016C70.3736 28.1508 70.5114 28.3747 70.7181 28.524C70.9247 28.6732 71.0625 28.8224 71.2691 28.9717C71.4758 29.1209 71.6135 29.1956 71.8202 29.2702C72.1646 29.494 73.3356 29.8672 73.5422 30.0164C73.7489 30.091 73.4733 30.3149 73.4733 30.3149L72.6467 31.4342C72.6467 31.4342 72.2335 31.1357 72.0268 30.9865C71.8202 30.8372 71.5446 30.688 71.2002 30.3895C71.0625 30.2403 70.8558 30.091 70.6492 29.9418C70.4425 29.7925 70.3048 29.5687 70.0981 29.4194C69.8915 29.1956 69.7537 28.9717 69.5471 28.8224C69.3404 28.5986 69.2027 28.3747 68.996 28.1508C68.8582 27.927 68.7205 27.6285 68.5827 27.4046C68.445 27.1061 68.3072 26.8823 68.2383 26.5838C68.1005 26.3599 68.0317 26.0614 67.9628 25.8376C67.8939 25.6137 67.825 25.3898 67.825 25.166C67.7561 24.7182 67.7561 24.3451 67.6873 24.1213C67.6873 23.972 67.6873 23.8974 67.6873 23.8228C67.6873 23.7482 67.6873 23.7482 67.6873 23.7482L68.0317 23.5243Z" fill="#A3151B"/>
<path d="M64.7943 23.6736C64.7943 23.6736 64.7254 24.4198 64.7943 25.4645C64.7943 25.763 64.7943 26.0615 64.8632 26.36C64.8632 26.6585 64.9321 27.0316 65.001 27.3301C65.0698 27.6285 65.1387 28.0017 65.2076 28.3748C65.2765 28.7479 65.4142 29.0464 65.4831 29.4195C65.6209 29.718 65.6898 30.0911 65.8964 30.3896C66.0342 30.688 66.1719 30.9865 66.3786 31.285C66.5163 31.5835 66.723 31.8074 66.8608 32.0312C67.0674 32.2551 67.2052 32.479 67.4118 32.6282C67.6185 32.7775 67.7562 32.9267 67.894 33.0759C68.0317 33.2252 68.1695 33.2998 68.3073 33.3744C68.5139 33.5237 69.7538 34.3445 69.7538 34.3445L67.9629 34.8669C67.9629 34.8669 67.8251 34.7176 67.5496 34.4938C67.4118 34.4191 67.274 34.2699 67.0674 34.1206C66.9296 33.9714 66.723 33.7475 66.5163 33.5237C66.3097 33.2998 66.1719 33.0013 65.9653 32.7775C65.7586 32.479 65.6209 32.1805 65.4831 31.882C65.2765 31.5835 65.2076 31.2104 65.0698 30.8373C64.9321 30.4642 64.8632 30.0911 64.7254 29.718C64.6565 29.3448 64.5877 28.9717 64.5188 28.5986C64.4499 28.2255 64.381 27.8524 64.381 27.4793C64.381 27.1062 64.3121 26.8077 64.3121 26.4346C64.3121 26.1361 64.3121 25.8376 64.3121 25.5391C64.381 24.4198 64.4499 23.6736 64.4499 23.6736H64.7943Z" fill="#6B0F09"/>
<path d="M70.0293 21.8826C70.0293 21.8826 70.0293 21.8826 70.0293 21.9572C70.0293 22.0318 70.0293 22.1064 70.0293 22.2557C70.0981 22.4795 70.0981 22.8527 70.2359 23.2258C70.3048 23.4496 70.3737 23.5989 70.4425 23.8227C70.5114 24.0466 70.6492 24.2705 70.7181 24.4943C70.8558 24.7182 70.9936 24.9421 71.1314 25.1659C71.2691 25.3898 71.4069 25.6137 71.6135 25.7629C71.8202 25.9868 71.9579 26.136 72.1646 26.3599C72.3712 26.5091 72.509 26.733 72.7156 26.8822C72.9223 27.0315 73.0601 27.1807 73.2667 27.33C73.4733 27.4792 73.6111 27.5538 73.8178 27.6285C74.1622 27.8523 74.4377 27.9269 74.6443 28.0762C74.851 28.1508 74.9887 28.2254 74.9887 28.2254L74.4377 29.5686C74.4377 29.5686 74.2999 29.494 74.0933 29.3448C73.8866 29.1955 73.6111 29.0463 73.2667 28.7478C73.1289 28.5985 72.9223 28.4493 72.7156 28.3001C72.509 28.1508 72.3712 27.9269 72.1646 27.7777C71.9579 27.5538 71.8202 27.33 71.6135 27.1807C71.4069 26.9569 71.2691 26.733 71.1314 26.5091C70.9936 26.2853 70.787 25.9868 70.7181 25.7629C70.5803 25.539 70.4425 25.2406 70.3737 25.0167C70.2359 24.7928 70.167 24.4943 70.0981 24.2705C70.0293 24.0466 69.9604 23.8227 69.9604 23.5989C69.6848 22.8527 69.616 22.5542 69.616 22.2557C69.616 22.1064 69.616 22.0318 69.616 21.9572C69.616 21.8826 69.616 21.8826 69.616 21.8826H70.0293Z" fill="#A3151B"/>
<path d="M64.5876 23.0766L70.2359 21.5095L69.616 22.1065L66.0341 23.2258L64.5876 23.0766Z" fill="#F1A284"/>
<path d="M78.5016 21.5841L69.5469 26.733L70.5802 28.8971L83.1166 21.808L78.5016 21.5841Z" fill="#CECECE"/>
<path d="M82.3589 21.7334L70.3735 28.524L70.8556 29.4195L84.2187 21.8826L82.3589 21.7334Z" fill="#797979"/>
<path d="M26.6336 66.8797L26.9092 67.9244C27.5291 70.2376 26.8403 71.6555 24.7738 72.5509C23.2584 73.2225 21.4675 72.4763 20.8476 70.8346C20.2276 69.1929 20.9165 67.2528 22.4319 66.5812L21.5364 64.2679C18.85 65.4618 17.6101 68.8198 18.7122 71.7301C19.8143 74.6403 22.914 75.9835 25.6004 74.7896C28.4246 73.521 29.7333 71.2077 29.32 68.2228L80.4303 45.0154L79.6037 42.7021L26.6336 66.8797Z" fill="#B2B2B2"/>
<path d="M29.0445 68.0737L29.1134 68.4468C29.4578 71.0585 28.2179 73.0733 25.6004 74.2673C23.1207 75.3866 20.3654 74.2673 19.4011 71.7301C18.4367 69.2676 19.5388 66.432 21.8808 65.238L21.4675 64.3426C18.7123 65.7604 17.4035 69.1184 18.5056 72.1032C19.6766 75.0881 22.9829 76.5059 25.876 75.1627C28.769 73.8942 30.1466 71.5809 29.94 68.6706L80.6369 45.7617L80.2925 44.7916L29.0445 68.0737Z" fill="#797979"/>
<path d="M42.2009 64.3425C42.2009 64.3425 39.3767 70.3123 33.6595 70.4615C33.6595 70.4615 29.5266 65.7603 31.3864 58.522L37.3791 57.1788C37.3791 57.1788 39.3078 62.9993 42.2009 64.3425Z" fill="url(#paint6_linear)"/>
<path d="M31.3864 58.5966L33.6595 58.8204C33.6595 58.8204 32.5573 64.7156 38.1368 69.3421C38.1368 69.3421 35.5193 71.133 33.5906 70.3868C33.5906 70.3868 29.871 64.9394 31.3864 58.5966Z" fill="#8D1003"/>
<path d="M31.7997 59.1189C31.7997 59.1189 31.6619 59.8652 31.6619 60.9099C31.6619 61.2083 31.6619 61.5068 31.6619 61.8053C31.6619 62.1038 31.6619 62.4769 31.7308 62.7754C31.7308 63.1485 31.7997 63.447 31.8686 63.8201C31.9374 64.1932 32.0063 64.4917 32.0752 64.8648C32.213 65.1633 32.2819 65.5364 32.4196 65.8349C32.5574 66.1334 32.6263 66.5065 32.8329 66.7304C32.9707 67.0289 33.1084 67.3273 33.3151 67.5512C33.4528 67.7751 33.5906 67.9989 33.7973 68.2228C33.935 68.372 34.0728 68.5959 34.2105 68.7452C34.3483 68.8944 34.4861 68.969 34.6238 69.0436C34.8305 69.1929 34.9682 69.3421 34.9682 69.3421L34.1417 70.5361C34.1417 70.5361 34.0039 70.3868 33.7973 70.163C33.6595 70.0137 33.5217 69.8645 33.384 69.7152C33.2462 69.4914 33.1084 69.3421 32.9018 69.0436C32.6951 68.8198 32.5574 68.5213 32.4196 68.2228C32.213 67.9243 32.1441 67.6258 32.0063 67.2527C31.8686 66.9542 31.7308 66.5811 31.6619 66.208C31.5242 65.8349 31.5242 65.4618 31.3864 65.0887C31.3175 64.7156 31.2486 64.3425 31.2486 63.9694C31.2486 63.5962 31.1797 63.2231 31.1797 62.85C31.1797 62.4769 31.1797 62.1784 31.1797 61.8053C31.1797 61.5068 31.2486 61.2083 31.2486 60.9099C31.3864 59.7905 31.593 59.0443 31.593 59.0443L31.7997 59.1189Z" fill="#6B0F09"/>
<path d="M37.1723 57.7758C37.1723 57.7758 37.1723 57.7758 37.1723 57.8504C37.1723 57.925 37.1723 57.9996 37.1723 58.1489C37.1723 58.3727 37.2412 58.7458 37.3101 59.119C37.379 59.3428 37.379 59.5667 37.4478 59.7905C37.5167 60.0144 37.5856 60.2383 37.7234 60.4621C37.7923 60.686 37.93 60.9099 38.0678 61.1337C38.2055 61.3576 38.3433 61.5815 38.4811 61.8053C38.6188 62.0292 38.8255 62.2531 38.9632 62.4023C39.1699 62.5516 39.3077 62.7754 39.4454 62.9247C39.6521 63.0739 39.7898 63.2232 39.9276 63.3724C40.0654 63.5216 40.272 63.5963 40.4098 63.7455C40.6853 63.9694 41.0297 64.1186 41.1675 64.2679C41.3741 64.4171 41.443 64.4171 41.443 64.4171L40.7542 65.6857C40.7542 65.6857 40.6164 65.6111 40.4098 65.4618C40.2031 65.3126 39.9276 65.0887 39.5832 64.7902C39.4454 64.641 39.2388 64.4917 39.101 64.3425C38.9632 64.1932 38.7566 63.9694 38.55 63.7455C38.3433 63.5216 38.2055 63.2978 38.0678 63.0739C37.93 62.85 37.7923 62.5516 37.5856 62.3277C37.4478 62.0292 37.3101 61.8053 37.2412 61.5069C37.1034 61.2084 37.0346 60.9845 36.9657 60.686C36.8968 60.3875 36.8279 60.1637 36.759 59.9398C36.6901 59.7159 36.6902 59.4174 36.6902 59.1936C36.6213 58.7458 36.6213 58.3727 36.6902 58.1489C36.6902 57.9996 36.6902 57.925 36.6902 57.8504C36.6902 57.7758 36.6902 57.7758 36.6902 57.7758H37.1723Z" fill="#981418"/>
<path d="M39.0322 66.9543C39.0322 66.9543 38.8944 66.8797 38.6877 66.7304C38.4811 66.5812 38.2056 66.4319 37.8612 66.2081C37.7234 66.0588 37.5168 65.9096 37.3101 65.7603C37.1723 65.6111 36.9657 65.3872 36.7591 65.238C36.5524 65.0887 36.4147 64.8649 36.208 64.641C36.0014 64.4172 35.8636 64.1933 35.7258 63.9694C35.5881 63.7456 35.4503 63.4471 35.3125 63.2232C35.1748 62.9993 35.037 62.7008 34.9681 62.477C34.8304 62.2531 34.7615 61.9546 34.6926 61.7308C34.6237 61.5069 34.5548 61.283 34.5548 61.0592C34.486 60.5368 34.486 60.1637 34.486 59.8652C34.486 59.716 34.486 59.6413 34.486 59.5667C34.486 59.4921 34.486 59.4175 34.486 59.4175L35.2437 59.5667C35.2437 59.5667 35.2437 59.6413 35.2437 59.9398C35.2437 60.1637 35.2437 60.5368 35.3125 60.9099C35.3125 61.1338 35.3814 61.3577 35.3814 61.5815C35.4503 61.8054 35.5192 62.0292 35.5881 62.2531C35.657 62.477 35.7258 62.7008 35.8636 62.9993C35.9325 63.2232 36.0702 63.4471 36.208 63.7456C36.3458 63.9694 36.4835 64.1933 36.6213 64.4172C36.7591 64.641 36.9657 64.8649 37.1035 65.0141C37.2412 65.1634 37.4479 65.3872 37.5856 65.5365C37.7234 65.6857 37.93 65.835 38.0678 65.9842C38.2056 66.1335 38.3433 66.2081 38.4811 66.3573C38.6189 66.4319 38.7566 66.5066 38.8255 66.5812C39.0322 66.7304 39.101 66.805 39.101 66.805L39.0322 66.9543Z" fill="#981418"/>
<path d="M32.9706 58.522L36.6902 57.4773V57.925L33.0395 58.7459L32.9706 58.522Z" fill="#F1A284"/>
<path d="M65.0697 48.5972C65.0697 48.5972 66.2407 43.1498 70.7869 41.8812C70.7869 41.8812 74.9198 44.7915 74.7132 51.0597L70.167 53.373C70.167 53.373 67.6183 49.0449 65.0697 48.5972Z" fill="url(#paint7_linear)"/>
<path d="M74.7131 50.9106L72.8533 51.2091C72.8533 51.2091 72.7155 46.2094 67.4116 43.6723C67.4116 43.6723 69.2025 41.6575 70.9246 41.8814C70.9246 41.956 74.8509 45.5379 74.7131 50.9106Z" fill="#8D1003"/>
<path d="M74.2998 50.6121C74.2998 50.6121 74.2998 50.0151 74.0932 49.1196C74.0243 48.8958 74.0243 48.6719 73.9554 48.448C73.8865 48.2242 73.8177 47.9257 73.7488 47.7018C73.6799 47.4033 73.5421 47.1795 73.4733 46.881C73.3355 46.5825 73.2666 46.3586 73.1288 46.0601C72.9911 45.8363 72.8533 45.5378 72.7156 45.3139C72.5778 45.0901 72.44 44.8662 72.2334 44.6423C72.0956 44.4185 71.889 44.2692 71.7512 44.12C71.5446 43.9707 71.4068 43.8215 71.269 43.6722C71.1313 43.5976 70.9246 43.4484 70.8557 43.3737C70.718 43.2991 70.5802 43.2245 70.5113 43.2245C70.3047 43.1499 70.1669 43.0753 70.1669 43.0753L70.6491 41.9559C70.6491 41.9559 70.7869 42.0306 70.9935 42.1798C71.1313 42.2544 71.269 42.329 71.4068 42.4783C71.5446 42.6275 71.7512 42.7768 71.889 42.926C72.0956 43.0753 72.2334 43.2991 72.44 43.4484C72.6467 43.6722 72.7844 43.8961 72.9911 44.12C73.1977 44.3438 73.3355 44.6423 73.4733 44.8662C73.611 45.1647 73.7488 45.4632 73.8865 45.687C74.0243 45.9855 74.0932 46.284 74.1621 46.5825C74.231 46.881 74.3687 47.1795 74.3687 47.478C74.4376 47.7764 74.5065 48.0749 74.5065 48.2988C74.5754 48.5973 74.5754 48.8211 74.5754 49.045C74.6442 49.9405 74.6442 50.6121 74.6442 50.6121H74.2998Z" fill="#6B0F09"/>
<path d="M70.2359 52.8508C70.2359 52.8508 70.2359 52.8508 70.2359 52.7762C70.2359 52.7016 70.2359 52.627 70.167 52.5523C70.0981 52.3285 70.0292 52.1046 69.8915 51.8061C69.8226 51.6569 69.7537 51.5076 69.6848 51.3584C69.6159 51.2091 69.4782 51.0599 69.3404 50.836C69.2026 50.6868 69.0649 50.5375 68.9271 50.3137C68.7894 50.1644 68.6516 50.0152 68.5138 49.866C68.3761 49.7167 68.1694 49.5675 68.0317 49.4928C67.8939 49.4182 67.6872 49.269 67.5495 49.1944C67.4117 49.1197 67.2051 49.0451 67.0673 48.8959C66.9295 48.8212 66.7229 48.7466 66.5851 48.672C66.3096 48.5228 66.0341 48.5228 65.8963 48.4481C65.7586 48.3735 65.6208 48.3735 65.6208 48.3735L65.9652 47.1796C65.9652 47.1796 66.103 47.2542 66.2407 47.3288C66.4474 47.4034 66.7229 47.4781 66.9984 47.7019C67.1362 47.7765 67.3428 47.8512 67.4806 48.0004C67.6184 48.1496 67.825 48.2243 68.0317 48.3735C68.2383 48.5228 68.3761 48.672 68.5827 48.8212C68.7894 48.9705 68.9271 49.1944 69.0649 49.3436C69.2026 49.5675 69.3404 49.7167 69.4782 49.9406C69.6159 50.1644 69.7537 50.3137 69.8226 50.5375C69.9603 50.7614 70.0292 50.9107 70.0981 51.1345C70.167 51.3584 70.2359 51.5076 70.3048 51.6569C70.4425 52.03 70.4425 52.3285 70.5114 52.4777C70.5114 52.5523 70.5114 52.7016 70.5114 52.7016C70.5114 52.7762 70.5114 52.7762 70.5114 52.7762L70.2359 52.8508Z" fill="#9A1418"/>
<path d="M66.5852 46.6571C66.5852 46.6571 66.7229 46.6571 66.8607 46.7317C67.0674 46.8063 67.274 46.881 67.6184 47.0302C67.7562 47.1048 67.9628 47.1795 68.1006 47.2541C68.2383 47.3287 68.445 47.4779 68.6516 47.5526C68.8583 47.7018 68.996 47.7764 69.2027 47.9257C69.4093 48.0749 69.5471 48.2242 69.7537 48.3734C69.8915 48.5227 70.0981 48.6719 70.2359 48.8958C70.3737 49.045 70.5114 49.2689 70.6492 49.4181C70.787 49.5674 70.8558 49.7912 70.9936 49.9405C71.0625 50.0897 71.2003 50.3136 71.2691 50.4628C71.4069 50.8359 71.4758 51.1344 71.5447 51.2837C71.5447 51.3583 71.6135 51.5075 71.6135 51.5075C71.6135 51.5821 71.6135 51.5821 71.6135 51.5821L70.9936 51.6568C70.9936 51.6568 70.9936 51.5821 70.9247 51.3583C70.8558 51.209 70.8558 50.9106 70.7181 50.6121C70.6492 50.4628 70.5803 50.3136 70.5114 50.0897C70.4426 49.9405 70.3737 49.7166 70.2359 49.5674C70.167 49.4181 70.0293 49.1942 69.8915 49.045C69.7537 48.8958 69.616 48.6719 69.4782 48.5227C69.3405 48.3734 69.2027 48.2242 68.996 48.0749C68.8583 47.9257 68.6516 47.7764 68.5139 47.7018C68.3761 47.6272 68.1695 47.4779 68.0317 47.4033C67.8939 47.3287 67.6873 47.2541 67.5495 47.1795C67.4118 47.1048 67.274 47.0302 67.1362 46.9556C66.9985 46.881 66.9296 46.881 66.7918 46.8063C66.5852 46.7317 66.5163 46.6571 66.5163 46.6571H66.5852Z" fill="#9A1418"/>
<path d="M67.4805 45.0901C67.4805 45.0901 67.5494 45.0901 67.756 45.1647C67.9627 45.2393 68.1693 45.314 68.5137 45.4632C68.6515 45.5378 68.8581 45.6124 68.9959 45.6871C69.1337 45.7617 69.3403 45.9109 69.547 45.9856C69.7536 46.1348 69.8914 46.2094 70.098 46.3587C70.3047 46.5079 70.4424 46.6571 70.6491 46.8064C70.7868 46.9556 70.9935 47.1049 71.1312 47.3287C71.269 47.478 71.4068 47.7019 71.5445 47.8511C71.6823 48.0003 71.7512 48.2242 71.8889 48.4481C71.9578 48.5973 72.0956 48.8212 72.1645 48.9704C72.3022 49.3435 72.3711 49.642 72.44 49.7913C72.44 49.8659 72.5089 50.0151 72.5089 50.0151C72.5089 50.0898 72.9222 51.0598 72.9222 51.0598L72.3022 51.4329C72.3022 51.4329 71.8201 50.0898 71.8201 49.9405C71.8201 49.7913 71.7512 49.4928 71.6134 49.1943C71.5445 49.045 71.4756 48.8958 71.4068 48.6719C71.3379 48.5227 71.269 48.2988 71.1312 48.1496C71.0624 48.0003 70.9246 47.7765 70.7868 47.6272C70.6491 47.478 70.5113 47.2541 70.3735 47.1049C70.2358 46.9556 70.098 46.8064 69.8914 46.6571C69.7536 46.5079 69.547 46.3587 69.4092 46.284C69.2714 46.2094 69.0648 46.0602 68.927 45.9856C68.7893 45.9109 68.5826 45.8363 68.4448 45.7617C68.3071 45.6871 68.1693 45.6124 68.0316 45.5378C67.8938 45.4632 67.8249 45.4632 67.6871 45.3886C67.4805 45.314 67.4116 45.2393 67.4116 45.2393L67.4805 45.0901Z" fill="#9A1418"/>
<path d="M73.4044 51.3583L70.6491 52.9253L70.5803 52.5522L73.3355 51.1344L73.4044 51.3583Z" fill="#F1A284"/>
<path d="M85.9409 44.3438C85.9409 44.3438 83.2545 50.5374 77.5373 50.6867C77.5373 50.6867 73.4044 45.9855 75.2642 38.7472L81.2569 37.5532C81.2569 37.4786 83.0479 43.0006 85.9409 44.3438Z" fill="url(#paint8_linear)"/>
<path d="M75.2643 38.8219L77.5374 39.0458C77.5374 39.0458 76.4353 44.9409 82.0147 49.5675C82.0147 49.5675 79.3972 51.3584 77.4685 50.6122C77.4685 50.5375 73.7489 45.1648 75.2643 38.8219Z" fill="#8D1003"/>
<path d="M78.9151 39.3442C78.9151 39.3442 78.9151 39.3442 78.9151 39.4188C78.9151 39.4934 78.9151 39.5681 78.9151 39.7173C78.9151 39.9412 78.984 40.3143 79.0529 40.6874C79.1217 40.9112 79.1217 41.1351 79.1906 41.2844C79.2595 41.5082 79.3284 41.7321 79.4662 41.956C79.535 42.1798 79.6728 42.4037 79.8106 42.6276C79.9483 42.8514 80.0861 43.0753 80.2238 43.2992C80.3616 43.523 80.4994 43.7469 80.706 43.8961C80.9127 44.0454 81.0504 44.2692 81.1882 44.4185C81.3948 44.5677 81.5326 44.717 81.6704 44.8662C81.8081 45.0155 82.0148 45.0901 82.1525 45.2393C82.4281 45.4632 83.6679 45.9855 83.8057 46.1348C84.0123 46.2094 83.7368 46.3586 83.7368 46.3586L82.8413 47.4034C82.8413 47.4034 82.4281 47.0302 82.2214 46.881C82.0148 46.7318 81.7392 46.5079 81.3948 46.2094C81.2571 46.0602 81.0504 45.9109 80.9127 45.7617C80.7749 45.5378 80.5683 45.3886 80.3616 45.1647C80.2238 44.9408 80.0172 44.717 79.8794 44.4931C79.7417 44.2692 79.6039 43.9707 79.3973 43.7469C79.2595 43.4484 79.1217 43.2245 79.0529 42.926C78.9151 42.6276 78.8462 42.4037 78.7773 42.1052C78.7085 41.8067 78.6396 41.5828 78.5707 41.359C78.5018 41.1351 78.5018 40.8366 78.5018 40.6128C78.4329 40.165 78.5018 39.7919 78.5018 39.5681C78.5018 39.4188 78.5018 39.3442 78.5018 39.2696C78.5018 39.1949 78.5018 39.1949 78.5018 39.1949L78.9151 39.3442Z" fill="#981418"/>
<path d="M75.6775 39.2696C75.6775 39.2696 75.5397 40.0158 75.5397 41.0605C75.5397 41.359 75.5397 41.6575 75.5397 41.956C75.5397 42.2544 75.5397 42.6276 75.6086 42.926C75.6086 43.2992 75.6775 43.5976 75.7464 43.9707C75.8153 44.3439 75.8841 44.6423 75.953 45.0155C76.0908 45.3139 76.1597 45.6871 76.2286 45.9855C76.3663 46.284 76.4352 46.6571 76.6418 46.881C76.7796 47.1795 76.9174 47.478 77.0551 47.7018C77.1929 47.9257 77.3307 48.1496 77.5373 48.3734C77.6751 48.5227 77.8128 48.7465 77.9506 48.8958C78.0884 49.045 78.2261 49.1197 78.3639 49.1943C78.5705 49.3435 79.7415 50.3136 79.7415 50.3136L77.8817 50.6867C77.8817 50.6867 77.744 50.5375 77.5373 50.3136C77.3995 50.1644 77.2618 50.0151 77.124 49.8659C76.9863 49.642 76.8485 49.4181 76.6418 49.1943C76.4352 48.9704 76.2974 48.6719 76.1597 48.3734C75.953 48.075 75.8841 47.7765 75.7464 47.4034C75.6086 47.1049 75.4709 46.7318 75.402 46.3586C75.2642 45.9855 75.2642 45.6124 75.1264 45.2393C75.0576 44.8662 74.9887 44.4931 74.9887 44.12C74.9887 43.7469 74.9198 43.3738 74.9198 43.0007C74.9198 42.6276 74.9198 42.3291 74.9198 41.956C74.9198 41.6575 74.9887 41.359 74.9887 41.0605C75.1264 39.9412 75.3331 39.1949 75.3331 39.1949L75.6775 39.2696Z" fill="#6B0F09"/>
<path d="M81.0504 37.9264C81.0504 37.9264 81.0504 37.9264 81.0504 38.001C81.0504 38.0756 81.0504 38.1503 81.0504 38.2995C81.0504 38.5234 81.1193 38.8965 81.1882 39.2696C81.2571 39.4935 81.2571 39.7173 81.326 39.9412C81.3949 40.165 81.4637 40.3889 81.6015 40.6128C81.6704 40.8366 81.8081 41.0605 81.9459 41.2844C82.0837 41.5082 82.2214 41.7321 82.3592 41.956C82.497 42.1798 82.7036 42.4037 82.8414 42.5529C83.048 42.7022 83.1858 42.9261 83.3235 43.0753C83.5302 43.2245 83.6679 43.3738 83.8057 43.523C83.9435 43.6723 84.1501 43.7469 84.2879 43.8961C84.5634 44.12 84.8389 44.2693 85.0456 44.4185C85.2522 44.5677 85.3211 44.5677 85.3211 44.5677L84.6323 45.8363C84.6323 45.8363 84.4945 45.7617 84.2879 45.6124C84.0812 45.4632 83.8057 45.2393 83.4613 44.9409C83.3235 44.7916 83.1169 44.6424 82.9791 44.4931C82.8414 44.3439 82.6347 44.12 82.4281 43.8961C82.2903 43.6723 82.0837 43.4484 81.9459 43.2245C81.8081 43.0007 81.6704 42.7022 81.4637 42.4783C81.326 42.1798 81.1882 41.956 81.1193 41.6575C81.0504 41.359 80.9127 41.1351 80.8438 40.8366C80.7749 40.5382 80.706 40.3143 80.6372 40.0904C80.5683 39.8666 80.5683 39.5681 80.5683 39.3442C80.4994 38.8965 80.5683 38.5234 80.5683 38.2995C80.5683 38.1503 80.5683 38.0756 80.5683 38.001C80.5683 37.9264 80.5683 37.9264 80.5683 37.9264H81.0504Z" fill="#981418"/>
<path d="M75.4709 38.5979L81.257 37.6278L80.5681 38.1502L76.9174 38.971L75.4709 38.5979Z" fill="#F1A284"/>
<path d="M47.0226 54.5671C47.0226 54.5671 49.3646 48.8959 55.0818 48.8959C55.0818 48.8959 59.2147 53.5971 57.286 60.8354L51.2933 61.9547C51.2933 62.0293 49.8468 55.985 47.0226 54.5671Z" fill="url(#paint9_linear)"/>
<path d="M57.286 60.7608L55.0129 60.5369C55.0129 60.5369 56.115 54.6418 50.6044 50.0152C50.6044 50.0152 53.2219 48.2243 55.2195 49.0451C55.1506 49.0451 58.8702 54.4179 57.286 60.7608Z" fill="#8D1003"/>
<path d="M56.8727 60.2384C56.8727 60.2384 57.0105 59.4922 57.0105 58.4475C57.0105 58.149 57.0105 57.8505 57.0105 57.552C57.0105 57.2535 57.0105 56.8804 56.9416 56.5819C56.9416 56.2834 56.8727 55.9103 56.8038 55.5372C56.7349 55.1641 56.666 54.8656 56.5972 54.4925C56.5283 54.1194 56.4594 53.8209 56.3216 53.5224C56.1839 53.2239 56.115 52.8508 55.9084 52.627C55.7706 52.3285 55.6328 52.03 55.4262 51.8061C55.2884 51.5823 55.1507 51.3584 54.944 51.1345C54.8062 50.9853 54.6685 50.7614 54.5307 50.6122C54.393 50.4629 54.2552 50.3883 54.1174 50.3137C53.9108 50.1644 53.0153 49.1944 53.0153 49.1944L54.5996 48.8959C54.5996 48.8959 54.7374 49.0451 54.944 49.269C55.0818 49.4182 55.2195 49.5675 55.3573 49.7167C55.4951 49.9406 55.6328 50.0898 55.8395 50.3883C56.0461 50.6122 56.1839 50.9107 56.3216 51.2092C56.5283 51.5076 56.5972 51.8061 56.7349 52.1792C56.8727 52.4777 56.9416 52.8508 57.0793 53.2239C57.2171 53.5971 57.2171 53.9702 57.3549 54.3433C57.4237 54.7164 57.4238 55.0895 57.4926 55.4626C57.4926 55.8357 57.5615 56.2088 57.4926 56.5819C57.4926 56.955 57.4926 57.2535 57.4926 57.6266C57.4926 57.9251 57.4238 58.2236 57.4238 58.5221C57.286 59.6414 57.0793 60.3876 57.0793 60.3876L56.8727 60.2384Z" fill="#6B0F09"/>
<path d="M48.8825 53.224C48.8825 53.224 49.0202 53.2986 49.2269 53.4479C49.4335 53.5971 49.709 53.7464 50.0534 54.0448C50.1912 54.1941 50.3979 54.3433 50.6045 54.4926C50.7423 54.6418 50.9489 54.8657 51.1556 55.0149C51.3622 55.2388 51.5 55.388 51.7066 55.6119C51.8444 55.8358 52.051 56.0596 52.1888 56.2835C52.3265 56.5074 52.4643 56.8058 52.6021 57.0297C52.7398 57.2536 52.8776 57.5521 52.9465 57.7759C53.0842 57.9998 53.1531 58.2983 53.222 58.5222C53.2909 58.746 53.3598 58.9699 53.3598 59.1938C53.4286 59.6415 53.4286 60.0146 53.4286 60.3131C53.4286 60.4623 53.4286 60.5369 53.4286 60.6116C53.4286 60.6862 53.4286 60.7608 53.4286 60.7608L52.6709 60.6116C52.6709 60.6116 52.6709 60.5369 52.6709 60.3131C52.6709 60.0892 52.6709 59.7907 52.6709 59.343C52.6709 59.1191 52.6021 58.8953 52.6021 58.6714C52.3954 58.4475 52.3954 58.2237 52.2577 57.9252C52.1888 57.7013 52.1199 57.4774 51.9821 57.179C51.9132 56.9551 51.7755 56.7312 51.6377 56.4327C51.5 56.2089 51.3622 55.985 51.2244 55.7611C51.0867 55.5373 50.88 55.3134 50.7423 55.1642C50.6045 54.9403 50.3979 54.7911 50.2601 54.6418C50.1223 54.4926 49.9157 54.3433 49.7779 54.1941C49.6402 54.0448 49.5024 53.9702 49.3646 53.821C49.2269 53.7464 49.0891 53.6717 49.0202 53.5971C48.8136 53.4479 48.7447 53.3732 48.7447 53.3732L48.8825 53.224Z" fill="#981418"/>
<path d="M57.1483 60.6116L51.2245 61.8801L51.3623 61.1339L55.2885 60.3877L57.1483 60.6116Z" fill="#AF0E1B"/>
<path d="M88.4206 38.8219L79.6038 42.8515L80.4303 45.1648L92.8979 39.4935L88.4206 38.8219Z" fill="#CECECE"/>
<path d="M92.2091 39.3442L80.2925 44.7916L80.637 45.7617L94 39.6427L92.2091 39.3442Z" fill="#797979"/>
<path d="M44.7495 53.5223C44.6117 53.597 44.5428 53.597 44.4051 53.6716C41.7876 55.164 40.8232 58.7459 42.2697 61.6561C43.7162 64.5664 46.9537 65.6857 49.5712 64.1186C49.5712 64.1186 49.5712 64.1186 49.6401 64.1186L44.7495 53.5223Z" fill="url(#paint10_linear)"/>
<path d="M47.0915 65.1633C44.9561 65.1633 43.0275 63.8947 41.9942 61.8053C40.4788 58.7458 41.5121 54.9401 44.2673 53.2984C44.3362 53.2238 44.4051 53.2238 44.474 53.1492L44.8873 52.9253L50.1223 64.1932L49.7779 64.4171C48.9513 64.9394 48.0558 65.1633 47.0915 65.1633ZM44.5429 53.97C42.132 55.3878 41.2365 58.7458 42.5453 61.4322C43.4407 63.2977 45.1628 64.4171 47.0915 64.4171C47.8492 64.4171 48.538 64.2678 49.1579 63.8947L44.5429 53.97Z" fill="#91140C"/>
<path d="M47.0225 61.3576C45.5759 61.88 44.8871 61.0591 44.4738 59.8652C44.0605 58.6712 44.8871 58.4474 45.0249 57.7758C45.4382 56.358 44.1983 55.3879 43.6473 55.761C42.8207 56.2087 41.9252 58.8205 43.0962 61.0591C44.1983 63.3724 45.5759 63.8201 47.5046 63.5217C48.3312 63.5217 47.7113 61.1338 47.0225 61.3576Z" fill="#A3151B"/>
<path d="M43.7162 57.5518C43.5096 57.4026 43.3029 57.3279 43.1652 57.5518C43.0963 57.7011 43.1652 57.9995 43.3718 58.1488C43.5785 58.298 44.1984 58.5219 44.1984 58.5219C44.2673 58.4473 43.9229 57.7011 43.7162 57.5518Z" fill="#E94E1B"/>
<path d="M43.3717 59.0443C43.165 58.9697 42.9584 59.1189 42.9584 59.3428C42.9584 59.5667 43.0961 59.7905 43.3717 59.8652C43.5783 59.9398 44.1982 59.7159 44.1982 59.7159C44.1982 59.5667 43.5783 59.0443 43.3717 59.0443Z" fill="#E94E1B"/>
<path d="M43.7162 60.6113C43.5096 60.6859 43.4407 60.9098 43.5096 61.1336C43.5785 61.3575 43.7851 61.4321 43.9918 61.3575C44.1984 61.2829 44.5428 60.7605 44.5428 60.7605C44.6117 60.7605 43.9229 60.5367 43.7162 60.6113Z" fill="#E94E1B"/>
<path d="M44.6805 61.9545C44.5427 62.1784 44.5427 62.4023 44.6805 62.6261C44.8182 62.7754 45.0249 62.7754 45.1626 62.5515C45.3004 62.3276 45.3693 61.656 45.3693 61.5814C45.3693 61.5814 44.8182 61.8053 44.6805 61.9545Z" fill="#E94E1B"/>
<path d="M45.9203 62.7754C45.9203 63.0739 45.9892 63.2978 46.1959 63.3724C46.4025 63.447 46.5403 63.2978 46.6092 62.9993C46.6092 62.7754 46.4025 61.9546 46.4025 61.9546C46.3336 61.9546 45.9892 62.4769 45.9203 62.7754Z" fill="#E94E1B"/>
<path d="M48.6756 61.9546L49.0889 62.8501C49.02 62.5516 48.8134 62.2531 48.6756 61.9546Z" fill="url(#paint11_linear)"/>
<path d="M63.9676 56.955C64.0364 56.8803 64.1742 56.8057 64.2431 56.7311C66.4473 54.5671 66.5162 50.836 64.4497 48.4481C62.3833 46.0602 58.9392 45.8363 56.8039 48.0003C56.8039 48.0003 56.8039 48.0003 56.735 48.0749L63.9676 56.955Z" fill="url(#paint12_linear)"/>
<path d="M63.9675 57.4027L56.3217 47.9257L56.5972 47.7019C57.6304 46.6572 59.008 46.0602 60.4546 46.0602C62.1077 46.0602 63.6231 46.8064 64.7941 48.1496C66.9983 50.6867 66.8606 54.6417 64.5186 56.955C64.4497 57.0296 64.3808 57.1042 64.3119 57.1788L63.9675 57.4027ZM57.2171 48.0003L63.9675 56.4326C66.034 54.4178 66.1029 50.9106 64.1742 48.6719C63.2098 47.478 61.7633 46.8064 60.3168 46.8064C59.2147 46.8064 58.1126 47.2541 57.2171 48.0003Z" fill="#91140C"/>
<path d="M59.9724 49.9405C61.2811 49.0451 62.1766 49.642 62.7965 50.7614C63.4853 51.8061 62.7276 52.2538 62.7276 52.9254C62.6588 54.4178 64.1053 55.0148 64.5186 54.4925C65.2763 53.8209 65.4829 51.0598 63.8297 49.1943C62.2455 47.2541 60.7989 47.1795 59.008 48.0004C58.1814 48.2242 59.3524 50.3136 59.9724 49.9405Z" fill="#A3151B"/>
<path d="M64.0364 52.7761C64.2431 52.9254 64.5186 52.8507 64.5186 52.6269C64.5875 52.4776 64.4497 52.1791 64.1742 52.0299C63.9676 51.8806 63.2787 51.8806 63.2787 51.9553C63.3476 52.0299 63.8298 52.6269 64.0364 52.7761Z" fill="#E94E1B"/>
<path d="M64.0363 51.2091C64.2429 51.2091 64.4496 51.0599 64.3807 50.836C64.3118 50.6121 64.1051 50.4629 63.8985 50.4629C63.6919 50.4629 63.1408 50.836 63.1408 50.836C63.1408 50.9106 63.7607 51.2091 64.0363 51.2091Z" fill="#E94E1B"/>
<path d="M63.3475 49.7913C63.5541 49.642 63.5541 49.4182 63.4164 49.1943C63.2786 49.0451 63.072 48.9704 62.8653 49.1197C62.6587 49.2689 62.452 49.8659 62.452 49.8659C62.452 49.8659 63.1408 49.8659 63.3475 49.7913Z" fill="#E94E1B"/>
<path d="M62.1077 48.672C62.1766 48.4481 62.1077 48.1496 61.9699 48.075C61.7633 47.9258 61.5566 48.075 61.4878 48.2242C61.4189 48.4481 61.4878 49.1943 61.4878 49.1943C61.4878 49.269 62.0388 48.8958 62.1077 48.672Z" fill="#E94E1B"/>
<path d="M60.7301 48.2988C60.7301 48.0004 60.5234 47.7765 60.3168 47.7765C60.1101 47.7765 59.9724 47.9257 60.0412 48.2242C60.0412 48.5227 60.4545 49.1197 60.4545 49.1943C60.5234 49.1943 60.7301 48.5227 60.7301 48.2988Z" fill="#E94E1B"/>
<path d="M58.2502 49.7913L57.6303 49.045C57.7681 49.2689 58.0436 49.5674 58.2502 49.7913Z" fill="url(#paint13_linear)"/>
<defs>
<linearGradient id="paint0_linear" x1="27.0955" y1="57.0981" x2="31.7412" y2="44.2223" gradientUnits="userSpaceOnUse">
<stop stop-color="#BD3529"/>
<stop offset="0.4672" stop-color="#CE3E24"/>
<stop offset="1" stop-color="#DE491D"/>
</linearGradient>
<linearGradient id="paint1_linear" x1="39.437" y1="39.8237" x2="39.9221" y2="49.6653" gradientUnits="userSpaceOnUse">
<stop stop-color="#BD1D1D"/>
<stop offset="0.4398" stop-color="#D2371B"/>
<stop offset="1" stop-color="#EA5619"/>
</linearGradient>
<linearGradient id="paint2_linear" x1="61.3285" y1="30.0944" x2="55.4924" y2="36.1841" gradientUnits="userSpaceOnUse">
<stop stop-color="#BD1D1D"/>
<stop offset="0.4398" stop-color="#D2371B"/>
<stop offset="1" stop-color="#EA5619"/>
</linearGradient>
<linearGradient id="paint3_linear" x1="59.8577" y1="32.3258" x2="58.2413" y2="34.0124" gradientUnits="userSpaceOnUse">
<stop stop-color="#EA5539"/>
<stop offset="0.3552" stop-color="#ED6C45"/>
<stop offset="1" stop-color="#F2905B"/>
</linearGradient>
<linearGradient id="paint4_linear" x1="48.428" y1="33.4892" x2="47.1819" y2="47.1014" gradientUnits="userSpaceOnUse">
<stop stop-color="#BD3529"/>
<stop offset="0.4672" stop-color="#CE3E24"/>
<stop offset="1" stop-color="#DE491D"/>
</linearGradient>
<linearGradient id="paint5_linear" x1="67.2352" y1="34.7234" x2="71.8383" y2="21.9658" gradientUnits="userSpaceOnUse">
<stop stop-color="#BD3529"/>
<stop offset="0.4672" stop-color="#CE3E24"/>
<stop offset="1" stop-color="#DE491D"/>
</linearGradient>
<linearGradient id="paint6_linear" x1="33.1844" y1="70.3231" x2="38.9325" y2="57.9718" gradientUnits="userSpaceOnUse">
<stop stop-color="#BD3529"/>
<stop offset="0.4672" stop-color="#CE3E24"/>
<stop offset="1" stop-color="#DE491D"/>
</linearGradient>
<linearGradient id="paint7_linear" x1="71.3041" y1="41.8104" x2="69.1777" y2="52.9978" gradientUnits="userSpaceOnUse">
<stop stop-color="#BD3529"/>
<stop offset="0.4672" stop-color="#CE3E24"/>
<stop offset="1" stop-color="#DE491D"/>
</linearGradient>
<linearGradient id="paint8_linear" x1="76.9756" y1="50.4608" x2="82.6709" y2="38.2227" gradientUnits="userSpaceOnUse">
<stop stop-color="#BD3529"/>
<stop offset="0.4672" stop-color="#CE3E24"/>
<stop offset="1" stop-color="#DE491D"/>
</linearGradient>
<linearGradient id="paint9_linear" x1="55.4492" y1="49.1361" x2="49.6614" y2="61.3222" gradientUnits="userSpaceOnUse">
<stop stop-color="#BD3529"/>
<stop offset="0.4672" stop-color="#CE3E24"/>
<stop offset="1" stop-color="#DE491D"/>
</linearGradient>
<linearGradient id="paint10_linear" x1="47.0394" y1="54.593" x2="44.8605" y2="63.1816" gradientUnits="userSpaceOnUse">
<stop stop-color="#BD1D1D"/>
<stop offset="0.4398" stop-color="#D2371B"/>
<stop offset="1" stop-color="#EA5619"/>
</linearGradient>
<linearGradient id="paint11_linear" x1="48.9324" y1="62.0573" x2="48.768" y2="62.7053" gradientUnits="userSpaceOnUse">
<stop stop-color="#EA5539"/>
<stop offset="0.3552" stop-color="#ED6C45"/>
<stop offset="1" stop-color="#F2905B"/>
</linearGradient>
<linearGradient id="paint12_linear" x1="61.4489" y1="56.5286" x2="61.2542" y2="47.6305" gradientUnits="userSpaceOnUse">
<stop stop-color="#BD1D1D"/>
<stop offset="0.4398" stop-color="#D2371B"/>
<stop offset="1" stop-color="#EA5619"/>
</linearGradient>
<linearGradient id="paint13_linear" x1="57.9075" y1="49.8046" x2="57.8928" y2="49.1338" gradientUnits="userSpaceOnUse">
<stop stop-color="#EA5539"/>
<stop offset="0.3552" stop-color="#ED6C45"/>
<stop offset="1" stop-color="#F2905B"/>
</linearGradient>
</defs>
</svg>
