<svg width="71" height="52" viewBox="0 0 71 52" fill="none" xmlns="http://www.w3.org/2000/svg">
<path d="M20.5766 24C14.0034 24 8.65308 18.6497 8.65308 12.0764C8.65308 5.50317 14.0034 0.152832 20.5766 0.152832C27.1499 0.152832 32.5002 5.50317 32.5002 12.0764C32.5002 18.6497 27.1499 24 20.5766 24ZM20.5766 1.52866C14.7677 1.52866 10.1817 6.2675 10.1817 11.9235C10.1817 17.7325 14.9206 22.3184 20.5766 22.3184C26.2327 22.3184 30.9715 17.5796 30.9715 11.9235C30.9715 6.2675 26.2327 1.52866 20.5766 1.52866Z" fill="#8DC63F"/>
<path d="M24.5508 16.8153C24.398 16.8153 24.0923 16.8153 23.9394 16.6624L19.9648 12.6879C19.812 12.535 19.812 12.3822 19.812 12.0764V5.50316C19.812 5.04456 20.1177 4.73883 20.5763 4.73883C21.0349 4.73883 21.3407 5.04456 21.3407 5.50316V11.6178L25.1623 15.4395C25.4681 15.7452 25.4681 16.2038 25.1623 16.5095C24.8566 16.6624 24.7037 16.8153 24.5508 16.8153Z" fill="#8DC63F"/>
<path d="M31.7355 12.6878H29.7482C29.2896 12.6878 28.9839 12.3821 28.9839 11.9235C28.9839 11.4649 29.2896 11.1592 29.7482 11.1592H31.7355C32.1941 11.1592 32.4998 11.4649 32.4998 11.9235C32.4998 12.3821 32.1941 12.6878 31.7355 12.6878Z" fill="#8DC63F"/>
<path d="M11.2517 12.6878H9.26433C8.80573 12.6878 8.5 12.3821 8.5 11.9235C8.5 11.4649 8.80573 11.1592 9.26433 11.1592H11.2517C11.7103 11.1592 12.016 11.4649 12.016 11.9235C12.016 12.3821 11.7103 12.6878 11.2517 12.6878Z" fill="#8DC63F"/>
<path d="M20.5763 24C20.1177 24 19.812 23.6942 19.812 23.2356V21.2484C19.812 20.7898 20.1177 20.4841 20.5763 20.4841C21.0349 20.4841 21.3407 20.7898 21.3407 21.2484V23.2356C21.3407 23.6942 20.8821 24 20.5763 24Z" fill="#8DC63F"/>
<path d="M20.5763 3.5159C20.1177 3.5159 19.812 3.21017 19.812 2.75157V0.764331C19.812 0.305732 20.1177 0 20.5763 0C21.0349 0 21.3407 0.305732 21.3407 0.764331V2.75157C21.3407 3.21017 20.8821 3.5159 20.5763 3.5159Z" fill="#8DC63F"/>
<path d="M50.5766 24C44.0034 24 38.6531 18.6497 38.6531 12.0764C38.6531 5.50317 44.0034 0.152832 50.5766 0.152832C57.1499 0.152832 62.5002 5.50317 62.5002 12.0764C62.5002 18.6497 57.1499 24 50.5766 24ZM50.5766 1.52866C44.7677 1.52866 40.1817 6.2675 40.1817 11.9235C40.1817 17.7325 44.9206 22.3184 50.5766 22.3184C56.2327 22.3184 60.9715 17.5796 60.9715 11.9235C60.9715 6.2675 56.2327 1.52866 50.5766 1.52866Z" fill="#8DC63F"/>
<path d="M54.5508 16.8153C54.398 16.8153 54.0923 16.8153 53.9394 16.6624L49.9648 12.6879C49.812 12.535 49.812 12.3822 49.812 12.0764V5.50316C49.812 5.04456 50.1177 4.73883 50.5763 4.73883C51.0349 4.73883 51.3407 5.04456 51.3407 5.50316V11.6178L55.1623 15.4395C55.4681 15.7452 55.4681 16.2038 55.1623 16.5095C54.8566 16.6624 54.7037 16.8153 54.5508 16.8153Z" fill="#8DC63F"/>
<path d="M61.7355 12.6878H59.7482C59.2896 12.6878 58.9839 12.3821 58.9839 11.9235C58.9839 11.4649 59.2896 11.1592 59.7482 11.1592H61.7355C62.1941 11.1592 62.4998 11.4649 62.4998 11.9235C62.4998 12.3821 62.1941 12.6878 61.7355 12.6878Z" fill="#8DC63F"/>
<path d="M41.2517 12.6878H39.2643C38.8057 12.6878 38.5 12.3821 38.5 11.9235C38.5 11.4649 38.8057 11.1592 39.2643 11.1592H41.2517C41.7103 11.1592 42.016 11.4649 42.016 11.9235C42.016 12.3821 41.7103 12.6878 41.2517 12.6878Z" fill="#8DC63F"/>
<path d="M50.5763 24C50.1177 24 49.812 23.6942 49.812 23.2356V21.2484C49.812 20.7898 50.1177 20.4841 50.5763 20.4841C51.0349 20.4841 51.3407 20.7898 51.3407 21.2484V23.2356C51.3407 23.6942 50.8821 24 50.5763 24Z" fill="#8DC63F"/>
<path d="M50.5763 3.5159C50.1177 3.5159 49.812 3.21017 49.812 2.75157V0.764331C49.812 0.305732 50.1177 0 50.5763 0C51.0349 0 51.3407 0.305732 51.3407 0.764331V2.75157C51.3407 3.21017 50.8821 3.5159 50.5763 3.5159Z" fill="#8DC63F"/>
<path d="M2.50392 44.0479H4.65992V37.2089C4.65992 37.0036 4.66692 36.7959 4.68092 36.5859L2.88892 38.1189C2.84226 38.1563 2.79559 38.1843 2.74892 38.2029C2.70226 38.2169 2.65792 38.2239 2.61592 38.2239C2.54592 38.2239 2.48292 38.2099 2.42692 38.1819C2.37092 38.1493 2.32892 38.1119 2.30092 38.0699L1.90892 37.5309L4.89092 34.9479H5.90592V44.0479H7.87992V44.9999H2.50392V44.0479ZM15.612 35.5149C15.612 35.6923 15.556 35.8393 15.444 35.9559C15.332 36.0679 15.143 36.1239 14.877 36.1239H11.727L11.265 38.7559C11.7877 38.6439 12.2707 38.5879 12.714 38.5879C13.2367 38.5879 13.6963 38.6649 14.093 38.8189C14.4943 38.9729 14.8303 39.1853 15.101 39.4559C15.3717 39.7266 15.5747 40.0463 15.71 40.4149C15.85 40.7836 15.92 41.1849 15.92 41.6189C15.92 42.1509 15.8267 42.6316 15.64 43.0609C15.4533 43.4903 15.1967 43.8589 14.87 44.1669C14.548 44.4703 14.1677 44.7036 13.729 44.8669C13.2903 45.0303 12.8167 45.1119 12.308 45.1119C12.014 45.1119 11.7317 45.0816 11.461 45.0209C11.1903 44.9649 10.9383 44.8879 10.705 44.7899C10.4717 44.6919 10.2547 44.5799 10.054 44.4539C9.85335 44.3279 9.67602 44.1949 9.52202 44.0549L9.90002 43.5229C9.98402 43.4016 10.096 43.3409 10.236 43.3409C10.3247 43.3409 10.4273 43.3783 10.544 43.4529C10.6653 43.5229 10.81 43.6023 10.978 43.6909C11.146 43.7796 11.342 43.8613 11.566 43.9359C11.7947 44.0059 12.0653 44.0409 12.378 44.0409C12.728 44.0409 13.043 43.9849 13.323 43.8729C13.603 43.7609 13.841 43.6023 14.037 43.3969C14.2377 43.1869 14.3917 42.9373 14.499 42.6479C14.6063 42.3586 14.66 42.0343 14.66 41.6749C14.66 41.3623 14.6133 41.0799 14.52 40.8279C14.4313 40.5759 14.2937 40.3613 14.107 40.1839C13.925 40.0066 13.6963 39.8689 13.421 39.7709C13.1457 39.6729 12.8237 39.6239 12.455 39.6239C12.203 39.6239 11.9417 39.6449 11.671 39.6869C11.4003 39.7289 11.1203 39.7966 10.831 39.8899L10.047 39.6589L10.859 34.9689H15.612V35.5149ZM20.9161 44.9999V37.9089H21.6581C21.8355 37.9089 21.9475 37.9953 21.9941 38.1679L22.0851 38.8959C22.3465 38.5739 22.6381 38.3103 22.9601 38.1049C23.2868 37.8996 23.6648 37.7969 24.0941 37.7969C24.5748 37.7969 24.9621 37.9299 25.2561 38.1959C25.5548 38.4619 25.7695 38.8213 25.9001 39.2739C25.9981 39.0173 26.1265 38.7956 26.2851 38.6089C26.4485 38.4223 26.6305 38.2683 26.8311 38.1469C27.0318 38.0256 27.2441 37.9369 27.4681 37.8809C27.6968 37.8249 27.9278 37.7969 28.1611 37.7969C28.5345 37.7969 28.8658 37.8576 29.1551 37.9789C29.4491 38.0956 29.6965 38.2683 29.8971 38.4969C30.1025 38.7256 30.2588 39.0079 30.3661 39.3439C30.4735 39.6753 30.5271 40.0556 30.5271 40.4849V44.9999H29.2811V40.4849C29.2811 39.9296 29.1598 39.5096 28.9171 39.2249C28.6745 38.9356 28.3221 38.7909 27.8601 38.7909C27.6548 38.7909 27.4588 38.8283 27.2721 38.9029C27.0901 38.9729 26.9291 39.0779 26.7891 39.2179C26.6491 39.3579 26.5371 39.5353 26.4531 39.7499C26.3738 39.9599 26.3341 40.2049 26.3341 40.4849V44.9999H25.0881V40.4849C25.0881 39.9156 24.9738 39.4909 24.7451 39.2109C24.5165 38.9309 24.1828 38.7909 23.7441 38.7909C23.4361 38.7909 23.1491 38.8749 22.8831 39.0429C22.6218 39.2063 22.3815 39.4303 22.1621 39.7149V44.9999H20.9161ZM33.9502 37.9089V44.9999H32.7042V37.9089H33.9502ZM34.2302 35.6829C34.2302 35.8043 34.2045 35.9186 34.1532 36.0259C34.1065 36.1286 34.0412 36.2219 33.9572 36.3059C33.8779 36.3853 33.7845 36.4483 33.6772 36.4949C33.5699 36.5416 33.4555 36.5649 33.3342 36.5649C33.2129 36.5649 33.0985 36.5416 32.9912 36.4949C32.8885 36.4483 32.7952 36.3853 32.7112 36.3059C32.6319 36.2219 32.5689 36.1286 32.5222 36.0259C32.4755 35.9186 32.4522 35.8043 32.4522 35.6829C32.4522 35.5616 32.4755 35.4473 32.5222 35.3399C32.5689 35.2279 32.6319 35.1323 32.7112 35.0529C32.7952 34.9689 32.8885 34.9036 32.9912 34.8569C33.0985 34.8103 33.2129 34.7869 33.3342 34.7869C33.4555 34.7869 33.5699 34.8103 33.6772 34.8569C33.7845 34.9036 33.8779 34.9689 33.9572 35.0529C34.0412 35.1323 34.1065 35.2279 34.1532 35.3399C34.2045 35.4473 34.2302 35.5616 34.2302 35.6829ZM36.2962 44.9999V37.9089H37.0382C37.2156 37.9089 37.3276 37.9953 37.3742 38.1679L37.4722 38.9379C37.7802 38.5973 38.1232 38.3219 38.5012 38.1119C38.8839 37.9019 39.3249 37.7969 39.8242 37.7969C40.2116 37.7969 40.5522 37.8623 40.8462 37.9929C41.1449 38.1189 41.3922 38.3009 41.5882 38.5389C41.7889 38.7723 41.9406 39.0546 42.0432 39.3859C42.1459 39.7173 42.1972 40.0836 42.1972 40.4849V44.9999H40.9512V40.4849C40.9512 39.9483 40.8276 39.5329 40.5802 39.2389C40.3376 38.9403 39.9642 38.7909 39.4602 38.7909C39.0916 38.7909 38.7462 38.8796 38.4242 39.0569C38.1069 39.2343 37.8129 39.4746 37.5422 39.7779V44.9999H36.2962ZM45.3035 37.9089V42.4309C45.3035 42.9676 45.4272 43.3829 45.6745 43.6769C45.9219 43.9709 46.2952 44.1179 46.7945 44.1179C47.1585 44.1179 47.5015 44.0316 47.8235 43.8589C48.1455 43.6863 48.4419 43.4459 48.7125 43.1379V37.9089H49.9585V44.9999H49.2165C49.0392 44.9999 48.9272 44.9136 48.8805 44.7409L48.7825 43.9779C48.4745 44.3186 48.1292 44.5939 47.7465 44.8039C47.3639 45.0093 46.9252 45.1119 46.4305 45.1119C46.0432 45.1119 45.7002 45.0489 45.4015 44.9229C45.1075 44.7923 44.8602 44.6103 44.6595 44.3769C44.4589 44.1436 44.3072 43.8613 44.2045 43.5299C44.1065 43.1986 44.0575 42.8323 44.0575 42.4309V37.9089H45.3035ZM54.3038 45.1119C53.7438 45.1119 53.3121 44.9556 53.0088 44.6429C52.7101 44.3303 52.5608 43.8799 52.5608 43.2919V38.9519H51.7068C51.6321 38.9519 51.5691 38.9309 51.5178 38.8889C51.4665 38.8423 51.4408 38.7723 51.4408 38.6789V38.1819L52.6028 38.0349L52.8898 35.8439C52.8991 35.7739 52.9295 35.7179 52.9808 35.6759C53.0321 35.6293 53.0975 35.6059 53.1768 35.6059H53.8068V38.0489H55.8368V38.9519H53.8068V43.2079C53.8068 43.5066 53.8791 43.7283 54.0238 43.8729C54.1685 44.0176 54.3551 44.0899 54.5838 44.0899C54.7145 44.0899 54.8265 44.0736 54.9198 44.0409C55.0178 44.0036 55.1018 43.9639 55.1718 43.9219C55.2418 43.8799 55.3001 43.8426 55.3468 43.8099C55.3981 43.7726 55.4425 43.7539 55.4798 43.7539C55.5451 43.7539 55.6035 43.7936 55.6548 43.8729L56.0188 44.4679C55.8041 44.6686 55.5451 44.8273 55.2418 44.9439C54.9385 45.0559 54.6258 45.1119 54.3038 45.1119ZM60.3975 37.7969C60.9155 37.7969 61.3821 37.8833 61.7975 38.0559C62.2175 38.2286 62.5721 38.4736 62.8615 38.7909C63.1555 39.1083 63.3795 39.4933 63.5335 39.9459C63.6921 40.3939 63.7715 40.8956 63.7715 41.4509C63.7715 42.0109 63.6921 42.5149 63.5335 42.9629C63.3795 43.4109 63.1555 43.7936 62.8615 44.1109C62.5721 44.4283 62.2175 44.6733 61.7975 44.8459C61.3821 45.0139 60.9155 45.0979 60.3975 45.0979C59.8795 45.0979 59.4105 45.0139 58.9905 44.8459C58.5751 44.6733 58.2205 44.4283 57.9265 44.1109C57.6325 43.7936 57.4061 43.4109 57.2475 42.9629C57.0888 42.5149 57.0095 42.0109 57.0095 41.4509C57.0095 40.8956 57.0888 40.3939 57.2475 39.9459C57.4061 39.4933 57.6325 39.1083 57.9265 38.7909C58.2205 38.4736 58.5751 38.2286 58.9905 38.0559C59.4105 37.8833 59.8795 37.7969 60.3975 37.7969ZM60.3975 44.1249C61.0975 44.1249 61.6201 43.8916 61.9655 43.4249C62.3108 42.9536 62.4835 42.2979 62.4835 41.4579C62.4835 40.6133 62.3108 39.9553 61.9655 39.4839C61.6201 39.0126 61.0975 38.7769 60.3975 38.7769C60.0428 38.7769 59.7348 38.8376 59.4735 38.9589C59.2121 39.0803 58.9928 39.2553 58.8155 39.4839C58.6428 39.7126 58.5121 39.9949 58.4235 40.3309C58.3395 40.6623 58.2975 41.0379 58.2975 41.4579C58.2975 41.8779 58.3395 42.2536 58.4235 42.5849C58.5121 42.9163 58.6428 43.1963 58.8155 43.4249C58.9928 43.6489 59.2121 43.8216 59.4735 43.9429C59.7348 44.0643 60.0428 44.1249 60.3975 44.1249ZM69.5168 39.0779C69.4608 39.1806 69.3744 39.2319 69.2578 39.2319C69.1878 39.2319 69.1084 39.2063 69.0198 39.1549C68.9311 39.1036 68.8214 39.0476 68.6908 38.9869C68.5648 38.9216 68.4131 38.8633 68.2358 38.8119C68.0584 38.7559 67.8484 38.7279 67.6058 38.7279C67.3958 38.7279 67.2068 38.7559 67.0388 38.8119C66.8708 38.8633 66.7261 38.9356 66.6048 39.0289C66.4881 39.1223 66.3971 39.2319 66.3318 39.3579C66.2711 39.4793 66.2408 39.6123 66.2408 39.7569C66.2408 39.9389 66.2921 40.0906 66.3948 40.2119C66.5021 40.3333 66.6421 40.4383 66.8148 40.5269C66.9874 40.6156 67.1834 40.6949 67.4028 40.7649C67.6221 40.8303 67.8461 40.9026 68.0748 40.9819C68.3081 41.0566 68.5344 41.1406 68.7538 41.2339C68.9731 41.3273 69.1691 41.4439 69.3418 41.5839C69.5144 41.7239 69.6521 41.8966 69.7548 42.1019C69.8621 42.3026 69.9158 42.5453 69.9158 42.8299C69.9158 43.1566 69.8574 43.4599 69.7408 43.7399C69.6241 44.0153 69.4514 44.2556 69.2228 44.4609C68.9941 44.6616 68.7141 44.8203 68.3828 44.9369C68.0514 45.0536 67.6688 45.1119 67.2348 45.1119C66.7401 45.1119 66.2921 45.0326 65.8908 44.8739C65.4894 44.7106 65.1488 44.5029 64.8688 44.2509L65.1628 43.7749C65.2001 43.7143 65.2444 43.6676 65.2958 43.6349C65.3471 43.6023 65.4148 43.5859 65.4988 43.5859C65.5828 43.5859 65.6714 43.6186 65.7648 43.6839C65.8581 43.7493 65.9701 43.8216 66.1008 43.9009C66.2361 43.9803 66.3971 44.0526 66.5838 44.1179C66.7751 44.1833 67.0131 44.2159 67.2978 44.2159C67.5404 44.2159 67.7528 44.1856 67.9348 44.1249C68.1168 44.0596 68.2684 43.9733 68.3898 43.8659C68.5111 43.7586 68.5998 43.6349 68.6558 43.4949C68.7164 43.3549 68.7468 43.2056 68.7468 43.0469C68.7468 42.8509 68.6931 42.6899 68.5858 42.5639C68.4831 42.4333 68.3454 42.3236 68.1728 42.2349C68.0001 42.1416 67.8018 42.0623 67.5778 41.9969C67.3584 41.9269 67.1321 41.8546 66.8988 41.7799C66.6701 41.7053 66.4438 41.6213 66.2198 41.5279C66.0004 41.4299 65.8044 41.3086 65.6318 41.1639C65.4591 41.0193 65.3191 40.8419 65.2118 40.6319C65.1091 40.4173 65.0578 40.1583 65.0578 39.8549C65.0578 39.5843 65.1138 39.3253 65.2258 39.0779C65.3378 38.8259 65.5011 38.6066 65.7158 38.4199C65.9304 38.2286 66.1941 38.0769 66.5068 37.9649C66.8194 37.8529 67.1764 37.7969 67.5778 37.7969C68.0444 37.7969 68.4621 37.8716 68.8308 38.0209C69.2041 38.1656 69.5261 38.3663 69.7968 38.6229L69.5168 39.0779Z" fill="black"/>
</svg>
