<svg width="209" height="239" viewBox="0 0 209 239" fill="none" xmlns="http://www.w3.org/2000/svg">
<path d="M102.1 55.3C100.5 54.6 98.1 56.2 95.8 60.8C94.9 62.7 94.8 63.5 94.8 63.5C94.8 63.5 96 60.7 97.7 58.3C98.9 56.6 100.3 55.2 102.1 55.3Z" fill="#8BC53F"/>
<path d="M104.2 0C46.7 0 0 46.6 0 104.2C0 140 18 171.5 45.5 190.3C49.5 188.7 53.6 187.3 57.9 186C59.8 158.6 62.5 112.8 60.5 107.9C58.2 101.9 54.4 99.8 52.8 99.3C52.3 99.1 52.1 98.8 52.1 98.3C52.4 92.7 54.9 54.8 54.9 54.8L55.1 54.7L55.3 54.8L57 89.9C57 89.9 57 90.5 57.5 90.5C58 90.5 58 89.9 58 89.9L59.9 54.8L60.1 54.7L60.3 54.8L62.1 89.9C62.1 89.9 62.1 90.5 62.6 90.5C63.1 90.5 63.1 89.9 63.1 89.9L64.9 54.8L65.1 54.7L65.3 54.8L67.2 89.9C67.2 89.9 67.2 90.5 67.7 90.5C68.2 90.5 68.2 89.9 68.2 89.9L69.9 54.8L70.1 54.7L70.3 54.8C70.3 54.8 72.8 92.7 73.1 98.3C73.1 98.8 72.9 99.2 72.4 99.3C70.8 99.8 67.1 101.9 64.7 107.9C62.8 112.6 65.2 155.9 67.1 183.5C75.8 181.5 85.1 180.2 94.7 179.7C95.6 160.4 96.1 137.2 94.8 131C94.7 130.6 94.6 130.4 94.5 129.9C86.1 110.3 88.5 72.1 95.1 59.7C99.1 52.2 103.8 53.1 103.4 59.1C103 64.7 105 99.3 102.8 130.9C103 147.9 103.6 165.6 104.3 179.4C114.2 179.4 123.8 180.3 133 181.9C134.8 158.2 137 125.3 135.5 118.6C135.3 115.6 132.7 112.2 128.5 108.5C128.5 108.5 126.7 107 126.7 106.9C122 101.7 118.9 93.1 118.9 83.4C118.9 67.5 127.2 54.6 137.5 54.6C147.8 54.6 156.1 67.5 156.1 83.4C156.1 92.8 153.2 101.2 148.6 106.5C148.3 106.8 148 107.1 147.7 107.4L145.7 109.1C142 112.5 139.6 115.7 139.5 118.5C138 125.5 140.3 159.9 142.1 183.6C149.4 185.3 156.3 187.5 162.8 190.1C190.3 171.4 208.3 139.9 208.3 104.1C208.3 46.6 161.7 0 104.2 0Z" fill="#8BC53F"/>
<path d="M96.8 132H102.1C102.8 132 102.8 131 102.1 131H96.9C96.1 131 95.6 130.5 95.6 130.5C95.6 131 95.8 132 96.8 132Z" fill="#8BC53F"/>
<path d="M69.5999 97.3C65.2999 100.7 64.2 105 64.2 105C66.5 99.2 70.3 97.4 71.9 96.9C72.4 96.7 72.5999 96.4 72.5999 95.9C72.4999 94.4 72.2 90.4 71.8 85.5C71.9 91 71.9 93.3 71.7 94.6C71.7 95.9 70.1999 96.9 69.5999 97.3Z" fill="#8BC53F"/>
<path d="M154.9 81.8C154.9 67.6 147.2 56.1 137.6 56.1C137.1 56.1 136.6 56.1 136 56.2C146.4 56.2 153.7 67.8 153.7 82.6C153.7 87.7 152.8 93.5 151.1 97.6C153.5 93.3 154.9 87.8 154.9 81.8Z" fill="#8BC53F"/>
<path d="M127.1 103.6C127.6 104 128.7 103.1 128.2 102.6C123.8 97.9 120.7 93.1 120 83C120 91.4 122.8 98.9 127.1 103.6Z" fill="#8BC53F"/>
<path d="M58.7356 229.65H52.4931V200.735H58.7356V202.124C59.6617 200.993 60.8908 200.427 62.4228 200.427C63.246 200.427 63.972 200.558 64.6009 200.821C65.2411 201.084 65.7556 201.438 66.1444 201.884C66.5445 202.33 66.8647 202.885 67.1048 203.548C67.3563 204.211 67.5278 204.903 67.6192 205.623C67.7221 206.343 67.7736 207.144 67.7736 208.024V217.439C67.7736 217.462 67.7736 217.491 67.7736 217.525C67.7736 218.348 67.7679 218.977 67.7564 219.411C67.745 219.835 67.705 220.429 67.6364 221.195C67.5678 221.961 67.4649 222.556 67.3277 222.979C67.2019 223.402 67.0019 223.893 66.7275 224.454C66.4645 225.002 66.1386 225.42 65.7499 225.705C65.3726 225.991 64.8867 226.243 64.2922 226.46C63.6977 226.666 63.0174 226.769 62.2513 226.769C60.7079 226.769 59.536 226.329 58.7356 225.448V229.65ZM58.7356 207.955C58.7356 207.955 58.7356 211.711 58.7356 219.223C58.7356 220.149 58.8442 220.841 59.0615 221.298C59.2901 221.744 59.6732 221.967 60.2105 221.967C60.6907 221.967 61.0337 221.738 61.2395 221.281C61.4453 220.812 61.5482 220.035 61.5482 218.948V208.024C61.5482 207.761 61.5425 207.572 61.5311 207.458C61.5311 207.344 61.5196 207.155 61.4968 206.892C61.4853 206.618 61.451 206.412 61.3939 206.275C61.3367 206.126 61.2567 205.966 61.1538 205.795C61.0623 205.612 60.9308 205.48 60.7593 205.4C60.5992 205.32 60.4049 205.28 60.1762 205.28C59.2158 205.28 58.7356 206.172 58.7356 207.955ZM76.5715 226.46H70.3289V196.156H76.5715V226.46ZM78.7152 219.086C78.7152 216.81 79.0525 215.101 79.727 213.958C80.3101 212.975 81.322 212.146 82.7626 211.471C83.4943 211.128 85.1292 210.522 87.6674 209.653C87.6674 209.642 87.6674 209.625 87.6674 209.602C87.6674 209.236 87.6617 208.939 87.6503 208.71C87.6503 208.481 87.6446 208.224 87.6331 207.938C87.6331 207.652 87.6274 207.424 87.616 207.252C87.6045 207.081 87.5874 206.892 87.5645 206.686C87.5417 206.481 87.5131 206.326 87.4788 206.223C87.4559 206.109 87.4159 205.989 87.3587 205.863C87.313 205.726 87.2558 205.623 87.1872 205.554C87.1301 205.486 87.0615 205.423 86.9814 205.366C86.9014 205.309 86.8042 205.269 86.6899 205.246C86.587 205.223 86.4727 205.211 86.3469 205.211C85.5008 205.211 85.0778 205.68 85.0778 206.618V208.35H79.1096C79.0982 208.155 79.0925 207.875 79.0925 207.509C79.0925 205.063 79.6699 203.273 80.8246 202.142C81.9908 200.998 83.9345 200.427 86.6556 200.427C87.5359 200.427 88.3877 200.552 89.2109 200.804C90.0341 201.044 90.8001 201.41 91.509 201.901C92.2179 202.382 92.7838 203.051 93.2068 203.908C93.6413 204.766 93.8585 205.749 93.8585 206.858V226.46H87.7532V223.785C87.5474 224.539 87.0729 225.225 86.3297 225.843C85.5866 226.46 84.7863 226.769 83.9288 226.769C83.3114 226.769 82.7683 226.712 82.2995 226.597C81.8308 226.494 81.362 226.277 80.8932 225.946C80.4245 225.614 80.0357 225.174 79.727 224.625C79.4298 224.065 79.184 223.322 78.9896 222.396C78.8067 221.458 78.7152 220.355 78.7152 219.086ZM84.9749 216.685C84.9749 216.685 84.9749 217.685 84.9749 219.686C84.9749 221.207 85.4322 221.967 86.3469 221.967C86.5984 221.967 86.8156 221.898 86.9986 221.761C87.1815 221.624 87.3187 221.447 87.4102 221.229C87.5016 221.012 87.5645 220.801 87.5988 220.595C87.6331 220.389 87.6503 220.178 87.6503 219.96V213.186C86.5984 213.609 85.8896 214.106 85.5237 214.678C85.1578 215.238 84.9749 215.907 84.9749 216.685ZM96.6711 226.46V200.718H102.811V203.668C103.062 202.559 103.525 201.741 104.2 201.215C104.886 200.69 105.715 200.427 106.687 200.427C108.299 200.427 109.551 200.935 110.442 201.953C111.334 202.959 111.78 204.514 111.78 206.618V226.46H105.726V207.252C105.726 206.715 105.618 206.24 105.4 205.829C105.183 205.417 104.834 205.211 104.354 205.211C104.057 205.211 103.805 205.297 103.6 205.469C103.394 205.629 103.239 205.817 103.137 206.035C103.045 206.24 102.971 206.515 102.914 206.858C102.856 207.201 102.822 207.464 102.811 207.647C102.811 207.83 102.811 208.07 102.811 208.367V226.46H96.6711Z" fill="#231F20"/>
<path d="M121.641 226.769C120.727 226.769 119.898 226.672 119.155 226.477C118.411 226.294 117.783 226.054 117.268 225.757C116.765 225.448 116.325 225.065 115.948 224.608C115.582 224.139 115.29 223.665 115.073 223.184C114.856 222.704 114.678 222.155 114.541 221.538C114.415 220.921 114.33 220.349 114.284 219.823C114.25 219.297 114.233 218.714 114.233 218.074V207.732C114.233 205.366 114.907 203.559 116.256 202.313C117.617 201.055 119.515 200.427 121.95 200.427C126.889 200.427 129.359 202.862 129.359 207.732V209.602C129.359 211.923 129.336 213.518 129.29 214.387H120.372V217.988C120.372 218.102 120.366 218.291 120.355 218.554C120.355 218.806 120.355 219 120.355 219.137C120.355 219.549 120.372 219.903 120.406 220.2C120.441 220.486 120.504 220.783 120.595 221.092C120.687 221.389 120.835 221.618 121.041 221.778C121.258 221.927 121.527 222.001 121.847 222.001C122.179 222.001 122.447 221.887 122.653 221.658C122.859 221.418 123.002 221.081 123.082 220.646C123.173 220.2 123.231 219.806 123.253 219.463C123.276 219.12 123.288 218.691 123.288 218.177C123.288 217.171 123.276 216.622 123.253 216.53H129.359V217.988C129.359 219.417 129.25 220.635 129.033 221.641C128.816 222.647 128.427 223.556 127.867 224.368C127.318 225.168 126.529 225.768 125.5 226.169C124.471 226.569 123.185 226.769 121.641 226.769ZM121.881 205.04C121.561 205.04 121.293 205.126 121.075 205.297C120.858 205.457 120.698 205.703 120.595 206.035C120.492 206.366 120.424 206.709 120.389 207.064C120.355 207.407 120.338 207.83 120.338 208.333C120.338 208.573 120.344 208.933 120.355 209.413C120.366 209.893 120.372 210.253 120.372 210.494H123.253V207.818C123.253 205.966 122.796 205.04 121.881 205.04ZM131.022 219.086C131.022 216.81 131.36 215.101 132.034 213.958C132.617 212.975 133.629 212.146 135.07 211.471C135.801 211.128 137.436 210.522 139.974 209.653C139.974 209.642 139.974 209.625 139.974 209.602C139.974 209.236 139.969 208.939 139.957 208.71C139.957 208.481 139.952 208.224 139.94 207.938C139.94 207.652 139.934 207.424 139.923 207.252C139.912 207.081 139.894 206.892 139.872 206.686C139.849 206.481 139.82 206.326 139.786 206.223C139.763 206.109 139.723 205.989 139.666 205.863C139.62 205.726 139.563 205.623 139.494 205.554C139.437 205.486 139.369 205.423 139.288 205.366C139.208 205.309 139.111 205.269 138.997 205.246C138.894 205.223 138.78 205.211 138.654 205.211C137.808 205.211 137.385 205.68 137.385 206.618V208.35H131.417C131.405 208.155 131.4 207.875 131.4 207.509C131.4 205.063 131.977 203.273 133.132 202.142C134.298 200.998 136.242 200.427 138.963 200.427C139.843 200.427 140.695 200.552 141.518 200.804C142.341 201.044 143.107 201.41 143.816 201.901C144.525 202.382 145.091 203.051 145.514 203.908C145.948 204.766 146.166 205.749 146.166 206.858V226.46H140.06V223.785C139.854 224.539 139.38 225.225 138.637 225.843C137.894 226.46 137.093 226.769 136.236 226.769C135.618 226.769 135.075 226.712 134.607 226.597C134.138 226.494 133.669 226.277 133.2 225.946C132.732 225.614 132.343 225.174 132.034 224.625C131.737 224.065 131.491 223.322 131.297 222.396C131.114 221.458 131.022 220.355 131.022 219.086ZM137.282 216.685C137.282 216.685 137.282 217.685 137.282 219.686C137.282 221.207 137.739 221.967 138.654 221.967C138.905 221.967 139.123 221.898 139.306 221.761C139.489 221.624 139.626 221.447 139.717 221.229C139.809 221.012 139.872 220.801 139.906 220.595C139.94 220.389 139.957 220.178 139.957 219.96V213.186C138.905 213.609 138.197 214.106 137.831 214.678C137.465 215.238 137.282 215.907 137.282 216.685ZM149.27 196.259H155.238V201.73H156.335V206.412H155.238V220.886C155.238 221.104 155.244 221.275 155.255 221.401C155.266 221.527 155.289 221.664 155.324 221.812C155.358 221.95 155.421 222.053 155.512 222.121C155.615 222.178 155.741 222.207 155.89 222.207C156.038 222.207 156.187 222.184 156.335 222.138V226.323C155.467 226.62 154.375 226.769 153.06 226.769C152.397 226.769 151.825 226.677 151.345 226.494C150.876 226.323 150.51 226.111 150.247 225.86C149.984 225.597 149.773 225.265 149.613 224.865C149.464 224.454 149.367 224.071 149.321 223.716C149.287 223.362 149.27 222.956 149.27 222.498V206.412H148.326V201.73H149.27V196.259Z" fill="#8BC53F"/>
</svg>
