<svg width="71" height="79" viewBox="0 0 71 79" fill="none" xmlns="http://www.w3.org/2000/svg">
<path d="M34.8012 18.8493C34.2559 18.6107 33.4378 19.1561 32.6538 20.724C32.3471 21.3716 32.313 21.6443 32.313 21.6443C32.313 21.6443 32.722 20.6899 33.3015 19.8719C33.7105 19.2924 34.1877 18.8152 34.8012 18.8493Z" fill="#8BC53F"/>
<path d="M35.517 0C15.9179 0 0 15.8838 0 35.517C0 47.7196 6.13538 58.4566 15.5089 64.8646C16.8723 64.3193 18.2698 63.842 19.7355 63.3989C20.3831 54.0595 21.3034 38.4484 20.6217 36.7782C19.8377 34.7331 18.5425 34.0173 17.9971 33.8469C17.8267 33.7787 17.7585 33.6764 17.7585 33.506C17.8608 31.5972 18.7129 18.6788 18.7129 18.6788L18.7811 18.6447L18.8493 18.6788L19.4287 30.6428C19.4287 30.6428 19.4287 30.8473 19.5991 30.8473C19.7696 30.8473 19.7696 30.6428 19.7696 30.6428L20.4172 18.6788L20.4853 18.6447L20.5535 18.6788L21.1671 30.6428C21.1671 30.6428 21.1671 30.8473 21.3375 30.8473C21.5079 30.8473 21.5079 30.6428 21.5079 30.6428L22.1215 18.6788L22.1896 18.6447L22.2578 18.6788L22.9054 30.6428C22.9054 30.6428 22.9054 30.8473 23.0758 30.8473C23.2463 30.8473 23.2463 30.6428 23.2463 30.6428L23.8257 18.6788L23.8939 18.6447L23.9621 18.6788C23.9621 18.6788 24.8142 31.5972 24.9165 33.506C24.9165 33.6764 24.8483 33.8128 24.6779 33.8469C24.1325 34.0173 22.8713 34.7331 22.0533 36.7782C21.4057 38.3802 22.2237 53.1392 22.8713 62.5468C25.8368 61.8651 29.0067 61.422 32.2789 61.2516C32.5857 54.6731 32.7561 46.7652 32.313 44.6519C32.2789 44.5156 32.2448 44.4474 32.2108 44.277C29.3476 37.5963 30.1656 24.5756 32.4153 20.349C33.7787 17.7926 35.3807 18.0994 35.2444 20.1445C35.108 22.0533 35.7897 33.8469 35.0398 44.6179C35.108 50.4124 35.3125 56.4455 35.5511 61.1493C38.9256 61.1493 42.1978 61.4561 45.3337 62.0014C45.9472 53.9232 46.6971 42.7091 46.1858 40.4254C46.1176 39.4028 45.2314 38.2439 43.7998 36.9827C43.7998 36.9827 43.1863 36.4714 43.1863 36.4373C41.5843 34.6649 40.5276 31.7336 40.5276 28.4273C40.5276 23.0077 43.3567 18.6107 46.8675 18.6107C50.3783 18.6107 53.2074 23.0077 53.2074 28.4273C53.2074 31.6313 52.2189 34.4945 50.651 36.301C50.5487 36.4033 50.4465 36.5055 50.3442 36.6078L49.6625 37.1872C48.4014 38.3461 47.5833 39.4369 47.5492 40.3913C47.0379 42.7772 47.8219 54.5026 48.4354 62.5809C50.9237 63.1603 53.2756 63.9102 55.4911 64.7964C64.8646 58.4225 71 47.6856 71 35.483C71 15.8838 55.1162 0 35.517 0Z" fill="#8BC53F"/>
<path d="M32.9947 44.9928H34.8012C35.0398 44.9928 35.0398 44.6519 34.8012 44.6519H33.0288C32.7561 44.6519 32.5857 44.4815 32.5857 44.4815C32.5857 44.6519 32.6539 44.9928 32.9947 44.9928Z" fill="#8BC53F"/>
<path d="M23.7234 33.1651C22.2578 34.3241 21.8828 35.7897 21.8828 35.7897C22.6668 33.8128 23.962 33.1992 24.5074 33.0288C24.6778 32.9606 24.746 32.8584 24.746 32.688C24.7119 32.1767 24.6097 30.8133 24.4733 29.1431C24.5074 31.0178 24.5074 31.8017 24.4392 32.2448C24.4392 32.688 23.9279 33.0288 23.7234 33.1651Z" fill="#8BC53F"/>
<path d="M52.7983 27.8818C52.7983 23.0417 50.1738 19.1219 46.9016 19.1219C46.7311 19.1219 46.5607 19.1219 46.3562 19.156C49.9011 19.156 52.3893 23.1099 52.3893 28.1545C52.3893 29.8929 52.0826 31.8698 51.5031 33.2674C52.3211 31.8017 52.7983 29.927 52.7983 27.8818Z" fill="#8BC53F"/>
<path d="M43.3226 35.3126C43.4931 35.4489 43.868 35.1421 43.6976 34.9717C42.1978 33.3697 41.1412 31.7336 40.9026 28.291C40.9026 31.1541 41.857 33.7105 43.3226 35.3126Z" fill="#8BC53F"/>
<path d="M17.8323 68.4266H19.9633V68.8935C20.2665 68.5184 20.6856 68.3308 21.2203 68.3308C21.8987 68.3308 22.3696 68.5583 22.633 69.0132C22.9043 69.4681 23.04 70.0987 23.04 70.9048V74.1491C23.04 74.8355 23.0001 75.3982 22.9203 75.8371C22.8405 76.2681 22.6649 76.6193 22.3935 76.8907C22.1222 77.154 21.7111 77.2857 21.1604 77.2857C20.6337 77.2857 20.2346 77.1381 19.9633 76.8428V78.9378H17.8323V68.4266ZM20.4661 75.6576C20.6576 75.6576 20.7813 75.5698 20.8372 75.3942C20.8931 75.2186 20.921 74.9632 20.921 74.628V70.9048C20.921 70.6015 20.8931 70.37 20.8372 70.2104C20.7813 70.0508 20.6536 69.971 20.4541 69.971C20.1269 69.971 19.9633 70.2742 19.9633 70.8808V74.7238C19.9633 75.0191 19.9952 75.2505 20.059 75.4181C20.1309 75.5777 20.2665 75.6576 20.4661 75.6576Z" fill="#231F20"/>
<path d="M23.8182 77.1899V66.8463H25.9492V77.1899H23.8182Z" fill="#231F20"/>
<path d="M28.38 77.2857C27.7016 77.2857 27.2347 77.0623 26.9793 76.6153C26.7319 76.1604 26.6082 75.5139 26.6082 74.6759C26.6082 73.9895 26.696 73.4627 26.8715 73.0956C27.0551 72.7285 27.3065 72.4611 27.6258 72.2935C27.945 72.1179 28.4319 71.9263 29.0863 71.7188L29.661 71.5273V71.5033V70.6294C29.661 70.3979 29.6131 70.2224 29.5173 70.1026C29.4295 69.9749 29.3218 69.9111 29.1941 69.9111C29.0823 69.9111 28.9826 69.963 28.8948 70.0667C28.815 70.1705 28.7751 70.3102 28.7751 70.4857V71.0125H26.7399V70.7252C26.7399 69.8632 26.9394 69.2487 27.3384 68.8815C27.7455 68.5144 28.4039 68.3308 29.3138 68.3308C30.0401 68.3308 30.6307 68.5224 31.0856 68.9055C31.5405 69.2806 31.768 69.8153 31.768 70.5097V77.1899H29.6849V76.1484C29.5812 76.5076 29.4136 76.7869 29.1821 76.9864C28.9586 77.186 28.6913 77.2857 28.38 77.2857ZM29.206 75.6576C29.3657 75.6576 29.4774 75.5937 29.5413 75.466C29.6131 75.3303 29.649 75.1667 29.649 74.9752V72.5329C29.3377 72.6526 29.1063 72.8043 28.9546 72.9878C28.811 73.1714 28.7391 73.4268 28.7391 73.754V74.8794C28.7391 75.3982 28.8948 75.6576 29.206 75.6576Z" fill="#231F20"/>
<path d="M32.5749 68.4266H34.67V69.54C34.7577 69.1808 34.9094 68.8895 35.1249 68.666C35.3404 68.4426 35.6277 68.3308 35.9869 68.3308C36.5775 68.3308 37.0124 68.5144 37.2918 68.8815C37.5791 69.2407 37.7228 69.7555 37.7228 70.4259V77.1899H35.6636V70.6414C35.6636 70.4498 35.6237 70.2862 35.5439 70.1505C35.4721 70.0149 35.3563 69.947 35.1967 69.947C34.9812 69.947 34.8376 70.0468 34.7657 70.2463C34.7019 70.4379 34.67 70.6972 34.67 71.0245V77.1899H32.5749V68.4266Z" fill="#231F20"/>
<path d="M41.0033 77.2857C40.1014 77.2857 39.455 77.0383 39.0639 76.5435C38.6728 76.0486 38.4773 75.3104 38.4773 74.3287V70.809C38.4773 70.0029 38.7087 69.3883 39.1716 68.9653C39.6345 68.5423 40.281 68.3308 41.1111 68.3308C42.7951 68.3308 43.6371 69.1569 43.6371 70.809V71.4435C43.6371 72.082 43.6291 72.6008 43.6132 72.9998H40.5723V74.6998C40.5723 75.0031 40.6043 75.2425 40.6681 75.4181C40.732 75.5857 40.8676 75.6695 41.0752 75.6695C41.2348 75.6695 41.3465 75.6216 41.4104 75.5259C41.4822 75.4301 41.5221 75.3223 41.5301 75.2026C41.546 75.0749 41.554 74.8914 41.554 74.6519V73.8019H43.6371V74.3047C43.6371 75.3263 43.4376 76.0806 43.0385 76.5674C42.6474 77.0463 41.969 77.2857 41.0033 77.2857ZM41.554 71.9583V70.8329C41.554 70.2024 41.3984 69.8872 41.0871 69.8872C40.7359 69.8872 40.5604 70.2024 40.5604 70.8329V71.9583H41.554Z" fill="#231F20"/>
<path d="M45.987 77.2857C45.3086 77.2857 44.8417 77.0623 44.5863 76.6153C44.3388 76.1604 44.2151 75.5139 44.2151 74.6759C44.2151 73.9895 44.3029 73.4627 44.4785 73.0956C44.6621 72.7285 44.9135 72.4611 45.2327 72.2935C45.552 72.1179 46.0388 71.9263 46.6933 71.7188L47.2679 71.5273V71.5033V70.6294C47.2679 70.3979 47.2201 70.2224 47.1243 70.1026C47.0365 69.9749 46.9287 69.9111 46.801 69.9111C46.6893 69.9111 46.5895 69.963 46.5017 70.0667C46.4219 70.1705 46.382 70.3102 46.382 70.4857V71.0125H44.3468V70.7252C44.3468 69.8632 44.5464 69.2487 44.9454 68.8815C45.3525 68.5144 46.0109 68.3308 46.9208 68.3308C47.647 68.3308 48.2377 68.5224 48.6926 68.9055C49.1475 69.2806 49.375 69.8153 49.375 70.5097V77.1899H47.2919V76.1484C47.1881 76.5076 47.0205 76.7869 46.7891 76.9864C46.5656 77.186 46.2982 77.2857 45.987 77.2857ZM46.813 75.6576C46.9726 75.6576 47.0844 75.5937 47.1482 75.466C47.2201 75.3303 47.256 75.1667 47.256 74.9752V72.5329C46.9447 72.6526 46.7132 72.8043 46.5616 72.9878C46.4179 73.1714 46.3461 73.4268 46.3461 73.754V74.8794C46.3461 75.3982 46.5017 75.6576 46.813 75.6576Z" fill="#231F20"/>
<path d="M51.9896 77.2857C51.4389 77.2857 51.0598 77.17 50.8523 76.9385C50.6448 76.7071 50.541 76.336 50.541 75.8252V70.3541H49.9544V68.7618H50.541V66.9062H52.5762V68.7618H53.1748V70.3541H52.5762V75.2745C52.5762 75.4261 52.5882 75.5378 52.6121 75.6097C52.6361 75.6815 52.6999 75.7174 52.8037 75.7174C52.8835 75.7174 52.9593 75.7134 53.0311 75.7054C53.103 75.6975 53.1509 75.6935 53.1748 75.6935V77.1301C53.0551 77.162 52.8795 77.1939 52.648 77.2259C52.4246 77.2658 52.2051 77.2857 51.9896 77.2857Z" fill="#231F20"/>
</svg>
