<svg width="119" height="36" viewBox="0 0 119 36" fill="none" xmlns="http://www.w3.org/2000/svg">
<rect width="119" height="36" rx="18" fill="#CE2F2F"/>
<path d="M33.7285 21.076C33.7978 21.076 33.8585 21.1042 33.9105 21.1605L34.411 21.7C34.0297 22.142 33.566 22.4865 33.02 22.7335C32.4783 22.9805 31.8218 23.104 31.0505 23.104C30.3832 23.104 29.7765 22.9892 29.2305 22.7595C28.6845 22.5255 28.2187 22.2005 27.833 21.7845C27.4473 21.3642 27.1483 20.8615 26.936 20.2765C26.7237 19.6915 26.6175 19.048 26.6175 18.346C26.6175 17.644 26.728 17.0005 26.949 16.4155C27.17 15.8305 27.4798 15.3278 27.8785 14.9075C28.2815 14.4872 28.7625 14.1622 29.3215 13.9325C29.8805 13.6985 30.498 13.5815 31.174 13.5815C31.837 13.5815 32.422 13.6877 32.929 13.9C33.436 14.1123 33.8823 14.4005 34.268 14.7645L33.852 15.343C33.826 15.3863 33.7913 15.4232 33.748 15.4535C33.709 15.4795 33.6548 15.4925 33.5855 15.4925C33.5075 15.4925 33.4122 15.4513 33.2995 15.369C33.1868 15.2823 33.0395 15.187 32.8575 15.083C32.6755 14.979 32.448 14.8858 32.175 14.8035C31.902 14.7168 31.5662 14.6735 31.1675 14.6735C30.6865 14.6735 30.2467 14.758 29.848 14.927C29.4493 15.0917 29.1048 15.3322 28.8145 15.6485C28.5285 15.9648 28.3053 16.3505 28.145 16.8055C27.9847 17.2605 27.9045 17.774 27.9045 18.346C27.9045 18.9267 27.9868 19.4445 28.1515 19.8995C28.3205 20.3545 28.548 20.7402 28.834 21.0565C29.1243 21.3685 29.4645 21.6068 29.8545 21.7715C30.2488 21.9362 30.6735 22.0185 31.1285 22.0185C31.4058 22.0185 31.655 22.0033 31.876 21.973C32.1013 21.9383 32.3072 21.8863 32.4935 21.817C32.6842 21.7477 32.8597 21.661 33.02 21.557C33.1847 21.4487 33.3472 21.3208 33.5075 21.1735C33.5812 21.1085 33.6548 21.076 33.7285 21.076ZM40.8716 19.542L39.4091 15.7525C39.3658 15.6398 39.3203 15.5098 39.2726 15.3625C39.2249 15.2108 39.1794 15.0505 39.1361 14.8815C39.0451 15.2325 38.9519 15.525 38.8566 15.759L37.3941 19.542H40.8716ZM43.4976 23H42.5226C42.4099 23 42.3189 22.9718 42.2496 22.9155C42.1803 22.8592 42.1283 22.7877 42.0936 22.701L41.2226 20.452H37.0431L36.1721 22.701C36.1461 22.779 36.0963 22.8483 36.0226 22.909C35.9489 22.9697 35.8579 23 35.7496 23H34.7746L38.4991 13.6855H39.7731L43.4976 23ZM52.3214 13.6855V23H51.6909C51.5913 23 51.5068 22.9827 51.4374 22.948C51.3724 22.9133 51.3074 22.8548 51.2424 22.7725L45.8539 15.7525C45.8626 15.8608 45.8691 15.967 45.8734 16.071C45.8778 16.175 45.8799 16.2725 45.8799 16.3635V23H44.7749V13.6855H45.4249C45.4813 13.6855 45.5289 13.6898 45.5679 13.6985C45.6069 13.7028 45.6416 13.7137 45.6719 13.731C45.7023 13.744 45.7326 13.7657 45.7629 13.796C45.7933 13.822 45.8258 13.8567 45.8604 13.9L51.2489 20.9135C51.2403 20.8008 51.2316 20.6925 51.2229 20.5885C51.2186 20.4802 51.2164 20.3783 51.2164 20.283V13.6855H52.3214ZM61.2937 21.076C61.363 21.076 61.4237 21.1042 61.4757 21.1605L61.9762 21.7C61.5948 22.142 61.1312 22.4865 60.5852 22.7335C60.0435 22.9805 59.387 23.104 58.6157 23.104C57.9483 23.104 57.3417 22.9892 56.7957 22.7595C56.2497 22.5255 55.7838 22.2005 55.3982 21.7845C55.0125 21.3642 54.7135 20.8615 54.5012 20.2765C54.2888 19.6915 54.1827 19.048 54.1827 18.346C54.1827 17.644 54.2932 17.0005 54.5142 16.4155C54.7352 15.8305 55.045 15.3278 55.4437 14.9075C55.8467 14.4872 56.3277 14.1622 56.8867 13.9325C57.4457 13.6985 58.0632 13.5815 58.7392 13.5815C59.4022 13.5815 59.9872 13.6877 60.4942 13.9C61.0012 14.1123 61.4475 14.4005 61.8332 14.7645L61.4172 15.343C61.3912 15.3863 61.3565 15.4232 61.3132 15.4535C61.2742 15.4795 61.22 15.4925 61.1507 15.4925C61.0727 15.4925 60.9773 15.4513 60.8647 15.369C60.752 15.2823 60.6047 15.187 60.4227 15.083C60.2407 14.979 60.0132 14.8858 59.7402 14.8035C59.4672 14.7168 59.1313 14.6735 58.7327 14.6735C58.2517 14.6735 57.8118 14.758 57.4132 14.927C57.0145 15.0917 56.67 15.3322 56.3797 15.6485C56.0937 15.9648 55.8705 16.3505 55.7102 16.8055C55.5498 17.2605 55.4697 17.774 55.4697 18.346C55.4697 18.9267 55.552 19.4445 55.7167 19.8995C55.8857 20.3545 56.1132 20.7402 56.3992 21.0565C56.6895 21.3685 57.0297 21.6068 57.4197 21.7715C57.814 21.9362 58.2387 22.0185 58.6937 22.0185C58.971 22.0185 59.2202 22.0033 59.4412 21.973C59.6665 21.9383 59.8723 21.8863 60.0587 21.817C60.2493 21.7477 60.4248 21.661 60.5852 21.557C60.7498 21.4487 60.9123 21.3208 61.0727 21.1735C61.1463 21.1085 61.22 21.076 61.2937 21.076ZM69.2363 21.973L69.2298 23H63.4903V13.6855H69.2298V14.7125H64.7513V17.8065H68.3783V18.7945H64.7513V21.973H69.2363ZM76.3297 21.9405V23H71.0452V13.6855H72.2997V21.9405H76.3297ZM82.7214 19.542L81.2589 15.7525C81.2156 15.6398 81.1701 15.5098 81.1224 15.3625C81.0748 15.2108 81.0293 15.0505 80.9859 14.8815C80.8949 15.2325 80.8018 15.525 80.7064 15.759L79.2439 19.542H82.7214ZM85.3474 23H84.3724C84.2598 23 84.1688 22.9718 84.0994 22.9155C84.0301 22.8592 83.9781 22.7877 83.9434 22.701L83.0724 20.452H78.8929L78.0219 22.701C77.9959 22.779 77.9461 22.8483 77.8724 22.909C77.7988 22.9697 77.7078 23 77.5994 23H76.6244L80.3489 13.6855H81.6229L85.3474 23ZM89.2053 18.1965C89.5693 18.1965 89.89 18.1532 90.1673 18.0665C90.449 17.9755 90.683 17.8498 90.8693 17.6895C91.06 17.5248 91.203 17.3298 91.2983 17.1045C91.3936 16.8792 91.4413 16.63 91.4413 16.357C91.4413 15.8023 91.2593 15.3842 90.8953 15.1025C90.5313 14.8208 89.9853 14.68 89.2573 14.68H87.8793V18.1965H89.2053ZM93.5083 23H92.3903C92.1606 23 91.9916 22.9112 91.8833 22.7335L89.4653 19.4055C89.3916 19.3015 89.3115 19.2278 89.2248 19.1845C89.1425 19.1368 89.0125 19.113 88.8348 19.113H87.8793V23H86.6248V13.6855H89.2573C89.8466 13.6855 90.3558 13.7462 90.7848 13.8675C91.2138 13.9845 91.567 14.1557 91.8443 14.381C92.126 14.6063 92.334 14.8793 92.4683 15.2C92.6026 15.5163 92.6698 15.8717 92.6698 16.266C92.6698 16.5953 92.6178 16.903 92.5138 17.189C92.4098 17.475 92.2581 17.7328 92.0588 17.9625C91.8638 18.1878 91.6233 18.3807 91.3373 18.541C91.0556 18.7013 90.735 18.8227 90.3753 18.905C90.5356 18.996 90.6743 19.1282 90.7913 19.3015L93.5083 23Z" fill="#FCFFF8"/>
</svg>
