<svg width="116" height="36" viewBox="0 0 116 36" fill="none" xmlns="http://www.w3.org/2000/svg">
<rect width="116" height="36" rx="18" fill="#FF6464"/>
<path d="M31.881 13.6855V23H30.776V16.1555C30.776 16.0645 30.7782 15.967 30.7825 15.863C30.7912 15.759 30.7998 15.6528 30.8085 15.5445L27.6105 21.3685C27.5108 21.5635 27.3592 21.661 27.1555 21.661H26.9735C26.7698 21.661 26.6182 21.5635 26.5185 21.3685L23.2555 15.5185C23.2815 15.7482 23.2945 15.9605 23.2945 16.1555V23H22.1895V13.6855H23.119C23.2317 13.6855 23.3183 13.6963 23.379 13.718C23.4397 13.7397 23.4982 13.8003 23.5545 13.9L26.772 19.633C26.824 19.737 26.8738 19.8453 26.9215 19.958C26.9735 20.0707 27.0212 20.1855 27.0645 20.3025C27.1078 20.1855 27.1533 20.0707 27.201 19.958C27.2487 19.841 27.3007 19.7305 27.357 19.6265L30.516 13.9C30.568 13.8003 30.6243 13.7397 30.685 13.718C30.75 13.6963 30.8388 13.6855 30.9515 13.6855H31.881ZM42.9207 18.346C42.9207 19.0437 42.8102 19.685 42.5892 20.27C42.3682 20.8507 42.0562 21.3512 41.6532 21.7715C41.2502 22.1918 40.7649 22.519 40.1972 22.753C39.6339 22.9827 39.0099 23.0975 38.3252 23.0975C37.6406 23.0975 37.0166 22.9827 36.4532 22.753C35.8899 22.519 35.4067 22.1918 35.0037 21.7715C34.6007 21.3512 34.2887 20.8507 34.0677 20.27C33.8467 19.685 33.7362 19.0437 33.7362 18.346C33.7362 17.6483 33.8467 17.0092 34.0677 16.4285C34.2887 15.8435 34.6007 15.3408 35.0037 14.9205C35.4067 14.4958 35.8899 14.1665 36.4532 13.9325C37.0166 13.6985 37.6406 13.5815 38.3252 13.5815C39.0099 13.5815 39.6339 13.6985 40.1972 13.9325C40.7649 14.1665 41.2502 14.4958 41.6532 14.9205C42.0562 15.3408 42.3682 15.8435 42.5892 16.4285C42.8102 17.0092 42.9207 17.6483 42.9207 18.346ZM41.6272 18.346C41.6272 17.774 41.5492 17.2605 41.3932 16.8055C41.2372 16.3505 41.0162 15.967 40.7302 15.655C40.4442 15.3387 40.0976 15.096 39.6902 14.927C39.2829 14.758 38.8279 14.6735 38.3252 14.6735C37.8269 14.6735 37.3741 14.758 36.9667 14.927C36.5594 15.096 36.2106 15.3387 35.9202 15.655C35.6342 15.967 35.4132 16.3505 35.2572 16.8055C35.1012 17.2605 35.0232 17.774 35.0232 18.346C35.0232 18.918 35.1012 19.4315 35.2572 19.8865C35.4132 20.3372 35.6342 20.7207 35.9202 21.037C36.2106 21.349 36.5594 21.5895 36.9667 21.7585C37.3741 21.9232 37.8269 22.0055 38.3252 22.0055C38.8279 22.0055 39.2829 21.9232 39.6902 21.7585C40.0976 21.5895 40.4442 21.349 40.7302 21.037C41.0162 20.7207 41.2372 20.3372 41.3932 19.8865C41.5492 19.4315 41.6272 18.918 41.6272 18.346ZM52.8499 18.346C52.8499 19.0437 52.7394 19.6785 52.5184 20.2505C52.2974 20.8225 51.9854 21.3122 51.5824 21.7195C51.1794 22.1268 50.6941 22.4432 50.1264 22.6685C49.5631 22.8895 48.9391 23 48.2544 23H44.7769V13.6855H48.2544C48.9391 13.6855 49.5631 13.7982 50.1264 14.0235C50.6941 14.2445 51.1794 14.5608 51.5824 14.9725C51.9854 15.3798 52.2974 15.8695 52.5184 16.4415C52.7394 17.0135 52.8499 17.6483 52.8499 18.346ZM51.5564 18.346C51.5564 17.774 51.4784 17.2627 51.3224 16.812C51.1664 16.3613 50.9454 15.98 50.6594 15.668C50.3734 15.356 50.0267 15.1177 49.6194 14.953C49.2121 14.7883 48.7571 14.706 48.2544 14.706H46.0379V21.9795H48.2544C48.7571 21.9795 49.2121 21.8972 49.6194 21.7325C50.0267 21.5678 50.3734 21.3317 50.6594 21.024C50.9454 20.712 51.1664 20.3307 51.3224 19.88C51.4784 19.4293 51.5564 18.918 51.5564 18.346ZM55.9795 23H54.7185V13.6855H55.9795V23ZM59.6751 14.7125V17.969H63.5036V18.996H59.6751V23H58.4141V13.6855H64.1536V14.7125H59.6751ZM67.0777 23H65.8167V13.6855H67.0777V23ZM76.0512 21.076C76.1206 21.076 76.1812 21.1042 76.2332 21.1605L76.7337 21.7C76.3524 22.142 75.8887 22.4865 75.3427 22.7335C74.8011 22.9805 74.1446 23.104 73.3732 23.104C72.7059 23.104 72.0992 22.9892 71.5532 22.7595C71.0072 22.5255 70.5414 22.2005 70.1557 21.7845C69.7701 21.3642 69.4711 20.8615 69.2587 20.2765C69.0464 19.6915 68.9402 19.048 68.9402 18.346C68.9402 17.644 69.0507 17.0005 69.2717 16.4155C69.4927 15.8305 69.8026 15.3278 70.2012 14.9075C70.6042 14.4872 71.0852 14.1622 71.6442 13.9325C72.2032 13.6985 72.8207 13.5815 73.4967 13.5815C74.1597 13.5815 74.7447 13.6877 75.2517 13.9C75.7587 14.1123 76.2051 14.4005 76.5907 14.7645L76.1747 15.343C76.1487 15.3863 76.1141 15.4232 76.0707 15.4535C76.0317 15.4795 75.9776 15.4925 75.9082 15.4925C75.8302 15.4925 75.7349 15.4513 75.6222 15.369C75.5096 15.2823 75.3622 15.187 75.1802 15.083C74.9982 14.979 74.7707 14.8858 74.4977 14.8035C74.2247 14.7168 73.8889 14.6735 73.4902 14.6735C73.0092 14.6735 72.5694 14.758 72.1707 14.927C71.7721 15.0917 71.4276 15.3322 71.1372 15.6485C70.8512 15.9648 70.6281 16.3505 70.4677 16.8055C70.3074 17.2605 70.2272 17.774 70.2272 18.346C70.2272 18.9267 70.3096 19.4445 70.4742 19.8995C70.6432 20.3545 70.8707 20.7402 71.1567 21.0565C71.4471 21.3685 71.7872 21.6068 72.1772 21.7715C72.5716 21.9362 72.9962 22.0185 73.4512 22.0185C73.7286 22.0185 73.9777 22.0033 74.1987 21.973C74.4241 21.9383 74.6299 21.8863 74.8162 21.817C75.0069 21.7477 75.1824 21.661 75.3427 21.557C75.5074 21.4487 75.6699 21.3208 75.8302 21.1735C75.9039 21.1085 75.9776 21.076 76.0512 21.076ZM83.1943 19.542L81.7318 15.7525C81.6885 15.6398 81.643 15.5098 81.5953 15.3625C81.5477 15.2108 81.5022 15.0505 81.4588 14.8815C81.3678 15.2325 81.2747 15.525 81.1793 15.759L79.7168 19.542H83.1943ZM85.8203 23H84.8453C84.7327 23 84.6417 22.9718 84.5723 22.9155C84.503 22.8592 84.451 22.7877 84.4163 22.701L83.5453 20.452H79.3658L78.4948 22.701C78.4688 22.779 78.419 22.8483 78.3453 22.909C78.2717 22.9697 78.1807 23 78.0723 23H77.0973L80.8218 13.6855H82.0958L85.8203 23ZM89.6782 18.1965C90.0422 18.1965 90.3629 18.1532 90.6402 18.0665C90.9219 17.9755 91.1559 17.8498 91.3422 17.6895C91.5329 17.5248 91.6759 17.3298 91.7712 17.1045C91.8665 16.8792 91.9142 16.63 91.9142 16.357C91.9142 15.8023 91.7322 15.3842 91.3682 15.1025C91.0042 14.8208 90.4582 14.68 89.7302 14.68H88.3522V18.1965H89.6782ZM93.9812 23H92.8632C92.6335 23 92.4645 22.9112 92.3562 22.7335L89.9382 19.4055C89.8645 19.3015 89.7844 19.2278 89.6977 19.1845C89.6154 19.1368 89.4854 19.113 89.3077 19.113H88.3522V23H87.0977V13.6855H89.7302C90.3195 13.6855 90.8287 13.7462 91.2577 13.8675C91.6867 13.9845 92.0399 14.1557 92.3172 14.381C92.5989 14.6063 92.8069 14.8793 92.9412 15.2C93.0755 15.5163 93.1427 15.8717 93.1427 16.266C93.1427 16.5953 93.0907 16.903 92.9867 17.189C92.8827 17.475 92.731 17.7328 92.5317 17.9625C92.3367 18.1878 92.0962 18.3807 91.8102 18.541C91.5285 18.7013 91.2079 18.8227 90.8482 18.905C91.0085 18.996 91.1472 19.1282 91.2642 19.3015L93.9812 23Z" fill="#FCFFF8"/>
</svg>
