<svg width="119" height="36" viewBox="0 0 119 36" fill="none" xmlns="http://www.w3.org/2000/svg">
<rect width="119" height="36" rx="18" fill="#CE2F2F"/>
<path d="M37.459 21.999C37.8187 21.999 38.1285 21.9578 38.3885 21.8755C38.6485 21.7932 38.8608 21.6783 39.0255 21.531C39.1945 21.3793 39.318 21.2017 39.396 20.998C39.474 20.79 39.513 20.5625 39.513 20.3155C39.513 19.8345 39.3418 19.4553 38.9995 19.178C38.6572 18.8963 38.1437 18.7555 37.459 18.7555H35.444V21.999H37.459ZM35.444 14.68V17.8585H37.108C37.4633 17.8585 37.771 17.8195 38.031 17.7415C38.2953 17.6635 38.512 17.5552 38.681 17.4165C38.8543 17.2778 38.9822 17.111 39.0645 16.916C39.1468 16.7167 39.188 16.5 39.188 16.266C39.188 15.7157 39.0233 15.3148 38.694 15.0635C38.3647 14.8078 37.8533 14.68 37.16 14.68H35.444ZM37.16 13.6855C37.732 13.6855 38.2238 13.7418 38.6355 13.8545C39.0515 13.9672 39.3917 14.1275 39.656 14.3355C39.9247 14.5435 40.1218 14.7992 40.2475 15.1025C40.3732 15.4015 40.436 15.7395 40.436 16.1165C40.436 16.3462 40.3992 16.5672 40.3255 16.7795C40.2562 16.9875 40.15 17.1825 40.007 17.3645C39.864 17.5465 39.682 17.7112 39.461 17.8585C39.2443 18.0015 38.9887 18.1185 38.694 18.2095C39.3787 18.3395 39.8922 18.5843 40.2345 18.944C40.5812 19.2993 40.7545 19.7673 40.7545 20.348C40.7545 20.7423 40.6808 21.102 40.5335 21.427C40.3905 21.752 40.1782 22.0315 39.8965 22.2655C39.6192 22.4995 39.2768 22.6815 38.8695 22.8115C38.4622 22.9372 37.9985 23 37.4785 23H34.1895V13.6855H37.16ZM51.2518 18.346C51.2518 19.0437 51.1413 19.685 50.9203 20.27C50.6993 20.8507 50.3873 21.3512 49.9843 21.7715C49.5813 22.1918 49.096 22.519 48.5283 22.753C47.965 22.9827 47.341 23.0975 46.6563 23.0975C45.9716 23.0975 45.3476 22.9827 44.7843 22.753C44.221 22.519 43.7378 22.1918 43.3348 21.7715C42.9318 21.3512 42.6198 20.8507 42.3988 20.27C42.1778 19.685 42.0673 19.0437 42.0673 18.346C42.0673 17.6483 42.1778 17.0092 42.3988 16.4285C42.6198 15.8435 42.9318 15.3408 43.3348 14.9205C43.7378 14.4958 44.221 14.1665 44.7843 13.9325C45.3476 13.6985 45.9716 13.5815 46.6563 13.5815C47.341 13.5815 47.965 13.6985 48.5283 13.9325C49.096 14.1665 49.5813 14.4958 49.9843 14.9205C50.3873 15.3408 50.6993 15.8435 50.9203 16.4285C51.1413 17.0092 51.2518 17.6483 51.2518 18.346ZM49.9583 18.346C49.9583 17.774 49.8803 17.2605 49.7243 16.8055C49.5683 16.3505 49.3473 15.967 49.0613 15.655C48.7753 15.3387 48.4286 15.096 48.0213 14.927C47.614 14.758 47.159 14.6735 46.6563 14.6735C46.158 14.6735 45.7051 14.758 45.2978 14.927C44.8905 15.096 44.5416 15.3387 44.2513 15.655C43.9653 15.967 43.7443 16.3505 43.5883 16.8055C43.4323 17.2605 43.3543 17.774 43.3543 18.346C43.3543 18.918 43.4323 19.4315 43.5883 19.8865C43.7443 20.3372 43.9653 20.7207 44.2513 21.037C44.5416 21.349 44.8905 21.5895 45.2978 21.7585C45.7051 21.9232 46.158 22.0055 46.6563 22.0055C47.159 22.0055 47.614 21.9232 48.0213 21.7585C48.4286 21.5895 48.7753 21.349 49.0613 21.037C49.3473 20.7207 49.5683 20.3372 49.7243 19.8865C49.8803 19.4315 49.9583 18.918 49.9583 18.346ZM55.6885 18.1965C56.0525 18.1965 56.3731 18.1532 56.6505 18.0665C56.9321 17.9755 57.1661 17.8498 57.3525 17.6895C57.5431 17.5248 57.6861 17.3298 57.7815 17.1045C57.8768 16.8792 57.9245 16.63 57.9245 16.357C57.9245 15.8023 57.7425 15.3842 57.3785 15.1025C57.0145 14.8208 56.4685 14.68 55.7405 14.68H54.3625V18.1965H55.6885ZM59.9915 23H58.8735C58.6438 23 58.4748 22.9112 58.3665 22.7335L55.9485 19.4055C55.8748 19.3015 55.7946 19.2278 55.708 19.1845C55.6256 19.1368 55.4956 19.113 55.318 19.113H54.3625V23H53.108V13.6855H55.7405C56.3298 13.6855 56.839 13.7462 57.268 13.8675C57.697 13.9845 58.0501 14.1557 58.3275 14.381C58.6091 14.6063 58.8171 14.8793 58.9515 15.2C59.0858 15.5163 59.153 15.8717 59.153 16.266C59.153 16.5953 59.101 16.903 58.997 17.189C58.893 17.475 58.7413 17.7328 58.542 17.9625C58.347 18.1878 58.1065 18.3807 57.8205 18.541C57.5388 18.7013 57.2181 18.8227 56.8585 18.905C57.0188 18.996 57.1575 19.1282 57.2745 19.3015L59.9915 23ZM63.8908 18.1965C64.2548 18.1965 64.5755 18.1532 64.8528 18.0665C65.1345 17.9755 65.3685 17.8498 65.5548 17.6895C65.7455 17.5248 65.8885 17.3298 65.9838 17.1045C66.0792 16.8792 66.1268 16.63 66.1268 16.357C66.1268 15.8023 65.9448 15.3842 65.5808 15.1025C65.2168 14.8208 64.6708 14.68 63.9428 14.68H62.5648V18.1965H63.8908ZM68.1938 23H67.0758C66.8462 23 66.6772 22.9112 66.5688 22.7335L64.1508 19.4055C64.0772 19.3015 63.997 19.2278 63.9103 19.1845C63.828 19.1368 63.698 19.113 63.5203 19.113H62.5648V23H61.3103V13.6855H63.9428C64.5322 13.6855 65.0413 13.7462 65.4703 13.8675C65.8993 13.9845 66.2525 14.1557 66.5298 14.381C66.8115 14.6063 67.0195 14.8793 67.1538 15.2C67.2882 15.5163 67.3553 15.8717 67.3553 16.266C67.3553 16.5953 67.3033 16.903 67.1993 17.189C67.0953 17.475 66.9437 17.7328 66.7443 17.9625C66.5493 18.1878 66.3088 18.3807 66.0228 18.541C65.7412 18.7013 65.4205 18.8227 65.0608 18.905C65.2212 18.996 65.3598 19.1282 65.4768 19.3015L68.1938 23ZM74.4592 19.542L72.9967 15.7525C72.9534 15.6398 72.9079 15.5098 72.8602 15.3625C72.8126 15.2108 72.7671 15.0505 72.7237 14.8815C72.6327 15.2325 72.5396 15.525 72.4442 15.759L70.9817 19.542H74.4592ZM77.0852 23H76.1102C75.9976 23 75.9066 22.9718 75.8372 22.9155C75.7679 22.8592 75.7159 22.7877 75.6812 22.701L74.8102 20.452H70.6307L69.7597 22.701C69.7337 22.779 69.6839 22.8483 69.6102 22.909C69.5366 22.9697 69.4456 23 69.3372 23H68.3622L72.0867 13.6855H73.3607L77.0852 23ZM80.9431 18.1965C81.3071 18.1965 81.6278 18.1532 81.9051 18.0665C82.1868 17.9755 82.4208 17.8498 82.6071 17.6895C82.7978 17.5248 82.9408 17.3298 83.0361 17.1045C83.1314 16.8792 83.1791 16.63 83.1791 16.357C83.1791 15.8023 82.9971 15.3842 82.6331 15.1025C82.2691 14.8208 81.7231 14.68 80.9951 14.68H79.6171V18.1965H80.9431ZM85.2461 23H84.1281C83.8984 23 83.7294 22.9112 83.6211 22.7335L81.2031 19.4055C81.1294 19.3015 81.0493 19.2278 80.9626 19.1845C80.8803 19.1368 80.7503 19.113 80.5726 19.113H79.6171V23H78.3626V13.6855H80.9951C81.5844 13.6855 82.0936 13.7462 82.5226 13.8675C82.9516 13.9845 83.3048 14.1557 83.5821 14.381C83.8638 14.6063 84.0718 14.8793 84.2061 15.2C84.3404 15.5163 84.4076 15.8717 84.4076 16.266C84.4076 16.5953 84.3556 16.903 84.2516 17.189C84.1476 17.475 83.9959 17.7328 83.7966 17.9625C83.6016 18.1878 83.3611 18.3807 83.0751 18.541C82.7934 18.7013 82.4728 18.8227 82.1131 18.905C82.2734 18.996 82.4121 19.1282 82.5291 19.3015L85.2461 23Z" fill="#FCFFF8"/>
</svg>
