<svg width="50" height="50" viewBox="0 0 50 50" fill="none" xmlns="http://www.w3.org/2000/svg">
<circle cx="25" cy="25" r="25" fill="#8DC63F"/>
<g filter="url(#filter0_d)">
<path d="M29.8632 33.4503C26.6021 33.4503 23.3409 32.2274 20.895 29.7816C16.0033 24.8898 16.0033 16.9407 20.895 12.049C23.3409 9.60316 26.3982 8.38025 29.8632 8.38025C33.1244 8.38025 36.3854 9.60316 38.8313 12.049C43.723 16.9407 43.723 24.8898 38.8313 29.7816C36.3854 32.2274 33.1244 33.4503 29.8632 33.4503ZM29.8632 10.4185C27.0097 10.4185 24.3599 11.4376 22.5255 13.4758C18.4491 17.5522 18.4491 24.2783 22.5255 28.3548C24.5638 30.393 27.2135 31.4121 29.8632 31.4121C32.7167 31.4121 35.3664 30.393 37.2008 28.3548C41.2772 24.2783 41.2772 17.5522 37.2008 13.4758C35.3664 11.4376 32.7167 10.4185 29.8632 10.4185Z" fill="white"/>
<path d="M36.7927 22.0363C36.1813 22.0363 35.7736 21.6287 35.7736 21.0172C35.7736 17.7561 33.124 15.1064 29.8629 15.1064C26.6017 15.1064 23.952 17.7561 23.952 21.0172C23.952 21.6287 23.5443 22.0363 22.9329 22.0363C22.3214 22.0363 21.9138 21.6287 21.9138 21.0172C21.9138 16.5331 25.5826 12.8643 30.0666 12.8643C34.5507 12.8643 38.2195 16.5331 38.2195 21.0172C37.8119 21.4249 37.4042 22.0363 36.7927 22.0363Z" fill="white"/>
<path d="M14.3725 40.3804C13.3534 40.3804 12.3343 39.9727 11.7229 39.1574C10.9076 38.3421 10.5 37.3231 10.5 36.3039C10.5 35.2848 10.9076 34.2657 11.7229 33.6543L17.0222 28.3549C17.4298 27.9472 18.0413 27.9472 18.449 28.3549C18.8566 28.7625 18.8566 29.374 18.449 29.7816L13.1497 35.081C12.742 35.4886 12.5382 35.8963 12.5382 36.3039C12.5382 36.7116 12.742 37.323 13.1497 37.5269C13.9649 38.3421 15.1879 38.3421 15.7993 37.5269L21.0986 32.2275C21.5063 31.8199 22.1178 31.8199 22.5254 32.2275C22.9331 32.6351 22.9331 33.2466 22.5254 33.6543L17.2261 38.9536C16.4108 39.9727 15.3917 40.3804 14.3725 40.3804Z" fill="white"/>
</g>
<defs>
<filter id="filter0_d" x="7.5" y="5.38025" width="38.0001" height="38.0001" filterUnits="userSpaceOnUse" color-interpolation-filters="sRGB">
<feFlood flood-opacity="0" result="BackgroundImageFix"/>
<feColorMatrix in="SourceAlpha" type="matrix" values="0 0 0 0 0 0 0 0 0 0 0 0 0 0 0 0 0 0 127 0"/>
<feOffset/>
<feGaussianBlur stdDeviation="1.5"/>
<feColorMatrix type="matrix" values="0 0 0 0 0.545098 0 0 0 0 0.772549 0 0 0 0 0.247059 0 0 0 0.5 0"/>
<feBlend mode="normal" in2="BackgroundImageFix" result="effect1_dropShadow"/>
<feBlend mode="normal" in="SourceGraphic" in2="effect1_dropShadow" result="shape"/>
</filter>
</defs>
</svg>
