<svg width="39" height="38" viewBox="0 0 39 38" fill="none" xmlns="http://www.w3.org/2000/svg">
<g filter="url(#filter0_d)">
<path d="M22.8633 28.0701C19.6022 28.0701 16.341 26.8472 13.8951 24.4013C9.00339 19.5096 9.00339 11.5605 13.8951 6.66877C16.341 4.22291 19.3984 3 22.8633 3C26.1245 3 29.3856 4.22291 31.8314 6.66877C36.7232 11.5605 36.7232 19.5096 31.8314 24.4013C29.3856 26.8472 26.1245 28.0701 22.8633 28.0701ZM22.8633 5.03822C20.0098 5.03822 17.3601 6.05733 15.5257 8.09555C11.4492 12.172 11.4492 18.8981 15.5257 22.9745C17.5639 25.0127 20.2136 26.0319 22.8633 26.0319C25.7168 26.0319 28.3665 25.0127 30.2009 22.9745C34.2773 18.8981 34.2773 12.172 30.2009 8.09555C28.3665 6.05733 25.7168 5.03822 22.8633 5.03822Z" fill="#24241C"/>
<path d="M29.7928 16.6561C29.1813 16.6561 28.7737 16.2485 28.7737 15.637C28.7737 12.3759 26.1241 9.72615 22.8629 9.72615C19.6018 9.72615 16.952 12.3759 16.952 15.637C16.952 16.2485 16.5444 16.6561 15.9329 16.6561C15.3215 16.6561 14.9138 16.2485 14.9138 15.637C14.9138 11.1529 18.5826 7.48413 23.0667 7.48413C27.5508 7.48413 31.2196 11.1529 31.2196 15.637C30.8119 16.0447 30.4043 16.6561 29.7928 16.6561Z" fill="#24241C"/>
<path d="M7.37254 35.0002C6.35343 35.0002 5.33435 34.5925 4.72288 33.7772C3.90759 32.962 3.5 31.9429 3.5 30.9238C3.5 29.9046 3.90759 28.8855 4.72288 28.2741L10.0222 22.9747C10.4298 22.567 11.0413 22.567 11.449 22.9747C11.8566 23.3823 11.8566 23.9938 11.449 24.4015L6.14966 29.7008C5.74202 30.1085 5.53822 30.5161 5.53822 30.9238C5.53822 31.3314 5.74202 31.9428 6.14966 32.1467C6.96495 32.962 8.18786 32.962 8.79932 32.1467L14.0986 26.8473C14.5063 26.4397 15.1178 26.4397 15.5254 26.8473C15.9331 27.255 15.9331 27.8664 15.5254 28.2741L10.2261 33.5734C9.41081 34.5926 8.39165 35.0002 7.37254 35.0002Z" fill="#24241C"/>
</g>
<defs>
<filter id="filter0_d" x="0.5" y="0" width="38.0002" height="38.0002" filterUnits="userSpaceOnUse" color-interpolation-filters="sRGB">
<feFlood flood-opacity="0" result="BackgroundImageFix"/>
<feColorMatrix in="SourceAlpha" type="matrix" values="0 0 0 0 0 0 0 0 0 0 0 0 0 0 0 0 0 0 127 0"/>
<feOffset/>
<feGaussianBlur stdDeviation="1.5"/>
<feColorMatrix type="matrix" values="0 0 0 0 0.545098 0 0 0 0 0.772549 0 0 0 0 0.247059 0 0 0 0.5 0"/>
<feBlend mode="normal" in2="BackgroundImageFix" result="effect1_dropShadow"/>
<feBlend mode="normal" in="SourceGraphic" in2="effect1_dropShadow" result="shape"/>
</filter>
</defs>
</svg>
