<svg width="51" height="51" viewBox="0 0 51 51" fill="none" xmlns="http://www.w3.org/2000/svg">
<circle cx="25.5" cy="25.5" r="25" fill="#8DC63F"/>
<g filter="url(#filter0_d)">
<path d="M30.3633 33.9503C27.1022 33.9503 23.841 32.7274 21.3951 30.2816C16.5034 25.3898 16.5034 17.4407 21.3951 12.549C23.841 10.1032 26.8984 8.88025 30.3633 8.88025C33.6245 8.88025 36.8856 10.1032 39.3314 12.549C44.2232 17.4407 44.2232 25.3898 39.3314 30.2816C36.8856 32.7274 33.6245 33.9503 30.3633 33.9503ZM30.3633 10.9185C27.5098 10.9185 24.8601 11.9376 23.0257 13.9758C18.9492 18.0522 18.9492 24.7783 23.0257 28.8548C25.0639 30.893 27.7136 31.9121 30.3633 31.9121C33.2168 31.9121 35.8665 30.893 37.7009 28.8548C41.7773 24.7783 41.7773 18.0522 37.7009 13.9758C35.8665 11.9376 33.2168 10.9185 30.3633 10.9185Z" fill="white"/>
<path d="M37.2928 22.5364C36.6813 22.5364 36.2737 22.1287 36.2737 21.5173C36.2737 18.2561 33.6241 15.6064 30.3629 15.6064C27.1018 15.6064 24.452 18.2561 24.452 21.5173C24.452 22.1287 24.0444 22.5364 23.4329 22.5364C22.8215 22.5364 22.4138 22.1287 22.4138 21.5173C22.4138 17.0332 26.0826 13.3644 30.5667 13.3644C35.0508 13.3644 38.7196 17.0332 38.7196 21.5173C38.3119 21.9249 37.9043 22.5364 37.2928 22.5364Z" fill="white"/>
<path d="M14.8725 40.8804C13.8534 40.8804 12.8343 40.4727 12.2229 39.6574C11.4076 38.8421 11 37.8231 11 36.8039C11 35.7848 11.4076 34.7657 12.2229 34.1543L17.5222 28.8549C17.9298 28.4472 18.5413 28.4472 18.949 28.8549C19.3566 29.2625 19.3566 29.874 18.949 30.2816L13.6497 35.581C13.242 35.9886 13.0382 36.3963 13.0382 36.8039C13.0382 37.2116 13.242 37.823 13.6497 38.0269C14.4649 38.8421 15.6879 38.8421 16.2993 38.0269L21.5986 32.7275C22.0063 32.3199 22.6178 32.3199 23.0254 32.7275C23.4331 33.1351 23.4331 33.7466 23.0254 34.1543L17.7261 39.4536C16.9108 40.4727 15.8917 40.8804 14.8725 40.8804Z" fill="white"/>
</g>
<defs>
<filter id="filter0_d" x="8" y="5.88025" width="38.0002" height="38.0001" filterUnits="userSpaceOnUse" color-interpolation-filters="sRGB">
<feFlood flood-opacity="0" result="BackgroundImageFix"/>
<feColorMatrix in="SourceAlpha" type="matrix" values="0 0 0 0 0 0 0 0 0 0 0 0 0 0 0 0 0 0 127 0"/>
<feOffset/>
<feGaussianBlur stdDeviation="1.5"/>
<feColorMatrix type="matrix" values="0 0 0 0 0.545098 0 0 0 0 0.772549 0 0 0 0 0.247059 0 0 0 0.5 0"/>
<feBlend mode="normal" in2="BackgroundImageFix" result="effect1_dropShadow"/>
<feBlend mode="normal" in="SourceGraphic" in2="effect1_dropShadow" result="shape"/>
</filter>
</defs>
</svg>
