<svg width="39" height="38" viewBox="0 0 39 38" fill="none" xmlns="http://www.w3.org/2000/svg">
<g filter="url(#filter0_d)">
<path d="M20.1764 21.5478C19.9511 21.5478 19.7257 21.5478 19.7257 21.344C16.5708 19.7134 12.2891 17.0637 11.3877 12.172C10.937 10.5414 11.3876 7.68788 13.1904 5.64966C14.3172 4.42673 16.3454 3 19.7257 3C24.9088 3 27.3877 6.05731 28.0638 8.91082C28.9652 12.3758 27.1624 16.8599 22.43 18.6943C21.7539 18.8981 21.3032 18.6943 20.8525 18.0828C20.6271 17.4713 20.8524 17.0637 21.5285 16.6561C25.1341 15.2293 26.4863 11.7643 25.8102 9.11465C25.1342 6.46497 22.8806 4.83438 19.7257 4.83438C17.6975 4.83438 16.1201 5.44584 14.9934 6.66877C13.6413 8.09552 13.4158 10.1338 13.6412 11.5605C14.3172 14.6178 16.5708 17.0637 20.8525 19.3057C21.3032 19.5096 21.5286 20.121 21.3032 20.7325C20.8525 21.344 20.6271 21.5478 20.1764 21.5478Z" fill="#24241C"/>
<path d="M34.3732 35H4.62676C3.9507 35 3.5 34.5923 3.5 33.9808C3.5 30.7197 3.5 26.0318 4.62676 23.7898C5.97887 20.5286 11.838 18.4904 12.5141 18.2866C12.9648 18.0828 13.6409 18.2866 13.8663 18.898C14.993 21.3439 17.2466 22.7707 19.5001 22.7707C21.7536 22.7707 23.7818 21.3439 25.1339 18.898C25.3592 18.4904 26.0352 18.0828 26.4859 18.2866C27.162 18.4904 33.0211 20.5286 34.3732 23.7898C35.2746 25.828 35.2746 28.07 35.0493 29.9044V30.9235C35.0493 31.535 34.5986 31.9426 33.9225 31.9426C33.2465 31.9426 32.7958 31.535 32.7958 30.9235V29.9044C32.7958 28.07 32.7958 26.2356 32.1197 24.605C31.4437 22.9745 28.2887 21.3439 26.4859 20.5286C24.9085 23.1783 22.2042 24.8089 19.2746 24.8089C16.3451 24.8089 13.8662 23.1783 12.0633 20.5286C10.2605 21.3439 7.1056 22.7706 6.42955 24.605C5.97884 25.828 5.52822 28.6815 5.52822 32.9617H34.3732C35.0493 32.9617 35.5 33.3694 35.5 33.9808C35.5 34.5923 35.0493 35 34.3732 35Z" fill="#24241C"/>
</g>
<defs>
<filter id="filter0_d" x="0.5" y="0" width="38" height="38" filterUnits="userSpaceOnUse" color-interpolation-filters="sRGB">
<feFlood flood-opacity="0" result="BackgroundImageFix"/>
<feColorMatrix in="SourceAlpha" type="matrix" values="0 0 0 0 0 0 0 0 0 0 0 0 0 0 0 0 0 0 127 0"/>
<feOffset/>
<feGaussianBlur stdDeviation="1.5"/>
<feColorMatrix type="matrix" values="0 0 0 0 0.545098 0 0 0 0 0.772549 0 0 0 0 0.247059 0 0 0 0.5 0"/>
<feBlend mode="normal" in2="BackgroundImageFix" result="effect1_dropShadow"/>
<feBlend mode="normal" in="SourceGraphic" in2="effect1_dropShadow" result="shape"/>
</filter>
</defs>
</svg>
