<svg width="51" height="50" viewBox="0 0 51 50" fill="none" xmlns="http://www.w3.org/2000/svg">
<circle cx="25.5" cy="25" r="25" fill="#8DC63F"/>
<g filter="url(#filter0_d)">
<path d="M26.1764 25.5478C25.9511 25.5478 25.7257 25.5478 25.7257 25.344C22.5708 23.7134 18.2891 21.0637 17.3877 16.172C16.937 14.5414 17.3876 11.6879 19.1904 9.64966C20.3172 8.42673 22.3454 7 25.7257 7C30.9088 7 33.3877 10.0573 34.0638 12.9108C34.9652 16.3758 33.1624 20.8599 28.43 22.6943C27.7539 22.8981 27.3032 22.6943 26.8525 22.0828C26.6271 21.4713 26.8524 21.0637 27.5285 20.6561C31.1341 19.2293 32.4863 15.7643 31.8102 13.1147C31.1342 10.465 28.8806 8.83438 25.7257 8.83438C23.6975 8.83438 22.1201 9.44584 20.9934 10.6688C19.6413 12.0955 19.4158 14.1338 19.6412 15.5605C20.3172 18.6178 22.5708 21.0637 26.8525 23.3057C27.3032 23.5096 27.5286 24.121 27.3032 24.7325C26.8525 25.344 26.6271 25.5478 26.1764 25.5478Z" fill="white"/>
<path d="M40.3732 39H10.6268C9.9507 39 9.5 38.5924 9.5 37.9809C9.5 34.7198 9.5 30.0319 10.6268 27.7898C11.9789 24.5287 17.838 22.4905 18.5141 22.2866C18.9648 22.0828 19.6409 22.2866 19.8663 22.8981C20.993 25.3439 23.2466 26.7707 25.5001 26.7707C27.7536 26.7707 29.7818 25.3439 31.1339 22.8981C31.3592 22.4904 32.0352 22.0828 32.4859 22.2866C33.162 22.4905 39.0211 24.5287 40.3732 27.7898C41.2746 29.828 41.2746 32.0701 41.0493 33.9045V34.9236C41.0493 35.535 40.5986 35.9427 39.9225 35.9427C39.2465 35.9427 38.7958 35.535 38.7958 34.9236V33.9045C38.7958 32.0701 38.7958 30.2357 38.1197 28.6051C37.4437 26.9745 34.2887 25.3439 32.4859 24.5287C30.9085 27.1783 28.2042 28.8089 25.2746 28.8089C22.3451 28.8089 19.8662 27.1783 18.0633 24.5287C16.2605 25.3439 13.1056 26.7707 12.4295 28.6051C11.9788 29.828 11.5282 32.6815 11.5282 36.9618H40.3732C41.0493 36.9618 41.5 37.3694 41.5 37.9809C41.5 38.5924 41.0493 39 40.3732 39Z" fill="white"/>
</g>
<defs>
<filter id="filter0_d" x="6.5" y="4" width="38" height="38" filterUnits="userSpaceOnUse" color-interpolation-filters="sRGB">
<feFlood flood-opacity="0" result="BackgroundImageFix"/>
<feColorMatrix in="SourceAlpha" type="matrix" values="0 0 0 0 0 0 0 0 0 0 0 0 0 0 0 0 0 0 127 0"/>
<feOffset/>
<feGaussianBlur stdDeviation="1.5"/>
<feColorMatrix type="matrix" values="0 0 0 0 0.545098 0 0 0 0 0.772549 0 0 0 0 0.247059 0 0 0 0.5 0"/>
<feBlend mode="normal" in2="BackgroundImageFix" result="effect1_dropShadow"/>
<feBlend mode="normal" in="SourceGraphic" in2="effect1_dropShadow" result="shape"/>
</filter>
</defs>
</svg>
