<svg xmlns="http://www.w3.org/2000/svg" xmlns:xlink="http://www.w3.org/1999/xlink" viewBox="0 0 118.21 100.37"><defs><style>.cls-1{fill:#8ec044;}.cls-2{fill:#d2d2d2;}.cls-3{fill:url(#linear-gradient);}.cls-4{fill:#fbb800;}.cls-5{fill:#864010;}.cls-6{fill:#fff;}.cls-7{fill:url(#linear-gradient-2);}.cls-8{fill:#965a29;}.cls-9{fill:#511b02;}.cls-10{fill:#421004;}.cls-11{fill:#c16030;}.cls-12{fill:url(#linear-gradient-3);}.cls-13{fill:#a84f19;}</style><linearGradient id="linear-gradient" x1="-436.04" y1="279.09" x2="-436.38" y2="248.86" gradientTransform="matrix(0.95, -0.48, 0.74, 0.68, 244.71, -318.97)" gradientUnits="userSpaceOnUse"><stop offset="0" stop-color="#ac4c14"/><stop offset="0.25" stop-color="#be5d0f"/><stop offset="1" stop-color="#f18d00"/></linearGradient><linearGradient id="linear-gradient-2" x1="44.92" y1="91.86" x2="47.83" y2="51.9" gradientTransform="translate(19.02 -16.81) rotate(-2.81)" gradientUnits="userSpaceOnUse"><stop offset="0" stop-color="#71330f"/><stop offset="0.38" stop-color="#6f300f"/><stop offset="0.71" stop-color="#67250d"/><stop offset="1" stop-color="#5c150b"/></linearGradient><linearGradient id="linear-gradient-3" x1="67.69" y1="88.97" x2="71.44" y2="58.03" gradientTransform="matrix(1.05, 0.05, -0.05, 0.95, 3.64, 3.64)" gradientUnits="userSpaceOnUse"><stop offset="0" stop-color="#ac4c14"/><stop offset="0.22" stop-color="#d36713"/><stop offset="0.43" stop-color="#df760c"/><stop offset="0.76" stop-color="#ec8703"/><stop offset="1" stop-color="#f18d00"/></linearGradient></defs><g id="Capa_2" data-name="Capa 2"><g id="Layer_1" data-name="Layer 1"><path class="cls-1" d="M59.1,49.76c23.56,0,44.69,3.39,59.11,8.74C115.22,25.66,89.91,0,59.1,0S3,25.66,0,58.5C14.42,53.15,35.55,49.76,59.1,49.76Z"/><path class="cls-2" d="M6.6,84.84s-2.67,4,4,10.34,15.33,7,16.33,1.33,1.34-10.33,1.34-10.33a13.07,13.07,0,0,0,6-3.34,10.16,10.16,0,0,1,5.33-3s2.33-13.66,0-13.66-28.33,1-32,15Z"/><path class="cls-2" d="M35.6,78.51s-3,6.66,14.33,13,46.4,10.08,56,2.67c7.34-5.67,1-12-6.33-13.67C92.71,78.94,33.6,60.51,35.6,78.51Z"/><path class="cls-2" d="M67.27,69.18l28.66-6.34s5.34.33,6,1.67S79.6,79.18,79.6,79.18,62.27,74.84,67.27,69.18Z"/><path class="cls-3" d="M65,70.43C66.18,69,63.26,62.8,48.32,58.91a21.78,21.78,0,0,0-10.84-3.06,12,12,0,0,0-5.84,1.32,18.64,18.64,0,0,0-9.89.46c-3.2,1.13-5.25,3.19-6,5.47a12.19,12.19,0,0,0-6.14,3.44,9.55,9.55,0,0,0-2,9.77C4.33,91.3,16,97.63,19.46,97.88c6.83.48,7-5.81,7.08-14.4a10.94,10.94,0,0,0,4.58-3.35,8.41,8.41,0,0,0,1.51-3.27l.39-.28A13.74,13.74,0,0,0,38.6,75.5a8,8,0,0,0,3.56-3.12l1.09-.27a14.49,14.49,0,0,0,3.06.16,10.09,10.09,0,0,0,4-1C59.81,70,63.92,72.38,65,70.43Z"/><path class="cls-4" d="M13.39,90.32c-.18-1.66-.41-3.55-.6-5.61-.08-1-.17-2.1-.18-3.18,0-.54,0-1.09.05-1.62,0-.28.08-.52.11-.78a2.09,2.09,0,0,1,.08-.36l.21-.75c-.1-.2-.19-.41-.29-.63l-.14-.34a11.78,11.78,0,0,1-.82-6.51A7.61,7.61,0,0,1,13,67.88c.3-.37.62-.71.94-1L15,66l-1.27.55a14.69,14.69,0,0,0-1.26.85,7.33,7.33,0,0,0-2,2.8,11,11,0,0,0,.4,7.58l.16.4c0,.09,0,.06,0,.07h0l0,.12a2.46,2.46,0,0,0-.11.51,8.33,8.33,0,0,0-.09,1,13.79,13.79,0,0,0,0,1.83,24.62,24.62,0,0,0,.57,3.3A30.21,30.21,0,0,0,13.39,90.32Z"/><path class="cls-4" d="M28.24,58.79l-1.58.09a15.53,15.53,0,0,0-3.51.6,15.46,15.46,0,0,0-1.81.79,7.43,7.43,0,0,0-1.47,1.07l-.54.54c-.14.19-.26.36-.35.5a1.88,1.88,0,0,0-.3.49c-.15.35.21.83.77.89s1,.05,1.11-.16a1.25,1.25,0,0,1,.13-.33c0-.1.11-.23.17-.38s.2-.28.32-.45a6.24,6.24,0,0,1,1-1.06,16,16,0,0,1,1.42-1,14.59,14.59,0,0,1,3.15-1.21Z"/><path class="cls-4" d="M45.27,59.27s-.39-.34-1-.81a8.75,8.75,0,0,0-2.6-1.29,5.9,5.9,0,0,0-3.11-.07,4.76,4.76,0,0,0-1,.37,3.89,3.89,0,0,0-.4.21c-.24.18-.2.63.13.93s.66.46.82.34a3.92,3.92,0,0,1,.95-.6,5,5,0,0,1,2.51-.4,8.08,8.08,0,0,1,2.62.73C44.82,59,45.27,59.27,45.27,59.27Z"/><path class="cls-5" d="M7.58,76.31a16.58,16.58,0,0,1,10.51.59A20.9,20.9,0,0,1,23,80c.65.63,1.33,1.2,1.91,1.8S26,83,26.54,83.48c-.34-.65-.73-1.35-1.16-2.1S24.33,80,23.74,79.2a15.25,15.25,0,0,0-5.09-3.65,12.4,12.4,0,0,0-6.22-.89A11.3,11.3,0,0,0,7.58,76.31Z"/><path class="cls-5" d="M15.76,63.1a16.26,16.26,0,0,1,5.41.52,13.07,13.07,0,0,1,5.5,3,19.46,19.46,0,0,1,3.78,5.14c.4.92.9,1.77,1.21,2.64s.65,1.67,1,2.43c-.1-.8-.23-1.68-.38-2.61a24.7,24.7,0,0,0-.82-2.9,15.38,15.38,0,0,0-3.77-5.78,11.77,11.77,0,0,0-6.27-3A11.65,11.65,0,0,0,15.76,63.1Z"/><path class="cls-5" d="M31.64,57.17A12.61,12.61,0,0,1,35.83,59a11.84,11.84,0,0,1,3.58,3.84c1.89,3.25,2.3,6.89,2.75,9.59.09-.68.18-1.42.25-2.21a18.25,18.25,0,0,0,0-2.55A13.46,13.46,0,0,0,40.67,62a10.1,10.1,0,0,0-4.31-4A8.82,8.82,0,0,0,31.64,57.17Z"/><path class="cls-5" d="M48.92,59.7c.48,1.81,1.18,3.83,1.6,5.84a11.44,11.44,0,0,1,.22,2.88,13.87,13.87,0,0,1-.13,1.42c-.09.46-.2.92-.27,1.4a6.7,6.7,0,0,0,1.27-.83A5.48,5.48,0,0,0,52.67,69a5.94,5.94,0,0,0,.55-4,7.44,7.44,0,0,0-1.73-3.47A6.56,6.56,0,0,0,48.92,59.7Z"/><path class="cls-6" d="M50.81,60.6a.36.36,0,0,1-.41.32.36.36,0,0,1-.31-.42.35.35,0,0,1,.4-.32A.37.37,0,0,1,50.81,60.6Z"/><path class="cls-6" d="M47.4,60a.66.66,0,1,1-1.31-.18.67.67,0,0,1,.74-.59A.69.69,0,0,1,47.4,60Z"/><path class="cls-6" d="M42.28,59.3a.47.47,0,0,1-.52.41.48.48,0,0,1,.12-1A.47.47,0,0,1,42.28,59.3Z"/><path class="cls-6" d="M34.91,63.66a.44.44,0,0,1-.41.46.42.42,0,0,1-.45-.41.43.43,0,0,1,.4-.47A.44.44,0,0,1,34.91,63.66Z"/><path class="cls-6" d="M28.13,62.66a.89.89,0,0,1-.63,1.07.85.85,0,0,1-1-.63A.89.89,0,0,1,27.08,62,.87.87,0,0,1,28.13,62.66Z"/><path class="cls-6" d="M30,61.59a.53.53,0,0,1-.37.64.5.5,0,0,1-.61-.38.52.52,0,0,1,.36-.64A.51.51,0,0,1,30,61.59Z"/><path class="cls-6" d="M22.42,65a.58.58,0,0,1-.09.82.56.56,0,0,1-.8-.09.62.62,0,0,1,.09-.83A.56.56,0,0,1,22.42,65Z"/><path class="cls-6" d="M19.94,69.25a.94.94,0,0,1,.08,1.3.86.86,0,0,1-1.26.09.94.94,0,0,1-.1-1.3A.89.89,0,0,1,19.94,69.25Z"/><path class="cls-6" d="M17.23,72.39a.67.67,0,0,1,.06.92.62.62,0,0,1-.89.06.66.66,0,0,1-.07-.92A.63.63,0,0,1,17.23,72.39Z"/><path class="cls-6" d="M13.5,76a.33.33,0,0,1-.24.62.34.34,0,0,1-.18-.44A.32.32,0,0,1,13.5,76Z"/><path class="cls-6" d="M14.12,80.36a.36.36,0,0,1,.47.18.35.35,0,0,1-.64.3A.37.37,0,0,1,14.12,80.36Z"/><path class="cls-6" d="M16.35,85.17a.44.44,0,0,1,.58.22.46.46,0,0,1-.21.61.44.44,0,0,1-.59-.22A.46.46,0,0,1,16.35,85.17Z"/><path class="cls-6" d="M32.51,60.62a.73.73,0,1,1-.77-.71A.74.74,0,0,1,32.51,60.62Z"/><path class="cls-6" d="M34.05,61.15a.45.45,0,0,1-.33.53.42.42,0,0,1-.51-.33.43.43,0,1,1,.84-.2Z"/><path class="cls-6" d="M29.18,59.4a.87.87,0,0,1-.65,1.05.86.86,0,0,1-1-.65.9.9,0,0,1,.64-1.07A.87.87,0,0,1,29.18,59.4Z"/><path class="cls-6" d="M26.91,60.58a.44.44,0,0,1-.33.53.42.42,0,0,1-.52-.33.45.45,0,0,1,.32-.54A.43.43,0,0,1,26.91,60.58Z"/><path class="cls-6" d="M20.33,64.42a.59.59,0,0,1-.28.79.56.56,0,0,1-.77-.29.59.59,0,0,1,.28-.79A.57.57,0,0,1,20.33,64.42Z"/><path class="cls-6" d="M15.74,68.12a.85.85,0,0,1,.18,1.16.78.78,0,0,1-1.12.18.83.83,0,0,1-.2-1.15A.8.8,0,0,1,15.74,68.12Z"/><path class="cls-6" d="M13.94,71.7a.9.9,0,0,1,.2,1.24.85.85,0,0,1-1.21.2.9.9,0,0,1-.2-1.24A.85.85,0,0,1,13.94,71.7Z"/><path class="cls-6" d="M12.18,78.52a.78.78,0,0,1,1.08.3.81.81,0,0,1-.29,1.1.78.78,0,0,1-1.08-.29A.84.84,0,0,1,12.18,78.52Z"/><path class="cls-6" d="M16,77.92a.39.39,0,0,1,.53.15.39.39,0,0,1-.68.4A.41.41,0,0,1,16,77.92Z"/><path class="cls-6" d="M18.75,75a.88.88,0,0,1-.62-1.06.85.85,0,0,1,1-.63.88.88,0,0,1,.62,1.06A.86.86,0,0,1,18.75,75Z"/><path class="cls-6" d="M22.67,72.22a.4.4,0,0,1,.09-.55.38.38,0,0,1,.54.1.41.41,0,0,1-.09.55A.38.38,0,0,1,22.67,72.22Z"/><path class="cls-6" d="M20.17,68.09a.61.61,0,0,1,.15-.83.57.57,0,0,1,.8.14.61.61,0,0,1-.14.84A.57.57,0,0,1,20.17,68.09Z"/><path class="cls-6" d="M17.26,67.62a.93.93,0,0,1,.22-1.26.87.87,0,0,1,1.22.22.93.93,0,0,1-.21,1.26A.87.87,0,0,1,17.26,67.62Z"/><path class="cls-6" d="M29.43,66.19a.45.45,0,0,1,.29-.56.43.43,0,0,1,.54.29.45.45,0,0,1-.28.57A.44.44,0,0,1,29.43,66.19Z"/><path class="cls-6" d="M31.14,66.12a.94.94,0,0,1,.6-1.17.9.9,0,0,1,1.13.61.93.93,0,0,1-.59,1.17A.9.9,0,0,1,31.14,66.12Z"/><path class="cls-6" d="M35.09,66.75a.33.33,0,1,1,.62-.2.34.34,0,0,1-.22.42A.32.32,0,0,1,35.09,66.75Z"/><path class="cls-6" d="M44.14,62.64a.44.44,0,0,1,.44-.47.45.45,0,0,1,.46.44.45.45,0,1,1-.9,0Z"/><path class="cls-6" d="M43.23,61.46a.65.65,0,0,1,.62-.67.64.64,0,0,1,.66.63.64.64,0,1,1-1.28,0Z"/><path class="cls-6" d="M41.19,61.79a.39.39,0,1,1,.78,0,.39.39,0,1,1-.78,0Z"/><path class="cls-6" d="M42.72,65.23a.47.47,0,1,1,.94,0,.47.47,0,1,1-.94,0Z"/><path class="cls-6" d="M45.79,64.15a.75.75,0,1,1,1.49-.05.75.75,0,1,1-1.49.05Z"/><path class="cls-6" d="M50.87,66.15a.76.76,0,0,1,1-.38.8.8,0,0,1,.37,1,.77.77,0,0,1-1,.39A.81.81,0,0,1,50.87,66.15Z"/><path class="cls-6" d="M55.27,65.32a.53.53,0,0,1-.62.44.55.55,0,1,1,.62-.44Z"/><path class="cls-6" d="M54.56,64.25a.7.7,0,0,1-.82.58.72.72,0,0,1-.56-.84A.71.71,0,0,1,54,63.4.72.72,0,0,1,54.56,64.25Z"/><path class="cls-6" d="M49.91,65.6a.41.41,0,0,1-.49.3.42.42,0,0,1-.3-.5.4.4,0,0,1,.49-.3A.42.42,0,0,1,49.91,65.6Z"/><path class="cls-6" d="M42.8,63.13a.37.37,0,0,1-.28.44.36.36,0,0,1-.43-.28.38.38,0,0,1,.28-.45A.37.37,0,0,1,42.8,63.13Z"/><path class="cls-6" d="M37.91,63a.92.92,0,0,1-.69,1.1.89.89,0,0,1-1.07-.7.9.9,0,1,1,1.76-.4Z"/><path class="cls-6" d="M36.05,66.4a.84.84,0,0,1-.63,1,.8.8,0,0,1-1-.63.82.82,0,1,1,1.6-.37Z"/><path class="cls-6" d="M29.43,64.16a.47.47,0,0,1-.18.62.44.44,0,0,1-.6-.19.46.46,0,0,1,.18-.62A.44.44,0,0,1,29.43,64.16Z"/><path class="cls-6" d="M23.41,69.09a.83.83,0,0,1-.11,1.13.77.77,0,0,1-1.1-.11A.84.84,0,0,1,22.3,69,.77.77,0,0,1,23.41,69.09Z"/><path class="cls-6" d="M20.43,72.27a.39.39,0,0,1-.05.55.37.37,0,0,1-.54,0,.4.4,0,0,1,.05-.55A.38.38,0,0,1,20.43,72.27Z"/><path class="cls-6" d="M15.24,79.12a.7.7,0,0,1,.52.84.68.68,0,0,1-.81.54.71.71,0,0,1-.53-.84A.69.69,0,0,1,15.24,79.12Z"/><path class="cls-6" d="M14.86,81.86a.32.32,0,0,1,.23.37.3.3,0,1,1-.59-.13A.31.31,0,0,1,14.86,81.86Z"/><path class="cls-7" d="M63.71,80.71S50.84,77.56,39.25,74.4c-1.23-.34-1.6.27-.91-3.6,1.71-9.54.87-19.32-1.43-29,0,0-1.94-5.72,4.37-7.49a295.15,295.15,0,0,1,29.15-6.52c6.45-1.18,15.1-3.66,26.4,4.16,0,0,6.41,4.41,4.53,10.69s-1.54,16.52-1,21.22C100.41,63.82,63.84,80.84,63.71,80.71Z"/><path class="cls-8" d="M37.65,41.05A3.47,3.47,0,0,1,40,37.22c1.79-.45,16.38.29,22,4.38,0,0,3.92.42,2.66,9.69-1,7.7-2.48,19.53-1,28L39.08,73.61S41.52,51.17,37.65,41.05Z"/><path class="cls-9" d="M65.76,47.54s4.65-2.14,6.06-2.88a66.13,66.13,0,0,1,10.82-4.52,54.94,54.94,0,0,1,11.58-2.37l2.22-.17h3.22l-1.49-.18-1.71-.21-2.25-.11A55.94,55.94,0,0,0,82.12,38a68.6,68.6,0,0,0-11.8,3.28c-1.58.58-2.87,1.14-3.78,1.55l-1.06.49-.4.2Z"/><path class="cls-10" d="M41.76,46.29a.69.69,0,0,1-.56.78c-.32,0-.6-.31-.62-.73a.67.67,0,0,1,.55-.78A.69.69,0,0,1,41.76,46.29Z"/><path class="cls-10" d="M49,51.73c0,.51-.18.94-.46,1s-.53-.39-.55-.9.18-.94.46-1S49,51.22,49,51.73Z"/><path class="cls-10" d="M52.14,46.23c0,.47-.22.88-.54.89s-.6-.36-.62-.84.21-.88.53-.9S52.11,45.75,52.14,46.23Z"/><path class="cls-10" d="M58.07,48.32c0,.65-.32,1.19-.79,1.22s-.87-.49-.9-1.14.32-1.2.79-1.22S58,47.66,58.07,48.32Z"/><path class="cls-10" d="M47.26,64.67a1,1,0,0,1-.79,1.13c-.47,0-.87-.45-.9-1a.88.88,0,1,1,1.69-.08Z"/><path class="cls-10" d="M53.25,60.16c0,.42-.21.78-.51.8s-.57-.32-.59-.75.21-.79.51-.8S53.23,59.73,53.25,60.16Z"/><path class="cls-10" d="M45.59,54.86a.93.93,0,0,1-.79,1,.94.94,0,0,1-.89-1,.86.86,0,1,1,1.68-.08Z"/><path class="cls-10" d="M48.94,59.85c0,.38-.18.71-.44.72S48,60.28,48,59.9s.17-.71.44-.72S48.92,59.46,48.94,59.85Z"/><path class="cls-10" d="M57.74,53.43a.67.67,0,1,1-.7-.72A.72.72,0,0,1,57.74,53.43Z"/><path class="cls-10" d="M51,55.52c0,.42-.19.77-.47.78S50,56,50,55.57s.19-.77.47-.78S51,55.1,51,55.52Z"/><path class="cls-10" d="M54.39,70.08c0,.55-.25,1-.62,1s-.7-.42-.73-1,.26-1,.63-1S54.37,69.52,54.39,70.08Z"/><path class="cls-10" d="M58.76,67A1,1,0,0,1,58,68.1c-.46,0-.86-.45-.89-1.06a1,1,0,0,1,.79-1.13C58.33,65.88,58.74,66.36,58.76,67Z"/><path class="cls-10" d="M55,64.62a.85.85,0,1,1-1.68.08A.84.84,0,1,1,55,64.62Z"/><path class="cls-10" d="M46.68,69.6c0,.7-.35,1.28-.86,1.31s-1-.52-1-1.22.35-1.29.86-1.31S46.65,68.9,46.68,69.6Z"/><path class="cls-10" d="M42.13,63.48c0,.56-.22,1-.54,1s-.62-.42-.64-1,.21-1,.54-1S42.1,62.92,42.13,63.48Z"/><path class="cls-10" d="M44.45,59.14a.69.69,0,1,1-.72-.81A.77.77,0,0,1,44.45,59.14Z"/><path class="cls-10" d="M44.27,39.88a.69.69,0,0,1-.56.78c-.32,0-.6-.31-.62-.73a.67.67,0,0,1,.55-.78C44,39.13,44.24,39.46,44.27,39.88Z"/><path class="cls-10" d="M50.77,40.56c0,.61-.2,1.13-.53,1.14s-.61-.47-.64-1.08.21-1.13.53-1.15S50.74,39.94,50.77,40.56Z"/><path class="cls-10" d="M47.77,44.1c0,.74-.35,1.37-.86,1.39s-1-.55-1-1.3.34-1.37.86-1.4S47.73,43.35,47.77,44.1Z"/><path class="cls-10" d="M61.54,45.12a.9.9,0,1,1-1.78.09.9.9,0,1,1,1.78-.09Z"/><path class="cls-10" d="M62,54.56c0,.37-.19.69-.47.7S61,55,61,54.61s.19-.69.47-.7S62,54.19,62,54.56Z"/><path class="cls-10" d="M62.57,49.46c0,.56-.21,1-.54,1s-.61-.42-.64-1,.22-1,.54-1.05S62.55,48.9,62.57,49.46Z"/><path class="cls-10" d="M61.74,60c0,.56-.29,1-.71,1.05s-.78-.41-.81-1A.91.91,0,0,1,60.93,59C61.35,59,61.71,59.42,61.74,60Z"/><path class="cls-10" d="M59.49,72.69a.68.68,0,1,1-.71-.73A.72.72,0,0,1,59.49,72.69Z"/><path class="cls-10" d="M55.5,75.34a.61.61,0,0,1-.58.65.62.62,0,0,1-.65-.59.62.62,0,1,1,1.23-.06Z"/><path class="cls-10" d="M60,76.55a.48.48,0,1,1-.5-.46A.48.48,0,0,1,60,76.55Z"/><path class="cls-10" d="M42.26,71.76a.58.58,0,1,1-.6-.64A.63.63,0,0,1,42.26,71.76Z"/><path class="cls-10" d="M42.66,67.51c0,.37-.15.69-.38.7s-.44-.28-.46-.66.16-.68.39-.69S42.65,67.14,42.66,67.51Z"/><path class="cls-10" d="M50.4,73.4c0,.51-.26.94-.63,1s-.7-.38-.72-.89.25-1,.63-1S50.37,72.89,50.4,73.4Z"/><path class="cls-10" d="M50.59,67a.61.61,0,1,1-1.18.06A.61.61,0,1,1,50.59,67Z"/><path class="cls-10" d="M58,60c0,.37-.19.69-.47.7s-.52-.28-.54-.65a.61.61,0,0,1,.47-.7C57.76,59.35,58,59.64,58,60Z"/><path class="cls-10" d="M61.44,64.22c0,.37-.19.69-.47.7s-.52-.27-.54-.65a.61.61,0,0,1,.47-.7C61.18,63.56,61.42,63.85,61.44,64.22Z"/><path class="cls-10" d="M56.65,43.05a.91.91,0,0,1-.71,1.05c-.42,0-.78-.41-.81-1a.91.91,0,0,1,.71-1.05C56.26,42.06,56.62,42.49,56.65,43.05Z"/><path class="cls-10" d="M45.7,49.64a.7.7,0,0,1-.56.79c-.32,0-.6-.31-.62-.73a.61.61,0,1,1,1.18-.06Z"/><path class="cls-10" d="M42.42,53.83a.61.61,0,1,1-1.18.06.68.68,0,0,1,.55-.79C42.12,53.08,42.39,53.41,42.42,53.83Z"/><path class="cls-10" d="M53,51.11c0,.47-.23.86-.55.87s-.61-.35-.63-.81.22-.86.55-.87S53,50.65,53,51.11Z"/><path class="cls-10" d="M55,56.65c0,.47-.19.86-.47.87s-.52-.35-.55-.82.19-.85.47-.86S54.93,56.19,55,56.65Z"/><path class="cls-10" d="M39.83,40.77c0,.46-.19.85-.46.87s-.53-.35-.55-.82S39,40,39.28,40,39.81,40.3,39.83,40.77Z"/><path class="cls-11" d="M91,29.73a.33.33,0,0,1-.3.35.32.32,0,1,1-.06-.64A.33.33,0,0,1,91,29.73Z"/><path class="cls-11" d="M90.89,31.19a.5.5,0,0,1-1,.09.5.5,0,1,1,1-.09Z"/><path class="cls-11" d="M90,30.6a.46.46,0,1,1-.49-.42A.46.46,0,0,1,90,30.6Z"/><path class="cls-11" d="M89.38,32a.51.51,0,0,1-.18.7.51.51,0,0,1-.53-.87A.52.52,0,0,1,89.38,32Z"/><path class="cls-11" d="M87.33,32.08a.44.44,0,0,1-.81-.35.44.44,0,0,1,.81.35Z"/><path class="cls-11" d="M85.91,30.4a.22.22,0,0,1-.4-.18.23.23,0,0,1,.29-.12A.23.23,0,0,1,85.91,30.4Z"/><path class="cls-11" d="M85.76,29.67a.39.39,0,0,1-.51.2.38.38,0,0,1-.2-.51.39.39,0,0,1,.51-.21A.41.41,0,0,1,85.76,29.67Z"/><path class="cls-11" d="M85.23,30.46a.51.51,0,0,1-.67.27.52.52,0,1,1,.67-.27Z"/><path class="cls-11" d="M84.33,29.93a.39.39,0,0,1-.52.2.4.4,0,0,1-.21-.52.4.4,0,1,1,.73.32Z"/><path class="cls-11" d="M80.84,29.6a.48.48,0,1,1-.45-.51A.48.48,0,0,1,80.84,29.6Z"/><path class="cls-11" d="M78.08,30.17a.47.47,0,0,1-.49.44.47.47,0,1,1,.49-.44Z"/><path class="cls-11" d="M74.45,29.69a.45.45,0,0,1-.2.62.47.47,0,1,1,.2-.62Z"/><path class="cls-11" d="M72.23,31.89a.36.36,0,0,1-.16.5.37.37,0,0,1-.34-.66A.37.37,0,0,1,72.23,31.89Z"/><path class="cls-11" d="M71.08,31.39a.58.58,0,0,1-.25.78.58.58,0,1,1,.25-.78Z"/><path class="cls-11" d="M70.75,32.31a.23.23,0,0,1-.1.32.24.24,0,0,1-.32-.1.24.24,0,0,1,.1-.33A.24.24,0,0,1,70.75,32.31Z"/><path class="cls-11" d="M70.18,33.07a.33.33,0,0,1-.24.41.33.33,0,0,1-.41-.23.34.34,0,0,1,.23-.41A.35.35,0,0,1,70.18,33.07Z"/><path class="cls-11" d="M66.23,33a.54.54,0,1,1-.66-.38A.55.55,0,0,1,66.23,33Z"/><path class="cls-11" d="M64,32.85a.21.21,0,0,1-.25.17.21.21,0,0,1-.17-.24.22.22,0,0,1,.24-.18A.22.22,0,0,1,64,32.85Z"/><path class="cls-11" d="M60.66,33.16a.62.62,0,0,1-1.23-.2.64.64,0,0,1,.72-.52A.62.62,0,0,1,60.66,33.16Z"/><path class="cls-11" d="M57.09,33a.5.5,0,0,1-.57.4.49.49,0,0,1,.16-1A.5.5,0,0,1,57.09,33Z"/><path class="cls-11" d="M52.6,33.52a.29.29,0,0,1-.26.32.29.29,0,0,1-.32-.27.29.29,0,1,1,.58,0Z"/><path class="cls-11" d="M48.52,34a.29.29,0,1,1-.58.05.29.29,0,1,1,.58-.05Z"/><path class="cls-11" d="M48.13,32.53a.57.57,0,0,1-.51.6.55.55,0,0,1-.61-.5.56.56,0,0,1,.5-.62A.58.58,0,0,1,48.13,32.53Z"/><path class="cls-11" d="M88.49,33.39a.49.49,0,0,1-.55.43.49.49,0,0,1-.43-.54.5.5,0,0,1,.54-.44A.51.51,0,0,1,88.49,33.39Z"/><path class="cls-11" d="M84.29,32.82a.38.38,0,0,1-.41.33.37.37,0,0,1-.33-.42.37.37,0,1,1,.74.09Z"/><path class="cls-11" d="M80.31,32.72a.51.51,0,0,1-.58.46.52.52,0,0,1,.12-1A.53.53,0,0,1,80.31,32.72Z"/><path class="cls-11" d="M77.25,31.13a.26.26,0,0,1-.22.3.24.24,0,0,1-.29-.21.26.26,0,1,1,.51-.09Z"/><path class="cls-11" d="M74.35,32.77a.32.32,0,0,1-.26.36.31.31,0,0,1-.11-.62A.32.32,0,0,1,74.35,32.77Z"/><path class="cls-11" d="M72.09,33.18a.5.5,0,1,1-.39.93.5.5,0,1,1,.39-.93Z"/><path class="cls-11" d="M71.16,34.61a.23.23,0,0,1,.11.28.21.21,0,0,1-.39-.16A.22.22,0,0,1,71.16,34.61Z"/><path class="cls-11" d="M72.58,35.92a.55.55,0,0,1,.32.72.55.55,0,0,1-.71.32.56.56,0,0,1-.33-.72A.57.57,0,0,1,72.58,35.92Z"/><path class="cls-11" d="M71.87,37.13a.25.25,0,1,1-.32.14A.25.25,0,0,1,71.87,37.13Z"/><path class="cls-11" d="M68.33,37.36a.65.65,0,0,1-.57.7.64.64,0,0,1-.14-1.27A.65.65,0,0,1,68.33,37.36Z"/><path class="cls-11" d="M64.34,36.19a.41.41,0,0,1-.53.25.41.41,0,1,1,.28-.78A.41.41,0,0,1,64.34,36.19Z"/><path class="cls-11" d="M59.78,35.05a.22.22,0,0,1-.28.13.21.21,0,0,1-.12-.27.21.21,0,0,1,.4.14Z"/><path class="cls-11" d="M63.32,37.31a.51.51,0,1,1-1-.27.51.51,0,1,1,1,.27Z"/><path class="cls-11" d="M60.42,37.66a.23.23,0,0,1-.28.17.24.24,0,0,1-.17-.29.24.24,0,0,1,.29-.17A.24.24,0,0,1,60.42,37.66Z"/><path class="cls-11" d="M57.58,35.68a.58.58,0,0,1-.72.41.59.59,0,0,1,.3-1.14A.59.59,0,0,1,57.58,35.68Z"/><path class="cls-11" d="M52.5,35.76a.53.53,0,0,1-.65.37.52.52,0,0,1-.38-.65.53.53,0,1,1,1,.28Z"/><path class="cls-11" d="M50.24,34.81a.45.45,0,1,1-.87-.24.44.44,0,0,1,.55-.32A.45.45,0,0,1,50.24,34.81Z"/><path class="cls-11" d="M48.17,34.55a.34.34,0,0,1-.65-.18.33.33,0,0,1,.41-.24A.34.34,0,0,1,48.17,34.55Z"/><path class="cls-12" d="M107,87.56c-.66,7.27-14.75,10.85-40.58,5.17-22.21-4.9-30.42-11-29-18.19S56.13,62,77.81,66.82C96.89,71.09,107.85,78.44,107,87.56Z"/><path class="cls-4" d="M40.71,73c3.21-2.86,8.08-4.48,13.41-5.08a62.4,62.4,0,0,1,17.42.87,72.25,72.25,0,0,1,16.8,4.83,41.77,41.77,0,0,1,6.76,3.72,30.7,30.7,0,0,1,5.15,4.54,26.23,26.23,0,0,0-4.71-5.12,36.39,36.39,0,0,0-6.65-4.3,60,60,0,0,0-17.06-5.39,53.88,53.88,0,0,0-17.89-.42C48.47,67.57,43.54,69.75,40.71,73Z"/><path class="cls-13" d="M43,78.87a21.84,21.84,0,0,1,4.67-6.76,52.39,52.39,0,0,1,6.9-4.8,11.92,11.92,0,0,0-4.12.48A11.39,11.39,0,0,0,46,70.28a9.91,9.91,0,0,0-2.74,4.4A9.42,9.42,0,0,0,43,78.87Z"/><path class="cls-13" d="M53,79.3a36.79,36.79,0,0,1,2.16-3.82,16.56,16.56,0,0,1,3.26-3.58c2.63-2.16,5.71-3.54,8-4.88a13.69,13.69,0,0,0-4.61.34,12.75,12.75,0,0,0-5.12,2.52A10.21,10.21,0,0,0,53,79.3Z"/><path class="cls-13" d="M63.47,82.3c.31-.63.6-1.3.89-2s.63-1.43,1-2.13a21.23,21.23,0,0,1,2.77-4.28,24.33,24.33,0,0,1,7.71-5.6,11.41,11.41,0,0,0-9.63,4,12.07,12.07,0,0,0-2.6,5.29,14.65,14.65,0,0,0-.33,2.53A19,19,0,0,0,63.47,82.3Z"/><path class="cls-13" d="M72.08,84.26c.36-.68.69-1.4,1-2.14l.62-1.1a7.44,7.44,0,0,1,.67-1.11A17.1,17.1,0,0,1,78,75.76a28.5,28.5,0,0,1,9.36-4.68A12.73,12.73,0,0,0,82.18,71a12.92,12.92,0,0,0-5.83,2.72,11.7,11.7,0,0,0-3.66,5.34,6.42,6.42,0,0,0-.39,1.39c-.09.47-.17.91-.23,1.35A19.73,19.73,0,0,0,72.08,84.26Z"/><path class="cls-13" d="M81.86,88.5C83.16,85.6,85,82,88.1,79.4a20.5,20.5,0,0,1,5-3.06,17.45,17.45,0,0,1,5-1.47,9.61,9.61,0,0,0-5.51-.37,13.23,13.23,0,0,0-6.17,2.9A12.62,12.62,0,0,0,82.55,83a7.22,7.22,0,0,0-.4,1.48c-.1.48-.2.95-.27,1.41C81.84,86.85,81.83,87.72,81.86,88.5Z"/></g></g></svg>