<svg xmlns="http://www.w3.org/2000/svg" xmlns:xlink="http://www.w3.org/1999/xlink" viewBox="0 0 128.09 95.75"><defs><style>.cls-1{fill:#8ec044;}.cls-2{fill:#d2d2d2;}.cls-3{fill:#818080;}.cls-4{fill:#c2c2c2;}.cls-5{fill:#9d9d9c;}.cls-6{fill:url(#linear-gradient);}.cls-7{fill:#f4f4f4;}.cls-8{fill:#b2b2b2;}.cls-9{fill:url(#linear-gradient-2);}.cls-10{fill:#f2ddb7;}.cls-11{fill:#e94e1b;}.cls-12{fill:#fffbe9;}.cls-13{fill:#f6a24a;}.cls-14{fill:#2a2a29;}.cls-15{fill:url(#linear-gradient-3);}.cls-16{fill:url(#linear-gradient-4);}.cls-17{fill:url(#linear-gradient-5);}.cls-18{fill:#7b410b;}.cls-19{fill:#bb8e53;}</style><linearGradient id="linear-gradient" x1="-515.48" y1="417.41" x2="-415.82" y2="417.41" gradientTransform="matrix(1.07, -0.16, 0.56, 0.63, 334.38, -277.65)" gradientUnits="userSpaceOnUse"><stop offset="0" stop-color="#dadada"/><stop offset="0.13" stop-color="#ddd"/><stop offset="1" stop-color="#ebebeb"/></linearGradient><linearGradient id="linear-gradient-2" x1="84.04" y1="46.15" x2="62.47" y2="45.69" gradientUnits="userSpaceOnUse"><stop offset="0" stop-color="#4d4d4c"/><stop offset="1" stop-color="#706f6f"/></linearGradient><linearGradient id="linear-gradient-3" x1="65.86" y1="50.83" x2="42.26" y2="50.33" xlink:href="#linear-gradient-2"/><linearGradient id="linear-gradient-4" x1="94.31" y1="58.12" x2="72.15" y2="57.65" xlink:href="#linear-gradient-2"/><linearGradient id="linear-gradient-5" x1="75.58" y1="61.22" x2="51.69" y2="60.71" xlink:href="#linear-gradient-2"/></defs><g id="Capa_2" data-name="Capa 2"><g id="Layer_1" data-name="Layer 1"><path class="cls-1" d="M59.1,49.76c23.56,0,44.69,3.39,59.11,8.74C115.22,25.66,89.91,0,59.1,0S3,25.66,0,58.5C14.42,53.15,35.55,49.76,59.1,49.76Z"/><path class="cls-2" d="M116.42,72.6c1.59.8,1.33,3-1,3.88A221.89,221.89,0,0,1,30.45,90.93c-2.66-.05-5.75-1.29-6.85-2.69A165.18,165.18,0,0,1,8.79,66.94a2.27,2.27,0,0,1,2.44-3.36,192.88,192.88,0,0,0,75.53-5c2.13-.59,4.92-.3,6.29.68C100.13,64.36,108.15,68.37,116.42,72.6Z"/><path class="cls-3" d="M92.13,49.79c1.11.22,8.86,14.83,13.73,23.9.59,1.11,1.18,2,2.43,2s1.55-1.77,1.55-1.77l.66-8L93.24,46.69Z"/><path class="cls-4" d="M108.22,75.14h-.07a.77.77,0,0,1-.7-.84l.35-4.2a.78.78,0,0,1,1.56.13l-.36,4.2A.79.79,0,0,1,108.22,75.14Z"/><path class="cls-3" d="M20,62.5c1.17.24,9.3,15.58,14.42,25.12.62,1.16,1.24,2.09,2.56,2.09s1.63-1.86,1.63-1.86l.69-8.37L21.14,59.25Z"/><path class="cls-5" d="M126.94,58.78c1.82,1.06,1.52,3.91-1.16,5.12a223.24,223.24,0,0,1-96.91,19c-3-.08-6.55-1.69-7.81-3.54a221.92,221.92,0,0,1-16.9-28c-.94-1.93.12-4.81,2.79-4.42a191.71,191.71,0,0,0,86.16-6.58c2.43-.77,5.62-.39,7.18.9C108.36,47.94,117.51,53.22,126.94,58.78Z"/><path class="cls-6" d="M126.57,58.42c1.8,1,1.16,2.74-1.5,3.87A228.45,228.45,0,0,1,30,80.13c-3-.07-6.48-1.59-7.72-3.32A221.27,221.27,0,0,1,5.19,49.3c-.93-1.81.48-2.92,3.13-2.55A199.89,199.89,0,0,0,93.5,40.31c2.4-.72,5.55-.36,7.1.85A198.77,198.77,0,0,0,126.57,58.42Z"/><path class="cls-7" d="M96.22,41.27a173.16,173.16,0,0,0,24.07,17.08l.44.27.39.24a.93.93,0,0,1,.35.36.3.3,0,0,1,0,.26,1.78,1.78,0,0,1-.36.47,5.44,5.44,0,0,1-1.48.89l-2,.74-8.13,3.08c-2.77,1-5.64,1.86-8.52,2.82s-5.84,1.78-8.84,2.62l-4.47,1.25c-1.47.45-3,.71-4.46,1.07-3,.66-5.86,1.4-8.75,2L65.91,76l-2.09.39-2.08.28-4.1.56c-5.4.87-10.6,1.21-15.5,1.71l-1.82.18-1.8.09L35,79.35l-6.66.38,6.67.19,3.52.08,1.82,0L42.19,80c4.94-.19,10.2-.27,15.67-.92L62,78.64l2.11-.22,2.12-.32,8.67-1.37c2.93-.54,5.87-1.24,8.88-1.88,1.49-.35,3-.6,4.51-1l4.52-1.25c3-.85,6-1.64,8.93-2.69s5.78-1.93,8.57-3l8.13-3.3,2-.83a7,7,0,0,0,2.07-1.36,3.66,3.66,0,0,0,.81-1.24,2.28,2.28,0,0,0-.1-1.77,2.8,2.8,0,0,0-1.07-1.11,5.06,5.06,0,0,0-.5-.29l-.44-.25A246.9,246.9,0,0,1,96.22,41.27Z"/><path class="cls-8" d="M73.23,47.13c2.65-.43,6.25-.25,7.32,1l4.13,4c1.06,1.24-.22,2.59-2.88,3l-7.2,1.18c-2.66.43-5.67-.22-6.73-1.45l-3.18-3.69c-1.06-1.24.22-2.59,2.88-3Z"/><path class="cls-9" d="M73.29,36.52c2.59-.43,6.12-.21,7.17,1.11,0,0,4.24,3.58,4.4,4.95s-.61,8.48-.61,8.48c-.3,2.22-1.08,2.76-3.67,3.2l-6.15,1.18c-2.6.44-5.55-.28-6.61-1.6l-3.15-4c-.18-.22,0-9.61,0-9.83-.26-1.11,1-2.16,3.13-2.52Z"/><path class="cls-10" d="M73.09,37c2.38-.39,5.61-.24,6.56.83l3.71,3.47c1,1.08-.21,2.27-2.6,2.66l-6.47,1c-2.39.39-5.09-.17-6-1.25L65.4,40.52c-1-1.08.21-2.27,2.6-2.65Z"/><path class="cls-11" d="M73.66,38.75c1.36-.22,3.2-.15,3.74.42L79.49,41c.54.58-.13,1.22-1.49,1.44L74.31,43a4.41,4.41,0,0,1-3.43-.65l-1.61-1.71c-.54-.58.13-1.22,1.49-1.43Z"/><path class="cls-12" d="M66.89,39.7a2.19,2.19,0,0,1,1.36-.59,2.06,2.06,0,0,1,1.37.53,1.32,1.32,0,0,0-1.39-1.19A1.35,1.35,0,0,0,66.89,39.7Z"/><path class="cls-12" d="M66.65,41.56A2.17,2.17,0,0,1,68,41a2.08,2.08,0,0,1,1.38.54,1.37,1.37,0,0,0-2.73.06Z"/><path class="cls-12" d="M69.79,44.11a1.34,1.34,0,0,1,.82-.47,1.22,1.22,0,0,1,.84.42.85.85,0,0,0-.85-.87A.87.87,0,0,0,69.79,44.11Z"/><path class="cls-12" d="M72,44.48a2.17,2.17,0,0,1,1.35-.6,2.05,2.05,0,0,1,1.37.54,1.37,1.37,0,0,0-2.72.06Z"/><path class="cls-12" d="M80.27,41.38a1.47,1.47,0,0,1,.9-.36,1.42,1.42,0,0,1,.91.32.88.88,0,0,0-.92-.75A.9.9,0,0,0,80.27,41.38Z"/><path class="cls-12" d="M73.54,38.08a2.11,2.11,0,0,1,1.35-.59,2,2,0,0,1,1.37.53,1.32,1.32,0,0,0-1.38-1.19A1.34,1.34,0,0,0,73.54,38.08Z"/><path class="cls-12" d="M78,39.55a1.55,1.55,0,0,1,1-.43,1.47,1.47,0,0,1,1,.39,1,1,0,0,0-2,0Z"/><path class="cls-12" d="M68.06,42.92a2.05,2.05,0,0,1,1-.29,2.42,2.42,0,0,1,1.07.15,1.1,1.1,0,0,0-1.1-.54A1.06,1.06,0,0,0,68.06,42.92Z"/><path class="cls-12" d="M70.19,38.53a1.57,1.57,0,0,1,1-.54,1.45,1.45,0,0,1,1,.49,1.06,1.06,0,0,0-.21-.64,1,1,0,0,0-.8-.38,1,1,0,0,0-1,1.07Z"/><path class="cls-12" d="M78.9,43.63a1.36,1.36,0,0,1,.81-.52,1.3,1.3,0,0,1,.84.46.91.91,0,0,0-.16-.56.8.8,0,0,0-.69-.36.83.83,0,0,0-.67.4A.87.87,0,0,0,78.9,43.63Z"/><path class="cls-13" d="M71.64,41a1.38,1.38,0,0,1,.82-.52,1.28,1.28,0,0,1,.83.46.9.9,0,0,0-.15-.56.82.82,0,0,0-.7-.36.83.83,0,0,0-.67.4A1,1,0,0,0,71.64,41Z"/><path class="cls-13" d="M71.91,42.44a1.41,1.41,0,0,1,.87-.32,1.38,1.38,0,0,1,.89.29.9.9,0,0,0-1.76,0Z"/><path class="cls-13" d="M73,39.92a1.33,1.33,0,0,1,.87-.32,1.36,1.36,0,0,1,.88.28.9.9,0,0,0-1.75,0Z"/><path class="cls-13" d="M74.79,41.43a1.44,1.44,0,0,1,1.76,0,.9.9,0,0,0-1.76,0Z"/><path class="cls-13" d="M75,39.22a1.39,1.39,0,0,1,.87-.32,1.42,1.42,0,0,1,.88.28.9.9,0,0,0-1.75,0Z"/><path class="cls-13" d="M69.74,40.45a1.47,1.47,0,0,1,.88-.32,1.37,1.37,0,0,1,.88.29.83.83,0,0,0-.89-.68A.86.86,0,0,0,69.74,40.45Z"/><path class="cls-13" d="M75.41,40.73a1.39,1.39,0,0,1,.87-.32,1.33,1.33,0,0,1,.88.29.9.9,0,0,0-1.75,0Z"/><path class="cls-13" d="M76.63,41.57a1.41,1.41,0,0,1,.87-.32,1.43,1.43,0,0,1,.89.28.9.9,0,0,0-1.76,0Z"/><path class="cls-12" d="M76.91,38.2A1.43,1.43,0,0,1,79,38.15a1.06,1.06,0,0,0-2.11.05Z"/><path class="cls-14" d="M65.73,50a21.18,21.18,0,0,0,2,2.9c.23.26.47.51.71.77a6.89,6.89,0,0,0,.91.67,10.14,10.14,0,0,0,1.07.46l1.15.28a10.06,10.06,0,0,0,2.26,0,14,14,0,0,0,2-.32,20.57,20.57,0,0,0,3.35-1c-1,0-2.2.09-3.47.15-.64.06-1.3.07-2,.08a12.72,12.72,0,0,1-2-.09l-1-.21c-.31-.08-.59-.23-.89-.33a6.8,6.8,0,0,1-.79-.46l-.72-.6C67.4,51.39,66.52,50.6,65.73,50Z"/><path class="cls-14" d="M69.42,52.73a7.34,7.34,0,0,0,1.35.44l1,.22a10.67,10.67,0,0,0,2,0q.59-.06,1.14-.15c.24,0,.47-.09.7-.15a20.38,20.38,0,0,0,3-.9A15.49,15.49,0,0,0,77.13,52l-.65,0c-.68,0-1.37.08-2.09.1l-.29,0a16.12,16.12,0,0,1-1.7,0h-.18l-1-.16c-.17,0-.34-.08-.52-.13l-.45-.13a7.85,7.85,0,0,1-.88-.4l-.17-.11a5.72,5.72,0,0,1-.57-.39l-.06,0c-.18-.14-.35-.31-.53-.45-.81-.72-1.57-1.4-2.27-2a20.32,20.32,0,0,0,2,3c.23.26.46.53.72.79A6.56,6.56,0,0,0,69.42,52.73Z"/><path class="cls-14" d="M69.51,51.18a8.75,8.75,0,0,0,1.62.41l.94.16a9.16,9.16,0,0,0,1.82,0l1-.13.63-.13a19,19,0,0,0,2.7-.8c0-.15-.08-.32-.32-.49l-.69,0-2.2.13-.31,0c-.59,0-1.19,0-1.79,0h-.19l-1.1-.09a5,5,0,0,1-.56-.1l-.5-.11a7.35,7.35,0,0,1-1-.32l-.19-.09a6.5,6.5,0,0,1-.63-.37l-.07,0c-.18-.14-.37-.32-.56-.47-.86-.75-1.68-1.47-2.42-2.05a19.91,19.91,0,0,0,2,3c.25.27.46.54.75.81A5.32,5.32,0,0,0,69.51,51.18Z"/><path class="cls-14" d="M69.6,49.62a8.13,8.13,0,0,0,1.9.39l.82.11A9.49,9.49,0,0,0,73.93,50c.3,0,.6-.07.89-.12l.56-.1a21.88,21.88,0,0,0,2.37-.69,2.37,2.37,0,0,0,1-.8l-.73,0-2.32.15-.33,0c-.61,0-1.26.09-1.89.09h-.2c-.39,0-.77,0-1.17,0a4.12,4.12,0,0,1-.59-.07l-.54-.07a10.1,10.1,0,0,1-1.05-.25l-.22-.08a4,4,0,0,1-.69-.34l-.07,0c-.19-.13-.4-.33-.6-.49-.91-.77-1.78-1.53-2.57-2.14a19.94,19.94,0,0,0,2,3.07,7.23,7.23,0,0,0,.77.81A4.25,4.25,0,0,0,69.6,49.62Z"/><path class="cls-14" d="M69.69,48.07a9.28,9.28,0,0,0,2.18.36l.71,0a10.57,10.57,0,0,0,1.39-.1l.76-.11a3.86,3.86,0,0,0,.49-.09,20.08,20.08,0,0,0,2-.58,9.55,9.55,0,0,0,2.22-1.11l-.77,0c-.76,0-1.58.1-2.44.17l-.34,0c-.65,0-1.33.14-2,.16h-.21c-.4,0-.81,0-1.23,0a4.64,4.64,0,0,1-.63,0l-.58,0a9.44,9.44,0,0,1-1.14-.17l-.23-.06a3.2,3.2,0,0,1-.75-.32l-.08,0c-.21-.14-.42-.36-.64-.51-1-.81-1.89-1.61-2.72-2.25a18.78,18.78,0,0,0,2,3.13,7.55,7.55,0,0,0,.79.83A4.16,4.16,0,0,0,69.69,48.07Z"/><path class="cls-14" d="M65.73,41.88a18.4,18.4,0,0,0,2.06,3.18,5.77,5.77,0,0,0,.81.85,3.66,3.66,0,0,0,1.18.6,8.77,8.77,0,0,0,2.46.33,12,12,0,0,0,2.4-.22,17.13,17.13,0,0,0,2.14-.54,20.7,20.7,0,0,0,3.49-1.42c-1.1,0-2.36.14-3.72.27-.68,0-1.4.19-2.1.22s-1.39.15-2.18.1a13.22,13.22,0,0,1-2.1-.17,2.88,2.88,0,0,1-.81-.29,6.83,6.83,0,0,1-.76-.57C67.58,43.38,66.61,42.54,65.73,41.88Z"/><path class="cls-8" d="M54,51.9c2.9-.47,6.84-.28,8,1.07l4.52,4.35c1.17,1.35-.24,2.83-3.14,3.3l-7.89,1.3c-2.9.47-6.19-.24-7.36-1.59l-3.47-4c-1.17-1.35.24-2.83,3.14-3.3Z"/><path class="cls-15" d="M54.1,40.3c2.84-.48,6.7-.24,7.85,1.21,0,0,4.63,3.92,4.82,5.41s-.67,9.28-.67,9.28c-.34,2.43-1.19,3-4,3.5L55.35,61c-2.84.48-6.08-.3-7.23-1.75l-3.45-4.33c-.19-.24,0-10.51,0-10.76-.28-1.21,1.06-2.36,3.42-2.76Z"/><path class="cls-10" d="M53.88,40.8c2.61-.42,6.15-.26,7.19.92l4.05,3.79c1,1.18-.23,2.48-2.84,2.91l-7.09,1.15c-2.6.42-5.56-.19-6.6-1.37l-3.11-3.53c-1-1.18.22-2.48,2.83-2.91Z"/><path class="cls-11" d="M54.51,42.73c1.49-.24,3.5-.17,4.09.46l2.29,2c.58.63-.15,1.33-1.63,1.57l-4,.64c-1.49.23-3.17-.08-3.76-.71l-1.75-1.88c-.59-.63.14-1.33,1.62-1.57Z"/><path class="cls-12" d="M47.11,43.77a2.11,2.11,0,0,1,3-.07,3.21,3.21,0,0,0-.1-.43,2.17,2.17,0,0,0-.29-.43,2.26,2.26,0,0,0-.5-.32,2.51,2.51,0,0,0-.63-.12,2.15,2.15,0,0,0-.63.15,1.7,1.7,0,0,0-.47.35A1.43,1.43,0,0,0,47.11,43.77Z"/><path class="cls-12" d="M46.84,45.8a2.38,2.38,0,0,1,1.48-.65,2.28,2.28,0,0,1,1.5.58,2.16,2.16,0,0,0-.1-.43,1.55,1.55,0,0,0-.29-.43,2.62,2.62,0,0,0-.49-.33,3.29,3.29,0,0,0-.64-.11,2.09,2.09,0,0,0-.62.15,1.45,1.45,0,0,0-.48.35A1.39,1.39,0,0,0,46.84,45.8Z"/><path class="cls-12" d="M50.28,48.59a1.46,1.46,0,0,1,.9-.51,1.34,1.34,0,0,1,.91.46A.9.9,0,0,0,51.9,48a.93.93,0,0,0-.74-.36A1,1,0,0,0,50.28,48.59Z"/><path class="cls-12" d="M52.7,49a2.33,2.33,0,0,1,1.48-.65,2.23,2.23,0,0,1,1.5.58,2,2,0,0,0-.1-.43,1.42,1.42,0,0,0-.29-.43,1.91,1.91,0,0,0-.49-.33,2.26,2.26,0,0,0-.64-.11,2.44,2.44,0,0,0-.62.14,1.8,1.8,0,0,0-.48.35A1.43,1.43,0,0,0,52.7,49Z"/><path class="cls-12" d="M61.74,45.61a1.62,1.62,0,0,1,1-.4,1.55,1.55,0,0,1,1,.36,1,1,0,0,0-2,0Z"/><path class="cls-12" d="M54.38,42a2.33,2.33,0,0,1,1.47-.65,2.28,2.28,0,0,1,1.51.58,2.89,2.89,0,0,0-.1-.43,1.87,1.87,0,0,0-.3-.43,2.21,2.21,0,0,0-.49-.33,1.59,1.59,0,0,0-1.26,0,1.67,1.67,0,0,0-.47.34A1.33,1.33,0,0,0,54.38,42Z"/><path class="cls-12" d="M59.23,43.61a1.67,1.67,0,0,1,1.07-.47,1.63,1.63,0,0,1,1.09.42,1,1,0,0,0-1.1-1A1.07,1.07,0,0,0,59.23,43.61Z"/><path class="cls-12" d="M48.39,47.29A2.18,2.18,0,0,1,49.52,47a2.56,2.56,0,0,1,1.17.16,1.19,1.19,0,0,0-1.2-.59A1.15,1.15,0,0,0,48.39,47.29Z"/><path class="cls-12" d="M50.71,42.49a1.7,1.7,0,0,1,1.06-.59,1.55,1.55,0,0,1,1.08.53,1.06,1.06,0,0,0-.23-.69,1,1,0,0,0-.36-.3,1.41,1.41,0,0,0-.51-.12,1.11,1.11,0,0,0-1,1.17Z"/><path class="cls-12" d="M60.24,48.07a1.57,1.57,0,0,1,.89-.57A1.37,1.37,0,0,1,62,48a1,1,0,0,0-.17-.62.89.89,0,0,0-.76-.4,1,1,0,0,0-.73.45A1,1,0,0,0,60.24,48.07Z"/><path class="cls-13" d="M52.3,45.2a1.57,1.57,0,0,1,.89-.57,1.39,1.39,0,0,1,.92.51,1,1,0,0,0-.17-.62.91.91,0,0,0-.76-.39.92.92,0,0,0-.73.44A1,1,0,0,0,52.3,45.2Z"/><path class="cls-13" d="M52.59,46.77a1.58,1.58,0,0,1,1.93,0,1,1,0,0,0-1.93,0Z"/><path class="cls-13" d="M53.75,44a1.52,1.52,0,0,1,1-.35,1.54,1.54,0,0,1,1,.31,1,1,0,0,0-1.92,0Z"/><path class="cls-13" d="M55.75,45.66a1.52,1.52,0,0,1,1-.35,1.54,1.54,0,0,1,1,.31,1,1,0,0,0-1.92,0Z"/><path class="cls-13" d="M55.93,43.25a1.56,1.56,0,0,1,1.92,0,.94.94,0,0,0-1-.75A.92.92,0,0,0,55.93,43.25Z"/><path class="cls-13" d="M50.22,44.59a1.54,1.54,0,0,1,1-.34,1.48,1.48,0,0,1,1,.31,1,1,0,0,0-1.93,0Z"/><path class="cls-13" d="M56.42,44.9a1.52,1.52,0,0,1,.95-.35,1.54,1.54,0,0,1,1,.31,1,1,0,0,0-1.92,0Z"/><path class="cls-13" d="M57.76,45.81a1.58,1.58,0,0,1,1-.35,1.54,1.54,0,0,1,1,.31,1,1,0,0,0-1.92,0Z"/><path class="cls-12" d="M58.06,42.13a1.81,1.81,0,0,1,1.15-.53,1.72,1.72,0,0,1,1.16.48,1.13,1.13,0,0,0-1.18-1A1.14,1.14,0,0,0,58.06,42.13Z"/><path class="cls-14" d="M45.84,55A24.61,24.61,0,0,0,48,58.16l.77.84a8.28,8.28,0,0,0,1,.73,10.1,10.1,0,0,0,1.17.51c.41.1.83.21,1.26.3a11.36,11.36,0,0,0,2.47,0,14.84,14.84,0,0,0,2.23-.36,23.34,23.34,0,0,0,3.67-1.11c-1.12,0-2.4.09-3.8.16-.7.06-1.42.07-2.15.09a15.2,15.2,0,0,1-2.23-.1L51.32,59c-.34-.09-.65-.25-1-.36s-.58-.32-.87-.51l-.78-.65C47.66,56.56,46.7,55.69,45.84,55Z"/><path class="cls-14" d="M49.87,58a10.08,10.08,0,0,0,1.47.48q.57.14,1.14.24a10.35,10.35,0,0,0,2.23,0c.43,0,.85-.09,1.26-.16s.51-.1.76-.16a21.85,21.85,0,0,0,3.31-1c-.45-.08-1-.14-1.74-.21l-.71,0c-.73.06-1.5.08-2.28.11l-.32,0c-.61,0-1.23,0-1.86,0h-.19l-1.14-.16L51.23,57l-.5-.14a10.45,10.45,0,0,1-1-.44,1.88,1.88,0,0,1-.18-.12c-.22-.14-.43-.28-.63-.43l-.07,0-.57-.5c-.89-.78-1.72-1.52-2.48-2.13A22.67,22.67,0,0,0,48,56.45c.26.29.5.58.79.86A7.06,7.06,0,0,0,49.87,58Z"/><path class="cls-14" d="M50,56.33a9.48,9.48,0,0,0,1.78.45q.49.11,1,.18a10.94,10.94,0,0,0,2-.05q.57-.06,1.11-.15a7,7,0,0,0,.69-.14,20.42,20.42,0,0,0,2.95-.87c0-.17-.09-.36-.35-.54l-.75,0c-.77.06-1.58.1-2.41.14l-.34,0c-.64,0-1.31.05-2,0h-.2l-1.21-.1a4.62,4.62,0,0,1-.61-.11l-.54-.11a11,11,0,0,1-1.06-.35l-.21-.1a7.84,7.84,0,0,1-.69-.41l-.07,0c-.2-.15-.41-.35-.61-.52-1-.81-1.84-1.6-2.65-2.24a21,21,0,0,0,2.2,3.3c.26.29.5.58.81.87A5.19,5.19,0,0,0,50,56.33Z"/><path class="cls-14" d="M50.07,54.63a9.48,9.48,0,0,0,2.08.42q.45.08.9.12a10.11,10.11,0,0,0,1.75-.09c.33,0,.66-.08,1-.13l.61-.11A22.41,22.41,0,0,0,59,54.08a2.47,2.47,0,0,0,1-.88l-.79,0-2.55.17-.35,0c-.68,0-1.38.1-2.08.1H54c-.42,0-.84,0-1.27,0a5,5,0,0,1-.66-.08l-.59-.08a9.68,9.68,0,0,1-1.15-.27L50.14,53a4.49,4.49,0,0,1-.76-.38l-.07,0c-.22-.15-.44-.37-.66-.53-1-.86-1.95-1.69-2.81-2.35A20.64,20.64,0,0,0,48.05,53a11.52,11.52,0,0,0,.84.9A5.14,5.14,0,0,0,50.07,54.63Z"/><path class="cls-14" d="M50.16,52.92a9.64,9.64,0,0,0,2.39.4l.78.06a10.73,10.73,0,0,0,1.51-.12l.84-.11.54-.1a23.1,23.1,0,0,0,2.24-.64,10.68,10.68,0,0,0,2.42-1.21l-.83,0c-.84,0-1.73.11-2.68.19l-.37,0c-.71,0-1.46.16-2.19.17h-.22c-.45,0-.88,0-1.34,0a5.58,5.58,0,0,1-.7,0l-.63,0a11.27,11.27,0,0,1-1.25-.2l-.25-.06A3.82,3.82,0,0,1,49.6,51l-.09,0c-.22-.14-.46-.38-.7-.55-1.06-.89-2.06-1.77-3-2.46a19.93,19.93,0,0,0,2.23,3.42,8,8,0,0,0,.86.91A4.34,4.34,0,0,0,50.16,52.92Z"/><path class="cls-14" d="M45.84,46.16a19.63,19.63,0,0,0,2.25,3.48,6.8,6.8,0,0,0,.88.92,4,4,0,0,0,1.29.66,10.15,10.15,0,0,0,2.7.37,14.55,14.55,0,0,0,2.63-.25,19,19,0,0,0,2.34-.59,23.5,23.5,0,0,0,3.81-1.55c-1.2,0-2.58.15-4.07.29-.74,0-1.53.21-2.29.24s-1.53.17-2.39.11a14.51,14.51,0,0,1-2.3-.18,3.15,3.15,0,0,1-.88-.32,7.45,7.45,0,0,1-.83-.62C47.86,47.8,46.8,46.87,45.84,46.16Z"/><path class="cls-8" d="M83.22,59.25c2.73-.49,6.42-.29,7.52,1.1L95,64.84c1.09,1.4-.23,2.93-3,3.42l-7.4,1.33c-2.73.49-5.82-.24-6.92-1.63l-3.26-4.17c-1.09-1.4.23-2.93,3-3.42Z"/><path class="cls-16" d="M83.28,47.26c2.67-.49,6.29-.24,7.37,1.26,0,0,4.35,4,4.52,5.58s-.63,9.59-.63,9.59c-.31,2.51-1.11,3.12-3.77,3.61l-6.32,1.34c-2.66.5-5.7-.32-6.78-1.81l-3.24-4.47c-.18-.26,0-10.86,0-11.11-.26-1.25,1-2.44,3.21-2.85Z"/><path class="cls-10" d="M83.07,47.78c2.45-.44,5.77-.27,6.75.95l3.8,3.92c1,1.22-.21,2.56-2.66,3l-6.65,1.19c-2.45.44-5.23-.2-6.21-1.42l-2.92-3.64c-1-1.22.22-2.56,2.67-3Z"/><path class="cls-11" d="M83.67,49.77c1.39-.24,3.28-.17,3.83.48l2.15,2.09c.55.65-.13,1.37-1.53,1.61l-3.79.67a4.29,4.29,0,0,1-3.53-.74l-1.64-1.94c-.55-.65.13-1.37,1.52-1.61Z"/><path class="cls-12" d="M76.72,50.85a2.17,2.17,0,0,1,1.39-.68,2.08,2.08,0,0,1,1.41.61,1.38,1.38,0,0,0-.34-.85,1.7,1.7,0,0,0-.47-.35,2.14,2.14,0,0,0-.62-.13A1.49,1.49,0,0,0,77,50,1.36,1.36,0,0,0,76.72,50.85Z"/><path class="cls-12" d="M76.47,53a2.21,2.21,0,0,1,1.38-.69,2.14,2.14,0,0,1,1.42.62,1.41,1.41,0,0,0-.34-.86,1.89,1.89,0,0,0-.47-.34,2.14,2.14,0,0,0-.63-.13,1.47,1.47,0,0,0-1.06.53A1.39,1.39,0,0,0,76.47,53Z"/><path class="cls-12" d="M79.7,55.83a1.46,1.46,0,0,1,.84-.54,1.3,1.3,0,0,1,.85.49,1,1,0,0,0-.15-.59.82.82,0,0,0-1.41.05A.9.9,0,0,0,79.7,55.83Z"/><path class="cls-12" d="M82,56.25a2.21,2.21,0,0,1,1.38-.69,2.14,2.14,0,0,1,1.42.62,1.41,1.41,0,0,0-.34-.86A1.89,1.89,0,0,0,84,55a2.14,2.14,0,0,0-.63-.13,1.47,1.47,0,0,0-1.06.53A1.39,1.39,0,0,0,82,56.25Z"/><path class="cls-12" d="M90.46,52.75a1.45,1.45,0,0,1,.91-.42,1.4,1.4,0,0,1,.94.38.93.93,0,0,0-1.85,0Z"/><path class="cls-12" d="M83.54,49a2.23,2.23,0,0,1,1.39-.69,2.14,2.14,0,0,1,1.41.62,1.43,1.43,0,0,0-.34-.86,1.72,1.72,0,0,0-.47-.34,2.14,2.14,0,0,0-.62-.13,1.48,1.48,0,0,0-1.07.53A1.41,1.41,0,0,0,83.54,49Z"/><path class="cls-12" d="M88.1,50.68a1.65,1.65,0,0,1,1-.5,1.56,1.56,0,0,1,1,.45,1,1,0,0,0-2,0Z"/><path class="cls-12" d="M77.92,54.49A1.93,1.93,0,0,1,79,54.16a2.07,2.07,0,0,1,1.1.17A1.08,1.08,0,0,0,79,53.74,1,1,0,0,0,77.92,54.49Z"/><path class="cls-12" d="M80.1,49.53a1.72,1.72,0,0,1,1-.63,1.57,1.57,0,0,1,1,.57,1.12,1.12,0,0,0-.19-.69,1,1,0,0,0-1.66,0A1.2,1.2,0,0,0,80.1,49.53Z"/><path class="cls-12" d="M89,55.29c.25-.27.55-.58.84-.6s.6.28.86.54a1.09,1.09,0,0,0-.14-.62.86.86,0,0,0-.74-.42.87.87,0,0,0-.71.48A1.11,1.11,0,0,0,89,55.29Z"/><path class="cls-13" d="M81.59,52.33c.25-.27.55-.58.84-.6s.61.28.86.54a1.07,1.07,0,0,0-.14-.62.8.8,0,0,0-1.44.06A1,1,0,0,0,81.59,52.33Z"/><path class="cls-13" d="M81.87,54a1.4,1.4,0,0,1,.89-.37,1.31,1.31,0,0,1,.91.33.87.87,0,0,0-.92-.76A.88.88,0,0,0,81.87,54Z"/><path class="cls-13" d="M83,51.09a1.46,1.46,0,0,1,.9-.37,1.43,1.43,0,0,1,.91.33.87.87,0,0,0-.92-.75A.88.88,0,0,0,83,51.09Z"/><path class="cls-13" d="M84.83,52.8a1.45,1.45,0,0,1,.89-.37,1.41,1.41,0,0,1,.91.33.91.91,0,0,0-1.8,0Z"/><path class="cls-13" d="M85,50.31a1.42,1.42,0,0,1,.9-.37,1.38,1.38,0,0,1,.91.33.88.88,0,0,0-.92-.76A.89.89,0,0,0,85,50.31Z"/><path class="cls-13" d="M79.64,51.7a1.35,1.35,0,0,1,1.81,0,.87.87,0,0,0-.92-.75A.88.88,0,0,0,79.64,51.7Z"/><path class="cls-13" d="M85.46,52a1.35,1.35,0,0,1,.89-.37,1.31,1.31,0,0,1,.91.33.91.91,0,0,0-1.8,0Z"/><path class="cls-13" d="M86.71,53a1.42,1.42,0,0,1,.9-.37,1.38,1.38,0,0,1,.91.33.88.88,0,0,0-.92-.76A.89.89,0,0,0,86.71,53Z"/><path class="cls-12" d="M87,49.16a1.72,1.72,0,0,1,1.07-.57,1.66,1.66,0,0,1,1.1.51,1.1,1.1,0,0,0-.25-.68,1.4,1.4,0,0,0-.37-.29,1.31,1.31,0,0,0-.5-.1,1.09,1.09,0,0,0-.83.44A1,1,0,0,0,87,49.16Z"/><path class="cls-14" d="M75.53,62.43a24.16,24.16,0,0,0,1.9,3.15A7.14,7.14,0,0,0,79,67.2a11.37,11.37,0,0,0,1.1.57c.39.13.8.23,1.21.33a11.74,11.74,0,0,0,4.53-.29,21,21,0,0,0,3.49-1.14c-1.07,0-2.3.12-3.63.2a18.7,18.7,0,0,1-4.16,0l-1-.25c-.29-.14-.61-.25-.89-.4a5.39,5.39,0,0,1-.79-.56L78.15,65C77.21,64,76.32,63.15,75.53,62.43Z"/><path class="cls-14" d="M80,65.91c.34.11.69.19,1,.28A10.29,10.29,0,0,0,84.9,66a18.53,18.53,0,0,0,3-.9c-.73,0-1.57.1-2.51.14-.21,0-.43,0-.65,0a9.44,9.44,0,0,1-2.23-.17l-.7-.23c-.11-.16-.24-.29-.36-.46s-.19-.37-.26-.63l-1-.5-1-.55-1.09-.58c-.39-.21-.75-.43-1.14-.63l-.29-.16a2.36,2.36,0,0,0,0,.53,1.55,1.55,0,0,0,0,.22,1.6,1.6,0,0,0,0,.21,4.12,4.12,0,0,0,.3.81v0A9.87,9.87,0,0,0,78.61,65l.14.12.45.33Q79.58,65.72,80,65.91Z"/><path class="cls-14" d="M79.85,64l.87.25a9,9,0,0,0,3.22-.08,16.67,16.67,0,0,0,2.5-.66c-.39,0-.83.07-1.37.08h-.36a3.76,3.76,0,0,1-1.24-.23l-.4-.22a4,4,0,0,0,.18-.52A4.3,4.3,0,0,0,83.5,62c-.38-.13-.78-.24-1.19-.34s-.82-.25-1.24-.36l-1.37-.37c-.48-.13-.91-.29-1.41-.45l-.36-.13c-.16.13-.3.25-.4.35a.76.76,0,0,1-.19.07.86.86,0,0,1-.16,0,.77.77,0,0,0-.47,0h0A12.49,12.49,0,0,0,78.33,63l.15.14c.15.15.31.29.48.43A5.51,5.51,0,0,0,79.85,64Z"/><path class="cls-14" d="M79.72,62.17l.69.21a8,8,0,0,0,2.57,0A15.61,15.61,0,0,0,85,62a.34.34,0,0,1-.24,0l-.06,0a1.34,1.34,0,0,1-.26-.31l-.09-.2a8.42,8.42,0,0,0,.71-.57,5.69,5.69,0,0,0,.78-.77c-.45-.07-.93-.13-1.42-.18s-1-.12-1.5-.16l-1.64-.16c-.58-.06-1.08-.16-1.7-.28-.14,0-.29-.05-.43-.09a7.1,7.1,0,0,1-.78.17,1.08,1.08,0,0,1-.39-.08c-.12-.06-.25-.15-.37-.22a12.72,12.72,0,0,0-1.25-.85l0,0a15.32,15.32,0,0,0,1.75,2.66l.16.17c.16.17.33.35.52.52A3.63,3.63,0,0,0,79.72,62.17Z"/><path class="cls-14" d="M79.59,60.31l.52.16a6.73,6.73,0,0,0,1.92.14c.53,0,1-.1,1.5-.17a2.9,2.9,0,0,0,.89-.06,1.14,1.14,0,0,0,.22-.07,2.19,2.19,0,0,0,.73-.37l.21-.19q.67-.3,1.26-.63a10.76,10.76,0,0,0,1.3-.83c-.52,0-1.08,0-1.66,0l-1.75,0-1.92.05a14.94,14.94,0,0,1-2-.1l-.51,0a5.5,5.5,0,0,1-1.17,0,1.88,1.88,0,0,1-.59-.21c-.18-.14-.37-.31-.56-.45-.73-.62-1.42-1.22-2-1.68l-.07,0a17.73,17.73,0,0,0,1.86,3c.06.06.11.13.17.2s.34.4.55.61A3.73,3.73,0,0,0,79.59,60.31Z"/><path class="cls-14" d="M75.53,53.31a19.1,19.1,0,0,0,2,3.44c.24.31.47.62.76.93a3.6,3.6,0,0,0,1.2.76,7.92,7.92,0,0,0,2.62.44,10.19,10.19,0,0,0,2.54-.22A17.2,17.2,0,0,0,86.84,58a20.84,20.84,0,0,0,3.61-1.58c-1.15,0-2.47.18-3.89.36-.71.08-1.45.19-2.19.26a15,15,0,0,1-2.25.08A9.61,9.61,0,0,1,80,56.93a2.59,2.59,0,0,1-.79-.36c-.25-.2-.51-.45-.77-.66C77.39,55,76.41,54,75.53,53.31Z"/><path class="cls-8" d="M63.62,62.43c2.94-.52,6.93-.31,8.1,1.2l4.58,4.84c1.18,1.5-.25,3.15-3.18,3.68l-8,1.44c-2.94.53-6.28-.26-7.46-1.77l-3.52-4.49c-1.17-1.51.25-3.16,3.19-3.69Z"/><path class="cls-17" d="M63.69,49.51c2.87-.54,6.77-.26,7.94,1.35,0,0,4.69,4.36,4.87,6s-.67,10.34-.67,10.34c-.34,2.71-1.2,3.36-4.07,3.9L65,72.56c-2.88.54-6.15-.34-7.32-2l-3.49-4.83c-.2-.27,0-11.7,0-12-.29-1.35,1.07-2.63,3.46-3.07Z"/><path class="cls-10" d="M63.46,50.07c2.64-.47,6.22-.29,7.28,1l4.09,4.23c1.06,1.31-.23,2.76-2.87,3.23l-7.17,1.28c-2.64.48-5.63-.21-6.69-1.52L55,54.38c-1.05-1.32.24-2.76,2.88-3.24Z"/><path class="cls-11" d="M64.1,52.21c1.5-.26,3.54-.18,4.14.52L70.55,55c.6.7-.14,1.48-1.65,1.74l-4.08.72c-1.51.26-3.21-.09-3.81-.79l-1.77-2.09c-.6-.7.14-1.48,1.64-1.75Z"/><path class="cls-12" d="M56.61,53.38a2.37,2.37,0,0,1,1.49-.74,2.24,2.24,0,0,1,1.53.66,1.51,1.51,0,0,0-.37-.92,1.91,1.91,0,0,0-.5-.37,2.23,2.23,0,0,0-.68-.14,1.64,1.64,0,0,0-1.15.57A1.5,1.5,0,0,0,56.61,53.38Z"/><path class="cls-12" d="M56.34,55.64a2.37,2.37,0,0,1,1.49-.74,2.29,2.29,0,0,1,1.53.66,1.51,1.51,0,0,0-.37-.92,1.91,1.91,0,0,0-.5-.37,2.17,2.17,0,0,0-.68-.14,1.64,1.64,0,0,0-1.15.57A1.5,1.5,0,0,0,56.34,55.64Z"/><path class="cls-12" d="M59.82,58.75a1.58,1.58,0,0,1,.9-.59,1.4,1.4,0,0,1,.93.53,1.06,1.06,0,0,0-.17-.63.87.87,0,0,0-.77-.41.94.94,0,0,0-.75.46A1.13,1.13,0,0,0,59.82,58.75Z"/><path class="cls-12" d="M62.27,59.2a2.37,2.37,0,0,1,1.49-.74,2.24,2.24,0,0,1,1.53.66,1.51,1.51,0,0,0-.37-.92,1.91,1.91,0,0,0-.5-.37,2.17,2.17,0,0,0-.68-.14,1.64,1.64,0,0,0-1.15.57A1.5,1.5,0,0,0,62.27,59.2Z"/><path class="cls-12" d="M71.42,55.43a1.6,1.6,0,0,1,1-.46,1.49,1.49,0,0,1,1,.41,1,1,0,0,0-1-.9A1,1,0,0,0,71.42,55.43Z"/><path class="cls-12" d="M64,51.4a2.41,2.41,0,0,1,1.5-.74,2.25,2.25,0,0,1,1.52.67,1.56,1.56,0,0,0-.36-.93,2,2,0,0,0-.51-.37,2.1,2.1,0,0,0-.67-.13,1.56,1.56,0,0,0-1.15.57A1.47,1.47,0,0,0,64,51.4Z"/><path class="cls-12" d="M68.88,53.2A1.7,1.7,0,0,1,70,52.66a1.63,1.63,0,0,1,1.1.48,1,1,0,0,0-.26-.67,1.26,1.26,0,0,0-.36-.27,1.34,1.34,0,0,0-.49-.1A1.09,1.09,0,0,0,68.88,53.2Z"/><path class="cls-12" d="M57.9,57.3A2.14,2.14,0,0,1,59,56.94a2.27,2.27,0,0,1,1.19.19A1.17,1.17,0,0,0,59,56.49,1.13,1.13,0,0,0,57.9,57.3Z"/><path class="cls-12" d="M60.25,52a1.89,1.89,0,0,1,1.07-.68,1.66,1.66,0,0,1,1.1.62,1.18,1.18,0,0,0-.21-.75,1,1,0,0,0-1.78.06A1.24,1.24,0,0,0,60.25,52Z"/><path class="cls-12" d="M69.9,58.16c.26-.29.59-.62.9-.64s.65.3.93.58a1.18,1.18,0,0,0-.15-.67.94.94,0,0,0-.8-.45,1,1,0,0,0-.76.51A1.14,1.14,0,0,0,69.9,58.16Z"/><path class="cls-13" d="M61.86,55c.27-.29.59-.62.91-.64s.65.3.92.58a1.09,1.09,0,0,0-.15-.67.9.9,0,0,0-.8-.45,1,1,0,0,0-.76.51A1.2,1.2,0,0,0,61.86,55Z"/><path class="cls-13" d="M62.16,56.72a1.51,1.51,0,0,1,1-.4,1.47,1.47,0,0,1,1,.35,1,1,0,0,0-2,0Z"/><path class="cls-13" d="M63.33,53.64a1.56,1.56,0,0,1,1-.4,1.52,1.52,0,0,1,1,.36,1,1,0,0,0-2,0Z"/><path class="cls-13" d="M65.35,55.48a1.56,1.56,0,0,1,1-.4,1.52,1.52,0,0,1,1,.36,1,1,0,0,0-1-.82A1,1,0,0,0,65.35,55.48Z"/><path class="cls-13" d="M65.53,52.79a1.56,1.56,0,0,1,1-.4,1.52,1.52,0,0,1,1,.36,1,1,0,0,0-1-.82A1,1,0,0,0,65.53,52.79Z"/><path class="cls-13" d="M59.76,54.29a1.62,1.62,0,0,1,1-.4,1.52,1.52,0,0,1,1,.36,1,1,0,0,0-1-.82A1,1,0,0,0,59.76,54.29Z"/><path class="cls-13" d="M66,54.63a1.56,1.56,0,0,1,1-.4,1.52,1.52,0,0,1,1,.36,1,1,0,0,0-1-.82A1,1,0,0,0,66,54.63Z"/><path class="cls-13" d="M67.39,55.65a1.54,1.54,0,0,1,1-.4,1.52,1.52,0,0,1,1,.36,1,1,0,0,0-1.94,0Z"/><path class="cls-12" d="M67.69,51.55a1.89,1.89,0,0,1,1.16-.61,1.78,1.78,0,0,1,1.18.55,1.17,1.17,0,0,0-.27-.74,1.35,1.35,0,0,0-.39-.3,1.58,1.58,0,0,0-.54-.12,1.22,1.22,0,0,0-.9.48A1.2,1.2,0,0,0,67.69,51.55Z"/><path class="cls-14" d="M55.32,65.86a24.88,24.88,0,0,0,2.06,3.4l.75.91a5.67,5.67,0,0,0,1,.84c.37.24.78.41,1.18.62s.86.24,1.3.35a12.76,12.76,0,0,0,4.89-.31,23.52,23.52,0,0,0,3.77-1.23c-1.15,0-2.48.13-3.92.22a19.79,19.79,0,0,1-4.48,0l-1.09-.26c-.32-.16-.66-.28-1-.44a5.45,5.45,0,0,1-.85-.6l-.78-.72C57.13,67.57,56.17,66.64,55.32,65.86Z"/><path class="cls-14" d="M55.32,63.9a25.57,25.57,0,0,0,2.07,3.46l.76.92a5.32,5.32,0,0,0,1,.84,10,10,0,0,0,1.51.59c.52.11,1.08.18,1.59.24a12.17,12.17,0,0,0,4.39-.39,23.22,23.22,0,0,0,3.8-1.32c-1.17,0-2.52.14-4,.25a20.37,20.37,0,0,1-4.06,0c-.46-.05-.88-.12-1.35-.2a11.88,11.88,0,0,1-1.23-.39,4.36,4.36,0,0,1-.85-.57c-.27-.23-.53-.47-.79-.71C57.17,65.62,56.2,64.68,55.32,63.9Z"/><path class="cls-14" d="M55.32,61.93a23.11,23.11,0,0,0,2.08,3.52c.25.31.5.63.78,1a4.82,4.82,0,0,0,1.1.83,8.37,8.37,0,0,0,1.83.56,12,12,0,0,0,1.88.12,12.08,12.08,0,0,0,3.9-.46A22.26,22.26,0,0,0,70.71,66c-1.19,0-2.56.16-4,.29A21,21,0,0,1,63,66.4c-.55,0-1-.06-1.62-.12a8.68,8.68,0,0,1-1.5-.36,3.87,3.87,0,0,1-.85-.52l-.8-.71C57.21,63.66,56.22,62.71,55.32,61.93Z"/><path class="cls-14" d="M55.32,60a22.77,22.77,0,0,0,2.09,3.58c.26.32.51.64.8,1a4.23,4.23,0,0,0,1.16.83,7.82,7.82,0,0,0,2.17.53,10.4,10.4,0,0,0,2.16,0,12.06,12.06,0,0,0,3.4-.52A22.88,22.88,0,0,0,71,63.83c-1.21.05-2.6.17-4.09.32a22.79,22.79,0,0,1-3.22.15,15,15,0,0,1-1.88,0A8.72,8.72,0,0,1,60,63.92a3.19,3.19,0,0,1-.85-.47l-.81-.71C57.25,61.71,56.24,60.75,55.32,60Z"/><path class="cls-14" d="M55.32,58a22.33,22.33,0,0,0,2.11,3.65c.26.32.5.65.8,1a4.27,4.27,0,0,0,1.23.82A8.05,8.05,0,0,0,62,64a10.5,10.5,0,0,0,2.45-.12,13.42,13.42,0,0,0,2.9-.59,22.57,22.57,0,0,0,3.87-1.61c-1.22,0-2.63.18-4.14.35-.9.09-1.85.2-2.79.21a14.08,14.08,0,0,1-2.16,0,9.21,9.21,0,0,1-2-.28,3,3,0,0,1-.85-.43c-.28-.22-.55-.49-.82-.72C57.3,59.76,56.26,58.78,55.32,58Z"/><path class="cls-14" d="M55.32,56a21.45,21.45,0,0,0,2.12,3.72c.26.32.51.66.82,1a4.07,4.07,0,0,0,1.3.81,8.1,8.1,0,0,0,2.82.47,10.4,10.4,0,0,0,2.74-.24,18.4,18.4,0,0,0,2.41-.65,23,23,0,0,0,3.89-1.72c-1.24.06-2.66.21-4.2.39-.76.09-1.56.21-2.36.28a14.89,14.89,0,0,1-2.43.09,9.75,9.75,0,0,1-2.3-.25,2.92,2.92,0,0,1-.86-.38c-.27-.22-.55-.49-.83-.72C57.34,57.81,56.28,56.82,55.32,56Z"/><path class="cls-4" d="M36.88,89.13h-.07a.82.82,0,0,1-.75-.88l.38-4.42a.82.82,0,0,1,.88-.75.83.83,0,0,1,.75.89l-.38,4.41A.82.82,0,0,1,36.88,89.13Z"/><path class="cls-5" d="M34.32,49.34l8.6,30a2.14,2.14,0,0,1-4.12,1.18,1.94,1.94,0,0,1,0-.2l-5.68-30.7a.64.64,0,0,1,1.25-.29Z"/><path class="cls-5" d="M29.49,48.69,52.76,78.5a1.86,1.86,0,1,1-2.94,2.29l-.07-.1L28.59,49.34a.56.56,0,0,1,.9-.65Z"/><path class="cls-18" d="M31.9,36.53,48,93.16a2,2,0,0,1-3.92,1.11.36.36,0,0,1,0-.1L30.72,36.83a.6.6,0,0,1,.45-.73A.62.62,0,0,1,31.9,36.53Z"/><path class="cls-19" d="M31.44,36.65,45.57,92.76a.44.44,0,1,1-.86.21h0L31.18,36.71a.13.13,0,0,1,.09-.16A.14.14,0,0,1,31.44,36.65Z"/><path class="cls-18" d="M22.07,38.31,65.61,86.18a2.14,2.14,0,1,1-3.17,2.88L62.37,89,21.1,39.15a.63.63,0,0,1,.09-.9A.64.64,0,0,1,22.07,38.31Z"/><path class="cls-19" d="M21.69,38.64,63.15,86.92a.46.46,0,1,1-.7.6h0l-41-48.7a.15.15,0,0,1,0-.2A.14.14,0,0,1,21.69,38.64Z"/></g></g></svg>