<svg xmlns="http://www.w3.org/2000/svg" xmlns:xlink="http://www.w3.org/1999/xlink" viewBox="0 0 114.53 93.78"><defs><style>.cls-1{fill:#8ec044;}.cls-2{fill:#646363;}.cls-3{fill:url(#linear-gradient);}.cls-4{fill:url(#linear-gradient-2);}.cls-5{fill:url(#linear-gradient-3);}.cls-6{fill:url(#linear-gradient-4);}.cls-7{fill:url(#linear-gradient-5);}.cls-8{fill:#2c6b2e;}.cls-9{fill:#29662c;}.cls-10{fill:#1f5322;}.cls-11{fill:#1b4d1f;}.cls-12{fill:#b2b2b2;}.cls-13{fill:#be1622;}.cls-14{fill:url(#radial-gradient);}.cls-15{fill:url(#linear-gradient-6);}.cls-16{fill:#f6aa00;}.cls-17{fill:url(#linear-gradient-7);}.cls-18{fill:url(#radial-gradient-2);}.cls-19{fill:url(#linear-gradient-8);}.cls-20{fill:url(#linear-gradient-9);}.cls-21{fill:#fac188;}.cls-22{fill:#fccfa3;}.cls-23{fill:url(#radial-gradient-3);}.cls-24{fill:url(#linear-gradient-10);}.cls-25{fill:url(#linear-gradient-11);}.cls-26{fill:url(#radial-gradient-4);}.cls-27{fill:url(#linear-gradient-12);}.cls-28{fill:url(#linear-gradient-13);}.cls-29{fill:url(#radial-gradient-5);}.cls-30{fill:url(#linear-gradient-14);}.cls-31{fill:url(#linear-gradient-15);}.cls-32{fill:url(#radial-gradient-6);}.cls-33{fill:#190e15;}.cls-34{fill:url(#radial-gradient-7);}.cls-35{fill:url(#radial-gradient-8);}.cls-36{fill:url(#radial-gradient-9);}.cls-37{fill:#2d7c36;}.cls-38{fill:url(#radial-gradient-10);}.cls-39{fill:#9dc150;}.cls-40{fill:#eaf0d4;}.cls-41{fill:url(#radial-gradient-11);}.cls-42{fill:url(#radial-gradient-12);}.cls-43{fill:url(#radial-gradient-13);}.cls-44{fill:url(#radial-gradient-14);}</style><linearGradient id="linear-gradient" x1="57.18" y1="42.74" x2="57.18" y2="87.45" gradientUnits="userSpaceOnUse"><stop offset="0" stop-color="#cecece"/><stop offset="0.6" stop-color="#ececec"/><stop offset="1" stop-color="#fafafa"/></linearGradient><linearGradient id="linear-gradient-2" x1="57.26" y1="41.76" x2="57.26" y2="92.12" gradientUnits="userSpaceOnUse"><stop offset="0" stop-color="#f9f8f8"/><stop offset="0.17" stop-color="#f4f3f3"/><stop offset="0.37" stop-color="#e6e5e5"/><stop offset="0.58" stop-color="#cfcece"/><stop offset="0.79" stop-color="#afafae"/><stop offset="1" stop-color="#898988"/></linearGradient><linearGradient id="linear-gradient-3" x1="57.38" y1="51.38" x2="57.38" y2="80.6" gradientUnits="userSpaceOnUse"><stop offset="0" stop-color="#d2d2d2"/><stop offset="0.21" stop-color="#d7d7d7"/><stop offset="1" stop-color="#e5e5e5"/></linearGradient><linearGradient id="linear-gradient-4" x1="57.1" y1="53.44" x2="57.93" y2="91.83" gradientUnits="userSpaceOnUse"><stop offset="0.01" stop-color="#949494"/><stop offset="0.19" stop-color="#b5b5b5"/><stop offset="0.41" stop-color="#d5d5d5"/><stop offset="0.63" stop-color="#ececec"/><stop offset="0.83" stop-color="#fafafa"/><stop offset="1" stop-color="#fff"/></linearGradient><linearGradient id="linear-gradient-5" x1="11.62" y1="58.29" x2="100.39" y2="58.29" gradientUnits="userSpaceOnUse"><stop offset="0.01" stop-color="#549c2e"/><stop offset="0.61" stop-color="#2c7129"/><stop offset="1" stop-color="#165926"/></linearGradient><radialGradient id="radial-gradient" cx="-59.79" cy="-558.8" r="11.06" gradientTransform="matrix(0.71, -0.39, 0.84, 0.66, 583.82, 401.5)" gradientUnits="userSpaceOnUse"><stop offset="0.01" stop-color="#f18b61"/><stop offset="0.22" stop-color="#ef875d"/><stop offset="0.46" stop-color="#ea7a51"/><stop offset="0.69" stop-color="#e2653d"/><stop offset="0.94" stop-color="#d64722"/><stop offset="1" stop-color="#d23e19"/></radialGradient><linearGradient id="linear-gradient-6" x1="169.12" y1="-519.97" x2="177.99" y2="-519.97" gradientTransform="matrix(0.86, -0.44, 0.97, 0.67, 424.85, 482.52)" gradientUnits="userSpaceOnUse"><stop offset="0" stop-color="#b91619"/><stop offset="0.27" stop-color="#c92b24"/><stop offset="0.74" stop-color="#e14b34"/><stop offset="1" stop-color="#ea573a"/></linearGradient><linearGradient id="linear-gradient-7" x1="2232.89" y1="-738.28" x2="2242.56" y2="-738.28" gradientTransform="matrix(-0.64, 0.57, 1.13, 0.56, 2329.31, -811.12)" xlink:href="#linear-gradient-6"/><radialGradient id="radial-gradient-2" cx="29.17" cy="-8.81" r="13.57" gradientTransform="matrix(1, -0.06, 0.06, 1, 18.04, 71.27)" gradientUnits="userSpaceOnUse"><stop offset="0.01" stop-color="#f7b696"/><stop offset="0.19" stop-color="#f6b292"/><stop offset="0.39" stop-color="#f5a785"/><stop offset="0.59" stop-color="#f29370"/><stop offset="0.79" stop-color="#ef7852"/><stop offset="1" stop-color="#ea562c"/></radialGradient><linearGradient id="linear-gradient-8" x1="17.21" y1="-8.67" x2="30.78" y2="-8.67" gradientTransform="matrix(1, -0.06, 0.06, 1, 18.04, 71.27)" xlink:href="#linear-gradient-6"/><linearGradient id="linear-gradient-9" x1="2481.3" y1="-269.22" x2="2494.15" y2="-269.22" gradientTransform="matrix(-0.96, 0.27, 0.27, 0.96, 2523.5, -344.87)" xlink:href="#linear-gradient-6"/><radialGradient id="radial-gradient-3" cx="-38.34" cy="-554.14" r="12.52" gradientTransform="matrix(0.71, -0.39, 0.84, 0.66, 583.82, 401.5)" xlink:href="#radial-gradient-2"/><linearGradient id="linear-gradient-10" x1="185.83" y1="-515.96" x2="195.87" y2="-515.96" xlink:href="#linear-gradient-6"/><linearGradient id="linear-gradient-11" x1="2215" y1="-730.6" x2="2225.95" y2="-730.6" gradientTransform="matrix(-0.64, 0.57, 1.13, 0.56, 2329.31, -811.12)" xlink:href="#linear-gradient-6"/><radialGradient id="radial-gradient-4" cx="-93.7" cy="-556.79" r="12.51" gradientTransform="matrix(0.68, -0.38, 0.8, 0.66, 606.81, 394.82)" xlink:href="#radial-gradient-2"/><linearGradient id="linear-gradient-12" x1="170.39" y1="-495.8" x2="180.06" y2="-495.8" gradientTransform="matrix(0.86, -0.43, 0.96, 0.68, 419.81, 473.26)" xlink:href="#linear-gradient-6"/><linearGradient id="linear-gradient-13" x1="2234.73" y1="-714.68" x2="2245.71" y2="-714.68" gradientTransform="matrix(-0.64, 0.57, 1.12, 0.57, 2336.35, -803.16)" xlink:href="#linear-gradient-6"/><radialGradient id="radial-gradient-5" cx="-154.19" cy="-423.51" r="13.57" gradientTransform="matrix(0.74, -0.32, 0.77, 0.73, 526.47, 332.65)" xlink:href="#radial-gradient-2"/><linearGradient id="linear-gradient-14" x1="76.34" y1="-390.42" x2="87.23" y2="-390.42" gradientTransform="matrix(0.89, -0.36, 0.9, 0.76, 359.79, 396.97)" xlink:href="#linear-gradient-6"/><linearGradient id="linear-gradient-15" x1="2347.39" y1="-631.35" x2="2359.26" y2="-631.35" gradientTransform="matrix(-0.69, 0.51, 1.07, 0.66, 2379.63, -710.66)" xlink:href="#linear-gradient-6"/><radialGradient id="radial-gradient-6" cx="-186.96" cy="-52.64" r="6.27" gradientTransform="translate(191.23 138.45) rotate(8.52)" gradientUnits="userSpaceOnUse"><stop offset="0" stop-color="#8ca1b7"/><stop offset="0.44" stop-color="#555a69"/><stop offset="0.82" stop-color="#2a232d"/><stop offset="1" stop-color="#190e15"/></radialGradient><radialGradient id="radial-gradient-7" cx="297.49" cy="496.75" r="6.27" gradientTransform="translate(144.4 -515.59) rotate(42.59)" xlink:href="#radial-gradient-6"/><radialGradient id="radial-gradient-8" cx="2259.06" cy="-460.53" r="6.27" gradientTransform="translate(2024.69 -1154.16) rotate(159.76)" xlink:href="#radial-gradient-6"/><radialGradient id="radial-gradient-9" cx="2042.03" cy="-1305.55" r="6.27" gradientTransform="translate(2442.07 -469.54) rotate(-160.44)" xlink:href="#radial-gradient-6"/><radialGradient id="radial-gradient-10" cx="25.61" cy="64.94" r="11.12" gradientUnits="userSpaceOnUse"><stop offset="0.18" stop-color="#eaf0d4"/><stop offset="0.45" stop-color="#e9efd2"/><stop offset="0.58" stop-color="#e6edca"/><stop offset="0.68" stop-color="#e0eabd"/><stop offset="0.77" stop-color="#d8e4aa"/><stop offset="0.85" stop-color="#cede92"/><stop offset="0.92" stop-color="#c1d574"/><stop offset="0.99" stop-color="#b2cb51"/><stop offset="1" stop-color="#aec948"/></radialGradient><radialGradient id="radial-gradient-11" cx="236.6" cy="496.38" r="11.14" gradientTransform="translate(-4 -479.42) rotate(21.65)" xlink:href="#radial-gradient-10"/><radialGradient id="radial-gradient-12" cx="119.64" cy="282.58" r="11.39" gradientTransform="translate(-24.6 -227.16) rotate(10.22)" xlink:href="#radial-gradient-10"/><radialGradient id="radial-gradient-13" cx="53.61" cy="73.86" r="11.71" xlink:href="#radial-gradient-10"/><radialGradient id="radial-gradient-14" cx="63.93" cy="73.1" r="11.71" xlink:href="#radial-gradient-10"/></defs><g id="Capa_2" data-name="Capa 2"><g id="Layer_1" data-name="Layer 1"><path class="cls-1" d="M110.36,56.32c0-31.1-24-56.32-53.58-56.32S3.2,25.22,3.2,56.32A59.4,59.4,0,0,0,4.41,68.26H109.15A59.4,59.4,0,0,0,110.36,56.32Z"/><path class="cls-2" d="M103.39,75.58c0,10-20.72,18.2-46.29,18.2s-46.3-8.15-46.3-18.2,20.73-18.2,46.3-18.2S103.39,65.53,103.39,75.58Z"/><path class="cls-3" d="M114.2,66.69c0,13.42-24.62,23.84-56.81,23.84S.17,80.11.17,66.69s25-24.75,57.22-24.75S114.2,53.27,114.2,66.69Z"/><path class="cls-4" d="M56.75,92.12C24.89,92.12,0,80.58,0,66.69S24.89,41.76,56.75,41.76s57.78,11.29,57.78,25.18S88.61,92.12,56.75,92.12Zm.64-49.3c-31,0-56.2,10.51-56.2,23.44S26.4,89.7,57.39,89.7s56.19-10.52,56.19-23.44S88.37,42.82,57.39,42.82Z"/><path class="cls-5" d="M95.49,66.74c0,8.77-17.06,15.88-38.1,15.88S19.28,75.51,19.28,66.74,36.34,50.86,57.39,50.86,95.49,58,95.49,66.74Z"/><path class="cls-6" d="M57.39,83.66c-22.41,0-40.63-7.59-40.63-16.92S35,49.8,57.39,49.8,98,57.4,98,66.74,79.79,83.66,57.39,83.66Zm0-31.75c-19.62,0-35.59,6.65-35.59,14.83s16,14.82,35.59,14.82S93,74.91,93,66.74,77,51.91,57.39,51.91Z"/><path class="cls-7" d="M24.79,47.45c1.17-2.62.16-8,4.76-7.38.86,4.43,3.16,7.46,5.83,3.69,2.11-3,3.28-7,8.12-6.2,1.28,2.78,3.22,6.74,7.37,4.65,2.83-1.43,2.69-5.75,7.38-4.66,1.92,3.44-4.72,4.74-2.15,7.32C58,46.71,60.79,43,62.29,41.45c1.26-1.28,6.52-4.33,6.75-.64.16,2.61-5,4.12,1.08,5.9,4.25,1.25,4.79-3,8.48-4.34,1.67-.61,9.68-2.07,7.69,2.05-1.18,2.44-6.89.27-7.69,4.5-.92,4.87,3.38,2.77,5.9,1.48,3-1.52,8-4.9,11.82-2.59,6.11,3.68-2.84,4.67-4.45,6.28-5.53,5.53,12.29,1.78,7.78,9.59-2.49,4.31-5.23.3-7.78,0-1.66-.21-2.42-.16-3.68,1.1-1.85,1.84,1.53,3,2.7,4.7,1.72,2.5,0,6.37-3.44,5.63-3.67-.79-2.42-6-5.25-7.29a3.29,3.29,0,0,0-2.07-.4c-.52,2.45,1,4.55,1,6.89-1,5.22-3.07-.4-5.1-1.42-3.69-1.84-1.11,7-8.11,6.27-7.38-.77-14.83-8.46-22.13-8.48-5.37,0-10.69-.35-15.56-2.82s-8.89-6.56-13.73-9.28C13.86,57.11,9.25,52.91,13.1,50,16.61,47.35,22.37,52.84,24.79,47.45Z"/><path class="cls-8" d="M53.89,42.28c-1.73.7-3.26,2.59-4.21,4.8a18.83,18.83,0,0,0-1.44,7.6A17.35,17.35,0,0,0,50,62.26a8,8,0,0,0,4.67,4.36A10.33,10.33,0,0,1,52,61.5a30,30,0,0,1-.79-6.85,35.38,35.38,0,0,1,.56-6.93A12.44,12.44,0,0,1,53.89,42.28Z"/><path class="cls-8" d="M41.35,41.92a9.14,9.14,0,0,0-1.9,4.6,12.41,12.41,0,0,0,.8,6,14.17,14.17,0,0,0,7.37,7.79A62.84,62.84,0,0,1,43,51.5,22.63,22.63,0,0,1,41.35,41.92Z"/><path class="cls-8" d="M29.18,44.5a8.07,8.07,0,0,0-.59,5,8.93,8.93,0,0,0,3.49,5.3,10.62,10.62,0,0,0,5.91,2,9.54,9.54,0,0,0,4.84-1.18,19.48,19.48,0,0,1-9-3.13,11,11,0,0,1-3.18-3.64A15.61,15.61,0,0,1,29.18,44.5Z"/><path class="cls-8" d="M15.54,53.72A20.75,20.75,0,0,1,21.61,56c2.05,1.15,4.05,2.79,6.48,4.42a16.2,16.2,0,0,0,8,3,13.23,13.23,0,0,0,6.78-1.59,23.08,23.08,0,0,1-6.46-.53A22.49,22.49,0,0,1,29.7,58,30.55,30.55,0,0,0,22.47,54,12.51,12.51,0,0,0,15.54,53.72Z"/><path class="cls-9" d="M56.1,59.25a2.46,2.46,0,0,0,2-.5,5.23,5.23,0,0,0,1.46-2A19.28,19.28,0,0,0,60.82,52c.48-3.23.85-5.7,2.66-7.51a4.66,4.66,0,0,0-1.95.6,5.76,5.76,0,0,0-1.77,1.62,11,11,0,0,0-1.82,4.83c-.28,1.72-.29,3.3-.39,4.63S57.25,58.59,56.1,59.25Z"/><path class="cls-9" d="M61.27,61.46a9.53,9.53,0,0,0,6.79-2,22.89,22.89,0,0,0,5.69-6.31,50.24,50.24,0,0,1,4.83-6.21,44.18,44.18,0,0,1,5.18-4.27,17.64,17.64,0,0,0-6.55,2.62c-.28.19-.57.38-.84.59l-.79.69a17.91,17.91,0,0,0-1.52,1.5,38.8,38.8,0,0,0-2.71,3.42c-.85,1.25-1.53,2.37-2.32,3.44a30.92,30.92,0,0,1-2.36,2.92A12.71,12.71,0,0,1,61.27,61.46Z"/><path class="cls-10" d="M64.65,61A26.28,26.28,0,0,0,72,62.49a13.71,13.71,0,0,0,9-2.82,81.53,81.53,0,0,0,6.57-6,20,20,0,0,1,3-2.26,13,13,0,0,1,3.11-1.35,9.25,9.25,0,0,0-3.58.22A14.17,14.17,0,0,0,86.32,52c-2.45,1.51-4.65,3.6-7,5.33C74.81,61,69,60.54,64.65,61Z"/><path class="cls-11" d="M79.34,64.41a55.59,55.59,0,0,1,8.1-3.26,16,16,0,0,1,8.49-.43,8,8,0,0,0-3.88-1.44,12.83,12.83,0,0,0-5,.46A17.47,17.47,0,0,0,79.34,64.41Z"/><path class="cls-10" d="M88.93,64.78a3.92,3.92,0,0,0-1.46.19,4.38,4.38,0,0,0,1.46.18A4.44,4.44,0,0,0,90.39,65,4,4,0,0,0,88.93,64.78Z"/><path class="cls-12" d="M11.6,63s0,1.45,2.17,2.6l2.16,1.16s-1.73,2.74-.29,5.19S18,74.79,22,76.67l1.16.14a10,10,0,0,0,6.49,4.48c4.47.86,5,.28,5,.28a19.22,19.22,0,0,0,6.78,2.75c3.89.72,3.89,0,3.89,0s.58,1.15,4.76,1.44,6.35.29,8.66-.58a12.36,12.36,0,0,0,7.36.58,24.26,24.26,0,0,0,7.93-3.18A7.72,7.72,0,0,0,77,84c1.73.43,4.61-.15,5.91-.44,0,0,4.91.44,7.21-.14s10.25-2.31,6.35-9.23l-1-1.73s6.64.43,9.67-1.45,5.19-7.79-.72-11-72-2.31-72-2.31S11.75,62.39,11.6,63Z"/><path class="cls-11" d="M75.65,66.63c2.93.56,8,6.69,7.32,10.63-3.89-.38-4.17-7.24-6.21-9.9Z"/><path class="cls-13" d="M71.48,48.24c-6.41-.64-6.17,2.16-8.07,4C60.83,54.64,58.54,52,58,55.68c-.63,4.21,2.73,7.85,9.65,10.71,4.68,1.94,8.85-.2,11.78-.3,1.95-2.06,5.72-4.21,3.72-8.84C80.79,51.78,77.4,48.85,71.48,48.24Z"/><path class="cls-14" d="M71.63,48.46c-5.4-.14-5.38,1.95-7.1,3.4-2.35,2-5,.69-5.67,3.47-.79,3.2,3.49,7.32,9.18,9.1,4.83,1.5,8.83-.44,11.87-.73,1.78-1.66,4.33-4,2.92-7.35C81.17,52.38,76.61,48.58,71.63,48.46Z"/><path class="cls-15" d="M77.12,62.54a12.54,12.54,0,0,1-5.48.82c-4.55-.32-9.49-3.55-10.33-6.25s4.4-4.1,5.27-1.18c.43,1.47-.86,1,.66,2.55S71,60.58,74.66,60,78.05,62,77.12,62.54Z"/><path class="cls-16" d="M63.52,56.07c.71,0,1.37.36,1.48.68s-.39.53-1.09.47-1.37-.35-1.47-.67S62.82,56,63.52,56.07Z"/><path class="cls-16" d="M64.69,57.8a1.75,1.75,0,0,1,1.55.38c.25.31-.06.65-.68.75A1.78,1.78,0,0,1,64,58.56C63.77,58.24,64.07,57.91,64.69,57.8Z"/><path class="cls-16" d="M67.23,59.83a1.33,1.33,0,0,1,1.42-.08.58.58,0,0,1,0,1,1.29,1.29,0,0,1-1.42.07C66.8,60.58,66.82,60.13,67.23,59.83Z"/><path class="cls-16" d="M69.5,60.9a.91.91,0,0,1,1.17-.4.79.79,0,0,1,.44,1.08.93.93,0,0,1-1.17.4A.79.79,0,0,1,69.5,60.9Z"/><path class="cls-16" d="M71.57,61.58a.61.61,0,0,1,.79-.59,1,1,0,0,1,.75,1,.61.61,0,0,1-.79.59A1,1,0,0,1,71.57,61.58Z"/><path class="cls-16" d="M74.29,61.54c-.23-.46-.11-.84.28-.85a1.47,1.47,0,0,1,1.11.84c.23.46.11.84-.28.84A1.43,1.43,0,0,1,74.29,61.54Z"/><path class="cls-16" d="M65.61,59.25a1.47,1.47,0,0,1,1.28.08c.21.21,0,.51-.49.69A1.44,1.44,0,0,1,65.12,60C64.9,59.73,65.12,59.42,65.61,59.25Z"/><path class="cls-17" d="M81.19,59.6a9.48,9.48,0,0,0,.12-3.54c-.42-3-4.82-6-8.51-6.36S67.16,53,71.16,53.31c2,.17,1.32-.66,3.5.22s2.28,2.13,2,4.82C76.6,59.68,78.13,61,81.19,59.6Z"/><path class="cls-16" d="M71.37,51.26a1.11,1.11,0,0,0,.92.92.6.6,0,0,0,.65-.76,1.12,1.12,0,0,0-.91-.93A.61.61,0,0,0,71.37,51.26Z"/><path class="cls-16" d="M73.73,51.89a.77.77,0,0,0,.51,1,.84.84,0,0,0,1-.51.78.78,0,0,0-.51-1A.83.83,0,0,0,73.73,51.89Z"/><path class="cls-16" d="M76.5,53.41c-.41.3-.47.72-.11,1a1.32,1.32,0,0,0,1.38-.11c.41-.29.46-.72.11-.95A1.31,1.31,0,0,0,76.5,53.41Z"/><path class="cls-16" d="M78,54.84c-.56.17-.81.53-.56.81a1.6,1.6,0,0,0,1.48.2c.56-.17.8-.53.55-.81A1.62,1.62,0,0,0,78,54.84Z"/><path class="cls-16" d="M78.88,56.16c-.59,0-.95.29-.81.57a1.5,1.5,0,0,0,1.31.42c.59,0,.94-.3.81-.57A1.51,1.51,0,0,0,78.88,56.16Z"/><path class="cls-16" d="M78.81,58c-.63-.12-1.15,0-1.16.26s.5.55,1.14.67,1.15,0,1.16-.25S79.45,58.09,78.81,58Z"/><path class="cls-16" d="M75.72,52.38c-.24.34-.2.72.09.85a.85.85,0,0,0,1-.38c.24-.35.19-.72-.09-.85A.86.86,0,0,0,75.72,52.38Z"/><path class="cls-11" d="M80.81,65.52c5.23-.6,12.74,5.89,11.74,11.37-2.9,1.31-7.69-11.81-14-11.37Z"/><path class="cls-13" d="M58.45,49.46c-6-3.46-8.75-.69-12.65.18-5.32,1.18-6.59-2.12-11.09,1.13-5.17,3.73-5.79,11.77-1.65,17.57,3.5,4.91,10.65,4.79,14.51,6.24,4.24-1.09,10.24-2.6,13.12-7.9C64.1,60.43,64,52.65,58.45,49.46Z"/><path class="cls-18" d="M57.45,50.09c-5.54-3.06-8.1-.59-11.72.19-4.93,1.06-6.11-1.87-10.28,1-4.79,3.33-5.39,10.49-1.57,15.63,3.23,4.36,9.86,4.24,13.43,5.52,3.93-1,9.49-2.34,12.18-7C62.66,59.83,62.55,52.92,57.45,50.09Z"/><path class="cls-19" d="M45.8,69.62a14.47,14.47,0,0,1-6.8-2c-4.41-2.82-5.63-9.28-3.18-12.9s9.74-2.45,7,1.45c-1.36,2-2.1.66-2.47,3.35s1.33,4.47,6,5.79S47.4,69.52,45.8,69.62Z"/><path class="cls-16" d="M39.45,54.69c.68.44,1,1.15.72,1.58s-1.06.43-1.74,0-1-1.15-.72-1.58S38.77,54.25,39.45,54.69Z"/><path class="cls-16" d="M38.54,57.35c.79.2,1.31.78,1.18,1.27s-.87.74-1.66.53-1.3-.78-1.17-1.28S37.76,57.14,38.54,57.35Z"/><path class="cls-16" d="M38.71,61.1c.8-.13,1.51.17,1.6.68s-.49,1-1.29,1.16-1.52-.17-1.6-.68S37.91,61.23,38.71,61.1Z"/><path class="cls-16" d="M39.79,63.58c.72-.37,1.5-.29,1.73.17s-.16,1.12-.88,1.49-1.49.3-1.73-.16S39.07,64,39.79,63.58Z"/><path class="cls-16" d="M41.13,65.49c.53-.49,1.23-.61,1.55-.26s.15,1-.39,1.53-1.23.61-1.56.26S40.59,66,41.13,65.49Z"/><path class="cls-16" d="M44.05,66.91c.33-.67.93-1,1.34-.85s.47.91.14,1.58-.93,1-1.34.85S43.72,67.58,44.05,66.91Z"/><path class="cls-16" d="M37.71,59.55c.73.07,1.3.41,1.26.78s-.64.61-1.37.55-1.29-.41-1.26-.78S37,59.49,37.71,59.55Z"/><path class="cls-20" d="M53.74,68.34a25.75,25.75,0,0,0,4.51-4.1c3.28-3.75,2.37-9.68-1.1-12s-10,.81-6.21,3.35c1.92,1.28,2.21,0,3.42,2.15s-.23,3.73-3.8,6.77C48.79,66,48.76,68.36,53.74,68.34Z"/><path class="cls-16" d="M53.7,53.25c-.5.58-.58,1.29-.18,1.58s1.14,0,1.64-.54.59-1.29.18-1.58S54.2,52.66,53.7,53.25Z"/><path class="cls-16" d="M55.41,55.26c-.68.42-1,1.07-.71,1.46s1.06.36,1.73,0,1-1.06.72-1.45S56.08,54.85,55.41,55.26Z"/><path class="cls-16" d="M56.45,58.54c-.8.13-1.39.6-1.3,1.06s.79.74,1.59.62,1.38-.6,1.3-1.06S57.25,58.42,56.45,58.54Z"/><path class="cls-16" d="M56.21,61c-.8-.1-1.51.19-1.58.66s.51.93,1.31,1,1.51-.2,1.59-.66S57,61.1,56.21,61Z"/><path class="cls-16" d="M55.56,63.05c-.67-.26-1.37-.16-1.56.24s.19.93.86,1.2,1.37.16,1.56-.24S56.23,63.32,55.56,63.05Z"/><path class="cls-16" d="M53.24,65.15c-.53-.48-1.21-.63-1.53-.33s-.17.92.36,1.4,1.22.62,1.54.33S53.77,65.63,53.24,65.15Z"/><path class="cls-16" d="M56.9,56.91c-.67.27-1.1.74-.95,1s.8.34,1.48.07,1.09-.74.94-1.05S57.57,56.64,56.9,56.91Z"/><path class="cls-21" d="M42.24,50.33s4.58,5.07,4.44,7.21c0,0-1.14-5.54,1.9-8.39C48.58,49.15,45.26,51.75,42.24,50.33Z"/><path class="cls-22" d="M45,56.31a4.3,4.3,0,0,0-2.5,1.17,3.81,3.81,0,0,0-1,1.56,3.48,3.48,0,0,0,.09,2.09A4.88,4.88,0,0,0,44,63.71a6.89,6.89,0,0,0,2.57.78c-.45-.67-1.06-1.29-1.6-2a7.26,7.26,0,0,1-1.35-2.07C43,59.23,44.1,57.59,45,56.31Z"/><path class="cls-22" d="M50,55.74a12.46,12.46,0,0,1,1.34,3.78,4.57,4.57,0,0,1-.3,1.8l-.41.94a10.33,10.33,0,0,0-.45,1,6,6,0,0,0,1.05-.3,5.25,5.25,0,0,0,1.06-.68,3.59,3.59,0,0,0,1.15-2.85,3.88,3.88,0,0,0-1.36-2.66A4,4,0,0,0,50,55.74Z"/><path class="cls-13" d="M90.53,41.83c-7.25-.73-7,2.44-9.13,4.47-2.93,2.76-5.51-.2-6.12,3.94-.71,4.76,3.08,8.88,10.91,12.12,5.29,2.19,10-.23,13.33-.34,2.2-2.34,6.47-4.77,4.21-10C101.05,45.83,97.22,42.51,90.53,41.83Z"/><path class="cls-23" d="M90.69,42.07c-6.11-.16-6.08,2.21-8,3.85C80,48.16,77,46.7,76.25,49.84c-.9,3.62,3.94,8.29,10.38,10.3,5.46,1.69,10-.5,13.43-.83,2-1.88,4.89-4.49,3.31-8.31C101.49,46.51,96.33,42.21,90.69,42.07Z"/><path class="cls-24" d="M96.91,58a14.17,14.17,0,0,1-6.2.91c-5.15-.35-10.74-4-11.69-7.06s5-4.64,6-1.33c.49,1.66-1,1.08.74,2.88s4.21,2.37,8.41,1.72S98,57.44,96.91,58Z"/><path class="cls-16" d="M81.52,50.68c.8.07,1.55.41,1.67.77s-.43.6-1.23.54-1.55-.4-1.66-.76S80.72,50.62,81.52,50.68Z"/><path class="cls-16" d="M82.84,52.64a2,2,0,0,1,1.76.42c.27.36-.07.74-.77.86a2,2,0,0,1-1.76-.42C81.8,53.14,82.14,52.76,82.84,52.64Z"/><path class="cls-16" d="M85.72,54.93a1.5,1.5,0,0,1,1.61-.08.65.65,0,0,1,0,1.14,1.5,1.5,0,0,1-1.61.08C85.23,55.79,85.25,55.28,85.72,54.93Z"/><path class="cls-16" d="M88.29,56.14a1,1,0,0,1,1.32-.45.88.88,0,0,1,.49,1.22,1,1,0,0,1-1.32.45A.89.89,0,0,1,88.29,56.14Z"/><path class="cls-16" d="M90.63,56.91a.68.68,0,0,1,.88-.66,1.16,1.16,0,0,1,.86,1.09.68.68,0,0,1-.89.66A1.15,1.15,0,0,1,90.63,56.91Z"/><path class="cls-16" d="M93.7,56.87c-.26-.53-.12-.95.32-1a1.65,1.65,0,0,1,1.25,1c.26.52.13,1-.31,1A1.65,1.65,0,0,1,93.7,56.87Z"/><path class="cls-16" d="M83.88,54.28a1.66,1.66,0,0,1,1.45.08c.25.24,0,.59-.55.79a1.62,1.62,0,0,1-1.45-.09C83.08,54.83,83.33,54.48,83.88,54.28Z"/><path class="cls-25" d="M101.51,54.68a10.92,10.92,0,0,0,.14-4c-.48-3.4-5.45-6.82-9.62-7.2s-6.39,3.7-1.86,4.08c2.27.2,1.48-.74,4,.26s2.58,2.4,2.32,5.45C96.31,54.77,98.05,56.27,101.51,54.68Z"/><path class="cls-16" d="M90.4,45.24a1.26,1.26,0,0,0,1,1,.68.68,0,0,0,.75-.86,1.28,1.28,0,0,0-1-1.05A.69.69,0,0,0,90.4,45.24Z"/><path class="cls-16" d="M93.07,46a.88.88,0,0,0,.57,1.14,1,1,0,0,0,1.18-.58.88.88,0,0,0-.57-1.14A1,1,0,0,0,93.07,46Z"/><path class="cls-16" d="M96.2,47.67c-.46.34-.52.82-.12,1.09a1.49,1.49,0,0,0,1.56-.13c.46-.33.52-.81.13-1.08A1.5,1.5,0,0,0,96.2,47.67Z"/><path class="cls-16" d="M97.85,49.29c-.63.19-.91.6-.63.92a1.8,1.8,0,0,0,1.67.22c.64-.19.92-.6.63-.92A1.8,1.8,0,0,0,97.85,49.29Z"/><path class="cls-16" d="M98.89,50.78c-.65,0-1.06.34-.91.65a1.67,1.67,0,0,0,1.48.47c.66,0,1.07-.33.91-.64S99.56,50.73,98.89,50.78Z"/><path class="cls-16" d="M98.82,52.83c-.72-.13-1.31,0-1.31.29s.56.63,1.28.76,1.31,0,1.32-.28S99.54,53,98.82,52.83Z"/><path class="cls-16" d="M95.32,46.51c-.27.38-.22.81.1,1A1,1,0,0,0,96.5,47c.27-.39.22-.82-.11-1A1,1,0,0,0,95.32,46.51Z"/><path class="cls-21" d="M80.27,47.07s6.91,1.7,8.39,3.1c0,0-4.87-3.11-4.84-5.87A3.45,3.45,0,0,1,80.27,47.07Z"/><path class="cls-22" d="M86.58,49.93a2.42,2.42,0,0,0-.45,2.49,4,4,0,0,0,2.34,2.14,7.62,7.62,0,0,0,5.21,0c-1.29-.6-3-1-4.58-1.59a5.22,5.22,0,0,1-1.86-1.14A2.91,2.91,0,0,1,86.58,49.93Z"/><path class="cls-22" d="M89.67,48c1,.67,2.28,1.28,3.44,2A5.64,5.64,0,0,1,94.52,51a4.1,4.1,0,0,1,.77,1.55,2.43,2.43,0,0,0,.38-2.08A3.59,3.59,0,0,0,94,48.44,5.34,5.34,0,0,0,89.67,48Z"/><path class="cls-13" d="M95.39,50c-7-.8-6.74,2.37-8.82,4.39-2.84,2.73-5.3-.25-5.92,3.88C79.92,63,83.54,67.2,91,70.5c5.07,2.24,9.64-.14,12.83-.23,2.14-2.31,6.26-4.71,4.13-10C105.48,54.1,101.82,50.75,95.39,50Z"/><path class="cls-26" d="M95.54,50.25C89.67,50,89.67,52.4,87.78,54c-2.57,2.22-5.41.73-6.19,3.87-.9,3.61,3.72,8.31,9.9,10.38,5.23,1.74,9.61-.4,12.92-.71,2-1.85,4.75-4.45,3.25-8.27C105.89,54.78,101,50.44,95.54,50.25Z"/><path class="cls-27" d="M101.39,66.24a13.26,13.26,0,0,1-6,.87c-5-.41-10.29-4.11-11.18-7.17s4.83-4.6,5.75-1.28c.46,1.66-1,1.07.69,2.89s4,2.4,8.07,1.79S102.4,65.68,101.39,66.24Z"/><path class="cls-16" d="M86.65,58.78c.76.07,1.48.42,1.6.78s-.42.6-1.19.53-1.48-.41-1.59-.78S85.88,58.71,86.65,58.78Z"/><path class="cls-16" d="M87.9,60.75a1.87,1.87,0,0,1,1.69.44c.26.36-.07.73-.75.85a1.9,1.9,0,0,1-1.68-.44C86.89,61.24,87.23,60.86,87.9,60.75Z"/><path class="cls-16" d="M90.65,63.07A1.39,1.39,0,0,1,92.2,63a.67.67,0,0,1-.06,1.14,1.38,1.38,0,0,1-1.55.07A.67.67,0,0,1,90.65,63.07Z"/><path class="cls-16" d="M93.11,64.3a1,1,0,0,1,1.28-.44.9.9,0,0,1,.46,1.22,1,1,0,0,1-1.28.45A.92.92,0,0,1,93.11,64.3Z"/><path class="cls-16" d="M95.35,65.09a.66.66,0,0,1,.86-.65A1.14,1.14,0,0,1,97,65.53a.66.66,0,0,1-.86.66A1.16,1.16,0,0,1,95.35,65.09Z"/><path class="cls-16" d="M98.31,65.08c-.24-.53-.11-1,.31-1a1.61,1.61,0,0,1,1.21,1c.24.52.11,1-.31,1A1.61,1.61,0,0,1,98.31,65.08Z"/><path class="cls-16" d="M88.89,62.4a1.52,1.52,0,0,1,1.39.1c.23.24,0,.58-.54.78a1.52,1.52,0,0,1-1.39-.1C88.11,62.94,88.35,62.59,88.89,62.4Z"/><path class="cls-28" d="M105.84,63a11.2,11.2,0,0,0,.17-4c-.43-3.41-5.19-6.87-9.2-7.29S90.64,55.31,95,55.73c2.19.21,1.44-.73,3.8.29s2.46,2.43,2.19,5.47C100.84,63,102.5,64.52,105.84,63Z"/><path class="cls-16" d="M95.24,53.41a1.25,1.25,0,0,0,1,1.06.69.69,0,0,0,.73-.86,1.25,1.25,0,0,0-1-1A.68.68,0,0,0,95.24,53.41Z"/><path class="cls-16" d="M97.8,54.16a.89.89,0,0,0,.54,1.14.92.92,0,0,0,1.14-.57.89.89,0,1,0-1.68-.57Z"/><path class="cls-16" d="M100.8,55.9c-.45.33-.52.82-.13,1.09a1.38,1.38,0,0,0,1.5-.12c.45-.32.51-.8.13-1.07A1.38,1.38,0,0,0,100.8,55.9Z"/><path class="cls-16" d="M102.37,57.53c-.61.19-.88.6-.61.92a1.68,1.68,0,0,0,1.6.24c.61-.19.88-.6.61-.92A1.69,1.69,0,0,0,102.37,57.53Z"/><path class="cls-16" d="M103.36,59c-.63,0-1,.33-.88.64s.78.53,1.41.49,1-.33.89-.64A1.61,1.61,0,0,0,103.36,59Z"/><path class="cls-16" d="M103.27,61.08c-.69-.13-1.26,0-1.26.28s.53.63,1.22.77,1.26,0,1.27-.27S104,61.23,103.27,61.08Z"/><path class="cls-16" d="M100,54.73c-.26.38-.22.81.09,1a.91.91,0,0,0,1-.42c.26-.39.22-.81-.1-1A.9.9,0,0,0,100,54.73Z"/><path class="cls-21" d="M85.47,55.16s6.64,1.77,8,3.17c0,0-4.65-3.15-4.61-5.91A3.37,3.37,0,0,1,85.47,55.16Z"/><path class="cls-22" d="M91.52,58.07a2.45,2.45,0,0,0-.5,2.41,3.79,3.79,0,0,0,2.2,2.2,7.3,7.3,0,0,0,5.09.08c-1.25-.6-2.89-1-4.42-1.63a4.58,4.58,0,0,1-1.75-1.19A3,3,0,0,1,91.52,58.07Z"/><path class="cls-22" d="M94.52,56.13c1,.67,2.19,1.29,3.3,2a5.18,5.18,0,0,1,1.33,1.13,4.48,4.48,0,0,1,.73,1.54,2.47,2.47,0,0,0,.41-2,3.51,3.51,0,0,0-1.54-2.08A5.08,5.08,0,0,0,94.52,56.13Z"/><path class="cls-13" d="M84.84,59.65c-7.75-1.53-7.79,1.92-10.31,3.89-3.45,2.68-5.93-.78-7,3.63-1.25,5.06,2.42,9.91,10.54,14.2,5.49,2.91,10.85.79,14.43,1C95.1,80.07,100,77.89,98.05,72,95.8,65.05,92,61.07,84.84,59.65Z"/><path class="cls-29" d="M85,59.93c-6.58-.8-6.8,1.76-9.07,3.33-3.1,2.15-6.16.27-7.32,3.58C67.26,70.65,72,76.19,78.76,79c5.72,2.39,10.83.49,14.58.48,2.37-1.82,5.75-4.35,4.42-8.63C96.2,65.83,91.07,60.66,85,59.93Z"/><path class="cls-30" d="M90.07,77.77a15.51,15.51,0,0,1-6.79.36c-5.52-.92-11.19-5.44-11.89-8.83s5.85-4.5,6.58-.83c.35,1.84-1.17,1.07.5,3.19s4.3,3,8.89,2.72S91.26,77.27,90.07,77.77Z"/><path class="cls-16" d="M74.21,68.29c.86.14,1.63.59,1.72,1s-.53.61-1.38.46-1.63-.59-1.72-1S73.36,68.14,74.21,68.29Z"/><path class="cls-16" d="M75.43,70.53a2.2,2.2,0,0,1,1.86.64c.26.42-.15.79-.92.85a2.18,2.18,0,0,1-1.85-.64C74.26,71,74.67,70.59,75.43,70.53Z"/><path class="cls-16" d="M78.3,73.31a1.62,1.62,0,0,1,1.75.07c.44.35.37.9-.16,1.23a1.64,1.64,0,0,1-1.76-.08A.71.71,0,0,1,78.3,73.31Z"/><path class="cls-16" d="M81,74.88a1.13,1.13,0,0,1,1.47-.36,1,1,0,0,1,.4,1.37,1.11,1.11,0,0,1-1.47.36A1,1,0,0,1,81,74.88Z"/><path class="cls-16" d="M83.4,76a.74.74,0,0,1,1-.63,1.26,1.26,0,0,1,.81,1.26.75.75,0,0,1-1,.63A1.25,1.25,0,0,1,83.4,76Z"/><path class="cls-16" d="M86.73,76.21c-.23-.59,0-1,.43-1a1.84,1.84,0,0,1,1.27,1.15c.22.59,0,1-.44,1A1.78,1.78,0,0,1,86.73,76.21Z"/><path class="cls-16" d="M76.39,72.41a1.79,1.79,0,0,1,1.55.24c.24.29,0,.64-.67.79a1.75,1.75,0,0,1-1.56-.24C75.47,72.92,75.77,72.56,76.39,72.41Z"/><path class="cls-31" d="M95.38,74.65a11.69,11.69,0,0,0,.56-4.31c-.16-3.72-5.18-7.92-9.65-8.76S79,64.92,83.87,65.79c2.43.45,1.68-.64,4.24.69s2.54,2.86,2,6.12C89.76,74.21,91.49,76,95.38,74.65Z"/><path class="cls-16" d="M84.36,63.32a1.36,1.36,0,0,0,1,1.23.74.74,0,0,0,.89-.85,1.37,1.37,0,0,0-1-1.24A.75.75,0,0,0,84.36,63.32Z"/><path class="cls-16" d="M87.16,64.37a1,1,0,0,0,.51,1.28A1,1,0,0,0,89,65.14a1,1,0,0,0-.5-1.28A1,1,0,0,0,87.16,64.37Z"/><path class="cls-16" d="M90.37,66.54c-.53.32-.65.83-.25,1.16a1.62,1.62,0,0,0,1.7,0c.54-.32.65-.83.25-1.16A1.62,1.62,0,0,0,90.37,66.54Z"/><path class="cls-16" d="M92,68.46c-.7.14-1,.55-.76.92A1.91,1.91,0,0,0,93,69.8c.7-.15,1.05-.56.77-.93A2,2,0,0,0,92,68.46Z"/><path class="cls-16" d="M93,70.18c-.72,0-1.19.25-1,.6s.83.65,1.54.67,1.19-.26,1.06-.61S93.68,70.19,93,70.18Z"/><path class="cls-16" d="M92.67,72.38c-.76-.21-1.41-.13-1.45.18s.55.73,1.31,1,1.41.13,1.45-.17S93.43,72.6,92.67,72.38Z"/><path class="cls-16" d="M89.54,65.2c-.33.38-.33.85,0,1a1,1,0,0,0,1.21-.36c.32-.39.32-.85,0-1A1,1,0,0,0,89.54,65.2Z"/><path class="cls-21" d="M73.23,64.25s7.28,2.56,8.74,4.21c0,0-4.93-3.86-4.63-6.83A3.72,3.72,0,0,1,73.23,64.25Z"/><path class="cls-22" d="M79.75,68A2.6,2.6,0,0,0,79,70.63a4.36,4.36,0,0,0,2.3,2.56,8.41,8.41,0,0,0,5.63.53c-1.33-.78-3.11-1.4-4.78-2.2a5.64,5.64,0,0,1-1.89-1.42A3.16,3.16,0,0,1,79.75,68Z"/><path class="cls-22" d="M83.29,66.19c1,.82,2.33,1.61,3.52,2.46A6.44,6.44,0,0,1,88.21,70a4.34,4.34,0,0,1,.67,1.76,2.64,2.64,0,0,0,.63-2.21,3.86,3.86,0,0,0-1.59-2.39A5.69,5.69,0,0,0,83.29,66.19Z"/><path class="cls-32" d="M21.11,61.29c-.34,2.27-3,3.75-6,3.3S10,62,10.38,59.68s3-3.75,6-3.3S21.45,59,21.11,61.29Z"/><path class="cls-33" d="M14.15,59.38a1.58,1.58,0,0,1-.39,2.19A1.62,1.62,0,0,1,12,58.88,1.58,1.58,0,0,1,14.15,59.38Z"/><path class="cls-34" d="M31.54,57.52c-1.55,1.69-4.6,1.41-6.8-.61s-2.74-5-1.19-6.73,4.6-1.42,6.81.61S33.1,55.83,31.54,57.52Z"/><path class="cls-33" d="M26.84,52a1.53,1.53,0,1,1-1.51-1.63A1.56,1.56,0,0,1,26.84,52Z"/><path class="cls-35" d="M59.1,64c-.79-2.15.85-4.74,3.66-5.78s5.73-.12,6.52,2-.84,4.73-3.65,5.77S59.89,66.19,59.1,64Z"/><path class="cls-33" d="M66.12,62.36a1.53,1.53,0,1,1,2.14-.6A1.59,1.59,0,0,1,66.12,62.36Z"/><path class="cls-36" d="M73.78,77.26c.77-2.16,3.68-3.1,6.5-2.1s4.49,3.57,3.72,5.73S80.32,84,77.5,83,73,79.42,73.78,77.26Z"/><path class="cls-33" d="M80.25,80.46a1.53,1.53,0,1,1,2,.91A1.58,1.58,0,0,1,80.25,80.46Z"/><path class="cls-37" d="M35,60.64c-.24-1.63-1.83-3-3.41-3.72-3.75-1.7-3.15-1-5.55-.85a19.11,19.11,0,0,1-3-.23c-2.13-.19-2.71.24-4.48,1.67-2,1.61-2.61,2.76-2.61,5.09a32.81,32.81,0,0,1-.6,5.29c-.35,1.21.94,3.41,1.6,4.5,1.81,2.94,4.68,2.94,7.23,2.94,1.31,0,2.23.33,3.41-.2,2.21-1,2.62.59,5.63-2.55,1.15-1.2,2.13-2.54,1.8-4.5a5.93,5.93,0,0,1-.2-2.15c.09-.64.71-1.31.81-2C35.83,62.8,35.24,61.91,35,60.64Z"/><path class="cls-38" d="M34,60.47a5,5,0,0,0-3-3.36c-3.3-1.53-2.77-.85-4.88-.76a16.81,16.81,0,0,1-2.65-.21c-1.87-.17-2.38.22-3.94,1.5a5.06,5.06,0,0,0-2.29,4.59A29.9,29.9,0,0,1,16.71,67c-.31,1.1.82,3.08,1.41,4.06,1.59,2.65,4.11,2.65,6.35,2.65,1.15,0,2,.29,3-.18,1.94-.88,2.29.53,4.94-2.29A4.6,4.6,0,0,0,34,67.17a5.42,5.42,0,0,1-.18-1.94c.08-.57.62-1.18.71-1.76C34.69,62.41,34.17,61.61,34,60.47Z"/><path class="cls-39" d="M28.61,58.57c2.17-.82,3.52,1.37,4.11,3,.73,2.06,1,3.63-1.76,3.45-1.11-.07-4.35-.24-4.83-1.48S27.54,59,28.61,58.57Z"/><path class="cls-39" d="M31.69,67.61c.78,2-1.43,3.18-3.07,3.67-2.07.63-3.65.84-3.42-1.67.1-1,.34-4,1.59-4.37S31.31,66.62,31.69,67.61Z"/><path class="cls-39" d="M23,71.21c-1.9,1-3.32-1.08-4-2.65-.85-2-1.23-3.54,1.29-3.58,1,0,4-.1,4.52,1.09S23.94,70.72,23,71.21Z"/><path class="cls-39" d="M19.44,63.22c-1.28-1.94.55-3.74,2-4.67,1.84-1.17,3.31-1.79,3.75,1,.18,1.1.72,4.3-.37,5S20.08,64.17,19.44,63.22Z"/><path class="cls-40" d="M23.41,61.79c0,.34-.67.62-1.5.62s-1.5-.28-1.5-.62.68-.62,1.5-.62S23.41,61.45,23.41,61.79Z"/><path class="cls-40" d="M24.82,63.38c-.34,0-.61-.68-.61-1.5s.27-1.5.62-1.5.61.67.61,1.5S25.17,63.38,24.82,63.38Z"/><path class="cls-40" d="M22.39,60.79c-.26.12-.66-.19-.88-.69s-.18-1,.08-1.11.66.2.88.69S22.66,60.68,22.39,60.79Z"/><path class="cls-40" d="M23.36,61.08c-.27-.1-.32-.6-.12-1.1s.59-.83.85-.72.33.6.12,1.11S23.63,61.19,23.36,61.08Z"/><path class="cls-40" d="M29.11,62.44c-.28.19-.88-.22-1.33-.92s-.59-1.4-.3-1.59.89.23,1.34.92S29.4,62.26,29.11,62.44Z"/><path class="cls-40" d="M28.55,64.49c-.18-.28.23-.88.92-1.33s1.41-.59,1.6-.3-.23.88-.92,1.33S28.74,64.78,28.55,64.49Z"/><path class="cls-40" d="M29.39,61.05c-.24-.16-.2-.66.1-1.12s.73-.69,1-.54.2.66-.1,1.12S29.64,61.2,29.39,61.05Z"/><path class="cls-40" d="M29.68,62c-.06-.29.33-.6.86-.71s1,0,1.07.33-.33.6-.87.7S29.73,62.3,29.68,62Z"/><path class="cls-40" d="M27.64,68.15c-.16-.3.32-.85,1.06-1.22s1.46-.43,1.61-.13S30,67.66,29.25,68,27.79,68.46,27.64,68.15Z"/><path class="cls-40" d="M25.66,67.37c.31-.15.86.32,1.23,1.06s.43,1.46.12,1.62-.85-.32-1.22-1.06S25.36,67.53,25.66,67.37Z"/><path class="cls-40" d="M29,68.58c.18-.22.67-.12,1.09.22s.62.81.43,1-.67.12-1.09-.22S28.81,68.81,29,68.58Z"/><path class="cls-40" d="M28,68.76c.29,0,.56.39.6.93s-.14,1-.43,1-.56-.4-.61-.94S27.71,68.78,28,68.76Z"/><path class="cls-40" d="M22.08,67.67c.26-.21.9.14,1.41.79s.72,1.35.45,1.56-.9-.14-1.41-.79S21.81,67.88,22.08,67.67Z"/><path class="cls-40" d="M22.44,65.58c.21.27-.14.9-.79,1.42s-1.34.71-1.56.44.14-.9.79-1.41S22.23,65.31,22.44,65.58Z"/><path class="cls-40" d="M21.93,69.09c.26.13.26.63,0,1.11s-.66.77-.92.63-.26-.63,0-1.11S21.68,69,21.93,69.09Z"/><path class="cls-40" d="M21.56,68.15c.08.28-.28.63-.8.78s-1,.06-1.09-.22.27-.63.79-.78S21.47,67.87,21.56,68.15Z"/><path class="cls-40" d="M21,63.72c-.08-.28.41-.68,1.09-.89s1.3-.16,1.39.11-.4.68-1.08.89S21.1,64,21,63.72Z"/><path class="cls-37" d="M43.46,69c.38-1.63-.59-3.5-1.78-4.75-2.85-3-2.57-2.06-4.84-2.84a19.06,19.06,0,0,1-2.72-1.34c-1.9-1-2.6-.77-4.78-.08-2.45.77-3.45,1.63-4.32,3.81a31.81,31.81,0,0,1-2.52,4.74c-.78,1-.41,3.55-.19,4.82.59,3.42,3.25,4.48,5.62,5.41,1.21.49,1.95,1.14,3.24,1.08,2.41-.1,2.2,1.51,6.16-.32,1.53-.7,2.94-1.6,3.36-3.55a5.77,5.77,0,0,1,.62-2.1c.32-.56,1.14-1,1.47-1.54C43.38,71.31,43.17,70.26,43.46,69Z"/><path class="cls-41" d="M42.21,68.15a5,5,0,0,0-1.55-4.23c-2.51-2.64-2.26-1.82-4.27-2.51A17.1,17.1,0,0,1,34,60.23c-1.67-.85-2.29-.68-4.22,0A5.06,5.06,0,0,0,26,63.6a30.74,30.74,0,0,1-2.25,4.24c-.69.91-.38,3.17-.19,4.3.5,3,2.85,4,4.94,4.81,1.07.42,1.71,1,2.85.94,2.14-.1,1.94,1.35,5.45-.3a4.62,4.62,0,0,0,3-3.19,5.41,5.41,0,0,1,.55-1.88c.29-.5,1-.87,1.31-1.38C42.13,70.22,41.94,69.28,42.21,68.15Z"/><path class="cls-39" d="M37.89,64.4c2.32,0,2.78,2.57,2.72,4.29-.07,2.18-.4,3.75-2.91,2.57-1-.48-4-1.85-4-3.17S36.74,64.38,37.89,64.4Z"/><path class="cls-39" d="M37.42,74c0,2.14-2.51,2.43-4.21,2.29-2.16-.19-3.72-.57-2.57-2.83.46-.91,1.78-3.57,3.09-3.48S37.43,72.89,37.42,74Z"/><path class="cls-39" d="M28,74.09c-2.14.22-2.7-2.24-2.74-3.94-.05-2.17.16-3.76,2.53-2.86.95.36,3.74,1.38,3.8,2.69S29.05,74,28,74.09Z"/><path class="cls-39" d="M27.64,65.33c-.48-2.27,1.89-3.28,3.58-3.6,2.14-.41,3.74-.45,3.14,2.27-.24,1.09-.92,4.27-2.21,4.55S27.87,66.46,27.64,65.33Z"/><path class="cls-40" d="M31.86,65.47c-.12.32-.85.33-1.62,0s-1.3-.81-1.17-1.13.85-.33,1.62,0S32,65.15,31.86,65.47Z"/><path class="cls-40" d="M32.59,67.47c-.32-.12-.33-.85,0-1.62s.81-1.3,1.13-1.17.33.85,0,1.62S32.91,67.6,32.59,67.47Z"/><path class="cls-40" d="M31.28,64.17c-.29,0-.54-.42-.56-1s.19-1,.48-1,.55.42.57,1S31.57,64.15,31.28,64.17Z"/><path class="cls-40" d="M32.08,64.8c-.21-.2-.08-.69.3-1.08s.84-.55,1-.35.08.68-.29,1.08S32.29,65,32.08,64.8Z"/><path class="cls-40" d="M36.93,68.19c-.34.07-.74-.54-.9-1.35s0-1.53.31-1.6.74.54.9,1.35S37.26,68.12,36.93,68.19Z"/><path class="cls-40" d="M35.65,69.89c-.07-.34.54-.74,1.35-.9s1.53,0,1.6.31-.54.74-1.36.9S35.71,70.23,35.65,69.89Z"/><path class="cls-40" d="M37.71,67c-.17-.24,0-.68.5-1s.94-.38,1.11-.14-.06.68-.51,1S37.87,67.22,37.71,67Z"/><path class="cls-40" d="M37.61,68c0-.29.53-.44,1.07-.33s.92.4.87.69-.53.44-1.06.34S37.56,68.29,37.61,68Z"/><path class="cls-40" d="M33.44,73c0-.34.62-.68,1.44-.75s1.52.14,1.55.48-.61.68-1.43.75S33.47,73.3,33.44,73Z"/><path class="cls-40" d="M31.89,71.5c.34,0,.68.62.75,1.44s-.14,1.52-.48,1.55-.67-.61-.75-1.44S31.55,71.53,31.89,71.5Z"/><path class="cls-40" d="M34.55,73.86c.25-.14.68.13.94.61s.27,1,0,1.11-.68-.13-.94-.6S34.3,74,34.55,73.86Z"/><path class="cls-40" d="M33.56,73.66c.28.08.37.57.21,1.09s-.5.88-.78.79-.38-.57-.22-1.09S33.28,73.57,33.56,73.66Z"/><path class="cls-40" d="M28.44,70.46c.33-.11.79.46,1,1.25s.17,1.52-.16,1.62-.78-.46-1-1.26S28.12,70.55,28.44,70.46Z"/><path class="cls-40" d="M29.56,68.64c.09.33-.47.79-1.26,1s-1.52.17-1.62-.16.46-.79,1.26-1S29.46,68.32,29.56,68.64Z"/><path class="cls-40" d="M27.79,71.72c.19.22,0,.69-.41,1s-.9.47-1.09.25,0-.69.41-1S27.6,71.5,27.79,71.72Z"/><path class="cls-40" d="M27.78,70.71c0,.29-.48.48-1,.43s-1-.32-.93-.6.49-.49,1-.44S27.81,70.42,27.78,70.71Z"/><path class="cls-40" d="M28.92,66.38c0-.29.62-.48,1.33-.42s1.28.33,1.26.62-.62.48-1.34.42S28.9,66.67,28.92,66.38Z"/><path class="cls-37" d="M53.56,69.66c0-1.69-1.3-3.36-2.76-4.37-3.47-2.39-3-1.53-5.44-1.86a19.87,19.87,0,0,1-3-.78c-2.1-.58-2.76-.25-4.81.86-2.31,1.26-3.13,2.32-3.56,4.66a32.37,32.37,0,0,1-1.57,5.22c-.57,1.17.33,3.62.8,4.84C34.5,81.51,37.4,82,40,82.5c1.32.23,2.19.74,3.47.42,2.41-.59,2.53,1.07,6.13-1.54,1.39-1,2.62-2.18,2.64-4.22A6.14,6.14,0,0,1,52.4,75c.21-.63,1-1.2,1.17-1.83C54,72,53.53,71,53.56,69.66Z"/><path class="cls-42" d="M52.28,69.17a5.15,5.15,0,0,0-2.42-3.93c-3-2.14-2.63-1.36-4.78-1.66a15.56,15.56,0,0,1-2.64-.69c-1.85-.51-2.43-.21-4.23.8-2,1.14-2.77,2.1-3.15,4.21a30.33,30.33,0,0,1-1.4,4.71c-.51,1,.27,3.25.69,4.34,1.11,3,3.66,3.42,5.92,3.82,1.16.21,1.92.66,3,.37,2.12-.54,2.22,1,5.4-1.41a4.73,4.73,0,0,0,2.34-3.8,5.66,5.66,0,0,1,.17-2c.19-.57.84-1.08,1-1.65C52.62,71.25,52.24,70.35,52.28,69.17Z"/><path class="cls-39" d="M47.19,66.28c2.33-.43,3.3,2,3.59,3.75.37,2.2.37,3.84-2.39,3.16-1.11-.28-4.34-1-4.6-2.37S46,66.5,47.19,66.28Z"/><path class="cls-39" d="M48.65,76c.43,2.15-2,2.94-3.76,3.14-2.2.26-3.84.19-3.14-2.31.28-1,1.06-3.93,2.39-4.12S48.45,74.88,48.65,76Z"/><path class="cls-39" d="M39.23,78c-2.09.65-3.15-1.7-3.53-3.4-.5-2.16-.6-3.79,1.95-3.38,1,.17,4,.63,4.35,1.93S40.27,77.67,39.23,78Z"/><path class="cls-39" d="M37.1,69.3C36.16,67.12,38.33,65.63,40,65c2.07-.85,3.66-1.2,3.61,1.63,0,1.14,0,4.47-1.29,5S37.57,70.38,37.1,69.3Z"/><path class="cls-40" d="M41.36,68.58c-.06.34-.79.5-1.62.35s-1.46-.55-1.4-.9.79-.5,1.63-.35S41.43,68.23,41.36,68.58Z"/><path class="cls-40" d="M42.5,70.43c-.35-.06-.5-.79-.35-1.62s.55-1.46.89-1.4.5.79.35,1.63S42.84,70.5,42.5,70.43Z"/><path class="cls-40" d="M40.51,67.39c-.28.07-.62-.31-.75-.85s0-1,.28-1.11.63.31.76.85S40.8,67.32,40.51,67.39Z"/><path class="cls-40" d="M41.44,67.86c-.25-.16-.22-.67.08-1.14s.74-.73,1-.57.22.67-.08,1.14S41.69,68,41.44,67.86Z"/><path class="cls-40" d="M47,70.27c-.32.14-.85-.38-1.17-1.17s-.34-1.52,0-1.66.85.39,1.18,1.17S47.32,70.14,47,70.27Z"/><path class="cls-40" d="M46.05,72.24c-.13-.33.39-.85,1.18-1.18s1.52-.33,1.66,0-.39.85-1.18,1.18S46.19,72.56,46.05,72.24Z"/><path class="cls-40" d="M47.53,68.92c-.22-.21-.09-.7.3-1.11s.86-.56,1.08-.36.08.69-.3,1.1S47.74,69.12,47.53,68.92Z"/><path class="cls-40" d="M47.64,70c0-.3.44-.55,1-.56s1,.23,1,.53-.44.54-1,.55S47.64,70.24,47.64,70Z"/><path class="cls-40" d="M44.47,75.76c-.1-.33.48-.8,1.29-1s1.55-.17,1.65.16-.48.81-1.29,1.05S44.57,76.1,44.47,75.76Z"/><path class="cls-40" d="M42.62,74.61c.33-.09.8.48,1,1.3s.17,1.55-.17,1.65-.8-.48-1-1.29S42.28,74.72,42.62,74.61Z"/><path class="cls-40" d="M45.76,76.44c.22-.19.7,0,1.06.42s.47.92.25,1.11-.7,0-1.07-.42S45.53,76.63,45.76,76.44Z"/><path class="cls-40" d="M44.72,76.44c.3,0,.49.5.44,1s-.33,1-.62,1-.5-.49-.45-1S44.43,76.41,44.72,76.44Z"/><path class="cls-40" d="M39,74.27c.3-.17.88.3,1.28,1s.48,1.49.17,1.65-.88-.31-1.28-1S38.64,74.43,39,74.27Z"/><path class="cls-40" d="M39.7,72.22c.16.31-.31.88-1.06,1.29s-1.48.47-1.65.17.3-.89,1-1.29S39.53,71.91,39.7,72.22Z"/><path class="cls-40" d="M38.55,75.67c.23.18.14.68-.2,1.12s-.81.65-1,.47-.15-.68.19-1.13S38.31,75.49,38.55,75.67Z"/><path class="cls-40" d="M38.34,74.65c0,.3-.39.59-.94.65s-1-.13-1.07-.42.39-.59,1-.65S38.3,74.36,38.34,74.65Z"/><path class="cls-40" d="M38.6,70.09c0-.3.52-.61,1.25-.7s1.35.08,1.38.37-.52.61-1.25.69S38.63,70.38,38.6,70.09Z"/><path class="cls-37" d="M63.66,69.15c-.26-1.74-1.93-3.19-3.59-4-4-1.81-3.32-1-5.84-.9a20,20,0,0,1-3.18-.24c-2.24-.21-2.84.25-4.71,1.77-2.11,1.71-2.75,2.94-2.75,5.42A34.81,34.81,0,0,1,43,76.86c-.37,1.29,1,3.64,1.69,4.79,1.9,3.13,4.92,3.13,7.6,3.13,1.38,0,2.35.34,3.6-.21,2.32-1,2.74.62,5.91-2.71,1.22-1.28,2.25-2.71,1.9-4.79a6.47,6.47,0,0,1-.21-2.29c.1-.68.74-1.4.85-2.08C64.49,71.45,63.87,70.5,63.66,69.15Z"/><path class="cls-43" d="M62.44,69.15c-.22-1.55-1.69-2.85-3.15-3.53-3.47-1.61-2.91-.9-5.14-.8a17.49,17.49,0,0,1-2.79-.22c-2-.18-2.5.22-4.14,1.58C45.37,67.7,44.81,68.8,44.81,71a32.31,32.31,0,0,1-.56,5c-.33,1.16.86,3.24,1.48,4.27,1.68,2.79,4.33,2.79,6.69,2.79,1.21,0,2.06.31,3.16-.19,2-.93,2.41.56,5.19-2.41,1.07-1.15,2-2.42,1.67-4.27a5.79,5.79,0,0,1-.18-2c.08-.6.65-1.24.74-1.85C63.17,71.2,62.62,70.35,62.44,69.15Z"/><path class="cls-39" d="M56.77,67.16c2.28-.87,3.71,1.43,4.32,3.14.78,2.15,1.07,3.81-1.84,3.63-1.17-.08-4.58-.27-5.08-1.56S55.64,67.59,56.77,67.16Z"/><path class="cls-39" d="M60,76.66c.82,2.1-1.51,3.35-3.23,3.87-2.18.66-3.85.89-3.6-1.76.1-1.06.36-4.17,1.67-4.6S59.61,75.63,60,76.66Z"/><path class="cls-39" d="M50.87,80.46c-2,1-3.5-1.14-4.2-2.79-.89-2.1-1.3-3.73,1.36-3.77,1.07,0,4.19-.11,4.75,1.15S51.86,79.94,50.87,80.46Z"/><path class="cls-39" d="M47.12,72.05c-1.34-2,.58-3.94,2.11-4.91,1.93-1.23,3.48-1.89,3.94,1,.19,1.16.76,4.53-.39,5.31S47.79,73.05,47.12,72.05Z"/><path class="cls-40" d="M51.3,70.54c0,.36-.7.65-1.57.65s-1.58-.29-1.58-.65.71-.65,1.58-.65S51.3,70.18,51.3,70.54Z"/><path class="cls-40" d="M52.79,72.21c-.36,0-.65-.7-.65-1.57s.29-1.58.65-1.58.65.7.65,1.58S53.15,72.21,52.79,72.21Z"/><path class="cls-40" d="M50.23,69.49c-.28.13-.69-.2-.92-.72s-.2-1,.08-1.17.69.2.92.73S50.51,69.37,50.23,69.49Z"/><path class="cls-40" d="M51.25,69.8c-.28-.11-.34-.64-.12-1.17s.61-.86.89-.75.34.64.13,1.17S51.53,69.91,51.25,69.8Z"/><path class="cls-40" d="M57.31,71.23c-.31.2-.94-.23-1.41-1s-.62-1.48-.32-1.68.94.24,1.41,1S57.61,71,57.31,71.23Z"/><path class="cls-40" d="M56.71,73.39c-.19-.3.24-.93,1-1.41s1.49-.61,1.68-.31-.24.93-1,1.4S56.91,73.69,56.71,73.39Z"/><path class="cls-40" d="M57.6,69.76c-.26-.17-.21-.69.1-1.17s.77-.73,1-.57.21.69-.11,1.17S57.85,69.93,57.6,69.76Z"/><path class="cls-40" d="M57.9,70.78c-.06-.3.35-.63.91-.74s1.06,0,1.12.34-.35.63-.91.74S58,71.08,57.9,70.78Z"/><path class="cls-40" d="M55.75,77.24c-.16-.32.34-.9,1.11-1.29s1.54-.45,1.71-.13-.34.9-1.12,1.29S55.91,77.56,55.75,77.24Z"/><path class="cls-40" d="M53.67,76.42c.32-.16.9.34,1.29,1.11s.45,1.54.13,1.71-.9-.34-1.29-1.12S53.35,76.58,53.67,76.42Z"/><path class="cls-40" d="M57.18,77.69c.19-.24.71-.13,1.15.23s.65.85.45,1.08-.7.14-1.15-.23S57,77.93,57.18,77.69Z"/><path class="cls-40" d="M56.13,77.88c.31,0,.59.41.64,1s-.16,1-.46,1.08-.59-.41-.64-1S55.83,77.9,56.13,77.88Z"/><path class="cls-40" d="M49.9,76.73c.28-.22,1,.15,1.49.83s.75,1.42.47,1.64-1-.14-1.49-.83S49.62,77,49.9,76.73Z"/><path class="cls-40" d="M50.28,74.53c.22.28-.15,1-.83,1.49s-1.42.75-1.64.48.15-1,.83-1.49S50.06,74.25,50.28,74.53Z"/><path class="cls-40" d="M49.75,78.23c.27.14.27.66,0,1.17s-.69.8-1,.66-.28-.66,0-1.17S49.48,78.09,49.75,78.23Z"/><path class="cls-40" d="M49.35,77.24c.09.29-.28.66-.83.82s-1.07.06-1.15-.23.28-.67.83-.83S49.26,76.94,49.35,77.24Z"/><path class="cls-40" d="M48.78,72.57c-.09-.29.42-.71,1.14-.93s1.38-.17,1.47.12-.42.71-1.14.93S48.87,72.86,48.78,72.57Z"/><path class="cls-37" d="M74.75,68.45c-.27-1.76-2-3.23-3.72-4-4.1-1.83-3.44-1-6.06-.92a21.55,21.55,0,0,1-3.3-.24c-2.32-.21-3,.25-4.88,1.79-2.19,1.73-2.85,3-2.85,5.47a34.8,34.8,0,0,1-.66,5.69c-.38,1.31,1,3.67,1.75,4.84,2,3.16,5.11,3.16,7.89,3.16,1.43,0,2.43.35,3.72-.21,2.41-1,2.85.63,6.14-2.74,1.26-1.29,2.33-2.74,2-4.84a6.21,6.21,0,0,1-.22-2.32c.1-.68.77-1.41.88-2.1C75.61,70.77,75,69.82,74.75,68.45Z"/><path class="cls-44" d="M72.77,68.39c-.23-1.55-1.7-2.85-3.16-3.53-3.47-1.61-2.91-.9-5.14-.8a17.5,17.5,0,0,1-2.79-.23c-2-.17-2.5.23-4.14,1.59-1.85,1.52-2.41,2.62-2.41,4.83a32.31,32.31,0,0,1-.56,5c-.32,1.15.87,3.24,1.48,4.27,1.68,2.79,4.33,2.79,6.69,2.79,1.21,0,2.06.31,3.16-.19,2-.93,2.41.56,5.2-2.41a4.85,4.85,0,0,0,1.67-4.27,5.58,5.58,0,0,1-.19-2c.08-.6.65-1.24.74-1.85C73.49,70.44,72.94,69.59,72.77,68.39Z"/><path class="cls-39" d="M67.1,66.4c2.28-.86,3.7,1.43,4.32,3.14.77,2.15,1.06,3.81-1.85,3.63-1.17-.08-4.58-.26-5.08-1.56S66,66.83,67.1,66.4Z"/><path class="cls-39" d="M70.34,75.91c.82,2.1-1.51,3.35-3.23,3.87-2.18.65-3.85.88-3.6-1.77.1-1.06.36-4.17,1.67-4.6S69.93,74.87,70.34,75.91Z"/><path class="cls-39" d="M61.19,79.7c-2,1-3.5-1.14-4.2-2.79-.89-2.1-1.3-3.73,1.36-3.77,1.07,0,4.19-.11,4.75,1.15S62.18,79.18,61.19,79.7Z"/><path class="cls-39" d="M57.44,71.29c-1.34-2,.58-3.94,2.11-4.91,1.93-1.23,3.48-1.89,4,1,.18,1.15.75,4.52-.4,5.3S58.11,72.29,57.44,71.29Z"/><path class="cls-40" d="M61.63,69.78c0,.36-.71.65-1.58.65s-1.58-.29-1.58-.65.71-.65,1.58-.65S61.63,69.42,61.63,69.78Z"/><path class="cls-40" d="M63.11,71.45c-.36,0-.65-.7-.65-1.57s.29-1.58.65-1.58.65.7.65,1.58S63.47,71.45,63.11,71.45Z"/><path class="cls-40" d="M60.55,68.74c-.28.12-.69-.21-.92-.73s-.2-1,.08-1.17.69.2.93.73S60.83,68.61,60.55,68.74Z"/><path class="cls-40" d="M61.57,69c-.28-.11-.34-.63-.12-1.16s.61-.88.89-.76.34.64.13,1.17S61.85,69.16,61.57,69Z"/><path class="cls-40" d="M67.63,70.47c-.3.2-.93-.24-1.41-1s-.61-1.48-.31-1.67.93.23,1.4,1S67.93,70.28,67.63,70.47Z"/><path class="cls-40" d="M67,72.63c-.19-.3.24-.93,1-1.41s1.49-.61,1.68-.31-.24.93-1,1.4S67.23,72.93,67,72.63Z"/><path class="cls-40" d="M67.92,69c-.26-.17-.21-.69.1-1.17s.77-.73,1-.57.21.69-.1,1.17S68.17,69.17,67.92,69Z"/><path class="cls-40" d="M68.22,70c-.06-.3.35-.63.91-.74s1.06,0,1.12.34-.35.63-.91.75S68.28,70.32,68.22,70Z"/><path class="cls-40" d="M66.07,76.48c-.16-.32.34-.9,1.12-1.29s1.53-.45,1.7-.13-.34.9-1.12,1.29S66.23,76.8,66.07,76.48Z"/><path class="cls-40" d="M64,75.66c.32-.16.9.34,1.29,1.11s.45,1.54.13,1.71-.89-.34-1.29-1.12S63.67,75.82,64,75.66Z"/><path class="cls-40" d="M67.5,76.93c.2-.24.71-.13,1.15.23s.65.85.46,1.08S68.4,78.38,68,78,67.31,77.16,67.5,76.93Z"/><path class="cls-40" d="M66.45,77.12c.31,0,.59.41.64,1s-.16,1.05-.46,1.08-.59-.42-.64-1S66.15,77.14,66.45,77.12Z"/><path class="cls-40" d="M60.22,76c.28-.22,1,.15,1.49.83s.76,1.42.47,1.64-1-.14-1.49-.83S59.94,76.2,60.22,76Z"/><path class="cls-40" d="M60.6,73.77c.23.28-.15,1-.83,1.49s-1.41.76-1.64.48.15-.95.83-1.49S60.38,73.49,60.6,73.77Z"/><path class="cls-40" d="M60.07,77.47c.27.14.27.66,0,1.17s-.7.8-1,.66-.28-.67,0-1.17S59.8,77.32,60.07,77.47Z"/><path class="cls-40" d="M59.67,76.48c.09.29-.28.66-.83.82s-1.06.06-1.15-.23.28-.66.83-.83S59.58,76.19,59.67,76.48Z"/><path class="cls-40" d="M59.1,71.81c-.09-.29.42-.71,1.14-.93s1.38-.17,1.47.12-.42.71-1.14.93S59.19,72.1,59.1,71.81Z"/></g></g></svg>