<svg xmlns="http://www.w3.org/2000/svg" xmlns:xlink="http://www.w3.org/1999/xlink" viewBox="0 0 124.61 95.25"><defs><style>.cls-1{fill:#8ec044;}.cls-2{fill:#646363;}.cls-3{fill:url(#linear-gradient);}.cls-4{fill:url(#linear-gradient-2);}.cls-5{fill:url(#linear-gradient-3);}.cls-6{fill:url(#linear-gradient-4);}.cls-7{fill:url(#linear-gradient-5);}.cls-8{fill:#2c6b2e;}.cls-9{fill:#95c11f;}.cls-10{fill:#235a26;}.cls-11{fill:#878787;}.cls-12{fill:#9a1418;}.cls-13{fill:url(#radial-gradient);}.cls-14{fill:url(#linear-gradient-6);}.cls-15{fill:#b25f23;}.cls-16{fill:#c16030;}.cls-17{fill:#421004;}.cls-18{fill:url(#linear-gradient-7);}.cls-19{fill:url(#linear-gradient-8);}.cls-20{fill:url(#linear-gradient-9);}.cls-21{fill:url(#linear-gradient-10);}.cls-22{fill:url(#linear-gradient-11);}.cls-23{fill:url(#linear-gradient-12);}.cls-24{fill:url(#linear-gradient-13);}.cls-25{fill:url(#linear-gradient-14);}.cls-26{fill:url(#linear-gradient-15);}.cls-27{fill:#e84427;}.cls-28{fill:#fff2cc;}</style><linearGradient id="linear-gradient" x1="62.21" y1="39.71" x2="62.21" y2="88.36" gradientUnits="userSpaceOnUse"><stop offset="0" stop-color="#cecece"/><stop offset="0.6" stop-color="#ececec"/><stop offset="1" stop-color="#fafafa"/></linearGradient><linearGradient id="linear-gradient-2" x1="62.3" y1="38.65" x2="62.3" y2="93.45" gradientUnits="userSpaceOnUse"><stop offset="0" stop-color="#f9f8f8"/><stop offset="0.17" stop-color="#f4f3f3"/><stop offset="0.37" stop-color="#e6e5e5"/><stop offset="0.58" stop-color="#cfcece"/><stop offset="0.79" stop-color="#afafae"/><stop offset="1" stop-color="#898988"/></linearGradient><linearGradient id="linear-gradient-3" x1="62.44" y1="49.11" x2="62.44" y2="80.91" gradientUnits="userSpaceOnUse"><stop offset="0" stop-color="#d2d2d2"/><stop offset="0.21" stop-color="#d7d7d7"/><stop offset="1" stop-color="#e5e5e5"/></linearGradient><linearGradient id="linear-gradient-4" x1="62.09" y1="50" x2="62.81" y2="83.34" gradientUnits="userSpaceOnUse"><stop offset="0.01" stop-color="#949494"/><stop offset="0.19" stop-color="#b5b5b5"/><stop offset="0.41" stop-color="#d5d5d5"/><stop offset="0.63" stop-color="#ececec"/><stop offset="0.83" stop-color="#fafafa"/><stop offset="1" stop-color="#fff"/></linearGradient><linearGradient id="linear-gradient-5" x1="18.53" y1="58.37" x2="88.98" y2="58.37" gradientUnits="userSpaceOnUse"><stop offset="0.01" stop-color="#549c2e"/><stop offset="0.61" stop-color="#2c7129"/><stop offset="1" stop-color="#165926"/></linearGradient><radialGradient id="radial-gradient" cx="54.05" cy="57.63" r="43.27" gradientUnits="userSpaceOnUse"><stop offset="0" stop-color="#893617"/><stop offset="0.36" stop-color="#863416"/><stop offset="0.68" stop-color="#7b2f14"/><stop offset="0.97" stop-color="#69260f"/><stop offset="1" stop-color="#67250f"/></radialGradient><linearGradient id="linear-gradient-6" x1="92.56" y1="73.09" x2="59.14" y2="66.03" gradientUnits="userSpaceOnUse"><stop offset="0" stop-color="#6a2812"/><stop offset="0.45" stop-color="#672510"/><stop offset="0.83" stop-color="#5d1a0b"/><stop offset="0.99" stop-color="#571307"/></linearGradient><linearGradient id="linear-gradient-7" x1="19.14" y1="71.31" x2="23.59" y2="71.31" xlink:href="#linear-gradient-5"/><linearGradient id="linear-gradient-8" x1="27.29" y1="73.22" x2="31.73" y2="73.22" xlink:href="#linear-gradient-5"/><linearGradient id="linear-gradient-9" x1="28.68" y1="76.98" x2="34.52" y2="76.98" xlink:href="#linear-gradient-5"/><linearGradient id="linear-gradient-10" x1="21.13" y1="76.11" x2="26.97" y2="76.11" xlink:href="#linear-gradient-5"/><linearGradient id="linear-gradient-11" x1="119.42" y1="284.38" x2="123.4" y2="284.38" gradientTransform="matrix(0.99, 0.15, -0.15, 0.99, -41.94, -221.93)" xlink:href="#linear-gradient-5"/><linearGradient id="linear-gradient-12" x1="34.87" y1="81.47" x2="40.71" y2="81.47" xlink:href="#linear-gradient-5"/><linearGradient id="linear-gradient-13" x1="40.62" y1="79.73" x2="45.29" y2="79.73" xlink:href="#linear-gradient-5"/><linearGradient id="linear-gradient-14" x1="453.24" y1="717.99" x2="459.08" y2="717.99" gradientTransform="matrix(0.88, 0.48, -0.48, 0.88, -4.82, -767.07)" xlink:href="#linear-gradient-5"/><linearGradient id="linear-gradient-15" x1="29.52" y1="79.6" x2="35.36" y2="79.6" xlink:href="#linear-gradient-5"/></defs><g id="Capa_2" data-name="Capa 2"><g id="Layer_1" data-name="Layer 1"><path class="cls-1" d="M114.13,56.32c0-31.1-24-56.32-53.58-56.32S7,25.22,7,56.32A59.33,59.33,0,0,0,8.18,68.26H112.92A59.33,59.33,0,0,0,114.13,56.32Z"/><path class="cls-2" d="M112.49,75.45c0,10.94-22.55,19.8-50.37,19.8s-50.37-8.86-50.37-19.8,22.56-19.8,50.37-19.8S112.49,64.51,112.49,75.45Z"/><path class="cls-3" d="M124.25,65.78c0,14.59-26.78,25.94-61.81,25.94S.18,80.37.18,65.78,27.4,38.85,62.44,38.85,124.25,51.17,124.25,65.78Z"/><path class="cls-4" d="M61.75,93.45C27.08,93.45,0,80.88,0,65.78S27.08,38.65,61.75,38.65s62.86,12.29,62.86,27.4S96.41,93.45,61.75,93.45Zm.69-53.64C28.72,39.81,1.3,51.25,1.3,65.31s27.42,25.5,61.14,25.5,61.13-11.44,61.13-25.5S96.15,39.81,62.44,39.81Z"/><path class="cls-5" d="M103.89,65.82c0,9.55-18.56,17.28-41.45,17.28S21,75.37,21,65.82,39.54,48.55,62.44,48.55,103.89,56.28,103.89,65.82Z"/><path class="cls-6" d="M62.44,86c-25.53,0-46.29-9-46.29-20.16S36.91,45.67,62.44,45.67s46.27,9,46.27,20.15S88,86,62.44,86Zm0-36.29c-21.35,0-38.72,7.24-38.72,16.13S41.09,82,62.44,82s38.7-7.24,38.7-16.14S83.78,49.69,62.44,49.69Z"/><path class="cls-7" d="M89,55.2c-.43,0-2.29-4-2.69-4.56a7.1,7.1,0,0,0-3.68-3c-2.11-.58-3.75,1.43-5.78,1.28-1.62-.11-2.22-1.52-3-2.77a6.17,6.17,0,0,0-3-2.63c-2.71-1-5.11,2.82-7.5,3.73-3.38,1.27-6.43-.33-8.8-2.78-.42-.43-.84-.9-1.27-1.43C50,44.3,50,45.89,48.86,48.3c-2.46,5.24-5.38,0-7.22-1.2a5.45,5.45,0,0,0-4.43-.84,4.9,4.9,0,0,0-3.54,3c-1.53,3.31-2.29,4.72-6.35,4.07-2.33-.37-6.3-2.7-8.16-.24-2,2.61,1.21,4.62,2.71,6.59,2.76,3.59-1.88,4.62-1.68,8.07a6.26,6.26,0,0,0,5.19,5.53c3.28.7,5.59-1.78,8.7-1.48a5.66,5.66,0,0,1,1.25.26,3.22,3.22,0,0,1,1.54,1.63C48.93,59.66,69.82,54.27,89,55.2Z"/><path class="cls-8" d="M20.64,68.14a4.82,4.82,0,0,0,1.27,3A5.66,5.66,0,0,0,25.59,73a6.57,6.57,0,0,0,2.07-.12,8.43,8.43,0,0,0,.9-.2c.3-.09.59-.2.87-.3a5,5,0,0,0,1.54-1,1.63,1.63,0,0,0,.6-1.49,1.51,1.51,0,0,1-1.13.51,10.87,10.87,0,0,1-1.41,0c-.26,0-.51,0-.77,0l-.83,0a12.8,12.8,0,0,1-1.56-.06A10.57,10.57,0,0,1,20.64,68.14Z"/><path class="cls-9" d="M24.76,53.42a10.64,10.64,0,0,0-2.24-1.12,4.61,4.61,0,0,0-1.44-.25,2.75,2.75,0,0,0-1.58.53,2.88,2.88,0,0,0-1,1.5A2.94,2.94,0,0,0,18.69,56a9.31,9.31,0,0,0,2.07,2.77A22.9,22.9,0,0,1,22.89,61a3,3,0,0,1,.5,1.16c0,.21,0,.41,0,.62l-.13.63A15.67,15.67,0,0,1,22,65.78a3.33,3.33,0,0,0-.38,2.48,3.43,3.43,0,0,1,.83-2.18,11,11,0,0,0,1.73-2.3l.27-.8a6.4,6.4,0,0,0,.08-.89,3.83,3.83,0,0,0-.58-1.72,16.72,16.72,0,0,0-2.22-2.55,10,10,0,0,1-1.9-2.35,2,2,0,0,1-.21-1.15,1.83,1.83,0,0,1,.54-1,2.69,2.69,0,0,1,2.28-.48A16,16,0,0,1,24.76,53.42Z"/><path class="cls-9" d="M42.91,49.46a7.49,7.49,0,0,0-2.11-2.09A4.36,4.36,0,0,0,37,46.91a5.74,5.74,0,0,0-2.76,2.51,9.78,9.78,0,0,0-1,2.75c.55-.65,1.13-1.43,1.82-2.19a6.92,6.92,0,0,1,2.45-1.85,4.26,4.26,0,0,1,2.9.1A21.32,21.32,0,0,1,42.91,49.46Z"/><path class="cls-8" d="M43.52,51.23a2.6,2.6,0,0,0,.71,1.64,2.83,2.83,0,0,0,2,.88,2.63,2.63,0,0,0,2.11-.91,2.58,2.58,0,0,0,.46-.86,2.69,2.69,0,0,0,.07-.88c-.29,0-.57,0-.82.06s-.49,0-.71,0c-.43,0-.72-.07-1-.07C45.66,51.09,44.66,51.14,43.52,51.23Z"/><path class="cls-9" d="M53.57,44.24a1.79,1.79,0,0,0-1.76.28,4.45,4.45,0,0,0-1.46,1.55,3.71,3.71,0,0,0-.21,3.76,11.58,11.58,0,0,1,1.33-3.1,17,17,0,0,1,1-1.5A2.31,2.31,0,0,1,53.57,44.24Z"/><path class="cls-10" d="M41,54.33c1.5,0,1.36,1.28,0,1.64a13.8,13.8,0,0,0-2.41.77c-.43.2-.9.33-1.34.58l-1.31.77a10.62,10.62,0,0,0-3.81,4.68,14.28,14.28,0,0,0-1,5.1c0,.69,0,1.26.05,1.65s0,.62,0,.63c0,.62-1.29,1.17-2.88,1.43s-3-.39-2.95-1.25a8.15,8.15,0,0,1,.06-.86,21.65,21.65,0,0,1,.32-2.18,18.68,18.68,0,0,1,2.61-6.59A11.23,11.23,0,0,1,29.66,59a9.68,9.68,0,0,1,1.53-1.47,9.89,9.89,0,0,1,1.71-1.19l.89-.49.44-.23.46-.17,1.76-.61c.59-.13,1.16-.22,1.69-.32A15.61,15.61,0,0,1,41,54.33Z"/><path class="cls-9" d="M71.75,44.87A3.11,3.11,0,0,0,69.9,44a3.69,3.69,0,0,0-2.43.73,9.14,9.14,0,0,0-2.71,3.3,18.79,18.79,0,0,0,3.44-2.23A5.13,5.13,0,0,1,70,45,6.41,6.41,0,0,1,71.75,44.87Z"/><path class="cls-9" d="M86.15,51.63a6.14,6.14,0,0,0-.76-1.86,4.4,4.4,0,0,0-1.87-1.7A3.85,3.85,0,0,0,80.94,48a5,5,0,0,0-1.77,1,9.85,9.85,0,0,1,3.83.33A19.8,19.8,0,0,1,86.15,51.63Z"/><path class="cls-10" d="M33.53,53.67s5.67-1.45,7.32,1.95l3.92-1.44S38.17,50,33.53,53.67Z"/><path class="cls-11" d="M95.09,64.46C95.67,71.29,80,80.06,62,81.59S29.07,78.83,28.49,72,42,58.41,59.91,56.88,94.51,57.64,95.09,64.46Z"/><path class="cls-12" d="M74.45,80.61c5.48-1.57,12-5.24,16.78-8.85,3.48-2.61,3.58-7.78,1.22-9.45-3-2.14,1.53-3.48,2.74-3.67,12.22-1.87,12.51,8.24,10.33,12.18-2.46,4.44-18.81,13.93-31,13.13C72,83.78,70,81.88,74.45,80.61Z"/><path class="cls-10" d="M65.29,49.44s4.64-1.24,6.7,2.27l-3.71,1S68.8,50,65.29,49.44Z"/><path class="cls-13" d="M29.17,71.29s-1.76-5.49,2.9-12.94,51.4-10.46,59.32-2.07c0,0,5.87,7.21,2.15,11.26C87.37,74.25,69.18,81.83,50.48,80,32.13,78.16,29.17,71.29,29.17,71.29Z"/><path class="cls-14" d="M51.44,80.18s0-10.76,3.74-12.91,14.77-2.2,27.9-6.58c6.44-2.15,7.24-3.88,7.24-3.88s10.33,9-4,15.83C70.47,80.15,53.75,81.08,51.44,80.18Z"/><path class="cls-15" d="M34.5,57.71A42.43,42.43,0,0,1,45.71,54.4a103.83,103.83,0,0,1,14-1.39c10-.45,19.09-.42,25.76,1.14a29.81,29.81,0,0,0-5.36-1.45c-2-.38-4-.61-6.23-.85s-4.5-.34-6.88-.31H63.38c-1.23,0-2.47.1-3.73.15a76.84,76.84,0,0,0-14.14,1.77A34.39,34.39,0,0,0,34.5,57.71Z"/><path class="cls-16" d="M60.06,63.54a.38.38,0,0,1-.48.24.38.38,0,0,1-.24-.48.38.38,0,1,1,.72.24Z"/><path class="cls-16" d="M57.44,61.82a.38.38,0,0,1-.48.24.38.38,0,0,1-.24-.48.38.38,0,1,1,.72.24Z"/><path class="cls-16" d="M55.28,61.07a.53.53,0,0,1-.66.33.51.51,0,0,1-.32-.65.52.52,0,1,1,1,.32Z"/><path class="cls-16" d="M51.2,62.14a.66.66,0,0,1-.7.62.65.65,0,0,1-.61-.7.66.66,0,1,1,1.31.08Z"/><path class="cls-16" d="M48.1,62.1a.26.26,0,0,1-.27.25.26.26,0,1,1,0-.52A.25.25,0,0,1,48.1,62.1Z"/><path class="cls-16" d="M47.59,60.34a.29.29,0,0,1-.31.27A.31.31,0,0,1,47,60.3a.29.29,0,0,1,.31-.27A.3.3,0,0,1,47.59,60.34Z"/><path class="cls-16" d="M44.33,61.81a.36.36,0,0,1-.66.3.36.36,0,1,1,.66-.3Z"/><path class="cls-16" d="M41.59,61.42a.31.31,0,1,1-.41-.16A.31.31,0,0,1,41.59,61.42Z"/><path class="cls-16" d="M36.76,64.06a.66.66,0,1,1,0,1.31.65.65,0,0,1-.66-.65A.67.67,0,0,1,36.76,64.06Z"/><path class="cls-16" d="M37.44,65.25a.33.33,0,1,1-.32.32A.33.33,0,0,1,37.44,65.25Z"/><path class="cls-16" d="M37.57,65.68a.51.51,0,0,1,.5.51.51.51,0,0,1-1,0A.51.51,0,0,1,37.57,65.68Z"/><path class="cls-16" d="M36.81,66.78a.59.59,0,1,1-.58.59A.58.58,0,0,1,36.81,66.78Z"/><path class="cls-16" d="M37.56,70.47a.59.59,0,0,1,.82,0,.58.58,0,0,1-.81.82A.58.58,0,0,1,37.56,70.47Z"/><path class="cls-16" d="M38.08,71.12a.35.35,0,0,1,.49.49.35.35,0,0,1-.49,0A.36.36,0,0,1,38.08,71.12Z"/><path class="cls-16" d="M41.7,71.84a.67.67,0,1,1,.9.31A.68.68,0,0,1,41.7,71.84Z"/><path class="cls-16" d="M43.73,70.47a.32.32,0,1,1,.43.15A.32.32,0,0,1,43.73,70.47Z"/><path class="cls-16" d="M45.19,69a.6.6,0,1,1,.78-.9.6.6,0,1,1-.78.9Z"/><path class="cls-16" d="M47.63,67.33a.48.48,0,1,1,.63-.73.5.5,0,0,1,.06.69A.49.49,0,0,1,47.63,67.33Z"/><path class="cls-16" d="M48.78,63.68a.35.35,0,0,1-.19-.45.36.36,0,0,1,.46-.2.35.35,0,1,1-.27.65Z"/><path class="cls-16" d="M50.45,61.34a.25.25,0,1,1,.33-.14A.25.25,0,0,1,50.45,61.34Z"/><path class="cls-16" d="M49.75,60.75a.45.45,0,0,1,.33-.83.45.45,0,1,1-.33.83Z"/><path class="cls-16" d="M50.24,57.24a.31.31,0,0,1-.39.22.32.32,0,1,1,.16-.62A.33.33,0,0,1,50.24,57.24Z"/><path class="cls-16" d="M46.58,58.24a.45.45,0,0,1-.56.31.44.44,0,0,1-.31-.55.45.45,0,0,1,.55-.32A.47.47,0,0,1,46.58,58.24Z"/><path class="cls-16" d="M45.1,56.24a.41.41,0,0,1-.27.52.42.42,0,0,1-.26-.8A.41.41,0,0,1,45.1,56.24Z"/><path class="cls-16" d="M43.1,57.52a.54.54,0,1,1-1,.32.55.55,0,0,1,.36-.68A.54.54,0,0,1,43.1,57.52Z"/><path class="cls-16" d="M38.42,59.11a.26.26,0,0,1,0,.38.27.27,0,0,1-.38,0,.28.28,0,0,1,0-.39A.27.27,0,0,1,38.42,59.11Z"/><path class="cls-16" d="M35.21,62.71a.49.49,0,0,1,0,.68.48.48,0,1,1-.66-.7A.49.49,0,0,1,35.21,62.71Z"/><path class="cls-16" d="M32.65,65.74a.44.44,0,1,1-.31.83.44.44,0,0,1-.26-.57A.45.45,0,0,1,32.65,65.74Z"/><path class="cls-16" d="M33.56,68a.53.53,0,1,1-.38,1,.53.53,0,1,1,.38-1Z"/><path class="cls-17" d="M75.72,55.41a.63.63,0,0,1-.73.5.63.63,0,0,1,.23-1.23A.62.62,0,0,1,75.72,55.41Z"/><path class="cls-17" d="M73.57,55a.46.46,0,0,1-.9-.17.46.46,0,1,1,.9.17Z"/><path class="cls-17" d="M68.89,53.41a.61.61,0,0,1-.71.48.59.59,0,0,1-.47-.7.6.6,0,0,1,.7-.49A.61.61,0,0,1,68.89,53.41Z"/><path class="cls-17" d="M68,54.3a.41.41,0,0,1-.81-.15.42.42,0,0,1,.48-.34A.43.43,0,0,1,68,54.3Z"/><path class="cls-17" d="M66.16,53.67a.57.57,0,0,1-1,.5.58.58,0,0,1,.26-.77A.57.57,0,0,1,66.16,53.67Z"/><path class="cls-17" d="M62.82,55.25a.24.24,0,0,1-.43.21.23.23,0,0,1,.11-.32A.24.24,0,0,1,62.82,55.25Z"/><path class="cls-17" d="M60,57.39a.27.27,0,0,1-.12.36.27.27,0,0,1-.37-.12.28.28,0,0,1,.12-.37A.27.27,0,0,1,60,57.39Z"/><path class="cls-17" d="M57.7,58.92a.59.59,0,0,1-.28.8.6.6,0,0,1-.81-.27.61.61,0,0,1,.28-.81A.61.61,0,0,1,57.7,58.92Z"/><path class="cls-17" d="M53.26,61.54a.65.65,0,0,1,0,.93.66.66,0,0,1-.93,0,.67.67,0,0,1,0-.94A.66.66,0,0,1,53.26,61.54Z"/><path class="cls-17" d="M52.34,66.78a.58.58,0,0,1,.81-.13.57.57,0,0,1,.14.81.59.59,0,0,1-.82.15A.6.6,0,0,1,52.34,66.78Z"/><path class="cls-17" d="M54.62,67.35a.54.54,0,0,1,.77-.09.53.53,0,0,1,.09.76.54.54,0,0,1-.76.1A.55.55,0,0,1,54.62,67.35Z"/><path class="cls-17" d="M54.66,68.58a.23.23,0,0,1,.32,0,.22.22,0,0,1-.28.35A.23.23,0,0,1,54.66,68.58Z"/><path class="cls-17" d="M54.77,68.59a.46.46,0,0,1,.72.57.46.46,0,0,1-.65.09A.47.47,0,0,1,54.77,68.59Z"/><path class="cls-17" d="M56.69,69.61a.51.51,0,0,1,.72-.08.5.5,0,0,1,.08.71.51.51,0,1,1-.8-.63Z"/><path class="cls-17" d="M57.5,70.15a.65.65,0,0,1,.91-.11.64.64,0,0,1-.8,1A.65.65,0,0,1,57.5,70.15Z"/><path class="cls-17" d="M59.5,70.85a.65.65,0,0,1,.91-.11.65.65,0,0,1-.8,1A.65.65,0,0,1,59.5,70.85Z"/><path class="cls-17" d="M62.72,74.35a.65.65,0,0,1,.89-.23.64.64,0,0,1,.23.88.65.65,0,0,1-.88.25A.67.67,0,0,1,62.72,74.35Z"/><path class="cls-17" d="M67.65,75.78a.51.51,0,1,1,.52.5A.52.52,0,0,1,67.65,75.78Z"/><path class="cls-17" d="M72.18,75.54a.53.53,0,0,1,1.06,0,.52.52,0,0,1-.51.55A.53.53,0,0,1,72.18,75.54Z"/><path class="cls-17" d="M74.84,75.78a.53.53,0,0,1,1-.31.54.54,0,0,1-.35.67A.54.54,0,0,1,74.84,75.78Z"/><path class="cls-17" d="M78.36,74.35a.65.65,0,0,1,.44-.82.66.66,0,0,1,.38,1.26A.65.65,0,0,1,78.36,74.35Z"/><path class="cls-17" d="M79.07,73.18a.29.29,0,0,1,.19-.36.29.29,0,0,1,.17.56A.29.29,0,0,1,79.07,73.18Z"/><path class="cls-17" d="M84.49,72.72a.33.33,0,1,1,.55-.38.33.33,0,1,1-.55.38Z"/><path class="cls-17" d="M88.12,71a.35.35,0,0,1,.09-.47.34.34,0,0,1,.46.09.32.32,0,0,1-.08.46A.34.34,0,0,1,88.12,71Z"/><path class="cls-17" d="M89.25,67.81A.6.6,0,0,1,89.4,67a.61.61,0,0,1,.7,1A.6.6,0,0,1,89.25,67.81Z"/><path class="cls-17" d="M92.5,65.91a.63.63,0,1,1,.65-.61A.63.63,0,0,1,92.5,65.91Z"/><path class="cls-17" d="M89.8,63.05a.59.59,0,1,1-.65-.52A.59.59,0,0,1,89.8,63.05Z"/><path class="cls-17" d="M86.46,61.85a.64.64,0,0,1-.57.7.63.63,0,0,1-.7-.56.64.64,0,0,1,.56-.71A.65.65,0,0,1,86.46,61.85Z"/><path class="cls-17" d="M82.25,64.54a.42.42,0,0,1-.28.53.41.41,0,0,1-.53-.27.43.43,0,0,1,.27-.54A.43.43,0,0,1,82.25,64.54Z"/><path class="cls-17" d="M79.8,65.82a.57.57,0,0,1-.37.73.58.58,0,1,1-.36-1.1A.57.57,0,0,1,79.8,65.82Z"/><path class="cls-17" d="M77.28,66.3a.48.48,0,0,1-.31.6.46.46,0,0,1-.59-.3.46.46,0,0,1,.29-.6A.49.49,0,0,1,77.28,66.3Z"/><path class="cls-17" d="M74.26,65.62a.42.42,0,0,1-.27.53.42.42,0,0,1-.26-.8A.42.42,0,0,1,74.26,65.62Z"/><path class="cls-17" d="M72.5,66.38a.62.62,0,0,1-.53.7.6.6,0,0,1-.7-.51.63.63,0,0,1,.51-.72A.64.64,0,0,1,72.5,66.38Z"/><path class="cls-17" d="M70.32,67.82a.35.35,0,0,1-.29.4.35.35,0,0,1-.41-.29.36.36,0,0,1,.3-.41A.35.35,0,0,1,70.32,67.82Z"/><path class="cls-17" d="M69.18,68.44a.55.55,0,0,1-.45.61.53.53,0,0,1-.61-.45.53.53,0,0,1,.44-.61A.54.54,0,0,1,69.18,68.44Z"/><path class="cls-17" d="M64.85,70.79a.56.56,0,0,1-.17.78.55.55,0,0,1-.77-.17.56.56,0,0,1,.16-.78A.57.57,0,0,1,64.85,70.79Z"/><path class="cls-17" d="M64,71.82a.35.35,0,1,1,.2.45A.35.35,0,0,1,64,71.82Z"/><path class="cls-17" d="M64.36,71.87a.24.24,0,0,1,.3-.13.23.23,0,0,1,.13.3.24.24,0,0,1-.3.13A.25.25,0,0,1,64.36,71.87Z"/><path class="cls-17" d="M67.75,73.12a.65.65,0,1,1,.37.84A.65.65,0,0,1,67.75,73.12Z"/><path class="cls-17" d="M68.92,74.32a.21.21,0,0,1,.19-.24.2.2,0,0,1,.24.18.21.21,0,0,1-.18.25A.22.22,0,0,1,68.92,74.32Z"/><path class="cls-17" d="M73.89,73.08a.21.21,0,0,1,.19-.24.22.22,0,0,1,.24.18.23.23,0,0,1-.19.25A.23.23,0,0,1,73.89,73.08Z"/><path class="cls-17" d="M77.69,71.6a.24.24,0,1,1,.3.15A.23.23,0,0,1,77.69,71.6Z"/><path class="cls-17" d="M81,71a.44.44,0,0,1,.21-.58.42.42,0,0,1,.58.2.44.44,0,0,1-.2.59A.45.45,0,0,1,81,71Z"/><path class="cls-17" d="M85.3,70.13a.48.48,0,1,1,.86-.41.49.49,0,0,1-.22.64A.48.48,0,0,1,85.3,70.13Z"/><path class="cls-17" d="M87.4,66.78a.44.44,0,1,1,.62,0A.43.43,0,0,1,87.4,66.78Z"/><path class="cls-17" d="M89.26,63a.31.31,0,0,1-.44-.08.3.3,0,0,1,.07-.44.32.32,0,0,1,.44.07A.33.33,0,0,1,89.26,63Z"/><path class="cls-17" d="M90.43,61a.43.43,0,0,1-.6-.1.42.42,0,0,1,.1-.6.43.43,0,0,1,.6.09A.44.44,0,0,1,90.43,61Z"/><path class="cls-17" d="M87.7,60.79a.32.32,0,0,1-.45-.08.31.31,0,0,1,.08-.44.32.32,0,0,1,.45.06A.33.33,0,0,1,87.7,60.79Z"/><path class="cls-17" d="M84.51,58.6a.55.55,0,1,1-1.09-.07.55.55,0,0,1,1.09.07Z"/><path class="cls-17" d="M80,57.93a.56.56,0,0,1-.6.53.55.55,0,0,1-.53-.6.56.56,0,0,1,.6-.54A.58.58,0,0,1,80,57.93Z"/><path class="cls-17" d="M76.82,59a.59.59,0,0,1-.63.55.59.59,0,0,1-.56-.62.59.59,0,0,1,.63-.56A.61.61,0,0,1,76.82,59Z"/><path class="cls-17" d="M75.59,58.54a.4.4,0,1,1-.51-.25A.4.4,0,0,1,75.59,58.54Z"/><path class="cls-17" d="M70.77,59.4a.24.24,0,0,1-.15.3.23.23,0,0,1-.29-.15.22.22,0,0,1,.14-.29A.23.23,0,0,1,70.77,59.4Z"/><path class="cls-17" d="M68.34,61.41a.28.28,0,1,1-.36-.18A.28.28,0,0,1,68.34,61.41Z"/><path class="cls-17" d="M63.81,62.6a.25.25,0,0,1-.1.34.24.24,0,0,1-.34-.1.25.25,0,0,1,.1-.35A.26.26,0,0,1,63.81,62.6Z"/><path class="cls-17" d="M59.37,65.25a.41.41,0,1,1-.53.63.41.41,0,0,1,.53-.63Z"/><path class="cls-17" d="M59,66.79a.54.54,0,0,1,.06.75.52.52,0,0,1-.74.06.53.53,0,0,1-.07-.74A.55.55,0,0,1,59,66.79Z"/><path class="cls-17" d="M56,68.73a.32.32,0,0,1,.1.45.31.31,0,0,1-.44.1.32.32,0,0,1-.11-.45A.33.33,0,0,1,56,68.73Z"/><path class="cls-17" d="M54.44,73.35a.25.25,0,1,1-.34.12A.25.25,0,0,1,54.44,73.35Z"/><path class="cls-17" d="M51.54,73.8a.24.24,0,0,1-.12.33A.24.24,0,0,1,51.1,74a.25.25,0,0,1,.11-.33A.25.25,0,0,1,51.54,73.8Z"/><path class="cls-17" d="M52.11,76a.61.61,0,1,1-.47-1.12A.61.61,0,1,1,52.11,76Z"/><path class="cls-17" d="M49.92,72.07a.5.5,0,0,1-.65-.28.5.5,0,0,1,.26-.65.51.51,0,0,1,.67.26A.52.52,0,0,1,49.92,72.07Z"/><path class="cls-17" d="M50.08,72.93a.59.59,0,0,1,0-.84.6.6,0,1,1,0,.84Z"/><path class="cls-17" d="M53.46,69.56a.61.61,0,0,1,.83-.9.61.61,0,0,1-.83.9Z"/><path class="cls-17" d="M56.26,67.52a.53.53,0,0,1,.26-.71.53.53,0,0,1,.71.25.55.55,0,0,1-.26.72A.54.54,0,0,1,56.26,67.52Z"/><path class="cls-17" d="M55.84,65.41a.57.57,0,0,1,.28-.76.56.56,0,0,1,.76.27.57.57,0,0,1-1,.49Z"/><path class="cls-17" d="M56.47,65.55a.32.32,0,0,1,.16-.42.31.31,0,0,1,.26.57A.31.31,0,0,1,56.47,65.55Z"/><path class="cls-17" d="M58.82,63.81a.33.33,0,0,1-.11.45.33.33,0,0,1-.45-.12.33.33,0,0,1,.56-.33Z"/><path class="cls-17" d="M53.9,64.53a.59.59,0,0,1-.21.8.58.58,0,0,1-.6-1A.6.6,0,0,1,53.9,64.53Z"/><path class="cls-17" d="M53.75,66.31a.4.4,0,0,1-.14.55.4.4,0,0,1-.41-.69A.4.4,0,0,1,53.75,66.31Z"/><path class="cls-17" d="M52.51,65.44a.44.44,0,0,1-.16.6.43.43,0,0,1-.6-.15.44.44,0,0,1,.15-.61A.45.45,0,0,1,52.51,65.44Z"/><path class="cls-17" d="M50.73,67.9a.53.53,0,0,1-.19.73.52.52,0,0,1-.72-.18.53.53,0,1,1,.91-.55Z"/><path class="cls-17" d="M47.87,70.37a.55.55,0,1,1-.77-.12A.56.56,0,0,1,47.87,70.37Z"/><path class="cls-17" d="M46.52,69.84a.39.39,0,0,1-.09.55.38.38,0,0,1-.54-.09.39.39,0,0,1,.08-.55A.41.41,0,0,1,46.52,69.84Z"/><path class="cls-17" d="M46.37,70.86a.57.57,0,0,1-.13.8.57.57,0,0,1-.8-.12.59.59,0,0,1,.12-.81A.58.58,0,0,1,46.37,70.86Z"/><path class="cls-17" d="M44.32,71.92a.24.24,0,1,1-.48.09.25.25,0,0,1,.19-.29A.25.25,0,0,1,44.32,71.92Z"/><path class="cls-17" d="M43.18,72.51a.26.26,0,0,1-.2.29.24.24,0,0,1-.09-.48A.25.25,0,0,1,43.18,72.51Z"/><path class="cls-17" d="M42,70.76a.63.63,0,0,1-.57-1.12.63.63,0,0,1,.85.27A.64.64,0,0,1,42,70.76Z"/><path class="cls-17" d="M42.13,69.94a.5.5,0,1,1-.46-.88.5.5,0,0,1,.67.21A.49.49,0,0,1,42.13,69.94Z"/><path class="cls-17" d="M40.89,68.36a.55.55,0,0,1-.24-.74.55.55,0,0,1,1,.5A.56.56,0,0,1,40.89,68.36Z"/><path class="cls-17" d="M42.41,64.81a.23.23,0,0,1-.1-.32.23.23,0,0,1,.31-.1.24.24,0,0,1,.11.32A.23.23,0,0,1,42.41,64.81Z"/><path class="cls-17" d="M44.52,64.65a.25.25,0,1,1,.23-.45.25.25,0,0,1,.11.34A.26.26,0,0,1,44.52,64.65Z"/><path class="cls-17" d="M46.25,63.3a.48.48,0,1,1,.67.11A.49.49,0,0,1,46.25,63.3Z"/><path class="cls-17" d="M46.44,60.7a.36.36,0,0,1,.08-.5.36.36,0,1,1-.08.5Z"/><path class="cls-17" d="M50.81,59.58a.38.38,0,0,1,.08-.52.37.37,0,0,1,.44.6A.38.38,0,0,1,50.81,59.58Z"/><path class="cls-17" d="M54.24,57.48a.57.57,0,0,1,.32-.74A.57.57,0,1,1,55,57.8.57.57,0,0,1,54.24,57.48Z"/><path class="cls-17" d="M57.54,54.71a.51.51,0,0,1-.44.59.52.52,0,1,1,.44-.59Z"/><path class="cls-17" d="M56.76,53.39a.6.6,0,0,1-.5.67.59.59,0,0,1-.17-1.17A.6.6,0,0,1,56.76,53.39Z"/><path class="cls-17" d="M53.72,53.17a.51.51,0,0,1-.43.57.49.49,0,0,1-.56-.43.5.5,0,0,1,.42-.57A.51.51,0,0,1,53.72,53.17Z"/><path class="cls-17" d="M50.49,54.69a.61.61,0,0,1-1.2.18.61.61,0,0,1,.51-.7A.62.62,0,0,1,50.49,54.69Z"/><path class="cls-17" d="M45.55,55.65a.25.25,0,0,1-.1.35.24.24,0,0,1-.34-.1.25.25,0,0,1,.09-.34A.26.26,0,0,1,45.55,55.65Z"/><path class="cls-17" d="M45.15,57.14a.61.61,0,1,1-1.06.61.61.61,0,1,1,1.06-.61Z"/><path class="cls-17" d="M43.69,58a.43.43,0,0,1-.17.58.42.42,0,0,1-.58-.16.44.44,0,0,1,.15-.59A.44.44,0,0,1,43.69,58Z"/><path class="cls-17" d="M42,57.29a.49.49,0,0,1-.18.67.48.48,0,0,1-.67-.18.49.49,0,0,1,.17-.67A.49.49,0,0,1,42,57.29Z"/><path class="cls-17" d="M37.64,61.2a.33.33,0,0,1,.23.43.35.35,0,1,1-.23-.43Z"/><path class="cls-17" d="M37.89,63.69a.3.3,0,1,1-.38.2A.3.3,0,0,1,37.89,63.69Z"/><path class="cls-17" d="M37.18,63.78a.64.64,0,0,1,.42.8.64.64,0,0,1-1.23-.38A.64.64,0,0,1,37.18,63.78Z"/><path class="cls-17" d="M36.74,66.54a.49.49,0,0,1,.32.62.48.48,0,0,1-.62.32.5.5,0,0,1-.33-.62A.5.5,0,0,1,36.74,66.54Z"/><path class="cls-17" d="M35,68.88a.28.28,0,0,1-.17.54.28.28,0,0,1-.19-.35A.3.3,0,0,1,35,68.88Z"/><path class="cls-17" d="M36,70.35a.31.31,0,0,1,.2.39.3.3,0,0,1-.38.2.31.31,0,1,1,.18-.59Z"/><path class="cls-17" d="M78.93,57.32a.35.35,0,0,1-.7,0,.36.36,0,0,1,.34-.36A.35.35,0,0,1,78.93,57.32Z"/><path class="cls-17" d="M75,56.26a.56.56,0,1,1-.58-.54A.56.56,0,0,1,75,56.26Z"/><path class="cls-17" d="M71.8,55.89a.22.22,0,0,1-.22.23.21.21,0,0,1-.22-.21.22.22,0,0,1,.21-.23A.22.22,0,0,1,71.8,55.89Z"/><path class="cls-17" d="M68.49,56.88a.65.65,0,0,1-1.29,0,.65.65,0,1,1,1.29,0Z"/><path class="cls-17" d="M64.76,58.12a.51.51,0,1,1-1,.31.51.51,0,1,1,1-.31Z"/><path class="cls-17" d="M60.54,59.9a.3.3,0,0,1-.2.38.32.32,0,0,1-.39-.2.31.31,0,0,1,.2-.39A.31.31,0,0,1,60.54,59.9Z"/><path class="cls-17" d="M56.51,61.29a.31.31,0,1,1-.39-.2A.31.31,0,0,1,56.51,61.29Z"/><path class="cls-17" d="M55.78,59.88a.58.58,0,0,1-.39.73.57.57,0,0,1-.72-.38.59.59,0,0,1,.37-.74A.6.6,0,0,1,55.78,59.88Z"/><path class="cls-17" d="M82.64,56.16a.38.38,0,0,1-.3.45.39.39,0,1,1-.15-.76A.39.39,0,0,1,82.64,56.16Z"/><path class="cls-17" d="M81.15,57.83a.52.52,0,0,1,.73,0,.51.51,0,0,1,0,.73.52.52,0,0,1-.7-.76Z"/><path class="cls-17" d="M81.92,59a.56.56,0,1,1,.76.81.56.56,0,1,1-.76-.81Z"/><path class="cls-17" d="M85.12,60.41a.3.3,0,0,1,.41.44.3.3,0,1,1-.41-.44Z"/><path class="cls-17" d="M84.6,62a.23.23,0,1,1,0,.46.23.23,0,0,1,0-.46Z"/><path class="cls-17" d="M85.55,64.06a.5.5,0,1,1,0,.71A.5.5,0,0,1,85.55,64.06Z"/><path class="cls-17" d="M89.31,64.37a.27.27,0,0,1,.52-.11.28.28,0,0,1-.21.32A.27.27,0,0,1,89.31,64.37Z"/><path class="cls-17" d="M90.55,62.87a.35.35,0,0,1-.37-.33.35.35,0,0,1,.7,0A.36.36,0,0,1,90.55,62.87Z"/><path class="cls-17" d="M92.17,60.65a.23.23,0,1,1,.22-.24A.23.23,0,0,1,92.17,60.65Z"/><path class="cls-17" d="M90,57.3a.38.38,0,0,1-.51-.1.36.36,0,0,1,.1-.5.35.35,0,0,1,.5.09A.37.37,0,0,1,90,57.3Z"/><path class="cls-17" d="M88,54.4a.41.41,0,0,1-.78-.28.41.41,0,1,1,.78.28Z"/><path class="cls-17" d="M83.53,53.37a.3.3,0,0,1-.39.19.3.3,0,0,1-.19-.39.3.3,0,0,1,.39-.2A.32.32,0,0,1,83.53,53.37Z"/><path class="cls-17" d="M80,52.85a.43.43,0,0,1-.86.06.43.43,0,1,1,.86-.06Z"/><path class="cls-17" d="M77.13,52.64a.36.36,0,1,1-.71.06.36.36,0,1,1,.71-.06Z"/><path class="cls-17" d="M76.36,54.22a.38.38,0,1,1-.76.05.38.38,0,1,1,.76-.05Z"/><path class="cls-17" d="M75.23,53.83a.49.49,0,0,1-.46.53.48.48,0,0,1-.52-.45.49.49,0,0,1,.45-.54A.5.5,0,0,1,75.23,53.83Z"/><path class="cls-17" d="M73.31,52.84a.29.29,0,0,1-.27.31.29.29,0,1,1,0-.58A.29.29,0,0,1,73.31,52.84Z"/><path class="cls-17" d="M75.45,63.7a.34.34,0,0,1-.23.41.33.33,0,0,1-.41-.23.33.33,0,0,1,.22-.41A.34.34,0,0,1,75.45,63.7Z"/><path class="cls-17" d="M75.46,65.68a.48.48,0,0,1-.92.27.48.48,0,1,1,.92-.27Z"/><path class="cls-17" d="M71.47,64.64a.6.6,0,0,1-.42.75.59.59,0,0,1-.74-.41.61.61,0,0,1,.4-.76A.62.62,0,0,1,71.47,64.64Z"/><path class="cls-17" d="M71.23,65.49a.35.35,0,0,1-.68.2.35.35,0,1,1,.68-.2Z"/><path class="cls-17" d="M69.43,66.56a.52.52,0,1,1-.65-.36A.52.52,0,0,1,69.43,66.56Z"/><path class="cls-17" d="M65.68,65.66a.64.64,0,0,1-.62.65.63.63,0,0,1-.65-.61.64.64,0,1,1,1.27,0Z"/><path class="cls-17" d="M60.56,67.08a.58.58,0,0,1-.29.76.56.56,0,0,1-.75-.29.58.58,0,0,1,.28-.76A.59.59,0,0,1,60.56,67.08Z"/><path class="cls-17" d="M58.72,67.21a.65.65,0,0,1-1.19.54.65.65,0,1,1,1.19-.54Z"/><path class="cls-17" d="M55.71,68.11a.66.66,0,1,1-.88-.33A.67.67,0,0,1,55.71,68.11Z"/><path class="cls-17" d="M53,69.76a.64.64,0,0,1-.37.82.64.64,0,0,1-.45-1.19A.63.63,0,0,1,53,69.76Z"/><path class="cls-17" d="M50.45,70.48a.22.22,0,0,1-.13.28.22.22,0,0,1-.29-.13.22.22,0,0,1,.13-.28A.21.21,0,0,1,50.45,70.48Z"/><path class="cls-17" d="M50,71.44a.25.25,0,1,1-.32-.14A.25.25,0,0,1,50,71.44Z"/><path class="cls-17" d="M49.84,71.64a.47.47,0,0,1-.28.6A.46.46,0,0,1,49,72a.47.47,0,0,1,.87-.33Z"/><path class="cls-17" d="M46.1,70.43a.36.36,0,0,1-.66-.27.35.35,0,0,1,.46-.2A.37.37,0,0,1,46.1,70.43Z"/><path class="cls-17" d="M46.27,68.21a.41.41,0,0,1,.3-.77.41.41,0,0,1,.24.53A.43.43,0,0,1,46.27,68.21Z"/><path class="cls-17" d="M47.68,66.71a.35.35,0,1,1,.45-.2A.35.35,0,0,1,47.68,66.71Z"/><path class="cls-17" d="M47.34,66.09a.49.49,0,1,1,.85-.48.49.49,0,1,1-.85.48Z"/><path class="cls-17" d="M50.76,64.17a.59.59,0,1,1,.8.22A.59.59,0,0,1,50.76,64.17Z"/><path class="cls-17" d="M54.69,64.19a.63.63,0,1,1,.61.65A.63.63,0,0,1,54.69,64.19Z"/><path class="cls-17" d="M58.41,64.59a.64.64,0,0,1,.67-.63.65.65,0,0,1,.64.67.66.66,0,1,1-1.31,0Z"/><path class="cls-17" d="M60.69,63.26a.31.31,0,0,1,.62,0,.31.31,0,0,1-.62,0Z"/><path class="cls-17" d="M65.3,63.39a.37.37,0,1,1,.36.39A.38.38,0,0,1,65.3,63.39Z"/><path class="cls-17" d="M65.5,64.3a.64.64,0,0,1,1.28,0,.64.64,0,0,1-1.28,0Z"/><path class="cls-17" d="M45.11,75.83a.47.47,0,0,1,.61-.27.47.47,0,0,1,.27.61.47.47,0,1,1-.88-.34Z"/><path class="cls-17" d="M49.47,77.94a.35.35,0,0,1,.46-.21.35.35,0,0,1,.21.46.36.36,0,1,1-.67-.25Z"/><path class="cls-17" d="M49.85,77.05a.3.3,0,0,1-.27.33.29.29,0,0,1-.32-.26.3.3,0,0,1,.26-.34A.32.32,0,0,1,49.85,77.05Z"/><path class="cls-17" d="M48.93,76.14a.59.59,0,1,1-.65-.52A.59.59,0,0,1,48.93,76.14Z"/><path class="cls-17" d="M45.8,77.43a.54.54,0,0,1-.59.48.53.53,0,0,1-.48-.59.53.53,0,0,1,.59-.48A.54.54,0,0,1,45.8,77.43Z"/><path class="cls-17" d="M43.28,77.27a.42.42,0,0,1-.48.38.41.41,0,0,1-.38-.47.44.44,0,0,1,.47-.4A.45.45,0,0,1,43.28,77.27Z"/><path class="cls-17" d="M42.88,76.52a.61.61,0,0,1-.66.53.6.6,0,0,1,.12-1.19A.61.61,0,0,1,42.88,76.52Z"/><path class="cls-17" d="M43.62,75.64a.4.4,0,0,1-.57.08.4.4,0,0,1-.09-.57.41.41,0,1,1,.66.49Z"/><path class="cls-17" d="M38.77,74.71a.34.34,0,0,1-.47.07.34.34,0,0,1,.4-.54A.34.34,0,0,1,38.77,74.71Z"/><path class="cls-17" d="M38.86,72.71a.59.59,0,0,1-.82.12.58.58,0,0,1-.12-.82.59.59,0,0,1,.82-.13A.6.6,0,0,1,38.86,72.71Z"/><path class="cls-17" d="M37,71.46a.51.51,0,1,1-.21-.69A.51.51,0,0,1,37,71.46Z"/><path class="cls-17" d="M35.56,71.85A.41.41,0,0,1,35,72a.41.41,0,0,1-.17-.55.4.4,0,0,1,.55-.17A.41.41,0,0,1,35.56,71.85Z"/><path class="cls-17" d="M32,68.53a.23.23,0,0,1-.31.09.22.22,0,0,1-.09-.3.23.23,0,0,1,.3-.1A.24.24,0,0,1,32,68.53Z"/><path class="cls-17" d="M94.62,64.12c.35-.8.53,2.21-2.12,4.6a18.58,18.58,0,0,1-4.42,3.17c-.69.4-4,1.84-4.7,2.21A60.3,60.3,0,0,1,76.2,77a54,54,0,0,1-6.37,1.85,96.58,96.58,0,0,1-16.09,1.67c-5.66,0-2.58-1-2.49-1.76,1.92-.08,2.79,0,5.75-.23a96.18,96.18,0,0,0,12.55-1.68,60.67,60.67,0,0,0,13.14-4.42l.74-.3c.24-.13.48-.24.71-.37l1.39-.7,1.35-.69c.42-.24.82-.51,1.22-.75l2.26-1.42C91,67.65,93.54,66.55,94.62,64.12Z"/><path class="cls-17" d="M29.48,71c.68,4,9.59,7,15.28,8.22A47.23,47.23,0,0,0,52,80.38a8,8,0,0,0-.26-1.74A50.41,50.41,0,0,1,42.39,77C35.9,75.11,30,71.79,29.48,71Z"/><path class="cls-17" d="M38.66,56.06a87.16,87.16,0,0,1,13,2.71,62.75,62.75,0,0,1,12.24,5A31.24,31.24,0,0,0,52,57.5,36.23,36.23,0,0,0,38.66,56.06Z"/><path class="cls-17" d="M53.82,52.62c3.07.84,7.09,2,11.43,3.51l3.15,1.14c1,.42,2,.82,2.92,1.18s1.79.8,2.63,1.17,1.62.72,2.36,1c-.63-.48-1.33-1-2.09-1.51a20.55,20.55,0,0,0-2.48-1.55c-.91-.48-1.87-1-2.86-1.45s-2.1-.84-3.19-1.25A39.2,39.2,0,0,0,53.82,52.62Z"/><path class="cls-17" d="M70.48,52.36c2.32.58,5.29,1.46,8.49,2.6,1.62.54,3.09,1.21,4.51,1.72s2.62,1.15,3.76,1.55a32.61,32.61,0,0,0-3.33-2.42,26.8,26.8,0,0,0-4.5-2.09A21.2,21.2,0,0,0,70.48,52.36Z"/><path class="cls-15" d="M33.43,59.44c-.54-.37-.86-.44-1-.28s.06.56.56,1a39,39,0,0,0,10.41,6.37l2.91,1.08c.46.17.88.34,1.3.47l1.16.32,2.37.64a1.3,1.3,0,0,0,1.45-1.19,1.38,1.38,0,0,0-.88-1.67l-2.31-.4-1.14-.19L47,65.26l-2.9-.77-3.06-1.08c-1-.39-2-.87-3-1.29s-1.82-.94-2.62-1.38S34,59.84,33.43,59.44Z"/><path class="cls-8" d="M21.78,53.77a6.81,6.81,0,0,0,4.91,3A5.92,5.92,0,0,0,30,56.3a3.83,3.83,0,0,0,1.93-2A16.34,16.34,0,0,1,27,54.17,34.63,34.63,0,0,0,21.78,53.77Z"/><path class="cls-10" d="M54,46.27a4.8,4.8,0,0,0,1,2.43,5.39,5.39,0,0,0,2.74,1.81,4.62,4.62,0,0,0,3.36-.31,5.1,5.1,0,0,0,1.18-.85A7.59,7.59,0,0,0,63,48.3c-.41,0-.81,0-1.2,0s-.78,0-1.17,0A9,9,0,0,1,58.42,48C57,47.54,55.42,46.85,54,46.27Z"/><path class="cls-10" d="M72.13,46.14A5.21,5.21,0,0,0,72.61,49a5.15,5.15,0,0,0,1,1.44,4.08,4.08,0,0,0,1.86,1,4.92,4.92,0,0,0,1,.13l.83,0a4,4,0,0,0,.89-.09A4.59,4.59,0,0,0,79,51.3a6.13,6.13,0,0,0,2.27-1.73c-.82-.14-1.79-.12-2.58-.19l-2.58-.52a5.66,5.66,0,0,1-2-1.09Z"/><path class="cls-18" d="M23.59,71.31a2.23,2.23,0,1,1-2.23-2.11A2.17,2.17,0,0,1,23.59,71.31Z"/><path class="cls-9" d="M20.54,72c.08.35-1-.09-1-.9.08-1.88,1.94-1.44,1.58-1.2A1.87,1.87,0,0,0,20.54,72Z"/><ellipse class="cls-19" cx="29.51" cy="73.22" rx="2.22" ry="2.11"/><path class="cls-9" d="M28.68,73.94c.08.36-1-.08-1-.89.08-1.89,1.95-1.44,1.58-1.2A1.86,1.86,0,0,0,28.68,73.94Z"/><path class="cls-20" d="M34.52,77a2.92,2.92,0,1,1-2.92-2.77A2.85,2.85,0,0,1,34.52,77Z"/><path class="cls-9" d="M30.52,77.93c.11.47-1.37-.11-1.33-1.17.1-2.48,2.56-1.9,2.08-1.58A2.45,2.45,0,0,0,30.52,77.93Z"/><path class="cls-21" d="M27,76.11a2.92,2.92,0,1,1-2.92-2.78A2.85,2.85,0,0,1,27,76.11Z"/><path class="cls-9" d="M23,77.06c.1.47-1.37-.11-1.33-1.17.1-2.49,2.55-1.9,2.08-1.58A2.43,2.43,0,0,0,23,77.06Z"/><path class="cls-22" d="M38.28,77.5a2,2,0,1,1-1.69-2.16A1.94,1.94,0,0,1,38.28,77.5Z"/><path class="cls-9" d="M35.49,77.74c0,.33-.91-.21-.77-.92.31-1.66,1.9-1,1.55-.86A1.68,1.68,0,0,0,35.49,77.74Z"/><path class="cls-23" d="M40.71,81.46a2.92,2.92,0,1,1-2.92-2.77A2.84,2.84,0,0,1,40.71,81.46Z"/><path class="cls-9" d="M36.71,82.41c.11.48-1.37-.11-1.33-1.17.1-2.48,2.56-1.89,2.08-1.58A2.44,2.44,0,0,0,36.71,82.41Z"/><path class="cls-24" d="M45.29,79.73A2.34,2.34,0,1,1,43,77.51,2.28,2.28,0,0,1,45.29,79.73Z"/><path class="cls-9" d="M42.09,80.49c.08.38-1.1-.09-1.06-.93.08-2,2-1.52,1.66-1.27A1.94,1.94,0,0,0,42.09,80.49Z"/><path class="cls-25" d="M50.37,83.34a2.93,2.93,0,1,1-1.22-3.84A2.86,2.86,0,0,1,50.37,83.34Z"/><path class="cls-9" d="M46.4,82.24c-.13.46-1.14-.76-.59-1.66,1.28-2.13,3.15-.44,2.58-.39C47.25,80.29,46.68,81.26,46.4,82.24Z"/><path class="cls-26" d="M35.36,79.6a2.92,2.92,0,1,1-2.92-2.77A2.86,2.86,0,0,1,35.36,79.6Z"/><path class="cls-9" d="M31.35,80.55c.11.48-1.37-.11-1.32-1.17.1-2.48,2.55-1.9,2.07-1.58A2.45,2.45,0,0,0,31.35,80.55Z"/><path class="cls-27" d="M94.4,60.71a7.74,7.74,0,0,1,5.89,2.89,5.81,5.81,0,0,1,1.2,3,8.38,8.38,0,0,1-.56,3.25,5,5,0,0,0,2.48-3,5.59,5.59,0,0,0-1-4.91,6.21,6.21,0,0,0-4.29-2.38A4.89,4.89,0,0,0,94.4,60.71Z"/><path class="cls-28" d="M52.48,23.13c-1.63,2.43-2.59,4.68-1.95,6.6s2.68,3.47,5,4.47c-1.92-4.76,2.16-8.59,3.26-11s1.59-4.69.91-6.6a8.94,8.94,0,0,0-4-4.47,6,6,0,0,1,.46,4.44C55.72,18.45,54.12,20.71,52.48,23.13Z"/><path class="cls-28" d="M63.25,28.37c-1,1.51-1.61,2.92-1.21,4.12s1.67,2.16,3.13,2.79c-1.19-3,1.35-5.36,2-6.88a5.66,5.66,0,0,0,.56-4.12,5.58,5.58,0,0,0-2.49-2.8,3.71,3.71,0,0,1,.29,2.78A15.74,15.74,0,0,1,63.25,28.37Z"/></g></g></svg>