<svg xmlns="http://www.w3.org/2000/svg" xmlns:xlink="http://www.w3.org/1999/xlink" viewBox="0 0 118.21 101.94"><defs><style>.cls-1{fill:#8ec044;}.cls-2{fill:url(#linear-gradient);}.cls-3{fill:url(#linear-gradient-2);}.cls-4{fill:#efeeee;}.cls-5{fill:#5e686e;}.cls-6{fill:#d6dfe5;}.cls-7{fill:url(#linear-gradient-3);}.cls-8{fill:url(#linear-gradient-4);}.cls-9{fill:url(#linear-gradient-5);}.cls-10{fill:url(#linear-gradient-6);}.cls-11{fill:url(#linear-gradient-7);}.cls-12{fill:url(#linear-gradient-8);}.cls-13{fill:url(#linear-gradient-9);}.cls-14{fill:#f9fdff;}.cls-15{fill:#eef3f6;}.cls-16{fill:#7f929d;}.cls-17{fill:#dee5ea;}.cls-18{fill:url(#linear-gradient-10);}.cls-19{fill:url(#linear-gradient-11);}.cls-20{fill:url(#linear-gradient-12);}.cls-21{fill:url(#linear-gradient-13);}.cls-22{fill:url(#linear-gradient-14);}.cls-23{fill:url(#linear-gradient-15);}.cls-24{fill:url(#linear-gradient-16);}.cls-25{fill:url(#linear-gradient-17);}.cls-26{fill:url(#linear-gradient-18);}.cls-27{fill:url(#linear-gradient-19);}.cls-28{fill:url(#linear-gradient-20);}.cls-29{fill:url(#linear-gradient-21);}.cls-30{fill:url(#linear-gradient-22);}.cls-31{fill:url(#linear-gradient-23);}.cls-32{fill:url(#linear-gradient-24);}.cls-33{fill:url(#linear-gradient-25);}.cls-34{fill:url(#linear-gradient-26);}</style><linearGradient id="linear-gradient" x1="39.7" y1="41.05" x2="76.45" y2="41.05" gradientUnits="userSpaceOnUse"><stop offset="0" stop-color="#e6e6e6"/><stop offset="0.22" stop-color="#d8dadc"/><stop offset="0.65" stop-color="#b2b9c0"/><stop offset="1" stop-color="#8e9aa6"/></linearGradient><linearGradient id="linear-gradient-2" x1="41.32" y1="18.28" x2="62.14" y2="18.28" gradientUnits="userSpaceOnUse"><stop offset="0.01" stop-color="#9fa9af"/><stop offset="0.24" stop-color="#919ba1"/><stop offset="0.67" stop-color="#6d757b"/><stop offset="1" stop-color="#4e555b"/></linearGradient><linearGradient id="linear-gradient-3" x1="42.78" y1="22.88" x2="59.29" y2="70.16" gradientUnits="userSpaceOnUse"><stop offset="0.01" stop-color="#e1e8ec"/><stop offset="0.65" stop-color="#d5dae1"/><stop offset="1" stop-color="#cdd0d9"/></linearGradient><linearGradient id="linear-gradient-4" x1="22.56" y1="52.2" x2="38.24" y2="51.93" gradientUnits="userSpaceOnUse"><stop offset="0" stop-color="#c6cdd6"/><stop offset="0.24" stop-color="#e1e8ec"/><stop offset="0.45" stop-color="#ced5dc"/><stop offset="0.82" stop-color="#b0b8c2"/><stop offset="0.98" stop-color="#bfc8d3"/></linearGradient><linearGradient id="linear-gradient-5" x1="40.85" y1="52.2" x2="49.49" y2="52.05" gradientUnits="userSpaceOnUse"><stop offset="0.18" stop-color="#b0b8c2"/><stop offset="0.55" stop-color="#ced5dc"/><stop offset="0.76" stop-color="#e1e8ec"/><stop offset="1" stop-color="#c6cdd6"/></linearGradient><linearGradient id="linear-gradient-6" x1="24.54" y1="71.72" x2="46.73" y2="71.34" gradientUnits="userSpaceOnUse"><stop offset="0" stop-color="#c6cdd6"/><stop offset="0.24" stop-color="#e1e8ec"/><stop offset="0.82" stop-color="#b9c2cc"/><stop offset="0.98" stop-color="#bfc8d3"/></linearGradient><linearGradient id="linear-gradient-7" x1="22.46" y1="45.97" x2="38.64" y2="45.69" gradientUnits="userSpaceOnUse"><stop offset="0" stop-color="#bac3cf"/><stop offset="0.56" stop-color="#d3dae1"/><stop offset="0.99" stop-color="#e1e8ec"/></linearGradient><linearGradient id="linear-gradient-8" x1="40.85" y1="45.72" x2="49.63" y2="45.57" xlink:href="#linear-gradient-7"/><linearGradient id="linear-gradient-9" x1="22.34" y1="57.71" x2="48.98" y2="57.71" gradientUnits="userSpaceOnUse"><stop offset="0" stop-color="#f7fbfd"/><stop offset="0.7" stop-color="#e9eef1"/><stop offset="1" stop-color="#e1e7ea"/></linearGradient><linearGradient id="linear-gradient-10" x1="20.81" y1="46" x2="50.3" y2="45.48" gradientUnits="userSpaceOnUse"><stop offset="0" stop-color="#e1e7f2"/><stop offset="0.46" stop-color="#f1f4f9"/><stop offset="1" stop-color="#fff"/></linearGradient><linearGradient id="linear-gradient-11" x1="65.81" y1="93.9" x2="84.6" y2="61.1" gradientUnits="userSpaceOnUse"><stop offset="0.01" stop-color="#da8900"/><stop offset="0.16" stop-color="#e09305"/><stop offset="0.7" stop-color="#f4b315"/><stop offset="1" stop-color="#fcbf1b"/></linearGradient><linearGradient id="linear-gradient-12" x1="35.85" y1="76.89" x2="93.6" y2="76.89" gradientUnits="userSpaceOnUse"><stop offset="0.15" stop-color="#ffd70f"/><stop offset="0.34" stop-color="#f9cb0d"/><stop offset="0.68" stop-color="#eaab07"/><stop offset="0.99" stop-color="#da8900"/></linearGradient><linearGradient id="linear-gradient-13" x1="59.55" y1="71.94" x2="68.39" y2="105.59" gradientUnits="userSpaceOnUse"><stop offset="0" stop-color="#fff155"/><stop offset="0.21" stop-color="#fdec49"/><stop offset="0.59" stop-color="#f9df29"/><stop offset="0.99" stop-color="#f4cf00"/></linearGradient><linearGradient id="linear-gradient-14" x1="47.21" y1="88.9" x2="52.99" y2="88.9" gradientUnits="userSpaceOnUse"><stop offset="0" stop-color="#deb000"/><stop offset="0.39" stop-color="#dda400"/><stop offset="0.99" stop-color="#da8900"/></linearGradient><linearGradient id="linear-gradient-15" x1="56.46" y1="79.58" x2="59.9" y2="79.58" xlink:href="#linear-gradient-14"/><linearGradient id="linear-gradient-16" x1="80.19" y1="74.16" x2="83.63" y2="74.16" xlink:href="#linear-gradient-14"/><linearGradient id="linear-gradient-17" x1="65.23" y1="84.67" x2="71.08" y2="84.67" xlink:href="#linear-gradient-14"/><linearGradient id="linear-gradient-18" x1="353.9" y1="-858.06" x2="356.45" y2="-858.06" gradientTransform="matrix(-0.61, 1.04, -0.98, -0.58, -547.16, -785.58)" xlink:href="#linear-gradient-14"/><linearGradient id="linear-gradient-19" x1="80.38" y1="84.27" x2="85.02" y2="84.27" xlink:href="#linear-gradient-14"/><linearGradient id="linear-gradient-20" x1="86.72" y1="91.78" x2="90.16" y2="91.78" gradientUnits="userSpaceOnUse"><stop offset="0.01" stop-color="#da8900"/><stop offset="0.61" stop-color="#dda400"/><stop offset="1" stop-color="#deb000"/></linearGradient><linearGradient id="linear-gradient-21" x1="78.83" y1="94.49" x2="83.95" y2="94.49" xlink:href="#linear-gradient-14"/><linearGradient id="linear-gradient-22" x1="65.4" y1="74.5" x2="70.91" y2="74.5" xlink:href="#linear-gradient-14"/><linearGradient id="linear-gradient-23" x1="58.53" y1="90.25" x2="62.65" y2="90.25" xlink:href="#linear-gradient-14"/><linearGradient id="linear-gradient-24" x1="47.87" y1="78.9" x2="52.34" y2="78.9" xlink:href="#linear-gradient-14"/><linearGradient id="linear-gradient-25" x1="40.99" y1="89.07" x2="43.4" y2="89.07" xlink:href="#linear-gradient-14"/><linearGradient id="linear-gradient-26" x1="71.03" y1="93.13" x2="74.9" y2="93.13" xlink:href="#linear-gradient-14"/></defs><g id="Capa_2" data-name="Capa 2"><g id="Layer_1" data-name="Layer 1"><path class="cls-1" d="M59.1,49.76c23.56,0,44.69,3.39,59.11,8.74C115.22,25.66,89.91,0,59.1,0S3,25.66,0,58.5C14.42,53.15,35.55,49.76,59.1,49.76Z"/><polygon class="cls-2" points="40.63 76.2 39.7 19.91 49.45 13.08 49.45 6.9 63.11 2.34 64.74 2.67 64.59 8.84 76.45 17.31 76.45 69.02 64.74 79.76 40.63 76.2"/><polygon class="cls-3" points="41.32 20.23 50.43 14.05 62.14 22.51 41.32 20.23"/><polygon class="cls-4" points="51.31 7.06 49.7 6.9 63.15 2.39 64.59 2.53 51.31 7.06"/><polygon class="cls-5" points="41.32 20.23 50.43 14.05 53.26 16.29 41.32 20.23"/><polygon class="cls-6" points="51.8 13.54 64.59 8.84 76.45 17.31 63.94 22.28 51.8 13.54"/><polygon class="cls-7" points="39.82 20.66 63.3 23.25 64.27 79.28 40.79 75.55 39.82 20.66"/><polygon class="cls-8" points="20.91 45.74 22.12 58.1 40.11 58.39 40 45.74 20.91 45.74"/><polygon class="cls-9" points="50.41 45.74 40 45.74 40.11 58.39 49.15 58.54 50.41 45.74"/><path class="cls-10" d="M22.12,58.11l2.31,23.55c0,1.94,5,3.52,11.23,3.52s11.22-1.58,11.22-3.52l2.27-23.12Z"/><path class="cls-11" d="M35.66,42.21c-8.15,0-14.75,1.58-14.75,3.53s6.6,3.53,14.75,3.53c1.53,0,3-.06,4.41-.16L40,42.37C38.63,42.27,37.17,42.21,35.66,42.21Z"/><path class="cls-12" d="M50.41,45.74c0-1.59-4.38-2.93-10.41-3.37l.07,6.74C46.06,48.66,50.41,47.32,50.41,45.74Z"/><path class="cls-13" d="M49,57.71c0,1.95-6,3.53-13.32,3.53s-13.32-1.58-13.32-3.53,6-3.53,13.32-3.53S49,55.76,49,57.71Z"/><polygon class="cls-14" points="29.18 81.33 26.71 49.43 28.39 49.66 29.73 81.55 29.18 81.33"/><path class="cls-15" d="M24.92,80.31a19.71,19.71,0,0,0,10.6,3c1.08,0,2.12-.11,3.13-.18a27.77,27.77,0,0,0,2.9-.5c.46-.13.91-.23,1.34-.38s.84-.32,1.22-.52c.73-.41,1.49-.94,1.62-1.69a2.82,2.82,0,0,1-1.81,1.23c-.39.12-.81.2-1.22.3s-.87.13-1.31.2c-.89.14-1.86.16-2.83.26s-2,.1-3.05.09A32.81,32.81,0,0,1,24.92,80.31Z"/><path class="cls-16" d="M25.37,81.88A9.55,9.55,0,0,0,30,84.25a21.14,21.14,0,0,0,3,.54c1,.1,2.13.11,3.24.14a21.15,21.15,0,0,0,6.2-.93,10.39,10.39,0,0,0,2.53-1.21,3.3,3.3,0,0,0,1.49-1.92,3.35,3.35,0,0,1-1.74,1.49,12.5,12.5,0,0,1-2.51.8,31.84,31.84,0,0,1-6,.59c-1.07,0-2.12,0-3.13-.06s-2-.11-2.9-.29A12.13,12.13,0,0,1,25.37,81.88Z"/><polygon class="cls-17" points="31.19 43.28 29.73 43.39 30.74 54.13 31.08 53.91 31.19 43.28"/><path class="cls-18" d="M35.55,49.69c-7.15,0-14.75-1.38-14.75-3.95s7.6-4,14.75-4,14.75,1.38,14.75,4S42.7,49.69,35.55,49.69Zm0-7c-8.61,0-13.89,1.81-13.89,3.1s5.28,3.1,13.89,3.1,13.9-1.81,13.9-3.1S44.16,42.64,35.55,42.64Z"/><path class="cls-19" d="M91,95.15a2.12,2.12,0,0,1,2-2.08l.29-12.75a2.82,2.82,0,0,1,.12-5.44l.14-6.09-5.35,3.38L38.67,92.09l-1.34-.53-1.48,1.65c0,.16,0,.26,0,.26l52.6,8.47,4.47-2.37,0-2.35A2.12,2.12,0,0,1,91,95.15Z"/><path class="cls-20" d="M93.6,68.74c-.63-.87-7.91-8.81-21.32-8.13-33.17,1.68-36.2,29.73-36.43,32.6l1.48-1.49,2.16-1L83.62,73l1.23-.52,3.4-.31,5.35-3.39Z"/><path class="cls-21" d="M36.56,92.9s4.78-17.72,20.25-21.11,31.29.34,31.29.34l.34,28.79Z"/><path class="cls-22" d="M52.82,87.83a2.75,2.75,0,0,1-1.72,3.52A2.83,2.83,0,0,1,47.39,90a2.76,2.76,0,0,1,1.72-3.52A2.83,2.83,0,0,1,52.82,87.83Z"/><path class="cls-23" d="M59.9,79.58a1.73,1.73,0,1,1-1.72-1.52A1.63,1.63,0,0,1,59.9,79.58Z"/><path class="cls-24" d="M83.63,74.16a1.73,1.73,0,1,1-1.72-1.52A1.64,1.64,0,0,1,83.63,74.16Z"/><path class="cls-25" d="M71.08,84.66A2.93,2.93,0,1,1,68.16,82,2.82,2.82,0,0,1,71.08,84.66Z"/><path class="cls-26" d="M75.1,81.07a1.56,1.56,0,0,1-.63-2.14,1.62,1.62,0,0,1,2.21-.5,1.57,1.57,0,0,1,.63,2.15A1.61,1.61,0,0,1,75.1,81.07Z"/><path class="cls-27" d="M85,84.27A2.32,2.32,0,1,1,82.7,82,2.29,2.29,0,0,1,85,84.27Z"/><path class="cls-28" d="M90.16,91.78a1.74,1.74,0,1,1-1.72-2A1.9,1.9,0,0,1,90.16,91.78Z"/><path class="cls-29" d="M84,94.49a2.61,2.61,0,1,1-2.56-2.1A2.37,2.37,0,0,1,84,94.49Z"/><path class="cls-30" d="M70.91,74.5a2.79,2.79,0,1,1-2.75-2.37A2.59,2.59,0,0,1,70.91,74.5Z"/><path class="cls-31" d="M62.65,90.25a2.06,2.06,0,1,1-2.06-2.2A2.14,2.14,0,0,1,62.65,90.25Z"/><path class="cls-32" d="M52.34,78.91a2.32,2.32,0,1,1-2.24-1.7A2,2,0,0,1,52.34,78.91Z"/><path class="cls-33" d="M43.4,89.07a1.21,1.21,0,1,1-1.2-1.36A1.28,1.28,0,0,1,43.4,89.07Z"/><path class="cls-34" d="M74.9,93.13a1.94,1.94,0,1,1-1.93-2A2,2,0,0,1,74.9,93.13Z"/></g></g></svg>