<svg xmlns="http://www.w3.org/2000/svg" xmlns:xlink="http://www.w3.org/1999/xlink" viewBox="0 0 268.33 268.33"><defs><style>.cls-1{fill:url(#radial-gradient);}.cls-2{fill:#646363;}.cls-3{fill:url(#linear-gradient);}.cls-4{fill:url(#linear-gradient-2);}.cls-5{fill:url(#linear-gradient-3);}.cls-6{fill:url(#linear-gradient-4);}.cls-7{fill:url(#radial-gradient-2);}</style><radialGradient id="radial-gradient" cx="134.16" cy="134.16" r="134.16" gradientTransform="translate(243.89 -20.62) rotate(80.33)" gradientUnits="userSpaceOnUse"><stop offset="0.01" stop-color="#d5df79"/><stop offset="0.58" stop-color="#89b250"/><stop offset="1" stop-color="#549333"/></radialGradient><linearGradient id="linear-gradient" x1="134.01" y1="90.32" x2="134.01" y2="168.63" gradientUnits="userSpaceOnUse"><stop offset="0" stop-color="#cecece"/><stop offset="0.6" stop-color="#ececec"/><stop offset="1" stop-color="#fafafa"/></linearGradient><linearGradient id="linear-gradient-2" x1="134.16" y1="88.6" x2="134.16" y2="176.81" gradientUnits="userSpaceOnUse"><stop offset="0" stop-color="#f9f8f8"/><stop offset="0.17" stop-color="#f4f3f3"/><stop offset="0.37" stop-color="#e6e5e5"/><stop offset="0.58" stop-color="#cfcece"/><stop offset="0.79" stop-color="#afafae"/><stop offset="1" stop-color="#898988"/></linearGradient><linearGradient id="linear-gradient-3" x1="134.38" y1="105.45" x2="134.38" y2="156.64" gradientUnits="userSpaceOnUse"><stop offset="0" stop-color="#d2d2d2"/><stop offset="0.21" stop-color="#d7d7d7"/><stop offset="1" stop-color="#e5e5e5"/></linearGradient><linearGradient id="linear-gradient-4" x1="133.83" y1="106.87" x2="134.99" y2="160.54" gradientUnits="userSpaceOnUse"><stop offset="0.01" stop-color="#949494"/><stop offset="0.19" stop-color="#b5b5b5"/><stop offset="0.41" stop-color="#d5d5d5"/><stop offset="0.63" stop-color="#ececec"/><stop offset="0.83" stop-color="#fafafa"/><stop offset="1" stop-color="#fff"/></linearGradient><radialGradient id="radial-gradient-2" cx="162.29" cy="105.58" r="0.13" gradientUnits="userSpaceOnUse"><stop offset="0" stop-color="#f3b15a"/><stop offset="0.18" stop-color="#eba550"/><stop offset="0.49" stop-color="#d78536"/><stop offset="0.91" stop-color="#b7520d"/><stop offset="0.99" stop-color="#b04704"/></radialGradient></defs><g id="Capa_2" data-name="Capa 2"><g id="Layer_1" data-name="Layer 1"><circle class="cls-1" cx="134.16" cy="134.16" r="134.16" transform="translate(-20.62 243.89) rotate(-80.33)"/><path class="cls-2" d="M217.3,147.85c0,17.6-37.36,31.87-83.44,31.87s-83.43-14.27-83.43-31.87S87.78,116,133.86,116,217.3,130.24,217.3,147.85Z"/><path class="cls-3" d="M236.78,132.28c0,23.49-44.37,41.75-102.39,41.75S31.25,155.77,31.25,132.28,76.34,88.94,134.39,88.94,236.78,108.77,236.78,132.28Z"/><path class="cls-4" d="M133.24,176.81C75.82,176.81,31,156.6,31,132.28S75.82,88.6,133.24,88.6s104.13,19.79,104.13,44.12S190.66,176.81,133.24,176.81Zm1.15-86.34c-55.85,0-101.29,18.41-101.29,41.06s45.44,41,101.29,41,101.27-18.42,101.27-41S190.23,90.47,134.39,90.47Z"/><path class="cls-5" d="M203.06,132.36c0,15.36-30.75,27.81-68.67,27.81S65.7,147.72,65.7,132.36s30.75-27.82,68.69-27.82S203.06,117,203.06,132.36Z"/><path class="cls-6" d="M134.39,164.79c-42.29,0-76.68-14.55-76.68-32.43S92.1,99.91,134.39,99.91s76.66,14.55,76.66,32.45S176.66,164.79,134.39,164.79Zm0-58.41c-35.36,0-64.15,11.66-64.15,26s28.79,26,64.15,26,64.11-11.65,64.11-26S169.74,106.38,134.39,106.38Z"/><path class="cls-7" d="M162.51,105.51a1,1,0,0,0-.32.17A1.26,1.26,0,0,0,162.51,105.51Z"/></g></g></svg>