<svg xmlns="http://www.w3.org/2000/svg" xmlns:xlink="http://www.w3.org/1999/xlink" viewBox="0 0 118.21 98.2"><defs><style>.cls-1{fill:#8ec044;}.cls-2{fill:#d2d2d2;}.cls-3{fill:#b7b6b6;}.cls-4{fill:url(#linear-gradient);}.cls-5{fill:#909090;}.cls-6{fill:url(#linear-gradient-2);}.cls-7{fill:url(#linear-gradient-3);}.cls-8{fill:#504f4e;}.cls-9{fill:url(#linear-gradient-4);}.cls-10{fill:url(#linear-gradient-5);}.cls-11{fill:url(#linear-gradient-6);}.cls-12{fill:#f07f4e;}.cls-13{fill:#eb5d46;}.cls-14{fill:#d75322;}.cls-15{fill:#646363;}.cls-16{fill:url(#linear-gradient-7);}.cls-17{fill:url(#linear-gradient-8);}.cls-18{fill:url(#linear-gradient-9);}.cls-19{fill:url(#linear-gradient-10);}.cls-20{fill:#823b05;}.cls-21{fill:url(#linear-gradient-11);}.cls-22{fill:url(#linear-gradient-12);}.cls-23{fill:url(#linear-gradient-13);}.cls-24{fill:url(#radial-gradient);}.cls-25{fill:url(#radial-gradient-2);}.cls-26{fill:url(#radial-gradient-3);}.cls-27{fill:#fab750;}.cls-28{fill:#fbc27e;}.cls-29{fill:url(#linear-gradient-14);}.cls-30{fill:#ed923b;}.cls-31{fill:#893012;}.cls-32{fill:#6f270a;}.cls-33{fill:#d69932;}.cls-34{fill:#732f0c;}.cls-35{fill:#8e3a14;}.cls-36{fill:#fbba00;}.cls-37{fill:#e27100;}.cls-38{fill:url(#linear-gradient-15);}.cls-39{fill:#c6c6c6;}.cls-40{fill:url(#radial-gradient-4);}.cls-41{fill:#f1c687;}.cls-42{fill:#f9be8f;}.cls-43{fill:#dadada;}</style><linearGradient id="linear-gradient" x1="13.39" y1="48.64" x2="41.32" y2="48.64" gradientUnits="userSpaceOnUse"><stop offset="0" stop-color="#dcdcdc"/><stop offset="0.19" stop-color="#cecece"/><stop offset="0.54" stop-color="#a8a8a8"/><stop offset="1" stop-color="#706f6f"/></linearGradient><linearGradient id="linear-gradient-2" x1="27.37" y1="37.26" x2="27.37" y2="43.9" gradientUnits="userSpaceOnUse"><stop offset="0" stop-color="#9b9b9a"/><stop offset="0.53" stop-color="#b0b0b0"/><stop offset="1" stop-color="#bebebe"/></linearGradient><linearGradient id="linear-gradient-3" x1="27.36" y1="45.57" x2="27.36" y2="36.28" gradientUnits="userSpaceOnUse"><stop offset="0" stop-color="#fff"/><stop offset="0.76" stop-color="#f1f1f1"/><stop offset="1" stop-color="#ebebeb"/></linearGradient><linearGradient id="linear-gradient-4" x1="39.59" y1="33.76" x2="40.63" y2="34.5" gradientUnits="userSpaceOnUse"><stop offset="0.01" stop-color="#ddd"/><stop offset="0.99" stop-color="#b0b0b0"/></linearGradient><linearGradient id="linear-gradient-5" x1="14.93" y1="41.6" x2="39.71" y2="41.6" gradientUnits="userSpaceOnUse"><stop offset="0" stop-color="#d52610"/><stop offset="0.22" stop-color="#c9230f"/><stop offset="0.61" stop-color="#a91c0e"/><stop offset="1" stop-color="#84130c"/></linearGradient><linearGradient id="linear-gradient-6" x1="16.43" y1="39.26" x2="37.97" y2="39.26" xlink:href="#linear-gradient-5"/><linearGradient id="linear-gradient-7" x1="60.88" y1="48.86" x2="60.88" y2="88.17" gradientUnits="userSpaceOnUse"><stop offset="0" stop-color="#cecece"/><stop offset="0.6" stop-color="#ececec"/><stop offset="1" stop-color="#fafafa"/></linearGradient><linearGradient id="linear-gradient-8" x1="60.95" y1="48" x2="60.95" y2="92.27" gradientUnits="userSpaceOnUse"><stop offset="0" stop-color="#f9f8f8"/><stop offset="0.17" stop-color="#f4f3f3"/><stop offset="0.37" stop-color="#e6e5e5"/><stop offset="0.58" stop-color="#cfcece"/><stop offset="0.79" stop-color="#afafae"/><stop offset="1" stop-color="#898988"/></linearGradient><linearGradient id="linear-gradient-9" x1="61.06" y1="56.45" x2="61.06" y2="82.14" gradientUnits="userSpaceOnUse"><stop offset="0" stop-color="#d2d2d2"/><stop offset="0.21" stop-color="#d7d7d7"/><stop offset="1" stop-color="#e5e5e5"/></linearGradient><linearGradient id="linear-gradient-10" x1="60.78" y1="57.17" x2="61.37" y2="84.11" gradientUnits="userSpaceOnUse"><stop offset="0.01" stop-color="#949494"/><stop offset="0.19" stop-color="#b5b5b5"/><stop offset="0.41" stop-color="#d5d5d5"/><stop offset="0.63" stop-color="#ececec"/><stop offset="0.83" stop-color="#fafafa"/><stop offset="1" stop-color="#fff"/></linearGradient><linearGradient id="linear-gradient-11" x1="40.22" y1="55.92" x2="28.3" y2="65.2" gradientUnits="userSpaceOnUse"><stop offset="0" stop-color="#f3b15a"/><stop offset="0.18" stop-color="#eba550"/><stop offset="0.49" stop-color="#d78536"/><stop offset="0.91" stop-color="#b7520d"/><stop offset="0.99" stop-color="#b04704"/></linearGradient><linearGradient id="linear-gradient-12" x1="-976.34" y1="-670.91" x2="-965.64" y2="-670.91" gradientTransform="matrix(-0.98, -0.11, 0.13, -1.17, -835.29, -813.5)" gradientUnits="userSpaceOnUse"><stop offset="0" stop-color="#0b441a"/><stop offset="0.38" stop-color="#1f5c22"/><stop offset="0.99" stop-color="#468a32"/></linearGradient><linearGradient id="linear-gradient-13" x1="1357.58" y1="46.52" x2="1381.55" y2="46.52" gradientTransform="translate(-1267.44 -35.06) rotate(2.17)" xlink:href="#linear-gradient-12"/><radialGradient id="radial-gradient" cx="49.82" cy="54.42" r="23.79" gradientUnits="userSpaceOnUse"><stop offset="0" stop-color="#f09934"/><stop offset="0.2" stop-color="#e58d2d"/><stop offset="0.56" stop-color="#c96d1c"/><stop offset="0.98" stop-color="#a14003"/></radialGradient><radialGradient id="radial-gradient-2" cx="59.13" cy="64.07" r="20.99" gradientUnits="userSpaceOnUse"><stop offset="0.01" stop-color="#bc580f"/><stop offset="0.34" stop-color="#b04d0b"/><stop offset="0.96" stop-color="#902f02"/><stop offset="0.99" stop-color="#8e2d01"/></radialGradient><radialGradient id="radial-gradient-3" cx="75.07" cy="56.52" r="0.06" xlink:href="#linear-gradient-11"/><linearGradient id="linear-gradient-14" x1="48.41" y1="56.35" x2="38.87" y2="75.96" gradientUnits="userSpaceOnUse"><stop offset="0.01" stop-color="#bc580f"/><stop offset="0.99" stop-color="#b54f03"/><stop offset="0.99" stop-color="#b54f03"/></linearGradient><linearGradient id="linear-gradient-15" x1="26.77" y1="76.32" x2="37.48" y2="76.32" gradientTransform="matrix(1, 0, 0, 1, 0, 0)" xlink:href="#linear-gradient-12"/><radialGradient id="radial-gradient-4" cx="48.45" cy="78.96" r="5.74" gradientUnits="userSpaceOnUse"><stop offset="0" stop-color="#e84b0f"/><stop offset="0.28" stop-color="#e23f11"/><stop offset="0.79" stop-color="#d31f16"/><stop offset="1" stop-color="#cc1018"/></radialGradient></defs><g id="Capa_2" data-name="Capa 2"><g id="Layer_1" data-name="Layer 1"><path class="cls-1" d="M59.1,49.76c23.56,0,44.69,3.39,59.11,8.74C115.22,25.66,89.91,0,59.1,0S3,25.66,0,58.5C14.42,53.15,35.55,49.76,59.1,49.76Z"/><ellipse class="cls-2" cx="60.4" cy="81.04" rx="42.77" ry="17.17"/><path class="cls-3" d="M39.83,55.43c0,2.52-5.2,4.57-11.6,4.57s-11.6-2-11.6-4.57,5.19-4.56,11.6-4.56S39.83,52.91,39.83,55.43Z"/><path class="cls-4" d="M13.51,40.46a10,10,0,0,0-.1,1.46c0,4.26-.49,7.55,4.25,10V53.6h0c.09,1.42,4.33,3.23,9.61,3.23S37,55,37.05,53.6h0V51.91c4.73-2.44,4.24-5.73,4.24-10a10,10,0,0,0-.1-1.46Z"/><path class="cls-5" d="M18.1,51.54a16.88,16.88,0,0,0,9.25,2.77c3.76.1,7.37-.88,9.23-2.72-2.34,1-5.61,1.32-9.19,1.25A40.07,40.07,0,0,1,18.1,51.54Z"/><path class="cls-6" d="M41.1,40.75c0,2-6.15,3.6-13.73,3.6s-13.74-1.61-13.74-3.6,6.15-3.6,13.74-3.6S41.1,38.76,41.1,40.75Z"/><path class="cls-7" d="M27.36,45.57c-6.82,0-13.88-1.73-13.88-4.64s7.06-4.65,13.88-4.65S41.24,38,41.24,40.93,34.18,45.57,27.36,45.57Zm0-8.6c-7.88,0-13.18,2.05-13.18,4s5.3,4,13.18,4,13.18-2.05,13.18-4S35.24,37,27.36,37Z"/><path class="cls-8" d="M45.06,27.93a1.67,1.67,0,0,0-1.73.4l-3.16,5-4.49,7.22,1.06.29c1.37-1.69,3.29-4.55,5.26-7L45.78,29C46.06,28.61,45.74,28.12,45.06,27.93Z"/><path class="cls-9" d="M44.72,27.81A1.64,1.64,0,0,0,43,28.2l-3.16,5c-1.57,2.53-3.38,5.43-4.5,7.22l1.07.29c1.37-1.69,3.29-4.56,5.26-7l3.78-4.81C45.72,28.49,45.4,28,44.72,27.81Z"/><path class="cls-10" d="M39.71,41.61c0,1.74-5.54,3.16-12.39,3.16s-12.39-1.42-12.39-3.16,5.55-3.17,12.39-3.17S39.71,39.86,39.71,41.61Z"/><path class="cls-11" d="M17.38,38.6a6,6,0,0,1,1.86-1.2c1-.38,1.67.15,2.31-.76,1.56-2.22,8.21-2.59,11-.31a7.72,7.72,0,0,1,4.1,1.77,2.81,2.81,0,0,1,1.26,3.06c-.5,1.92-2.91,1.77-4.46,1.93-2.37.23-4.78.3-7.13.54a21.33,21.33,0,0,1-8.18-.81C16.12,42.2,15.94,40.06,17.38,38.6Z"/><path class="cls-12" d="M26.29,41.08l-1.17-.25a12.07,12.07,0,0,1-2.42-.76c-.4-.23-.82-.4-1.15-.64a6,6,0,0,1-.85-.69l-.28-.3-.18-.25A1.46,1.46,0,0,1,20.1,38c-.1-.12-.48.06-.94.28s-.66.7-.47.92a1.57,1.57,0,0,0,.31.28l.34.28.48.29a6.58,6.58,0,0,0,1.22.56,12.28,12.28,0,0,0,1.42.37,12.69,12.69,0,0,0,2.65.16Z"/><path class="cls-13" d="M22.87,43.12l-1-.18a5.12,5.12,0,0,1-1-.24,7.16,7.16,0,0,1-1.12-.4,6,6,0,0,1-1.77-1.17,3.21,3.21,0,0,1-.58-.68c-.11-.11-.44,0-.82.29s-.53.66-.36.83a1.8,1.8,0,0,0,.27.23,4.65,4.65,0,0,0,.73.47,7.18,7.18,0,0,0,2.33.81,6.91,6.91,0,0,0,1.26.13,5.6,5.6,0,0,0,1.09,0Z"/><path class="cls-12" d="M26.63,35.74H26a2.53,2.53,0,0,0-.71.06,3.1,3.1,0,0,0-.82.21,3.08,3.08,0,0,0-.78.36,3.61,3.61,0,0,0-.64.45,3.66,3.66,0,0,0-.55.58c-.08.13.05.35.29.44s.46.12.52,0a3,3,0,0,1,.33-.52,4,4,0,0,1,1-.92,3.16,3.16,0,0,1,.69-.34,2.66,2.66,0,0,1,.65-.2Z"/><path class="cls-14" d="M26.45,38.86,27.6,39a9.8,9.8,0,0,0,1.18.09h1.37c.46,0,.93-.13,1.38-.19a11.19,11.19,0,0,0,1.19-.38,4.52,4.52,0,0,0,.82-.46l.3-.23a.41.41,0,0,0-.09-.64c-.23-.1-.46-.13-.58,0l-.2.19a3.49,3.49,0,0,1-.62.44,8.88,8.88,0,0,1-1,.47l-1.26.34-1.32.18c-.42.06-.82,0-1.16.06Z"/><path class="cls-14" d="M30.76,42.23l1.14.11a10.14,10.14,0,0,0,1.18.09h1.37c.47-.05.94-.13,1.38-.19a12.21,12.21,0,0,0,1.2-.38,4.38,4.38,0,0,0,.81-.46,3.76,3.76,0,0,0,.31-.23.41.41,0,0,0-.09-.64c-.23-.1-.47-.13-.59,0s-.07.07-.2.19a2.93,2.93,0,0,1-.61.44,9.78,9.78,0,0,1-1,.47L34.39,42l-1.32.18a9.8,9.8,0,0,1-1.16.06Z"/><path class="cls-15" d="M102.68,77.73c0,8.84-18.75,16-41.88,16s-41.88-7.16-41.88-16,18.75-16,41.88-16S102.68,68.9,102.68,77.73Z"/><path class="cls-16" d="M112.45,69.92c0,11.79-22.26,21-51.38,21S9.3,81.71,9.3,69.92,31.93,48.17,61.07,48.17,112.45,58.12,112.45,69.92Z"/><path class="cls-17" d="M60.49,92.27c-28.82,0-51.34-10.14-51.34-22.35S31.67,48,60.49,48s52.26,9.93,52.26,22.14S89.31,92.27,60.49,92.27Zm.58-43.33c-28,0-50.84,9.24-50.84,20.6S33,90.14,61.07,90.14s50.82-9.24,50.82-20.6S89.09,48.94,61.07,48.94Z"/><path class="cls-18" d="M95.53,70c0,7.71-15.43,14-34.46,14S26.59,77.67,26.59,70,42,56,61.07,56,95.53,62.25,95.53,70Z"/><path class="cls-19" d="M61.07,86.24c-21.23,0-38.49-7.31-38.49-16.28S39.84,53.67,61.07,53.67,99.54,61,99.54,70,82.28,86.24,61.07,86.24Zm0-29.32c-17.75,0-32.2,5.85-32.2,13s14.45,13,32.2,13,32.17-5.85,32.17-13S78.81,56.92,61.07,56.92Z"/><path class="cls-20" d="M86.07,46.67c0-1.34-1.06-1.34-2-1.31-.29,0-.8,0-.28,0a1.29,1.29,0,0,0-1-2.18c-1.84.15-2.37,2.26-2.37,2.26a22.85,22.85,0,0,1-10.58,1.38l3.4,5.31c3.48-1.66,8.7-3.84,8.7-3.84C83,49,86.1,48.75,86.07,46.67Z"/><path class="cls-21" d="M31.62,68S22,60.26,24.34,57.87,35.05,52,36.55,51.62s3.43.18,3,1.11c0,0-4.07,2-6,3.12s-3.85,1.84-3.43,2.57,5.14,3.87,7.07,5.52S39.76,71.11,31.62,68Z"/><path class="cls-22" d="M28.77,69.54c.15-1.12.76-2.09.78-3.16a1.36,1.36,0,0,0-1.24.83c-.72-.51-.48-1.69-1.42-2.23a2.18,2.18,0,0,0-.71,1.49c-.31-.1-1.07-.58-1.33-.23s.27.76.46.92a7.06,7.06,0,0,0-.91-.11c-.23.71,1.37,1.71,1.88,2.16-.87-.13-2.3-.88-3.09-.62-.22.43,0,.8.42,1.06-.75-.12-3.21-.42-1.46.7-.37,0-.71.08-1.07.1a1.14,1.14,0,0,0-.08.63,2.44,2.44,0,0,1,1.05.27c-1,1.07.42.82,1.07.53-.1.22,0,.5-.09.72a1.52,1.52,0,0,0,1.14-.5c0,.92.95.08,1.21-.28a6.64,6.64,0,0,0,.64-.24c-.19.7-.86,1-.85,1.76.3,0,.45.08.72-.1a2.47,2.47,0,0,0-.48,2.05c.68.19,1.71-.63,1.9-1.19.3.41.78,1.15,1.43,1.07.53-.59-.06-1-.24-1.51s-.12-1.4-.39-2c.22.76,1.75,1.32,2.55,1.3-.05-.1-.06-.31-.16-.43.44.09.76-.07.77-.47-.77-.44-1.53-.68-2.3-1.14.48-.77,2.94-1.34,2.86-2.06a5.81,5.81,0,0,0-1.61-.06.82.82,0,0,0,.37-.9c-.88-.31-1.6,1.39-1.85,1.88Z"/><path class="cls-23" d="M98,68.81c2.21-4.31,9.36-6.2,13.44-7-.33,0-2.14-1.42-2.55-.84a1.28,1.28,0,0,0-.2.53l-.13.13a.27.27,0,0,0-.11-.37c-.23-.13-.55.12-.92.51a2.31,2.31,0,0,1-1.77,1c.79-.4.9-1.2.47-1.44a.78.78,0,0,0-1.07.26c-.06-.25-.36-.33-.56-.32s-.54.11-.6.66a1.61,1.61,0,0,1-.59,1.37c-.21.22-.45,0-.24-.13.57-.66.38-1,.2-1.24a.59.59,0,0,0-.82,0,.84.84,0,0,0-.88-.72c-.62,0-.67.5-.36,1.1-.44-.27-.83.07-.52.64.45.82.3.93.23,1.23a.44.44,0,0,1-.16.25c.28-.42.14-.87-.22-1a.55.55,0,0,0-.4-.26.5.5,0,0,0-.6.47c-.28-.24-.67-.17-.65.14-.14.09-.23.24-.16.56a1.36,1.36,0,0,1,.07.25h-.19a.42.42,0,0,0-.12-.08.45.45,0,0,0-.23,0l-.08,0-.15,0a1.18,1.18,0,0,1,.28-.23c.16-.12.19-.24.16-.34.14-.15,0-.36-.22-.37a.35.35,0,0,0-.06-.5A.3.3,0,0,0,98,63c-.2-.12-.45,0-.5.38a.32.32,0,0,1,0-.2c.1-.18.07-.3.61-.52.37-.14.35-.48,0-.54.38-.17.55-.42.3-.71a.46.46,0,0,0-.68,0A.36.36,0,0,0,97.5,61c-.16,0-.4.13-.43.71,0,.17-.17.16-.16,0a1.17,1.17,0,0,1,.32-1c.2-.31.13-.47,0-.6a.3.3,0,0,0-.38-.1.49.49,0,0,0-.35-.6c-.28-.08-.57.37-.4.93a1.63,1.63,0,0,1-.35-1.29c0-.37,0-.64-.18-.67a.18.18,0,0,0-.21.14.28.28,0,0,0,0-.13.78.78,0,0,0,.14-.35c.07-.48-1.31-.58-1.45-.73A20.36,20.36,0,0,1,97,63.57l-.09,0c.06-.29,0-.44-.35-.5a.6.6,0,0,0-.43.11.5.5,0,0,0-.48.67.28.28,0,0,1-.06-.22c0-.24-.05-.36.58-.89.44-.35.23-.7-.22-.59.45-.4.55-.75,0-.92a.86.86,0,0,0-1,.34.54.54,0,0,0-.69-.18c-.22.12-.5.36-.23,1,.12.16-.14.26-.24,0a1.1,1.1,0,0,1-.06-1.17c.12-.44-.08-.56-.29-.64a.54.54,0,0,0-.58.11.64.64,0,0,0-.82-.43c-.43.08-.59.71-.06,1.2a1.78,1.78,0,0,1-1.17-1.16c-.18-.38-.37-.64-.6-.59A.24.24,0,0,0,90,60a.37.37,0,0,0-.07-.14.73.73,0,0,0,0-.44c-.15-.54-2.12.14-2.4.06,5.19,2.62,7.65,5.77,8.8,8.15C96,67.55,97.19,68.27,98,68.81Z"/><path class="cls-24" d="M88.55,58.69c.94,1.66,2.92,3.45,6.64,4.25s3.23,5.81-1.59,9.81c-5.88,4.88-35.48,17.9-61.75,2C16.43,65.38,46.09,32.68,74.49,46.49,81.12,49.71,85.32,53,88.55,58.69Z"/><path class="cls-25" d="M58.56,81.78C52.46,79.92,46.62,71.17,49,65.33s4.78-8.23,18.84-8.76,17.52-2.39,21.77-5c0,0,0-3.19,2.12-3.19,0,0,2.65.53,1.33,2.39s-.8,0-.8,0,3.45-1.59,4,.8S93.33,55,92,54.45c0,0-9.83,6.2-11.41,8.75C78.22,67,77.69,67,75.81,69c0,0,2.94-1.74,7.18,2S79.73,88.22,58.56,81.78Z"/><path class="cls-26" d="M75.18,56.49a.61.61,0,0,0-.16.08Z"/><path class="cls-27" d="M59.44,45l-1.17.23c-.37.09-.84.14-1.35.3l-1.7.57a30.76,30.76,0,0,0-8.38,5.15,53.25,53.25,0,0,0-7,7.21c-.86,1.08-1.56,2-2,2.68s-.75,1.07-.77,1.1a1.55,1.55,0,0,0,.63,2.15,1.6,1.6,0,0,0,2.13-.55l.61-1.09c.38-.68.94-1.63,1.65-2.74A50.61,50.61,0,0,1,48,52.4a29.4,29.4,0,0,1,7.48-5.84L57,45.8c.48-.21.93-.31,1.29-.44Z"/><path class="cls-28" d="M27.34,62.27a8.71,8.71,0,0,1-1.4-2.34c-.26-.93,0-1.31,1.11-2,.49-.33.94-.67,1.4-1s.92-.61,1.35-.92c.86-.6,1.65-1.18,2.31-1.72a13.27,13.27,0,0,0-2.81.79c-.5.2-1,.43-1.54.69s-1,.62-1.56,1a6.21,6.21,0,0,0-.77.58,2.67,2.67,0,0,0-.68.93A2.37,2.37,0,0,0,25,60.39,5,5,0,0,0,27.34,62.27Z"/><path class="cls-27" d="M28.76,68.45a16.64,16.64,0,0,1,2.68-8.18l.65-1a11.69,11.69,0,0,1,.77-1,24.72,24.72,0,0,1,1.69-1.92l1.9-1.89c.63-.65,1.36-1.2,2-1.82a32,32,0,0,1,8.9-5.34c3-1.23,5.9-2.12,8.31-3a74,74,0,0,0-8.67,2,27.19,27.19,0,0,0-9.47,5.23c-.71.64-1.47,1.23-2.1,1.9l-1.89,2a19.66,19.66,0,0,0-1.69,2.1,11,11,0,0,0-.75,1.08l-.61,1.13A14.57,14.57,0,0,0,28.76,68.45Z"/><path class="cls-29" d="M41.12,79.76s-11.92-11.13-9-14.57,13.25-8.48,15.11-9,4.24.26,3.71,1.59c0,0-5,2.91-7.42,4.5S38.74,64.92,39.27,66s6.36,5.57,8.74,8S51.19,84.27,41.12,79.76Z"/><path class="cls-27" d="M47.42,57.11l-2.69,1.12c-.83.32-1.72.82-2.72,1.3s-2,1-3.07,1.59-2.09,1.11-3,1.68l-1.39.8a5,5,0,0,0-1.31,1,2.82,2.82,0,0,0-.69,1.51,3.16,3.16,0,0,0,.12,1.29,3.82,3.82,0,0,0,.43,1,.93.93,0,0,0,1.45.25,1.13,1.13,0,0,0,.15-1.31,2.46,2.46,0,0,1-.3-.53,1.15,1.15,0,0,1,.1-1.2,13.48,13.48,0,0,1,2.16-1.7c.88-.65,1.86-1.3,2.83-2s1.94-1.3,2.87-1.88,1.78-1.16,2.55-1.55Z"/><path class="cls-30" d="M90.12,52.49a5.51,5.51,0,0,1-1.4,1.31,11.71,11.71,0,0,1-1.78,1,15.81,15.81,0,0,1-2.47.84,35.26,35.26,0,0,1-6.35.93l-3.6.33-1.85.17c-.62,0-1.25,0-1.87.07l-7.35.22c-.59,0-1.14,0-1.76.07a11.54,11.54,0,0,0-1.77.18c-.29,0-.57.09-.85.15l-.82.22a12,12,0,0,0-1.53.53,13,13,0,0,0-4.23,2.84,11.73,11.73,0,0,0-1.34,1.55c-.77,1.14-.54,2.52.31,2.8a2.15,2.15,0,0,0,2.34-1,3.66,3.66,0,0,1,.24-.36c.15-.22.38-.54.69-.91A10.39,10.39,0,0,1,57.87,61,10.82,10.82,0,0,1,60.41,60a8.74,8.74,0,0,1,1.49-.27c.49-.08,1.1-.14,1.68-.2L71,58.75c.62-.08,1.25-.13,1.87-.22l1.85-.32,3.58-.62a36.75,36.75,0,0,0,6.37-1.45,18.36,18.36,0,0,0,2.45-1.06,12.44,12.44,0,0,0,1.74-1.17A5.67,5.67,0,0,0,90.12,52.49Z"/><path class="cls-27" d="M90.41,50.88a3.55,3.55,0,0,1,.77-1.18,3.65,3.65,0,0,1,1.35-.41,1.69,1.69,0,0,0-.72-.48,1.37,1.37,0,0,0-1.15.19,1.32,1.32,0,0,0-.51,1A1.44,1.44,0,0,0,90.41,50.88Z"/><path class="cls-27" d="M93.41,51.94a10.08,10.08,0,0,1,1-.55,2.15,2.15,0,0,1,1.07,0,1.08,1.08,0,0,0-.35-.66,1,1,0,0,0-1-.18A1.2,1.2,0,0,0,93.41,51.94Z"/><path class="cls-31" d="M50.6,58.05l-3.75,2.4L43,62.9l-2.17,1.39c-.76.49-1.4.88-2.45,1.61a5.86,5.86,0,0,0,.87,1.39,7.57,7.57,0,0,0,.95,1c.64.6,1.24,1.19,1.81,1.8a36.86,36.86,0,0,1,2.92,3.45,16.67,16.67,0,0,1,1.64,2.66A11.17,11.17,0,0,1,47,77.28c.26.67.71,1.16,1.26,1.16s.88-.91.52-1.85c0,0-.06-.13-.16-.35a8.13,8.13,0,0,0-.47-.9,18.36,18.36,0,0,0-2-2.79,37.32,37.32,0,0,0-3.26-3.38c-.62-.58-1.3-1.17-2-1.73a7.57,7.57,0,0,1-.88-.82l-.27-.3c0-.06-.09-.11-.13-.18Z"/><path class="cls-32" d="M96.05,51.41s0,.08,0,.28a.94.94,0,0,1,0,.4,1.49,1.49,0,0,1-.22.59c-.51.85-2,1.47-4.1,1.68-1.82,1-7.14,3.5-11.07,7.14A38.65,38.65,0,0,0,76,66.78l-1.33,1.78-.52.66a1.7,1.7,0,0,0-.37.82,2.9,2.9,0,0,1,0,.71c0,.26.32.52.81.39a2,2,0,0,0,1.11-.77,1.51,1.51,0,0,1,.14-.2l.37-.54,1.21-1.87a33.94,33.94,0,0,1,10-10.28c1-.67,1.87-1.27,2.65-1.76L91.05,55l.74-.49c2-.26,3.59-.94,4.09-1.84a1.46,1.46,0,0,0,.2-.6,1.15,1.15,0,0,0,0-.41Z"/><path class="cls-32" d="M50.16,74.54c-1.25-2.91-.7-2.66.63.07a15.39,15.39,0,0,0,3.68,4.26,16.4,16.4,0,0,0,6.21,2.93,25.68,25.68,0,0,0,7.58.64,27.45,27.45,0,0,0,7.5-1.39,12.24,12.24,0,0,0,5.63-3.64,5.09,5.09,0,0,0,1-2.5,4.86,4.86,0,0,0-.33-2.33,4.62,4.62,0,0,0-2.39-2.37,10.47,10.47,0,0,0-1.34-.5c-1.37-.39-2.54-.84-2.52-1.36s1.44-.95,3.11-.45a8.86,8.86,0,0,1,1.64.67,7.06,7.06,0,0,1,1.68,1.17A5.82,5.82,0,0,1,83.77,72a6.45,6.45,0,0,1-1.21,6.48A13.91,13.91,0,0,1,76,82.44a29.24,29.24,0,0,1-8,1.19,26.65,26.65,0,0,1-7.92-1,16.86,16.86,0,0,1-6.39-3.45,16,16,0,0,1-2.16-2.32c-.3-.39-.52-.82-.77-1.21A9.34,9.34,0,0,1,50.16,74.54Z"/><path class="cls-33" d="M83.26,43.72a2,2,0,0,0-1-.14,1.52,1.52,0,0,0-1.07.66,2.19,2.19,0,0,0-.07,2.13,5,5,0,0,1,.55-1.8A2.33,2.33,0,0,1,83.26,43.72Z"/><path class="cls-34" d="M61.19,45.49a.68.68,0,0,1-.57.78.66.66,0,0,1-.78-.56.67.67,0,0,1,.55-.79A.7.7,0,0,1,61.19,45.49Z"/><path class="cls-34" d="M58,47.21a.45.45,0,0,1-.88.15.45.45,0,0,1,.36-.52A.45.45,0,0,1,58,47.21Z"/><path class="cls-34" d="M49.19,52.53a.36.36,0,1,1-.42-.3A.36.36,0,0,1,49.19,52.53Z"/><path class="cls-34" d="M53.07,46.52a.32.32,0,0,1-.18.42.33.33,0,0,1-.43-.18.34.34,0,0,1,.19-.43A.32.32,0,0,1,53.07,46.52Z"/><path class="cls-34" d="M50.14,47.75a.39.39,0,0,1-.22.51.38.38,0,0,1-.51-.22.39.39,0,1,1,.73-.29Z"/><path class="cls-34" d="M48.62,48.44a.63.63,0,1,1-.83-.37A.64.64,0,0,1,48.62,48.44Z"/><path class="cls-34" d="M44.17,51.28a.57.57,0,0,1-.33.74.56.56,0,0,1-.73-.32.56.56,0,0,1,.31-.74A.58.58,0,0,1,44.17,51.28Z"/><path class="cls-34" d="M40.46,55.1a.4.4,0,0,1-.07.55.39.39,0,0,1-.55-.06.4.4,0,0,1,.62-.49Z"/><path class="cls-34" d="M38.78,56.31a.58.58,0,0,1-.09.8.57.57,0,0,1-.71-.89A.58.58,0,0,1,38.78,56.31Z"/><path class="cls-34" d="M35.86,57.06a.43.43,0,1,1-.61-.07A.43.43,0,0,1,35.86,57.06Z"/><path class="cls-34" d="M35.4,58.84a.47.47,0,0,1,.39.56.49.49,0,0,1-.56.39.48.48,0,0,1-.39-.56A.47.47,0,0,1,35.4,58.84Z"/><path class="cls-34" d="M34.91,59.55a.25.25,0,0,1,.2.28.25.25,0,0,1-.28.2.24.24,0,0,1,.08-.48Z"/><path class="cls-34" d="M33.3,61.34a.67.67,0,0,1,.54.77.67.67,0,1,1-.54-.77Z"/><path class="cls-34" d="M33.7,67.2a.27.27,0,0,1,.21.31.26.26,0,0,1-.31.22.27.27,0,0,1-.22-.31A.29.29,0,0,1,33.7,67.2Z"/><path class="cls-34" d="M80,51.07a.32.32,0,0,1-.42.18.32.32,0,0,1-.18-.42.31.31,0,0,1,.42-.18A.32.32,0,0,1,80,51.07Z"/><path class="cls-34" d="M75.06,50.59a.68.68,0,0,1-1.26-.5.68.68,0,0,1,.88-.38A.7.7,0,0,1,75.06,50.59Z"/><path class="cls-34" d="M74.28,50.28a.25.25,0,0,1-.32.13.24.24,0,0,1-.13-.31.23.23,0,0,1,.31-.14A.24.24,0,0,1,74.28,50.28Z"/><path class="cls-34" d="M69,48a.38.38,0,1,1-.76.08A.38.38,0,0,1,69,48Z"/><path class="cls-34" d="M68.68,48.23a.68.68,0,1,1-1.35.15.68.68,0,1,1,1.35-.15Z"/><path class="cls-34" d="M66.34,49.16a.3.3,0,0,1-.27.34.31.31,0,0,1-.35-.27.32.32,0,0,1,.28-.35A.31.31,0,0,1,66.34,49.16Z"/><path class="cls-34" d="M64.29,47.68a.27.27,0,0,1-.23.29.27.27,0,0,1-.29-.23.28.28,0,0,1,.23-.3A.26.26,0,0,1,64.29,47.68Z"/><path class="cls-34" d="M63.82,50a.65.65,0,0,1-.58.71.64.64,0,0,1-.71-.57.64.64,0,0,1,.57-.72A.66.66,0,0,1,63.82,50Z"/><path class="cls-34" d="M58.88,50.15a.28.28,0,0,1-.1.39.28.28,0,0,1-.38-.1.27.27,0,0,1,.09-.39A.28.28,0,0,1,58.88,50.15Z"/><path class="cls-34" d="M53.8,52.15a.28.28,0,0,1-.1.39.28.28,0,1,1-.29-.49A.28.28,0,0,1,53.8,52.15Z"/><path class="cls-34" d="M54,52.74a.61.61,0,0,1-.21.86.63.63,0,0,1-.65-1.08A.62.62,0,0,1,54,52.74Z"/><path class="cls-34" d="M49.94,55.61a.65.65,0,0,1-.22.9.64.64,0,0,1-.89-.22.65.65,0,1,1,1.11-.68Z"/><path class="cls-34" d="M45.87,58.82a.72.72,0,0,1,.42.92A.71.71,0,0,1,45,59.25.73.73,0,0,1,45.87,58.82Z"/><path class="cls-34" d="M44.74,62.44a.39.39,0,0,1,.22.49.38.38,0,0,1-.71-.26A.38.38,0,0,1,44.74,62.44Z"/><path class="cls-34" d="M44.16,64.25a.27.27,0,0,1,.15.35.26.26,0,0,1-.34.16.27.27,0,1,1,.19-.51Z"/><path class="cls-34" d="M42.49,68.1a.62.62,0,0,1-.43,1.17.62.62,0,1,1,.43-1.17Z"/><path class="cls-34" d="M41.71,69.9a.68.68,0,1,1-.88.4A.69.69,0,0,1,41.71,69.9Z"/><path class="cls-34" d="M76.16,59.06a.47.47,0,0,1-.37.57.48.48,0,0,1-.58-.36.5.5,0,0,1,.37-.59A.5.5,0,0,1,76.16,59.06Z"/><path class="cls-34" d="M76.06,60.37a.72.72,0,0,1-.55.86.71.71,0,0,1-.85-.54.72.72,0,1,1,1.4-.32Z"/><path class="cls-34" d="M72.38,59.88a.42.42,0,0,1-.32.5.42.42,0,0,1-.5-.32.42.42,0,0,1,.32-.5A.43.43,0,0,1,72.38,59.88Z"/><path class="cls-34" d="M71.34,60.69a.42.42,0,0,1-.32.5.42.42,0,0,1-.5-.32.42.42,0,0,1,.32-.5A.43.43,0,0,1,71.34,60.69Z"/><path class="cls-34" d="M70.43,62.5a.26.26,0,0,1-.12.35.25.25,0,0,1-.35-.11.27.27,0,0,1,.11-.36A.27.27,0,0,1,70.43,62.5Z"/><path class="cls-34" d="M66.58,63.72a.7.7,0,1,1-1-.3A.71.71,0,0,1,66.58,63.72Z"/><path class="cls-34" d="M64.82,63.13a.53.53,0,0,1-.23.72.52.52,0,0,1-.72-.23.53.53,0,1,1,.95-.49Z"/><path class="cls-34" d="M62.62,66.51a.63.63,0,0,1,.37.82.62.62,0,0,1-.81.37.63.63,0,0,1-.38-.81A.65.65,0,0,1,62.62,66.51Z"/><path class="cls-34" d="M60.8,68.35a.56.56,0,0,1-.39,1.06.56.56,0,1,1,.39-1.06Z"/><path class="cls-34" d="M62.25,70.16a.64.64,0,0,1,.37.82.63.63,0,0,1-.82.37.64.64,0,1,1,.45-1.19Z"/><path class="cls-34" d="M63.39,74.58a.48.48,0,0,1,.67,0,.48.48,0,1,1-.67,0Z"/><path class="cls-34" d="M66.46,78.47a.27.27,0,0,1,.34-.19.28.28,0,0,1-.14.54A.29.29,0,0,1,66.46,78.47Z"/><path class="cls-34" d="M71.36,80.63a.49.49,0,1,1,.34.6A.5.5,0,0,1,71.36,80.63Z"/><path class="cls-34" d="M72.45,79.52a.64.64,0,0,1,.78-.44.63.63,0,0,1-.33,1.22A.64.64,0,0,1,72.45,79.52Z"/><path class="cls-34" d="M60.38,72.2A.49.49,0,0,1,59.7,72a.49.49,0,1,1,.68.16Z"/><path class="cls-34" d="M60.27,68.65a.53.53,0,0,1-.53-.53.52.52,0,0,1,.52-.52.52.52,0,0,1,.53.52A.52.52,0,0,1,60.27,68.65Z"/><path class="cls-34" d="M59.2,67a.31.31,0,1,1,.31-.31A.31.31,0,0,1,59.2,67Z"/><path class="cls-34" d="M60.28,67.73a.3.3,0,1,1,.56-.24.31.31,0,0,1-.16.4A.3.3,0,0,1,60.28,67.73Z"/><path class="cls-34" d="M59.94,66.38a.48.48,0,1,1,.64.24A.48.48,0,0,1,59.94,66.38Z"/><path class="cls-34" d="M62.44,65.33a.28.28,0,0,1,.14-.37.27.27,0,0,1,.36.14.27.27,0,0,1-.14.37A.27.27,0,0,1,62.44,65.33Z"/><path class="cls-34" d="M62.64,79a.32.32,0,0,1-.42.17.31.31,0,0,1-.17-.41.31.31,0,0,1,.41-.18A.33.33,0,0,1,62.64,79Z"/><path class="cls-34" d="M61.24,76.42a.72.72,0,0,1-.94.39.73.73,0,0,1-.4-1,.73.73,0,1,1,1.34.56Z"/><path class="cls-34" d="M58.54,74.68a.58.58,0,0,1-.82.11A.57.57,0,0,1,57.6,74a.59.59,0,1,1,.94.71Z"/><path class="cls-34" d="M54.38,72.39a.49.49,0,0,1-.7.1.5.5,0,1,1,.61-.8A.5.5,0,0,1,54.38,72.39Z"/><path class="cls-34" d="M53.66,72.37a.34.34,0,0,1-.34-.34A.34.34,0,0,1,54,72,.34.34,0,0,1,53.66,72.37Z"/><path class="cls-34" d="M52.73,66.93a.23.23,0,0,1-.23-.24.23.23,0,0,1,.24-.23.24.24,0,0,1,.24.24A.24.24,0,0,1,52.73,66.93Z"/><path class="cls-34" d="M57.08,66.61a.53.53,0,0,1,.22-.73.54.54,0,0,1,.73.22.55.55,0,0,1-.22.74A.54.54,0,0,1,57.08,66.61Z"/><path class="cls-34" d="M56.18,64.63a.69.69,0,0,1,.29-.94.68.68,0,0,1,.93.29.69.69,0,1,1-1.22.65Z"/><path class="cls-34" d="M59.77,63.24a.25.25,0,0,1,.1-.33.24.24,0,0,1,.23.43A.26.26,0,0,1,59.77,63.24Z"/><path class="cls-34" d="M92.51,65.67a.36.36,0,1,1-.06-.5A.36.36,0,0,1,92.51,65.67Z"/><path class="cls-34" d="M89.22,64.14a.6.6,0,1,1-.1-.84A.61.61,0,0,1,89.22,64.14Z"/><path class="cls-34" d="M89,63.81a.6.6,0,1,1-.1-.84A.59.59,0,0,1,89,63.81Z"/><path class="cls-34" d="M84.51,61.3a.4.4,0,0,1-.79-.11.4.4,0,1,1,.79.11Z"/><path class="cls-34" d="M78.44,63.56a.7.7,0,0,1,.08,1,.69.69,0,0,1-1.06-.89A.7.7,0,0,1,78.44,63.56Z"/><path class="cls-34" d="M76.69,68.44a.59.59,0,0,1,.77.3.59.59,0,0,1-1.07.48A.6.6,0,0,1,76.69,68.44Z"/><path class="cls-34" d="M80.36,72.51a.68.68,0,0,1,.81-.51.68.68,0,1,1-.81.51Z"/><path class="cls-34" d="M83.32,72.69a.57.57,0,1,1,.42.69A.57.57,0,0,1,83.32,72.69Z"/><path class="cls-34" d="M85.17,72.09a.56.56,0,1,1,.78-.8.56.56,0,0,1-.78.8Z"/><path class="cls-34" d="M88.59,67.67a.49.49,0,1,1,.23-.65A.49.49,0,0,1,88.59,67.67Z"/><path class="cls-34" d="M87,67a.48.48,0,0,1-.63-.23.47.47,0,0,1,.22-.64A.48.48,0,0,1,87,67Z"/><path class="cls-34" d="M86,62a.32.32,0,0,1-.44-.1.32.32,0,1,1,.53-.35A.32.32,0,0,1,86,62Z"/><path class="cls-34" d="M81,58.58a.3.3,0,0,1-.42,0,.29.29,0,0,1,0-.42.3.3,0,0,1,.42,0A.29.29,0,0,1,81,58.58Z"/><path class="cls-34" d="M77.9,56.63a.59.59,0,0,1-.8.26.59.59,0,0,1,.53-1.06A.6.6,0,0,1,77.9,56.63Z"/><path class="cls-34" d="M74.12,54.4A.31.31,0,1,1,74,54,.31.31,0,0,1,74.12,54.4Z"/><path class="cls-34" d="M72.83,53.38a.33.33,0,1,1-.58-.3.33.33,0,0,1,.44-.15A.33.33,0,0,1,72.83,53.38Z"/><path class="cls-34" d="M68.29,55.53a.61.61,0,1,1-.56-.66A.63.63,0,0,1,68.29,55.53Z"/><path class="cls-34" d="M66.63,53.68a.64.64,0,1,1-1.27-.11.64.64,0,1,1,1.27.11Z"/><path class="cls-34" d="M64.6,54.43a.24.24,0,0,1-.26.22.25.25,0,1,1,.26-.22Z"/><path class="cls-34" d="M61.49,55.18a.26.26,0,1,1-.5.13.26.26,0,0,1,.18-.32A.27.27,0,0,1,61.49,55.18Z"/><path class="cls-34" d="M60.89,55.57a.68.68,0,1,1-.83-.5A.69.69,0,0,1,60.89,55.57Z"/><path class="cls-34" d="M56.44,56.25a.29.29,0,0,1-.21.35.28.28,0,0,1-.35-.2.29.29,0,1,1,.56-.15Z"/><path class="cls-34" d="M52.26,59.27a.67.67,0,0,1-.95.95.67.67,0,1,1,.95-.95Z"/><path class="cls-34" d="M50.46,60a.69.69,0,0,1,0,1,.69.69,0,0,1-1-1A.69.69,0,0,1,50.46,60Z"/><path class="cls-34" d="M46,63.41a.72.72,0,1,1-.82.62A.71.71,0,0,1,46,63.41Z"/><path class="cls-34" d="M45.05,68.59a.24.24,0,0,1,.2.27.22.22,0,0,1-.26.2.24.24,0,0,1-.2-.27A.25.25,0,0,1,45.05,68.59Z"/><path class="cls-34" d="M45,72.55a.64.64,0,1,1-.17,1.27A.64.64,0,1,1,45,72.55Z"/><path class="cls-35" d="M66.48,47a.66.66,0,0,1-.6.71.64.64,0,0,1-.7-.59.67.67,0,0,1,.59-.72A.66.66,0,0,1,66.48,47Z"/><path class="cls-35" d="M63.49,46.49a.58.58,0,1,1-.63-.53A.58.58,0,0,1,63.49,46.49Z"/><path class="cls-35" d="M58.23,48.14a.38.38,0,1,1-.52-.14A.38.38,0,0,1,58.23,48.14Z"/><path class="cls-35" d="M54.85,49.46a.53.53,0,1,1-.92.54.54.54,0,0,1,.19-.73A.54.54,0,0,1,54.85,49.46Z"/><path class="cls-35" d="M55.22,51.08a.56.56,0,0,1-.21.76.56.56,0,0,1-.76-.2.58.58,0,0,1,.2-.77A.57.57,0,0,1,55.22,51.08Z"/><path class="cls-36" d="M58.67,48.62a.43.43,0,0,1-.78.38.43.43,0,1,1,.78-.38Z"/><path class="cls-36" d="M53.44,49.79A.26.26,0,0,1,53,50a.26.26,0,1,1,.47-.23Z"/><path class="cls-36" d="M54.17,51.37a.56.56,0,0,1-1,.49.56.56,0,1,1,1-.49Z"/><path class="cls-36" d="M48.93,53.05a.57.57,0,0,1-.11.78.56.56,0,0,1-.78-.1.56.56,0,1,1,.89-.68Z"/><path class="cls-36" d="M46.65,55.29a.24.24,0,0,1-.39.29.25.25,0,0,1,0-.34A.25.25,0,0,1,46.65,55.29Z"/><path class="cls-36" d="M46.13,55.33a.46.46,0,1,1-.73.56.46.46,0,1,1,.73-.56Z"/><path class="cls-36" d="M42.73,58.07a.42.42,0,0,1-.09.59.41.41,0,0,1-.58-.08.42.42,0,0,1,.07-.59A.42.42,0,0,1,42.73,58.07Z"/><path class="cls-36" d="M78.68,59a.38.38,0,1,1-.53-.12A.38.38,0,0,1,78.68,59Z"/><path class="cls-36" d="M73.72,60.51a.42.42,0,0,1-.13.58A.43.43,0,0,1,73,61a.42.42,0,0,1,.13-.58A.41.41,0,0,1,73.72,60.51Z"/><path class="cls-36" d="M69.27,64.38a.31.31,0,0,1,0,.44.31.31,0,0,1-.44,0,.31.31,0,1,1,.41-.47Z"/><path class="cls-36" d="M67.79,64.93a.45.45,0,0,1-.59.68.45.45,0,0,1,0-.63A.46.46,0,0,1,67.79,64.93Z"/><path class="cls-36" d="M65.17,69.75a.51.51,0,0,1-.67.77.51.51,0,0,1,0-.72A.5.5,0,0,1,65.17,69.75Z"/><path class="cls-36" d="M44.49,76.55a.6.6,0,0,1-.83-.12.59.59,0,0,1,.12-.83.59.59,0,1,1,.71,1Z"/><path class="cls-36" d="M41.84,74.07a.3.3,0,0,1-.4-.06.28.28,0,0,1,.06-.39.28.28,0,0,1,.4,0A.3.3,0,0,1,41.84,74.07Z"/><path class="cls-36" d="M41.47,71.31a.29.29,0,1,1-.35-.47.3.3,0,0,1,.41.06A.29.29,0,0,1,41.47,71.31Z"/><path class="cls-36" d="M39.1,69.94a.43.43,0,0,1-.52-.69.43.43,0,0,1,.61.08A.42.42,0,0,1,39.1,69.94Z"/><path class="cls-36" d="M39.84,68.75a.26.26,0,1,1-.32-.42.26.26,0,0,1,.37,0A.27.27,0,0,1,39.84,68.75Z"/><path class="cls-36" d="M37.53,67.43A.28.28,0,0,1,37.2,67a.28.28,0,0,1,.39.05A.28.28,0,0,1,37.53,67.43Z"/><path class="cls-37" d="M41.48,75.55a.32.32,0,0,1-.46,0,.33.33,0,0,1,0-.46.33.33,0,1,1,.47.46Z"/><path class="cls-37" d="M37.19,73.54a.71.71,0,0,1-1-.19.72.72,0,0,1,.18-1,.73.73,0,0,1,1,.19A.72.72,0,0,1,37.19,73.54Z"/><path class="cls-37" d="M36.17,69.54a.5.5,0,0,1-.69-.14.48.48,0,0,1,.13-.68.51.51,0,0,1,.69.12A.52.52,0,0,1,36.17,69.54Z"/><path class="cls-37" d="M34.12,69.12a.41.41,0,1,1,.27-.51A.41.41,0,0,1,34.12,69.12Z"/><path class="cls-37" d="M36,64.34a.44.44,0,0,1,0-.88.44.44,0,0,1,.43.45A.44.44,0,0,1,36,64.34Z"/><path class="cls-38" d="M29.78,77.07c0,1-.52,1.84-.42,2.74A1.28,1.28,0,0,0,30.51,79c.79.37.68,1.39,1.7,1.76a1.65,1.65,0,0,0,.54-1.32c.32,0,1.14.39,1.37.07s-.36-.62-.58-.74a7.37,7.37,0,0,0,.94,0c.15-.62-1.58-1.32-2.15-1.66.89,0,2.42.54,3.18.25.18-.39-.1-.69-.54-.86.77,0,3.28.06,1.39-.73l1.07-.19a.9.9,0,0,0,0-.54,2.77,2.77,0,0,1-1.09-.13c.88-1-.52-.65-1.14-.35.07-.2,0-.43,0-.62a1.56,1.56,0,0,0-1.09.53c-.09-.78-1,0-1.18.35a5,5,0,0,0-.62.25c.11-.6.75-.88.65-1.56-.3.06-.47,0-.72.15a1.79,1.79,0,0,0,.25-1.78,2,2,0,0,0-1.78,1.18c-.34-.32-.92-.9-1.56-.78-.46.55.17.85.41,1.26s.29,1.18.64,1.67c-.32-.61-1.92-1-2.73-.86.06.07.1.25.21.35-.45,0-.75.13-.72.46.83.3,1.63.44,2.45.76-.39.7-2.81,1.41-2.64,2a6.81,6.81,0,0,0,1.63-.1.63.63,0,0,0-.27.8c.93.18,1.45-1.33,1.65-1.77Z"/><path class="cls-32" d="M95.35,63.7c-.6-.24-.92-.35-.86-.48s.46-.24,1.23.06a1.94,1.94,0,0,1,1,1A3.69,3.69,0,0,1,97,65.86a9.86,9.86,0,0,1-.2,1.6c-.06.26-.13.53-.19.81s-.22.57-.34.86A9.14,9.14,0,0,1,94,72a20.44,20.44,0,0,1-2.89,2.13,42.66,42.66,0,0,1-5.29,2.77c-.71.32-1.3.56-1.71.73l-.67.26a1.13,1.13,0,0,1-1.51-.51,1.16,1.16,0,0,1,.89-1.3l.66-.21c.4-.15,1-.34,1.7-.61a43,43,0,0,0,5.29-2.37A20.19,20.19,0,0,0,93.27,71a7.81,7.81,0,0,0,2.17-2.44,7.65,7.65,0,0,0,.32-.71c.07-.25.16-.5.22-.76a8.75,8.75,0,0,0,.27-1.45,2.75,2.75,0,0,0-.17-1.24A1.37,1.37,0,0,0,95.35,63.7Z"/><path class="cls-34" d="M65.38,77.61a.33.33,0,0,1,.43-.16.33.33,0,0,1,.16.43.32.32,0,1,1-.59-.27Z"/><path class="cls-34" d="M66.24,78.05a.67.67,0,0,1,.88-.33.66.66,0,0,1,.34.88.67.67,0,1,1-1.22-.55Z"/><path class="cls-34" d="M68.09,78.77a.39.39,0,1,1,.2.51A.38.38,0,0,1,68.09,78.77Z"/><path class="cls-34" d="M73.09,80.07a.64.64,0,0,1,.26-.86.63.63,0,0,1,.86.25.64.64,0,0,1-.25.87A.65.65,0,0,1,73.09,80.07Z"/><path class="cls-34" d="M77.27,78.5A.34.34,0,0,1,77.4,78a.34.34,0,0,1,.33.6A.34.34,0,0,1,77.27,78.5Z"/><path class="cls-34" d="M76.94,73.77a.28.28,0,0,1-.33-.21.27.27,0,0,1,.21-.32.27.27,0,0,1,.33.2A.28.28,0,0,1,76.94,73.77Z"/><path class="cls-34" d="M77.16,73.26a.32.32,0,0,1-.38-.24.32.32,0,1,1,.63-.14A.32.32,0,0,1,77.16,73.26Z"/><path class="cls-34" d="M76.07,71.61a.46.46,0,0,1-.54.36.47.47,0,0,1-.37-.54.46.46,0,0,1,.54-.37A.47.47,0,0,1,76.07,71.61Z"/><path class="cls-34" d="M74.61,70.38a.32.32,0,0,1-.39.26.34.34,0,0,1-.27-.39.35.35,0,0,1,.4-.27A.33.33,0,0,1,74.61,70.38Z"/><path class="cls-34" d="M72.39,72a.33.33,0,0,1-.35.31.34.34,0,0,1-.31-.36.34.34,0,0,1,.36-.31A.32.32,0,0,1,72.39,72Z"/><path class="cls-34" d="M68.58,71.79a.67.67,0,1,1,.93-.23A.68.68,0,0,1,68.58,71.79Z"/><path class="cls-34" d="M70.56,70.11a.68.68,0,0,1-.22-.94.69.69,0,1,1,.22.94Z"/><path class="cls-34" d="M71.65,67.68a.7.7,0,0,1,.73-1.19.7.7,0,1,1-.73,1.19Z"/><path class="cls-34" d="M75.31,63.63a.48.48,0,0,1,.07-.68.49.49,0,0,1,.69.07.5.5,0,0,1-.07.69A.49.49,0,0,1,75.31,63.63Z"/><path class="cls-34" d="M77.33,64.15a.41.41,0,1,1,.64-.52.41.41,0,0,1-.64.52Z"/><path class="cls-34" d="M72.89,73.79a.58.58,0,0,1-.82.11.59.59,0,0,1,.71-.93A.58.58,0,0,1,72.89,73.79Z"/><path class="cls-34" d="M54.45,74.34a.44.44,0,1,1-.24.59A.45.45,0,0,1,54.45,74.34Z"/><path class="cls-34" d="M57.79,79.41a.29.29,0,1,1,.48.31.3.3,0,0,1-.4.09A.29.29,0,0,1,57.79,79.41Z"/><path class="cls-34" d="M61.59,79.41a.33.33,0,0,1,.43-.15.32.32,0,1,1-.43.15Z"/><path class="cls-34" d="M62.7,80.53a.42.42,0,0,1,.42-.42.42.42,0,1,1-.42.42Z"/><path class="cls-34" d="M63.69,81a.34.34,0,0,1,.35-.36.35.35,0,0,1,.36.35.37.37,0,0,1-.35.37A.36.36,0,0,1,63.69,81Z"/><path class="cls-34" d="M64.41,80.58a.31.31,0,0,1,.31-.31.31.31,0,1,1-.31.31Z"/><path class="cls-34" d="M64.67,80.23a.65.65,0,1,1,.66.65A.66.66,0,0,1,64.67,80.23Z"/><path class="cls-34" d="M67.32,79.77a.28.28,0,0,1,.24-.33.29.29,0,0,1,.34.24.31.31,0,0,1-.25.34A.29.29,0,0,1,67.32,79.77Z"/><path class="cls-34" d="M71.71,80.73a.67.67,0,0,1,.26-.91.65.65,0,0,1,.9.26.66.66,0,1,1-1.16.65Z"/><path class="cls-34" d="M73.79,75.68a.24.24,0,0,1-.34-.05.24.24,0,0,1,.39-.29A.24.24,0,0,1,73.79,75.68Z"/><path class="cls-34" d="M69.25,74.44a.5.5,0,0,1-.44.57.51.51,0,0,1-.58-.44.51.51,0,1,1,1-.13Z"/><path class="cls-34" d="M77.25,75.81a.54.54,0,1,1-.7.82.54.54,0,0,1,.7-.82Z"/><path class="cls-34" d="M76.62,77.07a.64.64,0,1,1-.76-.5A.65.65,0,0,1,76.62,77.07Z"/><path class="cls-34" d="M71.22,77.36a.28.28,0,0,1-.22.31.27.27,0,0,1-.31-.22.27.27,0,0,1,.22-.32A.28.28,0,0,1,71.22,77.36Z"/><path class="cls-34" d="M84.58,64.34a.26.26,0,1,1,.37,0A.26.26,0,0,1,84.58,64.34Z"/><path class="cls-34" d="M88.47,67.85a.56.56,0,0,1-.29-1.09.56.56,0,1,1,.29,1.09Z"/><path class="cls-34" d="M88.25,67.13a.71.71,0,0,1-.87-.51.7.7,0,0,1,.5-.87.72.72,0,0,1,.88.5A.73.73,0,0,1,88.25,67.13Z"/><path class="cls-34" d="M87.57,66.49a.27.27,0,0,1-.32-.19.27.27,0,0,1,.18-.31.26.26,0,0,1,.14.5Z"/><path class="cls-34" d="M86.84,62.32a.55.55,0,1,1,.07-.77A.55.55,0,0,1,86.84,62.32Z"/><path class="cls-34" d="M82.12,61.84a.67.67,0,1,1-.88-.35A.68.68,0,0,1,82.12,61.84Z"/><path class="cls-34" d="M77.72,66a.25.25,0,1,1-.35,0A.26.26,0,0,1,77.72,66Z"/><path class="cls-34" d="M86.56,68.86a.63.63,0,0,1-.86.23.61.61,0,0,1-.23-.85.63.63,0,0,1,.86-.25A.65.65,0,0,1,86.56,68.86Z"/><path class="cls-34" d="M84.12,65.79a.66.66,0,0,1-1-.87.68.68,0,0,1,.94-.07A.67.67,0,0,1,84.12,65.79Z"/><path class="cls-34" d="M83.55,65.35a.63.63,0,1,1-1-.84.64.64,0,0,1,.9-.06A.63.63,0,0,1,83.55,65.35Z"/><path class="cls-34" d="M48.87,71a.27.27,0,1,1,.08-.37A.26.26,0,0,1,48.87,71Z"/><path class="cls-34" d="M49,70.33a.63.63,0,1,1,.18-.88A.64.64,0,0,1,49,70.33Z"/><path class="cls-34" d="M47,67.34a.7.7,0,0,1-1-.19.69.69,0,0,1,1.15-.77A.7.7,0,0,1,47,67.34Z"/><path class="cls-34" d="M46.32,65.49a.45.45,0,1,1-.5-.74.45.45,0,0,1,.63.12A.44.44,0,0,1,46.32,65.49Z"/><path class="cls-39" d="M58,83.36c0,1.83-3,3.32-6.63,3.32s-6.62-1.49-6.62-3.32,3-3.31,6.62-3.31S58,81.53,58,83.36Z"/><path class="cls-40" d="M57.13,80.55c0,2.94-2.86,5.33-6.39,5.33s-6.39-2.39-6.39-5.33a5.14,5.14,0,0,1,2.81-4.41c1-.58,2.25-.3,3.58-.3s2.71-.23,3.77.41A5.12,5.12,0,0,1,57.13,80.55Z"/><path class="cls-41" d="M49.21,76.9a1.58,1.58,0,0,0,1.45.79,2,2,0,0,0,.9-.25,2.29,2.29,0,0,0,.54-.54,3.36,3.36,0,0,0-.7.09c-.25,0-.49.06-.75,0A6.65,6.65,0,0,1,49.21,76.9Z"/><path class="cls-42" d="M45.87,81.31A5,5,0,0,1,46,78.73a5.21,5.21,0,0,1,1.66-2,2.91,2.91,0,0,0-2.27,1.74A2.87,2.87,0,0,0,45.87,81.31Z"/><path class="cls-43" d="M66.35,13.59a10.18,10.18,0,0,0-4.94,5.13,8.5,8.5,0,0,0-.61,4.62,5.75,5.75,0,0,0,.27,1.23,5.89,5.89,0,0,0,.43,1.2c.17.36.4.82.54,1.1l.43.8a10.64,10.64,0,0,1,1.4,6.17,11.88,11.88,0,0,1-2.52,5.53,8.4,8.4,0,0,0,5.56-4.55,8.93,8.93,0,0,0,.79-4.56,12.25,12.25,0,0,0-1.35-4.58l-1-1.76a3.27,3.27,0,0,1-.33-.68,3.66,3.66,0,0,1-.25-.7,7.31,7.31,0,0,1-.3-3A18.61,18.61,0,0,1,66.35,13.59Z"/><path class="cls-43" d="M74,18.93A8.47,8.47,0,0,0,70.11,23a6.38,6.38,0,0,0-.43,3.64,4.68,4.68,0,0,0,.25,1,3.65,3.65,0,0,0,.38.91l.46.84.39.65a7.13,7.13,0,0,1,1.06,5.13,9.37,9.37,0,0,1-2.56,4.25,7,7,0,0,0,4.43-3.54,6.57,6.57,0,0,0,.64-3.59,9.46,9.46,0,0,0-1.19-3.59l-.86-1.41a2.25,2.25,0,0,1-.29-.58,3.18,3.18,0,0,1-.23-.58A5.5,5.5,0,0,1,72,23.59,13.41,13.41,0,0,1,74,18.93Z"/></g></g></svg>