<svg xmlns="http://www.w3.org/2000/svg" xmlns:xlink="http://www.w3.org/1999/xlink" viewBox="0 0 118.21 90.05"><defs><style>.cls-1{fill:#8ec044;}.cls-2{fill:url(#linear-gradient);}.cls-3{fill:#e7e7e7;}.cls-4{fill:#949494;}.cls-5{fill:url(#linear-gradient-2);}.cls-6{fill:url(#linear-gradient-3);}.cls-7{fill:#f6c643;}.cls-8{fill:#3f8834;}.cls-9{fill:#c55b03;}.cls-10{fill:url(#radial-gradient);}.cls-11{fill:#50270e;}.cls-12{fill:url(#radial-gradient-2);}.cls-13{fill:url(#radial-gradient-3);}.cls-14{fill:url(#linear-gradient-4);}.cls-15{fill:#504f4e;}.cls-16{fill:url(#linear-gradient-5);}.cls-17{fill:#fff2cc;}</style><linearGradient id="linear-gradient" x1="60.61" y1="43.27" x2="60.61" y2="87.04" gradientUnits="userSpaceOnUse"><stop offset="0" stop-color="#e2e1e1"/><stop offset="0.36" stop-color="#d4d3d3"/><stop offset="1" stop-color="#b0b0b0"/></linearGradient><linearGradient id="linear-gradient-2" x1="60.64" y1="31.9" x2="60.64" y2="52.97" gradientUnits="userSpaceOnUse"><stop offset="0" stop-color="#9b9b9a"/><stop offset="0.53" stop-color="#b0b0b0"/><stop offset="1" stop-color="#bebebe"/></linearGradient><linearGradient id="linear-gradient-3" x1="60.64" y1="37.78" x2="60.64" y2="55.56" gradientUnits="userSpaceOnUse"><stop offset="0" stop-color="#c55b03"/><stop offset="1" stop-color="#f3a400"/></linearGradient><radialGradient id="radial-gradient" cx="-265.97" cy="79.91" r="10.17" gradientTransform="translate(257.75 -20.46) scale(0.78 0.85)" gradientUnits="userSpaceOnUse"><stop offset="0" stop-color="#c57c00"/><stop offset="0.3" stop-color="#9c5a00"/><stop offset="0.59" stop-color="#7b3e00"/><stop offset="0.84" stop-color="#662d00"/><stop offset="1" stop-color="#5f2700"/></radialGradient><radialGradient id="radial-gradient-2" cx="-1066.3" cy="196.95" r="10.16" gradientTransform="translate(591.33 -64.03) scale(0.5 0.53)" xlink:href="#radial-gradient"/><radialGradient id="radial-gradient-3" cx="-487.73" cy="196.4" r="10.17" gradientTransform="translate(395.61 -61.06) scale(0.65 0.55)" xlink:href="#radial-gradient"/><linearGradient id="linear-gradient-4" x1="60.62" y1="58.25" x2="60.62" y2="29.62" gradientUnits="userSpaceOnUse"><stop offset="0" stop-color="#fff"/><stop offset="0.76" stop-color="#f1f1f1"/><stop offset="1" stop-color="#ebebeb"/></linearGradient><linearGradient id="linear-gradient-5" x1="93.24" y1="28.87" x2="95.41" y2="30.42" gradientUnits="userSpaceOnUse"><stop offset="0.01" stop-color="#ddd"/><stop offset="0.99" stop-color="#b0b0b0"/></linearGradient></defs><g id="Capa_2" data-name="Capa 2"><g id="Layer_1" data-name="Layer 1"><path class="cls-1" d="M59.1,49.76c23.56,0,44.69,3.39,59.11,8.74C115.22,25.66,89.91,0,59.1,0S3,25.66,0,58.5C14.42,53.15,35.55,49.76,59.1,49.76Z"/><path class="cls-2" d="M18.1,42.49A33.3,33.3,0,0,0,17.79,47c0,13.08,7.62,24.6,19.17,31.34V83h.12c.22,3.93,10.69,7.08,23.59,7.08S84,86.9,84.26,83h0V78.32C95.82,71.58,103.44,60.06,103.44,47a35,35,0,0,0-.31-4.49Z"/><path class="cls-3" d="M20.73,51.21a14.83,14.83,0,0,0,1.2,7.37,30,30,0,0,0,4.64,7.71,33.16,33.16,0,0,0,6.51,6.16,17.65,17.65,0,0,0,6.74,3.16,34.55,34.55,0,0,1-5.43-4.7c-1.86-1.89-3.78-4-5.68-6.36C24.94,59.87,21.87,55.36,20.73,51.21Z"/><path class="cls-4" d="M38.79,79.42c4.88,3.58,13,6.27,21.94,6.24a41.27,41.27,0,0,0,12.53-1.85,22,22,0,0,0,9.09-5.21,36.25,36.25,0,0,1-9.71,2.61,82.43,82.43,0,0,1-11.91.8A90.33,90.33,0,0,1,38.79,79.42Z"/><path class="cls-5" d="M102.81,43c0,6.33-18.88,11.45-42.17,11.45S18.47,49.3,18.47,43,37.35,31.53,60.64,31.53,102.81,36.65,102.81,43Z"/><path class="cls-6" d="M21.23,47.13c6.3,5.66,21.57,9.65,39.41,9.65s33.11-4,39.41-9.65c-6.3-5.66-21.56-9.66-39.41-9.66S27.53,41.47,21.23,47.13Z"/><path class="cls-7" d="M49,45.29c0,.36-.84.65-1.87.65s-1.87-.29-1.87-.65.84-.65,1.87-.65S49,44.93,49,45.29Z"/><path class="cls-7" d="M37.77,48c0,.36-.84.65-1.87.65S34,48.31,34,48s.84-.64,1.87-.64S37.77,47.6,37.77,48Z"/><path class="cls-7" d="M57.34,49.25c0,.36-.84.65-1.87.65s-1.87-.29-1.87-.65.83-.65,1.87-.65S57.34,48.89,57.34,49.25Z"/><path class="cls-7" d="M52.15,48.72c0,.36-.84.65-1.87.65s-1.87-.29-1.87-.65.84-.65,1.87-.65S52.15,48.36,52.15,48.72Z"/><path class="cls-7" d="M62.51,45.29c0,.36-.83.65-1.87.65s-1.87-.29-1.87-.65.84-.65,1.87-.65S62.51,44.93,62.51,45.29Z"/><path class="cls-7" d="M61.21,51.23c0,.36-.84.64-1.88.64s-1.87-.28-1.87-.64.84-.65,1.87-.65S61.21,50.87,61.21,51.23Z"/><path class="cls-7" d="M54,52.49c0,.36-.83.65-1.87.65s-1.87-.29-1.87-.65.84-.65,1.87-.65S54,52.13,54,52.49Z"/><path class="cls-7" d="M60.12,47.57c0,.36-.84.65-1.87.65s-1.87-.29-1.87-.65.84-.64,1.87-.64S60.12,47.21,60.12,47.57Z"/><path class="cls-7" d="M67.34,45.58c0,.36-.84.65-1.87.65s-1.87-.29-1.87-.65.83-.65,1.87-.65S67.34,45.22,67.34,45.58Z"/><path class="cls-7" d="M74.13,53c0,.36-.83.64-1.87.64s-1.87-.28-1.87-.64.84-.65,1.87-.65S74.13,52.63,74.13,53Z"/><path class="cls-7" d="M91.14,50.84c0,.36-.84.65-1.87.65s-1.88-.29-1.88-.65.84-.65,1.88-.65S91.14,50.48,91.14,50.84Z"/><path class="cls-7" d="M47.89,53.48c0,.36-.84.65-1.87.65s-1.87-.29-1.87-.65.83-.64,1.87-.64S47.89,53.13,47.89,53.48Z"/><path class="cls-7" d="M36,50.18c0,.36-.84.65-1.87.65s-1.87-.29-1.87-.65.84-.65,1.87-.65S36,49.82,36,50.18Z"/><path class="cls-7" d="M71.57,48.07c0,.36-.84.65-1.87.65s-1.87-.29-1.87-.65.84-.65,1.87-.65S71.57,47.71,71.57,48.07Z"/><path class="cls-7" d="M78.67,50.05c0,.36-.84.65-1.87.65s-1.87-.29-1.87-.65.84-.64,1.87-.64S78.67,49.69,78.67,50.05Z"/><path class="cls-7" d="M62.86,48.57c0,.36-.84.65-1.87.65s-1.87-.29-1.87-.65.83-.65,1.87-.65S62.86,48.21,62.86,48.57Z"/><path class="cls-7" d="M75.06,43.59c0,.36-.84.65-1.87.65s-1.87-.29-1.87-.65.83-.65,1.87-.65S75.06,43.23,75.06,43.59Z"/><path class="cls-7" d="M71.07,50.06c0,.36-.83.65-1.87.65s-1.87-.29-1.87-.65.84-.64,1.87-.64S71.07,49.7,71.07,50.06Z"/><path class="cls-7" d="M66,47.82c0,.25-.59.45-1.31.45s-1.31-.2-1.31-.45.59-.46,1.31-.46S66,47.57,66,47.82Z"/><path class="cls-7" d="M46.52,49.76c0,.25-.58.45-1.3.45s-1.31-.2-1.31-.45.59-.45,1.31-.45S46.52,49.51,46.52,49.76Z"/><path class="cls-7" d="M70.27,44.64c0,.25-.58.46-1.3.46s-1.31-.21-1.31-.46.58-.45,1.31-.45S70.27,44.39,70.27,44.64Z"/><path class="cls-7" d="M80.53,47.21c0,.25-.58.46-1.3.46s-1.31-.21-1.31-.46.59-.45,1.31-.45S80.53,47,80.53,47.21Z"/><path class="cls-7" d="M75.88,46.92c0,.25-.58.45-1.31.45s-1.3-.2-1.3-.45.58-.45,1.3-.45S75.88,46.67,75.88,46.92Z"/><path class="cls-7" d="M77.19,52.49c0,.25-.59.46-1.31.46s-1.31-.21-1.31-.46.59-.45,1.31-.45S77.19,52.24,77.19,52.49Z"/><path class="cls-7" d="M77.51,45.06c0,.25-.59.46-1.31.46s-1.31-.21-1.31-.46.59-.45,1.31-.45S77.51,44.81,77.51,45.06Z"/><path class="cls-7" d="M54.9,45.94c0,.25-.58.45-1.3.45s-1.31-.2-1.31-.45.59-.45,1.31-.45S54.9,45.69,54.9,45.94Z"/><path class="cls-7" d="M39.11,44.66c0,.25-.59.45-1.31.45s-1.3-.2-1.3-.45.58-.46,1.3-.46S39.11,44.41,39.11,44.66Z"/><path class="cls-7" d="M91.72,47.21c0,.25-.59.46-1.31.46s-1.31-.21-1.31-.46.59-.45,1.31-.45S91.72,47,91.72,47.21Z"/><path class="cls-7" d="M84.26,44.2c0,.25-.58.46-1.3.46s-1.31-.21-1.31-.46.58-.45,1.31-.45S84.26,44,84.26,44.2Z"/><path class="cls-7" d="M60.43,54.47c0,.36-.84.65-1.87.65s-1.87-.29-1.87-.65.84-.65,1.87-.65S60.43,54.12,60.43,54.47Z"/><path class="cls-7" d="M67.86,53.65c0,.36-.84.64-1.87.64s-1.87-.28-1.87-.64S65,53,66,53,67.86,53.29,67.86,53.65Z"/><path class="cls-7" d="M71.5,46.64c0,.17-.4.31-.9.31s-.9-.14-.9-.31.4-.32.9-.32S71.5,46.46,71.5,46.64Z"/><path class="cls-7" d="M82.17,51.5c0,.18-.41.32-.9.32s-.91-.14-.91-.32.41-.32.91-.32S82.17,51.32,82.17,51.5Z"/><path class="cls-7" d="M55.53,42.49c0,.18-.4.32-.9.32s-.9-.14-.9-.32.41-.32.9-.32S55.53,42.32,55.53,42.49Z"/><path class="cls-7" d="M60.64,41.32c0,.17-.41.32-.9.32s-.91-.15-.91-.32.41-.32.91-.32S60.64,41.14,60.64,41.32Z"/><path class="cls-7" d="M44.11,41.1c0,.18-.4.32-.9.32s-.9-.14-.9-.32.4-.32.9-.32S44.11,40.93,44.11,41.1Z"/><path class="cls-7" d="M51.53,41.85c0,.18-.4.32-.9.32s-.9-.14-.9-.32.4-.32.9-.32S51.53,41.68,51.53,41.85Z"/><path class="cls-7" d="M42.29,43.46c0,.17-.4.32-.9.32s-.9-.15-.9-.32.4-.32.9-.32S42.29,43.28,42.29,43.46Z"/><path class="cls-7" d="M41,50.23c0,.17-.4.32-.9.32s-.9-.15-.9-.32.4-.32.9-.32S41,50.05,41,50.23Z"/><path class="cls-7" d="M41.8,46.71c0,.18-.4.32-.9.32s-.9-.14-.9-.32.4-.32.9-.32S41.8,46.54,41.8,46.71Z"/><path class="cls-7" d="M62,43.32c0,.18-.41.33-.91.33s-.9-.15-.9-.33.41-.32.9-.32S62,43.15,62,43.32Z"/><path class="cls-7" d="M56.08,43.73c0,.17-.4.32-.9.32s-.9-.15-.9-.32.4-.32.9-.32S56.08,43.55,56.08,43.73Z"/><path class="cls-7" d="M31.44,44.93c0,.18-.4.32-.9.32s-.9-.14-.9-.32.4-.32.9-.32S31.44,44.76,31.44,44.93Z"/><path class="cls-7" d="M27.16,46.14c0,.18-.41.32-.91.32s-.9-.14-.9-.32.41-.32.9-.32S27.16,46,27.16,46.14Z"/><path class="cls-7" d="M86.75,42.92c0,.18-.4.32-.9.32s-.9-.14-.9-.32.4-.32.9-.32S86.75,42.75,86.75,42.92Z"/><path class="cls-7" d="M90,45.6c0,.18-.41.32-.9.32s-.9-.14-.9-.32.4-.32.9-.32S90,45.43,90,45.6Z"/><path class="cls-7" d="M95.06,45.74c0,.17-.41.31-.9.31s-.91-.14-.91-.31.41-.32.91-.32S95.06,45.56,95.06,45.74Z"/><path class="cls-7" d="M32,47.21c0,.18-.4.33-.9.33s-.9-.15-.9-.33.41-.31.9-.31S32,47,32,47.21Z"/><path class="cls-7" d="M86.19,46.32c0,.17-.41.32-.9.32s-.91-.15-.91-.32.41-.32.91-.32S86.19,46.14,86.19,46.32Z"/><path class="cls-7" d="M82.55,49.9c0,.17-.4.32-.9.32s-.9-.15-.9-.32.4-.32.9-.32S82.55,49.72,82.55,49.9Z"/><path class="cls-7" d="M90.85,44.2c0,.18-.41.32-.91.32s-.9-.14-.9-.32.41-.32.9-.32S90.85,44,90.85,44.2Z"/><path class="cls-8" d="M33.69,46.41a5.1,5.1,0,0,0-3.38,1,5.1,5.1,0,0,0,3.38,1,5.1,5.1,0,0,0,3.38-1A5.1,5.1,0,0,0,33.69,46.41Z"/><path class="cls-8" d="M36.59,44.92a3,3,0,0,0-2-1.66A3,3,0,0,0,35,45.81a2.92,2.92,0,0,0,2,1.65A3,3,0,0,0,36.59,44.92Z"/><path class="cls-8" d="M38.86,46.16a2.94,2.94,0,0,0,.62-2.49,3,3,0,0,0-2.14,1.41,2.94,2.94,0,0,0-.62,2.49A2.94,2.94,0,0,0,38.86,46.16Z"/><path class="cls-8" d="M72.12,44.39a5.09,5.09,0,0,0-3.42-.79,5,5,0,0,0,2.49,2.47,5.09,5.09,0,0,0,3.42.8A5.09,5.09,0,0,0,72.12,44.39Z"/><path class="cls-8" d="M75.37,44.49a3,3,0,0,0-.91-2.4,3,3,0,0,0-.95,2.38,3,3,0,0,0,.91,2.4A3,3,0,0,0,75.37,44.49Z"/><path class="cls-8" d="M76.76,46.68a3,3,0,0,0,1.75-1.89A3,3,0,0,0,76,45a2.93,2.93,0,0,0-1.74,1.87A2.93,2.93,0,0,0,76.76,46.68Z"/><path class="cls-9" d="M44.23,51.79l15.74,0s-2.29,2.63-7.29,2.74C46.6,54.65,44.23,51.79,44.23,51.79Z"/><path class="cls-10" d="M59.8,51.44a8.54,8.54,0,0,0-.66-1.13,9.5,9.5,0,0,0-.58-1.2,9.06,9.06,0,0,0-1.8-1.91c-.35-.24-.86-.13-1.25-.32s-.61-.84-1-1a10.51,10.51,0,0,0-1.27-.21A9,9,0,0,0,52,45.59a9.05,9.05,0,0,0-1.25.29c-.42.06-.9-.13-1.3,0s-.74.54-1.12.72-.64.63-1,.87-1,.09-1.3.38a8.84,8.84,0,0,0-.86,1.06,9.41,9.41,0,0,0-.67,1.2c-.22.39-.08,1-.24,1.39a1.21,1.21,0,0,1-.16.28H60A2.56,2.56,0,0,1,59.8,51.44Z"/><path class="cls-11" d="M49.87,48.45a.84.84,0,1,1-.83-.7A.77.77,0,0,1,49.87,48.45Z"/><path class="cls-11" d="M48.1,49.82a.84.84,0,1,1-.83-.7A.77.77,0,0,1,48.1,49.82Z"/><path class="cls-11" d="M53.2,49.05a.84.84,0,1,1-.83-.7A.77.77,0,0,1,53.2,49.05Z"/><path class="cls-11" d="M52.89,46.75a.84.84,0,1,1-.83-.71A.77.77,0,0,1,52.89,46.75Z"/><path class="cls-11" d="M55.91,48.91a.84.84,0,1,1-.83-.7A.77.77,0,0,1,55.91,48.91Z"/><path class="cls-11" d="M51.12,48.25a.42.42,0,1,1-.41-.44A.43.43,0,0,1,51.12,48.25Z"/><path class="cls-11" d="M54.35,47.32a.43.43,0,0,1-.42.44.44.44,0,0,1,0-.88A.43.43,0,0,1,54.35,47.32Z"/><path class="cls-11" d="M54.45,50.4a.42.42,0,0,1-.42.44.43.43,0,0,1-.41-.44A.43.43,0,0,1,54,50,.43.43,0,0,1,54.45,50.4Z"/><path class="cls-11" d="M50,47a.43.43,0,0,1-.41.44.43.43,0,0,1-.42-.44.43.43,0,0,1,.42-.44A.42.42,0,0,1,50,47Z"/><path class="cls-11" d="M50.39,50.51A.42.42,0,0,1,50,51a.44.44,0,0,1,0-.87A.42.42,0,0,1,50.39,50.51Z"/><path class="cls-11" d="M58.71,49.94a.77.77,0,0,1-.82.71.71.71,0,1,1,0-1.41A.77.77,0,0,1,58.71,49.94Z"/><path class="cls-9" d="M57.85,42.27h10A6.59,6.59,0,0,1,63.24,44C59.36,44,57.85,42.27,57.85,42.27Z"/><path class="cls-12" d="M67.79,42.06a4.48,4.48,0,0,0-.42-.7,5.68,5.68,0,0,0-.37-.74,6.53,6.53,0,0,0-.53-.63,4.6,4.6,0,0,0-.62-.55c-.23-.15-.55-.09-.8-.2s-.39-.52-.65-.6a6.85,6.85,0,0,0-.81-.13,7.17,7.17,0,0,0-.81-.07,5.45,5.45,0,0,0-.8.18c-.27,0-.58-.08-.83,0a6.59,6.59,0,0,0-.72.44c-.24.11-.4.39-.63.54s-.63,0-.83.23a5.66,5.66,0,0,0-.55.66,4.88,4.88,0,0,0-.42.74c-.14.24-.06.6-.16.86a.69.69,0,0,1-.1.17H67.89A1.86,1.86,0,0,1,67.79,42.06Z"/><path class="cls-11" d="M61.45,40.21a.54.54,0,1,1-.53-.43A.49.49,0,0,1,61.45,40.21Z"/><path class="cls-11" d="M60.32,41.06a.54.54,0,0,1-1.06,0,.54.54,0,0,1,1.06,0Z"/><path class="cls-11" d="M63.57,40.58A.49.49,0,0,1,63,41a.5.5,0,0,1-.53-.44.49.49,0,0,1,.53-.43A.48.48,0,0,1,63.57,40.58Z"/><path class="cls-11" d="M63.38,39.16a.55.55,0,0,1-1.07,0,.55.55,0,0,1,1.07,0Z"/><path class="cls-11" d="M65.3,40.5a.48.48,0,0,1-.53.43.44.44,0,1,1,0-.86A.48.48,0,0,1,65.3,40.5Z"/><path class="cls-11" d="M62.25,40.09a.27.27,0,1,1-.27-.27A.27.27,0,0,1,62.25,40.09Z"/><path class="cls-11" d="M64.31,39.51a.27.27,0,0,1-.27.27.27.27,0,0,1,0-.54A.27.27,0,0,1,64.31,39.51Z"/><path class="cls-11" d="M64.37,41.42a.26.26,0,0,1-.26.27.27.27,0,1,1,0-.54A.26.26,0,0,1,64.37,41.42Z"/><path class="cls-11" d="M61.52,39.3a.27.27,0,1,1-.27-.27A.27.27,0,0,1,61.52,39.3Z"/><path class="cls-11" d="M61.78,41.49a.27.27,0,1,1-.26-.27A.27.27,0,0,1,61.78,41.49Z"/><path class="cls-11" d="M67.1,41.13a.5.5,0,0,1-.53.44.49.49,0,0,1-.53-.44.48.48,0,0,1,.53-.43A.49.49,0,0,1,67.1,41.13Z"/><path class="cls-9" d="M71.26,50.09H84.49s-1.93,1.7-6.12,1.78C73.26,52,71.26,50.09,71.26,50.09Z"/><path class="cls-13" d="M84.35,49.87a4.3,4.3,0,0,0-.56-.73,4.25,4.25,0,0,0-.49-.78,6.17,6.17,0,0,0-.69-.66,7,7,0,0,0-.81-.58c-.3-.15-.73-.08-1-.2s-.52-.55-.86-.63-.71-.09-1.06-.14a9.63,9.63,0,0,0-1.08-.07,9.23,9.23,0,0,0-1,.19c-.35,0-.76-.08-1.09,0a10.48,10.48,0,0,0-1,.47c-.32.12-.53.41-.83.56s-.83.06-1.09.25a6.75,6.75,0,0,0-.73.68,5.81,5.81,0,0,0-.55.78c-.19.25-.08.63-.21.9a.64.64,0,0,1-.13.18H84.48Z"/><path class="cls-11" d="M76,47.93c0,.25-.31.46-.7.46s-.69-.21-.69-.46.31-.45.69-.45S76,47.68,76,47.93Z"/><path class="cls-11" d="M74.51,48.82c0,.25-.31.46-.69.46s-.7-.21-.7-.46.31-.45.7-.45S74.51,48.57,74.51,48.82Z"/><path class="cls-11" d="M78.8,48.32c0,.25-.31.46-.7.46s-.69-.21-.69-.46.31-.45.69-.45S78.8,48.07,78.8,48.32Z"/><path class="cls-11" d="M78.54,46.83c0,.25-.31.46-.7.46s-.7-.21-.7-.46.32-.46.7-.46S78.54,46.58,78.54,46.83Z"/><path class="cls-11" d="M81.08,48.23c0,.26-.32.46-.7.46s-.7-.2-.7-.46.31-.45.7-.45S81.08,48,81.08,48.23Z"/><path class="cls-11" d="M77.05,47.8a.32.32,0,0,1-.34.29.33.33,0,0,1-.36-.29.32.32,0,0,1,.36-.28A.31.31,0,0,1,77.05,47.8Z"/><path class="cls-11" d="M79.77,47.2a.33.33,0,0,1-.36.29.29.29,0,1,1,0-.58A.33.33,0,0,1,79.77,47.2Z"/><path class="cls-11" d="M79.85,49.2a.32.32,0,0,1-.35.28.29.29,0,1,1,0-.57A.32.32,0,0,1,79.85,49.2Z"/><path class="cls-11" d="M76.09,47a.36.36,0,0,1-.7,0,.36.36,0,0,1,.7,0Z"/><path class="cls-11" d="M76.44,49.27a.31.31,0,0,1-.35.28.29.29,0,1,1,0-.56A.31.31,0,0,1,76.44,49.27Z"/><path class="cls-11" d="M83.44,48.9c0,.25-.31.45-.7.45s-.7-.2-.7-.45.31-.46.7-.46S83.44,48.65,83.44,48.9Z"/><path class="cls-14" d="M60.62,58.25c-21,0-42.64-5.36-42.64-14.32S39.66,29.62,60.62,29.62,103.27,35,103.27,43.93,81.59,58.25,60.62,58.25Zm0-26.41c-24.18,0-40.42,6.25-40.42,12.09S36.44,56,60.62,56s40.43-6.25,40.43-12.09S84.8,31.84,60.62,31.84Z"/><path class="cls-15" d="M104.7,16.65c-1.42-.4-3,0-3.63.83L94.45,28,85,43.17l2.23.61c2.87-3.54,6.91-9.56,11-14.76,4.27-5.43,7.86-10,7.94-10.09C106.8,18.07,106.12,17.05,104.7,16.65Z"/><path class="cls-16" d="M104,16.39c-1.42-.4-3,0-3.63.82L93.73,27.77c-3.29,5.3-7.07,11.38-9.41,15.13l2.22.62c2.87-3.54,6.91-9.56,11-14.76l7.94-10.09C106.08,17.81,105.4,16.79,104,16.39Z"/><path class="cls-17" d="M53.79,15.85c-1.64,2.43-2.59,4.68-1.95,6.6s2.68,3.47,5,4.47C55,22.16,59,18.33,60.14,15.9s1.58-4.69.91-6.6a8.94,8.94,0,0,0-4-4.47,6,6,0,0,1,.46,4.44C57,11.17,55.43,13.43,53.79,15.85Z"/><path class="cls-17" d="M64.56,21.09c-1,1.51-1.61,2.92-1.21,4.12S65,27.37,66.48,28c-1.19-3,1.35-5.36,2-6.88A5.66,5.66,0,0,0,69.08,17a5.58,5.58,0,0,0-2.49-2.8A3.76,3.76,0,0,1,66.88,17,15.74,15.74,0,0,1,64.56,21.09Z"/></g></g></svg>