<svg xmlns="http://www.w3.org/2000/svg" xmlns:xlink="http://www.w3.org/1999/xlink" viewBox="0 0 123.4 81.06"><defs><style>.cls-1{fill:#8ec044;}.cls-2{fill:#ededed;}.cls-3{fill:#aeaeae;}.cls-4{fill:#797979;}.cls-5{fill:url(#linear-gradient);}.cls-6{fill:#8d1003;}.cls-7{fill:#6b0f09;}.cls-8{fill:#981418;}.cls-9{fill:#f1a284;}.cls-10{fill:#cecece;}.cls-11{fill:url(#linear-gradient-2);}.cls-12{fill:#91140c;}.cls-13{fill:#a3151b;}.cls-14{fill:#e94e1b;}.cls-15{fill:url(#linear-gradient-3);}.cls-16{fill:url(#linear-gradient-4);}.cls-17{fill:url(#linear-gradient-5);}.cls-18{fill:#af0e1b;}.cls-19{fill:url(#linear-gradient-6);}.cls-20{fill:#b2b2b2;}.cls-21{fill:url(#linear-gradient-7);}.cls-22{fill:url(#linear-gradient-8);}.cls-23{fill:#9a1418;}.cls-24{fill:url(#linear-gradient-9);}.cls-25{fill:url(#linear-gradient-10);}.cls-26{fill:url(#linear-gradient-11);}.cls-27{fill:url(#linear-gradient-12);}.cls-28{fill:url(#linear-gradient-13);}.cls-29{fill:url(#linear-gradient-14);}</style><linearGradient id="linear-gradient" x1="-4005.64" y1="-2543.19" x2="-3987.14" y2="-2543.19" gradientTransform="matrix(0.32, -0.95, 0.95, 0.32, 3705.04, -2940.71)" gradientUnits="userSpaceOnUse"><stop offset="0" stop-color="#bd3529"/><stop offset="1" stop-color="#de491d"/></linearGradient><linearGradient id="linear-gradient-2" x1="102.59" y1="172.46" x2="102.59" y2="185.67" gradientTransform="matrix(1, -0.05, 0.05, 1, -66.14, -134.59)" gradientUnits="userSpaceOnUse"><stop offset="0" stop-color="#bd1d1d"/><stop offset="0.38" stop-color="#cf341b"/><stop offset="1" stop-color="#ea5619"/></linearGradient><linearGradient id="linear-gradient-3" x1="2770.17" y1="-3546.87" x2="2770.17" y2="-3535.14" gradientTransform="translate(-4349.05 841.09) rotate(41.5)" xlink:href="#linear-gradient-2"/><linearGradient id="linear-gradient-4" x1="2770.56" y1="-3543.21" x2="2770.56" y2="-3539.97" gradientTransform="translate(-4349.05 841.09) rotate(41.5)" gradientUnits="userSpaceOnUse"><stop offset="0" stop-color="#ea5539"/><stop offset="0.31" stop-color="#ed6844"/><stop offset="1" stop-color="#f2905b"/></linearGradient><linearGradient id="linear-gradient-5" x1="3481.7" y1="-4090.98" x2="3500.03" y2="-4090.98" gradientTransform="matrix(-0.08, 1, -1, -0.08, -3726.24, -3789.45)" xlink:href="#linear-gradient"/><linearGradient id="linear-gradient-6" x1="-3958.78" y1="-2497.38" x2="-3940.45" y2="-2497.38" xlink:href="#linear-gradient"/><linearGradient id="linear-gradient-7" x1="-3897.53" y1="-2213.3" x2="-3879.03" y2="-2213.3" gradientTransform="translate(3607.05 -2633.55) rotate(-66.75)" xlink:href="#linear-gradient"/><linearGradient id="linear-gradient-8" x1="3456.32" y1="-4407.5" x2="3471.62" y2="-4407.5" gradientTransform="matrix(-0.17, 0.98, -0.98, -0.17, -3653.25, -4130.04)" xlink:href="#linear-gradient"/><linearGradient id="linear-gradient-9" x1="-3847.98" y1="-2165.4" x2="-3829.65" y2="-2165.4" gradientTransform="translate(3607.05 -2633.55) rotate(-66.75)" xlink:href="#linear-gradient"/><linearGradient id="linear-gradient-10" x1="3173.56" y1="-5330.89" x2="3191.89" y2="-5330.89" gradientTransform="matrix(-0.4, 0.92, -0.92, -0.4, -3540.41, -5001.18)" xlink:href="#linear-gradient"/><linearGradient id="linear-gradient-11" x1="329.32" y1="346.29" x2="329.32" y2="358.22" gradientTransform="matrix(0.97, 0.23, -0.23, 0.97, -186.45, -359.4)" xlink:href="#linear-gradient-2"/><linearGradient id="linear-gradient-12" x1="334.28" y1="355.4" x2="334.28" y2="356.3" gradientTransform="matrix(0.97, 0.23, -0.23, 0.97, -186.45, -359.4)" xlink:href="#linear-gradient-4"/><linearGradient id="linear-gradient-13" x1="1465.5" y1="-1235.44" x2="1465.5" y2="-1223.52" gradientTransform="translate(1516.41 -1209.36) rotate(178.84)" xlink:href="#linear-gradient-2"/><linearGradient id="linear-gradient-14" x1="1470.46" y1="-1226.33" x2="1470.46" y2="-1225.43" gradientTransform="translate(1516.41 -1209.36) rotate(178.84)" xlink:href="#linear-gradient-4"/></defs><g id="Capa_2" data-name="Capa 2"><g id="Layer_1" data-name="Layer 1"><path class="cls-1" d="M59.1,50.92c23.56,0,44.69,3.39,59.11,8.74-3-32.84-28.3-58.5-59.11-58.5S3,26.82,0,59.67C14.42,54.31,35.55,50.92,59.1,50.92Z"/><path class="cls-2" d="M41.74,18.06c-1.92,2.67-3,5.15-2.28,7.27s3.15,3.82,5.91,4.93C43.12,25,47.9,20.79,49.19,18.12s1.86-5.16,1.07-7.27S47.48,7,45.57,5.92a6.25,6.25,0,0,1,.53,4.9C45.54,12.91,43.67,15.4,41.74,18.06Z"/><path class="cls-2" d="M71.13,7.72c-1.2,1.68-1.92,3.26-1.51,4.63s1.79,2.51,3.41,3.28c-1.23-3.42,1.71-6,2.54-7.72a6.49,6.49,0,0,0,.79-4.65A6.35,6.35,0,0,0,73.67,0a4.28,4.28,0,0,1,.22,3.15A17.53,17.53,0,0,1,71.13,7.72Z"/><path class="cls-2" d="M51.5,17.73c-1,1.3-1.55,2.53-1.29,3.63a4.48,4.48,0,0,0,2.45,2.7c-.81-2.74,1.48-4.74,2.15-6.06a5.35,5.35,0,0,0,.75-3.67,4.85,4.85,0,0,0-1.91-2.66,3.49,3.49,0,0,1,.06,2.51A14.53,14.53,0,0,1,51.5,17.73Z"/><path class="cls-2" d="M80,34.3a4.49,4.49,0,0,0-1.43,3.15,3.93,3.93,0,0,0,1.83,2.61c-.43-2.52,1.7-4.13,2.39-5.25a5.18,5.18,0,0,0,1-3.23A4.41,4.41,0,0,0,82.42,29a3.37,3.37,0,0,1-.18,2.25A13.51,13.51,0,0,1,80,34.3Z"/><path class="cls-2" d="M43.69,54.13a3.23,3.23,0,0,0-.21,2.45,2.83,2.83,0,0,0,1.85,1.31c-.89-1.58.15-3.16.34-4.08a3.66,3.66,0,0,0-.12-2.39A3.12,3.12,0,0,0,44,50.06a2.34,2.34,0,0,1,.41,1.55A9.37,9.37,0,0,1,43.69,54.13Z"/><path class="cls-2" d="M29.06,28.9c-1,1.37-1.56,2.65-1.23,3.76a4.74,4.74,0,0,0,2.78,2.66c-1-2.77,1.38-4.9,2-6.28a5.2,5.2,0,0,0,.63-3.77,5.06,5.06,0,0,0-2.18-2.64,3.48,3.48,0,0,1,.17,2.56A14.39,14.39,0,0,1,29.06,28.9Z"/><path class="cls-3" d="M14.79,53.58,15.31,55c1.12,3,.31,5-2.6,6.49a4.35,4.35,0,1,1-4-7.71L7.15,50.79a7.66,7.66,0,0,0,7.09,13.59c3.93-2,5.53-5.28,4.6-9.18L32,48.35l-1.53-2.94Z"/><path class="cls-4" d="M18.37,54.9l.11.5c.77,3.43-.74,6.26-4.38,8.15a6.81,6.81,0,0,1-9.25-2.62A6.75,6.75,0,0,1,7.72,52l-.66-1.15A8.09,8.09,0,0,0,3.67,61.54a8.14,8.14,0,0,0,11,3.19c4-2.08,5.81-5.31,5.17-9.11L32.37,49.1l-.62-1.19Z"/><path class="cls-5" d="M38,47.26s-2.91,8.29-11.16,9.12a17.12,17.12,0,0,1-4.63-15.67l8.49-2.54S33.67,45.82,38,47.26Z"/><path class="cls-6" d="M22.2,40.86l3.33,0s-.9,8,7.65,13.48c0,0-3.58,2.73-6.51,2C26.67,56.25,20.69,49.5,22.2,40.86Z"/><path class="cls-7" d="M22.82,41.46a19.28,19.28,0,0,0,0,2.44c0,.36,0,.76.1,1.17s.1.85.18,1.3.19.89.3,1.35.27.91.42,1.37.33.88.56,1.29A11.92,11.92,0,0,0,25,51.55a8.11,8.11,0,0,0,.74,1,7.36,7.36,0,0,0,.76.8c.25.22.49.43.69.62l.6.38c.32.23.51.35.51.35l-1,1.66-.59-.46L26,55.37l-.76-.81a6.57,6.57,0,0,1-.8-1,8.64,8.64,0,0,1-.75-1.22,12.41,12.41,0,0,1-.64-1.38c-.21-.47-.32-1-.49-1.48s-.24-1-.32-1.5-.16-1-.19-1.46S22,45.56,22,45.12s0-.84,0-1.22a19.17,19.17,0,0,1,.25-2.52Z"/><path class="cls-8" d="M30.42,39v.13c0,.08,0,.2,0,.37a8,8,0,0,0,.29,1.28c.08.26.18.54.3.83s.26.58.44.87a8.07,8.07,0,0,0,.55.88c.2.3.45.56.67.84s.5.52.75.76.54.45.8.65l.8.55c.26.17.52.3.75.44a11.36,11.36,0,0,0,1.17.56l.45.21-.84,1.77-.47-.28a12.18,12.18,0,0,1-1.24-.79c-.24-.17-.51-.36-.78-.57l-.83-.73c-.27-.26-.53-.55-.81-.84s-.49-.62-.75-.94-.45-.67-.63-1a10,10,0,0,1-.5-1.05,9.63,9.63,0,0,1-.37-1c-.09-.34-.17-.65-.22-1a9.24,9.24,0,0,1-.16-1.42c0-.18,0-.32,0-.42s0-.14,0-.14Z"/><path class="cls-8" d="M27.57,41.57v.12a3.66,3.66,0,0,0,0,.37,8.32,8.32,0,0,0,.29,1.29c.08.25.19.53.3.82a8.76,8.76,0,0,0,.43.87,8.29,8.29,0,0,0,.56.89c.2.3.44.55.67.84s.49.51.75.75.53.46.8.66l.8.55c.26.16.52.3.75.43a11.82,11.82,0,0,0,1.17.57l.45.2-.84,1.78s-.17-.11-.48-.28S32.51,51,32,50.64c-.24-.18-.51-.36-.79-.58l-.82-.72c-.27-.26-.53-.56-.81-.84s-.5-.63-.75-1-.45-.67-.64-1-.36-.69-.5-1.05a9.49,9.49,0,0,1-.36-1c-.09-.33-.17-.64-.22-.94A8.13,8.13,0,0,1,27,42.1c0-.17,0-.31,0-.41a.85.85,0,0,1,0-.15Z"/><polygon class="cls-9" points="24.52 40.55 29.73 38.66 29.8 39.32 24.63 40.85 24.52 40.55"/><polygon class="cls-10" points="30.45 45.41 31.98 48.35 73.72 26.58 73.43 22.99 30.45 45.41"/><polygon class="cls-4" points="31.75 47.91 32.37 49.1 73.79 27.49 73.67 25.99 31.75 47.91"/><path class="cls-11" d="M40.14,32.52c-.14.12-.28.24-.41.37A8.82,8.82,0,0,0,52,45.56l.06-.07Z"/><path class="cls-12" d="M46.08,48.48h0a9.38,9.38,0,0,1-6.79-2.9,9.27,9.27,0,0,1,.07-13.08l.35-.32.48-.4L52.83,45.53l-.42.37A9,9,0,0,1,46.08,48.48Zm-6-15.21a8.33,8.33,0,0,0,6,14.13,7.88,7.88,0,0,0,5.22-1.94Z"/><path class="cls-13" d="M46.91,42.73c-2,1.35-3.48.5-4.59-1.06s0-2.19.07-3.19c0-2.17-2.24-3-2.93-2.3-1.14,1.06-1.39,5.09,1.32,7.85s4.95,2.84,7.8,1.57C49.8,45.18,47.86,42.1,46.91,42.73Z"/><path class="cls-14" d="M40.19,38.68c-.37-.18-.74-.09-.82.19a.8.8,0,0,0,.53.82,4,4,0,0,0,1.44.12A4.35,4.35,0,0,0,40.19,38.68Z"/><path class="cls-14" d="M40.3,41a.5.5,0,0,0-.54.59.8.8,0,0,0,.8.54,3.18,3.18,0,0,0,1.18-.58A3.58,3.58,0,0,0,40.3,41Z"/><path class="cls-14" d="M41.49,43.11a.58.58,0,0,0-.14.85.67.67,0,0,0,.89.14A3.16,3.16,0,0,0,42.88,43,2.73,2.73,0,0,0,41.49,43.11Z"/><path class="cls-14" d="M43.46,44.65a.73.73,0,0,0,.3.89.53.53,0,0,0,.77-.29,4.15,4.15,0,0,0-.07-1.44A2.21,2.21,0,0,0,43.46,44.65Z"/><path class="cls-14" d="M45.74,45.19a.84.84,0,0,0,.67.73c.31,0,.51-.29.45-.67a5.57,5.57,0,0,0-.74-1.38A2.69,2.69,0,0,0,45.74,45.19Z"/><path class="cls-15" d="M77.51,29.7c-1.77,2.64-7.28,3.64-10,.65A9.21,9.21,0,0,1,67,19.24c2-2.51,6.57-2.61,9.28.38S79.28,27.05,77.51,29.7Z"/><path class="cls-12" d="M72,32.58a6.36,6.36,0,0,1-4.81-2A9.63,9.63,0,0,1,66.7,19a5.66,5.66,0,0,1,4.53-2,7.22,7.22,0,0,1,5.35,2.39c2.69,2.95,3.24,7.59,1.26,10.56A7.12,7.12,0,0,1,72,32.58Zm-.81-14.82a4.89,4.89,0,0,0-3.91,1.72,8.79,8.79,0,0,0,.49,10.61A5.63,5.63,0,0,0,72,31.79a6.31,6.31,0,0,0,5.14-2.31c1.57-2.35,1.56-6.58-1.18-9.59A6.48,6.48,0,0,0,71.23,17.76Z"/><path class="cls-13" d="M77.07,27c-.2,1.1-2.51-.59-2.14-1.45a3.17,3.17,0,0,0-1.08-4.08c-1.17-1-1.54.07-2.24.1a2,2,0,0,1-1.83-2.59c.66-1,3.47-1.31,5.61,1.08A6.56,6.56,0,0,1,77.07,27Z"/><path class="cls-14" d="M71.59,19.55c-.16-.33-.12-.66.07-.73s.47.12.62.45a4.85,4.85,0,0,1,.19,1.29A3.79,3.79,0,0,1,71.59,19.55Z"/><path class="cls-14" d="M73.19,19.62c0-.33.15-.55.37-.5a.8.8,0,0,1,.45.72,3,3,0,0,1-.33,1.06A3.9,3.9,0,0,1,73.19,19.62Z"/><path class="cls-14" d="M74.8,20.65a.35.35,0,0,1,.58-.13.73.73,0,0,1,.17.79,2,2,0,0,1-.77.59A3.3,3.3,0,0,1,74.8,20.65Z"/><path class="cls-14" d="M76,22.4a.48.48,0,0,1,.64.25.51.51,0,0,1-.15.69,2.48,2.48,0,0,1-1,0A1.76,1.76,0,0,1,76,22.4Z"/><path class="cls-14" d="M76.57,24.43a.7.7,0,0,1,.56.59.35.35,0,0,1-.43.41,4,4,0,0,1-1-.65A1.5,1.5,0,0,1,76.57,24.43Z"/><path class="cls-13" d="M75.28,29.64c.74-.31-1-2.91-1.5-2.42-1.14,1.07-2.21.33-3.14-1s-.28-1.82-.41-2.64c-.28-1.79-1.89-2.54-2.24-2-.6.84-.19,4.17,2,6.52S73.6,30.62,75.28,29.64Z"/><path class="cls-14" d="M68.82,23.7c-.27-.16-.5-.09-.51.13a.87.87,0,0,0,.46.7,2.46,2.46,0,0,0,1,.14A4.25,4.25,0,0,0,68.82,23.7Z"/><path class="cls-14" d="M69.21,25.58c-.24,0-.36.21-.27.47a.72.72,0,0,0,.6.48c.24,0,.69-.43.69-.46A2.76,2.76,0,0,0,69.21,25.58Z"/><path class="cls-14" d="M70.29,27.4a.56.56,0,0,0,0,.7.41.41,0,0,0,.6.14,2.39,2.39,0,0,0,.26-.94A1.39,1.39,0,0,0,70.29,27.4Z"/><path class="cls-14" d="M71.8,28.73a.81.81,0,0,0,.32.74c.21.15.42,0,.46-.22a5.11,5.11,0,0,0-.24-1.2C72.29,28,71.84,28.46,71.8,28.73Z"/><path class="cls-14" d="M73.37,29.23c.09.32.33.6.53.62s.3-.22.21-.54a6.09,6.09,0,0,0-.68-1.16A2.21,2.21,0,0,0,73.37,29.23Z"/><path class="cls-16" d="M72.3,23.84c.21-.33.81-1,1.13-1.06.71-.07,1.1,1.1,1.16,1.81.08.93-.25,1.25.49,2.25.42.58,2,1.73,1.43,2.38-.71-.72-1.32-1.54-2-2.33a8.28,8.28,0,0,0-1.26-1.39c-.67-.12-.75,1.67-1.65.53-.52-.67-.49-1.72-.81-2.45a7.27,7.27,0,0,0-1.51-2.13c-.31-.33-.91-.78-.66-1.25C69.11,19.34,72.14,24.08,72.3,23.84Z"/><path class="cls-17" d="M47.67,35.42s.51-9.67,8.64-11a17.14,17.14,0,0,1,8.17,14.16l-7.76,4.27S52.19,35.8,47.67,35.42Z"/><path class="cls-6" d="M64.44,38.41l-3.24.81s-1-8-10.6-11.3c0,0,2.84-3.49,5.87-3.43C56.47,24.49,63.87,29.65,64.44,38.41Z"/><path class="cls-7" d="M63.68,38a17.74,17.74,0,0,0-.54-2.37c-.12-.35-.22-.74-.37-1.12s-.3-.81-.49-1.22-.4-.83-.61-1.25-.48-.83-.73-1.23-.53-.78-.85-1.12a9.66,9.66,0,0,0-.93-1,6.3,6.3,0,0,0-.95-.8,6.54,6.54,0,0,0-.92-.6l-.82-.44-.67-.24c-.37-.13-2-1-2-1l2-1.12.68.31.77.36.93.6a10,10,0,0,1,1,.81,8,8,0,0,1,1,1,9.83,9.83,0,0,1,.94,1.19A13.82,13.82,0,0,1,62,30.13c.24.46.48.92.67,1.39s.39.92.53,1.38.29.89.4,1.31.19.82.28,1.19a18.74,18.74,0,0,1,.35,2.51Z"/><path class="cls-8" d="M49.63,32.77l.51.1c.33.09.79.15,1.35.34l.9.29,1,.41c.33.15.66.34,1,.52s.65.42,1,.64.63.48.91.75a10.28,10.28,0,0,1,.8.82,9.68,9.68,0,0,1,.66.84,8,8,0,0,1,.52.83,8.34,8.34,0,0,1,.61,1.33c.06.17.1.31.13.41s0,.17,0,.17l-1.12.19s0-.13-.1-.43a7.56,7.56,0,0,0-.46-1.21,8.44,8.44,0,0,0-.41-.77,7.76,7.76,0,0,0-.56-.8,7.12,7.12,0,0,0-.68-.81c-.24-.26-.52-.49-.79-.75s-.58-.45-.88-.66-.61-.39-.92-.55l-.9-.45c-.29-.13-.57-.23-.83-.34a7.05,7.05,0,0,0-.73-.25l-.58-.16-.5-.14Z"/><polygon class="cls-18" points="64.18 38.27 56.57 42.69 56.49 41.68 61.51 38.92 64.18 38.27"/><path class="cls-12" d="M66.29,21s-1,8.1,6.54,11.11c0,0-4.53.61-6.32-3.33C64.81,25,65.48,20.92,66.29,21Z"/><polygon class="cls-10" points="87.86 15.46 73.43 22.99 73.72 26.58 89.39 18.4 87.86 15.46"/><polygon class="cls-4" points="89.14 17.9 73.67 25.99 73.79 27.49 89.79 19.15 89.14 17.9"/><path class="cls-19" d="M96.46,16.91S93.25,25.53,85,26.37a17.14,17.14,0,0,1-4.62-15.68l8.55-2.33S92.16,15.48,96.46,16.91Z"/><path class="cls-6" d="M80.39,10.84l3.33,0s-.9,8,7.65,13.47c0,0-3.58,2.73-6.51,2C84.86,26.24,78.88,19.49,80.39,10.84Z"/><path class="cls-13" d="M85.68,11.18a.73.73,0,0,1,0,.13q0,.12,0,.36A8.05,8.05,0,0,0,86,13a7,7,0,0,0,.3.83c.13.28.26.58.43.87s.36.59.56.89.44.55.66.83.5.52.76.76.53.46.8.65l.79.56.76.43c.45.27,2.23.84,2.51,1s-.11.36-.11.36l-1.17,1.51s-.63-.41-.93-.59a12.52,12.52,0,0,1-1.23-.78c-.24-.19-.52-.37-.79-.58L88.54,19c-.27-.26-.54-.56-.81-.85s-.5-.63-.75-.94-.45-.67-.63-1a10.11,10.11,0,0,1-.51-1,8.91,8.91,0,0,1-.36-1c-.1-.33-.17-.64-.23-.94a8,8,0,0,1-.15-1.43c0-.17,0-.31,0-.41a.79.79,0,0,1,0-.14Z"/><path class="cls-7" d="M81,11.45a17.77,17.77,0,0,0,0,2.43c0,.37,0,.76.1,1.17a12.36,12.36,0,0,0,.19,1.3,13.86,13.86,0,0,0,.3,1.36c.11.46.27.91.42,1.36a13.75,13.75,0,0,0,.56,1.3,10.13,10.13,0,0,0,.66,1.17,7.13,7.13,0,0,0,.75,1,6.59,6.59,0,0,0,.75.81l.69.61c.24.15.43.28.6.4l2.08,1.28-2.61.72-.59-.47-.66-.53-.77-.8a8.61,8.61,0,0,1-.8-1,8.21,8.21,0,0,1-.75-1.23,9.66,9.66,0,0,1-.63-1.38,14.9,14.9,0,0,1-.49-1.47c-.12-.5-.24-1-.33-1.5s-.16-1-.18-1.47-.07-.93-.08-1.37,0-.85,0-1.22a17.26,17.26,0,0,1,.25-2.52Z"/><path class="cls-13" d="M88.61,9s0,0,0,.13,0,.2,0,.36a8.3,8.3,0,0,0,.3,1.29,6.34,6.34,0,0,0,.3.82,7.12,7.12,0,0,0,.43.88,9.28,9.28,0,0,0,.56.88c.19.29.44.56.66.84s.5.52.76.75.53.46.8.66l.79.55c.26.16.52.3.76.43a10.83,10.83,0,0,0,1.17.57l.45.2-.84,1.78-.48-.28A12.94,12.94,0,0,1,93.08,18c-.25-.18-.52-.36-.79-.58s-.54-.46-.82-.72-.54-.55-.81-.84-.5-.63-.75-1-.45-.67-.64-1a9.86,9.86,0,0,1-.5-1,8.91,8.91,0,0,1-.36-1,7.53,7.53,0,0,1-.23-.94A9,9,0,0,1,88,9.5V9.09c0-.1,0-.15,0-.15Z"/><polygon class="cls-9" points="80.69 10.57 88.93 8.53 87.99 9.31 82.83 10.85 80.69 10.57"/><polygon class="cls-10" points="100.95 8.63 87.86 15.46 89.39 18.4 107.58 8.91 100.95 8.63"/><polygon class="cls-4" points="106.5 8.82 89.14 17.9 89.79 19.15 109.16 9.04 106.5 8.82"/><path class="cls-20" d="M25.61,69.28,26,70.7c.86,3-.11,5-3.14,6.24a4.35,4.35,0,0,1-3.36-8l-1.28-3A7.66,7.66,0,0,0,24.16,80c4.09-1.72,6-4.79,5.36-8.76l74.19-31.07-1.22-3.08Z"/><path class="cls-4" d="M29.08,70.91l.06.5c.49,3.48-1.26,6.17-5.05,7.76A6.61,6.61,0,1,1,18.7,67.11l-.56-1.2A7.93,7.93,0,1,0,24.6,80.39c4.15-1.74,6.24-4.8,5.91-8.65L104,41l-.52-1.3Z"/><path class="cls-21" d="M48.18,65.91S44.09,74,35.8,74.1a17.13,17.13,0,0,1-3.29-16l8.67-1.82S44,64.12,48.18,65.91Z"/><path class="cls-6" d="M32.51,58.23l3.33.25s-1.58,7.94,6.48,14.08c0,0-3.79,2.41-6.65,1.39C35.67,74,30.28,66.72,32.51,58.23Z"/><path class="cls-7" d="M33.08,58.89a19.79,19.79,0,0,0-.23,2.43c0,.36,0,.75,0,1.17s0,.86.08,1.31.12.91.19,1.38.19.93.3,1.39a12.4,12.4,0,0,0,.45,1.34,9.1,9.1,0,0,0,.57,1.22,6.69,6.69,0,0,0,.65,1.05,5.75,5.75,0,0,0,.69.87l.64.67.55.44.49.38-1.19,1.58s-.19-.19-.54-.51L35.11,73l-.69-.87a7.48,7.48,0,0,1-.71-1.08,8.53,8.53,0,0,1-.65-1.28,11,11,0,0,1-.51-1.43c-.17-.49-.25-1-.37-1.51s-.15-1-.19-1.53-.08-1-.07-1.47,0-.94,0-1.37.08-.85.11-1.23a19.55,19.55,0,0,1,.46-2.48Z"/><path class="cls-8" d="M40.86,57.06v.13c0,.08,0,.2,0,.36A8.3,8.3,0,0,0,41,58.86c.06.27.14.55.23.85s.21.6.36.91a10.13,10.13,0,0,0,.48.92c.18.31.4.59.6.9s.45.55.69.81.49.5.74.72l.74.62c.25.18.5.33.72.49a9.8,9.8,0,0,0,1.12.66l.43.24-1,1.71-.45-.33a12.28,12.28,0,0,1-1.16-.88c-.23-.2-.48-.41-.74-.65l-.76-.78c-.25-.29-.48-.6-.73-.91s-.45-.67-.67-1-.39-.71-.55-1.08a11.19,11.19,0,0,1-.69-2.12,9.68,9.68,0,0,1-.14-1,9.3,9.3,0,0,1,0-1.44c0-.17,0-.31.05-.41s0-.14,0-.14Z"/><path class="cls-8" d="M43.57,69.36l-.45-.27A12.4,12.4,0,0,1,42,68.35l-.77-.56c-.24-.22-.51-.45-.79-.69s-.51-.53-.78-.81-.48-.61-.73-.92-.44-.65-.62-1a7.5,7.5,0,0,1-.5-1,9.63,9.63,0,0,1-.37-1c-.09-.34-.17-.65-.22-.95A7.46,7.46,0,0,1,37,59.92a2.88,2.88,0,0,1,0-.42c0-.11,0-.17,0-.17l1.12.16a2.87,2.87,0,0,0,0,.45,7.72,7.72,0,0,0,0,1.29c0,.26.09.55.15.86a9.68,9.68,0,0,0,.27.94,8.66,8.66,0,0,0,.4,1c.14.33.34.64.51,1s.4.61.63.9.45.56.69.82.48.48.71.71l.69.58a5.9,5.9,0,0,0,.61.47l.5.34.43.29Z"/><polygon class="cls-9" points="34.85 58.13 40.2 56.68 40.22 57.35 34.94 58.44 34.85 58.13"/><path class="cls-22" d="M81.39,44.75s1.7-7.26,8.35-9a14.18,14.18,0,0,1,5.69,12.26L88.8,51.17S85.09,45.39,81.39,44.75Z"/><path class="cls-6" d="M95.41,47.94l-2.73.44s-.24-6.69-7.89-10.1c0,0,2.59-2.67,5.08-2.39C89.87,35.89,95.58,40.68,95.41,47.94Z"/><path class="cls-7" d="M94.81,47.52a13.76,13.76,0,0,0-.27-2c-.07-.3-.13-.62-.22-1s-.19-.68-.31-1-.27-.71-.41-1.08-.34-.71-.51-1.06a10.84,10.84,0,0,0-.62-1,6.88,6.88,0,0,0-.69-.88,6.29,6.29,0,0,0-.73-.73,5.91,5.91,0,0,0-.71-.57c-.24-.14-.45-.29-.65-.41l-.53-.25-.46-.21.65-1.49.54.3.61.36.72.56a6.64,6.64,0,0,1,.78.74,6.21,6.21,0,0,1,.76.91,11.19,11.19,0,0,1,.69,1c.23.36.38.76.58,1.14s.32.8.45,1.19.25.79.33,1.18.17.76.23,1.11.1.7.14,1a15.69,15.69,0,0,1,.11,2.09Z"/><path class="cls-23" d="M88.91,50.47a.65.65,0,0,1,0-.1c0-.07,0-.17-.08-.29a6.32,6.32,0,0,0-.39-1c-.1-.21-.22-.42-.35-.64a5.6,5.6,0,0,0-.46-.66,6.76,6.76,0,0,0-.56-.66c-.2-.21-.44-.4-.65-.6s-.47-.37-.71-.53L85,45.53l-.72-.35c-.23-.1-.46-.18-.67-.26a8,8,0,0,0-1-.32l-.39-.12.47-1.55.43.17c.26.12.66.25,1.1.49l.71.38.76.49c.26.18.51.39.77.59s.49.46.73.68.45.5.64.76a8,8,0,0,1,.54.8,6,6,0,0,1,.42.79,6.38,6.38,0,0,1,.3.74,6.5,6.5,0,0,1,.3,1.14c0,.15,0,.26,0,.34v.12Z"/><path class="cls-23" d="M83.63,42.2l.41.13c.26.09.64.18,1.09.37.22.1.46.19.71.31l.77.4c.26.15.52.34.79.51s.5.39.76.6.48.44.69.68a6.94,6.94,0,0,1,.6.74c.18.24.34.5.49.74s.26.49.36.72a6.6,6.6,0,0,1,.4,1.14c0,.15.06.27.08.35s0,.14,0,.14l-.93.08s0-.12-.06-.37a6.07,6.07,0,0,0-.28-1c-.08-.21-.18-.43-.29-.66a4.91,4.91,0,0,0-.39-.7,8.3,8.3,0,0,0-.5-.71c-.19-.24-.41-.45-.6-.68s-.45-.42-.68-.61-.47-.37-.71-.53l-.71-.43c-.23-.13-.46-.23-.67-.34a5.78,5.78,0,0,0-.58-.26l-.46-.18-.4-.15Z"/><path class="cls-23" d="M84.94,40.1l.41.13a10.86,10.86,0,0,1,1.09.37c.22.1.47.19.72.31s.5.27.77.4l.78.51c.26.18.51.4.77.59s.48.45.69.69a8,8,0,0,1,.59.74,6.87,6.87,0,0,1,.49.75,6.78,6.78,0,0,1,.36.71A6.5,6.5,0,0,1,92,46.44c0,.15.06.26.07.35s.65,1.37.65,1.37l-.87.5s-.69-1.77-.74-2a6.28,6.28,0,0,0-.29-1c-.07-.21-.18-.42-.28-.66a7.28,7.28,0,0,0-.4-.7,5.69,5.69,0,0,0-.5-.71,7.87,7.87,0,0,0-.6-.68c-.22-.21-.44-.42-.67-.61s-.48-.37-.72-.53l-.7-.43L86.3,41a4.75,4.75,0,0,0-.58-.26l-.46-.18-.41-.15Z"/><polygon class="cls-9" points="93.54 48.47 89.51 50.65 89.37 50.12 93.41 48.23 93.54 48.47"/><path class="cls-24" d="M111.7,39.07s-3.92,8.32-12.21,8.46a17.13,17.13,0,0,1-3.29-16l8.72-1.61S107.54,37.28,111.7,39.07Z"/><path class="cls-6" d="M96.2,31.66l3.33.26S98,39.85,106,46c0,0-3.79,2.41-6.64,1.4C99.37,47.39,94,40.15,96.2,31.66Z"/><path class="cls-8" d="M101.45,32.45v.13c0,.08,0,.21,0,.36a7.26,7.26,0,0,0,.18,1.31,7.74,7.74,0,0,0,.23.85,8.59,8.59,0,0,0,.36.91,9.1,9.1,0,0,0,.48.93c.18.31.4.59.6.89l.68.82c.26.24.5.49.75.72l.74.61c.25.19.5.34.72.5.43.31,2.15,1,2.42,1.19s-.15.35-.15.35l-1.29,1.4s-.58-.46-.87-.66a13.16,13.16,0,0,1-1.16-.89c-.23-.2-.48-.4-.74-.64l-.76-.79c-.25-.28-.48-.6-.73-.91s-.45-.67-.68-1-.38-.71-.54-1.08a9.52,9.52,0,0,1-.41-1.08,9,9,0,0,1-.28-1c-.06-.34-.12-.66-.15-1a8.89,8.89,0,0,1,0-1.44c0-.17,0-.31,0-.4l0-.15Z"/><path class="cls-7" d="M96.78,32.33a17.56,17.56,0,0,0-.23,2.42c0,.36,0,.75,0,1.17s0,.86.08,1.31a13.38,13.38,0,0,0,.18,1.38c.07.47.19.93.3,1.4s.26.91.45,1.33a10.54,10.54,0,0,0,.57,1.22,7.3,7.3,0,0,0,.65,1.06,6.18,6.18,0,0,0,.69.86l.64.67.56.45c.3.24,2,1.46,2,1.46l-2.66.49L99.42,47l-.62-.59-.69-.87a7.48,7.48,0,0,1-.71-1.08,8,8,0,0,1-.64-1.28,9.73,9.73,0,0,1-.52-1.43c-.17-.48-.24-1-.37-1.51s-.15-1-.19-1.53a14.69,14.69,0,0,1-.06-1.47c0-.47,0-.94,0-1.37s.08-.85.11-1.22a18.75,18.75,0,0,1,.47-2.49Z"/><path class="cls-8" d="M104.55,30.49V31a9.17,9.17,0,0,0,.42,2.16,6.87,6.87,0,0,0,.36.91,7.37,7.37,0,0,0,.47.93c.18.31.4.59.6.89s.45.56.69.81.49.5.74.73l.74.61c.25.19.5.34.72.5a11.57,11.57,0,0,0,1.12.66l.43.24-1,1.7-.46-.33a12.28,12.28,0,0,1-1.16-.88c-.23-.2-.48-.41-.73-.64l-.77-.79c-.25-.28-.48-.6-.73-.91s-.45-.67-.67-1-.39-.71-.55-1.07a9.67,9.67,0,0,1-.41-1.09c-.12-.35-.2-.71-.28-1s-.11-.66-.14-1a7.92,7.92,0,0,1,0-1.43,3.53,3.53,0,0,1,0-.42,1.11,1.11,0,0,1,0-.13Z"/><polygon class="cls-9" points="96.53 31.43 104.91 30.08 103.91 30.78 98.63 31.88 96.53 31.43"/><path class="cls-25" d="M55.19,52.84s3.44-7.56,11.73-7.64a17.15,17.15,0,0,1,3.17,16l-8.72,1.54S59.35,54.67,55.19,52.84Z"/><path class="cls-6" d="M70.1,61.09l-3.33-.28s1.64-7.92-6.38-14.11c0,0,3.81-2.39,6.66-1.35C67.05,45.35,72.39,52.62,70.1,61.09Z"/><path class="cls-7" d="M69.52,60.43A15.52,15.52,0,0,0,69.77,58a11.68,11.68,0,0,0,0-1.19,11.83,11.83,0,0,0-.07-1.3,13.67,13.67,0,0,0-.17-1.38c-.07-.47-.18-.93-.29-1.39s-.25-.92-.44-1.35a9.07,9.07,0,0,0-.56-1.22,7.3,7.3,0,0,0-.65-1.06,5.15,5.15,0,0,0-.68-.87c-.23-.25-.44-.48-.63-.67s-.4-.33-.56-.45-1.55-1.54-1.55-1.54l2.27-.41.54.51.62.6c.2.26.43.54.68.87A7.91,7.91,0,0,1,69,48.25a8.59,8.59,0,0,1,.63,1.29,10.47,10.47,0,0,1,.5,1.43c.17.49.23,1,.36,1.51s.14,1,.18,1.52.07,1,0,1.48a12.19,12.19,0,0,1,0,1.37c0,.44-.08.85-.11,1.22a18,18,0,0,1-.49,2.48Z"/><path class="cls-8" d="M57.9,51l.45.27a10.07,10.07,0,0,1,1.17.75c.23.18.5.35.76.57s.51.45.78.69.52.54.78.82.48.61.73.92.43.66.61,1a9.75,9.75,0,0,1,.49,1,8.91,8.91,0,0,1,.36,1c.09.33.17.64.22.94a8.25,8.25,0,0,1,.15,1.46c0,.18,0,.32,0,.43s0,.17,0,.17l-1.11-.17s0-.15,0-.45a8.69,8.69,0,0,0,0-1.29,7.42,7.42,0,0,0-.15-.86,7,7,0,0,0-.26-.94,8,8,0,0,0-.39-1c-.14-.34-.34-.65-.51-1s-.4-.62-.62-.91-.45-.57-.68-.82l-.71-.72-.69-.58a7.4,7.4,0,0,0-.6-.48l-.5-.34-.42-.29Z"/><polygon class="cls-18" points="69.89 60.88 61.27 62.6 61.52 61.62 67.16 60.63 69.89 60.88"/><polygon class="cls-10" points="115.25 31.75 102.49 37.09 103.72 40.17 121.83 32.59 115.25 31.75"/><polygon class="cls-4" points="120.77 32.4 103.51 39.65 104.03 40.95 123.4 32.84 120.77 32.4"/><path class="cls-26" d="M51.85,51.39l-.45.22a8,8,0,0,0,7.55,14l.08,0Z"/><path class="cls-12" d="M55.34,67h0a8.47,8.47,0,0,1-7.44-4.5,8.38,8.38,0,0,1,3.27-11.35l.34-.17.56-.26L59.7,65.84l-.49.2A8.13,8.13,0,0,1,55.34,67ZM51.63,52a7.41,7.41,0,0,0-2.87,10,7.48,7.48,0,0,0,6.58,4h0a7,7,0,0,0,3-.68Z"/><path class="cls-13" d="M55.22,61.92c-2.11.68-3.14-.42-3.72-2s.58-1.9.84-2.76c.57-1.87-1.21-3.15-2-2.72-1.25.64-2.46,4.09-.78,7.15s3.61,3.68,6.39,3.27C57.13,64.76,56.2,61.61,55.22,61.92Z"/><path class="cls-14" d="M50.38,56.75c-.28-.24-.62-.26-.76,0a.72.72,0,0,0,.26.84A3.49,3.49,0,0,0,51.1,58,3.79,3.79,0,0,0,50.38,56.75Z"/><path class="cls-14" d="M49.92,58.75a.46.46,0,0,0-.62.38.75.75,0,0,0,.57.68A3,3,0,0,0,51,59.58,3.49,3.49,0,0,0,49.92,58.75Z"/><path class="cls-14" d="M50.42,60.93a.52.52,0,0,0-.33.69.6.6,0,0,0,.74.35c.3-.1.84-.82.84-.85A2.59,2.59,0,0,0,50.42,60.93Z"/><path class="cls-14" d="M51.76,62.74a.66.66,0,0,0,0,.85.49.49,0,0,0,.75-.06,3.62,3.62,0,0,0,.29-1.27A2,2,0,0,0,51.76,62.74Z"/><path class="cls-14" d="M53.61,63.77a.74.74,0,0,0,.39.8c.27.1.52-.12.56-.47a4.7,4.7,0,0,0-.3-1.38A2.39,2.39,0,0,0,53.61,63.77Z"/><path class="cls-27" d="M57.56,62.69l.63,1.25A5.64,5.64,0,0,0,57.56,62.69Z"/><path class="cls-28" d="M79.83,56a3.79,3.79,0,0,0,.38-.32A8,8,0,0,0,69.42,43.92l0,0Z"/><path class="cls-12" d="M79.77,56.62,68.67,43.91l.39-.32a8.15,8.15,0,0,1,5.57-2.18,8.56,8.56,0,0,1,6.27,2.77A8.37,8.37,0,0,1,80.54,56c-.1.1-.21.19-.32.28ZM70.05,44l9.84,11.26a7.39,7.39,0,0,0,.29-10.43,7.59,7.59,0,0,0-5.55-2.46A7.2,7.2,0,0,0,70.05,44Z"/><path class="cls-13" d="M74,46.58c1.87-1.17,3.15-.37,4.11,1.06s-.09,2-.13,2.88c-.09,2,2,2.76,2.59,2.14,1-.93,1.37-4.56-1-7.11s-4.41-2.68-7-1.59C71.4,44.3,73.08,47.13,74,46.58Z"/><path class="cls-14" d="M79.93,50.39c.33.17.66.1.74-.15a.73.73,0,0,0-.45-.76,3.78,3.78,0,0,0-1.3-.14A3.64,3.64,0,0,0,79.93,50.39Z"/><path class="cls-14" d="M79.88,48.34c.33,0,.56-.23.5-.52a.71.71,0,0,0-.71-.51,2.94,2.94,0,0,0-1.08.5A3.32,3.32,0,0,0,79.88,48.34Z"/><path class="cls-14" d="M78.86,46.36A.52.52,0,0,0,79,45.6a.6.6,0,0,0-.8-.15,2.86,2.86,0,0,0-.6,1A2.58,2.58,0,0,0,78.86,46.36Z"/><path class="cls-14" d="M77.11,44.93a.68.68,0,0,0-.25-.82.49.49,0,0,0-.7.25,3.78,3.78,0,0,0,0,1.3C76.23,45.73,77,45.22,77.11,44.93Z"/><path class="cls-14" d="M75.07,44.39a.75.75,0,0,0-.59-.67c-.28,0-.47.24-.43.59a4.75,4.75,0,0,0,.65,1.26A2.49,2.49,0,0,0,75.07,44.39Z"/><path class="cls-29" d="M71.5,46.42l-.92-1.05A6.29,6.29,0,0,0,71.5,46.42Z"/></g></g></svg>